G04*
G04 #@! TF.GenerationSoftware,Altium Limited,Altium Designer,23.1.1 (15)*
G04*
G04 Layer_Color=8388736*
%FSAX25Y25*%
%MOIN*%
G70*
G04*
G04 #@! TF.SameCoordinates,3BE6CC82-2BF3-4767-8D6A-7EFB0FF24752*
G04*
G04*
G04 #@! TF.FilePolarity,Positive*
G04*
G01*
G75*
%ADD17C,0.00787*%
%ADD20C,0.00800*%
%ADD31C,0.01000*%
G36*
X0230367Y0208398D02*
X0230439Y0208387D01*
X0230528Y0208370D01*
X0230628Y0208342D01*
X0230728Y0208309D01*
X0230827Y0208265D01*
X0230833D01*
X0230838Y0208259D01*
X0230872Y0208243D01*
X0230922Y0208209D01*
X0230977Y0208170D01*
X0231044Y0208115D01*
X0231111Y0208054D01*
X0231177Y0207982D01*
X0231233Y0207898D01*
X0231238Y0207887D01*
X0231255Y0207860D01*
X0231277Y0207810D01*
X0231305Y0207749D01*
X0231332Y0207676D01*
X0231355Y0207593D01*
X0231371Y0207499D01*
X0231377Y0207404D01*
Y0207393D01*
Y0207360D01*
X0231371Y0207316D01*
X0231360Y0207255D01*
X0231344Y0207183D01*
X0231316Y0207105D01*
X0231282Y0207027D01*
X0231238Y0206949D01*
X0231233Y0206938D01*
X0231216Y0206916D01*
X0231183Y0206877D01*
X0231138Y0206833D01*
X0231083Y0206783D01*
X0231016Y0206727D01*
X0230939Y0206677D01*
X0230844Y0206627D01*
X0230850D01*
X0230861Y0206622D01*
X0230877Y0206616D01*
X0230900Y0206611D01*
X0230961Y0206589D01*
X0231038Y0206555D01*
X0231127Y0206511D01*
X0231216Y0206455D01*
X0231299Y0206383D01*
X0231377Y0206300D01*
X0231382Y0206289D01*
X0231405Y0206256D01*
X0231438Y0206200D01*
X0231471Y0206128D01*
X0231505Y0206039D01*
X0231538Y0205934D01*
X0231560Y0205812D01*
X0231566Y0205678D01*
Y0205673D01*
Y0205656D01*
Y0205628D01*
X0231560Y0205595D01*
X0231555Y0205551D01*
X0231543Y0205501D01*
X0231532Y0205445D01*
X0231521Y0205384D01*
X0231477Y0205251D01*
X0231444Y0205179D01*
X0231410Y0205112D01*
X0231366Y0205040D01*
X0231316Y0204968D01*
X0231260Y0204896D01*
X0231194Y0204829D01*
X0231188Y0204824D01*
X0231177Y0204813D01*
X0231155Y0204796D01*
X0231127Y0204774D01*
X0231094Y0204746D01*
X0231049Y0204718D01*
X0230999Y0204685D01*
X0230939Y0204657D01*
X0230877Y0204624D01*
X0230805Y0204591D01*
X0230733Y0204563D01*
X0230650Y0204535D01*
X0230561Y0204513D01*
X0230467Y0204496D01*
X0230372Y0204485D01*
X0230267Y0204480D01*
X0230217D01*
X0230184Y0204485D01*
X0230139Y0204491D01*
X0230089Y0204496D01*
X0230034Y0204507D01*
X0229973Y0204519D01*
X0229840Y0204552D01*
X0229701Y0204607D01*
X0229629Y0204641D01*
X0229562Y0204679D01*
X0229495Y0204729D01*
X0229429Y0204779D01*
X0229423Y0204785D01*
X0229412Y0204796D01*
X0229396Y0204813D01*
X0229379Y0204835D01*
X0229351Y0204863D01*
X0229323Y0204901D01*
X0229290Y0204940D01*
X0229257Y0204990D01*
X0229223Y0205046D01*
X0229190Y0205101D01*
X0229129Y0205234D01*
X0229079Y0205390D01*
X0229063Y0205473D01*
X0229051Y0205562D01*
X0229523Y0205623D01*
Y0205617D01*
X0229529Y0205606D01*
X0229534Y0205584D01*
X0229540Y0205556D01*
X0229545Y0205523D01*
X0229556Y0205484D01*
X0229584Y0205401D01*
X0229623Y0205301D01*
X0229673Y0205207D01*
X0229729Y0205118D01*
X0229795Y0205040D01*
X0229806Y0205035D01*
X0229829Y0205012D01*
X0229873Y0204985D01*
X0229928Y0204957D01*
X0229995Y0204924D01*
X0230078Y0204896D01*
X0230173Y0204874D01*
X0230272Y0204868D01*
X0230306D01*
X0230328Y0204874D01*
X0230389Y0204879D01*
X0230467Y0204896D01*
X0230556Y0204924D01*
X0230650Y0204962D01*
X0230744Y0205018D01*
X0230833Y0205096D01*
X0230844Y0205107D01*
X0230872Y0205140D01*
X0230905Y0205190D01*
X0230949Y0205257D01*
X0230994Y0205340D01*
X0231027Y0205434D01*
X0231055Y0205545D01*
X0231066Y0205667D01*
Y0205673D01*
Y0205684D01*
Y0205701D01*
X0231061Y0205723D01*
X0231055Y0205784D01*
X0231038Y0205856D01*
X0231016Y0205945D01*
X0230977Y0206034D01*
X0230922Y0206122D01*
X0230850Y0206206D01*
X0230838Y0206217D01*
X0230811Y0206239D01*
X0230766Y0206272D01*
X0230705Y0206311D01*
X0230628Y0206350D01*
X0230533Y0206383D01*
X0230428Y0206405D01*
X0230311Y0206417D01*
X0230261D01*
X0230223Y0206411D01*
X0230173Y0206405D01*
X0230117Y0206394D01*
X0230050Y0206383D01*
X0229978Y0206367D01*
X0230034Y0206783D01*
X0230062D01*
X0230084Y0206777D01*
X0230156D01*
X0230217Y0206788D01*
X0230289Y0206800D01*
X0230372Y0206816D01*
X0230467Y0206844D01*
X0230556Y0206883D01*
X0230650Y0206933D01*
X0230655D01*
X0230661Y0206938D01*
X0230689Y0206961D01*
X0230728Y0206999D01*
X0230772Y0207049D01*
X0230816Y0207121D01*
X0230855Y0207205D01*
X0230883Y0207299D01*
X0230894Y0207354D01*
Y0207416D01*
Y0207421D01*
Y0207427D01*
Y0207460D01*
X0230883Y0207504D01*
X0230872Y0207565D01*
X0230850Y0207632D01*
X0230822Y0207704D01*
X0230778Y0207776D01*
X0230716Y0207843D01*
X0230711Y0207849D01*
X0230683Y0207871D01*
X0230644Y0207898D01*
X0230594Y0207932D01*
X0230528Y0207960D01*
X0230450Y0207987D01*
X0230361Y0208009D01*
X0230261Y0208015D01*
X0230217D01*
X0230167Y0208004D01*
X0230100Y0207993D01*
X0230028Y0207971D01*
X0229956Y0207943D01*
X0229878Y0207898D01*
X0229806Y0207843D01*
X0229801Y0207837D01*
X0229779Y0207810D01*
X0229745Y0207771D01*
X0229706Y0207715D01*
X0229667Y0207643D01*
X0229629Y0207554D01*
X0229595Y0207449D01*
X0229573Y0207327D01*
X0229101Y0207410D01*
Y0207416D01*
X0229107Y0207432D01*
X0229113Y0207454D01*
X0229118Y0207488D01*
X0229129Y0207527D01*
X0229146Y0207571D01*
X0229179Y0207676D01*
X0229235Y0207799D01*
X0229301Y0207921D01*
X0229384Y0208037D01*
X0229490Y0208143D01*
X0229495Y0208148D01*
X0229507Y0208154D01*
X0229523Y0208165D01*
X0229545Y0208182D01*
X0229573Y0208204D01*
X0229612Y0208226D01*
X0229651Y0208248D01*
X0229701Y0208276D01*
X0229812Y0208320D01*
X0229939Y0208365D01*
X0230089Y0208392D01*
X0230167Y0208403D01*
X0230306D01*
X0230367Y0208398D01*
D02*
G37*
G36*
X0238808Y0204546D02*
X0238270D01*
Y0205085D01*
X0238808D01*
Y0204546D01*
D02*
G37*
G36*
X0227425Y0208398D02*
X0227470Y0208392D01*
X0227525Y0208387D01*
X0227586Y0208376D01*
X0227647Y0208365D01*
X0227792Y0208326D01*
X0227936Y0208270D01*
X0228008Y0208237D01*
X0228080Y0208198D01*
X0228147Y0208148D01*
X0228208Y0208093D01*
X0228213Y0208087D01*
X0228224Y0208082D01*
X0228236Y0208059D01*
X0228258Y0208037D01*
X0228286Y0208009D01*
X0228313Y0207971D01*
X0228341Y0207932D01*
X0228374Y0207882D01*
X0228430Y0207776D01*
X0228485Y0207643D01*
X0228507Y0207576D01*
X0228519Y0207499D01*
X0228530Y0207421D01*
X0228535Y0207338D01*
Y0207327D01*
Y0207299D01*
X0228530Y0207255D01*
X0228524Y0207194D01*
X0228513Y0207127D01*
X0228491Y0207049D01*
X0228469Y0206966D01*
X0228435Y0206883D01*
X0228430Y0206872D01*
X0228419Y0206844D01*
X0228397Y0206800D01*
X0228363Y0206738D01*
X0228319Y0206672D01*
X0228263Y0206589D01*
X0228197Y0206505D01*
X0228119Y0206411D01*
X0228108Y0206400D01*
X0228080Y0206367D01*
X0228052Y0206339D01*
X0228025Y0206311D01*
X0227991Y0206278D01*
X0227947Y0206233D01*
X0227903Y0206189D01*
X0227847Y0206139D01*
X0227792Y0206084D01*
X0227725Y0206023D01*
X0227653Y0205961D01*
X0227575Y0205889D01*
X0227486Y0205817D01*
X0227398Y0205739D01*
X0227392Y0205734D01*
X0227381Y0205723D01*
X0227359Y0205706D01*
X0227331Y0205684D01*
X0227298Y0205651D01*
X0227259Y0205617D01*
X0227170Y0205545D01*
X0227076Y0205462D01*
X0226987Y0205379D01*
X0226909Y0205307D01*
X0226876Y0205279D01*
X0226848Y0205251D01*
X0226842Y0205245D01*
X0226826Y0205229D01*
X0226804Y0205207D01*
X0226776Y0205173D01*
X0226748Y0205135D01*
X0226715Y0205096D01*
X0226648Y0205001D01*
X0228541D01*
Y0204546D01*
X0225993D01*
Y0204552D01*
Y0204574D01*
Y0204607D01*
X0225999Y0204652D01*
X0226005Y0204702D01*
X0226016Y0204757D01*
X0226027Y0204813D01*
X0226049Y0204874D01*
Y0204879D01*
X0226054Y0204885D01*
X0226065Y0204918D01*
X0226088Y0204968D01*
X0226121Y0205035D01*
X0226166Y0205112D01*
X0226221Y0205201D01*
X0226282Y0205290D01*
X0226360Y0205384D01*
Y0205390D01*
X0226371Y0205395D01*
X0226398Y0205429D01*
X0226448Y0205479D01*
X0226521Y0205551D01*
X0226604Y0205634D01*
X0226709Y0205734D01*
X0226837Y0205845D01*
X0226976Y0205961D01*
X0226981Y0205967D01*
X0227004Y0205984D01*
X0227037Y0206011D01*
X0227076Y0206045D01*
X0227126Y0206089D01*
X0227187Y0206139D01*
X0227248Y0206195D01*
X0227320Y0206256D01*
X0227459Y0206389D01*
X0227597Y0206522D01*
X0227664Y0206589D01*
X0227725Y0206655D01*
X0227781Y0206716D01*
X0227825Y0206777D01*
Y0206783D01*
X0227836Y0206788D01*
X0227847Y0206805D01*
X0227858Y0206827D01*
X0227897Y0206888D01*
X0227941Y0206961D01*
X0227980Y0207049D01*
X0228019Y0207144D01*
X0228041Y0207249D01*
X0228052Y0207349D01*
Y0207354D01*
Y0207360D01*
X0228047Y0207393D01*
X0228041Y0207449D01*
X0228025Y0207510D01*
X0228003Y0207588D01*
X0227964Y0207665D01*
X0227914Y0207743D01*
X0227847Y0207821D01*
X0227836Y0207832D01*
X0227808Y0207854D01*
X0227769Y0207882D01*
X0227708Y0207921D01*
X0227631Y0207954D01*
X0227542Y0207987D01*
X0227436Y0208009D01*
X0227320Y0208015D01*
X0227287D01*
X0227264Y0208009D01*
X0227198Y0208004D01*
X0227120Y0207987D01*
X0227037Y0207965D01*
X0226942Y0207926D01*
X0226854Y0207876D01*
X0226770Y0207810D01*
X0226759Y0207799D01*
X0226737Y0207771D01*
X0226704Y0207726D01*
X0226671Y0207660D01*
X0226632Y0207582D01*
X0226598Y0207482D01*
X0226576Y0207371D01*
X0226565Y0207243D01*
X0226082Y0207294D01*
Y0207299D01*
X0226088Y0207316D01*
Y0207343D01*
X0226093Y0207382D01*
X0226104Y0207427D01*
X0226115Y0207477D01*
X0226132Y0207538D01*
X0226149Y0207599D01*
X0226193Y0207732D01*
X0226260Y0207865D01*
X0226299Y0207932D01*
X0226349Y0207998D01*
X0226398Y0208059D01*
X0226454Y0208115D01*
X0226460Y0208120D01*
X0226471Y0208126D01*
X0226487Y0208143D01*
X0226515Y0208159D01*
X0226548Y0208182D01*
X0226587Y0208204D01*
X0226632Y0208231D01*
X0226687Y0208259D01*
X0226748Y0208287D01*
X0226815Y0208315D01*
X0226887Y0208337D01*
X0226965Y0208359D01*
X0227048Y0208376D01*
X0227137Y0208392D01*
X0227231Y0208398D01*
X0227331Y0208403D01*
X0227386D01*
X0227425Y0208398D01*
D02*
G37*
G36*
X0246834D02*
X0246906Y0208387D01*
X0246989Y0208370D01*
X0247078Y0208348D01*
X0247172Y0208320D01*
X0247261Y0208276D01*
X0247267D01*
X0247272Y0208270D01*
X0247300Y0208254D01*
X0247344Y0208226D01*
X0247400Y0208187D01*
X0247461Y0208132D01*
X0247527Y0208070D01*
X0247588Y0207998D01*
X0247650Y0207915D01*
X0247655Y0207904D01*
X0247677Y0207876D01*
X0247699Y0207826D01*
X0247738Y0207754D01*
X0247772Y0207671D01*
X0247816Y0207576D01*
X0247855Y0207466D01*
X0247888Y0207343D01*
Y0207338D01*
X0247894Y0207327D01*
X0247899Y0207310D01*
X0247905Y0207282D01*
X0247910Y0207249D01*
X0247916Y0207210D01*
X0247927Y0207160D01*
X0247933Y0207105D01*
X0247944Y0207044D01*
X0247949Y0206977D01*
X0247955Y0206899D01*
X0247966Y0206822D01*
X0247971Y0206733D01*
Y0206644D01*
X0247977Y0206544D01*
Y0206439D01*
Y0206433D01*
Y0206411D01*
Y0206372D01*
Y0206328D01*
X0247971Y0206267D01*
Y0206200D01*
X0247966Y0206128D01*
X0247960Y0206050D01*
X0247944Y0205873D01*
X0247916Y0205690D01*
X0247883Y0205512D01*
X0247860Y0205429D01*
X0247833Y0205345D01*
Y0205340D01*
X0247827Y0205329D01*
X0247816Y0205307D01*
X0247805Y0205279D01*
X0247794Y0205240D01*
X0247772Y0205201D01*
X0247727Y0205107D01*
X0247672Y0205007D01*
X0247600Y0204896D01*
X0247516Y0204796D01*
X0247416Y0204702D01*
X0247411D01*
X0247405Y0204691D01*
X0247389Y0204679D01*
X0247366Y0204668D01*
X0247339Y0204652D01*
X0247311Y0204629D01*
X0247228Y0204591D01*
X0247128Y0204552D01*
X0247011Y0204513D01*
X0246872Y0204491D01*
X0246723Y0204480D01*
X0246667D01*
X0246628Y0204485D01*
X0246584Y0204491D01*
X0246528Y0204502D01*
X0246467Y0204513D01*
X0246401Y0204530D01*
X0246334Y0204552D01*
X0246262Y0204574D01*
X0246190Y0204607D01*
X0246118Y0204646D01*
X0246046Y0204691D01*
X0245973Y0204746D01*
X0245907Y0204807D01*
X0245846Y0204874D01*
X0245840Y0204879D01*
X0245829Y0204896D01*
X0245812Y0204924D01*
X0245785Y0204968D01*
X0245757Y0205018D01*
X0245729Y0205085D01*
X0245690Y0205162D01*
X0245657Y0205251D01*
X0245624Y0205351D01*
X0245590Y0205468D01*
X0245557Y0205595D01*
X0245529Y0205739D01*
X0245502Y0205895D01*
X0245485Y0206061D01*
X0245474Y0206244D01*
X0245468Y0206439D01*
Y0206444D01*
Y0206467D01*
Y0206505D01*
Y0206550D01*
X0245474Y0206611D01*
Y0206677D01*
X0245479Y0206750D01*
X0245485Y0206833D01*
X0245502Y0207005D01*
X0245529Y0207188D01*
X0245563Y0207371D01*
X0245585Y0207454D01*
X0245607Y0207538D01*
Y0207543D01*
X0245613Y0207554D01*
X0245624Y0207576D01*
X0245635Y0207604D01*
X0245646Y0207643D01*
X0245668Y0207682D01*
X0245713Y0207776D01*
X0245768Y0207876D01*
X0245840Y0207982D01*
X0245923Y0208087D01*
X0246023Y0208176D01*
X0246029D01*
X0246035Y0208187D01*
X0246051Y0208198D01*
X0246073Y0208209D01*
X0246101Y0208231D01*
X0246134Y0208248D01*
X0246218Y0208293D01*
X0246318Y0208331D01*
X0246434Y0208370D01*
X0246573Y0208392D01*
X0246723Y0208403D01*
X0246773D01*
X0246834Y0208398D01*
D02*
G37*
G36*
X0243848D02*
X0243920Y0208387D01*
X0244003Y0208370D01*
X0244092Y0208348D01*
X0244186Y0208320D01*
X0244275Y0208276D01*
X0244281D01*
X0244286Y0208270D01*
X0244314Y0208254D01*
X0244358Y0208226D01*
X0244414Y0208187D01*
X0244475Y0208132D01*
X0244542Y0208070D01*
X0244603Y0207998D01*
X0244664Y0207915D01*
X0244669Y0207904D01*
X0244691Y0207876D01*
X0244713Y0207826D01*
X0244752Y0207754D01*
X0244786Y0207671D01*
X0244830Y0207576D01*
X0244869Y0207466D01*
X0244902Y0207343D01*
Y0207338D01*
X0244908Y0207327D01*
X0244913Y0207310D01*
X0244919Y0207282D01*
X0244924Y0207249D01*
X0244930Y0207210D01*
X0244941Y0207160D01*
X0244947Y0207105D01*
X0244958Y0207044D01*
X0244963Y0206977D01*
X0244969Y0206899D01*
X0244980Y0206822D01*
X0244986Y0206733D01*
Y0206644D01*
X0244991Y0206544D01*
Y0206439D01*
Y0206433D01*
Y0206411D01*
Y0206372D01*
Y0206328D01*
X0244986Y0206267D01*
Y0206200D01*
X0244980Y0206128D01*
X0244974Y0206050D01*
X0244958Y0205873D01*
X0244930Y0205690D01*
X0244897Y0205512D01*
X0244875Y0205429D01*
X0244847Y0205345D01*
Y0205340D01*
X0244841Y0205329D01*
X0244830Y0205307D01*
X0244819Y0205279D01*
X0244808Y0205240D01*
X0244786Y0205201D01*
X0244741Y0205107D01*
X0244686Y0205007D01*
X0244614Y0204896D01*
X0244530Y0204796D01*
X0244430Y0204702D01*
X0244425D01*
X0244419Y0204691D01*
X0244403Y0204679D01*
X0244380Y0204668D01*
X0244353Y0204652D01*
X0244325Y0204629D01*
X0244242Y0204591D01*
X0244142Y0204552D01*
X0244025Y0204513D01*
X0243887Y0204491D01*
X0243737Y0204480D01*
X0243681D01*
X0243642Y0204485D01*
X0243598Y0204491D01*
X0243543Y0204502D01*
X0243481Y0204513D01*
X0243415Y0204530D01*
X0243348Y0204552D01*
X0243276Y0204574D01*
X0243204Y0204607D01*
X0243132Y0204646D01*
X0243060Y0204691D01*
X0242987Y0204746D01*
X0242921Y0204807D01*
X0242860Y0204874D01*
X0242854Y0204879D01*
X0242843Y0204896D01*
X0242827Y0204924D01*
X0242799Y0204968D01*
X0242771Y0205018D01*
X0242743Y0205085D01*
X0242704Y0205162D01*
X0242671Y0205251D01*
X0242638Y0205351D01*
X0242605Y0205468D01*
X0242571Y0205595D01*
X0242544Y0205739D01*
X0242516Y0205895D01*
X0242499Y0206061D01*
X0242488Y0206244D01*
X0242482Y0206439D01*
Y0206444D01*
Y0206467D01*
Y0206505D01*
Y0206550D01*
X0242488Y0206611D01*
Y0206677D01*
X0242494Y0206750D01*
X0242499Y0206833D01*
X0242516Y0207005D01*
X0242544Y0207188D01*
X0242577Y0207371D01*
X0242599Y0207454D01*
X0242621Y0207538D01*
Y0207543D01*
X0242627Y0207554D01*
X0242638Y0207576D01*
X0242649Y0207604D01*
X0242660Y0207643D01*
X0242682Y0207682D01*
X0242727Y0207776D01*
X0242782Y0207876D01*
X0242854Y0207982D01*
X0242938Y0208087D01*
X0243037Y0208176D01*
X0243043D01*
X0243049Y0208187D01*
X0243065Y0208198D01*
X0243087Y0208209D01*
X0243115Y0208231D01*
X0243148Y0208248D01*
X0243232Y0208293D01*
X0243332Y0208331D01*
X0243448Y0208370D01*
X0243587Y0208392D01*
X0243737Y0208403D01*
X0243787D01*
X0243848Y0208398D01*
D02*
G37*
G36*
X0240862D02*
X0240934Y0208387D01*
X0241017Y0208370D01*
X0241106Y0208348D01*
X0241200Y0208320D01*
X0241289Y0208276D01*
X0241295D01*
X0241300Y0208270D01*
X0241328Y0208254D01*
X0241372Y0208226D01*
X0241428Y0208187D01*
X0241489Y0208132D01*
X0241556Y0208070D01*
X0241617Y0207998D01*
X0241678Y0207915D01*
X0241683Y0207904D01*
X0241705Y0207876D01*
X0241728Y0207826D01*
X0241767Y0207754D01*
X0241800Y0207671D01*
X0241844Y0207576D01*
X0241883Y0207466D01*
X0241916Y0207343D01*
Y0207338D01*
X0241922Y0207327D01*
X0241927Y0207310D01*
X0241933Y0207282D01*
X0241938Y0207249D01*
X0241944Y0207210D01*
X0241955Y0207160D01*
X0241961Y0207105D01*
X0241972Y0207044D01*
X0241977Y0206977D01*
X0241983Y0206899D01*
X0241994Y0206822D01*
X0242000Y0206733D01*
Y0206644D01*
X0242005Y0206544D01*
Y0206439D01*
Y0206433D01*
Y0206411D01*
Y0206372D01*
Y0206328D01*
X0242000Y0206267D01*
Y0206200D01*
X0241994Y0206128D01*
X0241988Y0206050D01*
X0241972Y0205873D01*
X0241944Y0205690D01*
X0241911Y0205512D01*
X0241889Y0205429D01*
X0241861Y0205345D01*
Y0205340D01*
X0241855Y0205329D01*
X0241844Y0205307D01*
X0241833Y0205279D01*
X0241822Y0205240D01*
X0241800Y0205201D01*
X0241755Y0205107D01*
X0241700Y0205007D01*
X0241628Y0204896D01*
X0241545Y0204796D01*
X0241445Y0204702D01*
X0241439D01*
X0241434Y0204691D01*
X0241417Y0204679D01*
X0241395Y0204668D01*
X0241367Y0204652D01*
X0241339Y0204629D01*
X0241256Y0204591D01*
X0241156Y0204552D01*
X0241039Y0204513D01*
X0240901Y0204491D01*
X0240751Y0204480D01*
X0240695D01*
X0240656Y0204485D01*
X0240612Y0204491D01*
X0240557Y0204502D01*
X0240496Y0204513D01*
X0240429Y0204530D01*
X0240362Y0204552D01*
X0240290Y0204574D01*
X0240218Y0204607D01*
X0240146Y0204646D01*
X0240074Y0204691D01*
X0240002Y0204746D01*
X0239935Y0204807D01*
X0239874Y0204874D01*
X0239868Y0204879D01*
X0239857Y0204896D01*
X0239841Y0204924D01*
X0239813Y0204968D01*
X0239785Y0205018D01*
X0239757Y0205085D01*
X0239719Y0205162D01*
X0239685Y0205251D01*
X0239652Y0205351D01*
X0239619Y0205468D01*
X0239585Y0205595D01*
X0239558Y0205739D01*
X0239530Y0205895D01*
X0239513Y0206061D01*
X0239502Y0206244D01*
X0239496Y0206439D01*
Y0206444D01*
Y0206467D01*
Y0206505D01*
Y0206550D01*
X0239502Y0206611D01*
Y0206677D01*
X0239508Y0206750D01*
X0239513Y0206833D01*
X0239530Y0207005D01*
X0239558Y0207188D01*
X0239591Y0207371D01*
X0239613Y0207454D01*
X0239635Y0207538D01*
Y0207543D01*
X0239641Y0207554D01*
X0239652Y0207576D01*
X0239663Y0207604D01*
X0239674Y0207643D01*
X0239696Y0207682D01*
X0239741Y0207776D01*
X0239796Y0207876D01*
X0239868Y0207982D01*
X0239952Y0208087D01*
X0240052Y0208176D01*
X0240057D01*
X0240063Y0208187D01*
X0240079Y0208198D01*
X0240102Y0208209D01*
X0240129Y0208231D01*
X0240163Y0208248D01*
X0240246Y0208293D01*
X0240346Y0208331D01*
X0240462Y0208370D01*
X0240601Y0208392D01*
X0240751Y0208403D01*
X0240801D01*
X0240862Y0208398D01*
D02*
G37*
G36*
X0236383D02*
X0236455Y0208387D01*
X0236538Y0208370D01*
X0236627Y0208348D01*
X0236721Y0208320D01*
X0236810Y0208276D01*
X0236816D01*
X0236822Y0208270D01*
X0236849Y0208254D01*
X0236894Y0208226D01*
X0236949Y0208187D01*
X0237010Y0208132D01*
X0237077Y0208070D01*
X0237138Y0207998D01*
X0237199Y0207915D01*
X0237204Y0207904D01*
X0237227Y0207876D01*
X0237249Y0207826D01*
X0237288Y0207754D01*
X0237321Y0207671D01*
X0237365Y0207576D01*
X0237404Y0207466D01*
X0237438Y0207343D01*
Y0207338D01*
X0237443Y0207327D01*
X0237449Y0207310D01*
X0237454Y0207282D01*
X0237460Y0207249D01*
X0237465Y0207210D01*
X0237476Y0207160D01*
X0237482Y0207105D01*
X0237493Y0207044D01*
X0237498Y0206977D01*
X0237504Y0206899D01*
X0237515Y0206822D01*
X0237521Y0206733D01*
Y0206644D01*
X0237526Y0206544D01*
Y0206439D01*
Y0206433D01*
Y0206411D01*
Y0206372D01*
Y0206328D01*
X0237521Y0206267D01*
Y0206200D01*
X0237515Y0206128D01*
X0237510Y0206050D01*
X0237493Y0205873D01*
X0237465Y0205690D01*
X0237432Y0205512D01*
X0237410Y0205429D01*
X0237382Y0205345D01*
Y0205340D01*
X0237376Y0205329D01*
X0237365Y0205307D01*
X0237354Y0205279D01*
X0237343Y0205240D01*
X0237321Y0205201D01*
X0237277Y0205107D01*
X0237221Y0205007D01*
X0237149Y0204896D01*
X0237066Y0204796D01*
X0236966Y0204702D01*
X0236960D01*
X0236955Y0204691D01*
X0236938Y0204679D01*
X0236916Y0204668D01*
X0236888Y0204652D01*
X0236860Y0204629D01*
X0236777Y0204591D01*
X0236677Y0204552D01*
X0236561Y0204513D01*
X0236422Y0204491D01*
X0236272Y0204480D01*
X0236216D01*
X0236178Y0204485D01*
X0236133Y0204491D01*
X0236078Y0204502D01*
X0236017Y0204513D01*
X0235950Y0204530D01*
X0235883Y0204552D01*
X0235811Y0204574D01*
X0235739Y0204607D01*
X0235667Y0204646D01*
X0235595Y0204691D01*
X0235523Y0204746D01*
X0235456Y0204807D01*
X0235395Y0204874D01*
X0235390Y0204879D01*
X0235379Y0204896D01*
X0235362Y0204924D01*
X0235334Y0204968D01*
X0235306Y0205018D01*
X0235279Y0205085D01*
X0235240Y0205162D01*
X0235206Y0205251D01*
X0235173Y0205351D01*
X0235140Y0205468D01*
X0235106Y0205595D01*
X0235079Y0205739D01*
X0235051Y0205895D01*
X0235034Y0206061D01*
X0235023Y0206244D01*
X0235018Y0206439D01*
Y0206444D01*
Y0206467D01*
Y0206505D01*
Y0206550D01*
X0235023Y0206611D01*
Y0206677D01*
X0235029Y0206750D01*
X0235034Y0206833D01*
X0235051Y0207005D01*
X0235079Y0207188D01*
X0235112Y0207371D01*
X0235134Y0207454D01*
X0235156Y0207538D01*
Y0207543D01*
X0235162Y0207554D01*
X0235173Y0207576D01*
X0235184Y0207604D01*
X0235195Y0207643D01*
X0235217Y0207682D01*
X0235262Y0207776D01*
X0235317Y0207876D01*
X0235390Y0207982D01*
X0235473Y0208087D01*
X0235573Y0208176D01*
X0235578D01*
X0235584Y0208187D01*
X0235600Y0208198D01*
X0235623Y0208209D01*
X0235650Y0208231D01*
X0235684Y0208248D01*
X0235767Y0208293D01*
X0235867Y0208331D01*
X0235983Y0208370D01*
X0236122Y0208392D01*
X0236272Y0208403D01*
X0236322D01*
X0236383Y0208398D01*
D02*
G37*
G36*
X0233397D02*
X0233469Y0208387D01*
X0233553Y0208370D01*
X0233641Y0208348D01*
X0233736Y0208320D01*
X0233824Y0208276D01*
X0233830D01*
X0233836Y0208270D01*
X0233863Y0208254D01*
X0233908Y0208226D01*
X0233963Y0208187D01*
X0234024Y0208132D01*
X0234091Y0208070D01*
X0234152Y0207998D01*
X0234213Y0207915D01*
X0234219Y0207904D01*
X0234241Y0207876D01*
X0234263Y0207826D01*
X0234302Y0207754D01*
X0234335Y0207671D01*
X0234379Y0207576D01*
X0234418Y0207466D01*
X0234452Y0207343D01*
Y0207338D01*
X0234457Y0207327D01*
X0234463Y0207310D01*
X0234468Y0207282D01*
X0234474Y0207249D01*
X0234479Y0207210D01*
X0234490Y0207160D01*
X0234496Y0207105D01*
X0234507Y0207044D01*
X0234513Y0206977D01*
X0234518Y0206899D01*
X0234529Y0206822D01*
X0234535Y0206733D01*
Y0206644D01*
X0234540Y0206544D01*
Y0206439D01*
Y0206433D01*
Y0206411D01*
Y0206372D01*
Y0206328D01*
X0234535Y0206267D01*
Y0206200D01*
X0234529Y0206128D01*
X0234524Y0206050D01*
X0234507Y0205873D01*
X0234479Y0205690D01*
X0234446Y0205512D01*
X0234424Y0205429D01*
X0234396Y0205345D01*
Y0205340D01*
X0234390Y0205329D01*
X0234379Y0205307D01*
X0234368Y0205279D01*
X0234357Y0205240D01*
X0234335Y0205201D01*
X0234291Y0205107D01*
X0234235Y0205007D01*
X0234163Y0204896D01*
X0234080Y0204796D01*
X0233980Y0204702D01*
X0233974D01*
X0233969Y0204691D01*
X0233952Y0204679D01*
X0233930Y0204668D01*
X0233902Y0204652D01*
X0233874Y0204629D01*
X0233791Y0204591D01*
X0233691Y0204552D01*
X0233575Y0204513D01*
X0233436Y0204491D01*
X0233286Y0204480D01*
X0233231D01*
X0233192Y0204485D01*
X0233147Y0204491D01*
X0233092Y0204502D01*
X0233031Y0204513D01*
X0232964Y0204530D01*
X0232898Y0204552D01*
X0232825Y0204574D01*
X0232753Y0204607D01*
X0232681Y0204646D01*
X0232609Y0204691D01*
X0232537Y0204746D01*
X0232470Y0204807D01*
X0232409Y0204874D01*
X0232404Y0204879D01*
X0232393Y0204896D01*
X0232376Y0204924D01*
X0232348Y0204968D01*
X0232320Y0205018D01*
X0232293Y0205085D01*
X0232254Y0205162D01*
X0232221Y0205251D01*
X0232187Y0205351D01*
X0232154Y0205468D01*
X0232121Y0205595D01*
X0232093Y0205739D01*
X0232065Y0205895D01*
X0232049Y0206061D01*
X0232037Y0206244D01*
X0232032Y0206439D01*
Y0206444D01*
Y0206467D01*
Y0206505D01*
Y0206550D01*
X0232037Y0206611D01*
Y0206677D01*
X0232043Y0206750D01*
X0232049Y0206833D01*
X0232065Y0207005D01*
X0232093Y0207188D01*
X0232126Y0207371D01*
X0232148Y0207454D01*
X0232171Y0207538D01*
Y0207543D01*
X0232176Y0207554D01*
X0232187Y0207576D01*
X0232198Y0207604D01*
X0232209Y0207643D01*
X0232232Y0207682D01*
X0232276Y0207776D01*
X0232331Y0207876D01*
X0232404Y0207982D01*
X0232487Y0208087D01*
X0232587Y0208176D01*
X0232592D01*
X0232598Y0208187D01*
X0232615Y0208198D01*
X0232637Y0208209D01*
X0232664Y0208231D01*
X0232698Y0208248D01*
X0232781Y0208293D01*
X0232881Y0208331D01*
X0232997Y0208370D01*
X0233136Y0208392D01*
X0233286Y0208403D01*
X0233336D01*
X0233397Y0208398D01*
D02*
G37*
G36*
X0096821Y0384858D02*
X0096888D01*
X0096960Y0384853D01*
X0097038Y0384847D01*
X0097215Y0384831D01*
X0097398Y0384803D01*
X0097576Y0384770D01*
X0097659Y0384747D01*
X0097742Y0384720D01*
X0097748D01*
X0097759Y0384714D01*
X0097781Y0384703D01*
X0097809Y0384692D01*
X0097848Y0384681D01*
X0097887Y0384659D01*
X0097981Y0384614D01*
X0098081Y0384559D01*
X0098192Y0384487D01*
X0098292Y0384403D01*
X0098386Y0384303D01*
Y0384298D01*
X0098397Y0384292D01*
X0098408Y0384276D01*
X0098419Y0384253D01*
X0098436Y0384226D01*
X0098458Y0384198D01*
X0098497Y0384115D01*
X0098536Y0384015D01*
X0098575Y0383898D01*
X0098597Y0383759D01*
X0098608Y0383610D01*
Y0383554D01*
X0098603Y0383515D01*
X0098597Y0383471D01*
X0098586Y0383415D01*
X0098575Y0383354D01*
X0098558Y0383288D01*
X0098536Y0383221D01*
X0098514Y0383149D01*
X0098480Y0383077D01*
X0098442Y0383005D01*
X0098397Y0382932D01*
X0098342Y0382860D01*
X0098281Y0382794D01*
X0098214Y0382733D01*
X0098209Y0382727D01*
X0098192Y0382716D01*
X0098164Y0382699D01*
X0098120Y0382672D01*
X0098070Y0382644D01*
X0098003Y0382616D01*
X0097926Y0382577D01*
X0097837Y0382544D01*
X0097737Y0382511D01*
X0097620Y0382477D01*
X0097493Y0382444D01*
X0097348Y0382416D01*
X0097193Y0382389D01*
X0097026Y0382372D01*
X0096843Y0382361D01*
X0096649Y0382355D01*
X0096643D01*
X0096621D01*
X0096582D01*
X0096538D01*
X0096477Y0382361D01*
X0096410D01*
X0096338Y0382366D01*
X0096255Y0382372D01*
X0096083Y0382389D01*
X0095900Y0382416D01*
X0095717Y0382450D01*
X0095633Y0382472D01*
X0095550Y0382494D01*
X0095545D01*
X0095534Y0382500D01*
X0095511Y0382511D01*
X0095483Y0382522D01*
X0095445Y0382533D01*
X0095406Y0382555D01*
X0095311Y0382599D01*
X0095211Y0382655D01*
X0095106Y0382727D01*
X0095001Y0382810D01*
X0094912Y0382910D01*
Y0382916D01*
X0094901Y0382921D01*
X0094890Y0382938D01*
X0094879Y0382960D01*
X0094856Y0382988D01*
X0094840Y0383021D01*
X0094795Y0383104D01*
X0094756Y0383204D01*
X0094718Y0383321D01*
X0094695Y0383460D01*
X0094684Y0383610D01*
Y0383660D01*
X0094690Y0383721D01*
X0094701Y0383793D01*
X0094718Y0383876D01*
X0094740Y0383965D01*
X0094768Y0384059D01*
X0094812Y0384148D01*
Y0384154D01*
X0094818Y0384159D01*
X0094834Y0384187D01*
X0094862Y0384231D01*
X0094901Y0384287D01*
X0094956Y0384348D01*
X0095017Y0384414D01*
X0095089Y0384475D01*
X0095173Y0384536D01*
X0095184Y0384542D01*
X0095211Y0384564D01*
X0095262Y0384586D01*
X0095334Y0384625D01*
X0095417Y0384659D01*
X0095511Y0384703D01*
X0095622Y0384742D01*
X0095744Y0384775D01*
X0095750D01*
X0095761Y0384781D01*
X0095778Y0384786D01*
X0095805Y0384792D01*
X0095839Y0384797D01*
X0095877Y0384803D01*
X0095928Y0384814D01*
X0095983Y0384820D01*
X0096044Y0384831D01*
X0096111Y0384836D01*
X0096188Y0384842D01*
X0096266Y0384853D01*
X0096355Y0384858D01*
X0096444D01*
X0096544Y0384864D01*
X0096649D01*
X0096654D01*
X0096677D01*
X0096716D01*
X0096760D01*
X0096821Y0384858D01*
D02*
G37*
G36*
Y0381872D02*
X0096888D01*
X0096960Y0381867D01*
X0097038Y0381861D01*
X0097215Y0381845D01*
X0097398Y0381817D01*
X0097576Y0381784D01*
X0097659Y0381761D01*
X0097742Y0381734D01*
X0097748D01*
X0097759Y0381728D01*
X0097781Y0381717D01*
X0097809Y0381706D01*
X0097848Y0381695D01*
X0097887Y0381673D01*
X0097981Y0381628D01*
X0098081Y0381573D01*
X0098192Y0381501D01*
X0098292Y0381417D01*
X0098386Y0381317D01*
Y0381312D01*
X0098397Y0381306D01*
X0098408Y0381290D01*
X0098419Y0381267D01*
X0098436Y0381240D01*
X0098458Y0381212D01*
X0098497Y0381129D01*
X0098536Y0381029D01*
X0098575Y0380912D01*
X0098597Y0380773D01*
X0098608Y0380624D01*
Y0380568D01*
X0098603Y0380529D01*
X0098597Y0380485D01*
X0098586Y0380429D01*
X0098575Y0380368D01*
X0098558Y0380302D01*
X0098536Y0380235D01*
X0098514Y0380163D01*
X0098480Y0380091D01*
X0098442Y0380019D01*
X0098397Y0379947D01*
X0098342Y0379874D01*
X0098281Y0379808D01*
X0098214Y0379747D01*
X0098209Y0379741D01*
X0098192Y0379730D01*
X0098164Y0379714D01*
X0098120Y0379686D01*
X0098070Y0379658D01*
X0098003Y0379630D01*
X0097926Y0379591D01*
X0097837Y0379558D01*
X0097737Y0379525D01*
X0097620Y0379491D01*
X0097493Y0379458D01*
X0097348Y0379430D01*
X0097193Y0379403D01*
X0097026Y0379386D01*
X0096843Y0379375D01*
X0096649Y0379369D01*
X0096643D01*
X0096621D01*
X0096582D01*
X0096538D01*
X0096477Y0379375D01*
X0096410D01*
X0096338Y0379380D01*
X0096255Y0379386D01*
X0096083Y0379403D01*
X0095900Y0379430D01*
X0095717Y0379464D01*
X0095633Y0379486D01*
X0095550Y0379508D01*
X0095545D01*
X0095534Y0379514D01*
X0095511Y0379525D01*
X0095483Y0379536D01*
X0095445Y0379547D01*
X0095406Y0379569D01*
X0095311Y0379614D01*
X0095211Y0379669D01*
X0095106Y0379741D01*
X0095001Y0379824D01*
X0094912Y0379924D01*
Y0379930D01*
X0094901Y0379936D01*
X0094890Y0379952D01*
X0094879Y0379974D01*
X0094856Y0380002D01*
X0094840Y0380035D01*
X0094795Y0380119D01*
X0094756Y0380219D01*
X0094718Y0380335D01*
X0094695Y0380474D01*
X0094684Y0380624D01*
Y0380674D01*
X0094690Y0380735D01*
X0094701Y0380807D01*
X0094718Y0380890D01*
X0094740Y0380979D01*
X0094768Y0381073D01*
X0094812Y0381162D01*
Y0381168D01*
X0094818Y0381173D01*
X0094834Y0381201D01*
X0094862Y0381245D01*
X0094901Y0381301D01*
X0094956Y0381362D01*
X0095017Y0381428D01*
X0095089Y0381489D01*
X0095173Y0381551D01*
X0095184Y0381556D01*
X0095211Y0381578D01*
X0095262Y0381600D01*
X0095334Y0381639D01*
X0095417Y0381673D01*
X0095511Y0381717D01*
X0095622Y0381756D01*
X0095744Y0381789D01*
X0095750D01*
X0095761Y0381795D01*
X0095778Y0381800D01*
X0095805Y0381806D01*
X0095839Y0381811D01*
X0095877Y0381817D01*
X0095928Y0381828D01*
X0095983Y0381834D01*
X0096044Y0381845D01*
X0096111Y0381850D01*
X0096188Y0381856D01*
X0096266Y0381867D01*
X0096355Y0381872D01*
X0096444D01*
X0096544Y0381878D01*
X0096649D01*
X0096654D01*
X0096677D01*
X0096716D01*
X0096760D01*
X0096821Y0381872D01*
D02*
G37*
G36*
Y0378887D02*
X0096888D01*
X0096960Y0378881D01*
X0097038Y0378875D01*
X0097215Y0378859D01*
X0097398Y0378831D01*
X0097576Y0378798D01*
X0097659Y0378776D01*
X0097742Y0378748D01*
X0097748D01*
X0097759Y0378742D01*
X0097781Y0378731D01*
X0097809Y0378720D01*
X0097848Y0378709D01*
X0097887Y0378687D01*
X0097981Y0378642D01*
X0098081Y0378587D01*
X0098192Y0378515D01*
X0098292Y0378431D01*
X0098386Y0378331D01*
Y0378326D01*
X0098397Y0378320D01*
X0098408Y0378304D01*
X0098419Y0378282D01*
X0098436Y0378254D01*
X0098458Y0378226D01*
X0098497Y0378143D01*
X0098536Y0378043D01*
X0098575Y0377926D01*
X0098597Y0377788D01*
X0098608Y0377638D01*
Y0377582D01*
X0098603Y0377543D01*
X0098597Y0377499D01*
X0098586Y0377444D01*
X0098575Y0377382D01*
X0098558Y0377316D01*
X0098536Y0377249D01*
X0098514Y0377177D01*
X0098480Y0377105D01*
X0098442Y0377033D01*
X0098397Y0376961D01*
X0098342Y0376888D01*
X0098281Y0376822D01*
X0098214Y0376761D01*
X0098209Y0376755D01*
X0098192Y0376744D01*
X0098164Y0376728D01*
X0098120Y0376700D01*
X0098070Y0376672D01*
X0098003Y0376644D01*
X0097926Y0376606D01*
X0097837Y0376572D01*
X0097737Y0376539D01*
X0097620Y0376506D01*
X0097493Y0376472D01*
X0097348Y0376445D01*
X0097193Y0376417D01*
X0097026Y0376400D01*
X0096843Y0376389D01*
X0096649Y0376383D01*
X0096643D01*
X0096621D01*
X0096582D01*
X0096538D01*
X0096477Y0376389D01*
X0096410D01*
X0096338Y0376395D01*
X0096255Y0376400D01*
X0096083Y0376417D01*
X0095900Y0376445D01*
X0095717Y0376478D01*
X0095633Y0376500D01*
X0095550Y0376522D01*
X0095545D01*
X0095534Y0376528D01*
X0095511Y0376539D01*
X0095483Y0376550D01*
X0095445Y0376561D01*
X0095406Y0376583D01*
X0095311Y0376628D01*
X0095211Y0376683D01*
X0095106Y0376755D01*
X0095001Y0376839D01*
X0094912Y0376939D01*
Y0376944D01*
X0094901Y0376950D01*
X0094890Y0376966D01*
X0094879Y0376988D01*
X0094856Y0377016D01*
X0094840Y0377049D01*
X0094795Y0377133D01*
X0094756Y0377233D01*
X0094718Y0377349D01*
X0094695Y0377488D01*
X0094684Y0377638D01*
Y0377688D01*
X0094690Y0377749D01*
X0094701Y0377821D01*
X0094718Y0377904D01*
X0094740Y0377993D01*
X0094768Y0378087D01*
X0094812Y0378176D01*
Y0378182D01*
X0094818Y0378187D01*
X0094834Y0378215D01*
X0094862Y0378259D01*
X0094901Y0378315D01*
X0094956Y0378376D01*
X0095017Y0378443D01*
X0095089Y0378504D01*
X0095173Y0378565D01*
X0095184Y0378570D01*
X0095211Y0378592D01*
X0095262Y0378615D01*
X0095334Y0378653D01*
X0095417Y0378687D01*
X0095511Y0378731D01*
X0095622Y0378770D01*
X0095744Y0378803D01*
X0095750D01*
X0095761Y0378809D01*
X0095778Y0378814D01*
X0095805Y0378820D01*
X0095839Y0378825D01*
X0095877Y0378831D01*
X0095928Y0378842D01*
X0095983Y0378848D01*
X0096044Y0378859D01*
X0096111Y0378864D01*
X0096188Y0378870D01*
X0096266Y0378881D01*
X0096355Y0378887D01*
X0096444D01*
X0096544Y0378892D01*
X0096649D01*
X0096654D01*
X0096677D01*
X0096716D01*
X0096760D01*
X0096821Y0378887D01*
D02*
G37*
G36*
X0098541Y0375157D02*
X0098003D01*
Y0375695D01*
X0098541D01*
Y0375157D01*
D02*
G37*
G36*
X0096821Y0374408D02*
X0096888D01*
X0096960Y0374402D01*
X0097038Y0374397D01*
X0097215Y0374380D01*
X0097398Y0374352D01*
X0097576Y0374319D01*
X0097659Y0374297D01*
X0097742Y0374269D01*
X0097748D01*
X0097759Y0374263D01*
X0097781Y0374252D01*
X0097809Y0374241D01*
X0097848Y0374230D01*
X0097887Y0374208D01*
X0097981Y0374164D01*
X0098081Y0374108D01*
X0098192Y0374036D01*
X0098292Y0373953D01*
X0098386Y0373853D01*
Y0373847D01*
X0098397Y0373842D01*
X0098408Y0373825D01*
X0098419Y0373803D01*
X0098436Y0373775D01*
X0098458Y0373747D01*
X0098497Y0373664D01*
X0098536Y0373564D01*
X0098575Y0373447D01*
X0098597Y0373309D01*
X0098608Y0373159D01*
Y0373103D01*
X0098603Y0373065D01*
X0098597Y0373020D01*
X0098586Y0372965D01*
X0098575Y0372904D01*
X0098558Y0372837D01*
X0098536Y0372770D01*
X0098514Y0372698D01*
X0098480Y0372626D01*
X0098442Y0372554D01*
X0098397Y0372482D01*
X0098342Y0372410D01*
X0098281Y0372343D01*
X0098214Y0372282D01*
X0098209Y0372276D01*
X0098192Y0372265D01*
X0098164Y0372249D01*
X0098120Y0372221D01*
X0098070Y0372193D01*
X0098003Y0372165D01*
X0097926Y0372127D01*
X0097837Y0372093D01*
X0097737Y0372060D01*
X0097620Y0372027D01*
X0097493Y0371993D01*
X0097348Y0371966D01*
X0097193Y0371938D01*
X0097026Y0371921D01*
X0096843Y0371910D01*
X0096649Y0371905D01*
X0096643D01*
X0096621D01*
X0096582D01*
X0096538D01*
X0096477Y0371910D01*
X0096410D01*
X0096338Y0371916D01*
X0096255Y0371921D01*
X0096083Y0371938D01*
X0095900Y0371966D01*
X0095717Y0371999D01*
X0095633Y0372021D01*
X0095550Y0372043D01*
X0095545D01*
X0095534Y0372049D01*
X0095511Y0372060D01*
X0095483Y0372071D01*
X0095445Y0372082D01*
X0095406Y0372104D01*
X0095311Y0372149D01*
X0095211Y0372204D01*
X0095106Y0372276D01*
X0095001Y0372360D01*
X0094912Y0372460D01*
Y0372465D01*
X0094901Y0372471D01*
X0094890Y0372487D01*
X0094879Y0372510D01*
X0094856Y0372537D01*
X0094840Y0372571D01*
X0094795Y0372654D01*
X0094756Y0372754D01*
X0094718Y0372870D01*
X0094695Y0373009D01*
X0094684Y0373159D01*
Y0373209D01*
X0094690Y0373270D01*
X0094701Y0373342D01*
X0094718Y0373425D01*
X0094740Y0373514D01*
X0094768Y0373608D01*
X0094812Y0373697D01*
Y0373703D01*
X0094818Y0373708D01*
X0094834Y0373736D01*
X0094862Y0373780D01*
X0094901Y0373836D01*
X0094956Y0373897D01*
X0095017Y0373964D01*
X0095089Y0374025D01*
X0095173Y0374086D01*
X0095184Y0374091D01*
X0095211Y0374113D01*
X0095262Y0374136D01*
X0095334Y0374175D01*
X0095417Y0374208D01*
X0095511Y0374252D01*
X0095622Y0374291D01*
X0095744Y0374324D01*
X0095750D01*
X0095761Y0374330D01*
X0095778Y0374336D01*
X0095805Y0374341D01*
X0095839Y0374347D01*
X0095877Y0374352D01*
X0095928Y0374363D01*
X0095983Y0374369D01*
X0096044Y0374380D01*
X0096111Y0374385D01*
X0096188Y0374391D01*
X0096266Y0374402D01*
X0096355Y0374408D01*
X0096444D01*
X0096544Y0374413D01*
X0096649D01*
X0096654D01*
X0096677D01*
X0096716D01*
X0096760D01*
X0096821Y0374408D01*
D02*
G37*
G36*
Y0371422D02*
X0096888D01*
X0096960Y0371416D01*
X0097038Y0371411D01*
X0097215Y0371394D01*
X0097398Y0371366D01*
X0097576Y0371333D01*
X0097659Y0371311D01*
X0097742Y0371283D01*
X0097748D01*
X0097759Y0371277D01*
X0097781Y0371266D01*
X0097809Y0371255D01*
X0097848Y0371244D01*
X0097887Y0371222D01*
X0097981Y0371178D01*
X0098081Y0371122D01*
X0098192Y0371050D01*
X0098292Y0370967D01*
X0098386Y0370867D01*
Y0370861D01*
X0098397Y0370856D01*
X0098408Y0370839D01*
X0098419Y0370817D01*
X0098436Y0370789D01*
X0098458Y0370761D01*
X0098497Y0370678D01*
X0098536Y0370578D01*
X0098575Y0370462D01*
X0098597Y0370323D01*
X0098608Y0370173D01*
Y0370117D01*
X0098603Y0370079D01*
X0098597Y0370034D01*
X0098586Y0369979D01*
X0098575Y0369918D01*
X0098558Y0369851D01*
X0098536Y0369784D01*
X0098514Y0369712D01*
X0098480Y0369640D01*
X0098442Y0369568D01*
X0098397Y0369496D01*
X0098342Y0369424D01*
X0098281Y0369357D01*
X0098214Y0369296D01*
X0098209Y0369291D01*
X0098192Y0369280D01*
X0098164Y0369263D01*
X0098120Y0369235D01*
X0098070Y0369207D01*
X0098003Y0369180D01*
X0097926Y0369141D01*
X0097837Y0369107D01*
X0097737Y0369074D01*
X0097620Y0369041D01*
X0097493Y0369007D01*
X0097348Y0368980D01*
X0097193Y0368952D01*
X0097026Y0368935D01*
X0096843Y0368924D01*
X0096649Y0368919D01*
X0096643D01*
X0096621D01*
X0096582D01*
X0096538D01*
X0096477Y0368924D01*
X0096410D01*
X0096338Y0368930D01*
X0096255Y0368935D01*
X0096083Y0368952D01*
X0095900Y0368980D01*
X0095717Y0369013D01*
X0095633Y0369035D01*
X0095550Y0369057D01*
X0095545D01*
X0095534Y0369063D01*
X0095511Y0369074D01*
X0095483Y0369085D01*
X0095445Y0369096D01*
X0095406Y0369118D01*
X0095311Y0369163D01*
X0095211Y0369218D01*
X0095106Y0369291D01*
X0095001Y0369374D01*
X0094912Y0369474D01*
Y0369479D01*
X0094901Y0369485D01*
X0094890Y0369501D01*
X0094879Y0369524D01*
X0094856Y0369551D01*
X0094840Y0369585D01*
X0094795Y0369668D01*
X0094756Y0369768D01*
X0094718Y0369884D01*
X0094695Y0370023D01*
X0094684Y0370173D01*
Y0370223D01*
X0094690Y0370284D01*
X0094701Y0370356D01*
X0094718Y0370439D01*
X0094740Y0370528D01*
X0094768Y0370623D01*
X0094812Y0370711D01*
Y0370717D01*
X0094818Y0370723D01*
X0094834Y0370750D01*
X0094862Y0370795D01*
X0094901Y0370850D01*
X0094956Y0370911D01*
X0095017Y0370978D01*
X0095089Y0371039D01*
X0095173Y0371100D01*
X0095184Y0371105D01*
X0095211Y0371128D01*
X0095262Y0371150D01*
X0095334Y0371189D01*
X0095417Y0371222D01*
X0095511Y0371266D01*
X0095622Y0371305D01*
X0095744Y0371339D01*
X0095750D01*
X0095761Y0371344D01*
X0095778Y0371350D01*
X0095805Y0371355D01*
X0095839Y0371361D01*
X0095877Y0371366D01*
X0095928Y0371377D01*
X0095983Y0371383D01*
X0096044Y0371394D01*
X0096111Y0371400D01*
X0096188Y0371405D01*
X0096266Y0371416D01*
X0096355Y0371422D01*
X0096444D01*
X0096544Y0371427D01*
X0096649D01*
X0096654D01*
X0096677D01*
X0096716D01*
X0096760D01*
X0096821Y0371422D01*
D02*
G37*
G36*
Y0368436D02*
X0096888D01*
X0096960Y0368430D01*
X0097038Y0368425D01*
X0097215Y0368408D01*
X0097398Y0368380D01*
X0097576Y0368347D01*
X0097659Y0368325D01*
X0097742Y0368297D01*
X0097748D01*
X0097759Y0368292D01*
X0097781Y0368281D01*
X0097809Y0368269D01*
X0097848Y0368258D01*
X0097887Y0368236D01*
X0097981Y0368192D01*
X0098081Y0368136D01*
X0098192Y0368064D01*
X0098292Y0367981D01*
X0098386Y0367881D01*
Y0367875D01*
X0098397Y0367870D01*
X0098408Y0367853D01*
X0098419Y0367831D01*
X0098436Y0367803D01*
X0098458Y0367775D01*
X0098497Y0367692D01*
X0098536Y0367592D01*
X0098575Y0367476D01*
X0098597Y0367337D01*
X0098608Y0367187D01*
Y0367132D01*
X0098603Y0367093D01*
X0098597Y0367048D01*
X0098586Y0366993D01*
X0098575Y0366932D01*
X0098558Y0366865D01*
X0098536Y0366799D01*
X0098514Y0366726D01*
X0098480Y0366654D01*
X0098442Y0366582D01*
X0098397Y0366510D01*
X0098342Y0366438D01*
X0098281Y0366371D01*
X0098214Y0366310D01*
X0098209Y0366305D01*
X0098192Y0366294D01*
X0098164Y0366277D01*
X0098120Y0366249D01*
X0098070Y0366221D01*
X0098003Y0366194D01*
X0097926Y0366155D01*
X0097837Y0366122D01*
X0097737Y0366088D01*
X0097620Y0366055D01*
X0097493Y0366022D01*
X0097348Y0365994D01*
X0097193Y0365966D01*
X0097026Y0365950D01*
X0096843Y0365938D01*
X0096649Y0365933D01*
X0096643D01*
X0096621D01*
X0096582D01*
X0096538D01*
X0096477Y0365938D01*
X0096410D01*
X0096338Y0365944D01*
X0096255Y0365950D01*
X0096083Y0365966D01*
X0095900Y0365994D01*
X0095717Y0366027D01*
X0095633Y0366049D01*
X0095550Y0366072D01*
X0095545D01*
X0095534Y0366077D01*
X0095511Y0366088D01*
X0095483Y0366099D01*
X0095445Y0366110D01*
X0095406Y0366133D01*
X0095311Y0366177D01*
X0095211Y0366232D01*
X0095106Y0366305D01*
X0095001Y0366388D01*
X0094912Y0366488D01*
Y0366493D01*
X0094901Y0366499D01*
X0094890Y0366516D01*
X0094879Y0366538D01*
X0094856Y0366565D01*
X0094840Y0366599D01*
X0094795Y0366682D01*
X0094756Y0366782D01*
X0094718Y0366898D01*
X0094695Y0367037D01*
X0094684Y0367187D01*
Y0367237D01*
X0094690Y0367298D01*
X0094701Y0367370D01*
X0094718Y0367454D01*
X0094740Y0367542D01*
X0094768Y0367637D01*
X0094812Y0367725D01*
Y0367731D01*
X0094818Y0367737D01*
X0094834Y0367764D01*
X0094862Y0367809D01*
X0094901Y0367864D01*
X0094956Y0367925D01*
X0095017Y0367992D01*
X0095089Y0368053D01*
X0095173Y0368114D01*
X0095184Y0368120D01*
X0095211Y0368142D01*
X0095262Y0368164D01*
X0095334Y0368203D01*
X0095417Y0368236D01*
X0095511Y0368281D01*
X0095622Y0368319D01*
X0095744Y0368353D01*
X0095750D01*
X0095761Y0368358D01*
X0095778Y0368364D01*
X0095805Y0368369D01*
X0095839Y0368375D01*
X0095877Y0368380D01*
X0095928Y0368391D01*
X0095983Y0368397D01*
X0096044Y0368408D01*
X0096111Y0368414D01*
X0096188Y0368419D01*
X0096266Y0368430D01*
X0096355Y0368436D01*
X0096444D01*
X0096544Y0368441D01*
X0096649D01*
X0096654D01*
X0096677D01*
X0096716D01*
X0096760D01*
X0096821Y0368436D01*
D02*
G37*
G36*
X0097493Y0365461D02*
X0097537Y0365456D01*
X0097587Y0365444D01*
X0097642Y0365433D01*
X0097703Y0365422D01*
X0097837Y0365378D01*
X0097909Y0365345D01*
X0097975Y0365311D01*
X0098048Y0365267D01*
X0098120Y0365217D01*
X0098192Y0365161D01*
X0098259Y0365095D01*
X0098264Y0365089D01*
X0098275Y0365078D01*
X0098292Y0365056D01*
X0098314Y0365028D01*
X0098342Y0364995D01*
X0098369Y0364950D01*
X0098403Y0364900D01*
X0098431Y0364840D01*
X0098464Y0364778D01*
X0098497Y0364706D01*
X0098525Y0364634D01*
X0098553Y0364551D01*
X0098575Y0364462D01*
X0098592Y0364368D01*
X0098603Y0364273D01*
X0098608Y0364168D01*
Y0364118D01*
X0098603Y0364085D01*
X0098597Y0364040D01*
X0098592Y0363990D01*
X0098580Y0363935D01*
X0098569Y0363874D01*
X0098536Y0363741D01*
X0098480Y0363602D01*
X0098447Y0363530D01*
X0098408Y0363463D01*
X0098358Y0363397D01*
X0098308Y0363330D01*
X0098303Y0363324D01*
X0098292Y0363313D01*
X0098275Y0363297D01*
X0098253Y0363280D01*
X0098225Y0363252D01*
X0098186Y0363224D01*
X0098147Y0363191D01*
X0098098Y0363158D01*
X0098042Y0363124D01*
X0097987Y0363091D01*
X0097853Y0363030D01*
X0097698Y0362980D01*
X0097615Y0362964D01*
X0097526Y0362952D01*
X0097465Y0363424D01*
X0097470D01*
X0097482Y0363430D01*
X0097504Y0363435D01*
X0097531Y0363441D01*
X0097565Y0363446D01*
X0097604Y0363457D01*
X0097687Y0363485D01*
X0097787Y0363524D01*
X0097881Y0363574D01*
X0097970Y0363630D01*
X0098048Y0363696D01*
X0098053Y0363707D01*
X0098075Y0363730D01*
X0098103Y0363774D01*
X0098131Y0363829D01*
X0098164Y0363896D01*
X0098192Y0363979D01*
X0098214Y0364074D01*
X0098220Y0364174D01*
Y0364207D01*
X0098214Y0364229D01*
X0098209Y0364290D01*
X0098192Y0364368D01*
X0098164Y0364457D01*
X0098125Y0364551D01*
X0098070Y0364645D01*
X0097992Y0364734D01*
X0097981Y0364745D01*
X0097948Y0364773D01*
X0097898Y0364806D01*
X0097831Y0364851D01*
X0097748Y0364895D01*
X0097654Y0364928D01*
X0097543Y0364956D01*
X0097421Y0364967D01*
X0097415D01*
X0097404D01*
X0097387D01*
X0097365Y0364962D01*
X0097304Y0364956D01*
X0097232Y0364939D01*
X0097143Y0364917D01*
X0097054Y0364878D01*
X0096965Y0364823D01*
X0096882Y0364751D01*
X0096871Y0364740D01*
X0096849Y0364712D01*
X0096816Y0364667D01*
X0096777Y0364606D01*
X0096738Y0364529D01*
X0096705Y0364434D01*
X0096682Y0364329D01*
X0096671Y0364212D01*
Y0364162D01*
X0096677Y0364124D01*
X0096682Y0364074D01*
X0096693Y0364018D01*
X0096705Y0363951D01*
X0096721Y0363879D01*
X0096305Y0363935D01*
Y0363963D01*
X0096311Y0363985D01*
Y0364057D01*
X0096299Y0364118D01*
X0096288Y0364190D01*
X0096272Y0364273D01*
X0096244Y0364368D01*
X0096205Y0364457D01*
X0096155Y0364551D01*
Y0364556D01*
X0096149Y0364562D01*
X0096127Y0364590D01*
X0096088Y0364629D01*
X0096039Y0364673D01*
X0095966Y0364717D01*
X0095883Y0364756D01*
X0095789Y0364784D01*
X0095733Y0364795D01*
X0095672D01*
X0095667D01*
X0095661D01*
X0095628D01*
X0095583Y0364784D01*
X0095522Y0364773D01*
X0095456Y0364751D01*
X0095384Y0364723D01*
X0095311Y0364679D01*
X0095245Y0364617D01*
X0095239Y0364612D01*
X0095217Y0364584D01*
X0095189Y0364545D01*
X0095156Y0364495D01*
X0095128Y0364429D01*
X0095100Y0364351D01*
X0095078Y0364262D01*
X0095073Y0364162D01*
Y0364118D01*
X0095084Y0364068D01*
X0095095Y0364001D01*
X0095117Y0363929D01*
X0095145Y0363857D01*
X0095189Y0363779D01*
X0095245Y0363707D01*
X0095250Y0363702D01*
X0095278Y0363680D01*
X0095317Y0363646D01*
X0095372Y0363607D01*
X0095445Y0363568D01*
X0095534Y0363530D01*
X0095639Y0363496D01*
X0095761Y0363474D01*
X0095678Y0363002D01*
X0095672D01*
X0095656Y0363008D01*
X0095633Y0363014D01*
X0095600Y0363019D01*
X0095561Y0363030D01*
X0095517Y0363047D01*
X0095411Y0363080D01*
X0095289Y0363136D01*
X0095167Y0363202D01*
X0095051Y0363285D01*
X0094945Y0363391D01*
X0094940Y0363397D01*
X0094934Y0363408D01*
X0094923Y0363424D01*
X0094906Y0363446D01*
X0094884Y0363474D01*
X0094862Y0363513D01*
X0094840Y0363552D01*
X0094812Y0363602D01*
X0094768Y0363713D01*
X0094723Y0363841D01*
X0094695Y0363990D01*
X0094684Y0364068D01*
Y0364207D01*
X0094690Y0364268D01*
X0094701Y0364340D01*
X0094718Y0364429D01*
X0094745Y0364529D01*
X0094779Y0364629D01*
X0094823Y0364728D01*
Y0364734D01*
X0094829Y0364740D01*
X0094845Y0364773D01*
X0094879Y0364823D01*
X0094917Y0364878D01*
X0094973Y0364945D01*
X0095034Y0365012D01*
X0095106Y0365078D01*
X0095189Y0365134D01*
X0095201Y0365139D01*
X0095228Y0365156D01*
X0095278Y0365178D01*
X0095339Y0365206D01*
X0095411Y0365233D01*
X0095495Y0365256D01*
X0095589Y0365272D01*
X0095683Y0365278D01*
X0095694D01*
X0095728D01*
X0095772Y0365272D01*
X0095833Y0365261D01*
X0095905Y0365245D01*
X0095983Y0365217D01*
X0096061Y0365184D01*
X0096138Y0365139D01*
X0096149Y0365134D01*
X0096172Y0365117D01*
X0096211Y0365084D01*
X0096255Y0365039D01*
X0096305Y0364984D01*
X0096360Y0364917D01*
X0096410Y0364840D01*
X0096460Y0364745D01*
Y0364751D01*
X0096466Y0364762D01*
X0096471Y0364778D01*
X0096477Y0364801D01*
X0096499Y0364862D01*
X0096532Y0364939D01*
X0096577Y0365028D01*
X0096632Y0365117D01*
X0096705Y0365200D01*
X0096788Y0365278D01*
X0096799Y0365283D01*
X0096832Y0365306D01*
X0096888Y0365339D01*
X0096960Y0365372D01*
X0097049Y0365406D01*
X0097154Y0365439D01*
X0097276Y0365461D01*
X0097409Y0365467D01*
X0097415D01*
X0097432D01*
X0097459D01*
X0097493Y0365461D01*
D02*
G37*
%LPC*%
G36*
X0246717Y0208015D02*
X0246684D01*
X0246662Y0208009D01*
X0246601Y0207998D01*
X0246528Y0207982D01*
X0246445Y0207948D01*
X0246356Y0207898D01*
X0246312Y0207865D01*
X0246268Y0207832D01*
X0246229Y0207787D01*
X0246190Y0207737D01*
Y0207732D01*
X0246179Y0207721D01*
X0246168Y0207699D01*
X0246151Y0207671D01*
X0246134Y0207627D01*
X0246112Y0207576D01*
X0246095Y0207516D01*
X0246073Y0207443D01*
X0246051Y0207360D01*
X0246029Y0207266D01*
X0246007Y0207160D01*
X0245990Y0207044D01*
X0245973Y0206910D01*
X0245962Y0206766D01*
X0245957Y0206611D01*
X0245951Y0206439D01*
Y0206428D01*
Y0206400D01*
Y0206350D01*
X0245957Y0206283D01*
Y0206211D01*
X0245962Y0206122D01*
X0245968Y0206028D01*
X0245979Y0205928D01*
X0246007Y0205712D01*
X0246023Y0205606D01*
X0246046Y0205506D01*
X0246068Y0205412D01*
X0246101Y0205323D01*
X0246134Y0205245D01*
X0246173Y0205179D01*
Y0205173D01*
X0246184Y0205168D01*
X0246212Y0205129D01*
X0246262Y0205079D01*
X0246323Y0205024D01*
X0246406Y0204968D01*
X0246501Y0204918D01*
X0246606Y0204879D01*
X0246662Y0204874D01*
X0246723Y0204868D01*
X0246756D01*
X0246778Y0204874D01*
X0246834Y0204885D01*
X0246911Y0204907D01*
X0246995Y0204946D01*
X0247089Y0205001D01*
X0247133Y0205035D01*
X0247178Y0205079D01*
X0247222Y0205123D01*
X0247267Y0205179D01*
Y0205185D01*
X0247278Y0205196D01*
X0247289Y0205212D01*
X0247300Y0205240D01*
X0247322Y0205279D01*
X0247339Y0205329D01*
X0247361Y0205384D01*
X0247383Y0205451D01*
X0247400Y0205534D01*
X0247422Y0205623D01*
X0247444Y0205728D01*
X0247461Y0205839D01*
X0247472Y0205973D01*
X0247483Y0206111D01*
X0247494Y0206267D01*
Y0206439D01*
Y0206444D01*
Y0206450D01*
Y0206478D01*
Y0206528D01*
X0247488Y0206594D01*
Y0206666D01*
X0247483Y0206755D01*
X0247477Y0206850D01*
X0247466Y0206955D01*
X0247439Y0207166D01*
X0247422Y0207271D01*
X0247400Y0207371D01*
X0247378Y0207466D01*
X0247344Y0207554D01*
X0247311Y0207632D01*
X0247272Y0207699D01*
Y0207704D01*
X0247261Y0207710D01*
X0247250Y0207726D01*
X0247233Y0207749D01*
X0247183Y0207799D01*
X0247122Y0207860D01*
X0247039Y0207915D01*
X0246945Y0207965D01*
X0246895Y0207987D01*
X0246839Y0208004D01*
X0246778Y0208009D01*
X0246717Y0208015D01*
D02*
G37*
G36*
X0243731D02*
X0243698D01*
X0243676Y0208009D01*
X0243615Y0207998D01*
X0243543Y0207982D01*
X0243459Y0207948D01*
X0243370Y0207898D01*
X0243326Y0207865D01*
X0243282Y0207832D01*
X0243243Y0207787D01*
X0243204Y0207737D01*
Y0207732D01*
X0243193Y0207721D01*
X0243182Y0207699D01*
X0243165Y0207671D01*
X0243148Y0207627D01*
X0243126Y0207576D01*
X0243110Y0207516D01*
X0243087Y0207443D01*
X0243065Y0207360D01*
X0243043Y0207266D01*
X0243021Y0207160D01*
X0243004Y0207044D01*
X0242987Y0206910D01*
X0242976Y0206766D01*
X0242971Y0206611D01*
X0242965Y0206439D01*
Y0206428D01*
Y0206400D01*
Y0206350D01*
X0242971Y0206283D01*
Y0206211D01*
X0242976Y0206122D01*
X0242982Y0206028D01*
X0242993Y0205928D01*
X0243021Y0205712D01*
X0243037Y0205606D01*
X0243060Y0205506D01*
X0243082Y0205412D01*
X0243115Y0205323D01*
X0243148Y0205245D01*
X0243187Y0205179D01*
Y0205173D01*
X0243198Y0205168D01*
X0243226Y0205129D01*
X0243276Y0205079D01*
X0243337Y0205024D01*
X0243420Y0204968D01*
X0243515Y0204918D01*
X0243620Y0204879D01*
X0243676Y0204874D01*
X0243737Y0204868D01*
X0243770D01*
X0243792Y0204874D01*
X0243848Y0204885D01*
X0243925Y0204907D01*
X0244009Y0204946D01*
X0244103Y0205001D01*
X0244147Y0205035D01*
X0244192Y0205079D01*
X0244236Y0205123D01*
X0244281Y0205179D01*
Y0205185D01*
X0244292Y0205196D01*
X0244303Y0205212D01*
X0244314Y0205240D01*
X0244336Y0205279D01*
X0244353Y0205329D01*
X0244375Y0205384D01*
X0244397Y0205451D01*
X0244414Y0205534D01*
X0244436Y0205623D01*
X0244458Y0205728D01*
X0244475Y0205839D01*
X0244486Y0205973D01*
X0244497Y0206111D01*
X0244508Y0206267D01*
Y0206439D01*
Y0206444D01*
Y0206450D01*
Y0206478D01*
Y0206528D01*
X0244503Y0206594D01*
Y0206666D01*
X0244497Y0206755D01*
X0244492Y0206850D01*
X0244480Y0206955D01*
X0244453Y0207166D01*
X0244436Y0207271D01*
X0244414Y0207371D01*
X0244392Y0207466D01*
X0244358Y0207554D01*
X0244325Y0207632D01*
X0244286Y0207699D01*
Y0207704D01*
X0244275Y0207710D01*
X0244264Y0207726D01*
X0244247Y0207749D01*
X0244197Y0207799D01*
X0244136Y0207860D01*
X0244053Y0207915D01*
X0243959Y0207965D01*
X0243909Y0207987D01*
X0243853Y0208004D01*
X0243792Y0208009D01*
X0243731Y0208015D01*
D02*
G37*
G36*
X0240745D02*
X0240712D01*
X0240690Y0208009D01*
X0240629Y0207998D01*
X0240557Y0207982D01*
X0240473Y0207948D01*
X0240385Y0207898D01*
X0240340Y0207865D01*
X0240296Y0207832D01*
X0240257Y0207787D01*
X0240218Y0207737D01*
Y0207732D01*
X0240207Y0207721D01*
X0240196Y0207699D01*
X0240179Y0207671D01*
X0240163Y0207627D01*
X0240140Y0207576D01*
X0240124Y0207516D01*
X0240102Y0207443D01*
X0240079Y0207360D01*
X0240057Y0207266D01*
X0240035Y0207160D01*
X0240018Y0207044D01*
X0240002Y0206910D01*
X0239990Y0206766D01*
X0239985Y0206611D01*
X0239979Y0206439D01*
Y0206428D01*
Y0206400D01*
Y0206350D01*
X0239985Y0206283D01*
Y0206211D01*
X0239990Y0206122D01*
X0239996Y0206028D01*
X0240007Y0205928D01*
X0240035Y0205712D01*
X0240052Y0205606D01*
X0240074Y0205506D01*
X0240096Y0205412D01*
X0240129Y0205323D01*
X0240163Y0205245D01*
X0240201Y0205179D01*
Y0205173D01*
X0240212Y0205168D01*
X0240240Y0205129D01*
X0240290Y0205079D01*
X0240351Y0205024D01*
X0240435Y0204968D01*
X0240529Y0204918D01*
X0240634Y0204879D01*
X0240690Y0204874D01*
X0240751Y0204868D01*
X0240784D01*
X0240806Y0204874D01*
X0240862Y0204885D01*
X0240940Y0204907D01*
X0241023Y0204946D01*
X0241117Y0205001D01*
X0241161Y0205035D01*
X0241206Y0205079D01*
X0241250Y0205123D01*
X0241295Y0205179D01*
Y0205185D01*
X0241306Y0205196D01*
X0241317Y0205212D01*
X0241328Y0205240D01*
X0241350Y0205279D01*
X0241367Y0205329D01*
X0241389Y0205384D01*
X0241411Y0205451D01*
X0241428Y0205534D01*
X0241450Y0205623D01*
X0241472Y0205728D01*
X0241489Y0205839D01*
X0241500Y0205973D01*
X0241511Y0206111D01*
X0241522Y0206267D01*
Y0206439D01*
Y0206444D01*
Y0206450D01*
Y0206478D01*
Y0206528D01*
X0241517Y0206594D01*
Y0206666D01*
X0241511Y0206755D01*
X0241506Y0206850D01*
X0241494Y0206955D01*
X0241467Y0207166D01*
X0241450Y0207271D01*
X0241428Y0207371D01*
X0241406Y0207466D01*
X0241372Y0207554D01*
X0241339Y0207632D01*
X0241300Y0207699D01*
Y0207704D01*
X0241289Y0207710D01*
X0241278Y0207726D01*
X0241262Y0207749D01*
X0241212Y0207799D01*
X0241150Y0207860D01*
X0241067Y0207915D01*
X0240973Y0207965D01*
X0240923Y0207987D01*
X0240867Y0208004D01*
X0240806Y0208009D01*
X0240745Y0208015D01*
D02*
G37*
G36*
X0236266D02*
X0236233D01*
X0236211Y0208009D01*
X0236150Y0207998D01*
X0236078Y0207982D01*
X0235995Y0207948D01*
X0235906Y0207898D01*
X0235861Y0207865D01*
X0235817Y0207832D01*
X0235778Y0207787D01*
X0235739Y0207737D01*
Y0207732D01*
X0235728Y0207721D01*
X0235717Y0207699D01*
X0235700Y0207671D01*
X0235684Y0207627D01*
X0235662Y0207576D01*
X0235645Y0207516D01*
X0235623Y0207443D01*
X0235600Y0207360D01*
X0235578Y0207266D01*
X0235556Y0207160D01*
X0235539Y0207044D01*
X0235523Y0206910D01*
X0235512Y0206766D01*
X0235506Y0206611D01*
X0235501Y0206439D01*
Y0206428D01*
Y0206400D01*
Y0206350D01*
X0235506Y0206283D01*
Y0206211D01*
X0235512Y0206122D01*
X0235517Y0206028D01*
X0235528Y0205928D01*
X0235556Y0205712D01*
X0235573Y0205606D01*
X0235595Y0205506D01*
X0235617Y0205412D01*
X0235650Y0205323D01*
X0235684Y0205245D01*
X0235723Y0205179D01*
Y0205173D01*
X0235734Y0205168D01*
X0235761Y0205129D01*
X0235811Y0205079D01*
X0235872Y0205024D01*
X0235956Y0204968D01*
X0236050Y0204918D01*
X0236156Y0204879D01*
X0236211Y0204874D01*
X0236272Y0204868D01*
X0236305D01*
X0236328Y0204874D01*
X0236383Y0204885D01*
X0236461Y0204907D01*
X0236544Y0204946D01*
X0236638Y0205001D01*
X0236683Y0205035D01*
X0236727Y0205079D01*
X0236771Y0205123D01*
X0236816Y0205179D01*
Y0205185D01*
X0236827Y0205196D01*
X0236838Y0205212D01*
X0236849Y0205240D01*
X0236871Y0205279D01*
X0236888Y0205329D01*
X0236910Y0205384D01*
X0236932Y0205451D01*
X0236949Y0205534D01*
X0236971Y0205623D01*
X0236994Y0205728D01*
X0237010Y0205839D01*
X0237021Y0205973D01*
X0237032Y0206111D01*
X0237043Y0206267D01*
Y0206439D01*
Y0206444D01*
Y0206450D01*
Y0206478D01*
Y0206528D01*
X0237038Y0206594D01*
Y0206666D01*
X0237032Y0206755D01*
X0237027Y0206850D01*
X0237016Y0206955D01*
X0236988Y0207166D01*
X0236971Y0207271D01*
X0236949Y0207371D01*
X0236927Y0207466D01*
X0236894Y0207554D01*
X0236860Y0207632D01*
X0236822Y0207699D01*
Y0207704D01*
X0236810Y0207710D01*
X0236799Y0207726D01*
X0236783Y0207749D01*
X0236733Y0207799D01*
X0236672Y0207860D01*
X0236588Y0207915D01*
X0236494Y0207965D01*
X0236444Y0207987D01*
X0236388Y0208004D01*
X0236328Y0208009D01*
X0236266Y0208015D01*
D02*
G37*
G36*
X0233280D02*
X0233247D01*
X0233225Y0208009D01*
X0233164Y0207998D01*
X0233092Y0207982D01*
X0233009Y0207948D01*
X0232920Y0207898D01*
X0232875Y0207865D01*
X0232831Y0207832D01*
X0232792Y0207787D01*
X0232753Y0207737D01*
Y0207732D01*
X0232742Y0207721D01*
X0232731Y0207699D01*
X0232714Y0207671D01*
X0232698Y0207627D01*
X0232676Y0207576D01*
X0232659Y0207516D01*
X0232637Y0207443D01*
X0232615Y0207360D01*
X0232592Y0207266D01*
X0232570Y0207160D01*
X0232554Y0207044D01*
X0232537Y0206910D01*
X0232526Y0206766D01*
X0232520Y0206611D01*
X0232515Y0206439D01*
Y0206428D01*
Y0206400D01*
Y0206350D01*
X0232520Y0206283D01*
Y0206211D01*
X0232526Y0206122D01*
X0232531Y0206028D01*
X0232542Y0205928D01*
X0232570Y0205712D01*
X0232587Y0205606D01*
X0232609Y0205506D01*
X0232631Y0205412D01*
X0232664Y0205323D01*
X0232698Y0205245D01*
X0232737Y0205179D01*
Y0205173D01*
X0232748Y0205168D01*
X0232775Y0205129D01*
X0232825Y0205079D01*
X0232887Y0205024D01*
X0232970Y0204968D01*
X0233064Y0204918D01*
X0233170Y0204879D01*
X0233225Y0204874D01*
X0233286Y0204868D01*
X0233319D01*
X0233342Y0204874D01*
X0233397Y0204885D01*
X0233475Y0204907D01*
X0233558Y0204946D01*
X0233652Y0205001D01*
X0233697Y0205035D01*
X0233741Y0205079D01*
X0233786Y0205123D01*
X0233830Y0205179D01*
Y0205185D01*
X0233841Y0205196D01*
X0233852Y0205212D01*
X0233863Y0205240D01*
X0233886Y0205279D01*
X0233902Y0205329D01*
X0233924Y0205384D01*
X0233946Y0205451D01*
X0233963Y0205534D01*
X0233985Y0205623D01*
X0234008Y0205728D01*
X0234024Y0205839D01*
X0234035Y0205973D01*
X0234047Y0206111D01*
X0234057Y0206267D01*
Y0206439D01*
Y0206444D01*
Y0206450D01*
Y0206478D01*
Y0206528D01*
X0234052Y0206594D01*
Y0206666D01*
X0234047Y0206755D01*
X0234041Y0206850D01*
X0234030Y0206955D01*
X0234002Y0207166D01*
X0233985Y0207271D01*
X0233963Y0207371D01*
X0233941Y0207466D01*
X0233908Y0207554D01*
X0233874Y0207632D01*
X0233836Y0207699D01*
Y0207704D01*
X0233824Y0207710D01*
X0233813Y0207726D01*
X0233797Y0207749D01*
X0233747Y0207799D01*
X0233686Y0207860D01*
X0233602Y0207915D01*
X0233508Y0207965D01*
X0233458Y0207987D01*
X0233403Y0208004D01*
X0233342Y0208009D01*
X0233280Y0208015D01*
D02*
G37*
G36*
X0096821Y0384381D02*
X0096649D01*
X0096643D01*
X0096638D01*
X0096610D01*
X0096560D01*
X0096494Y0384376D01*
X0096421D01*
X0096333Y0384370D01*
X0096238Y0384364D01*
X0096133Y0384353D01*
X0095922Y0384326D01*
X0095816Y0384309D01*
X0095717Y0384287D01*
X0095622Y0384264D01*
X0095534Y0384231D01*
X0095456Y0384198D01*
X0095389Y0384159D01*
X0095384D01*
X0095378Y0384148D01*
X0095361Y0384137D01*
X0095339Y0384120D01*
X0095289Y0384070D01*
X0095228Y0384009D01*
X0095173Y0383926D01*
X0095123Y0383832D01*
X0095100Y0383782D01*
X0095084Y0383726D01*
X0095078Y0383665D01*
X0095073Y0383604D01*
Y0383571D01*
X0095078Y0383548D01*
X0095089Y0383488D01*
X0095106Y0383415D01*
X0095139Y0383332D01*
X0095189Y0383243D01*
X0095223Y0383199D01*
X0095256Y0383155D01*
X0095300Y0383116D01*
X0095350Y0383077D01*
X0095356D01*
X0095367Y0383066D01*
X0095389Y0383055D01*
X0095417Y0383038D01*
X0095461Y0383021D01*
X0095511Y0382999D01*
X0095572Y0382982D01*
X0095644Y0382960D01*
X0095728Y0382938D01*
X0095822Y0382916D01*
X0095928Y0382894D01*
X0096044Y0382877D01*
X0096177Y0382860D01*
X0096322Y0382849D01*
X0096477Y0382844D01*
X0096649Y0382838D01*
X0096660D01*
X0096688D01*
X0096738D01*
X0096804Y0382844D01*
X0096877D01*
X0096965Y0382849D01*
X0097060Y0382855D01*
X0097160Y0382866D01*
X0097376Y0382894D01*
X0097482Y0382910D01*
X0097581Y0382932D01*
X0097676Y0382955D01*
X0097764Y0382988D01*
X0097842Y0383021D01*
X0097909Y0383060D01*
X0097914D01*
X0097920Y0383071D01*
X0097959Y0383099D01*
X0098009Y0383149D01*
X0098064Y0383210D01*
X0098120Y0383293D01*
X0098170Y0383388D01*
X0098209Y0383493D01*
X0098214Y0383548D01*
X0098220Y0383610D01*
Y0383643D01*
X0098214Y0383665D01*
X0098203Y0383721D01*
X0098181Y0383798D01*
X0098142Y0383881D01*
X0098087Y0383976D01*
X0098053Y0384020D01*
X0098009Y0384065D01*
X0097964Y0384109D01*
X0097909Y0384154D01*
X0097903D01*
X0097892Y0384165D01*
X0097875Y0384176D01*
X0097848Y0384187D01*
X0097809Y0384209D01*
X0097759Y0384226D01*
X0097703Y0384248D01*
X0097637Y0384270D01*
X0097554Y0384287D01*
X0097465Y0384309D01*
X0097359Y0384331D01*
X0097248Y0384348D01*
X0097115Y0384359D01*
X0096976Y0384370D01*
X0096821Y0384381D01*
D02*
G37*
G36*
Y0381395D02*
X0096649D01*
X0096643D01*
X0096638D01*
X0096610D01*
X0096560D01*
X0096494Y0381390D01*
X0096421D01*
X0096333Y0381384D01*
X0096238Y0381379D01*
X0096133Y0381367D01*
X0095922Y0381340D01*
X0095816Y0381323D01*
X0095717Y0381301D01*
X0095622Y0381279D01*
X0095534Y0381245D01*
X0095456Y0381212D01*
X0095389Y0381173D01*
X0095384D01*
X0095378Y0381162D01*
X0095361Y0381151D01*
X0095339Y0381134D01*
X0095289Y0381084D01*
X0095228Y0381023D01*
X0095173Y0380940D01*
X0095123Y0380846D01*
X0095100Y0380796D01*
X0095084Y0380740D01*
X0095078Y0380679D01*
X0095073Y0380618D01*
Y0380585D01*
X0095078Y0380563D01*
X0095089Y0380502D01*
X0095106Y0380429D01*
X0095139Y0380346D01*
X0095189Y0380257D01*
X0095223Y0380213D01*
X0095256Y0380169D01*
X0095300Y0380130D01*
X0095350Y0380091D01*
X0095356D01*
X0095367Y0380080D01*
X0095389Y0380069D01*
X0095417Y0380052D01*
X0095461Y0380035D01*
X0095511Y0380013D01*
X0095572Y0379996D01*
X0095644Y0379974D01*
X0095728Y0379952D01*
X0095822Y0379930D01*
X0095928Y0379908D01*
X0096044Y0379891D01*
X0096177Y0379874D01*
X0096322Y0379863D01*
X0096477Y0379858D01*
X0096649Y0379852D01*
X0096660D01*
X0096688D01*
X0096738D01*
X0096804Y0379858D01*
X0096877D01*
X0096965Y0379863D01*
X0097060Y0379869D01*
X0097160Y0379880D01*
X0097376Y0379908D01*
X0097482Y0379924D01*
X0097581Y0379947D01*
X0097676Y0379969D01*
X0097764Y0380002D01*
X0097842Y0380035D01*
X0097909Y0380074D01*
X0097914D01*
X0097920Y0380085D01*
X0097959Y0380113D01*
X0098009Y0380163D01*
X0098064Y0380224D01*
X0098120Y0380307D01*
X0098170Y0380402D01*
X0098209Y0380507D01*
X0098214Y0380563D01*
X0098220Y0380624D01*
Y0380657D01*
X0098214Y0380679D01*
X0098203Y0380735D01*
X0098181Y0380812D01*
X0098142Y0380896D01*
X0098087Y0380990D01*
X0098053Y0381034D01*
X0098009Y0381079D01*
X0097964Y0381123D01*
X0097909Y0381168D01*
X0097903D01*
X0097892Y0381179D01*
X0097875Y0381190D01*
X0097848Y0381201D01*
X0097809Y0381223D01*
X0097759Y0381240D01*
X0097703Y0381262D01*
X0097637Y0381284D01*
X0097554Y0381301D01*
X0097465Y0381323D01*
X0097359Y0381345D01*
X0097248Y0381362D01*
X0097115Y0381373D01*
X0096976Y0381384D01*
X0096821Y0381395D01*
D02*
G37*
G36*
Y0378409D02*
X0096649D01*
X0096643D01*
X0096638D01*
X0096610D01*
X0096560D01*
X0096494Y0378404D01*
X0096421D01*
X0096333Y0378398D01*
X0096238Y0378393D01*
X0096133Y0378381D01*
X0095922Y0378354D01*
X0095816Y0378337D01*
X0095717Y0378315D01*
X0095622Y0378293D01*
X0095534Y0378259D01*
X0095456Y0378226D01*
X0095389Y0378187D01*
X0095384D01*
X0095378Y0378176D01*
X0095361Y0378165D01*
X0095339Y0378148D01*
X0095289Y0378098D01*
X0095228Y0378037D01*
X0095173Y0377954D01*
X0095123Y0377860D01*
X0095100Y0377810D01*
X0095084Y0377754D01*
X0095078Y0377693D01*
X0095073Y0377632D01*
Y0377599D01*
X0095078Y0377577D01*
X0095089Y0377516D01*
X0095106Y0377444D01*
X0095139Y0377360D01*
X0095189Y0377272D01*
X0095223Y0377227D01*
X0095256Y0377183D01*
X0095300Y0377144D01*
X0095350Y0377105D01*
X0095356D01*
X0095367Y0377094D01*
X0095389Y0377083D01*
X0095417Y0377066D01*
X0095461Y0377049D01*
X0095511Y0377027D01*
X0095572Y0377011D01*
X0095644Y0376988D01*
X0095728Y0376966D01*
X0095822Y0376944D01*
X0095928Y0376922D01*
X0096044Y0376905D01*
X0096177Y0376888D01*
X0096322Y0376877D01*
X0096477Y0376872D01*
X0096649Y0376866D01*
X0096660D01*
X0096688D01*
X0096738D01*
X0096804Y0376872D01*
X0096877D01*
X0096965Y0376877D01*
X0097060Y0376883D01*
X0097160Y0376894D01*
X0097376Y0376922D01*
X0097482Y0376939D01*
X0097581Y0376961D01*
X0097676Y0376983D01*
X0097764Y0377016D01*
X0097842Y0377049D01*
X0097909Y0377088D01*
X0097914D01*
X0097920Y0377099D01*
X0097959Y0377127D01*
X0098009Y0377177D01*
X0098064Y0377238D01*
X0098120Y0377321D01*
X0098170Y0377416D01*
X0098209Y0377521D01*
X0098214Y0377577D01*
X0098220Y0377638D01*
Y0377671D01*
X0098214Y0377693D01*
X0098203Y0377749D01*
X0098181Y0377826D01*
X0098142Y0377910D01*
X0098087Y0378004D01*
X0098053Y0378048D01*
X0098009Y0378093D01*
X0097964Y0378137D01*
X0097909Y0378182D01*
X0097903D01*
X0097892Y0378193D01*
X0097875Y0378204D01*
X0097848Y0378215D01*
X0097809Y0378237D01*
X0097759Y0378254D01*
X0097703Y0378276D01*
X0097637Y0378298D01*
X0097554Y0378315D01*
X0097465Y0378337D01*
X0097359Y0378359D01*
X0097248Y0378376D01*
X0097115Y0378387D01*
X0096976Y0378398D01*
X0096821Y0378409D01*
D02*
G37*
G36*
Y0373930D02*
X0096649D01*
X0096643D01*
X0096638D01*
X0096610D01*
X0096560D01*
X0096494Y0373925D01*
X0096421D01*
X0096333Y0373919D01*
X0096238Y0373914D01*
X0096133Y0373903D01*
X0095922Y0373875D01*
X0095816Y0373858D01*
X0095717Y0373836D01*
X0095622Y0373814D01*
X0095534Y0373780D01*
X0095456Y0373747D01*
X0095389Y0373708D01*
X0095384D01*
X0095378Y0373697D01*
X0095361Y0373686D01*
X0095339Y0373670D01*
X0095289Y0373620D01*
X0095228Y0373558D01*
X0095173Y0373475D01*
X0095123Y0373381D01*
X0095100Y0373331D01*
X0095084Y0373275D01*
X0095078Y0373214D01*
X0095073Y0373153D01*
Y0373120D01*
X0095078Y0373098D01*
X0095089Y0373037D01*
X0095106Y0372965D01*
X0095139Y0372881D01*
X0095189Y0372793D01*
X0095223Y0372748D01*
X0095256Y0372704D01*
X0095300Y0372665D01*
X0095350Y0372626D01*
X0095356D01*
X0095367Y0372615D01*
X0095389Y0372604D01*
X0095417Y0372587D01*
X0095461Y0372571D01*
X0095511Y0372548D01*
X0095572Y0372532D01*
X0095644Y0372510D01*
X0095728Y0372487D01*
X0095822Y0372465D01*
X0095928Y0372443D01*
X0096044Y0372426D01*
X0096177Y0372410D01*
X0096322Y0372399D01*
X0096477Y0372393D01*
X0096649Y0372388D01*
X0096660D01*
X0096688D01*
X0096738D01*
X0096804Y0372393D01*
X0096877D01*
X0096965Y0372399D01*
X0097060Y0372404D01*
X0097160Y0372415D01*
X0097376Y0372443D01*
X0097482Y0372460D01*
X0097581Y0372482D01*
X0097676Y0372504D01*
X0097764Y0372537D01*
X0097842Y0372571D01*
X0097909Y0372609D01*
X0097914D01*
X0097920Y0372621D01*
X0097959Y0372648D01*
X0098009Y0372698D01*
X0098064Y0372759D01*
X0098120Y0372843D01*
X0098170Y0372937D01*
X0098209Y0373042D01*
X0098214Y0373098D01*
X0098220Y0373159D01*
Y0373192D01*
X0098214Y0373214D01*
X0098203Y0373270D01*
X0098181Y0373348D01*
X0098142Y0373431D01*
X0098087Y0373525D01*
X0098053Y0373570D01*
X0098009Y0373614D01*
X0097964Y0373658D01*
X0097909Y0373703D01*
X0097903D01*
X0097892Y0373714D01*
X0097875Y0373725D01*
X0097848Y0373736D01*
X0097809Y0373758D01*
X0097759Y0373775D01*
X0097703Y0373797D01*
X0097637Y0373819D01*
X0097554Y0373836D01*
X0097465Y0373858D01*
X0097359Y0373880D01*
X0097248Y0373897D01*
X0097115Y0373908D01*
X0096976Y0373919D01*
X0096821Y0373930D01*
D02*
G37*
G36*
Y0370944D02*
X0096649D01*
X0096643D01*
X0096638D01*
X0096610D01*
X0096560D01*
X0096494Y0370939D01*
X0096421D01*
X0096333Y0370933D01*
X0096238Y0370928D01*
X0096133Y0370917D01*
X0095922Y0370889D01*
X0095816Y0370872D01*
X0095717Y0370850D01*
X0095622Y0370828D01*
X0095534Y0370795D01*
X0095456Y0370761D01*
X0095389Y0370723D01*
X0095384D01*
X0095378Y0370711D01*
X0095361Y0370700D01*
X0095339Y0370684D01*
X0095289Y0370634D01*
X0095228Y0370573D01*
X0095173Y0370489D01*
X0095123Y0370395D01*
X0095100Y0370345D01*
X0095084Y0370290D01*
X0095078Y0370229D01*
X0095073Y0370167D01*
Y0370134D01*
X0095078Y0370112D01*
X0095089Y0370051D01*
X0095106Y0369979D01*
X0095139Y0369896D01*
X0095189Y0369807D01*
X0095223Y0369762D01*
X0095256Y0369718D01*
X0095300Y0369679D01*
X0095350Y0369640D01*
X0095356D01*
X0095367Y0369629D01*
X0095389Y0369618D01*
X0095417Y0369601D01*
X0095461Y0369585D01*
X0095511Y0369563D01*
X0095572Y0369546D01*
X0095644Y0369524D01*
X0095728Y0369501D01*
X0095822Y0369479D01*
X0095928Y0369457D01*
X0096044Y0369440D01*
X0096177Y0369424D01*
X0096322Y0369413D01*
X0096477Y0369407D01*
X0096649Y0369402D01*
X0096660D01*
X0096688D01*
X0096738D01*
X0096804Y0369407D01*
X0096877D01*
X0096965Y0369413D01*
X0097060Y0369418D01*
X0097160Y0369429D01*
X0097376Y0369457D01*
X0097482Y0369474D01*
X0097581Y0369496D01*
X0097676Y0369518D01*
X0097764Y0369551D01*
X0097842Y0369585D01*
X0097909Y0369624D01*
X0097914D01*
X0097920Y0369635D01*
X0097959Y0369662D01*
X0098009Y0369712D01*
X0098064Y0369773D01*
X0098120Y0369857D01*
X0098170Y0369951D01*
X0098209Y0370057D01*
X0098214Y0370112D01*
X0098220Y0370173D01*
Y0370206D01*
X0098214Y0370229D01*
X0098203Y0370284D01*
X0098181Y0370362D01*
X0098142Y0370445D01*
X0098087Y0370539D01*
X0098053Y0370584D01*
X0098009Y0370628D01*
X0097964Y0370672D01*
X0097909Y0370717D01*
X0097903D01*
X0097892Y0370728D01*
X0097875Y0370739D01*
X0097848Y0370750D01*
X0097809Y0370772D01*
X0097759Y0370789D01*
X0097703Y0370811D01*
X0097637Y0370833D01*
X0097554Y0370850D01*
X0097465Y0370872D01*
X0097359Y0370895D01*
X0097248Y0370911D01*
X0097115Y0370922D01*
X0096976Y0370933D01*
X0096821Y0370944D01*
D02*
G37*
G36*
Y0367959D02*
X0096649D01*
X0096643D01*
X0096638D01*
X0096610D01*
X0096560D01*
X0096494Y0367953D01*
X0096421D01*
X0096333Y0367948D01*
X0096238Y0367942D01*
X0096133Y0367931D01*
X0095922Y0367903D01*
X0095816Y0367886D01*
X0095717Y0367864D01*
X0095622Y0367842D01*
X0095534Y0367809D01*
X0095456Y0367775D01*
X0095389Y0367737D01*
X0095384D01*
X0095378Y0367725D01*
X0095361Y0367714D01*
X0095339Y0367698D01*
X0095289Y0367648D01*
X0095228Y0367587D01*
X0095173Y0367503D01*
X0095123Y0367409D01*
X0095100Y0367359D01*
X0095084Y0367304D01*
X0095078Y0367243D01*
X0095073Y0367182D01*
Y0367148D01*
X0095078Y0367126D01*
X0095089Y0367065D01*
X0095106Y0366993D01*
X0095139Y0366910D01*
X0095189Y0366821D01*
X0095223Y0366776D01*
X0095256Y0366732D01*
X0095300Y0366693D01*
X0095350Y0366654D01*
X0095356D01*
X0095367Y0366643D01*
X0095389Y0366632D01*
X0095417Y0366616D01*
X0095461Y0366599D01*
X0095511Y0366577D01*
X0095572Y0366560D01*
X0095644Y0366538D01*
X0095728Y0366516D01*
X0095822Y0366493D01*
X0095928Y0366471D01*
X0096044Y0366455D01*
X0096177Y0366438D01*
X0096322Y0366427D01*
X0096477Y0366421D01*
X0096649Y0366416D01*
X0096660D01*
X0096688D01*
X0096738D01*
X0096804Y0366421D01*
X0096877D01*
X0096965Y0366427D01*
X0097060Y0366432D01*
X0097160Y0366443D01*
X0097376Y0366471D01*
X0097482Y0366488D01*
X0097581Y0366510D01*
X0097676Y0366532D01*
X0097764Y0366565D01*
X0097842Y0366599D01*
X0097909Y0366638D01*
X0097914D01*
X0097920Y0366649D01*
X0097959Y0366676D01*
X0098009Y0366726D01*
X0098064Y0366788D01*
X0098120Y0366871D01*
X0098170Y0366965D01*
X0098209Y0367071D01*
X0098214Y0367126D01*
X0098220Y0367187D01*
Y0367220D01*
X0098214Y0367243D01*
X0098203Y0367298D01*
X0098181Y0367376D01*
X0098142Y0367459D01*
X0098087Y0367553D01*
X0098053Y0367598D01*
X0098009Y0367642D01*
X0097964Y0367687D01*
X0097909Y0367731D01*
X0097903D01*
X0097892Y0367742D01*
X0097875Y0367753D01*
X0097848Y0367764D01*
X0097809Y0367787D01*
X0097759Y0367803D01*
X0097703Y0367825D01*
X0097637Y0367848D01*
X0097554Y0367864D01*
X0097465Y0367886D01*
X0097359Y0367909D01*
X0097248Y0367925D01*
X0097115Y0367936D01*
X0096976Y0367948D01*
X0096821Y0367959D01*
D02*
G37*
%LPD*%
G54D17*
X0122980Y0206508D02*
X0125980Y0207508D01*
X0122980Y0206508D02*
X0125980Y0205508D01*
X0349980D02*
X0352980Y0206508D01*
X0349980Y0207508D02*
X0352980Y0206508D01*
X0122980D02*
X0224993D01*
X0248977D02*
X0352980D01*
X0122980Y0206115D02*
Y0224908D01*
X0352980Y0206115D02*
Y0224908D01*
X0096580Y0524908D02*
X0097580Y0521908D01*
X0095580D02*
X0096580Y0524908D01*
X0095580Y0227908D02*
X0096580Y0224908D01*
X0097580Y0227908D01*
X0096580Y0385864D02*
Y0524908D01*
Y0224908D02*
Y0361952D01*
X0096186Y0524908D02*
X0122980D01*
X0096186Y0224908D02*
X0122980D01*
G54D20*
X0135692Y0067117D02*
Y0073115D01*
X0137691Y0071116D01*
X0139690Y0073115D01*
Y0067117D01*
X0145688D02*
X0141690D01*
X0145688Y0071116D01*
Y0072115D01*
X0144689Y0073115D01*
X0142689D01*
X0141690Y0072115D01*
X0153686Y0073115D02*
Y0067117D01*
X0156685D01*
X0157685Y0068117D01*
Y0069116D01*
X0156685Y0070116D01*
X0153686D01*
X0156685D01*
X0157685Y0071116D01*
Y0072115D01*
X0156685Y0073115D01*
X0153686D01*
X0160684Y0067117D02*
X0162683D01*
X0163682Y0068117D01*
Y0070116D01*
X0162683Y0071116D01*
X0160684D01*
X0159684Y0070116D01*
Y0068117D01*
X0160684Y0067117D01*
X0166682Y0071116D02*
X0168681D01*
X0169681Y0070116D01*
Y0067117D01*
X0166682D01*
X0165682Y0068117D01*
X0166682Y0069116D01*
X0169681D01*
X0171680Y0071116D02*
Y0067117D01*
Y0069116D01*
X0172680Y0070116D01*
X0173679Y0071116D01*
X0174679D01*
X0181677Y0073115D02*
Y0067117D01*
X0178678D01*
X0177678Y0068117D01*
Y0070116D01*
X0178678Y0071116D01*
X0181677D01*
X0189674Y0073115D02*
Y0067117D01*
X0192673D01*
X0193673Y0068117D01*
Y0072115D01*
X0192673Y0073115D01*
X0189674D01*
X0195672Y0067117D02*
X0197672D01*
X0196672D01*
Y0071116D01*
X0195672D01*
X0200671Y0067117D02*
Y0071116D01*
X0201670D01*
X0202670Y0070116D01*
Y0067117D01*
Y0070116D01*
X0203670Y0071116D01*
X0204669Y0070116D01*
Y0067117D01*
X0209668D02*
X0207668D01*
X0206669Y0068117D01*
Y0070116D01*
X0207668Y0071116D01*
X0209668D01*
X0210667Y0070116D01*
Y0069116D01*
X0206669D01*
X0212667Y0067117D02*
Y0071116D01*
X0215666D01*
X0216665Y0070116D01*
Y0067117D01*
X0218665D02*
X0221664D01*
X0222663Y0068117D01*
X0221664Y0069116D01*
X0219664D01*
X0218665Y0070116D01*
X0219664Y0071116D01*
X0222663D01*
X0224663Y0067117D02*
X0226662D01*
X0225662D01*
Y0071116D01*
X0224663D01*
X0230661Y0067117D02*
X0232660D01*
X0233660Y0068117D01*
Y0070116D01*
X0232660Y0071116D01*
X0230661D01*
X0229661Y0070116D01*
Y0068117D01*
X0230661Y0067117D01*
X0235659D02*
Y0071116D01*
X0238658D01*
X0239658Y0070116D01*
Y0067117D01*
X0241657D02*
X0244656D01*
X0245656Y0068117D01*
X0244656Y0069116D01*
X0242657D01*
X0241657Y0070116D01*
X0242657Y0071116D01*
X0245656D01*
X0567280Y0087441D02*
Y0093440D01*
X0571278Y0087441D01*
Y0093440D01*
X0574277Y0087441D02*
X0576277D01*
X0577276Y0088441D01*
Y0090440D01*
X0576277Y0091440D01*
X0574277D01*
X0573278Y0090440D01*
Y0088441D01*
X0574277Y0087441D01*
X0580275Y0092440D02*
Y0091440D01*
X0579276D01*
X0581275D01*
X0580275D01*
Y0088441D01*
X0581275Y0087441D01*
X0590272D02*
X0592272D01*
X0591272D01*
Y0091440D01*
X0590272D01*
X0595271Y0087441D02*
Y0091440D01*
X0598270D01*
X0599269Y0090440D01*
Y0087441D01*
X0607267Y0091440D02*
X0609266Y0087441D01*
X0611265Y0091440D01*
X0616264Y0087441D02*
X0614264D01*
X0613265Y0088441D01*
Y0090440D01*
X0614264Y0091440D01*
X0616264D01*
X0617264Y0090440D01*
Y0089441D01*
X0613265D01*
X0619263Y0091440D02*
Y0087441D01*
Y0089441D01*
X0620262Y0090440D01*
X0621262Y0091440D01*
X0622262D01*
X0625261Y0087441D02*
X0628260D01*
X0629260Y0088441D01*
X0628260Y0089441D01*
X0626261D01*
X0625261Y0090440D01*
X0626261Y0091440D01*
X0629260D01*
X0631259Y0087441D02*
X0633258D01*
X0632259D01*
Y0091440D01*
X0631259D01*
X0637257Y0087441D02*
X0639256D01*
X0640256Y0088441D01*
Y0090440D01*
X0639256Y0091440D01*
X0637257D01*
X0636257Y0090440D01*
Y0088441D01*
X0637257Y0087441D01*
X0642255D02*
Y0091440D01*
X0645254D01*
X0646254Y0090440D01*
Y0087441D01*
X0658250Y0091440D02*
X0655251D01*
X0654251Y0090440D01*
Y0088441D01*
X0655251Y0087441D01*
X0658250D01*
X0661249D02*
X0663249D01*
X0664248Y0088441D01*
Y0090440D01*
X0663249Y0091440D01*
X0661249D01*
X0660250Y0090440D01*
Y0088441D01*
X0661249Y0087441D01*
X0666248D02*
Y0091440D01*
X0669247D01*
X0670246Y0090440D01*
Y0087441D01*
X0673245Y0092440D02*
Y0091440D01*
X0672246D01*
X0674245D01*
X0673245D01*
Y0088441D01*
X0674245Y0087441D01*
X0677244Y0091440D02*
Y0087441D01*
Y0089441D01*
X0678244Y0090440D01*
X0679243Y0091440D01*
X0680243D01*
X0684242Y0087441D02*
X0686241D01*
X0687241Y0088441D01*
Y0090440D01*
X0686241Y0091440D01*
X0684242D01*
X0683242Y0090440D01*
Y0088441D01*
X0684242Y0087441D01*
X0689240D02*
X0691240D01*
X0690240D01*
Y0093440D01*
X0689240D01*
X0520678Y0092440D02*
X0519679Y0093440D01*
X0517679D01*
X0516680Y0092440D01*
Y0091440D01*
X0517679Y0090440D01*
X0519679D01*
X0520678Y0089441D01*
Y0088441D01*
X0519679Y0087441D01*
X0517679D01*
X0516680Y0088441D01*
X0522678Y0093440D02*
Y0089441D01*
X0524677Y0087441D01*
X0526676Y0089441D01*
Y0093440D01*
X0528676Y0087441D02*
Y0093440D01*
X0532675Y0087441D01*
Y0093440D01*
X0540672Y0087441D02*
Y0093440D01*
X0543671D01*
X0544671Y0092440D01*
Y0090440D01*
X0543671Y0089441D01*
X0540672D01*
X0542671D02*
X0544671Y0087441D01*
X0550669Y0093440D02*
X0546670D01*
Y0087441D01*
X0550669D01*
X0546670Y0090440D02*
X0548669D01*
X0552668Y0093440D02*
Y0089441D01*
X0554667Y0087441D01*
X0556667Y0089441D01*
Y0093440D01*
X0558666Y0091440D02*
X0559666D01*
Y0090440D01*
X0558666D01*
Y0091440D01*
Y0088441D02*
X0559666D01*
Y0087441D01*
X0558666D01*
Y0088441D01*
X0432880Y0087441D02*
Y0093440D01*
X0435879D01*
X0436878Y0092440D01*
Y0090440D01*
X0435879Y0089441D01*
X0432880D01*
X0434879D02*
X0436878Y0087441D01*
X0442876Y0093440D02*
X0438878D01*
Y0087441D01*
X0442876D01*
X0438878Y0090440D02*
X0440877D01*
X0444876Y0093440D02*
Y0089441D01*
X0446875Y0087441D01*
X0448875Y0089441D01*
Y0093440D01*
X0450874Y0091440D02*
X0451873D01*
Y0090440D01*
X0450874D01*
Y0091440D01*
Y0088441D02*
X0451873D01*
Y0087441D01*
X0450874D01*
Y0088441D01*
X0126780Y0046575D02*
Y0052573D01*
X0128779Y0050573D01*
X0130778Y0052573D01*
Y0046575D01*
X0136776Y0051573D02*
X0135777Y0052573D01*
X0133777D01*
X0132778Y0051573D01*
Y0047574D01*
X0133777Y0046575D01*
X0135777D01*
X0136776Y0047574D01*
X0138776Y0052573D02*
Y0047574D01*
X0139775Y0046575D01*
X0141775D01*
X0142774Y0047574D01*
Y0052573D01*
X0144774Y0046575D02*
X0146773D01*
X0145773D01*
Y0052573D01*
X0144774Y0051573D01*
X0153771Y0052573D02*
X0149772D01*
Y0049574D01*
X0151772Y0050573D01*
X0152771D01*
X0153771Y0049574D01*
Y0047574D01*
X0152771Y0046575D01*
X0150772D01*
X0149772Y0047574D01*
X0159769Y0046575D02*
X0155770D01*
X0159769Y0050573D01*
Y0051573D01*
X0158769Y0052573D01*
X0156770D01*
X0155770Y0051573D01*
X0161768Y0046575D02*
Y0050573D01*
X0163768Y0052573D01*
X0165767Y0050573D01*
Y0046575D01*
Y0049574D01*
X0161768D01*
X0167766Y0046575D02*
Y0047574D01*
X0168766D01*
Y0046575D01*
X0167766D01*
X0176763Y0051573D02*
X0175764Y0052573D01*
X0173764D01*
X0172765Y0051573D01*
Y0047574D01*
X0173764Y0046575D01*
X0175764D01*
X0176763Y0047574D01*
Y0049574D01*
X0174764D01*
X0178763Y0046575D02*
Y0052573D01*
X0180762Y0050573D01*
X0182762Y0052573D01*
Y0046575D01*
X0188760D02*
X0184761D01*
X0188760Y0050573D01*
Y0051573D01*
X0187760Y0052573D01*
X0185761D01*
X0184761Y0051573D01*
X0381030Y0052573D02*
X0385028D01*
Y0051573D01*
X0381030Y0047574D01*
Y0046575D01*
X0387028D02*
X0391026Y0050573D01*
X0397024Y0046575D02*
X0393026D01*
X0397024Y0050573D01*
Y0051573D01*
X0396025Y0052573D01*
X0394025D01*
X0393026Y0051573D01*
X0399024Y0046575D02*
X0401023D01*
X0400024D01*
Y0052573D01*
X0399024Y0051573D01*
X0404022Y0046575D02*
X0408021Y0050573D01*
X0414019Y0046575D02*
X0410020D01*
X0414019Y0050573D01*
Y0051573D01*
X0413019Y0052573D01*
X0411020D01*
X0410020Y0051573D01*
X0416018D02*
X0417018Y0052573D01*
X0419017D01*
X0420017Y0051573D01*
Y0047574D01*
X0419017Y0046575D01*
X0417018D01*
X0416018Y0047574D01*
Y0051573D01*
X0426015Y0046575D02*
X0422016D01*
X0426015Y0050573D01*
Y0051573D01*
X0425015Y0052573D01*
X0423016D01*
X0422016Y0051573D01*
X0432013Y0052573D02*
X0428014D01*
Y0049574D01*
X0430014Y0050573D01*
X0431013D01*
X0432013Y0049574D01*
Y0047574D01*
X0431013Y0046575D01*
X0429014D01*
X0428014Y0047574D01*
X0298078Y0051573D02*
X0297079Y0052573D01*
X0295079D01*
X0294080Y0051573D01*
Y0047574D01*
X0295079Y0046575D01*
X0297079D01*
X0298078Y0047574D01*
Y0049574D01*
X0296079D01*
X0304076Y0052573D02*
X0300078D01*
Y0046575D01*
X0304076D01*
X0300078Y0049574D02*
X0302077D01*
X0306076Y0046575D02*
Y0052573D01*
X0310074Y0046575D01*
Y0052573D01*
X0316073D02*
X0312074D01*
Y0046575D01*
X0316073D01*
X0312074Y0049574D02*
X0314073D01*
X0318072Y0046575D02*
Y0052573D01*
X0321071D01*
X0322071Y0051573D01*
Y0049574D01*
X0321071Y0048574D01*
X0318072D01*
X0320071D02*
X0322071Y0046575D01*
X0324070D02*
Y0050573D01*
X0326069Y0052573D01*
X0328069Y0050573D01*
Y0046575D01*
Y0049574D01*
X0324070D01*
X0330068Y0052573D02*
X0334067D01*
X0332067D01*
Y0046575D01*
X0340065Y0052573D02*
X0336066D01*
Y0046575D01*
X0340065D01*
X0336066Y0049574D02*
X0338065D01*
X0342064Y0052573D02*
Y0046575D01*
X0345063D01*
X0346063Y0047574D01*
Y0051573D01*
X0345063Y0052573D01*
X0342064D01*
X0372054Y0050573D02*
X0373054D01*
Y0049574D01*
X0372054D01*
Y0050573D01*
Y0047574D02*
X0373054D01*
Y0046575D01*
X0372054D01*
Y0047574D01*
X0046230Y0087441D02*
Y0091440D01*
X0048229Y0093440D01*
X0050228Y0091440D01*
Y0087441D01*
Y0090440D01*
X0046230D01*
X0052228Y0093440D02*
Y0087441D01*
X0056226D01*
X0058226Y0093440D02*
Y0087441D01*
X0062225D01*
X0070222D02*
Y0091440D01*
X0072221Y0093440D01*
X0074221Y0091440D01*
Y0087441D01*
Y0090440D01*
X0070222D01*
X0076220Y0087441D02*
Y0093440D01*
X0079219D01*
X0080219Y0092440D01*
Y0090440D01*
X0079219Y0089441D01*
X0076220D01*
X0078219D02*
X0080219Y0087441D01*
X0082218Y0093440D02*
X0086217D01*
X0084217D01*
Y0087441D01*
X0088216Y0093440D02*
Y0087441D01*
X0090215Y0089441D01*
X0092215Y0087441D01*
Y0093440D01*
X0097213D02*
X0095214D01*
X0094214Y0092440D01*
Y0088441D01*
X0095214Y0087441D01*
X0097213D01*
X0098213Y0088441D01*
Y0092440D01*
X0097213Y0093440D01*
X0100212Y0087441D02*
Y0093440D01*
X0103211D01*
X0104211Y0092440D01*
Y0090440D01*
X0103211Y0089441D01*
X0100212D01*
X0102211D02*
X0104211Y0087441D01*
X0106210Y0093440D02*
Y0087441D01*
Y0089441D01*
X0110209Y0093440D01*
X0107210Y0090440D01*
X0110209Y0087441D01*
X0118206Y0093440D02*
Y0089441D01*
X0120206Y0087441D01*
X0122205Y0089441D01*
Y0093440D01*
X0124204D02*
X0126204D01*
X0125204D01*
Y0087441D01*
X0124204D01*
X0126204D01*
X0133202Y0093440D02*
X0129203D01*
Y0087441D01*
X0133202D01*
X0129203Y0090440D02*
X0131202D01*
X0135201Y0093440D02*
Y0087441D01*
X0137200Y0089441D01*
X0139200Y0087441D01*
Y0093440D01*
X0145198D02*
X0141199D01*
Y0087441D01*
X0145198D01*
X0141199Y0090440D02*
X0143198D01*
X0147197Y0093440D02*
Y0087441D01*
X0150196D01*
X0151196Y0088441D01*
Y0092440D01*
X0150196Y0093440D01*
X0147197D01*
X0163192D02*
X0159193D01*
Y0090440D01*
X0161193D01*
X0159193D01*
Y0087441D01*
X0165191D02*
Y0093440D01*
X0168190D01*
X0169190Y0092440D01*
Y0090440D01*
X0168190Y0089441D01*
X0165191D01*
X0167191D02*
X0169190Y0087441D01*
X0174188Y0093440D02*
X0172189D01*
X0171189Y0092440D01*
Y0088441D01*
X0172189Y0087441D01*
X0174188D01*
X0175188Y0088441D01*
Y0092440D01*
X0174188Y0093440D01*
X0177187Y0087441D02*
Y0093440D01*
X0179187Y0091440D01*
X0181186Y0093440D01*
Y0087441D01*
X0189183Y0093440D02*
X0193182D01*
X0191183D01*
Y0087441D01*
X0198180Y0093440D02*
X0196181D01*
X0195182Y0092440D01*
Y0088441D01*
X0196181Y0087441D01*
X0198180D01*
X0199180Y0088441D01*
Y0092440D01*
X0198180Y0093440D01*
X0201180Y0087441D02*
Y0093440D01*
X0204179D01*
X0205178Y0092440D01*
Y0090440D01*
X0204179Y0089441D01*
X0201180D01*
X0217174Y0092440D02*
X0216175Y0093440D01*
X0214175D01*
X0213176Y0092440D01*
Y0091440D01*
X0214175Y0090440D01*
X0216175D01*
X0217174Y0089441D01*
Y0088441D01*
X0216175Y0087441D01*
X0214175D01*
X0213176Y0088441D01*
X0219174Y0093440D02*
X0221173D01*
X0220173D01*
Y0087441D01*
X0219174D01*
X0221173D01*
X0224172Y0093440D02*
Y0087441D01*
X0227171D01*
X0228171Y0088441D01*
Y0092440D01*
X0227171Y0093440D01*
X0224172D01*
X0234169D02*
X0230170D01*
Y0087441D01*
X0234169D01*
X0230170Y0090440D02*
X0232170D01*
X0462030Y0087441D02*
Y0091440D01*
X0464029Y0093440D01*
X0466028Y0091440D01*
Y0087441D01*
Y0090440D01*
X0462030D01*
X0348430Y0087441D02*
Y0093440D01*
X0350429Y0091440D01*
X0352428Y0093440D01*
Y0087441D01*
X0358426Y0092440D02*
X0357427Y0093440D01*
X0355427D01*
X0354428Y0092440D01*
Y0088441D01*
X0355427Y0087441D01*
X0357427D01*
X0358426Y0088441D01*
X0360426Y0093440D02*
Y0088441D01*
X0361425Y0087441D01*
X0363425D01*
X0364424Y0088441D01*
Y0093440D01*
X0366424Y0087441D02*
X0368423D01*
X0367424D01*
Y0093440D01*
X0366424Y0092440D01*
X0375421Y0093440D02*
X0371422D01*
Y0090440D01*
X0373422Y0091440D01*
X0374421D01*
X0375421Y0090440D01*
Y0088441D01*
X0374421Y0087441D01*
X0372422D01*
X0371422Y0088441D01*
X0381419Y0087441D02*
X0377420D01*
X0381419Y0091440D01*
Y0092440D01*
X0380419Y0093440D01*
X0378420D01*
X0377420Y0092440D01*
X0293880Y0093440D02*
Y0087441D01*
X0296879D01*
X0297878Y0088441D01*
Y0089441D01*
X0296879Y0090440D01*
X0293880D01*
X0296879D01*
X0297878Y0091440D01*
Y0092440D01*
X0296879Y0093440D01*
X0293880D01*
X0302877D02*
X0300877D01*
X0299878Y0092440D01*
Y0088441D01*
X0300877Y0087441D01*
X0302877D01*
X0303876Y0088441D01*
Y0092440D01*
X0302877Y0093440D01*
X0305876Y0087441D02*
Y0091440D01*
X0307875Y0093440D01*
X0309875Y0091440D01*
Y0087441D01*
Y0090440D01*
X0305876D01*
X0311874Y0087441D02*
Y0093440D01*
X0314873D01*
X0315873Y0092440D01*
Y0090440D01*
X0314873Y0089441D01*
X0311874D01*
X0313873D02*
X0315873Y0087441D01*
X0317872Y0093440D02*
Y0087441D01*
X0320871D01*
X0321871Y0088441D01*
Y0092440D01*
X0320871Y0093440D01*
X0317872D01*
X0330868Y0087441D02*
Y0093440D01*
X0332867D02*
Y0087441D01*
X0329868Y0091440D02*
X0332867D01*
X0333867D01*
X0329868Y0089441D02*
X0333867D01*
X0335866Y0091440D02*
X0336866D01*
Y0090440D01*
X0335866D01*
Y0091440D01*
Y0088441D02*
X0336866D01*
Y0087441D01*
X0335866D01*
Y0088441D01*
X0046230Y0073157D02*
Y0067159D01*
X0050228D01*
X0052228D02*
Y0071157D01*
X0054227Y0073157D01*
X0056226Y0071157D01*
Y0067159D01*
Y0070158D01*
X0052228D01*
X0058226Y0073157D02*
Y0072157D01*
X0060225Y0070158D01*
X0062225Y0072157D01*
Y0073157D01*
X0060225Y0070158D02*
Y0067159D01*
X0068222Y0073157D02*
X0064224D01*
Y0067159D01*
X0068222D01*
X0064224Y0070158D02*
X0066223D01*
X0070222Y0067159D02*
Y0073157D01*
X0073221D01*
X0074221Y0072157D01*
Y0070158D01*
X0073221Y0069158D01*
X0070222D01*
X0072221D02*
X0074221Y0067159D01*
X0082218D02*
Y0073157D01*
X0086217Y0067159D01*
Y0073157D01*
X0088216Y0067159D02*
Y0071157D01*
X0090215Y0073157D01*
X0092215Y0071157D01*
Y0067159D01*
Y0070158D01*
X0088216D01*
X0094214Y0067159D02*
Y0073157D01*
X0096214Y0071157D01*
X0098213Y0073157D01*
Y0067159D01*
X0104211Y0073157D02*
X0100212D01*
Y0067159D01*
X0104211D01*
X0100212Y0070158D02*
X0102211D01*
X0112208Y0069158D02*
X0116207D01*
X0112208Y0071157D02*
X0116207D01*
X0046230Y0046575D02*
Y0052573D01*
X0049229D01*
X0050228Y0051573D01*
Y0049574D01*
X0049229Y0048574D01*
X0046230D01*
X0052228Y0052573D02*
Y0046575D01*
X0056226D01*
X0061225Y0052573D02*
X0059225D01*
X0058226Y0051573D01*
Y0047574D01*
X0059225Y0046575D01*
X0061225D01*
X0062225Y0047574D01*
Y0051573D01*
X0061225Y0052573D01*
X0064224D02*
X0068222D01*
X0066223D01*
Y0046575D01*
X0076220D02*
Y0052573D01*
X0080219Y0046575D01*
Y0052573D01*
X0082218Y0046575D02*
Y0050573D01*
X0084217Y0052573D01*
X0086217Y0050573D01*
Y0046575D01*
Y0049574D01*
X0082218D01*
X0088216Y0046575D02*
Y0052573D01*
X0090215Y0050573D01*
X0092215Y0052573D01*
Y0046575D01*
X0098213Y0052573D02*
X0094214D01*
Y0046575D01*
X0098213D01*
X0094214Y0049574D02*
X0096214D01*
X0106210Y0048574D02*
X0110209D01*
X0106210Y0050573D02*
X0110209D01*
X0456929Y0046575D02*
Y0052573D01*
X0453930Y0049574D01*
X0457928D01*
X0459928Y0050573D02*
X0460927D01*
Y0049574D01*
X0459928D01*
Y0050573D01*
Y0047574D02*
X0460927D01*
Y0046575D01*
X0459928D01*
Y0047574D01*
X0464926Y0051573D02*
X0465926Y0052573D01*
X0467925D01*
X0468925Y0051573D01*
Y0050573D01*
X0467925Y0049574D01*
X0466925D01*
X0467925D01*
X0468925Y0048574D01*
Y0047574D01*
X0467925Y0046575D01*
X0465926D01*
X0464926Y0047574D01*
X0470924Y0051573D02*
X0471924Y0052573D01*
X0473923D01*
X0474923Y0051573D01*
Y0047574D01*
X0473923Y0046575D01*
X0471924D01*
X0470924Y0047574D01*
Y0051573D01*
X0476922Y0050573D02*
X0477922D01*
Y0049574D01*
X0476922D01*
Y0050573D01*
Y0047574D02*
X0477922D01*
Y0046575D01*
X0476922D01*
Y0047574D01*
X0485919Y0052573D02*
X0481921D01*
Y0049574D01*
X0483920Y0050573D01*
X0484920D01*
X0485919Y0049574D01*
Y0047574D01*
X0484920Y0046575D01*
X0482920D01*
X0481921Y0047574D01*
X0487919Y0052573D02*
X0491917D01*
Y0051573D01*
X0487919Y0047574D01*
Y0046575D01*
X0499915D02*
Y0052573D01*
X0502914D01*
X0503913Y0051573D01*
Y0049574D01*
X0502914Y0048574D01*
X0499915D01*
X0505913Y0046575D02*
Y0052573D01*
X0507912Y0050573D01*
X0509911Y0052573D01*
Y0046575D01*
X0580380Y0052573D02*
X0584378D01*
X0582379D01*
Y0046575D01*
X0590376Y0052573D02*
X0586378D01*
Y0046575D01*
X0590376D01*
X0586378Y0049574D02*
X0588377D01*
X0592376Y0052573D02*
X0596375Y0046575D01*
Y0052573D02*
X0592376Y0046575D01*
X0598374D02*
Y0050573D01*
X0600373Y0052573D01*
X0602373Y0050573D01*
Y0046575D01*
Y0049574D01*
X0598374D01*
X0608371Y0051573D02*
X0607371Y0052573D01*
X0605372D01*
X0604372Y0051573D01*
Y0050573D01*
X0605372Y0049574D01*
X0607371D01*
X0608371Y0048574D01*
Y0047574D01*
X0607371Y0046575D01*
X0605372D01*
X0604372Y0047574D01*
X0616368Y0052573D02*
X0618367D01*
X0617368D01*
Y0046575D01*
X0616368D01*
X0618367D01*
X0621366D02*
Y0052573D01*
X0625365Y0046575D01*
Y0052573D01*
X0631363Y0051573D02*
X0630364Y0052573D01*
X0628364D01*
X0627364Y0051573D01*
Y0050573D01*
X0628364Y0049574D01*
X0630364D01*
X0631363Y0048574D01*
Y0047574D01*
X0630364Y0046575D01*
X0628364D01*
X0627364Y0047574D01*
X0633362Y0052573D02*
X0637361D01*
X0635362D01*
Y0046575D01*
X0639361D02*
Y0052573D01*
X0642360D01*
X0643359Y0051573D01*
Y0049574D01*
X0642360Y0048574D01*
X0639361D01*
X0641360D02*
X0643359Y0046575D01*
X0645359Y0052573D02*
Y0047574D01*
X0646358Y0046575D01*
X0648358D01*
X0649357Y0047574D01*
Y0052573D01*
X0651357Y0046575D02*
Y0052573D01*
X0653356Y0050573D01*
X0655355Y0052573D01*
Y0046575D01*
X0661353Y0052573D02*
X0657355D01*
Y0046575D01*
X0661353D01*
X0657355Y0049574D02*
X0659354D01*
X0663353Y0046575D02*
Y0052573D01*
X0667351Y0046575D01*
Y0052573D01*
X0669351D02*
X0673350D01*
X0671350D01*
Y0046575D01*
X0679348Y0051573D02*
X0678348Y0052573D01*
X0676349D01*
X0675349Y0051573D01*
Y0050573D01*
X0676349Y0049574D01*
X0678348D01*
X0679348Y0048574D01*
Y0047574D01*
X0678348Y0046575D01*
X0676349D01*
X0675349Y0047574D01*
X0293880Y0073106D02*
X0297878D01*
X0295879D01*
Y0067108D01*
X0299878Y0073106D02*
X0301877D01*
X0300877D01*
Y0067108D01*
X0299878D01*
X0301877D01*
X0304876Y0073106D02*
Y0067108D01*
X0307875D01*
X0308875Y0068108D01*
Y0072106D01*
X0307875Y0073106D01*
X0304876D01*
X0317872Y0067108D02*
Y0073106D01*
X0319871D02*
Y0067108D01*
X0316872Y0071107D02*
X0319871D01*
X0320871D01*
X0316872Y0069108D02*
X0320871D01*
X0322870Y0071107D02*
X0323870D01*
Y0070107D01*
X0322870D01*
Y0071107D01*
Y0068108D02*
X0323870D01*
Y0067108D01*
X0322870D01*
Y0068108D01*
X0348430Y0067108D02*
Y0068108D01*
X0349429D01*
Y0067108D01*
X0348430D01*
X0353428Y0073106D02*
X0357427D01*
X0355427D01*
Y0067108D01*
X0359426Y0073106D02*
X0361425D01*
X0360426D01*
Y0067108D01*
X0359426D01*
X0361425D01*
X0364424Y0073106D02*
Y0067108D01*
X0367424D01*
X0368423Y0068108D01*
Y0072106D01*
X0367424Y0073106D01*
X0364424D01*
X0127080Y0067008D02*
Y0073006D01*
X0129079Y0071007D01*
X0131078Y0073006D01*
Y0067008D01*
X0133078D02*
X0135077D01*
X0134077D01*
Y0073006D01*
X0133078Y0072006D01*
X0138076Y0067008D02*
X0140075D01*
X0139076D01*
Y0073006D01*
X0138076Y0072006D01*
X0153071D02*
X0152072Y0073006D01*
X0150072D01*
X0149073Y0072006D01*
Y0068008D01*
X0150072Y0067008D01*
X0152072D01*
X0153071Y0068008D01*
Y0070007D01*
X0151072D01*
X0158070Y0067008D02*
X0156070D01*
X0155071Y0068008D01*
Y0070007D01*
X0156070Y0071007D01*
X0158070D01*
X0159069Y0070007D01*
Y0069007D01*
X0155071D01*
X0161069Y0071007D02*
Y0067008D01*
Y0069007D01*
X0162068Y0070007D01*
X0163068Y0071007D01*
X0164068D01*
X0167067Y0073006D02*
Y0067008D01*
X0170066D01*
X0171065Y0068008D01*
Y0069007D01*
Y0070007D01*
X0170066Y0071007D01*
X0167067D01*
X0176064Y0067008D02*
X0174064D01*
X0173065Y0068008D01*
Y0070007D01*
X0174064Y0071007D01*
X0176064D01*
X0177064Y0070007D01*
Y0069007D01*
X0173065D01*
X0179063Y0071007D02*
Y0067008D01*
Y0069007D01*
X0180062Y0070007D01*
X0181062Y0071007D01*
X0182062D01*
X0191059Y0073006D02*
X0193058D01*
X0192059D01*
Y0067008D01*
X0191059D01*
X0193058D01*
X0196057D02*
Y0071007D01*
X0199056D01*
X0200056Y0070007D01*
Y0067008D01*
X0203055D02*
Y0072006D01*
Y0070007D01*
X0202055D01*
X0204055D01*
X0203055D01*
Y0072006D01*
X0204055Y0073006D01*
X0208053Y0067008D02*
X0210053D01*
X0211052Y0068008D01*
Y0070007D01*
X0210053Y0071007D01*
X0208053D01*
X0207054Y0070007D01*
Y0068008D01*
X0208053Y0067008D01*
X0213052Y0071007D02*
Y0067008D01*
Y0069007D01*
X0214052Y0070007D01*
X0215051Y0071007D01*
X0216051D01*
X0219050Y0067008D02*
Y0071007D01*
X0220050D01*
X0221049Y0070007D01*
Y0067008D01*
Y0070007D01*
X0222049Y0071007D01*
X0223049Y0070007D01*
Y0067008D01*
X0226048Y0071007D02*
X0228047D01*
X0229047Y0070007D01*
Y0067008D01*
X0226048D01*
X0225048Y0068008D01*
X0226048Y0069007D01*
X0229047D01*
X0232046Y0072006D02*
Y0071007D01*
X0231046D01*
X0233045D01*
X0232046D01*
Y0068008D01*
X0233045Y0067008D01*
X0236044D02*
X0238044D01*
X0237044D01*
Y0071007D01*
X0236044D01*
X0242042Y0067008D02*
X0244042D01*
X0245041Y0068008D01*
Y0070007D01*
X0244042Y0071007D01*
X0242042D01*
X0241043Y0070007D01*
Y0068008D01*
X0242042Y0067008D01*
X0247041D02*
Y0071007D01*
X0250040D01*
X0251040Y0070007D01*
Y0067008D01*
G54D31*
X0497080Y0080325D02*
Y0100658D01*
X0413080Y0080325D02*
Y0100658D01*
X0039880Y0080325D02*
X0700080D01*
X0039880Y0059992D02*
X0699880D01*
X0039880Y0039658D02*
X0440380D01*
X0039930Y0100658D02*
X0700080D01*
X0039930Y0039658D02*
Y0100658D01*
Y0039658D02*
X0197480D01*
X0039880D02*
Y0100658D01*
X0286380Y0039658D02*
Y0100658D01*
X0700080Y0039658D02*
Y0100658D01*
X0440380Y0039658D02*
X0700080D01*
X0559280Y0039008D02*
Y0059292D01*
M02*
