G04*
G04 #@! TF.GenerationSoftware,Altium Limited,Altium Designer,23.1.1 (15)*
G04*
G04 Layer_Color=11296232*
%FSAX25Y25*%
%MOIN*%
G70*
G04*
G04 #@! TF.SameCoordinates,3BE6CC82-2BF3-4767-8D6A-7EFB0FF24752*
G04*
G04*
G04 #@! TF.FilePolarity,Positive*
G04*
G01*
G75*
%ADD17C,0.00787*%
%ADD20C,0.00800*%
%ADD31C,0.01000*%
G54D17*
X0152507Y0508058D02*
G03*
X0150539Y0506089I0000000J-0001969D01*
G01*
D02*
G03*
X0152507Y0504121I0001969J0000000D01*
G01*
X0189515Y0504121D02*
G03*
X0191484Y0506089I0000000J0001969D01*
G01*
Y0506089D02*
G03*
X0189515Y0508058I-0001969J0000000D01*
G01*
X0152507Y0508108D02*
G03*
X0152416Y0504176I0000036J-0001968D01*
G01*
X0189606Y0504125D02*
G03*
X0189515Y0508058I-0000127J0001964D01*
G01*
X0349980Y0412408D02*
G03*
X0352980Y0422408I-0015167J0010000D01*
G01*
X0127980Y0524908D02*
G03*
X0122980Y0519908I0000000J-0005000D01*
G01*
X0352980D02*
G03*
X0347980Y0524908I-0005000J0000000D01*
G01*
X0352980Y0382408D02*
G03*
X0349980Y0392408I-0018167J0000000D01*
G01*
Y0412408D02*
G03*
X0349980Y0392408I0015167J-0010000D01*
G01*
Y0412408D02*
G03*
X0349980Y0392408I0015167J-0010000D01*
G01*
X0352980Y0382408D02*
G03*
X0349980Y0392408I-0018167J0000000D01*
G01*
X0352980Y0519908D02*
G03*
X0347980Y0524908I-0005000J0000000D01*
G01*
X0127980D02*
G03*
X0122980Y0519908I0000000J-0005000D01*
G01*
X0349980Y0412408D02*
G03*
X0352980Y0422408I-0015167J0010000D01*
G01*
X0347980Y0224908D02*
G03*
X0352980Y0229908I0000000J0005000D01*
G01*
X0122980D02*
G03*
X0127980Y0224908I0005000J0000000D01*
G01*
X0152507Y0508058D02*
Y0524908D01*
Y0504121D02*
X0189515D01*
Y0508058D02*
Y0524908D01*
Y0508058D02*
Y0524908D01*
X0152507Y0504121D02*
X0189515D01*
X0152507Y0508108D02*
Y0524908D01*
X0127980D02*
X0152507D01*
X0352980Y0422408D02*
Y0519908D01*
X0127980Y0224908D02*
X0347980D01*
X0189515Y0524908D02*
X0347980Y0524908D01*
X0189515Y0524908D02*
X0347980Y0524908D01*
X0352980Y0422408D02*
Y0519908D01*
X0127980Y0524908D02*
X0152507D01*
X0352980Y0229908D02*
X0352980Y0382408D01*
X0122980Y0229908D02*
X0122980Y0519908D01*
G54D20*
X0133180Y0067359D02*
Y0073357D01*
X0135179Y0071358D01*
X0137178Y0073357D01*
Y0067359D01*
X0139178D02*
X0141177D01*
X0140177D01*
Y0073357D01*
X0139178Y0072357D01*
X0150174Y0073357D02*
Y0067359D01*
X0153173D01*
X0154173Y0068358D01*
Y0069358D01*
X0153173Y0070358D01*
X0150174D01*
X0153173D01*
X0154173Y0071358D01*
Y0072357D01*
X0153173Y0073357D01*
X0150174D01*
X0157172Y0067359D02*
X0159171D01*
X0160171Y0068358D01*
Y0070358D01*
X0159171Y0071358D01*
X0157172D01*
X0156172Y0070358D01*
Y0068358D01*
X0157172Y0067359D01*
X0163170Y0071358D02*
X0165169D01*
X0166169Y0070358D01*
Y0067359D01*
X0163170D01*
X0162170Y0068358D01*
X0163170Y0069358D01*
X0166169D01*
X0168168Y0071358D02*
Y0067359D01*
Y0069358D01*
X0169168Y0070358D01*
X0170168Y0071358D01*
X0171167D01*
X0178165Y0073357D02*
Y0067359D01*
X0175166D01*
X0174166Y0068358D01*
Y0070358D01*
X0175166Y0071358D01*
X0178165D01*
X0189162Y0073357D02*
X0187162D01*
X0186162Y0072357D01*
Y0068358D01*
X0187162Y0067359D01*
X0189162D01*
X0190161Y0068358D01*
Y0072357D01*
X0189162Y0073357D01*
X0192161Y0071358D02*
Y0068358D01*
X0193160Y0067359D01*
X0196159D01*
Y0071358D01*
X0199158Y0072357D02*
Y0071358D01*
X0198159D01*
X0200158D01*
X0199158D01*
Y0068358D01*
X0200158Y0067359D01*
X0203157D02*
X0205156D01*
X0204157D01*
Y0073357D01*
X0203157D01*
X0208155Y0067359D02*
X0210155D01*
X0209155D01*
Y0071358D01*
X0208155D01*
X0213154Y0067359D02*
Y0071358D01*
X0216153D01*
X0217153Y0070358D01*
Y0067359D01*
X0222151D02*
X0220151D01*
X0219152Y0068358D01*
Y0070358D01*
X0220151Y0071358D01*
X0222151D01*
X0223150Y0070358D01*
Y0069358D01*
X0219152D01*
X0567280Y0087441D02*
Y0093440D01*
X0571278Y0087441D01*
Y0093440D01*
X0574277Y0087441D02*
X0576277D01*
X0577276Y0088441D01*
Y0090440D01*
X0576277Y0091440D01*
X0574277D01*
X0573278Y0090440D01*
Y0088441D01*
X0574277Y0087441D01*
X0580275Y0092440D02*
Y0091440D01*
X0579276D01*
X0581275D01*
X0580275D01*
Y0088441D01*
X0581275Y0087441D01*
X0590272D02*
X0592272D01*
X0591272D01*
Y0091440D01*
X0590272D01*
X0595271Y0087441D02*
Y0091440D01*
X0598270D01*
X0599269Y0090440D01*
Y0087441D01*
X0607267Y0091440D02*
X0609266Y0087441D01*
X0611265Y0091440D01*
X0616264Y0087441D02*
X0614264D01*
X0613265Y0088441D01*
Y0090440D01*
X0614264Y0091440D01*
X0616264D01*
X0617264Y0090440D01*
Y0089441D01*
X0613265D01*
X0619263Y0091440D02*
Y0087441D01*
Y0089441D01*
X0620262Y0090440D01*
X0621262Y0091440D01*
X0622262D01*
X0625261Y0087441D02*
X0628260D01*
X0629260Y0088441D01*
X0628260Y0089441D01*
X0626261D01*
X0625261Y0090440D01*
X0626261Y0091440D01*
X0629260D01*
X0631259Y0087441D02*
X0633258D01*
X0632259D01*
Y0091440D01*
X0631259D01*
X0637257Y0087441D02*
X0639256D01*
X0640256Y0088441D01*
Y0090440D01*
X0639256Y0091440D01*
X0637257D01*
X0636257Y0090440D01*
Y0088441D01*
X0637257Y0087441D01*
X0642255D02*
Y0091440D01*
X0645254D01*
X0646254Y0090440D01*
Y0087441D01*
X0658250Y0091440D02*
X0655251D01*
X0654251Y0090440D01*
Y0088441D01*
X0655251Y0087441D01*
X0658250D01*
X0661249D02*
X0663249D01*
X0664248Y0088441D01*
Y0090440D01*
X0663249Y0091440D01*
X0661249D01*
X0660250Y0090440D01*
Y0088441D01*
X0661249Y0087441D01*
X0666248D02*
Y0091440D01*
X0669247D01*
X0670246Y0090440D01*
Y0087441D01*
X0673245Y0092440D02*
Y0091440D01*
X0672246D01*
X0674245D01*
X0673245D01*
Y0088441D01*
X0674245Y0087441D01*
X0677244Y0091440D02*
Y0087441D01*
Y0089441D01*
X0678244Y0090440D01*
X0679243Y0091440D01*
X0680243D01*
X0684242Y0087441D02*
X0686241D01*
X0687241Y0088441D01*
Y0090440D01*
X0686241Y0091440D01*
X0684242D01*
X0683242Y0090440D01*
Y0088441D01*
X0684242Y0087441D01*
X0689240D02*
X0691240D01*
X0690240D01*
Y0093440D01*
X0689240D01*
X0520678Y0092440D02*
X0519679Y0093440D01*
X0517679D01*
X0516680Y0092440D01*
Y0091440D01*
X0517679Y0090440D01*
X0519679D01*
X0520678Y0089441D01*
Y0088441D01*
X0519679Y0087441D01*
X0517679D01*
X0516680Y0088441D01*
X0522678Y0093440D02*
Y0089441D01*
X0524677Y0087441D01*
X0526676Y0089441D01*
Y0093440D01*
X0528676Y0087441D02*
Y0093440D01*
X0532675Y0087441D01*
Y0093440D01*
X0540672Y0087441D02*
Y0093440D01*
X0543671D01*
X0544671Y0092440D01*
Y0090440D01*
X0543671Y0089441D01*
X0540672D01*
X0542671D02*
X0544671Y0087441D01*
X0550669Y0093440D02*
X0546670D01*
Y0087441D01*
X0550669D01*
X0546670Y0090440D02*
X0548669D01*
X0552668Y0093440D02*
Y0089441D01*
X0554667Y0087441D01*
X0556667Y0089441D01*
Y0093440D01*
X0558666Y0091440D02*
X0559666D01*
Y0090440D01*
X0558666D01*
Y0091440D01*
Y0088441D02*
X0559666D01*
Y0087441D01*
X0558666D01*
Y0088441D01*
X0432880Y0087441D02*
Y0093440D01*
X0435879D01*
X0436878Y0092440D01*
Y0090440D01*
X0435879Y0089441D01*
X0432880D01*
X0434879D02*
X0436878Y0087441D01*
X0442876Y0093440D02*
X0438878D01*
Y0087441D01*
X0442876D01*
X0438878Y0090440D02*
X0440877D01*
X0444876Y0093440D02*
Y0089441D01*
X0446875Y0087441D01*
X0448875Y0089441D01*
Y0093440D01*
X0450874Y0091440D02*
X0451873D01*
Y0090440D01*
X0450874D01*
Y0091440D01*
Y0088441D02*
X0451873D01*
Y0087441D01*
X0450874D01*
Y0088441D01*
X0126780Y0046575D02*
Y0052573D01*
X0128779Y0050573D01*
X0130778Y0052573D01*
Y0046575D01*
X0136776Y0051573D02*
X0135777Y0052573D01*
X0133777D01*
X0132778Y0051573D01*
Y0047574D01*
X0133777Y0046575D01*
X0135777D01*
X0136776Y0047574D01*
X0138776Y0052573D02*
Y0047574D01*
X0139775Y0046575D01*
X0141775D01*
X0142774Y0047574D01*
Y0052573D01*
X0144774Y0046575D02*
X0146773D01*
X0145773D01*
Y0052573D01*
X0144774Y0051573D01*
X0153771Y0052573D02*
X0149772D01*
Y0049574D01*
X0151772Y0050573D01*
X0152771D01*
X0153771Y0049574D01*
Y0047574D01*
X0152771Y0046575D01*
X0150772D01*
X0149772Y0047574D01*
X0159769Y0046575D02*
X0155770D01*
X0159769Y0050573D01*
Y0051573D01*
X0158769Y0052573D01*
X0156770D01*
X0155770Y0051573D01*
X0161768Y0046575D02*
Y0050573D01*
X0163768Y0052573D01*
X0165767Y0050573D01*
Y0046575D01*
Y0049574D01*
X0161768D01*
X0167766Y0046575D02*
Y0047574D01*
X0168766D01*
Y0046575D01*
X0167766D01*
X0176763Y0051573D02*
X0175764Y0052573D01*
X0173764D01*
X0172765Y0051573D01*
Y0047574D01*
X0173764Y0046575D01*
X0175764D01*
X0176763Y0047574D01*
Y0049574D01*
X0174764D01*
X0178763Y0046575D02*
Y0052573D01*
X0180762Y0050573D01*
X0182762Y0052573D01*
Y0046575D01*
X0184761D02*
X0186760D01*
X0185761D01*
Y0052573D01*
X0184761Y0051573D01*
X0381030Y0052573D02*
X0385028D01*
Y0051573D01*
X0381030Y0047574D01*
Y0046575D01*
X0387028D02*
X0391026Y0050573D01*
X0397024Y0046575D02*
X0393026D01*
X0397024Y0050573D01*
Y0051573D01*
X0396025Y0052573D01*
X0394025D01*
X0393026Y0051573D01*
X0399024Y0046575D02*
X0401023D01*
X0400024D01*
Y0052573D01*
X0399024Y0051573D01*
X0404022Y0046575D02*
X0408021Y0050573D01*
X0414019Y0046575D02*
X0410020D01*
X0414019Y0050573D01*
Y0051573D01*
X0413019Y0052573D01*
X0411020D01*
X0410020Y0051573D01*
X0416018D02*
X0417018Y0052573D01*
X0419017D01*
X0420017Y0051573D01*
Y0047574D01*
X0419017Y0046575D01*
X0417018D01*
X0416018Y0047574D01*
Y0051573D01*
X0426015Y0046575D02*
X0422016D01*
X0426015Y0050573D01*
Y0051573D01*
X0425015Y0052573D01*
X0423016D01*
X0422016Y0051573D01*
X0432013Y0052573D02*
X0428014D01*
Y0049574D01*
X0430014Y0050573D01*
X0431013D01*
X0432013Y0049574D01*
Y0047574D01*
X0431013Y0046575D01*
X0429014D01*
X0428014Y0047574D01*
X0298078Y0051573D02*
X0297079Y0052573D01*
X0295079D01*
X0294080Y0051573D01*
Y0047574D01*
X0295079Y0046575D01*
X0297079D01*
X0298078Y0047574D01*
Y0049574D01*
X0296079D01*
X0304076Y0052573D02*
X0300078D01*
Y0046575D01*
X0304076D01*
X0300078Y0049574D02*
X0302077D01*
X0306076Y0046575D02*
Y0052573D01*
X0310074Y0046575D01*
Y0052573D01*
X0316073D02*
X0312074D01*
Y0046575D01*
X0316073D01*
X0312074Y0049574D02*
X0314073D01*
X0318072Y0046575D02*
Y0052573D01*
X0321071D01*
X0322071Y0051573D01*
Y0049574D01*
X0321071Y0048574D01*
X0318072D01*
X0320071D02*
X0322071Y0046575D01*
X0324070D02*
Y0050573D01*
X0326069Y0052573D01*
X0328069Y0050573D01*
Y0046575D01*
Y0049574D01*
X0324070D01*
X0330068Y0052573D02*
X0334067D01*
X0332067D01*
Y0046575D01*
X0340065Y0052573D02*
X0336066D01*
Y0046575D01*
X0340065D01*
X0336066Y0049574D02*
X0338065D01*
X0342064Y0052573D02*
Y0046575D01*
X0345063D01*
X0346063Y0047574D01*
Y0051573D01*
X0345063Y0052573D01*
X0342064D01*
X0372054Y0050573D02*
X0373054D01*
Y0049574D01*
X0372054D01*
Y0050573D01*
Y0047574D02*
X0373054D01*
Y0046575D01*
X0372054D01*
Y0047574D01*
X0046230Y0087441D02*
Y0091440D01*
X0048229Y0093440D01*
X0050228Y0091440D01*
Y0087441D01*
Y0090440D01*
X0046230D01*
X0052228Y0093440D02*
Y0087441D01*
X0056226D01*
X0058226Y0093440D02*
Y0087441D01*
X0062225D01*
X0070222D02*
Y0091440D01*
X0072221Y0093440D01*
X0074221Y0091440D01*
Y0087441D01*
Y0090440D01*
X0070222D01*
X0076220Y0087441D02*
Y0093440D01*
X0079219D01*
X0080219Y0092440D01*
Y0090440D01*
X0079219Y0089441D01*
X0076220D01*
X0078219D02*
X0080219Y0087441D01*
X0082218Y0093440D02*
X0086217D01*
X0084217D01*
Y0087441D01*
X0088216Y0093440D02*
Y0087441D01*
X0090215Y0089441D01*
X0092215Y0087441D01*
Y0093440D01*
X0097213D02*
X0095214D01*
X0094214Y0092440D01*
Y0088441D01*
X0095214Y0087441D01*
X0097213D01*
X0098213Y0088441D01*
Y0092440D01*
X0097213Y0093440D01*
X0100212Y0087441D02*
Y0093440D01*
X0103211D01*
X0104211Y0092440D01*
Y0090440D01*
X0103211Y0089441D01*
X0100212D01*
X0102211D02*
X0104211Y0087441D01*
X0106210Y0093440D02*
Y0087441D01*
Y0089441D01*
X0110209Y0093440D01*
X0107210Y0090440D01*
X0110209Y0087441D01*
X0118206Y0093440D02*
Y0089441D01*
X0120206Y0087441D01*
X0122205Y0089441D01*
Y0093440D01*
X0124204D02*
X0126204D01*
X0125204D01*
Y0087441D01*
X0124204D01*
X0126204D01*
X0133202Y0093440D02*
X0129203D01*
Y0087441D01*
X0133202D01*
X0129203Y0090440D02*
X0131202D01*
X0135201Y0093440D02*
Y0087441D01*
X0137200Y0089441D01*
X0139200Y0087441D01*
Y0093440D01*
X0145198D02*
X0141199D01*
Y0087441D01*
X0145198D01*
X0141199Y0090440D02*
X0143198D01*
X0147197Y0093440D02*
Y0087441D01*
X0150196D01*
X0151196Y0088441D01*
Y0092440D01*
X0150196Y0093440D01*
X0147197D01*
X0163192D02*
X0159193D01*
Y0090440D01*
X0161193D01*
X0159193D01*
Y0087441D01*
X0165191D02*
Y0093440D01*
X0168190D01*
X0169190Y0092440D01*
Y0090440D01*
X0168190Y0089441D01*
X0165191D01*
X0167191D02*
X0169190Y0087441D01*
X0174188Y0093440D02*
X0172189D01*
X0171189Y0092440D01*
Y0088441D01*
X0172189Y0087441D01*
X0174188D01*
X0175188Y0088441D01*
Y0092440D01*
X0174188Y0093440D01*
X0177187Y0087441D02*
Y0093440D01*
X0179187Y0091440D01*
X0181186Y0093440D01*
Y0087441D01*
X0189183Y0093440D02*
X0193182D01*
X0191183D01*
Y0087441D01*
X0198180Y0093440D02*
X0196181D01*
X0195182Y0092440D01*
Y0088441D01*
X0196181Y0087441D01*
X0198180D01*
X0199180Y0088441D01*
Y0092440D01*
X0198180Y0093440D01*
X0201180Y0087441D02*
Y0093440D01*
X0204179D01*
X0205178Y0092440D01*
Y0090440D01*
X0204179Y0089441D01*
X0201180D01*
X0217174Y0092440D02*
X0216175Y0093440D01*
X0214175D01*
X0213176Y0092440D01*
Y0091440D01*
X0214175Y0090440D01*
X0216175D01*
X0217174Y0089441D01*
Y0088441D01*
X0216175Y0087441D01*
X0214175D01*
X0213176Y0088441D01*
X0219174Y0093440D02*
X0221173D01*
X0220173D01*
Y0087441D01*
X0219174D01*
X0221173D01*
X0224172Y0093440D02*
Y0087441D01*
X0227171D01*
X0228171Y0088441D01*
Y0092440D01*
X0227171Y0093440D01*
X0224172D01*
X0234169D02*
X0230170D01*
Y0087441D01*
X0234169D01*
X0230170Y0090440D02*
X0232170D01*
X0462030Y0087441D02*
Y0091440D01*
X0464029Y0093440D01*
X0466028Y0091440D01*
Y0087441D01*
Y0090440D01*
X0462030D01*
X0348430Y0087441D02*
Y0093440D01*
X0350429Y0091440D01*
X0352428Y0093440D01*
Y0087441D01*
X0358426Y0092440D02*
X0357427Y0093440D01*
X0355427D01*
X0354428Y0092440D01*
Y0088441D01*
X0355427Y0087441D01*
X0357427D01*
X0358426Y0088441D01*
X0360426Y0093440D02*
Y0088441D01*
X0361425Y0087441D01*
X0363425D01*
X0364424Y0088441D01*
Y0093440D01*
X0366424Y0087441D02*
X0368423D01*
X0367424D01*
Y0093440D01*
X0366424Y0092440D01*
X0375421Y0093440D02*
X0371422D01*
Y0090440D01*
X0373422Y0091440D01*
X0374421D01*
X0375421Y0090440D01*
Y0088441D01*
X0374421Y0087441D01*
X0372422D01*
X0371422Y0088441D01*
X0381419Y0087441D02*
X0377420D01*
X0381419Y0091440D01*
Y0092440D01*
X0380419Y0093440D01*
X0378420D01*
X0377420Y0092440D01*
X0293880Y0093440D02*
Y0087441D01*
X0296879D01*
X0297878Y0088441D01*
Y0089441D01*
X0296879Y0090440D01*
X0293880D01*
X0296879D01*
X0297878Y0091440D01*
Y0092440D01*
X0296879Y0093440D01*
X0293880D01*
X0302877D02*
X0300877D01*
X0299878Y0092440D01*
Y0088441D01*
X0300877Y0087441D01*
X0302877D01*
X0303876Y0088441D01*
Y0092440D01*
X0302877Y0093440D01*
X0305876Y0087441D02*
Y0091440D01*
X0307875Y0093440D01*
X0309875Y0091440D01*
Y0087441D01*
Y0090440D01*
X0305876D01*
X0311874Y0087441D02*
Y0093440D01*
X0314873D01*
X0315873Y0092440D01*
Y0090440D01*
X0314873Y0089441D01*
X0311874D01*
X0313873D02*
X0315873Y0087441D01*
X0317872Y0093440D02*
Y0087441D01*
X0320871D01*
X0321871Y0088441D01*
Y0092440D01*
X0320871Y0093440D01*
X0317872D01*
X0330868Y0087441D02*
Y0093440D01*
X0332867D02*
Y0087441D01*
X0329868Y0091440D02*
X0332867D01*
X0333867D01*
X0329868Y0089441D02*
X0333867D01*
X0335866Y0091440D02*
X0336866D01*
Y0090440D01*
X0335866D01*
Y0091440D01*
Y0088441D02*
X0336866D01*
Y0087441D01*
X0335866D01*
Y0088441D01*
X0046230Y0073157D02*
Y0067159D01*
X0050228D01*
X0052228D02*
Y0071157D01*
X0054227Y0073157D01*
X0056226Y0071157D01*
Y0067159D01*
Y0070158D01*
X0052228D01*
X0058226Y0073157D02*
Y0072157D01*
X0060225Y0070158D01*
X0062225Y0072157D01*
Y0073157D01*
X0060225Y0070158D02*
Y0067159D01*
X0068222Y0073157D02*
X0064224D01*
Y0067159D01*
X0068222D01*
X0064224Y0070158D02*
X0066223D01*
X0070222Y0067159D02*
Y0073157D01*
X0073221D01*
X0074221Y0072157D01*
Y0070158D01*
X0073221Y0069158D01*
X0070222D01*
X0072221D02*
X0074221Y0067159D01*
X0082218D02*
Y0073157D01*
X0086217Y0067159D01*
Y0073157D01*
X0088216Y0067159D02*
Y0071157D01*
X0090215Y0073157D01*
X0092215Y0071157D01*
Y0067159D01*
Y0070158D01*
X0088216D01*
X0094214Y0067159D02*
Y0073157D01*
X0096214Y0071157D01*
X0098213Y0073157D01*
Y0067159D01*
X0104211Y0073157D02*
X0100212D01*
Y0067159D01*
X0104211D01*
X0100212Y0070158D02*
X0102211D01*
X0112208Y0069158D02*
X0116207D01*
X0112208Y0071157D02*
X0116207D01*
X0046230Y0046575D02*
Y0052573D01*
X0049229D01*
X0050228Y0051573D01*
Y0049574D01*
X0049229Y0048574D01*
X0046230D01*
X0052228Y0052573D02*
Y0046575D01*
X0056226D01*
X0061225Y0052573D02*
X0059225D01*
X0058226Y0051573D01*
Y0047574D01*
X0059225Y0046575D01*
X0061225D01*
X0062225Y0047574D01*
Y0051573D01*
X0061225Y0052573D01*
X0064224D02*
X0068222D01*
X0066223D01*
Y0046575D01*
X0076220D02*
Y0052573D01*
X0080219Y0046575D01*
Y0052573D01*
X0082218Y0046575D02*
Y0050573D01*
X0084217Y0052573D01*
X0086217Y0050573D01*
Y0046575D01*
Y0049574D01*
X0082218D01*
X0088216Y0046575D02*
Y0052573D01*
X0090215Y0050573D01*
X0092215Y0052573D01*
Y0046575D01*
X0098213Y0052573D02*
X0094214D01*
Y0046575D01*
X0098213D01*
X0094214Y0049574D02*
X0096214D01*
X0106210Y0048574D02*
X0110209D01*
X0106210Y0050573D02*
X0110209D01*
X0456929Y0046575D02*
Y0052573D01*
X0453930Y0049574D01*
X0457928D01*
X0459928Y0050573D02*
X0460927D01*
Y0049574D01*
X0459928D01*
Y0050573D01*
Y0047574D02*
X0460927D01*
Y0046575D01*
X0459928D01*
Y0047574D01*
X0464926Y0051573D02*
X0465926Y0052573D01*
X0467925D01*
X0468925Y0051573D01*
Y0050573D01*
X0467925Y0049574D01*
X0466925D01*
X0467925D01*
X0468925Y0048574D01*
Y0047574D01*
X0467925Y0046575D01*
X0465926D01*
X0464926Y0047574D01*
X0470924Y0051573D02*
X0471924Y0052573D01*
X0473923D01*
X0474923Y0051573D01*
Y0047574D01*
X0473923Y0046575D01*
X0471924D01*
X0470924Y0047574D01*
Y0051573D01*
X0476922Y0050573D02*
X0477922D01*
Y0049574D01*
X0476922D01*
Y0050573D01*
Y0047574D02*
X0477922D01*
Y0046575D01*
X0476922D01*
Y0047574D01*
X0485919Y0052573D02*
X0481921D01*
Y0049574D01*
X0483920Y0050573D01*
X0484920D01*
X0485919Y0049574D01*
Y0047574D01*
X0484920Y0046575D01*
X0482920D01*
X0481921Y0047574D01*
X0487919Y0052573D02*
X0491917D01*
Y0051573D01*
X0487919Y0047574D01*
Y0046575D01*
X0499915D02*
Y0052573D01*
X0502914D01*
X0503913Y0051573D01*
Y0049574D01*
X0502914Y0048574D01*
X0499915D01*
X0505913Y0046575D02*
Y0052573D01*
X0507912Y0050573D01*
X0509911Y0052573D01*
Y0046575D01*
X0580380Y0052573D02*
X0584378D01*
X0582379D01*
Y0046575D01*
X0590376Y0052573D02*
X0586378D01*
Y0046575D01*
X0590376D01*
X0586378Y0049574D02*
X0588377D01*
X0592376Y0052573D02*
X0596375Y0046575D01*
Y0052573D02*
X0592376Y0046575D01*
X0598374D02*
Y0050573D01*
X0600373Y0052573D01*
X0602373Y0050573D01*
Y0046575D01*
Y0049574D01*
X0598374D01*
X0608371Y0051573D02*
X0607371Y0052573D01*
X0605372D01*
X0604372Y0051573D01*
Y0050573D01*
X0605372Y0049574D01*
X0607371D01*
X0608371Y0048574D01*
Y0047574D01*
X0607371Y0046575D01*
X0605372D01*
X0604372Y0047574D01*
X0616368Y0052573D02*
X0618367D01*
X0617368D01*
Y0046575D01*
X0616368D01*
X0618367D01*
X0621366D02*
Y0052573D01*
X0625365Y0046575D01*
Y0052573D01*
X0631363Y0051573D02*
X0630364Y0052573D01*
X0628364D01*
X0627364Y0051573D01*
Y0050573D01*
X0628364Y0049574D01*
X0630364D01*
X0631363Y0048574D01*
Y0047574D01*
X0630364Y0046575D01*
X0628364D01*
X0627364Y0047574D01*
X0633362Y0052573D02*
X0637361D01*
X0635362D01*
Y0046575D01*
X0639361D02*
Y0052573D01*
X0642360D01*
X0643359Y0051573D01*
Y0049574D01*
X0642360Y0048574D01*
X0639361D01*
X0641360D02*
X0643359Y0046575D01*
X0645359Y0052573D02*
Y0047574D01*
X0646358Y0046575D01*
X0648358D01*
X0649357Y0047574D01*
Y0052573D01*
X0651357Y0046575D02*
Y0052573D01*
X0653356Y0050573D01*
X0655355Y0052573D01*
Y0046575D01*
X0661353Y0052573D02*
X0657355D01*
Y0046575D01*
X0661353D01*
X0657355Y0049574D02*
X0659354D01*
X0663353Y0046575D02*
Y0052573D01*
X0667351Y0046575D01*
Y0052573D01*
X0669351D02*
X0673350D01*
X0671350D01*
Y0046575D01*
X0679348Y0051573D02*
X0678348Y0052573D01*
X0676349D01*
X0675349Y0051573D01*
Y0050573D01*
X0676349Y0049574D01*
X0678348D01*
X0679348Y0048574D01*
Y0047574D01*
X0678348Y0046575D01*
X0676349D01*
X0675349Y0047574D01*
X0293880Y0073106D02*
X0297878D01*
X0295879D01*
Y0067108D01*
X0299878Y0073106D02*
X0301877D01*
X0300877D01*
Y0067108D01*
X0299878D01*
X0301877D01*
X0304876Y0073106D02*
Y0067108D01*
X0307875D01*
X0308875Y0068108D01*
Y0072106D01*
X0307875Y0073106D01*
X0304876D01*
X0317872Y0067108D02*
Y0073106D01*
X0319871D02*
Y0067108D01*
X0316872Y0071107D02*
X0319871D01*
X0320871D01*
X0316872Y0069108D02*
X0320871D01*
X0322870Y0071107D02*
X0323870D01*
Y0070107D01*
X0322870D01*
Y0071107D01*
Y0068108D02*
X0323870D01*
Y0067108D01*
X0322870D01*
Y0068108D01*
X0348430Y0067108D02*
Y0068108D01*
X0349429D01*
Y0067108D01*
X0348430D01*
X0353428Y0073106D02*
X0357427D01*
X0355427D01*
Y0067108D01*
X0359426Y0073106D02*
X0361425D01*
X0360426D01*
Y0067108D01*
X0359426D01*
X0361425D01*
X0364424Y0073106D02*
Y0067108D01*
X0367424D01*
X0368423Y0068108D01*
Y0072106D01*
X0367424Y0073106D01*
X0364424D01*
X0127080Y0067008D02*
Y0073006D01*
X0129079Y0071007D01*
X0131078Y0073006D01*
Y0067008D01*
X0133078D02*
X0135077D01*
X0134077D01*
Y0073006D01*
X0133078Y0072006D01*
X0138076Y0067008D02*
X0140075D01*
X0139076D01*
Y0073006D01*
X0138076Y0072006D01*
X0153071D02*
X0152072Y0073006D01*
X0150072D01*
X0149073Y0072006D01*
Y0068008D01*
X0150072Y0067008D01*
X0152072D01*
X0153071Y0068008D01*
Y0070007D01*
X0151072D01*
X0158070Y0067008D02*
X0156070D01*
X0155071Y0068008D01*
Y0070007D01*
X0156070Y0071007D01*
X0158070D01*
X0159069Y0070007D01*
Y0069007D01*
X0155071D01*
X0161069Y0071007D02*
Y0067008D01*
Y0069007D01*
X0162068Y0070007D01*
X0163068Y0071007D01*
X0164068D01*
X0167067Y0073006D02*
Y0067008D01*
X0170066D01*
X0171065Y0068008D01*
Y0069007D01*
Y0070007D01*
X0170066Y0071007D01*
X0167067D01*
X0176064Y0067008D02*
X0174064D01*
X0173065Y0068008D01*
Y0070007D01*
X0174064Y0071007D01*
X0176064D01*
X0177064Y0070007D01*
Y0069007D01*
X0173065D01*
X0179063Y0071007D02*
Y0067008D01*
Y0069007D01*
X0180062Y0070007D01*
X0181062Y0071007D01*
X0182062D01*
X0191059Y0073006D02*
X0193058D01*
X0192059D01*
Y0067008D01*
X0191059D01*
X0193058D01*
X0196057D02*
Y0071007D01*
X0199056D01*
X0200056Y0070007D01*
Y0067008D01*
X0203055D02*
Y0072006D01*
Y0070007D01*
X0202055D01*
X0204055D01*
X0203055D01*
Y0072006D01*
X0204055Y0073006D01*
X0208053Y0067008D02*
X0210053D01*
X0211052Y0068008D01*
Y0070007D01*
X0210053Y0071007D01*
X0208053D01*
X0207054Y0070007D01*
Y0068008D01*
X0208053Y0067008D01*
X0213052Y0071007D02*
Y0067008D01*
Y0069007D01*
X0214052Y0070007D01*
X0215051Y0071007D01*
X0216051D01*
X0219050Y0067008D02*
Y0071007D01*
X0220050D01*
X0221049Y0070007D01*
Y0067008D01*
Y0070007D01*
X0222049Y0071007D01*
X0223049Y0070007D01*
Y0067008D01*
X0226048Y0071007D02*
X0228047D01*
X0229047Y0070007D01*
Y0067008D01*
X0226048D01*
X0225048Y0068008D01*
X0226048Y0069007D01*
X0229047D01*
X0232046Y0072006D02*
Y0071007D01*
X0231046D01*
X0233045D01*
X0232046D01*
Y0068008D01*
X0233045Y0067008D01*
X0236044D02*
X0238044D01*
X0237044D01*
Y0071007D01*
X0236044D01*
X0242042Y0067008D02*
X0244042D01*
X0245041Y0068008D01*
Y0070007D01*
X0244042Y0071007D01*
X0242042D01*
X0241043Y0070007D01*
Y0068008D01*
X0242042Y0067008D01*
X0247041D02*
Y0071007D01*
X0250040D01*
X0251040Y0070007D01*
Y0067008D01*
G54D31*
X0497080Y0080325D02*
Y0100658D01*
X0413080Y0080325D02*
Y0100658D01*
X0039880Y0080325D02*
X0700080D01*
X0039880Y0059992D02*
X0699880D01*
X0039880Y0039658D02*
X0440380D01*
X0039930Y0100658D02*
X0700080D01*
X0039930Y0039658D02*
Y0100658D01*
Y0039658D02*
X0197480D01*
X0039880D02*
Y0100658D01*
X0286380Y0039658D02*
Y0100658D01*
X0700080Y0039658D02*
Y0100658D01*
X0440380Y0039658D02*
X0700080D01*
X0559280Y0039008D02*
Y0059292D01*
M02*
