G04*
G04 #@! TF.GenerationSoftware,Altium Limited,Altium Designer,23.1.1 (15)*
G04*
G04 Layer_Color=128*
%FSAX25Y25*%
%MOIN*%
G70*
G04*
G04 #@! TF.SameCoordinates,3BE6CC82-2BF3-4767-8D6A-7EFB0FF24752*
G04*
G04*
G04 #@! TF.FilePolarity,Positive*
G04*
G01*
G75*
%ADD20C,0.00800*%
%ADD31C,0.01000*%
%ADD154C,0.00200*%
G54D20*
X0567280Y0087441D02*
Y0093440D01*
X0571278Y0087441D01*
Y0093440D01*
X0574277Y0087441D02*
X0576277D01*
X0577276Y0088441D01*
Y0090440D01*
X0576277Y0091440D01*
X0574277D01*
X0573278Y0090440D01*
Y0088441D01*
X0574277Y0087441D01*
X0580275Y0092440D02*
Y0091440D01*
X0579276D01*
X0581275D01*
X0580275D01*
Y0088441D01*
X0581275Y0087441D01*
X0590272D02*
X0592272D01*
X0591272D01*
Y0091440D01*
X0590272D01*
X0595271Y0087441D02*
Y0091440D01*
X0598270D01*
X0599269Y0090440D01*
Y0087441D01*
X0607267Y0091440D02*
X0609266Y0087441D01*
X0611265Y0091440D01*
X0616264Y0087441D02*
X0614264D01*
X0613265Y0088441D01*
Y0090440D01*
X0614264Y0091440D01*
X0616264D01*
X0617264Y0090440D01*
Y0089441D01*
X0613265D01*
X0619263Y0091440D02*
Y0087441D01*
Y0089441D01*
X0620262Y0090440D01*
X0621262Y0091440D01*
X0622262D01*
X0625261Y0087441D02*
X0628260D01*
X0629260Y0088441D01*
X0628260Y0089441D01*
X0626261D01*
X0625261Y0090440D01*
X0626261Y0091440D01*
X0629260D01*
X0631259Y0087441D02*
X0633258D01*
X0632259D01*
Y0091440D01*
X0631259D01*
X0637257Y0087441D02*
X0639256D01*
X0640256Y0088441D01*
Y0090440D01*
X0639256Y0091440D01*
X0637257D01*
X0636257Y0090440D01*
Y0088441D01*
X0637257Y0087441D01*
X0642255D02*
Y0091440D01*
X0645254D01*
X0646254Y0090440D01*
Y0087441D01*
X0658250Y0091440D02*
X0655251D01*
X0654251Y0090440D01*
Y0088441D01*
X0655251Y0087441D01*
X0658250D01*
X0661249D02*
X0663249D01*
X0664248Y0088441D01*
Y0090440D01*
X0663249Y0091440D01*
X0661249D01*
X0660250Y0090440D01*
Y0088441D01*
X0661249Y0087441D01*
X0666248D02*
Y0091440D01*
X0669247D01*
X0670246Y0090440D01*
Y0087441D01*
X0673245Y0092440D02*
Y0091440D01*
X0672246D01*
X0674245D01*
X0673245D01*
Y0088441D01*
X0674245Y0087441D01*
X0677244Y0091440D02*
Y0087441D01*
Y0089441D01*
X0678244Y0090440D01*
X0679243Y0091440D01*
X0680243D01*
X0684242Y0087441D02*
X0686241D01*
X0687241Y0088441D01*
Y0090440D01*
X0686241Y0091440D01*
X0684242D01*
X0683242Y0090440D01*
Y0088441D01*
X0684242Y0087441D01*
X0689240D02*
X0691240D01*
X0690240D01*
Y0093440D01*
X0689240D01*
X0520678Y0092440D02*
X0519679Y0093440D01*
X0517679D01*
X0516680Y0092440D01*
Y0091440D01*
X0517679Y0090440D01*
X0519679D01*
X0520678Y0089441D01*
Y0088441D01*
X0519679Y0087441D01*
X0517679D01*
X0516680Y0088441D01*
X0522678Y0093440D02*
Y0089441D01*
X0524677Y0087441D01*
X0526676Y0089441D01*
Y0093440D01*
X0528676Y0087441D02*
Y0093440D01*
X0532675Y0087441D01*
Y0093440D01*
X0540672Y0087441D02*
Y0093440D01*
X0543671D01*
X0544671Y0092440D01*
Y0090440D01*
X0543671Y0089441D01*
X0540672D01*
X0542671D02*
X0544671Y0087441D01*
X0550669Y0093440D02*
X0546670D01*
Y0087441D01*
X0550669D01*
X0546670Y0090440D02*
X0548669D01*
X0552668Y0093440D02*
Y0089441D01*
X0554667Y0087441D01*
X0556667Y0089441D01*
Y0093440D01*
X0558666Y0091440D02*
X0559666D01*
Y0090440D01*
X0558666D01*
Y0091440D01*
Y0088441D02*
X0559666D01*
Y0087441D01*
X0558666D01*
Y0088441D01*
X0432880Y0087441D02*
Y0093440D01*
X0435879D01*
X0436878Y0092440D01*
Y0090440D01*
X0435879Y0089441D01*
X0432880D01*
X0434879D02*
X0436878Y0087441D01*
X0442876Y0093440D02*
X0438878D01*
Y0087441D01*
X0442876D01*
X0438878Y0090440D02*
X0440877D01*
X0444876Y0093440D02*
Y0089441D01*
X0446875Y0087441D01*
X0448875Y0089441D01*
Y0093440D01*
X0450874Y0091440D02*
X0451873D01*
Y0090440D01*
X0450874D01*
Y0091440D01*
Y0088441D02*
X0451873D01*
Y0087441D01*
X0450874D01*
Y0088441D01*
X0126780Y0046575D02*
Y0052573D01*
X0128779Y0050573D01*
X0130778Y0052573D01*
Y0046575D01*
X0136776Y0051573D02*
X0135777Y0052573D01*
X0133777D01*
X0132778Y0051573D01*
Y0047574D01*
X0133777Y0046575D01*
X0135777D01*
X0136776Y0047574D01*
X0138776Y0052573D02*
Y0047574D01*
X0139775Y0046575D01*
X0141775D01*
X0142774Y0047574D01*
Y0052573D01*
X0144774Y0046575D02*
X0146773D01*
X0145773D01*
Y0052573D01*
X0144774Y0051573D01*
X0153771Y0052573D02*
X0149772D01*
Y0049574D01*
X0151772Y0050573D01*
X0152771D01*
X0153771Y0049574D01*
Y0047574D01*
X0152771Y0046575D01*
X0150772D01*
X0149772Y0047574D01*
X0159769Y0046575D02*
X0155770D01*
X0159769Y0050573D01*
Y0051573D01*
X0158769Y0052573D01*
X0156770D01*
X0155770Y0051573D01*
X0161768Y0046575D02*
Y0050573D01*
X0163768Y0052573D01*
X0165767Y0050573D01*
Y0046575D01*
Y0049574D01*
X0161768D01*
X0167766Y0046575D02*
Y0047574D01*
X0168766D01*
Y0046575D01*
X0167766D01*
X0176763Y0051573D02*
X0175764Y0052573D01*
X0173764D01*
X0172765Y0051573D01*
Y0047574D01*
X0173764Y0046575D01*
X0175764D01*
X0176763Y0047574D01*
Y0049574D01*
X0174764D01*
X0182762Y0051573D02*
X0181762Y0052573D01*
X0179762D01*
X0178763Y0051573D01*
Y0047574D01*
X0179762Y0046575D01*
X0181762D01*
X0182762Y0047574D01*
Y0049574D01*
X0180762D01*
X0184761Y0046575D02*
X0186760D01*
X0185761D01*
Y0052573D01*
X0184761Y0051573D01*
X0381030Y0052573D02*
X0385028D01*
Y0051573D01*
X0381030Y0047574D01*
Y0046575D01*
X0387028D02*
X0391026Y0050573D01*
X0397024Y0046575D02*
X0393026D01*
X0397024Y0050573D01*
Y0051573D01*
X0396025Y0052573D01*
X0394025D01*
X0393026Y0051573D01*
X0399024Y0046575D02*
X0401023D01*
X0400024D01*
Y0052573D01*
X0399024Y0051573D01*
X0404022Y0046575D02*
X0408021Y0050573D01*
X0414019Y0046575D02*
X0410020D01*
X0414019Y0050573D01*
Y0051573D01*
X0413019Y0052573D01*
X0411020D01*
X0410020Y0051573D01*
X0416018D02*
X0417018Y0052573D01*
X0419017D01*
X0420017Y0051573D01*
Y0047574D01*
X0419017Y0046575D01*
X0417018D01*
X0416018Y0047574D01*
Y0051573D01*
X0426015Y0046575D02*
X0422016D01*
X0426015Y0050573D01*
Y0051573D01*
X0425015Y0052573D01*
X0423016D01*
X0422016Y0051573D01*
X0432013Y0052573D02*
X0428014D01*
Y0049574D01*
X0430014Y0050573D01*
X0431013D01*
X0432013Y0049574D01*
Y0047574D01*
X0431013Y0046575D01*
X0429014D01*
X0428014Y0047574D01*
X0298078Y0051573D02*
X0297079Y0052573D01*
X0295079D01*
X0294080Y0051573D01*
Y0047574D01*
X0295079Y0046575D01*
X0297079D01*
X0298078Y0047574D01*
Y0049574D01*
X0296079D01*
X0304076Y0052573D02*
X0300078D01*
Y0046575D01*
X0304076D01*
X0300078Y0049574D02*
X0302077D01*
X0306076Y0046575D02*
Y0052573D01*
X0310074Y0046575D01*
Y0052573D01*
X0316073D02*
X0312074D01*
Y0046575D01*
X0316073D01*
X0312074Y0049574D02*
X0314073D01*
X0318072Y0046575D02*
Y0052573D01*
X0321071D01*
X0322071Y0051573D01*
Y0049574D01*
X0321071Y0048574D01*
X0318072D01*
X0320071D02*
X0322071Y0046575D01*
X0324070D02*
Y0050573D01*
X0326069Y0052573D01*
X0328069Y0050573D01*
Y0046575D01*
Y0049574D01*
X0324070D01*
X0330068Y0052573D02*
X0334067D01*
X0332067D01*
Y0046575D01*
X0340065Y0052573D02*
X0336066D01*
Y0046575D01*
X0340065D01*
X0336066Y0049574D02*
X0338065D01*
X0342064Y0052573D02*
Y0046575D01*
X0345063D01*
X0346063Y0047574D01*
Y0051573D01*
X0345063Y0052573D01*
X0342064D01*
X0372054Y0050573D02*
X0373054D01*
Y0049574D01*
X0372054D01*
Y0050573D01*
Y0047574D02*
X0373054D01*
Y0046575D01*
X0372054D01*
Y0047574D01*
X0046230Y0087441D02*
Y0091440D01*
X0048229Y0093440D01*
X0050228Y0091440D01*
Y0087441D01*
Y0090440D01*
X0046230D01*
X0052228Y0093440D02*
Y0087441D01*
X0056226D01*
X0058226Y0093440D02*
Y0087441D01*
X0062225D01*
X0070222D02*
Y0091440D01*
X0072221Y0093440D01*
X0074221Y0091440D01*
Y0087441D01*
Y0090440D01*
X0070222D01*
X0076220Y0087441D02*
Y0093440D01*
X0079219D01*
X0080219Y0092440D01*
Y0090440D01*
X0079219Y0089441D01*
X0076220D01*
X0078219D02*
X0080219Y0087441D01*
X0082218Y0093440D02*
X0086217D01*
X0084217D01*
Y0087441D01*
X0088216Y0093440D02*
Y0087441D01*
X0090215Y0089441D01*
X0092215Y0087441D01*
Y0093440D01*
X0097213D02*
X0095214D01*
X0094214Y0092440D01*
Y0088441D01*
X0095214Y0087441D01*
X0097213D01*
X0098213Y0088441D01*
Y0092440D01*
X0097213Y0093440D01*
X0100212Y0087441D02*
Y0093440D01*
X0103211D01*
X0104211Y0092440D01*
Y0090440D01*
X0103211Y0089441D01*
X0100212D01*
X0102211D02*
X0104211Y0087441D01*
X0106210Y0093440D02*
Y0087441D01*
Y0089441D01*
X0110209Y0093440D01*
X0107210Y0090440D01*
X0110209Y0087441D01*
X0118206Y0093440D02*
Y0089441D01*
X0120206Y0087441D01*
X0122205Y0089441D01*
Y0093440D01*
X0124204D02*
X0126204D01*
X0125204D01*
Y0087441D01*
X0124204D01*
X0126204D01*
X0133202Y0093440D02*
X0129203D01*
Y0087441D01*
X0133202D01*
X0129203Y0090440D02*
X0131202D01*
X0135201Y0093440D02*
Y0087441D01*
X0137200Y0089441D01*
X0139200Y0087441D01*
Y0093440D01*
X0145198D02*
X0141199D01*
Y0087441D01*
X0145198D01*
X0141199Y0090440D02*
X0143198D01*
X0147197Y0093440D02*
Y0087441D01*
X0150196D01*
X0151196Y0088441D01*
Y0092440D01*
X0150196Y0093440D01*
X0147197D01*
X0163192D02*
X0159193D01*
Y0090440D01*
X0161193D01*
X0159193D01*
Y0087441D01*
X0165191D02*
Y0093440D01*
X0168190D01*
X0169190Y0092440D01*
Y0090440D01*
X0168190Y0089441D01*
X0165191D01*
X0167191D02*
X0169190Y0087441D01*
X0174188Y0093440D02*
X0172189D01*
X0171189Y0092440D01*
Y0088441D01*
X0172189Y0087441D01*
X0174188D01*
X0175188Y0088441D01*
Y0092440D01*
X0174188Y0093440D01*
X0177187Y0087441D02*
Y0093440D01*
X0179187Y0091440D01*
X0181186Y0093440D01*
Y0087441D01*
X0189183Y0093440D02*
X0193182D01*
X0191183D01*
Y0087441D01*
X0198180Y0093440D02*
X0196181D01*
X0195182Y0092440D01*
Y0088441D01*
X0196181Y0087441D01*
X0198180D01*
X0199180Y0088441D01*
Y0092440D01*
X0198180Y0093440D01*
X0201180Y0087441D02*
Y0093440D01*
X0204179D01*
X0205178Y0092440D01*
Y0090440D01*
X0204179Y0089441D01*
X0201180D01*
X0217174Y0092440D02*
X0216175Y0093440D01*
X0214175D01*
X0213176Y0092440D01*
Y0091440D01*
X0214175Y0090440D01*
X0216175D01*
X0217174Y0089441D01*
Y0088441D01*
X0216175Y0087441D01*
X0214175D01*
X0213176Y0088441D01*
X0219174Y0093440D02*
X0221173D01*
X0220173D01*
Y0087441D01*
X0219174D01*
X0221173D01*
X0224172Y0093440D02*
Y0087441D01*
X0227171D01*
X0228171Y0088441D01*
Y0092440D01*
X0227171Y0093440D01*
X0224172D01*
X0234169D02*
X0230170D01*
Y0087441D01*
X0234169D01*
X0230170Y0090440D02*
X0232170D01*
X0462030Y0087441D02*
Y0091440D01*
X0464029Y0093440D01*
X0466028Y0091440D01*
Y0087441D01*
Y0090440D01*
X0462030D01*
X0348430Y0087441D02*
Y0093440D01*
X0350429Y0091440D01*
X0352428Y0093440D01*
Y0087441D01*
X0358426Y0092440D02*
X0357427Y0093440D01*
X0355427D01*
X0354428Y0092440D01*
Y0088441D01*
X0355427Y0087441D01*
X0357427D01*
X0358426Y0088441D01*
X0360426Y0093440D02*
Y0088441D01*
X0361425Y0087441D01*
X0363425D01*
X0364424Y0088441D01*
Y0093440D01*
X0366424Y0087441D02*
X0368423D01*
X0367424D01*
Y0093440D01*
X0366424Y0092440D01*
X0375421Y0093440D02*
X0371422D01*
Y0090440D01*
X0373422Y0091440D01*
X0374421D01*
X0375421Y0090440D01*
Y0088441D01*
X0374421Y0087441D01*
X0372422D01*
X0371422Y0088441D01*
X0381419Y0087441D02*
X0377420D01*
X0381419Y0091440D01*
Y0092440D01*
X0380419Y0093440D01*
X0378420D01*
X0377420Y0092440D01*
X0293880Y0093440D02*
Y0087441D01*
X0296879D01*
X0297878Y0088441D01*
Y0089441D01*
X0296879Y0090440D01*
X0293880D01*
X0296879D01*
X0297878Y0091440D01*
Y0092440D01*
X0296879Y0093440D01*
X0293880D01*
X0302877D02*
X0300877D01*
X0299878Y0092440D01*
Y0088441D01*
X0300877Y0087441D01*
X0302877D01*
X0303876Y0088441D01*
Y0092440D01*
X0302877Y0093440D01*
X0305876Y0087441D02*
Y0091440D01*
X0307875Y0093440D01*
X0309875Y0091440D01*
Y0087441D01*
Y0090440D01*
X0305876D01*
X0311874Y0087441D02*
Y0093440D01*
X0314873D01*
X0315873Y0092440D01*
Y0090440D01*
X0314873Y0089441D01*
X0311874D01*
X0313873D02*
X0315873Y0087441D01*
X0317872Y0093440D02*
Y0087441D01*
X0320871D01*
X0321871Y0088441D01*
Y0092440D01*
X0320871Y0093440D01*
X0317872D01*
X0330868Y0087441D02*
Y0093440D01*
X0332867D02*
Y0087441D01*
X0329868Y0091440D02*
X0332867D01*
X0333867D01*
X0329868Y0089441D02*
X0333867D01*
X0335866Y0091440D02*
X0336866D01*
Y0090440D01*
X0335866D01*
Y0091440D01*
Y0088441D02*
X0336866D01*
Y0087441D01*
X0335866D01*
Y0088441D01*
X0046230Y0073157D02*
Y0067159D01*
X0050228D01*
X0052228D02*
Y0071157D01*
X0054227Y0073157D01*
X0056226Y0071157D01*
Y0067159D01*
Y0070158D01*
X0052228D01*
X0058226Y0073157D02*
Y0072157D01*
X0060225Y0070158D01*
X0062225Y0072157D01*
Y0073157D01*
X0060225Y0070158D02*
Y0067159D01*
X0068222Y0073157D02*
X0064224D01*
Y0067159D01*
X0068222D01*
X0064224Y0070158D02*
X0066223D01*
X0070222Y0067159D02*
Y0073157D01*
X0073221D01*
X0074221Y0072157D01*
Y0070158D01*
X0073221Y0069158D01*
X0070222D01*
X0072221D02*
X0074221Y0067159D01*
X0082218D02*
Y0073157D01*
X0086217Y0067159D01*
Y0073157D01*
X0088216Y0067159D02*
Y0071157D01*
X0090215Y0073157D01*
X0092215Y0071157D01*
Y0067159D01*
Y0070158D01*
X0088216D01*
X0094214Y0067159D02*
Y0073157D01*
X0096214Y0071157D01*
X0098213Y0073157D01*
Y0067159D01*
X0104211Y0073157D02*
X0100212D01*
Y0067159D01*
X0104211D01*
X0100212Y0070158D02*
X0102211D01*
X0112208Y0069158D02*
X0116207D01*
X0112208Y0071157D02*
X0116207D01*
X0046230Y0046575D02*
Y0052573D01*
X0049229D01*
X0050228Y0051573D01*
Y0049574D01*
X0049229Y0048574D01*
X0046230D01*
X0052228Y0052573D02*
Y0046575D01*
X0056226D01*
X0061225Y0052573D02*
X0059225D01*
X0058226Y0051573D01*
Y0047574D01*
X0059225Y0046575D01*
X0061225D01*
X0062225Y0047574D01*
Y0051573D01*
X0061225Y0052573D01*
X0064224D02*
X0068222D01*
X0066223D01*
Y0046575D01*
X0076220D02*
Y0052573D01*
X0080219Y0046575D01*
Y0052573D01*
X0082218Y0046575D02*
Y0050573D01*
X0084217Y0052573D01*
X0086217Y0050573D01*
Y0046575D01*
Y0049574D01*
X0082218D01*
X0088216Y0046575D02*
Y0052573D01*
X0090215Y0050573D01*
X0092215Y0052573D01*
Y0046575D01*
X0098213Y0052573D02*
X0094214D01*
Y0046575D01*
X0098213D01*
X0094214Y0049574D02*
X0096214D01*
X0106210Y0048574D02*
X0110209D01*
X0106210Y0050573D02*
X0110209D01*
X0456929Y0046575D02*
Y0052573D01*
X0453930Y0049574D01*
X0457928D01*
X0459928Y0050573D02*
X0460927D01*
Y0049574D01*
X0459928D01*
Y0050573D01*
Y0047574D02*
X0460927D01*
Y0046575D01*
X0459928D01*
Y0047574D01*
X0464926Y0051573D02*
X0465926Y0052573D01*
X0467925D01*
X0468925Y0051573D01*
Y0050573D01*
X0467925Y0049574D01*
X0466925D01*
X0467925D01*
X0468925Y0048574D01*
Y0047574D01*
X0467925Y0046575D01*
X0465926D01*
X0464926Y0047574D01*
X0470924Y0051573D02*
X0471924Y0052573D01*
X0473923D01*
X0474923Y0051573D01*
Y0047574D01*
X0473923Y0046575D01*
X0471924D01*
X0470924Y0047574D01*
Y0051573D01*
X0476922Y0050573D02*
X0477922D01*
Y0049574D01*
X0476922D01*
Y0050573D01*
Y0047574D02*
X0477922D01*
Y0046575D01*
X0476922D01*
Y0047574D01*
X0485919Y0052573D02*
X0481921D01*
Y0049574D01*
X0483920Y0050573D01*
X0484920D01*
X0485919Y0049574D01*
Y0047574D01*
X0484920Y0046575D01*
X0482920D01*
X0481921Y0047574D01*
X0487919D02*
X0488918Y0046575D01*
X0490918D01*
X0491917Y0047574D01*
Y0051573D01*
X0490918Y0052573D01*
X0488918D01*
X0487919Y0051573D01*
Y0050573D01*
X0488918Y0049574D01*
X0491917D01*
X0499915Y0046575D02*
Y0052573D01*
X0502914D01*
X0503913Y0051573D01*
Y0049574D01*
X0502914Y0048574D01*
X0499915D01*
X0505913Y0046575D02*
Y0052573D01*
X0507912Y0050573D01*
X0509911Y0052573D01*
Y0046575D01*
X0580380Y0052573D02*
X0584378D01*
X0582379D01*
Y0046575D01*
X0590376Y0052573D02*
X0586378D01*
Y0046575D01*
X0590376D01*
X0586378Y0049574D02*
X0588377D01*
X0592376Y0052573D02*
X0596375Y0046575D01*
Y0052573D02*
X0592376Y0046575D01*
X0598374D02*
Y0050573D01*
X0600373Y0052573D01*
X0602373Y0050573D01*
Y0046575D01*
Y0049574D01*
X0598374D01*
X0608371Y0051573D02*
X0607371Y0052573D01*
X0605372D01*
X0604372Y0051573D01*
Y0050573D01*
X0605372Y0049574D01*
X0607371D01*
X0608371Y0048574D01*
Y0047574D01*
X0607371Y0046575D01*
X0605372D01*
X0604372Y0047574D01*
X0616368Y0052573D02*
X0618367D01*
X0617368D01*
Y0046575D01*
X0616368D01*
X0618367D01*
X0621366D02*
Y0052573D01*
X0625365Y0046575D01*
Y0052573D01*
X0631363Y0051573D02*
X0630364Y0052573D01*
X0628364D01*
X0627364Y0051573D01*
Y0050573D01*
X0628364Y0049574D01*
X0630364D01*
X0631363Y0048574D01*
Y0047574D01*
X0630364Y0046575D01*
X0628364D01*
X0627364Y0047574D01*
X0633362Y0052573D02*
X0637361D01*
X0635362D01*
Y0046575D01*
X0639361D02*
Y0052573D01*
X0642360D01*
X0643359Y0051573D01*
Y0049574D01*
X0642360Y0048574D01*
X0639361D01*
X0641360D02*
X0643359Y0046575D01*
X0645359Y0052573D02*
Y0047574D01*
X0646358Y0046575D01*
X0648358D01*
X0649357Y0047574D01*
Y0052573D01*
X0651357Y0046575D02*
Y0052573D01*
X0653356Y0050573D01*
X0655355Y0052573D01*
Y0046575D01*
X0661353Y0052573D02*
X0657355D01*
Y0046575D01*
X0661353D01*
X0657355Y0049574D02*
X0659354D01*
X0663353Y0046575D02*
Y0052573D01*
X0667351Y0046575D01*
Y0052573D01*
X0669351D02*
X0673350D01*
X0671350D01*
Y0046575D01*
X0679348Y0051573D02*
X0678348Y0052573D01*
X0676349D01*
X0675349Y0051573D01*
Y0050573D01*
X0676349Y0049574D01*
X0678348D01*
X0679348Y0048574D01*
Y0047574D01*
X0678348Y0046575D01*
X0676349D01*
X0675349Y0047574D01*
X0293880Y0073106D02*
X0297878D01*
X0295879D01*
Y0067108D01*
X0299878Y0073106D02*
X0301877D01*
X0300877D01*
Y0067108D01*
X0299878D01*
X0301877D01*
X0304876Y0073106D02*
Y0067108D01*
X0307875D01*
X0308875Y0068108D01*
Y0072106D01*
X0307875Y0073106D01*
X0304876D01*
X0317872Y0067108D02*
Y0073106D01*
X0319871D02*
Y0067108D01*
X0316872Y0071107D02*
X0319871D01*
X0320871D01*
X0316872Y0069108D02*
X0320871D01*
X0322870Y0071107D02*
X0323870D01*
Y0070107D01*
X0322870D01*
Y0071107D01*
Y0068108D02*
X0323870D01*
Y0067108D01*
X0322870D01*
Y0068108D01*
X0348430Y0067108D02*
Y0068108D01*
X0349429D01*
Y0067108D01*
X0348430D01*
X0353428Y0073106D02*
X0357427D01*
X0355427D01*
Y0067108D01*
X0359426Y0073106D02*
X0361425D01*
X0360426D01*
Y0067108D01*
X0359426D01*
X0361425D01*
X0364424Y0073106D02*
Y0067108D01*
X0367424D01*
X0368423Y0068108D01*
Y0072106D01*
X0367424Y0073106D01*
X0364424D01*
X0127080Y0067008D02*
Y0073006D01*
X0129079Y0071007D01*
X0131078Y0073006D01*
Y0067008D01*
X0133078D02*
X0135077D01*
X0134077D01*
Y0073006D01*
X0133078Y0072006D01*
X0138076Y0067008D02*
X0140075D01*
X0139076D01*
Y0073006D01*
X0138076Y0072006D01*
X0153071D02*
X0152072Y0073006D01*
X0150072D01*
X0149073Y0072006D01*
Y0068008D01*
X0150072Y0067008D01*
X0152072D01*
X0153071Y0068008D01*
Y0070007D01*
X0151072D01*
X0158070Y0067008D02*
X0156070D01*
X0155071Y0068008D01*
Y0070007D01*
X0156070Y0071007D01*
X0158070D01*
X0159069Y0070007D01*
Y0069007D01*
X0155071D01*
X0161069Y0071007D02*
Y0067008D01*
Y0069007D01*
X0162068Y0070007D01*
X0163068Y0071007D01*
X0164068D01*
X0167067Y0073006D02*
Y0067008D01*
X0170066D01*
X0171065Y0068008D01*
Y0069007D01*
Y0070007D01*
X0170066Y0071007D01*
X0167067D01*
X0176064Y0067008D02*
X0174064D01*
X0173065Y0068008D01*
Y0070007D01*
X0174064Y0071007D01*
X0176064D01*
X0177064Y0070007D01*
Y0069007D01*
X0173065D01*
X0179063Y0071007D02*
Y0067008D01*
Y0069007D01*
X0180062Y0070007D01*
X0181062Y0071007D01*
X0182062D01*
X0191059Y0073006D02*
X0193058D01*
X0192059D01*
Y0067008D01*
X0191059D01*
X0193058D01*
X0196057D02*
Y0071007D01*
X0199056D01*
X0200056Y0070007D01*
Y0067008D01*
X0203055D02*
Y0072006D01*
Y0070007D01*
X0202055D01*
X0204055D01*
X0203055D01*
Y0072006D01*
X0204055Y0073006D01*
X0208053Y0067008D02*
X0210053D01*
X0211052Y0068008D01*
Y0070007D01*
X0210053Y0071007D01*
X0208053D01*
X0207054Y0070007D01*
Y0068008D01*
X0208053Y0067008D01*
X0213052Y0071007D02*
Y0067008D01*
Y0069007D01*
X0214052Y0070007D01*
X0215051Y0071007D01*
X0216051D01*
X0219050Y0067008D02*
Y0071007D01*
X0220050D01*
X0221049Y0070007D01*
Y0067008D01*
Y0070007D01*
X0222049Y0071007D01*
X0223049Y0070007D01*
Y0067008D01*
X0226048Y0071007D02*
X0228047D01*
X0229047Y0070007D01*
Y0067008D01*
X0226048D01*
X0225048Y0068008D01*
X0226048Y0069007D01*
X0229047D01*
X0232046Y0072006D02*
Y0071007D01*
X0231046D01*
X0233045D01*
X0232046D01*
Y0068008D01*
X0233045Y0067008D01*
X0236044D02*
X0238044D01*
X0237044D01*
Y0071007D01*
X0236044D01*
X0242042Y0067008D02*
X0244042D01*
X0245041Y0068008D01*
Y0070007D01*
X0244042Y0071007D01*
X0242042D01*
X0241043Y0070007D01*
Y0068008D01*
X0242042Y0067008D01*
X0247041D02*
Y0071007D01*
X0250040D01*
X0251040Y0070007D01*
Y0067008D01*
X0127180Y0073307D02*
Y0067309D01*
X0130179D01*
X0131178Y0068309D01*
Y0072307D01*
X0130179Y0073307D01*
X0127180D01*
X0133178Y0071307D02*
Y0067309D01*
Y0069308D01*
X0134177Y0070308D01*
X0135177Y0071307D01*
X0136177D01*
X0139176Y0067309D02*
X0141175D01*
X0140175D01*
Y0071307D01*
X0139176D01*
X0144174Y0067309D02*
X0146174D01*
X0145174D01*
Y0073307D01*
X0144174D01*
X0149172Y0067309D02*
X0151172D01*
X0150172D01*
Y0073307D01*
X0149172D01*
X0164168Y0072307D02*
X0163168Y0073307D01*
X0161169D01*
X0160169Y0072307D01*
Y0068309D01*
X0161169Y0067309D01*
X0163168D01*
X0164168Y0068309D01*
Y0070308D01*
X0162168D01*
X0166167Y0071307D02*
Y0068309D01*
X0167167Y0067309D01*
X0170166D01*
Y0071307D01*
X0172165Y0067309D02*
X0174164D01*
X0173165D01*
Y0071307D01*
X0172165D01*
X0181162Y0073307D02*
Y0067309D01*
X0178163D01*
X0177164Y0068309D01*
Y0070308D01*
X0178163Y0071307D01*
X0181162D01*
X0186161Y0067309D02*
X0184161D01*
X0183161Y0068309D01*
Y0070308D01*
X0184161Y0071307D01*
X0186161D01*
X0187160Y0070308D01*
Y0069308D01*
X0183161D01*
G54D31*
X0497080Y0080325D02*
Y0100658D01*
X0413080Y0080325D02*
Y0100658D01*
X0039880Y0080325D02*
X0700080D01*
X0039880Y0059992D02*
X0699880D01*
X0039880Y0039658D02*
X0440380D01*
X0039930Y0100658D02*
X0700080D01*
X0039930Y0039658D02*
Y0100658D01*
Y0039658D02*
X0197480D01*
X0039880D02*
Y0100658D01*
X0286380Y0039658D02*
Y0100658D01*
X0700080Y0039658D02*
Y0100658D01*
X0440380Y0039658D02*
X0700080D01*
X0559280Y0039008D02*
Y0059292D01*
G54D154*
X0127074Y0514908D02*
X0138885D01*
X0132980Y0509003D02*
Y0520814D01*
X0337074Y0514908D02*
X0348885D01*
X0342980Y0509003D02*
Y0520814D01*
X0126730Y0514908D02*
X0139230D01*
X0132980Y0508658D02*
Y0521158D01*
X0145716Y0243408D02*
X0150243D01*
X0147980Y0241144D02*
Y0245672D01*
X0145716Y0253408D02*
X0150243D01*
X0147980Y0251144D02*
Y0255672D01*
X0145716Y0263408D02*
X0150243D01*
X0147980Y0261144D02*
Y0265672D01*
X0250780Y0336711D02*
X0253280D01*
X0252030Y0335461D02*
Y0337961D01*
X0197916Y0261908D02*
X0202443D01*
X0200180Y0259644D02*
Y0264172D01*
X0197916Y0251908D02*
X0202443D01*
X0200180Y0249644D02*
Y0254172D01*
X0215734Y0234506D02*
X0220065D01*
X0217900Y0232341D02*
Y0236671D01*
X0225734Y0234506D02*
X0230065D01*
X0227900Y0232341D02*
Y0236671D01*
X0235734Y0234506D02*
X0240065D01*
X0237900Y0232341D02*
Y0236671D01*
X0245734Y0234506D02*
X0250065D01*
X0247900Y0232341D02*
Y0236671D01*
X0255734Y0234506D02*
X0260065D01*
X0257900Y0232341D02*
Y0236671D01*
X0336730Y0234908D02*
X0349230D01*
X0342980Y0228658D02*
Y0241158D01*
X0340586Y0397881D02*
X0344129D01*
X0342358Y0396109D02*
Y0399652D01*
X0340586Y0406936D02*
X0344129D01*
X0342358Y0405164D02*
Y0408707D01*
X0197430Y0236130D02*
X0199930D01*
X0198680Y0234880D02*
Y0237381D01*
X0153905Y0500184D02*
X0156661D01*
X0155283Y0498806D02*
Y0501562D01*
X0185362Y0500184D02*
X0188117D01*
X0186740Y0498806D02*
Y0501562D01*
X0150263Y0497822D02*
X0157743D01*
X0154003Y0494082D02*
Y0501562D01*
X0184279Y0497822D02*
X0191759D01*
X0188019Y0494082D02*
Y0501562D01*
X0145027Y0518688D02*
X0150932D01*
X0147980Y0515735D02*
Y0521641D01*
X0191090Y0518688D02*
X0196995D01*
X0194043Y0515735D02*
Y0521641D01*
X0145972Y0373408D02*
X0149987D01*
X0147980Y0371400D02*
Y0375416D01*
X0145972Y0363408D02*
X0149987D01*
X0147980Y0361400D02*
Y0365416D01*
X0145972Y0353408D02*
X0149987D01*
X0147980Y0351400D02*
Y0355416D01*
X0145972Y0343408D02*
X0149987D01*
X0147980Y0341400D02*
Y0345416D01*
X0145972Y0333408D02*
X0149987D01*
X0147980Y0331400D02*
Y0335416D01*
X0145972Y0323408D02*
X0149987D01*
X0147980Y0321400D02*
Y0325416D01*
X0145972Y0313408D02*
X0149987D01*
X0147980Y0311400D02*
Y0315416D01*
X0145972Y0303408D02*
X0149987D01*
X0147980Y0301400D02*
Y0305416D01*
X0145972Y0293408D02*
X0149987D01*
X0147980Y0291400D02*
Y0295416D01*
X0145972Y0283408D02*
X0149987D01*
X0147980Y0281400D02*
Y0285416D01*
X0155972Y0373408D02*
X0159987D01*
X0157980Y0371400D02*
Y0375416D01*
X0155972Y0363408D02*
X0159987D01*
X0157980Y0361400D02*
Y0365416D01*
X0155972Y0353408D02*
X0159987D01*
X0157980Y0351400D02*
Y0355416D01*
X0155972Y0343408D02*
X0159987D01*
X0157980Y0341400D02*
Y0345416D01*
X0155972Y0333408D02*
X0159987D01*
X0157980Y0331400D02*
Y0335416D01*
X0155972Y0323408D02*
X0159987D01*
X0157980Y0321400D02*
Y0325416D01*
X0155972Y0313408D02*
X0159987D01*
X0157980Y0311400D02*
Y0315416D01*
X0155972Y0303408D02*
X0159987D01*
X0157980Y0301400D02*
Y0305416D01*
X0155972Y0293408D02*
X0159987D01*
X0157980Y0291400D02*
Y0295416D01*
X0155972Y0283408D02*
X0159987D01*
X0157980Y0281400D02*
Y0285416D01*
X0315972Y0373408D02*
X0319988D01*
X0317980Y0371400D02*
Y0375416D01*
X0315972Y0363408D02*
X0319988D01*
X0317980Y0361400D02*
Y0365416D01*
X0315972Y0353408D02*
X0319988D01*
X0317980Y0351400D02*
Y0355416D01*
X0315972Y0343408D02*
X0319988D01*
X0317980Y0341400D02*
Y0345416D01*
X0315972Y0333408D02*
X0319988D01*
X0317980Y0331400D02*
Y0335416D01*
X0315972Y0323408D02*
X0319988D01*
X0317980Y0321400D02*
Y0325416D01*
X0315972Y0313408D02*
X0319988D01*
X0317980Y0311400D02*
Y0315416D01*
X0315972Y0303408D02*
X0319988D01*
X0317980Y0301400D02*
Y0305416D01*
X0315972Y0293408D02*
X0319988D01*
X0317980Y0291400D02*
Y0295416D01*
X0315972Y0283408D02*
X0319988D01*
X0317980Y0281400D02*
Y0285416D01*
X0325972Y0373408D02*
X0329988D01*
X0327980Y0371400D02*
Y0375416D01*
X0325972Y0363408D02*
X0329988D01*
X0327980Y0361400D02*
Y0365416D01*
X0325972Y0353408D02*
X0329988D01*
X0327980Y0351400D02*
Y0355416D01*
X0325972Y0343408D02*
X0329988D01*
X0327980Y0341400D02*
Y0345416D01*
X0325972Y0333408D02*
X0329988D01*
X0327980Y0331400D02*
Y0335416D01*
X0325972Y0323408D02*
X0329988D01*
X0327980Y0321400D02*
Y0325416D01*
X0325972Y0313408D02*
X0329988D01*
X0327980Y0311400D02*
Y0315416D01*
X0325972Y0303408D02*
X0329988D01*
X0327980Y0301400D02*
Y0305416D01*
X0325972Y0293408D02*
X0329988D01*
X0327980Y0291400D02*
Y0295416D01*
X0325972Y0283408D02*
X0329988D01*
X0327980Y0281400D02*
Y0285416D01*
X0205929Y0420408D02*
X0210260D01*
X0208094Y0418243D02*
Y0422574D01*
X0215929Y0420408D02*
X0220260D01*
X0218094Y0418243D02*
Y0422574D01*
X0205929Y0410408D02*
X0210260D01*
X0208094Y0408243D02*
Y0412573D01*
X0215929Y0410408D02*
X0220260D01*
X0218094Y0408243D02*
Y0412573D01*
X0145716Y0393408D02*
X0150243D01*
X0147980Y0391144D02*
Y0395672D01*
X0155716Y0393408D02*
X0160243D01*
X0157980Y0391144D02*
Y0395672D01*
X0233648Y0410408D02*
X0237978D01*
X0235813Y0408243D02*
Y0412573D01*
X0243648Y0410408D02*
X0247978D01*
X0245813Y0408243D02*
Y0412573D01*
X0253648Y0410408D02*
X0257978D01*
X0255813Y0408243D02*
Y0412573D01*
X0263648Y0410408D02*
X0267978D01*
X0265813Y0408243D02*
Y0412573D01*
X0273648Y0410408D02*
X0277978D01*
X0275813Y0408243D02*
Y0412573D01*
X0283648Y0410408D02*
X0287978D01*
X0285813Y0408243D02*
Y0412573D01*
X0233648Y0420408D02*
X0237978D01*
X0235813Y0418243D02*
Y0422574D01*
X0243648Y0420408D02*
X0247978D01*
X0245813Y0418243D02*
Y0422574D01*
X0253648Y0420408D02*
X0257978D01*
X0255813Y0418243D02*
Y0422574D01*
X0263648Y0420408D02*
X0267978D01*
X0265813Y0418243D02*
Y0422574D01*
X0273648Y0420408D02*
X0277978D01*
X0275813Y0418243D02*
Y0422574D01*
X0283648Y0420408D02*
X0287978D01*
X0285813Y0418243D02*
Y0422574D01*
X0325716Y0263408D02*
X0330243D01*
X0327980Y0261144D02*
Y0265672D01*
X0325716Y0253408D02*
X0330243D01*
X0327980Y0251144D02*
Y0255672D01*
X0325716Y0243408D02*
X0330243D01*
X0327980Y0241144D02*
Y0245672D01*
X0184619Y0235780D02*
X0187119D01*
X0185869Y0234530D02*
Y0237030D01*
X0272712Y0329208D02*
X0275212D01*
X0273962Y0327958D02*
Y0330458D01*
X0212063Y0288608D02*
X0214563D01*
X0213313Y0287358D02*
Y0289858D01*
X0336730Y0514908D02*
X0349230D01*
X0342980Y0508658D02*
Y0521158D01*
X0126730Y0234908D02*
X0139230D01*
X0132980Y0228658D02*
Y0241158D01*
X0161854Y0420208D02*
X0162642D01*
X0162248Y0419814D02*
Y0420602D01*
X0157917Y0420208D02*
X0158705D01*
X0158311Y0419814D02*
Y0420602D01*
X0159886Y0422669D02*
X0160673D01*
X0160280Y0422275D02*
Y0423063D01*
X0159886Y0417747D02*
X0160673D01*
X0160280Y0417354D02*
Y0418141D01*
X0222088Y0333708D02*
X0223072D01*
X0222580Y0333216D02*
Y0334200D01*
X0300887Y0330508D02*
X0301872D01*
X0301380Y0330016D02*
Y0331000D01*
X0297688Y0243608D02*
X0298672D01*
X0298180Y0243116D02*
Y0244100D01*
X0316346Y0238805D02*
X0317331D01*
X0316838Y0238313D02*
Y0239297D01*
X0140638Y0262008D02*
X0141622D01*
X0141130Y0261516D02*
Y0262500D01*
X0154387Y0263408D02*
X0155372D01*
X0154880Y0262916D02*
Y0263900D01*
X0205622Y0385229D02*
X0207197D01*
X0206410Y0384441D02*
Y0386016D01*
X0171027Y0260208D02*
X0172012D01*
X0171519Y0259716D02*
Y0260700D01*
X0337224Y0482534D02*
X0338208D01*
X0337716Y0482042D02*
Y0483026D01*
X0162238Y0337208D02*
X0163222D01*
X0162730Y0336716D02*
Y0337700D01*
X0171687Y0324138D02*
X0172672D01*
X0172180Y0323646D02*
Y0324630D01*
X0182326Y0332424D02*
X0183311D01*
X0182819Y0331931D02*
Y0332916D01*
X0181528Y0340804D02*
X0182512D01*
X0182020Y0340312D02*
Y0341297D01*
X0181486Y0349139D02*
X0182471D01*
X0181978Y0348647D02*
Y0349632D01*
X0173894Y0308018D02*
X0174878D01*
X0174386Y0307525D02*
Y0308510D01*
X0172240Y0316140D02*
X0173224D01*
X0172732Y0315648D02*
Y0316632D01*
X0179862Y0298896D02*
X0180846D01*
X0180354Y0298404D02*
Y0299388D01*
X0183866Y0307369D02*
X0184851D01*
X0184358Y0306877D02*
Y0307861D01*
X0179856Y0315762D02*
X0180841D01*
X0180348Y0315270D02*
Y0316255D01*
X0171027Y0332210D02*
X0172012D01*
X0171519Y0331718D02*
Y0332702D01*
X0193396Y0365045D02*
X0194380D01*
X0193888Y0364552D02*
Y0365537D01*
X0187573Y0371019D02*
X0188557D01*
X0188065Y0370527D02*
Y0371511D01*
X0166988Y0385133D02*
X0167972D01*
X0167480Y0384641D02*
Y0385625D01*
X0132092Y0383308D02*
X0133667D01*
X0132880Y0382521D02*
Y0384096D01*
X0229387Y0372508D02*
X0230372D01*
X0229880Y0372016D02*
Y0373000D01*
X0207387Y0357658D02*
X0208372D01*
X0207880Y0357166D02*
Y0358150D01*
X0194511Y0380708D02*
X0195495D01*
X0195003Y0380216D02*
Y0381200D01*
X0205595Y0341002D02*
X0206579D01*
X0206087Y0340510D02*
Y0341495D01*
X0266920Y0274190D02*
X0267904D01*
X0267412Y0273698D02*
Y0274682D01*
X0271788Y0263258D02*
X0272772D01*
X0272280Y0262766D02*
Y0263750D01*
X0273945Y0297808D02*
X0274929D01*
X0274437Y0297316D02*
Y0298300D01*
X0282737Y0299564D02*
X0283722D01*
X0283230Y0299072D02*
Y0300057D01*
X0284558Y0301632D02*
X0285542D01*
X0285050Y0301140D02*
Y0302124D01*
X0290788Y0276064D02*
X0291772D01*
X0291280Y0275572D02*
Y0276556D01*
X0288587Y0272145D02*
X0289572D01*
X0289080Y0271653D02*
Y0272637D01*
X0291431Y0271960D02*
X0292415D01*
X0291923Y0271468D02*
Y0272452D01*
X0300293Y0270090D02*
X0301277D01*
X0300785Y0269598D02*
Y0270582D01*
X0206827Y0298408D02*
X0208402D01*
X0207615Y0297621D02*
Y0299196D01*
X0208742Y0296402D02*
X0210317D01*
X0209530Y0295615D02*
Y0297190D01*
X0213687Y0309255D02*
X0214672D01*
X0214180Y0308763D02*
Y0309747D01*
X0194588Y0294828D02*
X0195572D01*
X0195080Y0294336D02*
Y0295320D01*
X0197063Y0329244D02*
X0198048D01*
X0197556Y0328752D02*
Y0329737D01*
X0195193Y0331591D02*
X0196178D01*
X0195686Y0331099D02*
Y0332083D01*
X0194511Y0336708D02*
X0195495D01*
X0195003Y0336216D02*
Y0337200D01*
X0296438Y0389627D02*
X0297422D01*
X0296930Y0389135D02*
Y0390119D01*
X0294542Y0357658D02*
X0296117D01*
X0295330Y0356871D02*
Y0358446D01*
X0293558Y0344608D02*
X0294542D01*
X0294050Y0344116D02*
Y0345100D01*
X0296228Y0392812D02*
X0297212D01*
X0296720Y0392320D02*
Y0393304D01*
X0286077Y0344608D02*
X0287062D01*
X0286569Y0344116D02*
Y0345100D01*
X0257687Y0339608D02*
X0258672D01*
X0258180Y0339116D02*
Y0340100D01*
X0291248Y0397361D02*
X0292232D01*
X0291740Y0396869D02*
Y0397853D01*
X0320587Y0393911D02*
X0321572D01*
X0321080Y0393418D02*
Y0394403D01*
X0233588Y0286408D02*
X0234572D01*
X0234080Y0285916D02*
Y0286900D01*
X0213667Y0275484D02*
X0214651D01*
X0214159Y0274992D02*
Y0275976D01*
X0167687Y0341318D02*
X0168672D01*
X0168180Y0340826D02*
Y0341810D01*
X0279138Y0293520D02*
X0280122D01*
X0279630Y0293027D02*
Y0294012D01*
X0261660Y0312108D02*
X0262645D01*
X0262153Y0311616D02*
Y0312600D01*
X0191488Y0333608D02*
X0192472D01*
X0191980Y0333116D02*
Y0334100D01*
X0193551Y0251593D02*
X0194535D01*
X0194043Y0251101D02*
Y0252085D01*
X0257789Y0279908D02*
X0258970D01*
X0258380Y0279318D02*
Y0280499D01*
X0264092Y0236808D02*
X0265667D01*
X0264880Y0236021D02*
Y0237596D01*
X0205288Y0251708D02*
X0206272D01*
X0205780Y0251216D02*
Y0252200D01*
X0215802Y0277119D02*
X0216786D01*
X0216294Y0276627D02*
Y0277611D01*
X0226913Y0287032D02*
X0227897D01*
X0227405Y0286540D02*
Y0287524D01*
X0250087Y0288608D02*
X0251072D01*
X0250580Y0288116D02*
Y0289100D01*
X0231737Y0288340D02*
X0232722D01*
X0232230Y0287847D02*
Y0288832D01*
X0199688Y0245464D02*
X0200672D01*
X0200180Y0244972D02*
Y0245957D01*
X0152318Y0328505D02*
X0153303D01*
X0152810Y0328013D02*
Y0328997D01*
X0152219Y0288223D02*
X0153203D01*
X0152711Y0287731D02*
Y0288715D01*
X0152519Y0297905D02*
X0153503D01*
X0153011Y0297413D02*
Y0298397D01*
X0152419Y0308305D02*
X0153403D01*
X0152911Y0307813D02*
Y0308797D01*
X0163019Y0278605D02*
X0164003D01*
X0163511Y0278113D02*
Y0279097D01*
X0207437Y0436208D02*
X0208422D01*
X0207930Y0435716D02*
Y0436700D01*
X0310117Y0369015D02*
X0311101D01*
X0310609Y0368523D02*
Y0369507D01*
X0311922Y0436705D02*
X0312906D01*
X0312414Y0436213D02*
Y0437197D01*
X0316317Y0258805D02*
X0317301D01*
X0316809Y0258313D02*
Y0259297D01*
X0292017Y0251240D02*
X0293001D01*
X0292509Y0250748D02*
Y0251732D01*
X0184719Y0282505D02*
X0185703D01*
X0185211Y0282013D02*
Y0282997D01*
X0185267Y0290605D02*
X0186251D01*
X0185759Y0290113D02*
Y0291097D01*
X0161967Y0328905D02*
X0162951D01*
X0162459Y0328413D02*
Y0329397D01*
X0213146Y0267058D02*
X0214130D01*
X0213638Y0266566D02*
Y0267550D01*
X0176751Y0252958D02*
X0177736D01*
X0177244Y0252466D02*
Y0253450D01*
X0157487Y0253408D02*
X0158472D01*
X0157980Y0252916D02*
Y0253900D01*
X0322787Y0385760D02*
X0323772D01*
X0323280Y0385268D02*
Y0386252D01*
X0276787Y0360808D02*
X0277772D01*
X0277280Y0360316D02*
Y0361300D01*
X0328274Y0466359D02*
X0329258D01*
X0328766Y0465867D02*
Y0466852D01*
X0223187Y0313994D02*
X0224172D01*
X0223680Y0313502D02*
Y0314486D01*
X0290887Y0284408D02*
X0291872D01*
X0291380Y0283916D02*
Y0284900D01*
X0251087Y0317608D02*
X0252072D01*
X0251580Y0317116D02*
Y0318100D01*
X0248388Y0319708D02*
X0249372D01*
X0248880Y0319216D02*
Y0320200D01*
X0245438Y0380581D02*
X0246422D01*
X0245930Y0380088D02*
Y0381073D01*
X0284839Y0266658D02*
X0286020D01*
X0285430Y0266068D02*
Y0267249D01*
X0235588Y0290446D02*
X0236572D01*
X0236080Y0289954D02*
Y0290938D01*
X0213455Y0322201D02*
X0214439D01*
X0213947Y0321709D02*
Y0322693D01*
X0237587Y0322508D02*
X0238572D01*
X0238080Y0322016D02*
Y0323000D01*
X0126038Y0283208D02*
X0127022D01*
X0126530Y0282716D02*
Y0283700D01*
X0126688Y0317308D02*
X0127672D01*
X0127180Y0316816D02*
Y0317800D01*
X0126388Y0342908D02*
X0127372D01*
X0126880Y0342416D02*
Y0343400D01*
X0126538Y0380008D02*
X0127522D01*
X0127030Y0379516D02*
Y0380500D01*
X0347338Y0349425D02*
X0348322D01*
X0347830Y0348933D02*
Y0349917D01*
X0347139Y0309808D02*
X0348124D01*
X0347632Y0309316D02*
Y0310300D01*
X0346537Y0272208D02*
X0347522D01*
X0347030Y0271716D02*
Y0272700D01*
X0311581Y0269908D02*
X0312565D01*
X0312073Y0269416D02*
Y0270400D01*
X0334437Y0228982D02*
X0335422D01*
X0334930Y0228490D02*
Y0229474D01*
X0304878Y0230808D02*
X0305862D01*
X0305370Y0230316D02*
Y0231300D01*
X0282737Y0232462D02*
X0283722D01*
X0283230Y0231970D02*
Y0232954D01*
X0287441Y0232462D02*
X0288425D01*
X0287933Y0231970D02*
Y0232954D01*
X0273438Y0228108D02*
X0274422D01*
X0273930Y0227616D02*
Y0228600D01*
X0268176Y0228108D02*
X0269160D01*
X0268668Y0227616D02*
Y0228600D01*
X0140087Y0228808D02*
X0141072D01*
X0140580Y0228316D02*
Y0229300D01*
X0191188Y0228982D02*
X0192172D01*
X0191680Y0228490D02*
Y0229474D01*
X0156694Y0229508D02*
X0157678D01*
X0157186Y0229016D02*
Y0230000D01*
X0247988Y0446471D02*
X0248972D01*
X0248480Y0445979D02*
Y0446963D01*
X0275952Y0379958D02*
X0276936D01*
X0276444Y0379466D02*
Y0380450D01*
X0299095Y0377890D02*
X0300079D01*
X0299587Y0377398D02*
Y0378382D01*
X0234387Y0338608D02*
X0235372D01*
X0234880Y0338116D02*
Y0339100D01*
X0238202Y0303401D02*
X0239186D01*
X0238694Y0302909D02*
Y0303893D01*
X0302095Y0441440D02*
X0303079D01*
X0302587Y0440948D02*
Y0441932D01*
X0299216Y0401040D02*
X0300200D01*
X0299708Y0400548D02*
Y0401532D01*
X0307629Y0410808D02*
X0308613D01*
X0308121Y0410316D02*
Y0411300D01*
X0348137Y0417108D02*
X0349122D01*
X0348630Y0416616D02*
Y0417600D01*
X0344788Y0385008D02*
X0345772D01*
X0345280Y0384516D02*
Y0385500D01*
X0335588Y0401008D02*
X0336572D01*
X0336080Y0400516D02*
Y0401500D01*
X0333987Y0393911D02*
X0334972D01*
X0334480Y0393418D02*
Y0394403D01*
X0315887Y0400969D02*
X0316872D01*
X0316380Y0400477D02*
Y0401461D01*
X0230588Y0293564D02*
X0231572D01*
X0231080Y0293071D02*
Y0294056D01*
X0227087Y0294708D02*
X0228072D01*
X0227580Y0294216D02*
Y0295200D01*
X0228942Y0280167D02*
X0229926D01*
X0229434Y0279675D02*
Y0280659D01*
X0241319Y0293708D02*
X0242303D01*
X0241811Y0293216D02*
Y0294200D01*
X0244187Y0290808D02*
X0245172D01*
X0244680Y0290316D02*
Y0291300D01*
X0261660Y0289015D02*
X0262645D01*
X0262153Y0288523D02*
Y0289508D01*
X0306193Y0286558D02*
X0307177D01*
X0306685Y0286066D02*
Y0287050D01*
X0287370Y0248415D02*
X0288354D01*
X0287862Y0247922D02*
Y0248907D01*
X0287551Y0256608D02*
X0288535D01*
X0288043Y0256116D02*
Y0257100D01*
X0182326Y0323708D02*
X0183311D01*
X0182819Y0323216D02*
Y0324200D01*
X0189015Y0395408D02*
X0189999D01*
X0189507Y0394916D02*
Y0395900D01*
X0174693Y0404919D02*
X0175677D01*
X0175185Y0404427D02*
Y0405411D01*
X0167621Y0389093D02*
X0168606D01*
X0168114Y0388601D02*
Y0389585D01*
X0248386Y0396802D02*
X0249370D01*
X0248878Y0396310D02*
Y0397294D01*
X0268173Y0397208D02*
X0269157D01*
X0268665Y0396716D02*
Y0397700D01*
X0276593Y0392812D02*
X0277577D01*
X0277085Y0392320D02*
Y0393304D01*
X0302684Y0353608D02*
X0303669D01*
X0303177Y0353116D02*
Y0354100D01*
X0275604Y0313056D02*
X0276588D01*
X0276096Y0312564D02*
Y0313548D01*
X0251887Y0387808D02*
X0252872D01*
X0252380Y0387316D02*
Y0388300D01*
X0208146Y0375658D02*
X0209130D01*
X0208638Y0375166D02*
Y0376150D01*
X0170593Y0357108D02*
X0171577D01*
X0171085Y0356616D02*
Y0357600D01*
X0249102Y0352108D02*
X0250086D01*
X0249594Y0351616D02*
Y0352600D01*
X0290088Y0453708D02*
X0291072D01*
X0290580Y0453216D02*
Y0454200D01*
X0290088Y0289685D02*
X0291072D01*
X0290580Y0289193D02*
Y0290177D01*
X0163698Y0407171D02*
X0164683D01*
X0164191Y0406678D02*
Y0407663D01*
X0147438Y0401871D02*
X0148422D01*
X0147930Y0401378D02*
Y0402363D01*
X0166098Y0349271D02*
X0167083D01*
X0166591Y0348779D02*
Y0349763D01*
X0163010Y0308018D02*
X0163994D01*
X0163502Y0307525D02*
Y0308510D01*
X0162899Y0297611D02*
X0163883D01*
X0163391Y0297119D02*
Y0298103D01*
X0163099Y0288340D02*
X0164083D01*
X0163591Y0287847D02*
Y0288832D01*
X0260861Y0244433D02*
X0261845D01*
X0261353Y0243941D02*
Y0244925D01*
X0250588Y0244433D02*
X0251572D01*
X0251080Y0243941D02*
Y0244925D01*
X0240287Y0244433D02*
X0241272D01*
X0240780Y0243941D02*
Y0244925D01*
X0267388Y0279711D02*
X0268372D01*
X0267880Y0279219D02*
Y0280203D01*
X0300388Y0306625D02*
X0301372D01*
X0300880Y0306133D02*
Y0307117D01*
X0296438Y0319911D02*
X0297422D01*
X0296930Y0319419D02*
Y0320403D01*
X0283288Y0320161D02*
X0284272D01*
X0283780Y0319669D02*
Y0320653D01*
X0289917Y0308828D02*
X0290901D01*
X0290409Y0308335D02*
Y0309320D01*
X0300856Y0365808D02*
X0301840D01*
X0301348Y0365316D02*
Y0366300D01*
X0215302Y0262075D02*
X0216286D01*
X0215794Y0261583D02*
Y0262568D01*
X0228802Y0261976D02*
X0229786D01*
X0229294Y0261483D02*
Y0262468D01*
X0246608Y0261901D02*
X0247592D01*
X0247100Y0261409D02*
Y0262393D01*
X0253487Y0262058D02*
X0254472D01*
X0253980Y0261566D02*
Y0262550D01*
X0240241Y0253976D02*
X0241225D01*
X0240733Y0253484D02*
Y0254468D01*
X0250733Y0253727D02*
X0251717D01*
X0251225Y0253235D02*
Y0254219D01*
X0263188Y0251371D02*
X0264172D01*
X0263680Y0250879D02*
Y0251863D01*
X0255087Y0333435D02*
X0256072D01*
X0255580Y0332942D02*
Y0333927D01*
X0188134Y0423208D02*
X0189708D01*
X0188921Y0422421D02*
Y0423996D01*
X0170592Y0430508D02*
X0172167D01*
X0171380Y0429721D02*
Y0431296D01*
X0152292Y0428972D02*
X0153867D01*
X0153080Y0428185D02*
Y0429760D01*
X0146692Y0429273D02*
X0148267D01*
X0147480Y0428485D02*
Y0430060D01*
X0129442Y0422408D02*
X0131017D01*
X0130230Y0421621D02*
Y0423196D01*
X0300089Y0267358D02*
X0301270D01*
X0300680Y0266768D02*
Y0267949D01*
X0251800Y0449083D02*
X0252785D01*
X0252292Y0448591D02*
Y0449575D01*
X0231588Y0448508D02*
X0232572D01*
X0232080Y0448016D02*
Y0449000D01*
X0313550Y0235108D02*
X0314732D01*
X0314141Y0234518D02*
Y0235699D01*
X0310142Y0253108D02*
X0311323D01*
X0310732Y0252518D02*
Y0253699D01*
X0306487Y0237508D02*
X0307472D01*
X0306980Y0237016D02*
Y0238000D01*
X0294887Y0244408D02*
X0295872D01*
X0295380Y0243916D02*
Y0244900D01*
X0289987Y0243608D02*
X0290972D01*
X0290480Y0243116D02*
Y0244100D01*
X0271889Y0256008D02*
X0273070D01*
X0272480Y0255418D02*
Y0256599D01*
X0275770Y0240408D02*
X0276754D01*
X0276262Y0239916D02*
Y0240900D01*
X0231402Y0269417D02*
X0232386D01*
X0231894Y0268925D02*
Y0269909D01*
X0225220Y0269417D02*
X0226204D01*
X0225712Y0268925D02*
Y0269909D01*
X0226038Y0297572D02*
X0227022D01*
X0226530Y0297080D02*
Y0298064D01*
X0234888Y0303161D02*
X0235872D01*
X0235380Y0302669D02*
Y0303653D01*
X0240388Y0300298D02*
X0241372D01*
X0240880Y0299806D02*
Y0300791D01*
X0249988Y0295808D02*
X0250972D01*
X0250480Y0295316D02*
Y0296300D01*
X0260588Y0305918D02*
X0261572D01*
X0261080Y0305426D02*
Y0306410D01*
X0249088Y0308508D02*
X0250072D01*
X0249580Y0308016D02*
Y0309000D01*
X0246738Y0305394D02*
X0247722D01*
X0247230Y0304902D02*
Y0305887D01*
X0245738Y0313908D02*
X0246722D01*
X0246230Y0313416D02*
Y0314400D01*
X0244701Y0321349D02*
X0245685D01*
X0245193Y0320857D02*
Y0321841D01*
X0259396Y0316936D02*
X0260380D01*
X0259888Y0316443D02*
Y0317428D01*
X0217999Y0317153D02*
X0218983D01*
X0218491Y0316661D02*
Y0317645D01*
X0207787Y0317208D02*
X0208772D01*
X0208280Y0316716D02*
Y0317700D01*
X0227988Y0309608D02*
X0228972D01*
X0228480Y0309116D02*
Y0310100D01*
X0209288Y0319408D02*
X0210272D01*
X0209780Y0318916D02*
Y0319900D01*
X0191688Y0315108D02*
X0192672D01*
X0192180Y0314616D02*
Y0315600D01*
X0186588Y0316408D02*
X0187572D01*
X0187080Y0315916D02*
Y0316900D01*
X0207122Y0321111D02*
X0208107D01*
X0207615Y0320619D02*
Y0321603D01*
X0205188Y0323213D02*
X0206172D01*
X0205680Y0322721D02*
Y0323705D01*
X0204137Y0327008D02*
X0205122D01*
X0204630Y0326516D02*
Y0327500D01*
X0242237Y0309316D02*
X0243222D01*
X0242730Y0308824D02*
Y0309808D01*
X0244187Y0307108D02*
X0245172D01*
X0244680Y0306616D02*
Y0307600D01*
X0253688Y0312208D02*
X0254672D01*
X0254180Y0311716D02*
Y0312700D01*
X0242637Y0302694D02*
X0243622D01*
X0243130Y0302202D02*
Y0303186D01*
X0264488Y0379061D02*
X0265472D01*
X0264980Y0378568D02*
Y0379553D01*
X0262061Y0368736D02*
X0263045D01*
X0262553Y0368244D02*
Y0369228D01*
X0260934Y0397408D02*
X0261919D01*
X0261426Y0396916D02*
Y0397900D01*
X0258234Y0397508D02*
X0259219D01*
X0258727Y0397016D02*
Y0398000D01*
X0245388Y0324808D02*
X0246372D01*
X0245880Y0324316D02*
Y0325300D01*
X0235588Y0325069D02*
X0236572D01*
X0236080Y0324576D02*
Y0325561D01*
X0235588Y0327640D02*
X0236572D01*
X0236080Y0327148D02*
Y0328132D01*
X0229888Y0307008D02*
X0230872D01*
X0230380Y0306516D02*
Y0307500D01*
X0269788Y0392208D02*
X0270772D01*
X0270280Y0391716D02*
Y0392700D01*
X0270536Y0384608D02*
X0271520D01*
X0271028Y0384116D02*
Y0385100D01*
X0252087Y0372933D02*
X0253072D01*
X0252580Y0372441D02*
Y0373425D01*
X0289817Y0320054D02*
X0290802D01*
X0290310Y0319562D02*
Y0320546D01*
X0235502Y0279299D02*
X0236486D01*
X0235994Y0278806D02*
Y0279791D01*
X0221002Y0279419D02*
X0221986D01*
X0221494Y0278927D02*
Y0279911D01*
X0331588Y0396808D02*
X0332572D01*
X0332080Y0396316D02*
Y0397300D01*
X0331888Y0407707D02*
X0332872D01*
X0332380Y0407214D02*
Y0408199D01*
X0151648Y0410764D02*
X0153223D01*
X0152436Y0409977D02*
Y0411552D01*
X0269536Y0387808D02*
X0270520D01*
X0270028Y0387316D02*
Y0388300D01*
X0271916Y0370648D02*
X0272900D01*
X0272408Y0370155D02*
Y0371140D01*
X0196084Y0391008D02*
X0197068D01*
X0196576Y0390516D02*
Y0391500D01*
X0334892Y0453350D02*
X0336467D01*
X0335680Y0452563D02*
Y0454138D01*
X0325092Y0423408D02*
X0326667D01*
X0325880Y0422621D02*
Y0424196D01*
X0151888Y0419008D02*
X0152872D01*
X0152380Y0418516D02*
Y0419500D01*
X0183476Y0448200D02*
X0184460D01*
X0183968Y0447707D02*
Y0448692D01*
X0194588Y0353161D02*
X0195572D01*
X0195080Y0352669D02*
Y0353653D01*
X0194588Y0344828D02*
X0195572D01*
X0195080Y0344336D02*
Y0345320D01*
X0194588Y0278161D02*
X0195572D01*
X0195080Y0277669D02*
Y0278653D01*
X0194588Y0286495D02*
X0195572D01*
X0195080Y0286002D02*
Y0286987D01*
X0191737Y0300970D02*
X0192722D01*
X0192230Y0300478D02*
Y0301463D01*
X0194588Y0303161D02*
X0195572D01*
X0195080Y0302669D02*
Y0303653D01*
X0194588Y0311495D02*
X0195572D01*
X0195080Y0311002D02*
Y0311987D01*
X0191737Y0309304D02*
X0192722D01*
X0192230Y0308812D02*
Y0309796D01*
X0191750Y0325808D02*
X0192734D01*
X0192242Y0325316D02*
Y0326300D01*
X0186974Y0350744D02*
X0187958D01*
X0187466Y0350252D02*
Y0351237D01*
X0186974Y0342525D02*
X0187958D01*
X0187466Y0342033D02*
Y0343017D01*
X0185974Y0324944D02*
X0186958D01*
X0186466Y0324452D02*
Y0325436D01*
X0204542Y0331708D02*
X0205526D01*
X0205034Y0331216D02*
Y0332200D01*
X0205687Y0329244D02*
X0206672D01*
X0206180Y0328752D02*
Y0329736D01*
X0255387Y0444808D02*
X0256372D01*
X0255880Y0444316D02*
Y0445300D01*
X0282351Y0443240D02*
X0283335D01*
X0282843Y0442747D02*
Y0443732D01*
X0258163Y0445281D02*
X0259147D01*
X0258655Y0444789D02*
Y0445773D01*
X0255051Y0441940D02*
X0256035D01*
X0255543Y0441447D02*
Y0442432D01*
X0249480Y0442159D02*
X0250465D01*
X0249973Y0441667D02*
Y0442652D01*
X0267688Y0445308D02*
X0268672D01*
X0268180Y0444816D02*
Y0445800D01*
X0266287Y0447608D02*
X0267272D01*
X0266780Y0447116D02*
Y0448100D01*
X0280355Y0445497D02*
X0281340D01*
X0280847Y0445005D02*
Y0445989D01*
X0168763Y0492034D02*
X0169747D01*
X0169255Y0491542D02*
Y0492526D01*
X0154327Y0482148D02*
X0155311D01*
X0154819Y0481655D02*
Y0482640D01*
X0182551Y0495066D02*
X0183535D01*
X0183043Y0494574D02*
Y0495558D01*
X0154436Y0487526D02*
X0155421D01*
X0154929Y0487034D02*
Y0488018D01*
X0178561Y0479388D02*
X0179545D01*
X0179053Y0478896D02*
Y0479880D01*
X0157602Y0490298D02*
X0158586D01*
X0158094Y0489806D02*
Y0490790D01*
X0163102Y0491007D02*
X0164676D01*
X0163889Y0490219D02*
Y0491794D01*
X0180259Y0490377D02*
X0181834D01*
X0181047Y0489589D02*
Y0491164D01*
X0176915Y0489827D02*
X0177899D01*
X0177407Y0489335D02*
Y0490319D01*
X0147177Y0450227D02*
X0148751D01*
X0147964Y0449440D02*
Y0451015D01*
X0142980Y0461916D02*
X0144554D01*
X0143767Y0461129D02*
Y0462703D01*
X0277547Y0453459D02*
X0278531D01*
X0278039Y0452967D02*
Y0453952D01*
X0297208Y0453574D02*
X0298192D01*
X0297700Y0453081D02*
Y0454066D01*
X0266058Y0493294D02*
X0267043D01*
X0266550Y0492802D02*
Y0493786D01*
X0277547Y0506357D02*
X0278531D01*
X0278039Y0505865D02*
Y0506849D01*
X0310617Y0506357D02*
X0311602D01*
X0311110Y0505865D02*
Y0506849D01*
X0318956Y0461798D02*
X0319940D01*
X0319448Y0461306D02*
Y0462290D01*
X0319015Y0490085D02*
X0319999D01*
X0319507Y0489593D02*
Y0490577D01*
X0327137Y0459455D02*
X0328121D01*
X0327629Y0458963D02*
Y0459947D01*
X0273582Y0463318D02*
X0274566D01*
X0274074Y0462825D02*
Y0463810D01*
X0274693Y0487914D02*
X0275677D01*
X0275185Y0487421D02*
Y0488406D01*
X0276334Y0492983D02*
X0277318D01*
X0276826Y0492491D02*
Y0493475D01*
X0277665Y0498448D02*
X0278649D01*
X0278157Y0497955D02*
Y0498940D01*
X0288271Y0498349D02*
X0289255D01*
X0288763Y0497857D02*
Y0498841D01*
X0301177Y0453889D02*
X0302161D01*
X0301669Y0453396D02*
Y0454381D01*
X0293153Y0454140D02*
X0294137D01*
X0293645Y0453648D02*
Y0454633D01*
X0313987Y0480656D02*
X0314972D01*
X0314480Y0480164D02*
Y0481148D01*
X0313987Y0485573D02*
X0314972D01*
X0314480Y0485081D02*
Y0486066D01*
X0241319Y0477953D02*
X0242303D01*
X0241811Y0477461D02*
Y0478445D01*
X0241421Y0471916D02*
X0242405D01*
X0241913Y0471424D02*
Y0472408D01*
X0238677Y0515546D02*
X0239661D01*
X0239169Y0515054D02*
Y0516038D01*
X0254633Y0515526D02*
X0255617D01*
X0255125Y0515034D02*
Y0516018D01*
X0246960Y0515633D02*
X0247944D01*
X0247452Y0515140D02*
Y0516125D01*
X0331992Y0502148D02*
X0332976D01*
X0332484Y0501656D02*
Y0502640D01*
X0331795Y0481168D02*
X0332779D01*
X0332287Y0480676D02*
Y0481660D01*
X0331755Y0476026D02*
X0332739D01*
X0332247Y0475534D02*
Y0476518D01*
X0334739Y0473133D02*
X0335724D01*
X0335232Y0472640D02*
Y0473625D01*
X0318586Y0457073D02*
X0319570D01*
X0319078Y0456581D02*
Y0457566D01*
X0316917Y0453829D02*
X0317901D01*
X0317409Y0453337D02*
Y0454321D01*
X0307468Y0453829D02*
X0308452D01*
X0307960Y0453337D02*
Y0454321D01*
X0318704Y0477455D02*
X0319688D01*
X0319196Y0476963D02*
Y0477948D01*
X0317385Y0445140D02*
X0318369D01*
X0317877Y0444648D02*
Y0445633D01*
X0302743Y0445357D02*
X0303728D01*
X0303236Y0444865D02*
Y0445849D01*
X0257956Y0479121D02*
X0258940D01*
X0258448Y0478629D02*
Y0479613D01*
X0257956Y0490144D02*
X0258940D01*
X0258448Y0489652D02*
Y0490636D01*
X0268629Y0471010D02*
X0269614D01*
X0269121Y0470518D02*
Y0471503D01*
X0280696Y0459058D02*
X0281680D01*
X0281188Y0458566D02*
Y0459550D01*
X0294228Y0464452D02*
X0295212D01*
X0294720Y0463959D02*
Y0464944D01*
X0281739Y0477743D02*
X0282724D01*
X0282232Y0477251D02*
Y0478235D01*
X0296058Y0472613D02*
X0297043D01*
X0296550Y0472121D02*
Y0473105D01*
X0283865Y0470066D02*
X0284850D01*
X0284358Y0469573D02*
Y0470558D01*
X0304298Y0472034D02*
X0305283D01*
X0304791Y0471542D02*
Y0472526D01*
X0312842Y0468176D02*
X0313826D01*
X0313334Y0467684D02*
Y0468668D01*
X0342962Y0478608D02*
X0343946D01*
X0343454Y0478116D02*
Y0479100D01*
X0253117Y0455499D02*
X0254102D01*
X0253610Y0455007D02*
Y0455991D01*
X0248787Y0467581D02*
X0249771D01*
X0249279Y0467089D02*
Y0468074D01*
X0242287Y0490377D02*
X0243272D01*
X0242780Y0489885D02*
Y0490869D01*
X0250712Y0478030D02*
X0251696D01*
X0251204Y0477538D02*
Y0478522D01*
X0244287Y0449008D02*
X0245272D01*
X0244780Y0448516D02*
Y0449500D01*
X0299704Y0505243D02*
X0300688D01*
X0300196Y0504751D02*
Y0505735D01*
X0269547Y0504089D02*
X0270531D01*
X0270039Y0503597D02*
Y0504581D01*
X0347787Y0505608D02*
X0348772D01*
X0348280Y0505116D02*
Y0506100D01*
X0196688Y0448302D02*
X0197673D01*
X0197180Y0447810D02*
Y0448794D01*
X0196739Y0465920D02*
X0197724D01*
X0197232Y0465428D02*
Y0466412D01*
X0196846Y0492971D02*
X0197830D01*
X0197338Y0492479D02*
Y0493463D01*
X0196531Y0478766D02*
X0197515D01*
X0197023Y0478274D02*
Y0479259D01*
X0196929Y0501570D02*
X0197913D01*
X0197421Y0501078D02*
Y0502062D01*
X0140861Y0520294D02*
X0141846D01*
X0141354Y0519802D02*
Y0520786D01*
X0127074Y0504440D02*
X0128058D01*
X0127566Y0503947D02*
Y0504932D01*
X0127074Y0484219D02*
X0128058D01*
X0127566Y0483727D02*
Y0484711D01*
X0142472Y0490310D02*
X0143456D01*
X0142964Y0489818D02*
Y0490802D01*
X0147527Y0484447D02*
X0148511D01*
X0148019Y0483955D02*
Y0484940D01*
X0137759Y0479164D02*
X0138743D01*
X0138251Y0478672D02*
Y0479656D01*
X0127306Y0462160D02*
X0128291D01*
X0127798Y0461668D02*
Y0462652D01*
X0157062Y0472731D02*
X0158047D01*
X0157554Y0472239D02*
Y0473223D01*
X0157291Y0466298D02*
X0158275D01*
X0157783Y0465806D02*
Y0466790D01*
X0156373Y0457680D02*
X0157358D01*
X0156866Y0457188D02*
Y0458172D01*
X0148791Y0460550D02*
X0149775D01*
X0149283Y0460058D02*
Y0461042D01*
X0129936Y0473814D02*
X0130921D01*
X0130429Y0473322D02*
Y0474306D01*
X0179070Y0465318D02*
X0180054D01*
X0179562Y0464825D02*
Y0465810D01*
X0138456Y0466633D02*
X0139440D01*
X0138948Y0466140D02*
Y0467125D01*
X0137999Y0448845D02*
X0138984D01*
X0138491Y0448353D02*
Y0449337D01*
X0216740Y0519660D02*
X0217724D01*
X0217232Y0519168D02*
Y0520152D01*
X0217507Y0498959D02*
X0218491D01*
X0217999Y0498467D02*
Y0499451D01*
X0217507Y0480365D02*
X0218491D01*
X0217999Y0479873D02*
Y0480857D01*
X0217700Y0464648D02*
X0218684D01*
X0218192Y0464156D02*
Y0465140D01*
X0215511Y0448530D02*
X0216495D01*
X0216003Y0448038D02*
Y0449022D01*
X0255381Y0502743D02*
X0256365D01*
X0255873Y0502251D02*
Y0503235D01*
X0266810Y0519207D02*
X0267795D01*
X0267302Y0518715D02*
Y0519699D01*
X0300887Y0519508D02*
X0301872D01*
X0301380Y0519016D02*
Y0520000D01*
X0332779Y0519207D02*
X0333763D01*
X0333271Y0518715D02*
Y0519699D01*
X0229909Y0494660D02*
X0230893D01*
X0230401Y0494168D02*
Y0495152D01*
X0266058Y0464948D02*
X0267043D01*
X0266550Y0464455D02*
Y0465440D01*
X0266058Y0461798D02*
X0267043D01*
X0266550Y0461306D02*
Y0462290D01*
X0245019Y0460861D02*
X0246004D01*
X0245511Y0460369D02*
Y0461353D01*
X0245019Y0458302D02*
X0246004D01*
X0245511Y0457810D02*
Y0458794D01*
X0288570Y0506357D02*
X0289554D01*
X0289062Y0505865D02*
Y0506849D01*
X0291720Y0506357D02*
X0292704D01*
X0292212Y0505865D02*
Y0506849D01*
X0290145Y0514908D02*
X0291129D01*
X0290637Y0514416D02*
Y0515400D01*
X0268228Y0485573D02*
X0269212D01*
X0268720Y0485081D02*
Y0486066D01*
X0303826Y0483018D02*
X0304810D01*
X0304318Y0482526D02*
Y0483510D01*
X0303826Y0480459D02*
X0304810D01*
X0304318Y0479967D02*
Y0480951D01*
X0325787Y0507408D02*
X0326772D01*
X0326280Y0506916D02*
Y0507900D01*
X0257015Y0472231D02*
X0257999D01*
X0257507Y0471739D02*
Y0472723D01*
X0305637Y0494884D02*
X0306621D01*
X0306129Y0494392D02*
Y0495377D01*
X0303905Y0486788D02*
X0304889D01*
X0304397Y0486296D02*
Y0487280D01*
X0298787Y0478097D02*
X0299771D01*
X0299279Y0477605D02*
Y0478589D01*
X0296031Y0485770D02*
X0297015D01*
X0296523Y0485278D02*
Y0486263D01*
X0296228Y0493648D02*
X0297212D01*
X0296720Y0493156D02*
Y0494140D01*
X0300613Y0501837D02*
X0301598D01*
X0301105Y0501345D02*
Y0502329D01*
X0320066Y0507467D02*
X0321051D01*
X0320558Y0506975D02*
Y0507959D01*
X0314850Y0519207D02*
X0315834D01*
X0315342Y0518715D02*
Y0519699D01*
X0313078Y0496877D02*
X0314062D01*
X0313570Y0496384D02*
Y0497369D01*
X0231039Y0505519D02*
X0232023D01*
X0231531Y0505027D02*
Y0506011D01*
X0171039Y0448790D02*
X0172614D01*
X0171826Y0448003D02*
Y0449578D01*
X0223432Y0451837D02*
X0224417D01*
X0223924Y0451345D02*
Y0452329D01*
X0223511Y0481932D02*
X0224495D01*
X0224003Y0481440D02*
Y0482424D01*
X0235387Y0474008D02*
X0236372D01*
X0235880Y0473516D02*
Y0474500D01*
X0235358Y0476108D02*
X0236342D01*
X0235850Y0475616D02*
Y0476600D01*
X0162372Y0454881D02*
X0163947D01*
X0163160Y0454094D02*
Y0455669D01*
X0282636Y0496864D02*
X0283620D01*
X0283128Y0496372D02*
Y0497356D01*
X0184162Y0482081D02*
X0185146D01*
X0184654Y0481589D02*
Y0482573D01*
X0323949Y0452594D02*
X0324933D01*
X0324441Y0452102D02*
Y0453086D01*
X0293532Y0498256D02*
X0294516D01*
X0294024Y0497764D02*
Y0498748D01*
X0318956Y0494869D02*
X0319940D01*
X0319448Y0494377D02*
Y0495361D01*
X0167602Y0498266D02*
X0168389D01*
X0167995Y0497873D02*
Y0498660D01*
X0347988Y0496108D02*
X0348972D01*
X0348480Y0495616D02*
Y0496600D01*
X0343287Y0500508D02*
X0344272D01*
X0343780Y0500016D02*
Y0501000D01*
X0329527Y0479121D02*
X0330511D01*
X0330019Y0478629D02*
Y0479613D01*
X0328491Y0487782D02*
X0329476D01*
X0328984Y0487290D02*
Y0488274D01*
X0176915Y0467683D02*
X0177899D01*
X0177407Y0467191D02*
Y0468175D01*
X0168384Y0460633D02*
X0169959D01*
X0169172Y0459846D02*
Y0461421D01*
X0175716Y0473908D02*
X0176700D01*
X0176208Y0473416D02*
Y0474400D01*
X0172153Y0457933D02*
X0173137D01*
X0172645Y0457441D02*
Y0458425D01*
X0172153Y0460997D02*
X0173137D01*
X0172645Y0460504D02*
Y0461489D01*
X0168680Y0482083D02*
X0169664D01*
X0169172Y0481591D02*
Y0482575D01*
X0171239Y0482097D02*
X0172223D01*
X0171731Y0481605D02*
Y0482589D01*
X0172436Y0498787D02*
X0173224D01*
X0172830Y0498393D02*
Y0499181D01*
X0173058Y0490200D02*
X0174042D01*
X0173550Y0489708D02*
Y0490693D01*
M02*
