G04*
G04 #@! TF.GenerationSoftware,Altium Limited,Altium Designer,23.1.1 (15)*
G04*
G04 Layer_Physical_Order=2*
G04 Layer_Color=36540*
%FSAX25Y25*%
%MOIN*%
G70*
G04*
G04 #@! TF.SameCoordinates,3BE6CC82-2BF3-4767-8D6A-7EFB0FF24752*
G04*
G04*
G04 #@! TF.FilePolarity,Positive*
G04*
G01*
G75*
%ADD17C,0.00787*%
%ADD20C,0.00800*%
%ADD31C,0.01000*%
G04:AMPARAMS|DCode=100|XSize=49.21mil|YSize=27.56mil|CornerRadius=13.78mil|HoleSize=0mil|Usage=FLASHONLY|Rotation=180.000|XOffset=0mil|YOffset=0mil|HoleType=Round|Shape=RoundedRectangle|*
%AMROUNDEDRECTD100*
21,1,0.04921,0.00000,0,0,180.0*
21,1,0.02165,0.02756,0,0,180.0*
1,1,0.02756,-0.01083,0.00000*
1,1,0.02756,0.01083,0.00000*
1,1,0.02756,0.01083,0.00000*
1,1,0.02756,-0.01083,0.00000*
%
%ADD100ROUNDEDRECTD100*%
G04:AMPARAMS|DCode=101|XSize=23.62mil|YSize=74.8mil|CornerRadius=11.81mil|HoleSize=0mil|Usage=FLASHONLY|Rotation=180.000|XOffset=0mil|YOffset=0mil|HoleType=Round|Shape=RoundedRectangle|*
%AMROUNDEDRECTD101*
21,1,0.02362,0.05118,0,0,180.0*
21,1,0.00000,0.07480,0,0,180.0*
1,1,0.02362,0.00000,0.02559*
1,1,0.02362,0.00000,0.02559*
1,1,0.02362,0.00000,-0.02559*
1,1,0.02362,0.00000,-0.02559*
%
%ADD101ROUNDEDRECTD101*%
G04:AMPARAMS|DCode=102|XSize=27.56mil|YSize=59.06mil|CornerRadius=13.78mil|HoleSize=0mil|Usage=FLASHONLY|Rotation=180.000|XOffset=0mil|YOffset=0mil|HoleType=Round|Shape=RoundedRectangle|*
%AMROUNDEDRECTD102*
21,1,0.02756,0.03150,0,0,180.0*
21,1,0.00000,0.05906,0,0,180.0*
1,1,0.02756,0.00000,0.01575*
1,1,0.02756,0.00000,0.01575*
1,1,0.02756,0.00000,-0.01575*
1,1,0.02756,0.00000,-0.01575*
%
%ADD102ROUNDEDRECTD102*%
%ADD112C,0.03937*%
%ADD113C,0.03000*%
%ADD122C,0.06496*%
%ADD123C,0.05000*%
%ADD126C,0.06102*%
%ADD128C,0.01968*%
%ADD129C,0.01772*%
%ADD130C,0.02756*%
%ADD132C,0.01575*%
G36*
X0145290Y0522254D02*
X0145056Y0521950D01*
X0144719Y0521136D01*
X0144604Y0520263D01*
Y0519688D01*
X0147980D01*
Y0518688D01*
X0148980D01*
Y0513905D01*
X0149667Y0514190D01*
X0149905Y0514372D01*
X0150354Y0514151D01*
Y0509577D01*
X0150271Y0509521D01*
X0149868Y0509253D01*
X0149444Y0508831D01*
X0149173Y0508429D01*
X0148899Y0508030D01*
X0148663Y0507480D01*
X0148563Y0507007D01*
X0148457Y0506534D01*
X0148443Y0505936D01*
X0148527Y0505459D01*
X0148605Y0504981D01*
X0148815Y0504421D01*
X0149071Y0504010D01*
X0149322Y0503596D01*
X0149726Y0503155D01*
X0150116Y0502868D01*
X0150504Y0502578D01*
X0150932Y0502373D01*
X0151072Y0502197D01*
X0151170Y0501771D01*
X0150935Y0501203D01*
X0150932Y0501184D01*
X0155283D01*
X0159573D01*
X0159456Y0501467D01*
X0159790Y0501967D01*
X0182232Y0501967D01*
X0182566Y0501467D01*
X0182449Y0501184D01*
X0186740D01*
X0191090D01*
X0191087Y0501203D01*
X0190872Y0501724D01*
X0190943Y0502151D01*
X0191119Y0502336D01*
X0191494Y0502513D01*
X0191877Y0502797D01*
X0192265Y0503075D01*
X0192668Y0503504D01*
X0192920Y0503909D01*
X0193179Y0504310D01*
X0193395Y0504858D01*
X0193460Y0505211D01*
X0193563Y0505556D01*
X0193590Y0505850D01*
X0193565Y0506093D01*
X0193590Y0506337D01*
X0193560Y0506640D01*
X0193453Y0506995D01*
X0193383Y0507358D01*
X0193153Y0507920D01*
X0192881Y0508330D01*
X0192612Y0508741D01*
X0192187Y0509174D01*
X0191781Y0509451D01*
X0191669Y0509528D01*
Y0514151D01*
X0192117Y0514372D01*
X0192355Y0514190D01*
X0193043Y0513905D01*
Y0518688D01*
X0194043D01*
Y0519688D01*
X0197418D01*
Y0520263D01*
X0197303Y0521136D01*
X0196966Y0521950D01*
X0196732Y0522254D01*
X0196979Y0522754D01*
X0202684D01*
Y0448597D01*
X0201314Y0447227D01*
X0125133Y0447227D01*
Y0513657D01*
X0125633Y0513682D01*
X0125656Y0513451D01*
X0126081Y0512051D01*
X0126771Y0510760D01*
X0127700Y0509628D01*
X0128831Y0508700D01*
X0130122Y0508009D01*
X0131523Y0507585D01*
X0132980Y0507441D01*
X0134436Y0507585D01*
X0135837Y0508009D01*
X0137128Y0508700D01*
X0138260Y0509628D01*
X0139188Y0510760D01*
X0139878Y0512051D01*
X0140303Y0513451D01*
X0140447Y0514908D01*
X0140303Y0516365D01*
X0139878Y0517766D01*
X0139188Y0519057D01*
X0138260Y0520188D01*
X0137128Y0521117D01*
X0135837Y0521807D01*
X0134436Y0522232D01*
X0134206Y0522254D01*
X0134231Y0522754D01*
X0145043D01*
X0145290Y0522254D01*
D02*
G37*
G36*
X0341753D02*
X0341523Y0522232D01*
X0340122Y0521807D01*
X0338831Y0521117D01*
X0337700Y0520188D01*
X0336771Y0519057D01*
X0336081Y0517766D01*
X0335656Y0516365D01*
X0335513Y0514908D01*
X0335656Y0513451D01*
X0336081Y0512051D01*
X0336771Y0510760D01*
X0337700Y0509628D01*
X0338831Y0508700D01*
X0340122Y0508009D01*
X0341523Y0507585D01*
X0342980Y0507441D01*
X0344436Y0507585D01*
X0345837Y0508009D01*
X0347128Y0508700D01*
X0348260Y0509628D01*
X0349188Y0510760D01*
X0349878Y0512051D01*
X0350303Y0513451D01*
X0350326Y0513682D01*
X0350826Y0513657D01*
X0350826Y0422408D01*
Y0421239D01*
X0350486Y0418926D01*
X0349815Y0416687D01*
X0348825Y0414570D01*
X0348182Y0413594D01*
X0348164Y0413550D01*
X0348132Y0413515D01*
X0347459Y0412409D01*
X0347411Y0412277D01*
X0347328Y0412164D01*
X0346232Y0409820D01*
X0346187Y0409638D01*
X0346100Y0409473D01*
X0345656Y0407995D01*
X0345126Y0407968D01*
X0344937Y0408425D01*
X0344464Y0409042D01*
X0343847Y0409515D01*
X0343128Y0409812D01*
X0342358Y0409914D01*
X0341587Y0409812D01*
X0340868Y0409515D01*
X0340252Y0409042D01*
X0339778Y0408425D01*
X0339481Y0407707D01*
X0339379Y0406936D01*
X0339481Y0406165D01*
X0339778Y0405447D01*
X0340252Y0404830D01*
X0340868Y0404356D01*
X0341587Y0404059D01*
X0342358Y0403958D01*
X0343128Y0404059D01*
X0343847Y0404356D01*
X0344464Y0404830D01*
X0344516Y0404898D01*
X0344992Y0404697D01*
X0344900Y0404072D01*
X0344910Y0403885D01*
X0344873Y0403702D01*
Y0401114D01*
X0344910Y0400931D01*
X0344900Y0400744D01*
X0344992Y0400119D01*
X0344516Y0399918D01*
X0344464Y0399987D01*
X0343847Y0400460D01*
X0343128Y0400757D01*
X0342358Y0400859D01*
X0341587Y0400757D01*
X0340868Y0400460D01*
X0340252Y0399987D01*
X0339778Y0399370D01*
X0339481Y0398651D01*
X0339379Y0397881D01*
X0339481Y0397110D01*
X0339778Y0396391D01*
X0340252Y0395775D01*
X0340868Y0395301D01*
X0341587Y0395004D01*
X0342358Y0394902D01*
X0343128Y0395004D01*
X0343847Y0395301D01*
X0344464Y0395775D01*
X0344937Y0396391D01*
X0345126Y0396849D01*
X0345656Y0396822D01*
X0346100Y0395343D01*
X0346187Y0395178D01*
X0346232Y0394997D01*
X0347328Y0392653D01*
X0347411Y0392539D01*
X0347459Y0392407D01*
X0348132Y0391301D01*
X0348164Y0391266D01*
X0348182Y0391223D01*
X0348825Y0390247D01*
X0349815Y0388129D01*
X0350486Y0385890D01*
X0350826Y0383577D01*
Y0382408D01*
Y0236159D01*
X0350326Y0236134D01*
X0350303Y0236365D01*
X0349878Y0237766D01*
X0349188Y0239057D01*
X0348260Y0240188D01*
X0347128Y0241117D01*
X0345837Y0241807D01*
X0344436Y0242232D01*
X0342980Y0242375D01*
X0341523Y0242232D01*
X0340122Y0241807D01*
X0338831Y0241117D01*
X0337700Y0240188D01*
X0336771Y0239057D01*
X0336081Y0237766D01*
X0335656Y0236365D01*
X0335513Y0234908D01*
X0335656Y0233451D01*
X0336081Y0232051D01*
X0336771Y0230760D01*
X0337700Y0229628D01*
X0338831Y0228699D01*
X0340122Y0228010D01*
X0341523Y0227585D01*
X0341753Y0227562D01*
X0341729Y0227062D01*
X0134231D01*
X0134206Y0227562D01*
X0134436Y0227585D01*
X0135837Y0228010D01*
X0137128Y0228699D01*
X0138260Y0229628D01*
X0139188Y0230760D01*
X0139878Y0232051D01*
X0140303Y0233451D01*
X0140447Y0234908D01*
X0140303Y0236365D01*
X0139878Y0237766D01*
X0139188Y0239057D01*
X0138260Y0240188D01*
X0137128Y0241117D01*
X0135837Y0241807D01*
X0134436Y0242232D01*
X0132980Y0242375D01*
X0131523Y0242232D01*
X0130122Y0241807D01*
X0128831Y0241117D01*
X0127700Y0240188D01*
X0126771Y0239057D01*
X0126081Y0237766D01*
X0125656Y0236365D01*
X0125633Y0236135D01*
X0125133Y0236159D01*
X0125133Y0436727D01*
X0205531D01*
X0205849Y0436341D01*
X0205822Y0436208D01*
X0205983Y0435402D01*
X0206439Y0434718D01*
X0207123Y0434261D01*
X0207930Y0434101D01*
X0208736Y0434261D01*
X0209420Y0434718D01*
X0209877Y0435402D01*
X0210037Y0436208D01*
X0209877Y0437015D01*
X0209420Y0437698D01*
X0208736Y0438155D01*
X0208359Y0438230D01*
X0208194Y0438773D01*
X0212783Y0443361D01*
Y0522754D01*
X0341729Y0522754D01*
X0341753Y0522254D01*
D02*
G37*
%LPC*%
G36*
X0197418Y0517688D02*
X0195043D01*
Y0513905D01*
X0195730Y0514190D01*
X0196429Y0514726D01*
X0196966Y0515425D01*
X0197303Y0516240D01*
X0197418Y0517113D01*
Y0517688D01*
D02*
G37*
G36*
X0146980D02*
X0144604D01*
Y0517113D01*
X0144719Y0516240D01*
X0145056Y0515425D01*
X0145593Y0514726D01*
X0146292Y0514190D01*
X0146980Y0513905D01*
Y0517688D01*
D02*
G37*
G36*
X0172830Y0500794D02*
X0172062Y0500641D01*
X0171411Y0500207D01*
X0170976Y0499555D01*
X0170823Y0498787D01*
X0170860Y0498601D01*
X0170506Y0498169D01*
X0170083Y0498168D01*
X0170002Y0498266D01*
X0169850Y0499035D01*
X0169415Y0499686D01*
X0168763Y0500121D01*
X0167995Y0500274D01*
X0167227Y0500121D01*
X0166855Y0499872D01*
X0165157D01*
X0165157Y0499872D01*
X0164542Y0499750D01*
X0164021Y0499402D01*
X0159750Y0495130D01*
X0159402Y0494609D01*
X0159280Y0493995D01*
X0159280Y0493995D01*
Y0489456D01*
X0159280Y0489455D01*
X0159402Y0488841D01*
X0159750Y0488320D01*
X0161722Y0486348D01*
X0161722Y0486348D01*
X0162243Y0485999D01*
X0162858Y0485877D01*
X0162858Y0485877D01*
X0175063D01*
X0175063Y0485877D01*
X0175678Y0485999D01*
X0176198Y0486348D01*
X0177611Y0487760D01*
X0178213Y0487880D01*
X0178897Y0488337D01*
X0179431Y0488237D01*
X0179694Y0488035D01*
X0180347Y0487765D01*
X0181047Y0487672D01*
X0181746Y0487765D01*
X0182399Y0488035D01*
X0182959Y0488464D01*
X0183388Y0489024D01*
X0183659Y0489677D01*
X0183751Y0490377D01*
Y0491983D01*
X0183751Y0491983D01*
X0183659Y0492683D01*
X0183388Y0493335D01*
X0182959Y0493895D01*
X0182959Y0493895D01*
X0179730Y0497123D01*
X0179170Y0497553D01*
X0178518Y0497823D01*
X0178168Y0497869D01*
X0177818Y0497916D01*
X0177818Y0497916D01*
X0175171D01*
X0174763Y0498416D01*
X0174837Y0498787D01*
X0174684Y0499555D01*
X0174249Y0500207D01*
X0173598Y0500641D01*
X0172830Y0500794D01*
D02*
G37*
G36*
X0191196Y0496822D02*
X0189019D01*
Y0492268D01*
X0189607Y0492512D01*
X0190265Y0493016D01*
X0190770Y0493674D01*
X0191087Y0494440D01*
X0191196Y0495263D01*
Y0496822D01*
D02*
G37*
G36*
X0159573Y0499184D02*
X0155283D01*
X0150827D01*
Y0498822D01*
X0154003D01*
Y0497822D01*
X0155003D01*
Y0492268D01*
X0155592Y0492512D01*
X0156250Y0493016D01*
X0156754Y0493674D01*
X0157072Y0494440D01*
X0157180Y0495263D01*
Y0496916D01*
X0157239Y0496924D01*
X0158053Y0497261D01*
X0158752Y0497797D01*
X0159289Y0498496D01*
X0159573Y0499184D01*
D02*
G37*
G36*
X0191196D02*
X0186740D01*
X0182449D01*
X0182734Y0498496D01*
X0183270Y0497797D01*
X0183969Y0497261D01*
X0184783Y0496924D01*
X0184842Y0496916D01*
Y0495263D01*
X0184950Y0494440D01*
X0185268Y0493674D01*
X0185773Y0493016D01*
X0186431Y0492512D01*
X0187019Y0492268D01*
Y0497822D01*
X0188019D01*
Y0498822D01*
X0191196D01*
Y0499184D01*
D02*
G37*
G36*
X0153003Y0496822D02*
X0150827D01*
Y0495263D01*
X0150935Y0494440D01*
X0151252Y0493674D01*
X0151757Y0493016D01*
X0152415Y0492512D01*
X0153003Y0492268D01*
Y0496822D01*
D02*
G37*
G36*
X0171731Y0484205D02*
X0170924Y0484044D01*
X0170441Y0483721D01*
X0169978Y0484030D01*
X0169172Y0484191D01*
X0168365Y0484030D01*
X0167682Y0483573D01*
X0167225Y0482890D01*
X0167064Y0482083D01*
X0167225Y0481277D01*
X0167682Y0480593D01*
X0168365Y0480136D01*
X0169172Y0479976D01*
X0169978Y0480136D01*
X0170462Y0480459D01*
X0170924Y0480150D01*
X0171731Y0479990D01*
X0172537Y0480150D01*
X0173221Y0480607D01*
X0173678Y0481291D01*
X0173838Y0482097D01*
X0173678Y0482904D01*
X0173221Y0483588D01*
X0172537Y0484044D01*
X0171731Y0484205D01*
D02*
G37*
G36*
X0172645Y0463104D02*
X0171838Y0462944D01*
X0171155Y0462487D01*
X0170698Y0461803D01*
X0170537Y0460997D01*
X0170698Y0460190D01*
X0171155Y0459507D01*
Y0459423D01*
X0170698Y0458740D01*
X0170537Y0457933D01*
X0170698Y0457127D01*
X0171155Y0456443D01*
X0171838Y0455986D01*
X0172645Y0455826D01*
X0173451Y0455986D01*
X0174135Y0456443D01*
X0174592Y0457127D01*
X0174752Y0457933D01*
X0174592Y0458740D01*
X0174135Y0459423D01*
Y0459507D01*
X0174592Y0460190D01*
X0174752Y0460997D01*
X0174592Y0461803D01*
X0174135Y0462487D01*
X0173451Y0462944D01*
X0172645Y0463104D01*
D02*
G37*
%LPD*%
G36*
X0167433Y0497715D02*
X0167399Y0497745D01*
X0167360Y0497772D01*
X0167315Y0497796D01*
X0167264Y0497816D01*
X0167208Y0497833D01*
X0167146Y0497848D01*
X0167078Y0497859D01*
X0167005Y0497866D01*
X0166841Y0497873D01*
Y0498660D01*
X0166926Y0498662D01*
X0167078Y0498674D01*
X0167146Y0498685D01*
X0167208Y0498700D01*
X0167264Y0498717D01*
X0167315Y0498737D01*
X0167360Y0498761D01*
X0167399Y0498788D01*
X0167433Y0498818D01*
Y0497715D01*
D02*
G37*
G36*
X0177398Y0488941D02*
X0177334Y0488938D01*
X0177270Y0488929D01*
X0177206Y0488913D01*
X0177142Y0488890D01*
X0177077Y0488860D01*
X0177012Y0488824D01*
X0176946Y0488781D01*
X0176881Y0488731D01*
X0176815Y0488675D01*
X0176748Y0488611D01*
X0176191Y0489168D01*
X0176255Y0489235D01*
X0176311Y0489301D01*
X0176361Y0489366D01*
X0176404Y0489432D01*
X0176440Y0489497D01*
X0176470Y0489562D01*
X0176493Y0489626D01*
X0176509Y0489690D01*
X0176518Y0489754D01*
X0176521Y0489818D01*
X0177398Y0488941D01*
D02*
G37*
%LPC*%
G36*
X0292212Y0508464D02*
X0291406Y0508304D01*
X0290722Y0507847D01*
X0290552D01*
X0289869Y0508304D01*
X0289062Y0508464D01*
X0288256Y0508304D01*
X0287572Y0507847D01*
X0287115Y0507163D01*
X0286955Y0506357D01*
X0287115Y0505550D01*
X0287572Y0504867D01*
X0288256Y0504410D01*
X0289062Y0504250D01*
X0289869Y0504410D01*
X0290552Y0504867D01*
X0290722D01*
X0291406Y0504410D01*
X0292212Y0504250D01*
X0293018Y0504410D01*
X0293702Y0504867D01*
X0294159Y0505550D01*
X0294319Y0506357D01*
X0294159Y0507163D01*
X0293702Y0507847D01*
X0293018Y0508304D01*
X0292212Y0508464D01*
D02*
G37*
G36*
X0326280Y0509516D02*
X0325473Y0509355D01*
X0324790Y0508898D01*
X0324333Y0508215D01*
X0324172Y0507408D01*
X0324333Y0506602D01*
X0324790Y0505918D01*
X0325473Y0505461D01*
X0326280Y0505301D01*
X0327086Y0505461D01*
X0327770Y0505918D01*
X0328227Y0506602D01*
X0328387Y0507408D01*
X0328227Y0508215D01*
X0327770Y0508898D01*
X0327086Y0509355D01*
X0326280Y0509516D01*
D02*
G37*
G36*
X0311110Y0508464D02*
X0310303Y0508304D01*
X0309619Y0507847D01*
X0309163Y0507163D01*
X0309002Y0506357D01*
X0309163Y0505550D01*
X0309619Y0504867D01*
X0310303Y0504410D01*
X0311110Y0504250D01*
X0311916Y0504410D01*
X0312600Y0504867D01*
X0313057Y0505550D01*
X0313217Y0506357D01*
X0313057Y0507163D01*
X0312600Y0507847D01*
X0311916Y0508304D01*
X0311110Y0508464D01*
D02*
G37*
G36*
X0278039D02*
X0277232Y0508304D01*
X0276549Y0507847D01*
X0276092Y0507163D01*
X0275931Y0506357D01*
X0276092Y0505550D01*
X0276549Y0504867D01*
X0277232Y0504410D01*
X0278039Y0504250D01*
X0278845Y0504410D01*
X0279529Y0504867D01*
X0279986Y0505550D01*
X0280146Y0506357D01*
X0279986Y0507163D01*
X0279529Y0507847D01*
X0278845Y0508304D01*
X0278039Y0508464D01*
D02*
G37*
G36*
X0319448Y0496976D02*
X0318642Y0496816D01*
X0317958Y0496359D01*
X0317501Y0495675D01*
X0317341Y0494869D01*
X0317501Y0494062D01*
X0317958Y0493379D01*
X0318642Y0492922D01*
X0319448Y0492761D01*
X0320255Y0492922D01*
X0320938Y0493379D01*
X0321395Y0494062D01*
X0321556Y0494869D01*
X0321395Y0495675D01*
X0320938Y0496359D01*
X0320255Y0496816D01*
X0319448Y0496976D01*
D02*
G37*
G36*
X0266550Y0495401D02*
X0265744Y0495241D01*
X0265060Y0494784D01*
X0264603Y0494101D01*
X0264443Y0493294D01*
X0264603Y0492487D01*
X0265060Y0491804D01*
X0265744Y0491347D01*
X0266550Y0491187D01*
X0267357Y0491347D01*
X0268041Y0491804D01*
X0268497Y0492487D01*
X0268658Y0493294D01*
X0268497Y0494101D01*
X0268041Y0494784D01*
X0267357Y0495241D01*
X0266550Y0495401D01*
D02*
G37*
G36*
X0319507Y0492193D02*
X0318701Y0492032D01*
X0318017Y0491575D01*
X0317560Y0490892D01*
X0317400Y0490085D01*
X0317560Y0489279D01*
X0318017Y0488595D01*
X0318701Y0488138D01*
X0319507Y0487978D01*
X0320314Y0488138D01*
X0320997Y0488595D01*
X0321454Y0489279D01*
X0321615Y0490085D01*
X0321454Y0490892D01*
X0320997Y0491575D01*
X0320314Y0492032D01*
X0319507Y0492193D01*
D02*
G37*
G36*
X0268720Y0487681D02*
X0267913Y0487521D01*
X0267230Y0487064D01*
X0266773Y0486380D01*
X0266612Y0485573D01*
X0266773Y0484767D01*
X0267230Y0484083D01*
X0267913Y0483627D01*
X0268720Y0483466D01*
X0269526Y0483627D01*
X0270210Y0484083D01*
X0270667Y0484767D01*
X0270827Y0485573D01*
X0270667Y0486380D01*
X0270210Y0487064D01*
X0269526Y0487521D01*
X0268720Y0487681D01*
D02*
G37*
G36*
X0304318Y0485126D02*
X0303512Y0484965D01*
X0302828Y0484509D01*
X0302371Y0483825D01*
X0302211Y0483018D01*
X0302371Y0482212D01*
X0302687Y0481739D01*
X0302371Y0481266D01*
X0302211Y0480459D01*
X0302371Y0479653D01*
X0302828Y0478969D01*
X0303512Y0478512D01*
X0304318Y0478352D01*
X0305125Y0478512D01*
X0305808Y0478969D01*
X0306265Y0479653D01*
X0306426Y0480459D01*
X0306265Y0481266D01*
X0305949Y0481739D01*
X0306265Y0482212D01*
X0306426Y0483018D01*
X0306265Y0483825D01*
X0305808Y0484509D01*
X0305125Y0484965D01*
X0304318Y0485126D01*
D02*
G37*
G36*
X0319196Y0479563D02*
X0318390Y0479402D01*
X0317706Y0478946D01*
X0317249Y0478262D01*
X0317089Y0477455D01*
X0317249Y0476649D01*
X0317706Y0475965D01*
X0318390Y0475508D01*
X0319196Y0475348D01*
X0320003Y0475508D01*
X0320686Y0475965D01*
X0321143Y0476649D01*
X0321304Y0477455D01*
X0321143Y0478262D01*
X0320686Y0478946D01*
X0320003Y0479402D01*
X0319196Y0479563D01*
D02*
G37*
G36*
X0235850Y0478216D02*
X0235043Y0478055D01*
X0234360Y0477598D01*
X0233903Y0476915D01*
X0233742Y0476108D01*
X0233903Y0475302D01*
X0234080Y0475036D01*
X0233933Y0474815D01*
X0233772Y0474008D01*
X0233933Y0473202D01*
X0234389Y0472518D01*
X0235073Y0472061D01*
X0235880Y0471901D01*
X0236686Y0472061D01*
X0237370Y0472518D01*
X0237827Y0473202D01*
X0237987Y0474008D01*
X0237827Y0474815D01*
X0237649Y0475081D01*
X0237797Y0475302D01*
X0237957Y0476108D01*
X0237797Y0476915D01*
X0237340Y0477598D01*
X0236656Y0478055D01*
X0235850Y0478216D01*
D02*
G37*
G36*
X0319448Y0463905D02*
X0318642Y0463745D01*
X0317958Y0463288D01*
X0317501Y0462604D01*
X0317341Y0461798D01*
X0317501Y0460991D01*
X0317958Y0460308D01*
X0318642Y0459851D01*
X0319448Y0459691D01*
X0320255Y0459851D01*
X0320938Y0460308D01*
X0321395Y0460991D01*
X0321556Y0461798D01*
X0321395Y0462604D01*
X0320938Y0463288D01*
X0320255Y0463745D01*
X0319448Y0463905D01*
D02*
G37*
G36*
X0266550Y0467055D02*
X0265744Y0466894D01*
X0265060Y0466438D01*
X0264603Y0465754D01*
X0264443Y0464948D01*
X0264603Y0464141D01*
X0265060Y0463457D01*
Y0463288D01*
X0264603Y0462604D01*
X0264443Y0461798D01*
X0264603Y0460991D01*
X0265060Y0460308D01*
X0265744Y0459851D01*
X0266550Y0459691D01*
X0267357Y0459851D01*
X0268041Y0460308D01*
X0268497Y0460991D01*
X0268658Y0461798D01*
X0268497Y0462604D01*
X0268041Y0463288D01*
Y0463457D01*
X0268497Y0464141D01*
X0268658Y0464948D01*
X0268497Y0465754D01*
X0268041Y0466438D01*
X0267357Y0466894D01*
X0266550Y0467055D01*
D02*
G37*
G36*
X0327629Y0461563D02*
X0326823Y0461402D01*
X0326139Y0460946D01*
X0325682Y0460262D01*
X0325522Y0459455D01*
X0325682Y0458649D01*
X0326139Y0457965D01*
X0326823Y0457508D01*
X0327629Y0457348D01*
X0328436Y0457508D01*
X0329119Y0457965D01*
X0329576Y0458649D01*
X0329737Y0459455D01*
X0329576Y0460262D01*
X0329119Y0460946D01*
X0328436Y0461402D01*
X0327629Y0461563D01*
D02*
G37*
G36*
X0245511Y0462968D02*
X0244705Y0462808D01*
X0244021Y0462351D01*
X0243564Y0461668D01*
X0243404Y0460861D01*
X0243564Y0460055D01*
X0243881Y0459582D01*
X0243564Y0459108D01*
X0243404Y0458302D01*
X0243564Y0457495D01*
X0244021Y0456812D01*
X0244705Y0456355D01*
X0245511Y0456194D01*
X0246318Y0456355D01*
X0247002Y0456812D01*
X0247458Y0457495D01*
X0247619Y0458302D01*
X0247458Y0459108D01*
X0247142Y0459582D01*
X0247458Y0460055D01*
X0247619Y0460861D01*
X0247458Y0461668D01*
X0247002Y0462351D01*
X0246318Y0462808D01*
X0245511Y0462968D01*
D02*
G37*
G36*
X0290580Y0455816D02*
X0289774Y0455655D01*
X0289090Y0455198D01*
X0288633Y0454515D01*
X0288473Y0453708D01*
X0288633Y0452902D01*
X0289090Y0452218D01*
X0289774Y0451761D01*
X0290580Y0451601D01*
X0291387Y0451761D01*
X0292070Y0452218D01*
X0292527Y0452902D01*
X0292688Y0453708D01*
X0292527Y0454515D01*
X0292070Y0455198D01*
X0291387Y0455655D01*
X0290580Y0455816D01*
D02*
G37*
G36*
X0297700Y0455681D02*
X0296894Y0455520D01*
X0296210Y0455064D01*
X0295753Y0454380D01*
X0295593Y0453574D01*
X0295753Y0452767D01*
X0296210Y0452083D01*
X0296894Y0451626D01*
X0297700Y0451466D01*
X0298507Y0451626D01*
X0299190Y0452083D01*
X0299647Y0452767D01*
X0299808Y0453574D01*
X0299647Y0454380D01*
X0299190Y0455064D01*
X0298507Y0455520D01*
X0297700Y0455681D01*
D02*
G37*
G36*
X0278039Y0455567D02*
X0277232Y0455406D01*
X0276549Y0454950D01*
X0276092Y0454266D01*
X0275931Y0453459D01*
X0276092Y0452653D01*
X0276549Y0451969D01*
X0277232Y0451512D01*
X0278039Y0451352D01*
X0278845Y0451512D01*
X0279529Y0451969D01*
X0279986Y0452653D01*
X0280146Y0453459D01*
X0279986Y0454266D01*
X0279529Y0454950D01*
X0278845Y0455406D01*
X0278039Y0455567D01*
D02*
G37*
G36*
X0335680Y0455932D02*
X0335012Y0455844D01*
X0334389Y0455586D01*
X0333855Y0455176D01*
X0333444Y0454641D01*
X0333187Y0454019D01*
X0333099Y0453350D01*
X0333187Y0452682D01*
X0333444Y0452060D01*
X0333855Y0451525D01*
X0334389Y0451115D01*
X0335012Y0450857D01*
X0335680Y0450769D01*
X0336348Y0450857D01*
X0336970Y0451115D01*
X0337505Y0451525D01*
X0337915Y0452060D01*
X0338173Y0452682D01*
X0338261Y0453350D01*
X0338173Y0454019D01*
X0337915Y0454641D01*
X0337505Y0455176D01*
X0336970Y0455586D01*
X0336348Y0455844D01*
X0335680Y0455932D01*
D02*
G37*
G36*
X0252292Y0451191D02*
X0251486Y0451030D01*
X0250802Y0450573D01*
X0250345Y0449890D01*
X0250185Y0449083D01*
X0250345Y0448277D01*
X0250802Y0447593D01*
X0251486Y0447136D01*
X0252292Y0446976D01*
X0253099Y0447136D01*
X0253783Y0447593D01*
X0254240Y0448277D01*
X0254400Y0449083D01*
X0254240Y0449890D01*
X0253783Y0450573D01*
X0253099Y0451030D01*
X0252292Y0451191D01*
D02*
G37*
G36*
X0258655Y0447388D02*
X0257849Y0447228D01*
X0257165Y0446771D01*
X0257010Y0446539D01*
X0256686Y0446755D01*
X0255880Y0446916D01*
X0255073Y0446755D01*
X0254390Y0446298D01*
X0253933Y0445615D01*
X0253772Y0444808D01*
X0253933Y0444002D01*
X0254234Y0443551D01*
X0254052Y0443430D01*
X0253596Y0442746D01*
X0253435Y0441940D01*
X0253596Y0441133D01*
X0254052Y0440449D01*
X0254736Y0439993D01*
X0255543Y0439832D01*
X0256349Y0439993D01*
X0257033Y0440449D01*
X0257490Y0441133D01*
X0257650Y0441940D01*
X0257490Y0442746D01*
X0257189Y0443197D01*
X0257370Y0443318D01*
X0257525Y0443550D01*
X0257849Y0443334D01*
X0258655Y0443173D01*
X0259462Y0443334D01*
X0260145Y0443790D01*
X0260602Y0444474D01*
X0260763Y0445281D01*
X0260602Y0446087D01*
X0260145Y0446771D01*
X0259462Y0447228D01*
X0258655Y0447388D01*
D02*
G37*
G36*
X0280847Y0447605D02*
X0280041Y0447444D01*
X0279357Y0446987D01*
X0278900Y0446304D01*
X0278740Y0445497D01*
X0278900Y0444691D01*
X0279357Y0444007D01*
X0280041Y0443550D01*
X0280847Y0443390D01*
X0281654Y0443550D01*
X0282337Y0444007D01*
X0282794Y0444691D01*
X0282955Y0445497D01*
X0282794Y0446304D01*
X0282337Y0446987D01*
X0281654Y0447444D01*
X0280847Y0447605D01*
D02*
G37*
G36*
X0266780Y0449716D02*
X0265973Y0449555D01*
X0265289Y0449098D01*
X0264833Y0448415D01*
X0264672Y0447608D01*
X0264833Y0446802D01*
X0265289Y0446118D01*
X0265973Y0445661D01*
X0266136Y0445629D01*
X0266072Y0445308D01*
X0266233Y0444502D01*
X0266689Y0443818D01*
X0267373Y0443361D01*
X0268180Y0443201D01*
X0268986Y0443361D01*
X0269670Y0443818D01*
X0270127Y0444502D01*
X0270287Y0445308D01*
X0270127Y0446115D01*
X0269670Y0446798D01*
X0268986Y0447255D01*
X0268823Y0447288D01*
X0268887Y0447608D01*
X0268727Y0448415D01*
X0268270Y0449098D01*
X0267586Y0449555D01*
X0266780Y0449716D01*
D02*
G37*
G36*
X0249973Y0444267D02*
X0249166Y0444106D01*
X0248482Y0443649D01*
X0248026Y0442966D01*
X0247865Y0442159D01*
X0248026Y0441353D01*
X0248482Y0440669D01*
X0249166Y0440212D01*
X0249973Y0440052D01*
X0250779Y0440212D01*
X0251463Y0440669D01*
X0251920Y0441353D01*
X0252080Y0442159D01*
X0251920Y0442966D01*
X0251463Y0443649D01*
X0250779Y0444106D01*
X0249973Y0444267D01*
D02*
G37*
G36*
X0325880Y0425989D02*
X0325212Y0425901D01*
X0324589Y0425643D01*
X0324055Y0425233D01*
X0323644Y0424699D01*
X0323387Y0424076D01*
X0323299Y0423408D01*
X0323387Y0422740D01*
X0323644Y0422118D01*
X0324055Y0421583D01*
X0324589Y0421173D01*
X0325212Y0420915D01*
X0325880Y0420827D01*
X0326548Y0420915D01*
X0327170Y0421173D01*
X0327705Y0421583D01*
X0328115Y0422118D01*
X0328373Y0422740D01*
X0328461Y0423408D01*
X0328373Y0424076D01*
X0328115Y0424699D01*
X0327705Y0425233D01*
X0327170Y0425643D01*
X0326548Y0425901D01*
X0325880Y0425989D01*
D02*
G37*
G36*
X0130230Y0424989D02*
X0129562Y0424901D01*
X0128939Y0424644D01*
X0128404Y0424233D01*
X0127994Y0423699D01*
X0127736Y0423076D01*
X0127648Y0422408D01*
X0127736Y0421740D01*
X0127994Y0421118D01*
X0128404Y0420583D01*
X0128939Y0420173D01*
X0129562Y0419915D01*
X0130230Y0419827D01*
X0130898Y0419915D01*
X0131520Y0420173D01*
X0132055Y0420583D01*
X0132465Y0421118D01*
X0132723Y0421740D01*
X0132811Y0422408D01*
X0132723Y0423076D01*
X0132465Y0423699D01*
X0132055Y0424233D01*
X0131520Y0424644D01*
X0130898Y0424901D01*
X0130230Y0424989D01*
D02*
G37*
G36*
X0152380Y0421116D02*
X0151573Y0420955D01*
X0150890Y0420498D01*
X0150433Y0419815D01*
X0150272Y0419008D01*
X0150433Y0418202D01*
X0150890Y0417518D01*
X0151573Y0417061D01*
X0152380Y0416901D01*
X0153186Y0417061D01*
X0153870Y0417518D01*
X0154327Y0418202D01*
X0154487Y0419008D01*
X0154327Y0419815D01*
X0153870Y0420498D01*
X0153186Y0420955D01*
X0152380Y0421116D01*
D02*
G37*
G36*
X0288959Y0424963D02*
X0282667D01*
X0282128Y0424856D01*
X0281671Y0424550D01*
X0281366Y0424093D01*
X0281258Y0423554D01*
Y0417263D01*
X0281366Y0416723D01*
X0281671Y0416266D01*
X0282128Y0415961D01*
X0282667Y0415854D01*
X0288959D01*
X0289498Y0415961D01*
X0289955Y0416266D01*
X0290260Y0416723D01*
X0290368Y0417263D01*
Y0423554D01*
X0290260Y0424093D01*
X0289955Y0424550D01*
X0289498Y0424856D01*
X0288959Y0424963D01*
D02*
G37*
G36*
X0211240D02*
X0204949D01*
X0204409Y0424856D01*
X0203952Y0424550D01*
X0203647Y0424093D01*
X0203540Y0423554D01*
Y0417263D01*
X0203647Y0416723D01*
X0203952Y0416266D01*
X0204409Y0415961D01*
X0204949Y0415854D01*
X0211240D01*
X0211779Y0415961D01*
X0212236Y0416266D01*
X0212542Y0416723D01*
X0212649Y0417263D01*
Y0423554D01*
X0212542Y0424093D01*
X0212236Y0424550D01*
X0211779Y0424856D01*
X0211240Y0424963D01*
D02*
G37*
G36*
X0275813Y0424975D02*
X0274631Y0424819D01*
X0273530Y0424363D01*
X0272584Y0423637D01*
X0271858Y0422691D01*
X0271402Y0421590D01*
X0271246Y0420408D01*
X0271402Y0419226D01*
X0271858Y0418125D01*
X0272584Y0417179D01*
X0273530Y0416453D01*
X0274631Y0415997D01*
X0275813Y0415841D01*
X0276995Y0415997D01*
X0278096Y0416453D01*
X0279042Y0417179D01*
X0279768Y0418125D01*
X0280224Y0419226D01*
X0280380Y0420408D01*
X0280224Y0421590D01*
X0279768Y0422691D01*
X0279042Y0423637D01*
X0278096Y0424363D01*
X0276995Y0424819D01*
X0275813Y0424975D01*
D02*
G37*
G36*
X0265813D02*
X0264631Y0424819D01*
X0263530Y0424363D01*
X0262584Y0423637D01*
X0261858Y0422691D01*
X0261402Y0421590D01*
X0261246Y0420408D01*
X0261402Y0419226D01*
X0261858Y0418125D01*
X0262584Y0417179D01*
X0263530Y0416453D01*
X0264631Y0415997D01*
X0265813Y0415841D01*
X0266995Y0415997D01*
X0268096Y0416453D01*
X0269042Y0417179D01*
X0269768Y0418125D01*
X0270224Y0419226D01*
X0270380Y0420408D01*
X0270224Y0421590D01*
X0269768Y0422691D01*
X0269042Y0423637D01*
X0268096Y0424363D01*
X0266995Y0424819D01*
X0265813Y0424975D01*
D02*
G37*
G36*
X0255813D02*
X0254631Y0424819D01*
X0253530Y0424363D01*
X0252584Y0423637D01*
X0251858Y0422691D01*
X0251402Y0421590D01*
X0251246Y0420408D01*
X0251402Y0419226D01*
X0251858Y0418125D01*
X0252584Y0417179D01*
X0253530Y0416453D01*
X0254631Y0415997D01*
X0255813Y0415841D01*
X0256995Y0415997D01*
X0258096Y0416453D01*
X0259042Y0417179D01*
X0259768Y0418125D01*
X0260224Y0419226D01*
X0260380Y0420408D01*
X0260224Y0421590D01*
X0259768Y0422691D01*
X0259042Y0423637D01*
X0258096Y0424363D01*
X0256995Y0424819D01*
X0255813Y0424975D01*
D02*
G37*
G36*
X0245813D02*
X0244631Y0424819D01*
X0243530Y0424363D01*
X0242584Y0423637D01*
X0241858Y0422691D01*
X0241402Y0421590D01*
X0241246Y0420408D01*
X0241402Y0419226D01*
X0241858Y0418125D01*
X0242584Y0417179D01*
X0243530Y0416453D01*
X0244631Y0415997D01*
X0245813Y0415841D01*
X0246995Y0415997D01*
X0248096Y0416453D01*
X0249042Y0417179D01*
X0249768Y0418125D01*
X0250224Y0419226D01*
X0250380Y0420408D01*
X0250224Y0421590D01*
X0249768Y0422691D01*
X0249042Y0423637D01*
X0248096Y0424363D01*
X0246995Y0424819D01*
X0245813Y0424975D01*
D02*
G37*
G36*
X0235813D02*
X0234631Y0424819D01*
X0233530Y0424363D01*
X0232584Y0423637D01*
X0231858Y0422691D01*
X0231402Y0421590D01*
X0231246Y0420408D01*
X0231402Y0419226D01*
X0231858Y0418125D01*
X0232584Y0417179D01*
X0233530Y0416453D01*
X0234631Y0415997D01*
X0235813Y0415841D01*
X0236995Y0415997D01*
X0238096Y0416453D01*
X0239042Y0417179D01*
X0239768Y0418125D01*
X0240224Y0419226D01*
X0240380Y0420408D01*
X0240224Y0421590D01*
X0239768Y0422691D01*
X0239042Y0423637D01*
X0238096Y0424363D01*
X0236995Y0424819D01*
X0235813Y0424975D01*
D02*
G37*
G36*
X0218094D02*
X0216912Y0424819D01*
X0215811Y0424363D01*
X0214865Y0423637D01*
X0214140Y0422691D01*
X0213683Y0421590D01*
X0213528Y0420408D01*
X0213683Y0419226D01*
X0214140Y0418125D01*
X0214865Y0417179D01*
X0215811Y0416453D01*
X0216912Y0415997D01*
X0218094Y0415841D01*
X0219276Y0415997D01*
X0220378Y0416453D01*
X0221323Y0417179D01*
X0222049Y0418125D01*
X0222505Y0419226D01*
X0222661Y0420408D01*
X0222505Y0421590D01*
X0222049Y0422691D01*
X0221323Y0423637D01*
X0220378Y0424363D01*
X0219276Y0424819D01*
X0218094Y0424975D01*
D02*
G37*
G36*
X0152436Y0413345D02*
X0151768Y0413257D01*
X0151145Y0412999D01*
X0150610Y0412589D01*
X0150200Y0412055D01*
X0149942Y0411432D01*
X0149854Y0410764D01*
X0149942Y0410096D01*
X0150200Y0409474D01*
X0150610Y0408939D01*
X0151145Y0408529D01*
X0151768Y0408271D01*
X0152436Y0408183D01*
X0153104Y0408271D01*
X0153726Y0408529D01*
X0154261Y0408939D01*
X0154671Y0409474D01*
X0154929Y0410096D01*
X0155017Y0410764D01*
X0154929Y0411432D01*
X0154671Y0412055D01*
X0154261Y0412589D01*
X0153726Y0412999D01*
X0153104Y0413257D01*
X0152436Y0413345D01*
D02*
G37*
G36*
X0285813Y0414975D02*
X0284631Y0414819D01*
X0283530Y0414363D01*
X0282584Y0413637D01*
X0281858Y0412691D01*
X0281402Y0411590D01*
X0281246Y0410408D01*
X0281402Y0409226D01*
X0281858Y0408125D01*
X0282584Y0407179D01*
X0283530Y0406453D01*
X0284631Y0405997D01*
X0285813Y0405841D01*
X0286995Y0405997D01*
X0288096Y0406453D01*
X0289042Y0407179D01*
X0289768Y0408125D01*
X0290224Y0409226D01*
X0290380Y0410408D01*
X0290224Y0411590D01*
X0289768Y0412691D01*
X0289042Y0413637D01*
X0288096Y0414363D01*
X0286995Y0414819D01*
X0285813Y0414975D01*
D02*
G37*
G36*
X0275813D02*
X0274631Y0414819D01*
X0273530Y0414363D01*
X0272584Y0413637D01*
X0271858Y0412691D01*
X0271402Y0411590D01*
X0271246Y0410408D01*
X0271402Y0409226D01*
X0271858Y0408125D01*
X0272584Y0407179D01*
X0273530Y0406453D01*
X0274631Y0405997D01*
X0275813Y0405841D01*
X0276995Y0405997D01*
X0278096Y0406453D01*
X0279042Y0407179D01*
X0279768Y0408125D01*
X0280224Y0409226D01*
X0280380Y0410408D01*
X0280224Y0411590D01*
X0279768Y0412691D01*
X0279042Y0413637D01*
X0278096Y0414363D01*
X0276995Y0414819D01*
X0275813Y0414975D01*
D02*
G37*
G36*
X0265813D02*
X0264631Y0414819D01*
X0263530Y0414363D01*
X0262584Y0413637D01*
X0261858Y0412691D01*
X0261402Y0411590D01*
X0261246Y0410408D01*
X0261402Y0409226D01*
X0261858Y0408125D01*
X0262584Y0407179D01*
X0263530Y0406453D01*
X0264631Y0405997D01*
X0265813Y0405841D01*
X0266995Y0405997D01*
X0268096Y0406453D01*
X0269042Y0407179D01*
X0269768Y0408125D01*
X0270224Y0409226D01*
X0270380Y0410408D01*
X0270224Y0411590D01*
X0269768Y0412691D01*
X0269042Y0413637D01*
X0268096Y0414363D01*
X0266995Y0414819D01*
X0265813Y0414975D01*
D02*
G37*
G36*
X0255813D02*
X0254631Y0414819D01*
X0253530Y0414363D01*
X0252584Y0413637D01*
X0251858Y0412691D01*
X0251402Y0411590D01*
X0251246Y0410408D01*
X0251402Y0409226D01*
X0251858Y0408125D01*
X0252584Y0407179D01*
X0253530Y0406453D01*
X0254631Y0405997D01*
X0255813Y0405841D01*
X0256995Y0405997D01*
X0258096Y0406453D01*
X0259042Y0407179D01*
X0259768Y0408125D01*
X0260224Y0409226D01*
X0260380Y0410408D01*
X0260224Y0411590D01*
X0259768Y0412691D01*
X0259042Y0413637D01*
X0258096Y0414363D01*
X0256995Y0414819D01*
X0255813Y0414975D01*
D02*
G37*
G36*
X0245813D02*
X0244631Y0414819D01*
X0243530Y0414363D01*
X0242584Y0413637D01*
X0241858Y0412691D01*
X0241402Y0411590D01*
X0241246Y0410408D01*
X0241402Y0409226D01*
X0241858Y0408125D01*
X0242584Y0407179D01*
X0243530Y0406453D01*
X0244631Y0405997D01*
X0245813Y0405841D01*
X0246995Y0405997D01*
X0248096Y0406453D01*
X0249042Y0407179D01*
X0249768Y0408125D01*
X0250224Y0409226D01*
X0250380Y0410408D01*
X0250224Y0411590D01*
X0249768Y0412691D01*
X0249042Y0413637D01*
X0248096Y0414363D01*
X0246995Y0414819D01*
X0245813Y0414975D01*
D02*
G37*
G36*
X0235813D02*
X0234631Y0414819D01*
X0233530Y0414363D01*
X0232584Y0413637D01*
X0231858Y0412691D01*
X0231402Y0411590D01*
X0231246Y0410408D01*
X0231402Y0409226D01*
X0231858Y0408125D01*
X0232584Y0407179D01*
X0233530Y0406453D01*
X0234631Y0405997D01*
X0235813Y0405841D01*
X0236995Y0405997D01*
X0238096Y0406453D01*
X0239042Y0407179D01*
X0239768Y0408125D01*
X0240224Y0409226D01*
X0240380Y0410408D01*
X0240224Y0411590D01*
X0239768Y0412691D01*
X0239042Y0413637D01*
X0238096Y0414363D01*
X0236995Y0414819D01*
X0235813Y0414975D01*
D02*
G37*
G36*
X0218094D02*
X0216912Y0414819D01*
X0215811Y0414363D01*
X0214865Y0413637D01*
X0214140Y0412691D01*
X0213683Y0411590D01*
X0213528Y0410408D01*
X0213683Y0409226D01*
X0214140Y0408125D01*
X0214865Y0407179D01*
X0215811Y0406453D01*
X0216912Y0405997D01*
X0218094Y0405841D01*
X0219276Y0405997D01*
X0220378Y0406453D01*
X0221323Y0407179D01*
X0222049Y0408125D01*
X0222505Y0409226D01*
X0222661Y0410408D01*
X0222505Y0411590D01*
X0222049Y0412691D01*
X0221323Y0413637D01*
X0220378Y0414363D01*
X0219276Y0414819D01*
X0218094Y0414975D01*
D02*
G37*
G36*
X0208094D02*
X0206912Y0414819D01*
X0205811Y0414363D01*
X0204865Y0413637D01*
X0204139Y0412691D01*
X0203683Y0411590D01*
X0203528Y0410408D01*
X0203683Y0409226D01*
X0204139Y0408125D01*
X0204865Y0407179D01*
X0205811Y0406453D01*
X0206912Y0405997D01*
X0208094Y0405841D01*
X0209276Y0405997D01*
X0210378Y0406453D01*
X0211323Y0407179D01*
X0212049Y0408125D01*
X0212505Y0409226D01*
X0212661Y0410408D01*
X0212505Y0411590D01*
X0212049Y0412691D01*
X0211323Y0413637D01*
X0210378Y0414363D01*
X0209276Y0414819D01*
X0208094Y0414975D01*
D02*
G37*
G36*
X0332380Y0409814D02*
X0331573Y0409654D01*
X0330890Y0409197D01*
X0330433Y0408513D01*
X0330272Y0407707D01*
X0330433Y0406900D01*
X0330890Y0406216D01*
X0331573Y0405760D01*
X0332380Y0405599D01*
X0333186Y0405760D01*
X0333870Y0406216D01*
X0334327Y0406900D01*
X0334487Y0407707D01*
X0334327Y0408513D01*
X0333870Y0409197D01*
X0333186Y0409654D01*
X0332380Y0409814D01*
D02*
G37*
G36*
X0299708Y0403148D02*
X0298902Y0402987D01*
X0298218Y0402530D01*
X0297761Y0401847D01*
X0297601Y0401040D01*
X0297761Y0400234D01*
X0298218Y0399550D01*
X0298902Y0399093D01*
X0299708Y0398933D01*
X0300515Y0399093D01*
X0301198Y0399550D01*
X0301655Y0400234D01*
X0301815Y0401040D01*
X0301655Y0401847D01*
X0301198Y0402530D01*
X0300515Y0402987D01*
X0299708Y0403148D01*
D02*
G37*
G36*
X0258727Y0399616D02*
X0257920Y0399455D01*
X0257236Y0398998D01*
X0256780Y0398315D01*
X0256619Y0397508D01*
X0256780Y0396702D01*
X0257236Y0396018D01*
X0257920Y0395561D01*
X0258727Y0395401D01*
X0259533Y0395561D01*
X0260002Y0395874D01*
X0260620Y0395461D01*
X0261426Y0395301D01*
X0262233Y0395461D01*
X0262917Y0395918D01*
X0263373Y0396602D01*
X0263534Y0397408D01*
X0263373Y0398215D01*
X0262917Y0398898D01*
X0262233Y0399355D01*
X0261426Y0399516D01*
X0260620Y0399355D01*
X0260151Y0399042D01*
X0259533Y0399455D01*
X0258727Y0399616D01*
D02*
G37*
G36*
X0291740Y0399468D02*
X0290934Y0399308D01*
X0290250Y0398851D01*
X0289793Y0398168D01*
X0289633Y0397361D01*
X0289793Y0396555D01*
X0290250Y0395871D01*
X0290934Y0395414D01*
X0291740Y0395254D01*
X0292547Y0395414D01*
X0293230Y0395871D01*
X0293687Y0396555D01*
X0293847Y0397361D01*
X0293687Y0398168D01*
X0293230Y0398851D01*
X0292547Y0399308D01*
X0291740Y0399468D01*
D02*
G37*
G36*
X0332080Y0398916D02*
X0331273Y0398755D01*
X0330590Y0398298D01*
X0330133Y0397615D01*
X0329972Y0396808D01*
X0330133Y0396002D01*
X0330590Y0395318D01*
X0331273Y0394861D01*
X0332080Y0394701D01*
X0332886Y0394861D01*
X0333570Y0395318D01*
X0334027Y0396002D01*
X0334187Y0396808D01*
X0334027Y0397615D01*
X0333570Y0398298D01*
X0332886Y0398755D01*
X0332080Y0398916D01*
D02*
G37*
G36*
X0321080Y0396018D02*
X0320273Y0395858D01*
X0319589Y0395401D01*
X0319133Y0394717D01*
X0318972Y0393911D01*
X0319133Y0393104D01*
X0319589Y0392420D01*
X0320273Y0391964D01*
X0321080Y0391803D01*
X0321886Y0391964D01*
X0322570Y0392420D01*
X0323027Y0393104D01*
X0323187Y0393911D01*
X0323027Y0394717D01*
X0322570Y0395401D01*
X0321886Y0395858D01*
X0321080Y0396018D01*
D02*
G37*
G36*
X0159604Y0397862D02*
X0156356D01*
X0155623Y0397765D01*
X0154941Y0397482D01*
X0154355Y0397033D01*
X0153905Y0396447D01*
X0153623Y0395764D01*
X0153526Y0395032D01*
Y0391784D01*
X0153623Y0391052D01*
X0153905Y0390370D01*
X0154355Y0389784D01*
X0154941Y0389334D01*
X0155623Y0389051D01*
X0156356Y0388955D01*
X0159604D01*
X0160336Y0389051D01*
X0161018Y0389334D01*
X0161604Y0389784D01*
X0162054Y0390370D01*
X0162337Y0391052D01*
X0162433Y0391784D01*
Y0395032D01*
X0162337Y0395764D01*
X0162054Y0396447D01*
X0161604Y0397033D01*
X0161018Y0397482D01*
X0160336Y0397765D01*
X0159604Y0397862D01*
D02*
G37*
G36*
X0147980Y0397875D02*
X0147980D01*
X0146823Y0397723D01*
X0145746Y0397277D01*
X0144821Y0396567D01*
X0144111Y0395642D01*
X0143665Y0394564D01*
X0143512Y0393408D01*
X0143665Y0392252D01*
X0144111Y0391175D01*
X0144821Y0390249D01*
X0145746Y0389539D01*
X0146823Y0389093D01*
X0147980Y0388941D01*
X0147980D01*
X0149136Y0389093D01*
X0150213Y0389539D01*
X0151139Y0390249D01*
X0151848Y0391175D01*
X0152295Y0392252D01*
X0152447Y0393408D01*
X0152295Y0394564D01*
X0151848Y0395642D01*
X0151139Y0396567D01*
X0150213Y0397277D01*
X0149136Y0397723D01*
X0147980Y0397875D01*
D02*
G37*
G36*
X0196576Y0393116D02*
X0195770Y0392955D01*
X0195086Y0392498D01*
X0194629Y0391815D01*
X0194469Y0391008D01*
X0194629Y0390202D01*
X0195086Y0389518D01*
X0195770Y0389061D01*
X0196576Y0388901D01*
X0197383Y0389061D01*
X0198066Y0389518D01*
X0198523Y0390202D01*
X0198684Y0391008D01*
X0198523Y0391815D01*
X0198066Y0392498D01*
X0197383Y0392955D01*
X0196576Y0393116D01*
D02*
G37*
G36*
X0296720Y0394919D02*
X0295913Y0394759D01*
X0295230Y0394302D01*
X0294773Y0393618D01*
X0294612Y0392812D01*
X0294773Y0392006D01*
X0295230Y0391322D01*
X0295192Y0390746D01*
X0294983Y0390433D01*
X0294822Y0389627D01*
X0294983Y0388820D01*
X0295440Y0388137D01*
X0296123Y0387680D01*
X0296930Y0387519D01*
X0297736Y0387680D01*
X0298420Y0388137D01*
X0298877Y0388820D01*
X0299037Y0389627D01*
X0298877Y0390433D01*
X0298420Y0391117D01*
X0298458Y0391693D01*
X0298667Y0392006D01*
X0298827Y0392812D01*
X0298667Y0393618D01*
X0298210Y0394302D01*
X0297526Y0394759D01*
X0296720Y0394919D01*
D02*
G37*
G36*
X0167480Y0387241D02*
X0166673Y0387080D01*
X0165989Y0386624D01*
X0165533Y0385940D01*
X0165372Y0385133D01*
X0165533Y0384327D01*
X0165989Y0383643D01*
X0166673Y0383186D01*
X0167480Y0383026D01*
X0168286Y0383186D01*
X0168970Y0383643D01*
X0169427Y0384327D01*
X0169587Y0385133D01*
X0169427Y0385940D01*
X0168970Y0386624D01*
X0168286Y0387080D01*
X0167480Y0387241D01*
D02*
G37*
G36*
X0206410Y0387810D02*
X0205742Y0387722D01*
X0205119Y0387464D01*
X0204584Y0387054D01*
X0204174Y0386519D01*
X0203916Y0385897D01*
X0203828Y0385229D01*
X0203916Y0384561D01*
X0204174Y0383938D01*
X0204584Y0383404D01*
X0205119Y0382993D01*
X0205742Y0382735D01*
X0206410Y0382648D01*
X0207078Y0382735D01*
X0207700Y0382993D01*
X0208235Y0383404D01*
X0208645Y0383938D01*
X0208903Y0384561D01*
X0208991Y0385229D01*
X0208903Y0385897D01*
X0208645Y0386519D01*
X0208235Y0387054D01*
X0207700Y0387464D01*
X0207078Y0387722D01*
X0206410Y0387810D01*
D02*
G37*
G36*
X0270280Y0394316D02*
X0269473Y0394155D01*
X0268790Y0393698D01*
X0268333Y0393015D01*
X0268172Y0392208D01*
X0268333Y0391402D01*
X0268790Y0390718D01*
X0269411Y0390303D01*
X0269423Y0390053D01*
X0269358Y0389782D01*
X0269222Y0389755D01*
X0268538Y0389298D01*
X0268081Y0388615D01*
X0267921Y0387808D01*
X0268081Y0387002D01*
X0268538Y0386318D01*
X0268915Y0386066D01*
X0269083Y0385418D01*
X0269081Y0385415D01*
X0268921Y0384608D01*
X0269081Y0383802D01*
X0269538Y0383118D01*
X0270222Y0382661D01*
X0271028Y0382501D01*
X0271835Y0382661D01*
X0272518Y0383118D01*
X0272975Y0383802D01*
X0273136Y0384608D01*
X0272975Y0385415D01*
X0272518Y0386098D01*
X0272141Y0386350D01*
X0271973Y0386999D01*
X0271975Y0387002D01*
X0272136Y0387808D01*
X0271975Y0388615D01*
X0271518Y0389298D01*
X0270897Y0389714D01*
X0270885Y0389963D01*
X0270950Y0390234D01*
X0271086Y0390261D01*
X0271770Y0390718D01*
X0272227Y0391402D01*
X0272387Y0392208D01*
X0272227Y0393015D01*
X0271770Y0393698D01*
X0271086Y0394155D01*
X0270280Y0394316D01*
D02*
G37*
G36*
X0132880Y0385889D02*
X0132212Y0385801D01*
X0131589Y0385543D01*
X0131054Y0385133D01*
X0130644Y0384599D01*
X0130386Y0383976D01*
X0130298Y0383308D01*
X0130386Y0382640D01*
X0130644Y0382018D01*
X0131054Y0381483D01*
X0131589Y0381073D01*
X0132212Y0380815D01*
X0132880Y0380727D01*
X0133548Y0380815D01*
X0134170Y0381073D01*
X0134705Y0381483D01*
X0135115Y0382018D01*
X0135373Y0382640D01*
X0135461Y0383308D01*
X0135373Y0383976D01*
X0135115Y0384599D01*
X0134705Y0385133D01*
X0134170Y0385543D01*
X0133548Y0385801D01*
X0132880Y0385889D01*
D02*
G37*
G36*
X0264980Y0381168D02*
X0264173Y0381008D01*
X0263490Y0380551D01*
X0263033Y0379867D01*
X0262872Y0379061D01*
X0263033Y0378254D01*
X0263490Y0377570D01*
X0264173Y0377114D01*
X0264980Y0376953D01*
X0265786Y0377114D01*
X0266470Y0377570D01*
X0266927Y0378254D01*
X0267087Y0379061D01*
X0266927Y0379867D01*
X0266470Y0380551D01*
X0265786Y0381008D01*
X0264980Y0381168D01*
D02*
G37*
G36*
X0328980Y0378340D02*
Y0377570D01*
X0329948D01*
X0329950Y0377223D01*
X0330030Y0375834D01*
X0330055Y0375719D01*
X0330084Y0375637D01*
X0330116Y0375587D01*
X0328980D01*
Y0374408D01*
X0330159D01*
Y0375544D01*
X0330208Y0375512D01*
X0330290Y0375484D01*
X0330406Y0375459D01*
X0330555Y0375437D01*
X0330951Y0375403D01*
X0331794Y0375378D01*
X0332142Y0375377D01*
Y0374408D01*
X0332911D01*
X0332870Y0374719D01*
X0332364Y0375940D01*
X0331560Y0376988D01*
X0330511Y0377793D01*
X0329290Y0378299D01*
X0328980Y0378340D01*
D02*
G37*
G36*
X0326980D02*
X0326669Y0378299D01*
X0325448Y0377793D01*
X0324400Y0376988D01*
X0323595Y0375940D01*
X0323089Y0374719D01*
X0323048Y0374408D01*
X0326980D01*
Y0375587D01*
X0325844D01*
X0325876Y0375637D01*
X0325904Y0375719D01*
X0325929Y0375834D01*
X0325951Y0375983D01*
X0325984Y0376380D01*
X0326009Y0377223D01*
X0326011Y0377570D01*
X0326980D01*
Y0378340D01*
D02*
G37*
G36*
X0332911Y0372408D02*
X0332142D01*
Y0371440D01*
X0331794Y0371438D01*
X0330406Y0371358D01*
X0330290Y0371333D01*
X0330208Y0371304D01*
X0330159Y0371272D01*
Y0372408D01*
X0328980D01*
Y0368477D01*
X0329290Y0368518D01*
X0330511Y0369023D01*
X0331560Y0369828D01*
X0332364Y0370877D01*
X0332870Y0372098D01*
X0332911Y0372408D01*
D02*
G37*
G36*
X0150848Y0377667D02*
X0145112D01*
X0144579Y0377561D01*
X0144128Y0377260D01*
X0143826Y0376809D01*
X0143721Y0376276D01*
Y0370540D01*
X0143826Y0370008D01*
X0144128Y0369556D01*
X0144579Y0369255D01*
X0145112Y0369149D01*
X0150848D01*
X0151380Y0369255D01*
X0151831Y0369556D01*
X0152133Y0370008D01*
X0152239Y0370540D01*
Y0376276D01*
X0152133Y0376809D01*
X0151831Y0377260D01*
X0151380Y0377561D01*
X0150848Y0377667D01*
D02*
G37*
G36*
X0317980Y0377677D02*
X0316875Y0377532D01*
X0315845Y0377105D01*
X0314961Y0376427D01*
X0314283Y0375543D01*
X0313856Y0374513D01*
X0313711Y0373408D01*
X0313856Y0372303D01*
X0314283Y0371274D01*
X0314961Y0370390D01*
X0315845Y0369711D01*
X0316875Y0369285D01*
X0317980Y0369139D01*
X0319085Y0369285D01*
X0320114Y0369711D01*
X0320998Y0370390D01*
X0321676Y0371274D01*
X0322103Y0372303D01*
X0322248Y0373408D01*
X0322103Y0374513D01*
X0321676Y0375543D01*
X0320998Y0376427D01*
X0320114Y0377105D01*
X0319085Y0377532D01*
X0317980Y0377677D01*
D02*
G37*
G36*
X0157980D02*
X0156875Y0377532D01*
X0155845Y0377105D01*
X0154961Y0376427D01*
X0154283Y0375543D01*
X0153856Y0374513D01*
X0153711Y0373408D01*
X0153856Y0372303D01*
X0154283Y0371274D01*
X0154961Y0370390D01*
X0155845Y0369711D01*
X0156875Y0369285D01*
X0157980Y0369139D01*
X0159084Y0369285D01*
X0160114Y0369711D01*
X0160998Y0370390D01*
X0161677Y0371274D01*
X0162103Y0372303D01*
X0162248Y0373408D01*
X0162103Y0374513D01*
X0161677Y0375543D01*
X0160998Y0376427D01*
X0160114Y0377105D01*
X0159084Y0377532D01*
X0157980Y0377677D01*
D02*
G37*
G36*
X0188065Y0373127D02*
X0187259Y0372966D01*
X0186575Y0372509D01*
X0186118Y0371826D01*
X0185958Y0371019D01*
X0186118Y0370213D01*
X0186575Y0369529D01*
X0187259Y0369072D01*
X0188065Y0368912D01*
X0188872Y0369072D01*
X0189555Y0369529D01*
X0190012Y0370213D01*
X0190173Y0371019D01*
X0190012Y0371826D01*
X0189555Y0372509D01*
X0188872Y0372966D01*
X0188065Y0373127D01*
D02*
G37*
G36*
X0272408Y0372755D02*
X0271601Y0372594D01*
X0270918Y0372138D01*
X0270461Y0371454D01*
X0270300Y0370648D01*
X0270461Y0369841D01*
X0270918Y0369157D01*
X0271601Y0368701D01*
X0272408Y0368540D01*
X0273214Y0368701D01*
X0273898Y0369157D01*
X0274355Y0369841D01*
X0274515Y0370648D01*
X0274355Y0371454D01*
X0273898Y0372138D01*
X0273214Y0372594D01*
X0272408Y0372755D01*
D02*
G37*
G36*
X0326980Y0372408D02*
X0323048D01*
X0323089Y0372098D01*
X0323595Y0370877D01*
X0324400Y0369828D01*
X0325448Y0369023D01*
X0326669Y0368518D01*
X0326980Y0368477D01*
Y0372408D01*
D02*
G37*
G36*
X0262553Y0370843D02*
X0261747Y0370683D01*
X0261063Y0370226D01*
X0260606Y0369542D01*
X0260446Y0368736D01*
X0260606Y0367929D01*
X0261063Y0367246D01*
X0261747Y0366789D01*
X0262553Y0366629D01*
X0263360Y0366789D01*
X0264043Y0367246D01*
X0264500Y0367929D01*
X0264661Y0368736D01*
X0264500Y0369542D01*
X0264043Y0370226D01*
X0263360Y0370683D01*
X0262553Y0370843D01*
D02*
G37*
G36*
X0158980Y0368339D02*
Y0364408D01*
X0160159D01*
Y0365544D01*
X0160208Y0365512D01*
X0160290Y0365484D01*
X0160406Y0365459D01*
X0160555Y0365437D01*
X0160951Y0365403D01*
X0161794Y0365378D01*
X0162142Y0365377D01*
Y0364408D01*
X0162911D01*
X0162870Y0364719D01*
X0162364Y0365940D01*
X0161560Y0366988D01*
X0160511Y0367793D01*
X0159290Y0368299D01*
X0158980Y0368339D01*
D02*
G37*
G36*
X0156980D02*
X0156669Y0368299D01*
X0155448Y0367793D01*
X0154400Y0366988D01*
X0153595Y0365940D01*
X0153089Y0364719D01*
X0153048Y0364408D01*
X0156980D01*
Y0368339D01*
D02*
G37*
G36*
X0193888Y0367152D02*
X0193081Y0366992D01*
X0192398Y0366535D01*
X0191941Y0365851D01*
X0191780Y0365045D01*
X0191941Y0364238D01*
X0192398Y0363554D01*
X0193081Y0363098D01*
X0193888Y0362937D01*
X0194694Y0363098D01*
X0195378Y0363554D01*
X0195835Y0364238D01*
X0195995Y0365045D01*
X0195835Y0365851D01*
X0195378Y0366535D01*
X0194694Y0366992D01*
X0193888Y0367152D01*
D02*
G37*
G36*
X0162911Y0362408D02*
X0162142D01*
Y0361440D01*
X0161794Y0361438D01*
X0160406Y0361358D01*
X0160290Y0361333D01*
X0160208Y0361304D01*
X0160159Y0361272D01*
Y0362408D01*
X0158980D01*
Y0358477D01*
X0159290Y0358518D01*
X0160511Y0359023D01*
X0161560Y0359828D01*
X0162364Y0360877D01*
X0162870Y0362098D01*
X0162911Y0362408D01*
D02*
G37*
G36*
X0327980Y0367677D02*
X0326875Y0367531D01*
X0325845Y0367105D01*
X0324961Y0366427D01*
X0324283Y0365543D01*
X0323856Y0364513D01*
X0323711Y0363408D01*
X0323856Y0362303D01*
X0324283Y0361274D01*
X0324961Y0360390D01*
X0325845Y0359711D01*
X0326875Y0359285D01*
X0327980Y0359139D01*
X0329084Y0359285D01*
X0330114Y0359711D01*
X0330998Y0360390D01*
X0331677Y0361274D01*
X0332103Y0362303D01*
X0332248Y0363408D01*
X0332103Y0364513D01*
X0331677Y0365543D01*
X0330998Y0366427D01*
X0330114Y0367105D01*
X0329084Y0367531D01*
X0327980Y0367677D01*
D02*
G37*
G36*
X0317980D02*
X0316875Y0367531D01*
X0315845Y0367105D01*
X0314961Y0366427D01*
X0314283Y0365543D01*
X0313856Y0364513D01*
X0313711Y0363408D01*
X0313856Y0362303D01*
X0314283Y0361274D01*
X0314961Y0360390D01*
X0315845Y0359711D01*
X0316875Y0359285D01*
X0317980Y0359139D01*
X0319085Y0359285D01*
X0320114Y0359711D01*
X0320998Y0360390D01*
X0321676Y0361274D01*
X0322103Y0362303D01*
X0322248Y0363408D01*
X0322103Y0364513D01*
X0321676Y0365543D01*
X0320998Y0366427D01*
X0320114Y0367105D01*
X0319085Y0367531D01*
X0317980Y0367677D01*
D02*
G37*
G36*
X0147980D02*
X0146875Y0367531D01*
X0145845Y0367105D01*
X0144961Y0366427D01*
X0144283Y0365543D01*
X0143856Y0364513D01*
X0143711Y0363408D01*
X0143856Y0362303D01*
X0144283Y0361274D01*
X0144961Y0360390D01*
X0145845Y0359711D01*
X0146875Y0359285D01*
X0147980Y0359139D01*
X0149084Y0359285D01*
X0150114Y0359711D01*
X0150998Y0360390D01*
X0151676Y0361274D01*
X0152103Y0362303D01*
X0152248Y0363408D01*
X0152103Y0364513D01*
X0151676Y0365543D01*
X0150998Y0366427D01*
X0150114Y0367105D01*
X0149084Y0367531D01*
X0147980Y0367677D01*
D02*
G37*
G36*
X0156980Y0362408D02*
X0153048D01*
X0153089Y0362098D01*
X0153595Y0360877D01*
X0154400Y0359828D01*
X0155448Y0359023D01*
X0156669Y0358518D01*
X0156980Y0358477D01*
Y0362408D01*
D02*
G37*
G36*
X0295330Y0360239D02*
X0294662Y0360151D01*
X0294039Y0359893D01*
X0293505Y0359483D01*
X0293094Y0358949D01*
X0292836Y0358326D01*
X0292748Y0357658D01*
X0292836Y0356990D01*
X0293094Y0356368D01*
X0293505Y0355833D01*
X0294039Y0355423D01*
X0294662Y0355165D01*
X0295330Y0355077D01*
X0295998Y0355165D01*
X0296620Y0355423D01*
X0297155Y0355833D01*
X0297565Y0356368D01*
X0297823Y0356990D01*
X0297911Y0357658D01*
X0297823Y0358326D01*
X0297565Y0358949D01*
X0297155Y0359483D01*
X0296620Y0359893D01*
X0295998Y0360151D01*
X0295330Y0360239D01*
D02*
G37*
G36*
X0327980Y0357677D02*
X0326875Y0357531D01*
X0325845Y0357105D01*
X0324961Y0356427D01*
X0324283Y0355543D01*
X0323856Y0354513D01*
X0323711Y0353408D01*
X0323856Y0352303D01*
X0324283Y0351274D01*
X0324961Y0350390D01*
X0325845Y0349711D01*
X0326875Y0349285D01*
X0327980Y0349139D01*
X0329084Y0349285D01*
X0330114Y0349711D01*
X0330998Y0350390D01*
X0331677Y0351274D01*
X0332103Y0352303D01*
X0332248Y0353408D01*
X0332103Y0354513D01*
X0331677Y0355543D01*
X0330998Y0356427D01*
X0330114Y0357105D01*
X0329084Y0357531D01*
X0327980Y0357677D01*
D02*
G37*
G36*
X0317980D02*
X0316875Y0357531D01*
X0315845Y0357105D01*
X0314961Y0356427D01*
X0314283Y0355543D01*
X0313856Y0354513D01*
X0313711Y0353408D01*
X0313856Y0352303D01*
X0314283Y0351274D01*
X0314961Y0350390D01*
X0315845Y0349711D01*
X0316875Y0349285D01*
X0317980Y0349139D01*
X0319085Y0349285D01*
X0320114Y0349711D01*
X0320998Y0350390D01*
X0321676Y0351274D01*
X0322103Y0352303D01*
X0322248Y0353408D01*
X0322103Y0354513D01*
X0321676Y0355543D01*
X0320998Y0356427D01*
X0320114Y0357105D01*
X0319085Y0357531D01*
X0317980Y0357677D01*
D02*
G37*
G36*
X0157980D02*
X0156875Y0357531D01*
X0155845Y0357105D01*
X0154961Y0356427D01*
X0154283Y0355543D01*
X0153856Y0354513D01*
X0153711Y0353408D01*
X0153856Y0352303D01*
X0154283Y0351274D01*
X0154961Y0350390D01*
X0155845Y0349711D01*
X0156875Y0349285D01*
X0157980Y0349139D01*
X0159084Y0349285D01*
X0160114Y0349711D01*
X0160998Y0350390D01*
X0161677Y0351274D01*
X0162103Y0352303D01*
X0162248Y0353408D01*
X0162103Y0354513D01*
X0161677Y0355543D01*
X0160998Y0356427D01*
X0160114Y0357105D01*
X0159084Y0357531D01*
X0157980Y0357677D01*
D02*
G37*
G36*
X0147980D02*
X0146875Y0357531D01*
X0145845Y0357105D01*
X0144961Y0356427D01*
X0144283Y0355543D01*
X0143856Y0354513D01*
X0143711Y0353408D01*
X0143856Y0352303D01*
X0144283Y0351274D01*
X0144961Y0350390D01*
X0145845Y0349711D01*
X0146875Y0349285D01*
X0147980Y0349139D01*
X0149084Y0349285D01*
X0150114Y0349711D01*
X0150998Y0350390D01*
X0151676Y0351274D01*
X0152103Y0352303D01*
X0152248Y0353408D01*
X0152103Y0354513D01*
X0151676Y0355543D01*
X0150998Y0356427D01*
X0150114Y0357105D01*
X0149084Y0357531D01*
X0147980Y0357677D01*
D02*
G37*
G36*
X0187466Y0352852D02*
X0186659Y0352691D01*
X0185976Y0352235D01*
X0185519Y0351551D01*
X0185358Y0350744D01*
X0185519Y0349938D01*
X0185976Y0349254D01*
X0186659Y0348797D01*
X0187466Y0348637D01*
X0188272Y0348797D01*
X0188956Y0349254D01*
X0189413Y0349938D01*
X0189573Y0350744D01*
X0189413Y0351551D01*
X0188956Y0352235D01*
X0188272Y0352691D01*
X0187466Y0352852D01*
D02*
G37*
G36*
X0294050Y0346716D02*
X0293243Y0346555D01*
X0292560Y0346098D01*
X0292103Y0345415D01*
X0291942Y0344608D01*
X0292103Y0343802D01*
X0292560Y0343118D01*
X0293243Y0342661D01*
X0294050Y0342501D01*
X0294856Y0342661D01*
X0295540Y0343118D01*
X0295997Y0343802D01*
X0296157Y0344608D01*
X0295997Y0345415D01*
X0295540Y0346098D01*
X0294856Y0346555D01*
X0294050Y0346716D01*
D02*
G37*
G36*
X0286569D02*
X0285763Y0346555D01*
X0285079Y0346098D01*
X0284622Y0345415D01*
X0284462Y0344608D01*
X0284622Y0343802D01*
X0285079Y0343118D01*
X0285763Y0342661D01*
X0286569Y0342501D01*
X0287376Y0342661D01*
X0288059Y0343118D01*
X0288516Y0343802D01*
X0288677Y0344608D01*
X0288516Y0345415D01*
X0288059Y0346098D01*
X0287376Y0346555D01*
X0286569Y0346716D01*
D02*
G37*
G36*
X0187466Y0344632D02*
X0186659Y0344472D01*
X0185976Y0344015D01*
X0185519Y0343331D01*
X0185358Y0342525D01*
X0185519Y0341718D01*
X0185976Y0341035D01*
X0186659Y0340578D01*
X0187466Y0340417D01*
X0188272Y0340578D01*
X0188956Y0341035D01*
X0189413Y0341718D01*
X0189573Y0342525D01*
X0189413Y0343331D01*
X0188956Y0344015D01*
X0188272Y0344472D01*
X0187466Y0344632D01*
D02*
G37*
G36*
X0327980Y0347677D02*
X0326875Y0347532D01*
X0325845Y0347105D01*
X0324961Y0346427D01*
X0324283Y0345543D01*
X0323856Y0344513D01*
X0323711Y0343408D01*
X0323856Y0342303D01*
X0324283Y0341274D01*
X0324961Y0340390D01*
X0325845Y0339711D01*
X0326875Y0339285D01*
X0327980Y0339139D01*
X0329084Y0339285D01*
X0330114Y0339711D01*
X0330998Y0340390D01*
X0331677Y0341274D01*
X0332103Y0342303D01*
X0332248Y0343408D01*
X0332103Y0344513D01*
X0331677Y0345543D01*
X0330998Y0346427D01*
X0330114Y0347105D01*
X0329084Y0347532D01*
X0327980Y0347677D01*
D02*
G37*
G36*
X0317980D02*
X0316875Y0347532D01*
X0315845Y0347105D01*
X0314961Y0346427D01*
X0314283Y0345543D01*
X0313856Y0344513D01*
X0313711Y0343408D01*
X0313856Y0342303D01*
X0314283Y0341274D01*
X0314961Y0340390D01*
X0315845Y0339711D01*
X0316875Y0339285D01*
X0317980Y0339139D01*
X0319085Y0339285D01*
X0320114Y0339711D01*
X0320998Y0340390D01*
X0321676Y0341274D01*
X0322103Y0342303D01*
X0322248Y0343408D01*
X0322103Y0344513D01*
X0321676Y0345543D01*
X0320998Y0346427D01*
X0320114Y0347105D01*
X0319085Y0347532D01*
X0317980Y0347677D01*
D02*
G37*
G36*
X0157980D02*
X0156875Y0347532D01*
X0155845Y0347105D01*
X0154961Y0346427D01*
X0154283Y0345543D01*
X0153856Y0344513D01*
X0153711Y0343408D01*
X0153856Y0342303D01*
X0154283Y0341274D01*
X0154961Y0340390D01*
X0155845Y0339711D01*
X0156875Y0339285D01*
X0157980Y0339139D01*
X0159084Y0339285D01*
X0160114Y0339711D01*
X0160998Y0340390D01*
X0161677Y0341274D01*
X0162103Y0342303D01*
X0162248Y0343408D01*
X0162103Y0344513D01*
X0161677Y0345543D01*
X0160998Y0346427D01*
X0160114Y0347105D01*
X0159084Y0347532D01*
X0157980Y0347677D01*
D02*
G37*
G36*
X0147980D02*
X0146875Y0347532D01*
X0145845Y0347105D01*
X0144961Y0346427D01*
X0144283Y0345543D01*
X0143856Y0344513D01*
X0143711Y0343408D01*
X0143856Y0342303D01*
X0144283Y0341274D01*
X0144961Y0340390D01*
X0145845Y0339711D01*
X0146875Y0339285D01*
X0147980Y0339139D01*
X0149084Y0339285D01*
X0150114Y0339711D01*
X0150998Y0340390D01*
X0151676Y0341274D01*
X0152103Y0342303D01*
X0152248Y0343408D01*
X0152103Y0344513D01*
X0151676Y0345543D01*
X0150998Y0346427D01*
X0150114Y0347105D01*
X0149084Y0347532D01*
X0147980Y0347677D01*
D02*
G37*
G36*
X0258180Y0341716D02*
X0257373Y0341555D01*
X0256690Y0341098D01*
X0256233Y0340415D01*
X0256072Y0339608D01*
X0256233Y0338802D01*
X0256690Y0338118D01*
X0257373Y0337661D01*
X0258180Y0337501D01*
X0258986Y0337661D01*
X0259670Y0338118D01*
X0260127Y0338802D01*
X0260287Y0339608D01*
X0260127Y0340415D01*
X0259670Y0341098D01*
X0258986Y0341555D01*
X0258180Y0341716D01*
D02*
G37*
G36*
X0252030Y0340424D02*
X0251069Y0340298D01*
X0250173Y0339927D01*
X0249404Y0339337D01*
X0248814Y0338568D01*
X0248443Y0337672D01*
X0248317Y0336711D01*
X0248443Y0335750D01*
X0248814Y0334855D01*
X0249404Y0334086D01*
X0250173Y0333496D01*
X0251069Y0333125D01*
X0252030Y0332998D01*
X0252991Y0333125D01*
X0253886Y0333496D01*
X0254655Y0334086D01*
X0255245Y0334855D01*
X0255616Y0335750D01*
X0255743Y0336711D01*
X0255616Y0337672D01*
X0255245Y0338568D01*
X0254655Y0339337D01*
X0253886Y0339927D01*
X0252991Y0340298D01*
X0252030Y0340424D01*
D02*
G37*
G36*
X0222580Y0335816D02*
X0221773Y0335655D01*
X0221090Y0335198D01*
X0220633Y0334515D01*
X0220472Y0333708D01*
X0220633Y0332902D01*
X0221090Y0332218D01*
X0221773Y0331761D01*
X0222580Y0331601D01*
X0223386Y0331761D01*
X0224070Y0332218D01*
X0224527Y0332902D01*
X0224687Y0333708D01*
X0224527Y0334515D01*
X0224070Y0335198D01*
X0223386Y0335655D01*
X0222580Y0335816D01*
D02*
G37*
G36*
X0327980Y0337677D02*
X0326875Y0337531D01*
X0325845Y0337105D01*
X0324961Y0336427D01*
X0324283Y0335543D01*
X0323856Y0334513D01*
X0323711Y0333408D01*
X0323856Y0332303D01*
X0324283Y0331274D01*
X0324961Y0330390D01*
X0325845Y0329711D01*
X0326875Y0329285D01*
X0327980Y0329139D01*
X0329084Y0329285D01*
X0330114Y0329711D01*
X0330998Y0330390D01*
X0331677Y0331274D01*
X0332103Y0332303D01*
X0332248Y0333408D01*
X0332103Y0334513D01*
X0331677Y0335543D01*
X0330998Y0336427D01*
X0330114Y0337105D01*
X0329084Y0337531D01*
X0327980Y0337677D01*
D02*
G37*
G36*
X0317980D02*
X0316875Y0337531D01*
X0315845Y0337105D01*
X0314961Y0336427D01*
X0314283Y0335543D01*
X0313856Y0334513D01*
X0313711Y0333408D01*
X0313856Y0332303D01*
X0314283Y0331274D01*
X0314961Y0330390D01*
X0315845Y0329711D01*
X0316875Y0329285D01*
X0317980Y0329139D01*
X0319085Y0329285D01*
X0320114Y0329711D01*
X0320998Y0330390D01*
X0321676Y0331274D01*
X0322103Y0332303D01*
X0322248Y0333408D01*
X0322103Y0334513D01*
X0321676Y0335543D01*
X0320998Y0336427D01*
X0320114Y0337105D01*
X0319085Y0337531D01*
X0317980Y0337677D01*
D02*
G37*
G36*
X0157980D02*
X0156875Y0337531D01*
X0155845Y0337105D01*
X0154961Y0336427D01*
X0154283Y0335543D01*
X0153856Y0334513D01*
X0153711Y0333408D01*
X0153856Y0332303D01*
X0154283Y0331274D01*
X0154961Y0330390D01*
X0155845Y0329711D01*
X0156875Y0329285D01*
X0157980Y0329139D01*
X0159084Y0329285D01*
X0160114Y0329711D01*
X0160998Y0330390D01*
X0161677Y0331274D01*
X0162103Y0332303D01*
X0162248Y0333408D01*
X0162103Y0334513D01*
X0161677Y0335543D01*
X0160998Y0336427D01*
X0160114Y0337105D01*
X0159084Y0337531D01*
X0157980Y0337677D01*
D02*
G37*
G36*
X0147980D02*
X0146875Y0337531D01*
X0145845Y0337105D01*
X0144961Y0336427D01*
X0144283Y0335543D01*
X0143856Y0334513D01*
X0143711Y0333408D01*
X0143856Y0332303D01*
X0144283Y0331274D01*
X0144961Y0330390D01*
X0145845Y0329711D01*
X0146875Y0329285D01*
X0147980Y0329139D01*
X0149084Y0329285D01*
X0150114Y0329711D01*
X0150998Y0330390D01*
X0151676Y0331274D01*
X0152103Y0332303D01*
X0152248Y0333408D01*
X0152103Y0334513D01*
X0151676Y0335543D01*
X0150998Y0336427D01*
X0150114Y0337105D01*
X0149084Y0337531D01*
X0147980Y0337677D01*
D02*
G37*
G36*
X0301380Y0332616D02*
X0300573Y0332455D01*
X0299889Y0331998D01*
X0299433Y0331315D01*
X0299272Y0330508D01*
X0299433Y0329702D01*
X0299889Y0329018D01*
X0300573Y0328561D01*
X0301380Y0328401D01*
X0302186Y0328561D01*
X0302870Y0329018D01*
X0303327Y0329702D01*
X0303487Y0330508D01*
X0303327Y0331315D01*
X0302870Y0331998D01*
X0302186Y0332455D01*
X0301380Y0332616D01*
D02*
G37*
G36*
X0191980Y0335716D02*
X0191173Y0335555D01*
X0190489Y0335098D01*
X0190033Y0334415D01*
X0189872Y0333608D01*
X0190033Y0332802D01*
X0190489Y0332118D01*
X0191173Y0331661D01*
X0191980Y0331501D01*
X0192786Y0331661D01*
X0193128Y0331889D01*
X0193578Y0331591D01*
X0193738Y0330785D01*
X0194195Y0330101D01*
X0194879Y0329644D01*
X0195503Y0329520D01*
X0195448Y0329244D01*
X0195609Y0328438D01*
X0196065Y0327754D01*
X0196749Y0327297D01*
X0197556Y0327137D01*
X0198362Y0327297D01*
X0199046Y0327754D01*
X0199503Y0328438D01*
X0199663Y0329244D01*
X0199503Y0330051D01*
X0199046Y0330735D01*
X0198362Y0331191D01*
X0197738Y0331316D01*
X0197793Y0331591D01*
X0197633Y0332398D01*
X0197176Y0333081D01*
X0196492Y0333538D01*
X0195686Y0333698D01*
X0194879Y0333538D01*
X0194537Y0333310D01*
X0194087Y0333608D01*
X0193927Y0334415D01*
X0193470Y0335098D01*
X0192786Y0335555D01*
X0191980Y0335716D01*
D02*
G37*
G36*
X0273962Y0332921D02*
X0273001Y0332794D01*
X0272106Y0332424D01*
X0271337Y0331834D01*
X0270747Y0331065D01*
X0270376Y0330169D01*
X0270249Y0329208D01*
X0270376Y0328247D01*
X0270747Y0327352D01*
X0271337Y0326583D01*
X0272106Y0325993D01*
X0273001Y0325622D01*
X0273962Y0325495D01*
X0274923Y0325622D01*
X0275819Y0325993D01*
X0276588Y0326583D01*
X0277178Y0327352D01*
X0277549Y0328247D01*
X0277675Y0329208D01*
X0277549Y0330169D01*
X0277178Y0331065D01*
X0276588Y0331834D01*
X0275819Y0332424D01*
X0274923Y0332794D01*
X0273962Y0332921D01*
D02*
G37*
G36*
X0236080Y0329748D02*
X0235273Y0329587D01*
X0234590Y0329130D01*
X0234133Y0328447D01*
X0233972Y0327640D01*
X0234133Y0326834D01*
X0234453Y0326354D01*
X0234133Y0325875D01*
X0233972Y0325069D01*
X0234133Y0324262D01*
X0234590Y0323579D01*
X0235273Y0323122D01*
X0236080Y0322961D01*
X0236886Y0323122D01*
X0237570Y0323579D01*
X0238027Y0324262D01*
X0238187Y0325069D01*
X0238027Y0325875D01*
X0237706Y0326354D01*
X0238027Y0326834D01*
X0238187Y0327640D01*
X0238027Y0328447D01*
X0237570Y0329130D01*
X0236886Y0329587D01*
X0236080Y0329748D01*
D02*
G37*
G36*
X0186466Y0327052D02*
X0185659Y0326891D01*
X0184976Y0326434D01*
X0184519Y0325751D01*
X0184358Y0324944D01*
X0184519Y0324138D01*
X0184976Y0323454D01*
X0185659Y0322997D01*
X0186466Y0322837D01*
X0187272Y0322997D01*
X0187956Y0323454D01*
X0188413Y0324138D01*
X0188573Y0324944D01*
X0188413Y0325751D01*
X0187956Y0326434D01*
X0187272Y0326891D01*
X0186466Y0327052D01*
D02*
G37*
G36*
X0245193Y0323456D02*
X0244386Y0323296D01*
X0243703Y0322839D01*
X0243246Y0322155D01*
X0243085Y0321349D01*
X0243246Y0320542D01*
X0243703Y0319859D01*
X0244386Y0319402D01*
X0245193Y0319241D01*
X0245999Y0319402D01*
X0246683Y0319859D01*
X0247140Y0320542D01*
X0247300Y0321349D01*
X0247140Y0322155D01*
X0246683Y0322839D01*
X0245999Y0323296D01*
X0245193Y0323456D01*
D02*
G37*
G36*
X0327980Y0327677D02*
X0326875Y0327532D01*
X0325845Y0327105D01*
X0324961Y0326427D01*
X0324283Y0325543D01*
X0323856Y0324513D01*
X0323711Y0323408D01*
X0323856Y0322303D01*
X0324283Y0321274D01*
X0324961Y0320390D01*
X0325845Y0319711D01*
X0326875Y0319285D01*
X0327980Y0319139D01*
X0329084Y0319285D01*
X0330114Y0319711D01*
X0330998Y0320390D01*
X0331677Y0321274D01*
X0332103Y0322303D01*
X0332248Y0323408D01*
X0332103Y0324513D01*
X0331677Y0325543D01*
X0330998Y0326427D01*
X0330114Y0327105D01*
X0329084Y0327532D01*
X0327980Y0327677D01*
D02*
G37*
G36*
X0317980D02*
X0316875Y0327532D01*
X0315845Y0327105D01*
X0314961Y0326427D01*
X0314283Y0325543D01*
X0313856Y0324513D01*
X0313711Y0323408D01*
X0313856Y0322303D01*
X0314283Y0321274D01*
X0314961Y0320390D01*
X0315845Y0319711D01*
X0316875Y0319285D01*
X0317980Y0319139D01*
X0319085Y0319285D01*
X0320114Y0319711D01*
X0320998Y0320390D01*
X0321676Y0321274D01*
X0322103Y0322303D01*
X0322248Y0323408D01*
X0322103Y0324513D01*
X0321676Y0325543D01*
X0320998Y0326427D01*
X0320114Y0327105D01*
X0319085Y0327532D01*
X0317980Y0327677D01*
D02*
G37*
G36*
X0157980D02*
X0156875Y0327532D01*
X0155845Y0327105D01*
X0154961Y0326427D01*
X0154283Y0325543D01*
X0153856Y0324513D01*
X0153711Y0323408D01*
X0153856Y0322303D01*
X0154283Y0321274D01*
X0154961Y0320390D01*
X0155845Y0319711D01*
X0156875Y0319285D01*
X0157980Y0319139D01*
X0159084Y0319285D01*
X0160114Y0319711D01*
X0160998Y0320390D01*
X0161677Y0321274D01*
X0162103Y0322303D01*
X0162248Y0323408D01*
X0162103Y0324513D01*
X0161677Y0325543D01*
X0160998Y0326427D01*
X0160114Y0327105D01*
X0159084Y0327532D01*
X0157980Y0327677D01*
D02*
G37*
G36*
X0147980D02*
X0146875Y0327532D01*
X0145845Y0327105D01*
X0144961Y0326427D01*
X0144283Y0325543D01*
X0143856Y0324513D01*
X0143711Y0323408D01*
X0143856Y0322303D01*
X0144283Y0321274D01*
X0144961Y0320390D01*
X0145845Y0319711D01*
X0146875Y0319285D01*
X0147980Y0319139D01*
X0149084Y0319285D01*
X0150114Y0319711D01*
X0150998Y0320390D01*
X0151676Y0321274D01*
X0152103Y0322303D01*
X0152248Y0323408D01*
X0152103Y0324513D01*
X0151676Y0325543D01*
X0150998Y0326427D01*
X0150114Y0327105D01*
X0149084Y0327532D01*
X0147980Y0327677D01*
D02*
G37*
G36*
X0290310Y0322162D02*
X0289503Y0322001D01*
X0288819Y0321544D01*
X0288363Y0320861D01*
X0288202Y0320054D01*
X0288363Y0319248D01*
X0288819Y0318564D01*
X0289503Y0318107D01*
X0290310Y0317947D01*
X0291116Y0318107D01*
X0291800Y0318564D01*
X0292256Y0319248D01*
X0292417Y0320054D01*
X0292256Y0320861D01*
X0291800Y0321544D01*
X0291116Y0322001D01*
X0290310Y0322162D01*
D02*
G37*
G36*
X0205034Y0333816D02*
X0204227Y0333655D01*
X0203544Y0333198D01*
X0203087Y0332515D01*
X0202926Y0331708D01*
X0203087Y0330902D01*
X0203544Y0330218D01*
X0204181Y0329792D01*
X0204072Y0329244D01*
X0204118Y0329014D01*
X0203823Y0328955D01*
X0203139Y0328498D01*
X0202683Y0327815D01*
X0202522Y0327008D01*
X0202683Y0326202D01*
X0203139Y0325518D01*
X0203823Y0325061D01*
X0203877Y0325050D01*
X0204057Y0324505D01*
X0203733Y0324020D01*
X0203572Y0323213D01*
X0203733Y0322407D01*
X0204189Y0321723D01*
X0204873Y0321266D01*
X0205513Y0321139D01*
X0205507Y0321111D01*
X0205668Y0320304D01*
X0206124Y0319621D01*
X0206697Y0319238D01*
X0206775Y0318780D01*
X0206766Y0318663D01*
X0206333Y0318015D01*
X0206172Y0317208D01*
X0206333Y0316402D01*
X0206789Y0315718D01*
X0207473Y0315261D01*
X0208280Y0315101D01*
X0209086Y0315261D01*
X0209770Y0315718D01*
X0210227Y0316402D01*
X0210387Y0317208D01*
X0210346Y0317413D01*
X0210586Y0317461D01*
X0211270Y0317918D01*
X0211727Y0318602D01*
X0211887Y0319408D01*
X0211727Y0320215D01*
X0211270Y0320898D01*
X0210586Y0321355D01*
X0209780Y0321516D01*
X0209647Y0321489D01*
X0209562Y0321917D01*
X0209105Y0322601D01*
X0208421Y0323058D01*
X0207781Y0323185D01*
X0207787Y0323213D01*
X0207627Y0324020D01*
X0207170Y0324703D01*
X0206486Y0325160D01*
X0206432Y0325171D01*
X0206252Y0325716D01*
X0206577Y0326202D01*
X0206737Y0327008D01*
X0206691Y0327239D01*
X0206986Y0327297D01*
X0207670Y0327754D01*
X0208127Y0328438D01*
X0208287Y0329244D01*
X0208127Y0330051D01*
X0207670Y0330734D01*
X0207032Y0331160D01*
X0207141Y0331708D01*
X0206981Y0332515D01*
X0206524Y0333198D01*
X0205840Y0333655D01*
X0205034Y0333816D01*
D02*
G37*
G36*
X0218491Y0319260D02*
X0217684Y0319100D01*
X0217001Y0318643D01*
X0216544Y0317959D01*
X0216384Y0317153D01*
X0216544Y0316346D01*
X0217001Y0315663D01*
X0217684Y0315206D01*
X0218491Y0315045D01*
X0219297Y0315206D01*
X0219981Y0315663D01*
X0220438Y0316346D01*
X0220598Y0317153D01*
X0220438Y0317959D01*
X0219981Y0318643D01*
X0219297Y0319100D01*
X0218491Y0319260D01*
D02*
G37*
G36*
X0187080Y0318516D02*
X0186273Y0318355D01*
X0185590Y0317898D01*
X0185133Y0317215D01*
X0184972Y0316408D01*
X0185133Y0315602D01*
X0185590Y0314918D01*
X0186273Y0314461D01*
X0187080Y0314301D01*
X0187886Y0314461D01*
X0188570Y0314918D01*
X0189027Y0315602D01*
X0189187Y0316408D01*
X0189027Y0317215D01*
X0188570Y0317898D01*
X0187886Y0318355D01*
X0187080Y0318516D01*
D02*
G37*
G36*
X0246230Y0316016D02*
X0245423Y0315855D01*
X0244740Y0315398D01*
X0244283Y0314715D01*
X0244122Y0313908D01*
X0244283Y0313102D01*
X0244740Y0312418D01*
X0245423Y0311961D01*
X0246230Y0311801D01*
X0247036Y0311961D01*
X0247720Y0312418D01*
X0248177Y0313102D01*
X0248337Y0313908D01*
X0248177Y0314715D01*
X0247720Y0315398D01*
X0247036Y0315855D01*
X0246230Y0316016D01*
D02*
G37*
G36*
X0254180Y0314316D02*
X0253373Y0314155D01*
X0252690Y0313698D01*
X0252233Y0313015D01*
X0252072Y0312208D01*
X0252233Y0311402D01*
X0252690Y0310718D01*
X0253373Y0310261D01*
X0254180Y0310101D01*
X0254986Y0310261D01*
X0255670Y0310718D01*
X0256127Y0311402D01*
X0256287Y0312208D01*
X0256127Y0313015D01*
X0255670Y0313698D01*
X0254986Y0314155D01*
X0254180Y0314316D01*
D02*
G37*
G36*
X0327980Y0317677D02*
X0326875Y0317531D01*
X0325845Y0317105D01*
X0324961Y0316427D01*
X0324283Y0315543D01*
X0323856Y0314513D01*
X0323711Y0313408D01*
X0323856Y0312303D01*
X0324283Y0311274D01*
X0324961Y0310390D01*
X0325845Y0309711D01*
X0326875Y0309285D01*
X0327980Y0309139D01*
X0329084Y0309285D01*
X0330114Y0309711D01*
X0330998Y0310390D01*
X0331677Y0311274D01*
X0332103Y0312303D01*
X0332248Y0313408D01*
X0332103Y0314513D01*
X0331677Y0315543D01*
X0330998Y0316427D01*
X0330114Y0317105D01*
X0329084Y0317531D01*
X0327980Y0317677D01*
D02*
G37*
G36*
X0317980D02*
X0316875Y0317531D01*
X0315845Y0317105D01*
X0314961Y0316427D01*
X0314283Y0315543D01*
X0313856Y0314513D01*
X0313711Y0313408D01*
X0313856Y0312303D01*
X0314283Y0311274D01*
X0314961Y0310390D01*
X0315845Y0309711D01*
X0316875Y0309285D01*
X0317980Y0309139D01*
X0319085Y0309285D01*
X0320114Y0309711D01*
X0320998Y0310390D01*
X0321676Y0311274D01*
X0322103Y0312303D01*
X0322248Y0313408D01*
X0322103Y0314513D01*
X0321676Y0315543D01*
X0320998Y0316427D01*
X0320114Y0317105D01*
X0319085Y0317531D01*
X0317980Y0317677D01*
D02*
G37*
G36*
X0157980D02*
X0156875Y0317531D01*
X0155845Y0317105D01*
X0154961Y0316427D01*
X0154283Y0315543D01*
X0153856Y0314513D01*
X0153711Y0313408D01*
X0153856Y0312303D01*
X0154283Y0311274D01*
X0154961Y0310390D01*
X0155845Y0309711D01*
X0156875Y0309285D01*
X0157980Y0309139D01*
X0159084Y0309285D01*
X0160114Y0309711D01*
X0160998Y0310390D01*
X0161677Y0311274D01*
X0162103Y0312303D01*
X0162248Y0313408D01*
X0162103Y0314513D01*
X0161677Y0315543D01*
X0160998Y0316427D01*
X0160114Y0317105D01*
X0159084Y0317531D01*
X0157980Y0317677D01*
D02*
G37*
G36*
X0147980D02*
X0146875Y0317531D01*
X0145845Y0317105D01*
X0144961Y0316427D01*
X0144283Y0315543D01*
X0143856Y0314513D01*
X0143711Y0313408D01*
X0143856Y0312303D01*
X0144283Y0311274D01*
X0144961Y0310390D01*
X0145845Y0309711D01*
X0146875Y0309285D01*
X0147980Y0309139D01*
X0149084Y0309285D01*
X0150114Y0309711D01*
X0150998Y0310390D01*
X0151676Y0311274D01*
X0152103Y0312303D01*
X0152248Y0313408D01*
X0152103Y0314513D01*
X0151676Y0315543D01*
X0150998Y0316427D01*
X0150114Y0317105D01*
X0149084Y0317531D01*
X0147980Y0317677D01*
D02*
G37*
G36*
X0230380Y0309116D02*
X0229573Y0308955D01*
X0228889Y0308498D01*
X0228433Y0307815D01*
X0228272Y0307008D01*
X0228433Y0306202D01*
X0228889Y0305518D01*
X0229573Y0305061D01*
X0230380Y0304901D01*
X0231186Y0305061D01*
X0231870Y0305518D01*
X0232327Y0306202D01*
X0232487Y0307008D01*
X0232327Y0307815D01*
X0231870Y0308498D01*
X0231186Y0308955D01*
X0230380Y0309116D01*
D02*
G37*
G36*
X0261080Y0308025D02*
X0260273Y0307865D01*
X0259590Y0307408D01*
X0259133Y0306724D01*
X0258972Y0305918D01*
X0259133Y0305111D01*
X0259590Y0304428D01*
X0260273Y0303971D01*
X0261080Y0303811D01*
X0261886Y0303971D01*
X0262570Y0304428D01*
X0263027Y0305111D01*
X0263187Y0305918D01*
X0263027Y0306724D01*
X0262570Y0307408D01*
X0261886Y0307865D01*
X0261080Y0308025D01*
D02*
G37*
G36*
X0242730Y0311423D02*
X0241923Y0311263D01*
X0241240Y0310806D01*
X0240783Y0310122D01*
X0240622Y0309316D01*
X0240783Y0308509D01*
X0241240Y0307826D01*
X0241923Y0307369D01*
X0242597Y0307235D01*
X0242572Y0307108D01*
X0242733Y0306302D01*
X0243190Y0305618D01*
X0243618Y0305331D01*
X0243873Y0305161D01*
X0243770Y0304674D01*
X0243130Y0304802D01*
X0242323Y0304641D01*
X0241639Y0304185D01*
X0241183Y0303501D01*
X0241059Y0302880D01*
X0240880Y0302406D01*
X0240073Y0302245D01*
X0239389Y0301789D01*
X0238933Y0301105D01*
X0238772Y0300298D01*
X0238933Y0299492D01*
X0239389Y0298808D01*
X0240073Y0298351D01*
X0240880Y0298191D01*
X0241686Y0298351D01*
X0242370Y0298808D01*
X0242827Y0299492D01*
X0242950Y0300113D01*
X0243035Y0300336D01*
X0243428Y0300646D01*
X0243936Y0300747D01*
X0244620Y0301204D01*
X0245077Y0301888D01*
X0245237Y0302694D01*
X0245077Y0303501D01*
X0244620Y0304185D01*
X0244191Y0304471D01*
X0243936Y0304641D01*
X0244039Y0305128D01*
X0244680Y0305001D01*
X0245181Y0305100D01*
X0245283Y0304588D01*
X0245740Y0303904D01*
X0246423Y0303447D01*
X0247230Y0303287D01*
X0248036Y0303447D01*
X0248720Y0303904D01*
X0249177Y0304588D01*
X0249337Y0305394D01*
X0249224Y0305962D01*
X0249570Y0306388D01*
X0249607Y0306406D01*
X0250386Y0306561D01*
X0251070Y0307018D01*
X0251527Y0307702D01*
X0251687Y0308508D01*
X0251527Y0309315D01*
X0251070Y0309998D01*
X0250386Y0310455D01*
X0249580Y0310616D01*
X0248773Y0310455D01*
X0248090Y0309998D01*
X0247633Y0309315D01*
X0247472Y0308508D01*
X0247585Y0307941D01*
X0247240Y0307515D01*
X0247238Y0307513D01*
X0247202Y0307496D01*
X0246729Y0307402D01*
X0246627Y0307915D01*
X0246170Y0308598D01*
X0245486Y0309055D01*
X0244812Y0309189D01*
X0244837Y0309316D01*
X0244677Y0310122D01*
X0244220Y0310806D01*
X0243536Y0311263D01*
X0242730Y0311423D01*
D02*
G37*
G36*
X0235380Y0305269D02*
X0234573Y0305108D01*
X0233890Y0304651D01*
X0233433Y0303968D01*
X0233272Y0303161D01*
X0233433Y0302355D01*
X0233890Y0301671D01*
X0234573Y0301214D01*
X0235380Y0301054D01*
X0236186Y0301214D01*
X0236870Y0301671D01*
X0237327Y0302355D01*
X0237487Y0303161D01*
X0237327Y0303968D01*
X0236870Y0304651D01*
X0236186Y0305108D01*
X0235380Y0305269D01*
D02*
G37*
G36*
X0327980Y0307677D02*
X0326875Y0307531D01*
X0325845Y0307105D01*
X0324961Y0306427D01*
X0324283Y0305543D01*
X0323856Y0304513D01*
X0323711Y0303408D01*
X0323856Y0302303D01*
X0324283Y0301274D01*
X0324961Y0300390D01*
X0325845Y0299711D01*
X0326875Y0299285D01*
X0327980Y0299139D01*
X0329084Y0299285D01*
X0330114Y0299711D01*
X0330998Y0300390D01*
X0331677Y0301274D01*
X0332103Y0302303D01*
X0332248Y0303408D01*
X0332103Y0304513D01*
X0331677Y0305543D01*
X0330998Y0306427D01*
X0330114Y0307105D01*
X0329084Y0307531D01*
X0327980Y0307677D01*
D02*
G37*
G36*
X0317980D02*
X0316875Y0307531D01*
X0315845Y0307105D01*
X0314961Y0306427D01*
X0314283Y0305543D01*
X0313856Y0304513D01*
X0313711Y0303408D01*
X0313856Y0302303D01*
X0314283Y0301274D01*
X0314961Y0300390D01*
X0315845Y0299711D01*
X0316875Y0299285D01*
X0317980Y0299139D01*
X0319085Y0299285D01*
X0320114Y0299711D01*
X0320998Y0300390D01*
X0321676Y0301274D01*
X0322103Y0302303D01*
X0322248Y0303408D01*
X0322103Y0304513D01*
X0321676Y0305543D01*
X0320998Y0306427D01*
X0320114Y0307105D01*
X0319085Y0307531D01*
X0317980Y0307677D01*
D02*
G37*
G36*
X0157980D02*
X0156875Y0307531D01*
X0155845Y0307105D01*
X0154961Y0306427D01*
X0154283Y0305543D01*
X0153856Y0304513D01*
X0153711Y0303408D01*
X0153856Y0302303D01*
X0154283Y0301274D01*
X0154961Y0300390D01*
X0155845Y0299711D01*
X0156875Y0299285D01*
X0157980Y0299139D01*
X0159084Y0299285D01*
X0160114Y0299711D01*
X0160998Y0300390D01*
X0161677Y0301274D01*
X0162103Y0302303D01*
X0162248Y0303408D01*
X0162103Y0304513D01*
X0161677Y0305543D01*
X0160998Y0306427D01*
X0160114Y0307105D01*
X0159084Y0307531D01*
X0157980Y0307677D01*
D02*
G37*
G36*
X0147980D02*
X0146875Y0307531D01*
X0145845Y0307105D01*
X0144961Y0306427D01*
X0144283Y0305543D01*
X0143856Y0304513D01*
X0143711Y0303408D01*
X0143856Y0302303D01*
X0144283Y0301274D01*
X0144961Y0300390D01*
X0145845Y0299711D01*
X0146875Y0299285D01*
X0147980Y0299139D01*
X0149084Y0299285D01*
X0150114Y0299711D01*
X0150998Y0300390D01*
X0151676Y0301274D01*
X0152103Y0302303D01*
X0152248Y0303408D01*
X0152103Y0304513D01*
X0151676Y0305543D01*
X0150998Y0306427D01*
X0150114Y0307105D01*
X0149084Y0307531D01*
X0147980Y0307677D01*
D02*
G37*
G36*
X0285050Y0303740D02*
X0284244Y0303579D01*
X0283560Y0303122D01*
X0283103Y0302438D01*
X0282943Y0301632D01*
X0282946Y0301615D01*
X0282423Y0301511D01*
X0281739Y0301055D01*
X0281283Y0300371D01*
X0281122Y0299564D01*
X0281283Y0298758D01*
X0281739Y0298074D01*
X0282423Y0297617D01*
X0283230Y0297457D01*
X0284036Y0297617D01*
X0284720Y0298074D01*
X0285177Y0298758D01*
X0285337Y0299564D01*
X0285334Y0299581D01*
X0285857Y0299685D01*
X0286541Y0300142D01*
X0286997Y0300826D01*
X0287158Y0301632D01*
X0286997Y0302438D01*
X0286541Y0303122D01*
X0285857Y0303579D01*
X0285050Y0303740D01*
D02*
G37*
G36*
X0274437Y0299916D02*
X0273630Y0299755D01*
X0272947Y0299298D01*
X0272490Y0298615D01*
X0272329Y0297808D01*
X0272490Y0297002D01*
X0272947Y0296318D01*
X0273630Y0295861D01*
X0274437Y0295701D01*
X0275243Y0295861D01*
X0275927Y0296318D01*
X0276384Y0297002D01*
X0276544Y0297808D01*
X0276384Y0298615D01*
X0275927Y0299298D01*
X0275243Y0299755D01*
X0274437Y0299916D01*
D02*
G37*
G36*
X0226530Y0299680D02*
X0225723Y0299519D01*
X0225040Y0299062D01*
X0224583Y0298379D01*
X0224422Y0297572D01*
X0224583Y0296766D01*
X0225040Y0296082D01*
X0225723Y0295625D01*
X0226530Y0295465D01*
X0227336Y0295625D01*
X0228020Y0296082D01*
X0228477Y0296766D01*
X0228637Y0297572D01*
X0228477Y0298379D01*
X0228020Y0299062D01*
X0227336Y0299519D01*
X0226530Y0299680D01*
D02*
G37*
G36*
X0207615Y0300989D02*
X0206947Y0300901D01*
X0206324Y0300643D01*
X0205789Y0300233D01*
X0205379Y0299699D01*
X0205121Y0299076D01*
X0205033Y0298408D01*
X0205121Y0297740D01*
X0205379Y0297118D01*
X0205789Y0296583D01*
X0206324Y0296173D01*
X0206947Y0295915D01*
X0207014Y0295906D01*
X0207036Y0295734D01*
X0207294Y0295112D01*
X0207704Y0294577D01*
X0208239Y0294167D01*
X0208862Y0293909D01*
X0209530Y0293821D01*
X0210198Y0293909D01*
X0210820Y0294167D01*
X0211355Y0294577D01*
X0211765Y0295112D01*
X0212023Y0295734D01*
X0212111Y0296402D01*
X0212023Y0297071D01*
X0211765Y0297693D01*
X0211355Y0298228D01*
X0210820Y0298638D01*
X0210198Y0298896D01*
X0210130Y0298904D01*
X0210108Y0299076D01*
X0209850Y0299699D01*
X0209440Y0300233D01*
X0208905Y0300643D01*
X0208283Y0300901D01*
X0207615Y0300989D01*
D02*
G37*
G36*
X0250480Y0297916D02*
X0249673Y0297755D01*
X0248990Y0297298D01*
X0248533Y0296615D01*
X0248372Y0295808D01*
X0248533Y0295002D01*
X0248990Y0294318D01*
X0249673Y0293861D01*
X0250480Y0293701D01*
X0251286Y0293861D01*
X0251970Y0294318D01*
X0252427Y0295002D01*
X0252587Y0295808D01*
X0252427Y0296615D01*
X0251970Y0297298D01*
X0251286Y0297755D01*
X0250480Y0297916D01*
D02*
G37*
G36*
X0231080Y0295671D02*
X0230273Y0295511D01*
X0229590Y0295054D01*
X0229133Y0294370D01*
X0228972Y0293564D01*
X0229133Y0292757D01*
X0229590Y0292073D01*
X0230273Y0291617D01*
X0231080Y0291456D01*
X0231886Y0291617D01*
X0232570Y0292073D01*
X0233027Y0292757D01*
X0233187Y0293564D01*
X0233027Y0294370D01*
X0232570Y0295054D01*
X0231886Y0295511D01*
X0231080Y0295671D01*
D02*
G37*
G36*
X0327980Y0297677D02*
X0326875Y0297532D01*
X0325845Y0297105D01*
X0324961Y0296427D01*
X0324283Y0295543D01*
X0323856Y0294513D01*
X0323711Y0293408D01*
X0323856Y0292303D01*
X0324283Y0291274D01*
X0324961Y0290390D01*
X0325845Y0289711D01*
X0326875Y0289285D01*
X0327980Y0289139D01*
X0329084Y0289285D01*
X0330114Y0289711D01*
X0330998Y0290390D01*
X0331677Y0291274D01*
X0332103Y0292303D01*
X0332248Y0293408D01*
X0332103Y0294513D01*
X0331677Y0295543D01*
X0330998Y0296427D01*
X0330114Y0297105D01*
X0329084Y0297532D01*
X0327980Y0297677D01*
D02*
G37*
G36*
X0317980D02*
X0316875Y0297532D01*
X0315845Y0297105D01*
X0314961Y0296427D01*
X0314283Y0295543D01*
X0313856Y0294513D01*
X0313711Y0293408D01*
X0313856Y0292303D01*
X0314283Y0291274D01*
X0314961Y0290390D01*
X0315845Y0289711D01*
X0316875Y0289285D01*
X0317980Y0289139D01*
X0319085Y0289285D01*
X0320114Y0289711D01*
X0320998Y0290390D01*
X0321676Y0291274D01*
X0322103Y0292303D01*
X0322248Y0293408D01*
X0322103Y0294513D01*
X0321676Y0295543D01*
X0320998Y0296427D01*
X0320114Y0297105D01*
X0319085Y0297532D01*
X0317980Y0297677D01*
D02*
G37*
G36*
X0157980D02*
X0156875Y0297532D01*
X0155845Y0297105D01*
X0154961Y0296427D01*
X0154283Y0295543D01*
X0153856Y0294513D01*
X0153711Y0293408D01*
X0153856Y0292303D01*
X0154283Y0291274D01*
X0154961Y0290390D01*
X0155845Y0289711D01*
X0156875Y0289285D01*
X0157980Y0289139D01*
X0159084Y0289285D01*
X0160114Y0289711D01*
X0160998Y0290390D01*
X0161677Y0291274D01*
X0162103Y0292303D01*
X0162248Y0293408D01*
X0162103Y0294513D01*
X0161677Y0295543D01*
X0160998Y0296427D01*
X0160114Y0297105D01*
X0159084Y0297532D01*
X0157980Y0297677D01*
D02*
G37*
G36*
X0147980D02*
X0146875Y0297532D01*
X0145845Y0297105D01*
X0144961Y0296427D01*
X0144283Y0295543D01*
X0143856Y0294513D01*
X0143711Y0293408D01*
X0143856Y0292303D01*
X0144283Y0291274D01*
X0144961Y0290390D01*
X0145845Y0289711D01*
X0146875Y0289285D01*
X0147980Y0289139D01*
X0149084Y0289285D01*
X0150114Y0289711D01*
X0150998Y0290390D01*
X0151676Y0291274D01*
X0152103Y0292303D01*
X0152248Y0293408D01*
X0152103Y0294513D01*
X0151676Y0295543D01*
X0150998Y0296427D01*
X0150114Y0297105D01*
X0149084Y0297532D01*
X0147980Y0297677D01*
D02*
G37*
G36*
X0244680Y0292916D02*
X0243873Y0292755D01*
X0243190Y0292298D01*
X0242733Y0291615D01*
X0242572Y0290808D01*
X0242733Y0290002D01*
X0243190Y0289318D01*
X0243873Y0288861D01*
X0244680Y0288701D01*
X0245486Y0288861D01*
X0246170Y0289318D01*
X0246627Y0290002D01*
X0246787Y0290808D01*
X0246627Y0291615D01*
X0246170Y0292298D01*
X0245486Y0292755D01*
X0244680Y0292916D01*
D02*
G37*
G36*
X0250580Y0290716D02*
X0249773Y0290555D01*
X0249090Y0290098D01*
X0248633Y0289415D01*
X0248472Y0288608D01*
X0248633Y0287802D01*
X0249090Y0287118D01*
X0249773Y0286661D01*
X0250580Y0286501D01*
X0251386Y0286661D01*
X0252070Y0287118D01*
X0252527Y0287802D01*
X0252687Y0288608D01*
X0252527Y0289415D01*
X0252070Y0290098D01*
X0251386Y0290555D01*
X0250580Y0290716D01*
D02*
G37*
G36*
X0227405Y0289139D02*
X0226599Y0288979D01*
X0225915Y0288522D01*
X0225458Y0287838D01*
X0225298Y0287032D01*
X0225458Y0286225D01*
X0225915Y0285542D01*
X0226599Y0285085D01*
X0227405Y0284924D01*
X0228212Y0285085D01*
X0228895Y0285542D01*
X0229352Y0286225D01*
X0229513Y0287032D01*
X0229352Y0287838D01*
X0228895Y0288522D01*
X0228212Y0288979D01*
X0227405Y0289139D01*
D02*
G37*
G36*
X0213313Y0292321D02*
X0212352Y0292195D01*
X0211456Y0291824D01*
X0210687Y0291234D01*
X0210098Y0290465D01*
X0209727Y0289569D01*
X0209600Y0288608D01*
X0209727Y0287647D01*
X0210098Y0286752D01*
X0210687Y0285983D01*
X0211456Y0285393D01*
X0212352Y0285022D01*
X0213313Y0284895D01*
X0214274Y0285022D01*
X0215169Y0285393D01*
X0215938Y0285983D01*
X0216528Y0286752D01*
X0216899Y0287647D01*
X0217026Y0288608D01*
X0216899Y0289569D01*
X0216528Y0290465D01*
X0215938Y0291234D01*
X0215169Y0291824D01*
X0214274Y0292195D01*
X0213313Y0292321D01*
D02*
G37*
G36*
X0232230Y0290447D02*
X0231423Y0290287D01*
X0230739Y0289830D01*
X0230283Y0289146D01*
X0230122Y0288340D01*
X0230283Y0287533D01*
X0230739Y0286849D01*
X0231423Y0286393D01*
X0231998Y0286278D01*
X0232133Y0285602D01*
X0232590Y0284918D01*
X0233273Y0284461D01*
X0234080Y0284301D01*
X0234886Y0284461D01*
X0235570Y0284918D01*
X0236027Y0285602D01*
X0236187Y0286408D01*
X0236027Y0287215D01*
X0235570Y0287898D01*
X0234886Y0288355D01*
X0234311Y0288470D01*
X0234177Y0289146D01*
X0233720Y0289830D01*
X0233036Y0290287D01*
X0232230Y0290447D01*
D02*
G37*
G36*
X0327980Y0287677D02*
X0326875Y0287531D01*
X0325845Y0287105D01*
X0324961Y0286427D01*
X0324283Y0285543D01*
X0323856Y0284513D01*
X0323711Y0283408D01*
X0323856Y0282303D01*
X0324283Y0281274D01*
X0324961Y0280390D01*
X0325845Y0279711D01*
X0326875Y0279285D01*
X0327980Y0279139D01*
X0329084Y0279285D01*
X0330114Y0279711D01*
X0330998Y0280390D01*
X0331677Y0281274D01*
X0332103Y0282303D01*
X0332248Y0283408D01*
X0332103Y0284513D01*
X0331677Y0285543D01*
X0330998Y0286427D01*
X0330114Y0287105D01*
X0329084Y0287531D01*
X0327980Y0287677D01*
D02*
G37*
G36*
X0317980D02*
X0316875Y0287531D01*
X0315845Y0287105D01*
X0314961Y0286427D01*
X0314283Y0285543D01*
X0313856Y0284513D01*
X0313711Y0283408D01*
X0313856Y0282303D01*
X0314283Y0281274D01*
X0314961Y0280390D01*
X0315845Y0279711D01*
X0316875Y0279285D01*
X0317980Y0279139D01*
X0319085Y0279285D01*
X0320114Y0279711D01*
X0320998Y0280390D01*
X0321676Y0281274D01*
X0322103Y0282303D01*
X0322248Y0283408D01*
X0322103Y0284513D01*
X0321676Y0285543D01*
X0320998Y0286427D01*
X0320114Y0287105D01*
X0319085Y0287531D01*
X0317980Y0287677D01*
D02*
G37*
G36*
X0157980D02*
X0156875Y0287531D01*
X0155845Y0287105D01*
X0154961Y0286427D01*
X0154283Y0285543D01*
X0153856Y0284513D01*
X0153711Y0283408D01*
X0153856Y0282303D01*
X0154283Y0281274D01*
X0154961Y0280390D01*
X0155845Y0279711D01*
X0156875Y0279285D01*
X0157980Y0279139D01*
X0159084Y0279285D01*
X0160114Y0279711D01*
X0160998Y0280390D01*
X0161677Y0281274D01*
X0162103Y0282303D01*
X0162248Y0283408D01*
X0162103Y0284513D01*
X0161677Y0285543D01*
X0160998Y0286427D01*
X0160114Y0287105D01*
X0159084Y0287531D01*
X0157980Y0287677D01*
D02*
G37*
G36*
X0147980D02*
X0146875Y0287531D01*
X0145845Y0287105D01*
X0144961Y0286427D01*
X0144283Y0285543D01*
X0143856Y0284513D01*
X0143711Y0283408D01*
X0143856Y0282303D01*
X0144283Y0281274D01*
X0144961Y0280390D01*
X0145845Y0279711D01*
X0146875Y0279285D01*
X0147980Y0279139D01*
X0149084Y0279285D01*
X0150114Y0279711D01*
X0150998Y0280390D01*
X0151676Y0281274D01*
X0152103Y0282303D01*
X0152248Y0283408D01*
X0152103Y0284513D01*
X0151676Y0285543D01*
X0150998Y0286427D01*
X0150114Y0287105D01*
X0149084Y0287531D01*
X0147980Y0287677D01*
D02*
G37*
G36*
X0258380Y0282116D02*
X0257535Y0281948D01*
X0256819Y0281469D01*
X0256340Y0280753D01*
X0256172Y0279908D01*
X0256340Y0279063D01*
X0256819Y0278347D01*
X0257535Y0277869D01*
X0258380Y0277700D01*
X0259225Y0277869D01*
X0259941Y0278347D01*
X0260419Y0279063D01*
X0260587Y0279908D01*
X0260419Y0280753D01*
X0259941Y0281469D01*
X0259225Y0281948D01*
X0258380Y0282116D01*
D02*
G37*
G36*
X0216294Y0279227D02*
X0215488Y0279066D01*
X0214804Y0278609D01*
X0214347Y0277926D01*
X0214276Y0277568D01*
X0214159Y0277591D01*
X0213352Y0277431D01*
X0212669Y0276974D01*
X0212212Y0276290D01*
X0212051Y0275484D01*
X0212212Y0274677D01*
X0212669Y0273994D01*
X0213352Y0273537D01*
X0214159Y0273376D01*
X0214965Y0273537D01*
X0215649Y0273994D01*
X0216106Y0274677D01*
X0216177Y0275035D01*
X0216294Y0275012D01*
X0217101Y0275172D01*
X0217784Y0275629D01*
X0218241Y0276313D01*
X0218402Y0277119D01*
X0218241Y0277926D01*
X0217784Y0278609D01*
X0217101Y0279066D01*
X0216294Y0279227D01*
D02*
G37*
G36*
X0221494Y0281527D02*
X0220688Y0281366D01*
X0220004Y0280909D01*
X0219547Y0280226D01*
X0219387Y0279419D01*
X0219547Y0278613D01*
X0220004Y0277929D01*
X0220688Y0277472D01*
X0221494Y0277312D01*
X0222301Y0277472D01*
X0222984Y0277929D01*
X0223441Y0278613D01*
X0223602Y0279419D01*
X0223441Y0280226D01*
X0222984Y0280909D01*
X0222301Y0281366D01*
X0221494Y0281527D01*
D02*
G37*
G36*
X0235994Y0281406D02*
X0235188Y0281246D01*
X0234504Y0280789D01*
X0234047Y0280105D01*
X0233887Y0279299D01*
X0234047Y0278492D01*
X0234504Y0277808D01*
X0235188Y0277352D01*
X0235994Y0277191D01*
X0236801Y0277352D01*
X0237484Y0277808D01*
X0237941Y0278492D01*
X0238102Y0279299D01*
X0237941Y0280105D01*
X0237484Y0280789D01*
X0236801Y0281246D01*
X0235994Y0281406D01*
D02*
G37*
G36*
X0291280Y0278171D02*
X0290473Y0278011D01*
X0289790Y0277554D01*
X0289333Y0276870D01*
X0289172Y0276064D01*
X0289333Y0275257D01*
X0289753Y0274628D01*
X0289683Y0274422D01*
X0289505Y0274167D01*
X0289080Y0274252D01*
X0288273Y0274092D01*
X0287590Y0273635D01*
X0287133Y0272951D01*
X0286972Y0272145D01*
X0287133Y0271338D01*
X0287590Y0270655D01*
X0288273Y0270198D01*
X0289080Y0270037D01*
X0289886Y0270198D01*
X0290390Y0270534D01*
X0290433Y0270470D01*
X0291117Y0270013D01*
X0291923Y0269852D01*
X0292730Y0270013D01*
X0293413Y0270470D01*
X0293870Y0271153D01*
X0294031Y0271960D01*
X0293870Y0272766D01*
X0293413Y0273450D01*
X0292730Y0273907D01*
X0292685Y0273916D01*
X0292580Y0274447D01*
X0292770Y0274573D01*
X0293227Y0275257D01*
X0293387Y0276064D01*
X0293227Y0276870D01*
X0292770Y0277554D01*
X0292086Y0278011D01*
X0291280Y0278171D01*
D02*
G37*
G36*
X0231894Y0271525D02*
X0231088Y0271364D01*
X0230404Y0270907D01*
X0229947Y0270224D01*
X0229787Y0269417D01*
X0229947Y0268611D01*
X0230404Y0267927D01*
X0231088Y0267470D01*
X0231894Y0267310D01*
X0232701Y0267470D01*
X0233384Y0267927D01*
X0233841Y0268611D01*
X0234002Y0269417D01*
X0233841Y0270224D01*
X0233384Y0270907D01*
X0232701Y0271364D01*
X0231894Y0271525D01*
D02*
G37*
G36*
X0225712D02*
X0224906Y0271364D01*
X0224222Y0270907D01*
X0223765Y0270224D01*
X0223605Y0269417D01*
X0223765Y0268611D01*
X0224222Y0267927D01*
X0224906Y0267470D01*
X0225712Y0267310D01*
X0226519Y0267470D01*
X0227202Y0267927D01*
X0227659Y0268611D01*
X0227819Y0269417D01*
X0227659Y0270224D01*
X0227202Y0270907D01*
X0226519Y0271364D01*
X0225712Y0271525D01*
D02*
G37*
G36*
X0300680Y0269566D02*
X0299835Y0269398D01*
X0299118Y0268919D01*
X0298640Y0268203D01*
X0298472Y0267358D01*
X0298640Y0266513D01*
X0299118Y0265797D01*
X0299835Y0265318D01*
X0300680Y0265150D01*
X0301524Y0265318D01*
X0302241Y0265797D01*
X0302719Y0266513D01*
X0302887Y0267358D01*
X0302719Y0268203D01*
X0302241Y0268919D01*
X0301524Y0269398D01*
X0300680Y0269566D01*
D02*
G37*
G36*
X0285430Y0268866D02*
X0284585Y0268698D01*
X0283869Y0268219D01*
X0283390Y0267503D01*
X0283222Y0266658D01*
X0283390Y0265813D01*
X0283869Y0265097D01*
X0284585Y0264618D01*
X0285430Y0264450D01*
X0286275Y0264618D01*
X0286991Y0265097D01*
X0287469Y0265813D01*
X0287637Y0266658D01*
X0287469Y0267503D01*
X0286991Y0268219D01*
X0286275Y0268698D01*
X0285430Y0268866D01*
D02*
G37*
G36*
X0148980Y0268538D02*
Y0264408D01*
X0150299D01*
Y0265682D01*
X0150375Y0265624D01*
X0150483Y0265572D01*
X0150624Y0265526D01*
X0150797Y0265487D01*
X0151002Y0265453D01*
X0151509Y0265404D01*
X0152145Y0265380D01*
X0152512Y0265377D01*
Y0264408D01*
X0153110D01*
X0153062Y0264770D01*
X0152536Y0266039D01*
X0151700Y0267129D01*
X0150610Y0267965D01*
X0149341Y0268490D01*
X0148980Y0268538D01*
D02*
G37*
G36*
X0146980D02*
X0146618Y0268490D01*
X0145349Y0267965D01*
X0144259Y0267129D01*
X0143423Y0266039D01*
X0142897Y0264770D01*
X0142850Y0264408D01*
X0143447D01*
Y0265377D01*
X0143814Y0265380D01*
X0144957Y0265453D01*
X0145162Y0265487D01*
X0145335Y0265526D01*
X0145476Y0265572D01*
X0145584Y0265624D01*
X0145660Y0265682D01*
Y0264408D01*
X0146980D01*
Y0268538D01*
D02*
G37*
G36*
X0328980D02*
Y0264408D01*
X0330299D01*
Y0265682D01*
X0330375Y0265624D01*
X0330483Y0265572D01*
X0330624Y0265526D01*
X0330797Y0265487D01*
X0331002Y0265453D01*
X0331509Y0265404D01*
X0332145Y0265380D01*
X0332512Y0265377D01*
Y0264408D01*
X0333109D01*
X0333062Y0264770D01*
X0332536Y0266039D01*
X0331700Y0267129D01*
X0330610Y0267965D01*
X0329341Y0268490D01*
X0328980Y0268538D01*
D02*
G37*
G36*
X0326980D02*
X0326618Y0268490D01*
X0325349Y0267965D01*
X0324259Y0267129D01*
X0323423Y0266039D01*
X0322897Y0264770D01*
X0322850Y0264408D01*
X0323447D01*
Y0265377D01*
X0323814Y0265380D01*
X0324957Y0265453D01*
X0325163Y0265487D01*
X0325335Y0265526D01*
X0325476Y0265572D01*
X0325584Y0265624D01*
X0325660Y0265682D01*
Y0264408D01*
X0326980D01*
Y0268538D01*
D02*
G37*
G36*
X0333109Y0262408D02*
X0332512D01*
Y0261440D01*
X0332145Y0261437D01*
X0331002Y0261363D01*
X0330797Y0261330D01*
X0330624Y0261290D01*
X0330483Y0261244D01*
X0330375Y0261192D01*
X0330299Y0261135D01*
Y0262408D01*
X0327980D01*
X0325660D01*
Y0261135D01*
X0325584Y0261192D01*
X0325476Y0261244D01*
X0325335Y0261290D01*
X0325163Y0261330D01*
X0324957Y0261363D01*
X0324450Y0261412D01*
X0323814Y0261437D01*
X0323447Y0261440D01*
Y0262408D01*
X0322850D01*
X0322897Y0262046D01*
X0323423Y0260777D01*
X0324259Y0259688D01*
X0325349Y0258852D01*
X0325816Y0258658D01*
Y0258158D01*
X0325349Y0257965D01*
X0324259Y0257129D01*
X0323423Y0256039D01*
X0322897Y0254770D01*
X0322850Y0254408D01*
X0323447D01*
Y0255377D01*
X0323814Y0255380D01*
X0324957Y0255453D01*
X0325163Y0255486D01*
X0325335Y0255526D01*
X0325476Y0255572D01*
X0325584Y0255624D01*
X0325660Y0255682D01*
Y0254408D01*
X0327980D01*
X0330299D01*
Y0255682D01*
X0330375Y0255624D01*
X0330483Y0255572D01*
X0330624Y0255526D01*
X0330797Y0255486D01*
X0331002Y0255453D01*
X0331509Y0255404D01*
X0332145Y0255380D01*
X0332512Y0255377D01*
Y0254408D01*
X0333109D01*
X0333062Y0254770D01*
X0332536Y0256039D01*
X0331700Y0257129D01*
X0330610Y0257965D01*
X0330144Y0258158D01*
Y0258658D01*
X0330610Y0258852D01*
X0331700Y0259688D01*
X0332536Y0260777D01*
X0333062Y0262046D01*
X0333109Y0262408D01*
D02*
G37*
G36*
X0153110Y0262408D02*
X0152512D01*
Y0261440D01*
X0152145Y0261437D01*
X0151002Y0261363D01*
X0150797Y0261330D01*
X0150624Y0261290D01*
X0150483Y0261244D01*
X0150375Y0261192D01*
X0150299Y0261135D01*
Y0262408D01*
X0147980D01*
X0145660D01*
Y0261135D01*
X0145584Y0261192D01*
X0145476Y0261244D01*
X0145335Y0261290D01*
X0145162Y0261330D01*
X0144957Y0261363D01*
X0144450Y0261412D01*
X0143814Y0261437D01*
X0143447Y0261440D01*
Y0262408D01*
X0142850D01*
X0142897Y0262046D01*
X0143423Y0260777D01*
X0144259Y0259688D01*
X0145349Y0258852D01*
X0145816Y0258658D01*
Y0258158D01*
X0145349Y0257965D01*
X0144259Y0257129D01*
X0143423Y0256039D01*
X0142897Y0254770D01*
X0142850Y0254408D01*
X0143447D01*
Y0255377D01*
X0143814Y0255380D01*
X0144957Y0255453D01*
X0145162Y0255486D01*
X0145335Y0255526D01*
X0145476Y0255572D01*
X0145584Y0255624D01*
X0145660Y0255682D01*
Y0254408D01*
X0147980D01*
X0150299D01*
Y0255682D01*
X0150375Y0255624D01*
X0150483Y0255572D01*
X0150624Y0255526D01*
X0150797Y0255486D01*
X0151002Y0255453D01*
X0151509Y0255404D01*
X0152145Y0255380D01*
X0152512Y0255377D01*
Y0254408D01*
X0153110D01*
X0153062Y0254770D01*
X0152536Y0256039D01*
X0151700Y0257129D01*
X0150610Y0257965D01*
X0150144Y0258158D01*
Y0258658D01*
X0150610Y0258852D01*
X0151700Y0259688D01*
X0152536Y0260777D01*
X0153062Y0262046D01*
X0153110Y0262408D01*
D02*
G37*
G36*
X0272480Y0258216D02*
X0271635Y0258048D01*
X0270918Y0257569D01*
X0270440Y0256853D01*
X0270272Y0256008D01*
X0270440Y0255163D01*
X0270918Y0254447D01*
X0271635Y0253968D01*
X0272480Y0253800D01*
X0273324Y0253968D01*
X0274041Y0254447D01*
X0274519Y0255163D01*
X0274687Y0256008D01*
X0274519Y0256853D01*
X0274041Y0257569D01*
X0273324Y0258048D01*
X0272480Y0258216D01*
D02*
G37*
G36*
X0204609Y0266337D02*
X0195750D01*
Y0257479D01*
X0198740D01*
X0198818Y0256990D01*
X0197549Y0256465D01*
X0196459Y0255629D01*
X0195623Y0254539D01*
X0195097Y0253270D01*
X0195050Y0252908D01*
X0195647D01*
Y0253877D01*
X0196014Y0253880D01*
X0197157Y0253953D01*
X0197362Y0253987D01*
X0197535Y0254026D01*
X0197676Y0254072D01*
X0197784Y0254124D01*
X0197860Y0254182D01*
Y0252908D01*
X0200180D01*
X0202704D01*
Y0253952D01*
X0202735Y0253938D01*
X0202804Y0253925D01*
X0202910Y0253914D01*
X0203456Y0253889D01*
X0204712Y0253877D01*
Y0252908D01*
X0205310D01*
X0205262Y0253270D01*
X0204736Y0254539D01*
X0203900Y0255629D01*
X0202810Y0256465D01*
X0201541Y0256990D01*
X0201619Y0257479D01*
X0204609D01*
Y0266337D01*
D02*
G37*
G36*
X0333109Y0252408D02*
X0332512D01*
Y0251440D01*
X0332145Y0251437D01*
X0331002Y0251363D01*
X0330797Y0251330D01*
X0330624Y0251290D01*
X0330483Y0251244D01*
X0330375Y0251192D01*
X0330299Y0251134D01*
Y0252408D01*
X0327980D01*
X0325660D01*
Y0251134D01*
X0325584Y0251192D01*
X0325476Y0251244D01*
X0325335Y0251290D01*
X0325163Y0251330D01*
X0324957Y0251363D01*
X0324450Y0251412D01*
X0323814Y0251437D01*
X0323447Y0251440D01*
Y0252408D01*
X0322850D01*
X0322897Y0252046D01*
X0323423Y0250777D01*
X0324259Y0249688D01*
X0325349Y0248851D01*
X0326618Y0248326D01*
X0326540Y0247837D01*
X0323551D01*
Y0238979D01*
X0332409D01*
Y0247837D01*
X0329419D01*
X0329341Y0248326D01*
X0330610Y0248851D01*
X0331700Y0249688D01*
X0332536Y0250777D01*
X0333062Y0252046D01*
X0333109Y0252408D01*
D02*
G37*
G36*
X0153110Y0252408D02*
X0152512D01*
Y0251440D01*
X0152145Y0251437D01*
X0151002Y0251363D01*
X0150797Y0251330D01*
X0150624Y0251290D01*
X0150483Y0251244D01*
X0150375Y0251192D01*
X0150299Y0251134D01*
Y0252408D01*
X0147980D01*
X0145660D01*
Y0251134D01*
X0145584Y0251192D01*
X0145476Y0251244D01*
X0145335Y0251290D01*
X0145162Y0251330D01*
X0144957Y0251363D01*
X0144450Y0251412D01*
X0143814Y0251437D01*
X0143447Y0251440D01*
Y0252408D01*
X0142850D01*
X0142897Y0252046D01*
X0143423Y0250777D01*
X0144259Y0249688D01*
X0145349Y0248851D01*
X0146618Y0248326D01*
X0146540Y0247837D01*
X0143551D01*
Y0238979D01*
X0152409D01*
Y0247837D01*
X0149419D01*
X0149341Y0248326D01*
X0150610Y0248851D01*
X0151700Y0249688D01*
X0152536Y0250777D01*
X0153062Y0252046D01*
X0153110Y0252408D01*
D02*
G37*
G36*
X0310732Y0255316D02*
X0309888Y0255148D01*
X0309171Y0254669D01*
X0308693Y0253953D01*
X0308525Y0253108D01*
X0308693Y0252263D01*
X0309171Y0251547D01*
X0309888Y0251068D01*
X0310732Y0250900D01*
X0311577Y0251068D01*
X0312294Y0251547D01*
X0312772Y0252263D01*
X0312940Y0253108D01*
X0312772Y0253953D01*
X0312294Y0254669D01*
X0311577Y0255148D01*
X0310732Y0255316D01*
D02*
G37*
G36*
X0205310Y0250908D02*
X0204712D01*
Y0249940D01*
X0202704Y0249864D01*
Y0250908D01*
X0201180D01*
Y0249589D01*
X0202453D01*
X0202395Y0249513D01*
X0202343Y0249404D01*
X0202298Y0249264D01*
X0202258Y0249091D01*
X0202224Y0248886D01*
X0202176Y0248379D01*
X0202151Y0247742D01*
X0202148Y0247376D01*
X0201180D01*
Y0246778D01*
X0201541Y0246826D01*
X0202810Y0247352D01*
X0203900Y0248188D01*
X0204736Y0249277D01*
X0205262Y0250546D01*
X0205310Y0250908D01*
D02*
G37*
G36*
X0199180D02*
X0197860D01*
Y0249635D01*
X0197784Y0249693D01*
X0197676Y0249744D01*
X0197535Y0249790D01*
X0197362Y0249830D01*
X0197157Y0249863D01*
X0196650Y0249912D01*
X0196014Y0249937D01*
X0195647Y0249940D01*
Y0250908D01*
X0195050D01*
X0195097Y0250546D01*
X0195623Y0249277D01*
X0196459Y0248188D01*
X0197549Y0247352D01*
X0198818Y0246826D01*
X0199180Y0246778D01*
Y0247376D01*
X0198211D01*
X0198208Y0247742D01*
X0198135Y0248886D01*
X0198101Y0249091D01*
X0198062Y0249264D01*
X0198016Y0249404D01*
X0197964Y0249513D01*
X0197906Y0249589D01*
X0199180D01*
Y0250908D01*
D02*
G37*
G36*
X0261353Y0246540D02*
X0260546Y0246380D01*
X0259863Y0245923D01*
X0259406Y0245240D01*
X0259245Y0244433D01*
X0259406Y0243627D01*
X0259863Y0242943D01*
X0260546Y0242486D01*
X0261353Y0242326D01*
X0262159Y0242486D01*
X0262843Y0242943D01*
X0263300Y0243627D01*
X0263460Y0244433D01*
X0263300Y0245240D01*
X0262843Y0245923D01*
X0262159Y0246380D01*
X0261353Y0246540D01*
D02*
G37*
G36*
X0251080D02*
X0250273Y0246380D01*
X0249589Y0245923D01*
X0249133Y0245240D01*
X0248972Y0244433D01*
X0249133Y0243627D01*
X0249589Y0242943D01*
X0250273Y0242486D01*
X0251080Y0242326D01*
X0251886Y0242486D01*
X0252570Y0242943D01*
X0253027Y0243627D01*
X0253187Y0244433D01*
X0253027Y0245240D01*
X0252570Y0245923D01*
X0251886Y0246380D01*
X0251080Y0246540D01*
D02*
G37*
G36*
X0240780D02*
X0239973Y0246380D01*
X0239289Y0245923D01*
X0238833Y0245240D01*
X0238672Y0244433D01*
X0238833Y0243627D01*
X0239289Y0242943D01*
X0239973Y0242486D01*
X0240780Y0242326D01*
X0241586Y0242486D01*
X0242270Y0242943D01*
X0242727Y0243627D01*
X0242887Y0244433D01*
X0242727Y0245240D01*
X0242270Y0245923D01*
X0241586Y0246380D01*
X0240780Y0246540D01*
D02*
G37*
G36*
X0295380Y0246516D02*
X0294573Y0246355D01*
X0293889Y0245898D01*
X0293433Y0245215D01*
X0293272Y0244408D01*
X0293433Y0243602D01*
X0293889Y0242918D01*
X0294573Y0242461D01*
X0295380Y0242301D01*
X0296186Y0242461D01*
X0296376Y0242588D01*
X0296690Y0242118D01*
X0297373Y0241661D01*
X0298180Y0241501D01*
X0298986Y0241661D01*
X0299670Y0242118D01*
X0300127Y0242802D01*
X0300287Y0243608D01*
X0300127Y0244415D01*
X0299670Y0245098D01*
X0298986Y0245555D01*
X0298180Y0245716D01*
X0297373Y0245555D01*
X0297184Y0245428D01*
X0296870Y0245898D01*
X0296186Y0246355D01*
X0295380Y0246516D01*
D02*
G37*
G36*
X0290480Y0245716D02*
X0289673Y0245555D01*
X0288989Y0245098D01*
X0288533Y0244415D01*
X0288372Y0243608D01*
X0288533Y0242802D01*
X0288989Y0242118D01*
X0289673Y0241661D01*
X0290480Y0241501D01*
X0291286Y0241661D01*
X0291970Y0242118D01*
X0292427Y0242802D01*
X0292587Y0243608D01*
X0292427Y0244415D01*
X0291970Y0245098D01*
X0291286Y0245555D01*
X0290480Y0245716D01*
D02*
G37*
G36*
X0276262Y0242516D02*
X0275456Y0242355D01*
X0274772Y0241898D01*
X0274315Y0241215D01*
X0274155Y0240408D01*
X0274315Y0239602D01*
X0274772Y0238918D01*
X0275456Y0238461D01*
X0276262Y0238301D01*
X0277069Y0238461D01*
X0277752Y0238918D01*
X0278209Y0239602D01*
X0278370Y0240408D01*
X0278209Y0241215D01*
X0277752Y0241898D01*
X0277069Y0242355D01*
X0276262Y0242516D01*
D02*
G37*
G36*
X0264880Y0239389D02*
X0264212Y0239301D01*
X0263589Y0239043D01*
X0263054Y0238633D01*
X0262644Y0238099D01*
X0262465Y0237666D01*
X0262213Y0237604D01*
X0261925Y0237609D01*
X0261524Y0238131D01*
X0260938Y0238580D01*
X0260256Y0238863D01*
X0259524Y0238960D01*
X0256276D01*
X0255543Y0238863D01*
X0254861Y0238580D01*
X0254275Y0238131D01*
X0253825Y0237545D01*
X0253543Y0236862D01*
X0253446Y0236130D01*
Y0232882D01*
X0253543Y0232150D01*
X0253825Y0231468D01*
X0254275Y0230882D01*
X0254861Y0230432D01*
X0255543Y0230149D01*
X0256276Y0230053D01*
X0259524D01*
X0260256Y0230149D01*
X0260938Y0230432D01*
X0261524Y0230882D01*
X0261974Y0231468D01*
X0262257Y0232150D01*
X0262353Y0232882D01*
Y0235076D01*
X0262853Y0235245D01*
X0263054Y0234983D01*
X0263589Y0234573D01*
X0264212Y0234315D01*
X0264880Y0234227D01*
X0265548Y0234315D01*
X0266170Y0234573D01*
X0266705Y0234983D01*
X0267115Y0235518D01*
X0267373Y0236140D01*
X0267461Y0236808D01*
X0267373Y0237476D01*
X0267115Y0238099D01*
X0266705Y0238633D01*
X0266170Y0239043D01*
X0265548Y0239301D01*
X0264880Y0239389D01*
D02*
G37*
G36*
X0186869Y0240155D02*
Y0236780D01*
X0190244D01*
X0190222Y0236946D01*
X0189772Y0238033D01*
X0189056Y0238967D01*
X0188122Y0239683D01*
X0187035Y0240133D01*
X0186869Y0240155D01*
D02*
G37*
G36*
X0184869D02*
X0184702Y0240133D01*
X0183615Y0239683D01*
X0182682Y0238967D01*
X0181965Y0238033D01*
X0181515Y0236946D01*
X0181493Y0236780D01*
X0184869D01*
Y0240155D01*
D02*
G37*
G36*
X0216900Y0239636D02*
X0216538Y0239588D01*
X0215269Y0239063D01*
X0214179Y0238227D01*
X0213343Y0237137D01*
X0212818Y0235868D01*
X0212770Y0235506D01*
X0213367D01*
Y0236475D01*
X0213734Y0236478D01*
X0214878Y0236551D01*
X0215083Y0236584D01*
X0215255Y0236624D01*
X0215396Y0236670D01*
X0215504Y0236722D01*
X0215580Y0236780D01*
Y0235506D01*
X0216900D01*
Y0236826D01*
X0215626D01*
X0215684Y0236902D01*
X0215736Y0237010D01*
X0215782Y0237151D01*
X0215821Y0237323D01*
X0215855Y0237528D01*
X0215904Y0238036D01*
X0215928Y0238672D01*
X0215931Y0239038D01*
X0216900D01*
Y0239636D01*
D02*
G37*
G36*
X0306980Y0239616D02*
X0306173Y0239455D01*
X0305489Y0238998D01*
X0305033Y0238315D01*
X0304872Y0237508D01*
X0305033Y0236702D01*
X0305489Y0236018D01*
X0306173Y0235561D01*
X0306980Y0235401D01*
X0307786Y0235561D01*
X0308470Y0236018D01*
X0308927Y0236702D01*
X0309087Y0237508D01*
X0308927Y0238315D01*
X0308470Y0238998D01*
X0307786Y0239455D01*
X0306980Y0239616D01*
D02*
G37*
G36*
X0314141Y0237316D02*
X0313296Y0237148D01*
X0312580Y0236669D01*
X0312101Y0235953D01*
X0311933Y0235108D01*
X0312101Y0234263D01*
X0312580Y0233547D01*
X0313296Y0233068D01*
X0314141Y0232900D01*
X0314986Y0233068D01*
X0315702Y0233547D01*
X0316181Y0234263D01*
X0316349Y0235108D01*
X0316181Y0235953D01*
X0315702Y0236669D01*
X0314986Y0237148D01*
X0314141Y0237316D01*
D02*
G37*
G36*
X0198680Y0239843D02*
X0197719Y0239717D01*
X0196823Y0239346D01*
X0196054Y0238756D01*
X0195464Y0237987D01*
X0195093Y0237091D01*
X0194967Y0236130D01*
X0195093Y0235170D01*
X0195464Y0234274D01*
X0196054Y0233505D01*
X0196823Y0232915D01*
X0197719Y0232544D01*
X0198680Y0232418D01*
X0199641Y0232544D01*
X0200536Y0232915D01*
X0201305Y0233505D01*
X0201895Y0234274D01*
X0202266Y0235170D01*
X0202393Y0236130D01*
X0202266Y0237091D01*
X0201895Y0237987D01*
X0201305Y0238756D01*
X0200536Y0239346D01*
X0199641Y0239717D01*
X0198680Y0239843D01*
D02*
G37*
G36*
X0216900Y0233506D02*
X0215580D01*
Y0232232D01*
X0215504Y0232291D01*
X0215396Y0232342D01*
X0215255Y0232388D01*
X0215083Y0232428D01*
X0214878Y0232461D01*
X0214370Y0232510D01*
X0213734Y0232535D01*
X0213367Y0232538D01*
Y0233506D01*
X0212770D01*
X0212818Y0233144D01*
X0213343Y0231875D01*
X0214179Y0230786D01*
X0215269Y0229949D01*
X0216538Y0229424D01*
X0216900Y0229376D01*
Y0229974D01*
X0215931D01*
X0215929Y0230343D01*
X0215827Y0231827D01*
X0215795Y0231953D01*
X0215758Y0232044D01*
X0215718Y0232100D01*
X0216900D01*
Y0233506D01*
D02*
G37*
G36*
X0190244Y0234780D02*
X0186869D01*
Y0231404D01*
X0187035Y0231426D01*
X0188122Y0231877D01*
X0189056Y0232593D01*
X0189772Y0233526D01*
X0190222Y0234613D01*
X0190244Y0234780D01*
D02*
G37*
G36*
X0184869D02*
X0181493D01*
X0181515Y0234613D01*
X0181965Y0233526D01*
X0182682Y0232593D01*
X0183615Y0231877D01*
X0184702Y0231426D01*
X0184869Y0231404D01*
Y0234780D01*
D02*
G37*
G36*
X0247900Y0238973D02*
X0246743Y0238821D01*
X0245666Y0238375D01*
X0244741Y0237665D01*
X0244031Y0236740D01*
X0243585Y0235662D01*
X0243432Y0234506D01*
X0243585Y0233350D01*
X0244031Y0232273D01*
X0244741Y0231347D01*
X0245666Y0230637D01*
X0246743Y0230191D01*
X0247900Y0230039D01*
X0249056Y0230191D01*
X0250133Y0230637D01*
X0251059Y0231347D01*
X0251769Y0232273D01*
X0252215Y0233350D01*
X0252367Y0234506D01*
X0252215Y0235662D01*
X0251769Y0236740D01*
X0251059Y0237665D01*
X0250133Y0238375D01*
X0249056Y0238821D01*
X0247900Y0238973D01*
D02*
G37*
G36*
X0237900D02*
X0236743Y0238821D01*
X0235666Y0238375D01*
X0234741Y0237665D01*
X0234031Y0236740D01*
X0233585Y0235662D01*
X0233432Y0234506D01*
X0233585Y0233350D01*
X0234031Y0232273D01*
X0234741Y0231347D01*
X0235666Y0230637D01*
X0236743Y0230191D01*
X0237900Y0230039D01*
X0239056Y0230191D01*
X0240133Y0230637D01*
X0241059Y0231347D01*
X0241769Y0232273D01*
X0242215Y0233350D01*
X0242367Y0234506D01*
X0242215Y0235662D01*
X0241769Y0236740D01*
X0241059Y0237665D01*
X0240133Y0238375D01*
X0239056Y0238821D01*
X0237900Y0238973D01*
D02*
G37*
G36*
X0218900Y0239636D02*
Y0239038D01*
X0219868D01*
X0219871Y0238672D01*
X0219945Y0237528D01*
X0219978Y0237323D01*
X0220018Y0237151D01*
X0220063Y0237010D01*
X0220115Y0236902D01*
X0220173Y0236826D01*
X0218900D01*
Y0234506D01*
X0217900D01*
D01*
X0218900D01*
Y0232100D01*
X0220081D01*
X0220041Y0232044D01*
X0220005Y0231953D01*
X0219973Y0231827D01*
X0219945Y0231667D01*
X0219902Y0231242D01*
X0219877Y0230677D01*
X0219868Y0229974D01*
X0218900D01*
Y0229376D01*
X0219262Y0229424D01*
X0220531Y0229949D01*
X0221620Y0230786D01*
X0222456Y0231875D01*
X0222982Y0233144D01*
X0223045Y0233621D01*
X0223549D01*
X0223585Y0233350D01*
X0224031Y0232273D01*
X0224741Y0231347D01*
X0225666Y0230637D01*
X0226744Y0230191D01*
X0227900Y0230039D01*
X0229056Y0230191D01*
X0230133Y0230637D01*
X0231059Y0231347D01*
X0231769Y0232273D01*
X0232215Y0233350D01*
X0232367Y0234506D01*
X0232215Y0235662D01*
X0231769Y0236740D01*
X0231059Y0237665D01*
X0230133Y0238375D01*
X0229056Y0238821D01*
X0227900Y0238973D01*
X0226744Y0238821D01*
X0225666Y0238375D01*
X0224741Y0237665D01*
X0224031Y0236740D01*
X0223585Y0235662D01*
X0223549Y0235392D01*
X0223045D01*
X0222982Y0235868D01*
X0222456Y0237137D01*
X0221620Y0238227D01*
X0220531Y0239063D01*
X0219262Y0239588D01*
X0218900Y0239636D01*
D02*
G37*
%LPD*%
G36*
X0330195Y0261013D02*
X0330143Y0260904D01*
X0330098Y0260764D01*
X0330058Y0260591D01*
X0330024Y0260386D01*
X0329976Y0259879D01*
X0329951Y0259242D01*
X0329948Y0258876D01*
X0326011D01*
X0326008Y0259242D01*
X0325935Y0260386D01*
X0325901Y0260591D01*
X0325862Y0260764D01*
X0325816Y0260904D01*
X0325764Y0261013D01*
X0325706Y0261089D01*
X0330253D01*
X0330195Y0261013D01*
D02*
G37*
G36*
X0329951Y0257574D02*
X0330024Y0256431D01*
X0330058Y0256225D01*
X0330098Y0256052D01*
X0330143Y0255912D01*
X0330195Y0255804D01*
X0330253Y0255728D01*
X0325706D01*
X0325764Y0255804D01*
X0325816Y0255912D01*
X0325862Y0256052D01*
X0325901Y0256225D01*
X0325935Y0256431D01*
X0325984Y0256938D01*
X0326008Y0257574D01*
X0326011Y0257941D01*
X0329948D01*
X0329951Y0257574D01*
D02*
G37*
G36*
X0150195Y0261013D02*
X0150143Y0260904D01*
X0150098Y0260764D01*
X0150058Y0260591D01*
X0150024Y0260386D01*
X0149976Y0259879D01*
X0149951Y0259242D01*
X0149948Y0258876D01*
X0146011D01*
X0146008Y0259242D01*
X0145935Y0260386D01*
X0145901Y0260591D01*
X0145862Y0260764D01*
X0145816Y0260904D01*
X0145764Y0261013D01*
X0145706Y0261089D01*
X0150253D01*
X0150195Y0261013D01*
D02*
G37*
G36*
X0149951Y0257574D02*
X0150024Y0256431D01*
X0150058Y0256225D01*
X0150098Y0256052D01*
X0150143Y0255912D01*
X0150195Y0255804D01*
X0150253Y0255728D01*
X0145706D01*
X0145764Y0255804D01*
X0145816Y0255912D01*
X0145862Y0256052D01*
X0145901Y0256225D01*
X0145935Y0256431D01*
X0145984Y0256938D01*
X0146008Y0257574D01*
X0146011Y0257941D01*
X0149948D01*
X0149951Y0257574D01*
D02*
G37*
G54D17*
X0160885Y0489455D02*
Y0493995D01*
Y0489455D02*
X0162858Y0487483D01*
X0175063D02*
X0177407Y0489827D01*
X0162858Y0487483D02*
X0175063D01*
X0165157Y0498266D02*
X0167995D01*
X0160885Y0493995D02*
X0165157Y0498266D01*
G54D20*
X0567280Y0087441D02*
Y0093440D01*
X0571278Y0087441D01*
Y0093440D01*
X0574277Y0087441D02*
X0576277D01*
X0577276Y0088441D01*
Y0090440D01*
X0576277Y0091440D01*
X0574277D01*
X0573278Y0090440D01*
Y0088441D01*
X0574277Y0087441D01*
X0580275Y0092440D02*
Y0091440D01*
X0579276D01*
X0581275D01*
X0580275D01*
Y0088441D01*
X0581275Y0087441D01*
X0590272D02*
X0592272D01*
X0591272D01*
Y0091440D01*
X0590272D01*
X0595271Y0087441D02*
Y0091440D01*
X0598270D01*
X0599269Y0090440D01*
Y0087441D01*
X0607267Y0091440D02*
X0609266Y0087441D01*
X0611265Y0091440D01*
X0616264Y0087441D02*
X0614264D01*
X0613265Y0088441D01*
Y0090440D01*
X0614264Y0091440D01*
X0616264D01*
X0617264Y0090440D01*
Y0089441D01*
X0613265D01*
X0619263Y0091440D02*
Y0087441D01*
Y0089441D01*
X0620262Y0090440D01*
X0621262Y0091440D01*
X0622262D01*
X0625261Y0087441D02*
X0628260D01*
X0629260Y0088441D01*
X0628260Y0089441D01*
X0626261D01*
X0625261Y0090440D01*
X0626261Y0091440D01*
X0629260D01*
X0631259Y0087441D02*
X0633258D01*
X0632259D01*
Y0091440D01*
X0631259D01*
X0637257Y0087441D02*
X0639256D01*
X0640256Y0088441D01*
Y0090440D01*
X0639256Y0091440D01*
X0637257D01*
X0636257Y0090440D01*
Y0088441D01*
X0637257Y0087441D01*
X0642255D02*
Y0091440D01*
X0645254D01*
X0646254Y0090440D01*
Y0087441D01*
X0658250Y0091440D02*
X0655251D01*
X0654251Y0090440D01*
Y0088441D01*
X0655251Y0087441D01*
X0658250D01*
X0661249D02*
X0663249D01*
X0664248Y0088441D01*
Y0090440D01*
X0663249Y0091440D01*
X0661249D01*
X0660250Y0090440D01*
Y0088441D01*
X0661249Y0087441D01*
X0666248D02*
Y0091440D01*
X0669247D01*
X0670246Y0090440D01*
Y0087441D01*
X0673245Y0092440D02*
Y0091440D01*
X0672246D01*
X0674245D01*
X0673245D01*
Y0088441D01*
X0674245Y0087441D01*
X0677244Y0091440D02*
Y0087441D01*
Y0089441D01*
X0678244Y0090440D01*
X0679243Y0091440D01*
X0680243D01*
X0684242Y0087441D02*
X0686241D01*
X0687241Y0088441D01*
Y0090440D01*
X0686241Y0091440D01*
X0684242D01*
X0683242Y0090440D01*
Y0088441D01*
X0684242Y0087441D01*
X0689240D02*
X0691240D01*
X0690240D01*
Y0093440D01*
X0689240D01*
X0520678Y0092440D02*
X0519679Y0093440D01*
X0517679D01*
X0516680Y0092440D01*
Y0091440D01*
X0517679Y0090440D01*
X0519679D01*
X0520678Y0089441D01*
Y0088441D01*
X0519679Y0087441D01*
X0517679D01*
X0516680Y0088441D01*
X0522678Y0093440D02*
Y0089441D01*
X0524677Y0087441D01*
X0526676Y0089441D01*
Y0093440D01*
X0528676Y0087441D02*
Y0093440D01*
X0532675Y0087441D01*
Y0093440D01*
X0540672Y0087441D02*
Y0093440D01*
X0543671D01*
X0544671Y0092440D01*
Y0090440D01*
X0543671Y0089441D01*
X0540672D01*
X0542671D02*
X0544671Y0087441D01*
X0550669Y0093440D02*
X0546670D01*
Y0087441D01*
X0550669D01*
X0546670Y0090440D02*
X0548669D01*
X0552668Y0093440D02*
Y0089441D01*
X0554667Y0087441D01*
X0556667Y0089441D01*
Y0093440D01*
X0558666Y0091440D02*
X0559666D01*
Y0090440D01*
X0558666D01*
Y0091440D01*
Y0088441D02*
X0559666D01*
Y0087441D01*
X0558666D01*
Y0088441D01*
X0432880Y0087441D02*
Y0093440D01*
X0435879D01*
X0436878Y0092440D01*
Y0090440D01*
X0435879Y0089441D01*
X0432880D01*
X0434879D02*
X0436878Y0087441D01*
X0442876Y0093440D02*
X0438878D01*
Y0087441D01*
X0442876D01*
X0438878Y0090440D02*
X0440877D01*
X0444876Y0093440D02*
Y0089441D01*
X0446875Y0087441D01*
X0448875Y0089441D01*
Y0093440D01*
X0450874Y0091440D02*
X0451873D01*
Y0090440D01*
X0450874D01*
Y0091440D01*
Y0088441D02*
X0451873D01*
Y0087441D01*
X0450874D01*
Y0088441D01*
X0126780Y0046575D02*
Y0052573D01*
X0128779Y0050573D01*
X0130778Y0052573D01*
Y0046575D01*
X0136776Y0051573D02*
X0135777Y0052573D01*
X0133777D01*
X0132778Y0051573D01*
Y0047574D01*
X0133777Y0046575D01*
X0135777D01*
X0136776Y0047574D01*
X0138776Y0052573D02*
Y0047574D01*
X0139775Y0046575D01*
X0141775D01*
X0142774Y0047574D01*
Y0052573D01*
X0144774Y0046575D02*
X0146773D01*
X0145773D01*
Y0052573D01*
X0144774Y0051573D01*
X0153771Y0052573D02*
X0149772D01*
Y0049574D01*
X0151772Y0050573D01*
X0152771D01*
X0153771Y0049574D01*
Y0047574D01*
X0152771Y0046575D01*
X0150772D01*
X0149772Y0047574D01*
X0159769Y0046575D02*
X0155770D01*
X0159769Y0050573D01*
Y0051573D01*
X0158769Y0052573D01*
X0156770D01*
X0155770Y0051573D01*
X0161768Y0046575D02*
Y0050573D01*
X0163768Y0052573D01*
X0165767Y0050573D01*
Y0046575D01*
Y0049574D01*
X0161768D01*
X0167766Y0046575D02*
Y0047574D01*
X0168766D01*
Y0046575D01*
X0167766D01*
X0176763Y0051573D02*
X0175764Y0052573D01*
X0173764D01*
X0172765Y0051573D01*
Y0047574D01*
X0173764Y0046575D01*
X0175764D01*
X0176763Y0047574D01*
Y0049574D01*
X0174764D01*
X0178763Y0046575D02*
X0180762D01*
X0179762D01*
Y0052573D01*
X0178763Y0051573D01*
X0381030Y0052573D02*
X0385028D01*
Y0051573D01*
X0381030Y0047574D01*
Y0046575D01*
X0387028D02*
X0391026Y0050573D01*
X0397024Y0046575D02*
X0393026D01*
X0397024Y0050573D01*
Y0051573D01*
X0396025Y0052573D01*
X0394025D01*
X0393026Y0051573D01*
X0399024Y0046575D02*
X0401023D01*
X0400024D01*
Y0052573D01*
X0399024Y0051573D01*
X0404022Y0046575D02*
X0408021Y0050573D01*
X0414019Y0046575D02*
X0410020D01*
X0414019Y0050573D01*
Y0051573D01*
X0413019Y0052573D01*
X0411020D01*
X0410020Y0051573D01*
X0416018D02*
X0417018Y0052573D01*
X0419017D01*
X0420017Y0051573D01*
Y0047574D01*
X0419017Y0046575D01*
X0417018D01*
X0416018Y0047574D01*
Y0051573D01*
X0426015Y0046575D02*
X0422016D01*
X0426015Y0050573D01*
Y0051573D01*
X0425015Y0052573D01*
X0423016D01*
X0422016Y0051573D01*
X0432013Y0052573D02*
X0428014D01*
Y0049574D01*
X0430014Y0050573D01*
X0431013D01*
X0432013Y0049574D01*
Y0047574D01*
X0431013Y0046575D01*
X0429014D01*
X0428014Y0047574D01*
X0298078Y0051573D02*
X0297079Y0052573D01*
X0295079D01*
X0294080Y0051573D01*
Y0047574D01*
X0295079Y0046575D01*
X0297079D01*
X0298078Y0047574D01*
Y0049574D01*
X0296079D01*
X0304076Y0052573D02*
X0300078D01*
Y0046575D01*
X0304076D01*
X0300078Y0049574D02*
X0302077D01*
X0306076Y0046575D02*
Y0052573D01*
X0310074Y0046575D01*
Y0052573D01*
X0316073D02*
X0312074D01*
Y0046575D01*
X0316073D01*
X0312074Y0049574D02*
X0314073D01*
X0318072Y0046575D02*
Y0052573D01*
X0321071D01*
X0322071Y0051573D01*
Y0049574D01*
X0321071Y0048574D01*
X0318072D01*
X0320071D02*
X0322071Y0046575D01*
X0324070D02*
Y0050573D01*
X0326069Y0052573D01*
X0328069Y0050573D01*
Y0046575D01*
Y0049574D01*
X0324070D01*
X0330068Y0052573D02*
X0334067D01*
X0332067D01*
Y0046575D01*
X0340065Y0052573D02*
X0336066D01*
Y0046575D01*
X0340065D01*
X0336066Y0049574D02*
X0338065D01*
X0342064Y0052573D02*
Y0046575D01*
X0345063D01*
X0346063Y0047574D01*
Y0051573D01*
X0345063Y0052573D01*
X0342064D01*
X0372054Y0050573D02*
X0373054D01*
Y0049574D01*
X0372054D01*
Y0050573D01*
Y0047574D02*
X0373054D01*
Y0046575D01*
X0372054D01*
Y0047574D01*
X0046230Y0087441D02*
Y0091440D01*
X0048229Y0093440D01*
X0050228Y0091440D01*
Y0087441D01*
Y0090440D01*
X0046230D01*
X0052228Y0093440D02*
Y0087441D01*
X0056226D01*
X0058226Y0093440D02*
Y0087441D01*
X0062225D01*
X0070222D02*
Y0091440D01*
X0072221Y0093440D01*
X0074221Y0091440D01*
Y0087441D01*
Y0090440D01*
X0070222D01*
X0076220Y0087441D02*
Y0093440D01*
X0079219D01*
X0080219Y0092440D01*
Y0090440D01*
X0079219Y0089441D01*
X0076220D01*
X0078219D02*
X0080219Y0087441D01*
X0082218Y0093440D02*
X0086217D01*
X0084217D01*
Y0087441D01*
X0088216Y0093440D02*
Y0087441D01*
X0090215Y0089441D01*
X0092215Y0087441D01*
Y0093440D01*
X0097213D02*
X0095214D01*
X0094214Y0092440D01*
Y0088441D01*
X0095214Y0087441D01*
X0097213D01*
X0098213Y0088441D01*
Y0092440D01*
X0097213Y0093440D01*
X0100212Y0087441D02*
Y0093440D01*
X0103211D01*
X0104211Y0092440D01*
Y0090440D01*
X0103211Y0089441D01*
X0100212D01*
X0102211D02*
X0104211Y0087441D01*
X0106210Y0093440D02*
Y0087441D01*
Y0089441D01*
X0110209Y0093440D01*
X0107210Y0090440D01*
X0110209Y0087441D01*
X0118206Y0093440D02*
Y0089441D01*
X0120206Y0087441D01*
X0122205Y0089441D01*
Y0093440D01*
X0124204D02*
X0126204D01*
X0125204D01*
Y0087441D01*
X0124204D01*
X0126204D01*
X0133202Y0093440D02*
X0129203D01*
Y0087441D01*
X0133202D01*
X0129203Y0090440D02*
X0131202D01*
X0135201Y0093440D02*
Y0087441D01*
X0137200Y0089441D01*
X0139200Y0087441D01*
Y0093440D01*
X0145198D02*
X0141199D01*
Y0087441D01*
X0145198D01*
X0141199Y0090440D02*
X0143198D01*
X0147197Y0093440D02*
Y0087441D01*
X0150196D01*
X0151196Y0088441D01*
Y0092440D01*
X0150196Y0093440D01*
X0147197D01*
X0163192D02*
X0159193D01*
Y0090440D01*
X0161193D01*
X0159193D01*
Y0087441D01*
X0165191D02*
Y0093440D01*
X0168190D01*
X0169190Y0092440D01*
Y0090440D01*
X0168190Y0089441D01*
X0165191D01*
X0167191D02*
X0169190Y0087441D01*
X0174188Y0093440D02*
X0172189D01*
X0171189Y0092440D01*
Y0088441D01*
X0172189Y0087441D01*
X0174188D01*
X0175188Y0088441D01*
Y0092440D01*
X0174188Y0093440D01*
X0177187Y0087441D02*
Y0093440D01*
X0179187Y0091440D01*
X0181186Y0093440D01*
Y0087441D01*
X0189183Y0093440D02*
X0193182D01*
X0191183D01*
Y0087441D01*
X0198180Y0093440D02*
X0196181D01*
X0195182Y0092440D01*
Y0088441D01*
X0196181Y0087441D01*
X0198180D01*
X0199180Y0088441D01*
Y0092440D01*
X0198180Y0093440D01*
X0201180Y0087441D02*
Y0093440D01*
X0204179D01*
X0205178Y0092440D01*
Y0090440D01*
X0204179Y0089441D01*
X0201180D01*
X0217174Y0092440D02*
X0216175Y0093440D01*
X0214175D01*
X0213176Y0092440D01*
Y0091440D01*
X0214175Y0090440D01*
X0216175D01*
X0217174Y0089441D01*
Y0088441D01*
X0216175Y0087441D01*
X0214175D01*
X0213176Y0088441D01*
X0219174Y0093440D02*
X0221173D01*
X0220173D01*
Y0087441D01*
X0219174D01*
X0221173D01*
X0224172Y0093440D02*
Y0087441D01*
X0227171D01*
X0228171Y0088441D01*
Y0092440D01*
X0227171Y0093440D01*
X0224172D01*
X0234169D02*
X0230170D01*
Y0087441D01*
X0234169D01*
X0230170Y0090440D02*
X0232170D01*
X0462030Y0087441D02*
Y0091440D01*
X0464029Y0093440D01*
X0466028Y0091440D01*
Y0087441D01*
Y0090440D01*
X0462030D01*
X0348430Y0087441D02*
Y0093440D01*
X0350429Y0091440D01*
X0352428Y0093440D01*
Y0087441D01*
X0358426Y0092440D02*
X0357427Y0093440D01*
X0355427D01*
X0354428Y0092440D01*
Y0088441D01*
X0355427Y0087441D01*
X0357427D01*
X0358426Y0088441D01*
X0360426Y0093440D02*
Y0088441D01*
X0361425Y0087441D01*
X0363425D01*
X0364424Y0088441D01*
Y0093440D01*
X0366424Y0087441D02*
X0368423D01*
X0367424D01*
Y0093440D01*
X0366424Y0092440D01*
X0375421Y0093440D02*
X0371422D01*
Y0090440D01*
X0373422Y0091440D01*
X0374421D01*
X0375421Y0090440D01*
Y0088441D01*
X0374421Y0087441D01*
X0372422D01*
X0371422Y0088441D01*
X0381419Y0087441D02*
X0377420D01*
X0381419Y0091440D01*
Y0092440D01*
X0380419Y0093440D01*
X0378420D01*
X0377420Y0092440D01*
X0293880Y0093440D02*
Y0087441D01*
X0296879D01*
X0297878Y0088441D01*
Y0089441D01*
X0296879Y0090440D01*
X0293880D01*
X0296879D01*
X0297878Y0091440D01*
Y0092440D01*
X0296879Y0093440D01*
X0293880D01*
X0302877D02*
X0300877D01*
X0299878Y0092440D01*
Y0088441D01*
X0300877Y0087441D01*
X0302877D01*
X0303876Y0088441D01*
Y0092440D01*
X0302877Y0093440D01*
X0305876Y0087441D02*
Y0091440D01*
X0307875Y0093440D01*
X0309875Y0091440D01*
Y0087441D01*
Y0090440D01*
X0305876D01*
X0311874Y0087441D02*
Y0093440D01*
X0314873D01*
X0315873Y0092440D01*
Y0090440D01*
X0314873Y0089441D01*
X0311874D01*
X0313873D02*
X0315873Y0087441D01*
X0317872Y0093440D02*
Y0087441D01*
X0320871D01*
X0321871Y0088441D01*
Y0092440D01*
X0320871Y0093440D01*
X0317872D01*
X0330868Y0087441D02*
Y0093440D01*
X0332867D02*
Y0087441D01*
X0329868Y0091440D02*
X0332867D01*
X0333867D01*
X0329868Y0089441D02*
X0333867D01*
X0335866Y0091440D02*
X0336866D01*
Y0090440D01*
X0335866D01*
Y0091440D01*
Y0088441D02*
X0336866D01*
Y0087441D01*
X0335866D01*
Y0088441D01*
X0046230Y0073157D02*
Y0067159D01*
X0050228D01*
X0052228D02*
Y0071157D01*
X0054227Y0073157D01*
X0056226Y0071157D01*
Y0067159D01*
Y0070158D01*
X0052228D01*
X0058226Y0073157D02*
Y0072157D01*
X0060225Y0070158D01*
X0062225Y0072157D01*
Y0073157D01*
X0060225Y0070158D02*
Y0067159D01*
X0068222Y0073157D02*
X0064224D01*
Y0067159D01*
X0068222D01*
X0064224Y0070158D02*
X0066223D01*
X0070222Y0067159D02*
Y0073157D01*
X0073221D01*
X0074221Y0072157D01*
Y0070158D01*
X0073221Y0069158D01*
X0070222D01*
X0072221D02*
X0074221Y0067159D01*
X0082218D02*
Y0073157D01*
X0086217Y0067159D01*
Y0073157D01*
X0088216Y0067159D02*
Y0071157D01*
X0090215Y0073157D01*
X0092215Y0071157D01*
Y0067159D01*
Y0070158D01*
X0088216D01*
X0094214Y0067159D02*
Y0073157D01*
X0096214Y0071157D01*
X0098213Y0073157D01*
Y0067159D01*
X0104211Y0073157D02*
X0100212D01*
Y0067159D01*
X0104211D01*
X0100212Y0070158D02*
X0102211D01*
X0112208Y0069158D02*
X0116207D01*
X0112208Y0071157D02*
X0116207D01*
X0046230Y0046575D02*
Y0052573D01*
X0049229D01*
X0050228Y0051573D01*
Y0049574D01*
X0049229Y0048574D01*
X0046230D01*
X0052228Y0052573D02*
Y0046575D01*
X0056226D01*
X0061225Y0052573D02*
X0059225D01*
X0058226Y0051573D01*
Y0047574D01*
X0059225Y0046575D01*
X0061225D01*
X0062225Y0047574D01*
Y0051573D01*
X0061225Y0052573D01*
X0064224D02*
X0068222D01*
X0066223D01*
Y0046575D01*
X0076220D02*
Y0052573D01*
X0080219Y0046575D01*
Y0052573D01*
X0082218Y0046575D02*
Y0050573D01*
X0084217Y0052573D01*
X0086217Y0050573D01*
Y0046575D01*
Y0049574D01*
X0082218D01*
X0088216Y0046575D02*
Y0052573D01*
X0090215Y0050573D01*
X0092215Y0052573D01*
Y0046575D01*
X0098213Y0052573D02*
X0094214D01*
Y0046575D01*
X0098213D01*
X0094214Y0049574D02*
X0096214D01*
X0106210Y0048574D02*
X0110209D01*
X0106210Y0050573D02*
X0110209D01*
X0456929Y0046575D02*
Y0052573D01*
X0453930Y0049574D01*
X0457928D01*
X0459928Y0050573D02*
X0460927D01*
Y0049574D01*
X0459928D01*
Y0050573D01*
Y0047574D02*
X0460927D01*
Y0046575D01*
X0459928D01*
Y0047574D01*
X0464926Y0051573D02*
X0465926Y0052573D01*
X0467925D01*
X0468925Y0051573D01*
Y0050573D01*
X0467925Y0049574D01*
X0466925D01*
X0467925D01*
X0468925Y0048574D01*
Y0047574D01*
X0467925Y0046575D01*
X0465926D01*
X0464926Y0047574D01*
X0470924Y0051573D02*
X0471924Y0052573D01*
X0473923D01*
X0474923Y0051573D01*
Y0047574D01*
X0473923Y0046575D01*
X0471924D01*
X0470924Y0047574D01*
Y0051573D01*
X0476922Y0050573D02*
X0477922D01*
Y0049574D01*
X0476922D01*
Y0050573D01*
Y0047574D02*
X0477922D01*
Y0046575D01*
X0476922D01*
Y0047574D01*
X0485919Y0052573D02*
X0481921D01*
Y0049574D01*
X0483920Y0050573D01*
X0484920D01*
X0485919Y0049574D01*
Y0047574D01*
X0484920Y0046575D01*
X0482920D01*
X0481921Y0047574D01*
X0487919Y0052573D02*
X0491917D01*
Y0051573D01*
X0487919Y0047574D01*
Y0046575D01*
X0499915D02*
Y0052573D01*
X0502914D01*
X0503913Y0051573D01*
Y0049574D01*
X0502914Y0048574D01*
X0499915D01*
X0505913Y0046575D02*
Y0052573D01*
X0507912Y0050573D01*
X0509911Y0052573D01*
Y0046575D01*
X0580380Y0052573D02*
X0584378D01*
X0582379D01*
Y0046575D01*
X0590376Y0052573D02*
X0586378D01*
Y0046575D01*
X0590376D01*
X0586378Y0049574D02*
X0588377D01*
X0592376Y0052573D02*
X0596375Y0046575D01*
Y0052573D02*
X0592376Y0046575D01*
X0598374D02*
Y0050573D01*
X0600373Y0052573D01*
X0602373Y0050573D01*
Y0046575D01*
Y0049574D01*
X0598374D01*
X0608371Y0051573D02*
X0607371Y0052573D01*
X0605372D01*
X0604372Y0051573D01*
Y0050573D01*
X0605372Y0049574D01*
X0607371D01*
X0608371Y0048574D01*
Y0047574D01*
X0607371Y0046575D01*
X0605372D01*
X0604372Y0047574D01*
X0616368Y0052573D02*
X0618367D01*
X0617368D01*
Y0046575D01*
X0616368D01*
X0618367D01*
X0621366D02*
Y0052573D01*
X0625365Y0046575D01*
Y0052573D01*
X0631363Y0051573D02*
X0630364Y0052573D01*
X0628364D01*
X0627364Y0051573D01*
Y0050573D01*
X0628364Y0049574D01*
X0630364D01*
X0631363Y0048574D01*
Y0047574D01*
X0630364Y0046575D01*
X0628364D01*
X0627364Y0047574D01*
X0633362Y0052573D02*
X0637361D01*
X0635362D01*
Y0046575D01*
X0639361D02*
Y0052573D01*
X0642360D01*
X0643359Y0051573D01*
Y0049574D01*
X0642360Y0048574D01*
X0639361D01*
X0641360D02*
X0643359Y0046575D01*
X0645359Y0052573D02*
Y0047574D01*
X0646358Y0046575D01*
X0648358D01*
X0649357Y0047574D01*
Y0052573D01*
X0651357Y0046575D02*
Y0052573D01*
X0653356Y0050573D01*
X0655355Y0052573D01*
Y0046575D01*
X0661353Y0052573D02*
X0657355D01*
Y0046575D01*
X0661353D01*
X0657355Y0049574D02*
X0659354D01*
X0663353Y0046575D02*
Y0052573D01*
X0667351Y0046575D01*
Y0052573D01*
X0669351D02*
X0673350D01*
X0671350D01*
Y0046575D01*
X0679348Y0051573D02*
X0678348Y0052573D01*
X0676349D01*
X0675349Y0051573D01*
Y0050573D01*
X0676349Y0049574D01*
X0678348D01*
X0679348Y0048574D01*
Y0047574D01*
X0678348Y0046575D01*
X0676349D01*
X0675349Y0047574D01*
X0293880Y0073106D02*
X0297878D01*
X0295879D01*
Y0067108D01*
X0299878Y0073106D02*
X0301877D01*
X0300877D01*
Y0067108D01*
X0299878D01*
X0301877D01*
X0304876Y0073106D02*
Y0067108D01*
X0307875D01*
X0308875Y0068108D01*
Y0072106D01*
X0307875Y0073106D01*
X0304876D01*
X0317872Y0067108D02*
Y0073106D01*
X0319871D02*
Y0067108D01*
X0316872Y0071107D02*
X0319871D01*
X0320871D01*
X0316872Y0069108D02*
X0320871D01*
X0322870Y0071107D02*
X0323870D01*
Y0070107D01*
X0322870D01*
Y0071107D01*
Y0068108D02*
X0323870D01*
Y0067108D01*
X0322870D01*
Y0068108D01*
X0348430Y0067108D02*
Y0068108D01*
X0349429D01*
Y0067108D01*
X0348430D01*
X0353428Y0073106D02*
X0357427D01*
X0355427D01*
Y0067108D01*
X0359426Y0073106D02*
X0361425D01*
X0360426D01*
Y0067108D01*
X0359426D01*
X0361425D01*
X0364424Y0073106D02*
Y0067108D01*
X0367424D01*
X0368423Y0068108D01*
Y0072106D01*
X0367424Y0073106D01*
X0364424D01*
X0127080Y0067008D02*
Y0073006D01*
X0129079Y0071007D01*
X0131078Y0073006D01*
Y0067008D01*
X0133078D02*
X0135077D01*
X0134077D01*
Y0073006D01*
X0133078Y0072006D01*
X0138076Y0067008D02*
X0140075D01*
X0139076D01*
Y0073006D01*
X0138076Y0072006D01*
X0153071D02*
X0152072Y0073006D01*
X0150072D01*
X0149073Y0072006D01*
Y0068008D01*
X0150072Y0067008D01*
X0152072D01*
X0153071Y0068008D01*
Y0070007D01*
X0151072D01*
X0158070Y0067008D02*
X0156070D01*
X0155071Y0068008D01*
Y0070007D01*
X0156070Y0071007D01*
X0158070D01*
X0159069Y0070007D01*
Y0069007D01*
X0155071D01*
X0161069Y0071007D02*
Y0067008D01*
Y0069007D01*
X0162068Y0070007D01*
X0163068Y0071007D01*
X0164068D01*
X0167067Y0073006D02*
Y0067008D01*
X0170066D01*
X0171065Y0068008D01*
Y0069007D01*
Y0070007D01*
X0170066Y0071007D01*
X0167067D01*
X0176064Y0067008D02*
X0174064D01*
X0173065Y0068008D01*
Y0070007D01*
X0174064Y0071007D01*
X0176064D01*
X0177064Y0070007D01*
Y0069007D01*
X0173065D01*
X0179063Y0071007D02*
Y0067008D01*
Y0069007D01*
X0180062Y0070007D01*
X0181062Y0071007D01*
X0182062D01*
X0191059Y0073006D02*
X0193058D01*
X0192059D01*
Y0067008D01*
X0191059D01*
X0193058D01*
X0196057D02*
Y0071007D01*
X0199056D01*
X0200056Y0070007D01*
Y0067008D01*
X0203055D02*
Y0072006D01*
Y0070007D01*
X0202055D01*
X0204055D01*
X0203055D01*
Y0072006D01*
X0204055Y0073006D01*
X0208053Y0067008D02*
X0210053D01*
X0211052Y0068008D01*
Y0070007D01*
X0210053Y0071007D01*
X0208053D01*
X0207054Y0070007D01*
Y0068008D01*
X0208053Y0067008D01*
X0213052Y0071007D02*
Y0067008D01*
Y0069007D01*
X0214052Y0070007D01*
X0215051Y0071007D01*
X0216051D01*
X0219050Y0067008D02*
Y0071007D01*
X0220050D01*
X0221049Y0070007D01*
Y0067008D01*
Y0070007D01*
X0222049Y0071007D01*
X0223049Y0070007D01*
Y0067008D01*
X0226048Y0071007D02*
X0228047D01*
X0229047Y0070007D01*
Y0067008D01*
X0226048D01*
X0225048Y0068008D01*
X0226048Y0069007D01*
X0229047D01*
X0232046Y0072006D02*
Y0071007D01*
X0231046D01*
X0233045D01*
X0232046D01*
Y0068008D01*
X0233045Y0067008D01*
X0236044D02*
X0238044D01*
X0237044D01*
Y0071007D01*
X0236044D01*
X0242042Y0067008D02*
X0244042D01*
X0245041Y0068008D01*
Y0070007D01*
X0244042Y0071007D01*
X0242042D01*
X0241043Y0070007D01*
Y0068008D01*
X0242042Y0067008D01*
X0247041D02*
Y0071007D01*
X0250040D01*
X0251040Y0070007D01*
Y0067008D01*
G54D31*
X0497080Y0080325D02*
Y0100658D01*
X0413080Y0080325D02*
Y0100658D01*
X0039880Y0080325D02*
X0700080D01*
X0039880Y0059992D02*
X0699880D01*
X0039880Y0039658D02*
X0440380D01*
X0039930Y0100658D02*
X0700080D01*
X0039930Y0039658D02*
Y0100658D01*
Y0039658D02*
X0197480D01*
X0039880D02*
Y0100658D01*
X0286380Y0039658D02*
Y0100658D01*
X0700080Y0039658D02*
Y0100658D01*
X0440380Y0039658D02*
X0700080D01*
X0559280Y0039008D02*
Y0059292D01*
G54D100*
X0155283Y0500184D02*
D03*
X0186740D02*
D03*
G54D101*
X0154003Y0497822D02*
D03*
X0188019D02*
D03*
G54D102*
X0147980Y0518688D02*
D03*
X0194043D02*
D03*
G54D112*
X0319680Y0263408D02*
X0327980D01*
X0338580D01*
X0320480Y0253408D02*
X0327980D01*
X0338580D01*
X0327980D02*
Y0263408D01*
X0138161D02*
X0147980D01*
Y0253408D02*
Y0263408D01*
X0138255Y0253414D02*
X0138261Y0253408D01*
X0147980D01*
X0157980D01*
X0138155Y0263414D02*
X0138161Y0263408D01*
X0147980D02*
X0154880D01*
X0217900Y0229388D02*
Y0234506D01*
Y0241778D01*
X0192780Y0251908D02*
X0200180D01*
X0327980Y0369385D02*
Y0373408D01*
X0334480D01*
X0327980D02*
Y0379827D01*
X0154003Y0363408D02*
X0157980D01*
X0163880D01*
X0200180Y0251908D02*
X0205180D01*
X0200180Y0246064D02*
Y0251908D01*
X0209312Y0234506D02*
X0217900D01*
G54D113*
X0177818Y0495211D02*
X0181047Y0491983D01*
Y0490377D02*
Y0491983D01*
X0163889Y0491007D02*
Y0491967D01*
X0167133Y0495211D02*
X0177818D01*
X0163889Y0491967D02*
X0167133Y0495211D01*
G54D122*
X0147980Y0253408D02*
D03*
Y0263408D02*
D03*
X0200180Y0251908D02*
D03*
X0217900Y0234506D02*
D03*
X0327980Y0263408D02*
D03*
Y0253408D02*
D03*
G54D123*
X0185869Y0235780D02*
D03*
G54D126*
X0157980Y0363408D02*
D03*
X0327980Y0373408D02*
D03*
G54D128*
X0162248Y0420208D02*
D03*
X0158311D02*
D03*
X0160280Y0422669D02*
D03*
Y0417747D02*
D03*
G54D129*
X0316838Y0238805D02*
D03*
X0141130Y0262008D02*
D03*
X0154880Y0263408D02*
D03*
X0171519Y0260208D02*
D03*
X0337716Y0482534D02*
D03*
X0162730Y0337208D02*
D03*
X0172180Y0324138D02*
D03*
X0182819Y0332424D02*
D03*
X0182020Y0340804D02*
D03*
X0181978Y0349139D02*
D03*
X0174386Y0308018D02*
D03*
X0172732Y0316140D02*
D03*
X0180354Y0298896D02*
D03*
X0184358Y0307369D02*
D03*
X0180348Y0315762D02*
D03*
X0171519Y0332210D02*
D03*
X0229880Y0372508D02*
D03*
X0207880Y0357658D02*
D03*
X0195003Y0380708D02*
D03*
X0206087Y0341002D02*
D03*
X0267412Y0274190D02*
D03*
X0272280Y0263258D02*
D03*
X0300785Y0270090D02*
D03*
X0214180Y0309255D02*
D03*
X0195080Y0294828D02*
D03*
X0195003Y0336708D02*
D03*
X0168180Y0341318D02*
D03*
X0279630Y0293520D02*
D03*
X0262153Y0312108D02*
D03*
X0194043Y0251593D02*
D03*
X0205780Y0251708D02*
D03*
X0200180Y0245464D02*
D03*
X0152810Y0328505D02*
D03*
X0152711Y0288223D02*
D03*
X0153011Y0297905D02*
D03*
X0152911Y0308305D02*
D03*
X0163511Y0278605D02*
D03*
X0310609Y0369015D02*
D03*
X0312414Y0436705D02*
D03*
X0316809Y0258805D02*
D03*
X0292509Y0251240D02*
D03*
X0185211Y0282505D02*
D03*
X0185759Y0290605D02*
D03*
X0162459Y0328905D02*
D03*
X0213638Y0267058D02*
D03*
X0177244Y0252958D02*
D03*
X0157980Y0253408D02*
D03*
X0323280Y0385760D02*
D03*
X0277280Y0360808D02*
D03*
X0328766Y0466359D02*
D03*
X0223680Y0313994D02*
D03*
X0291380Y0284408D02*
D03*
X0251580Y0317608D02*
D03*
X0248880Y0319708D02*
D03*
X0245930Y0380581D02*
D03*
X0236080Y0290446D02*
D03*
X0213947Y0322201D02*
D03*
X0238080Y0322508D02*
D03*
X0126530Y0283208D02*
D03*
X0127180Y0317308D02*
D03*
X0126880Y0342908D02*
D03*
X0127030Y0380008D02*
D03*
X0347830Y0349425D02*
D03*
X0347632Y0309808D02*
D03*
X0347030Y0272208D02*
D03*
X0312073Y0269908D02*
D03*
X0334930Y0228982D02*
D03*
X0305370Y0230808D02*
D03*
X0283230Y0232462D02*
D03*
X0287933D02*
D03*
X0273930Y0228108D02*
D03*
X0268668D02*
D03*
X0140580Y0228808D02*
D03*
X0191680Y0228982D02*
D03*
X0157186Y0229508D02*
D03*
X0248480Y0446471D02*
D03*
X0276444Y0379958D02*
D03*
X0299587Y0377890D02*
D03*
X0234880Y0338608D02*
D03*
X0238694Y0303401D02*
D03*
X0302587Y0441440D02*
D03*
X0308121Y0410808D02*
D03*
X0348630Y0417108D02*
D03*
X0345280Y0385008D02*
D03*
X0336080Y0401008D02*
D03*
X0334480Y0393911D02*
D03*
X0316380Y0400969D02*
D03*
X0227580Y0294708D02*
D03*
X0229434Y0280167D02*
D03*
X0241811Y0293708D02*
D03*
X0262153Y0289015D02*
D03*
X0306685Y0286558D02*
D03*
X0287862Y0248415D02*
D03*
X0288043Y0256608D02*
D03*
X0182819Y0323708D02*
D03*
X0189507Y0395408D02*
D03*
X0175185Y0404919D02*
D03*
X0168114Y0389093D02*
D03*
X0248878Y0396802D02*
D03*
X0268665Y0397208D02*
D03*
X0277085Y0392812D02*
D03*
X0303177Y0353608D02*
D03*
X0276096Y0313056D02*
D03*
X0252380Y0387808D02*
D03*
X0208638Y0375658D02*
D03*
X0171085Y0357108D02*
D03*
X0249594Y0352108D02*
D03*
X0290580Y0289685D02*
D03*
X0164191Y0407171D02*
D03*
X0147930Y0401871D02*
D03*
X0166591Y0349271D02*
D03*
X0163502Y0308018D02*
D03*
X0163391Y0297611D02*
D03*
X0163591Y0288340D02*
D03*
X0267880Y0279711D02*
D03*
X0300880Y0306625D02*
D03*
X0296930Y0319911D02*
D03*
X0283780Y0320161D02*
D03*
X0290409Y0308828D02*
D03*
X0301348Y0365808D02*
D03*
X0215794Y0262075D02*
D03*
X0229294Y0261976D02*
D03*
X0247100Y0261901D02*
D03*
X0253980Y0262058D02*
D03*
X0240733Y0253976D02*
D03*
X0251225Y0253727D02*
D03*
X0263680Y0251371D02*
D03*
X0255580Y0333435D02*
D03*
X0232080Y0448508D02*
D03*
X0259888Y0316936D02*
D03*
X0228480Y0309608D02*
D03*
X0192180Y0315108D02*
D03*
X0245880Y0324808D02*
D03*
X0252580Y0372933D02*
D03*
X0183968Y0448200D02*
D03*
X0195080Y0353161D02*
D03*
Y0344828D02*
D03*
Y0278161D02*
D03*
X0195080Y0286495D02*
D03*
X0192230Y0300970D02*
D03*
X0195080Y0303161D02*
D03*
X0195080Y0311495D02*
D03*
X0192230Y0309304D02*
D03*
X0192242Y0325808D02*
D03*
X0282843Y0443240D02*
D03*
X0154819Y0482148D02*
D03*
X0183043Y0495066D02*
D03*
X0154929Y0487526D02*
D03*
X0179053Y0479388D02*
D03*
X0158094Y0490298D02*
D03*
X0177407Y0489827D02*
D03*
X0274074Y0463318D02*
D03*
X0275185Y0487914D02*
D03*
X0276826Y0492983D02*
D03*
X0278157Y0498448D02*
D03*
X0288763Y0498349D02*
D03*
X0301669Y0453889D02*
D03*
X0293645Y0454140D02*
D03*
X0314480Y0480656D02*
D03*
Y0485573D02*
D03*
X0241811Y0477953D02*
D03*
X0241913Y0471916D02*
D03*
X0239169Y0515546D02*
D03*
X0255125Y0515526D02*
D03*
X0247452Y0515633D02*
D03*
X0332484Y0502148D02*
D03*
X0332287Y0481168D02*
D03*
X0332247Y0476026D02*
D03*
X0335232Y0473133D02*
D03*
X0319078Y0457073D02*
D03*
X0317409Y0453829D02*
D03*
X0307960D02*
D03*
X0317877Y0445140D02*
D03*
X0303236Y0445357D02*
D03*
X0258448Y0479121D02*
D03*
Y0490144D02*
D03*
X0269121Y0471010D02*
D03*
X0281188Y0459058D02*
D03*
X0294720Y0464452D02*
D03*
X0282232Y0477743D02*
D03*
X0296550Y0472613D02*
D03*
X0284358Y0470066D02*
D03*
X0304791Y0472034D02*
D03*
X0313334Y0468176D02*
D03*
X0343454Y0478608D02*
D03*
X0253610Y0455499D02*
D03*
X0249279Y0467581D02*
D03*
X0242780Y0490377D02*
D03*
X0251204Y0478030D02*
D03*
X0244780Y0449008D02*
D03*
X0300196Y0505243D02*
D03*
X0270039Y0504089D02*
D03*
X0348280Y0505608D02*
D03*
X0197180Y0448302D02*
D03*
X0197232Y0465920D02*
D03*
X0197338Y0492971D02*
D03*
X0197023Y0478766D02*
D03*
X0197421Y0501570D02*
D03*
X0141354Y0520294D02*
D03*
X0127566Y0504440D02*
D03*
Y0484219D02*
D03*
X0142964Y0490310D02*
D03*
X0148019Y0484447D02*
D03*
X0138251Y0479164D02*
D03*
X0127798Y0462160D02*
D03*
X0157554Y0472731D02*
D03*
X0157783Y0466298D02*
D03*
X0156866Y0457680D02*
D03*
X0149283Y0460550D02*
D03*
X0130429Y0473814D02*
D03*
X0179562Y0465318D02*
D03*
X0138948Y0466633D02*
D03*
X0138491Y0448845D02*
D03*
X0217232Y0519660D02*
D03*
X0217999Y0498959D02*
D03*
Y0480365D02*
D03*
X0218192Y0464648D02*
D03*
X0216003Y0448530D02*
D03*
X0255873Y0502743D02*
D03*
X0267302Y0519207D02*
D03*
X0301380Y0519508D02*
D03*
X0333271Y0519207D02*
D03*
X0230401Y0494660D02*
D03*
X0290637Y0514908D02*
D03*
X0257507Y0472231D02*
D03*
X0306129Y0494884D02*
D03*
X0304397Y0486788D02*
D03*
X0299279Y0478097D02*
D03*
X0296523Y0485770D02*
D03*
X0296720Y0493648D02*
D03*
X0301105Y0501837D02*
D03*
X0320558Y0507467D02*
D03*
X0315342Y0519207D02*
D03*
X0313570Y0496877D02*
D03*
X0231531Y0505519D02*
D03*
X0223924Y0451837D02*
D03*
X0224003Y0481932D02*
D03*
X0283128Y0496864D02*
D03*
X0184654Y0482081D02*
D03*
X0324441Y0452594D02*
D03*
X0294024Y0498256D02*
D03*
X0348480Y0496108D02*
D03*
X0343780Y0500508D02*
D03*
X0330019Y0479121D02*
D03*
X0328984Y0487782D02*
D03*
X0177407Y0467683D02*
D03*
X0176208Y0473908D02*
D03*
G54D130*
X0188921Y0423208D02*
D03*
X0171380Y0430508D02*
D03*
X0153080Y0428972D02*
D03*
X0147480Y0429273D02*
D03*
X0163889Y0491007D02*
D03*
X0181047Y0490377D02*
D03*
X0147964Y0450227D02*
D03*
X0143767Y0461916D02*
D03*
X0171826Y0448790D02*
D03*
X0163160Y0454881D02*
D03*
X0169172Y0460633D02*
D03*
G54D132*
X0167995Y0498266D02*
D03*
M02*
