G04*
G04 #@! TF.GenerationSoftware,Altium Limited,Altium Designer,23.1.1 (15)*
G04*
G04 Layer_Color=16711935*
%FSAX25Y25*%
%MOIN*%
G70*
G04*
G04 #@! TF.SameCoordinates,3BE6CC82-2BF3-4767-8D6A-7EFB0FF24752*
G04*
G04*
G04 #@! TF.FilePolarity,Positive*
G04*
G01*
G75*
%ADD14C,0.00700*%
%ADD16C,0.00500*%
%ADD20C,0.00800*%
%ADD31C,0.01000*%
G36*
X1310480Y0227179D02*
Y0227079D01*
Y0226979D01*
Y0226879D01*
X1310380D01*
Y0226779D01*
Y0226679D01*
Y0226579D01*
Y0226479D01*
Y0226379D01*
X1310280D01*
Y0226279D01*
Y0226179D01*
Y0226079D01*
Y0225979D01*
Y0225879D01*
X1310180D01*
Y0225779D01*
Y0225679D01*
Y0225579D01*
Y0225479D01*
Y0225379D01*
X1310080D01*
Y0225279D01*
Y0225179D01*
Y0225079D01*
Y0224979D01*
X1307680D01*
Y0225079D01*
Y0225179D01*
X1307780D01*
Y0225279D01*
Y0225379D01*
Y0225479D01*
Y0225579D01*
Y0225679D01*
X1307880D01*
Y0225779D01*
Y0225879D01*
Y0225979D01*
Y0226079D01*
Y0226179D01*
X1307980D01*
Y0226279D01*
Y0226379D01*
Y0226479D01*
Y0226579D01*
Y0226679D01*
X1308080D01*
Y0226779D01*
Y0226879D01*
Y0226979D01*
Y0227079D01*
Y0227179D01*
X1308180D01*
Y0227279D01*
X1310480D01*
Y0227179D01*
D02*
G37*
G36*
X1329680Y0223879D02*
Y0223779D01*
Y0223679D01*
X1329780D01*
Y0223579D01*
Y0223479D01*
Y0223379D01*
X1329880D01*
Y0223279D01*
Y0223179D01*
Y0223079D01*
X1329980D01*
Y0222979D01*
Y0222879D01*
Y0222779D01*
X1330080D01*
Y0222679D01*
Y0222579D01*
Y0222479D01*
X1330180D01*
Y0222379D01*
Y0222279D01*
Y0222179D01*
X1330280D01*
Y0222079D01*
X1330180D01*
Y0221979D01*
X1329980D01*
Y0222079D01*
Y0222179D01*
X1329880D01*
Y0222279D01*
X1329780D01*
Y0222379D01*
X1329680D01*
Y0222479D01*
X1329480D01*
Y0222579D01*
X1329380D01*
Y0222679D01*
X1329080D01*
Y0222779D01*
X1328680D01*
Y0222879D01*
X1326580D01*
Y0222779D01*
X1326480D01*
Y0222679D01*
Y0222579D01*
X1326380D01*
Y0222479D01*
Y0222379D01*
Y0222279D01*
Y0222179D01*
Y0222079D01*
Y0221979D01*
Y0221879D01*
Y0221779D01*
Y0221679D01*
Y0221579D01*
Y0221479D01*
Y0221379D01*
Y0221279D01*
Y0221179D01*
Y0221079D01*
Y0220979D01*
Y0220879D01*
Y0220779D01*
Y0220679D01*
Y0220579D01*
Y0220479D01*
Y0220379D01*
Y0220279D01*
Y0220179D01*
Y0220079D01*
Y0219979D01*
Y0219879D01*
Y0219779D01*
Y0219679D01*
Y0219579D01*
Y0219479D01*
Y0219379D01*
Y0219279D01*
Y0219179D01*
Y0219079D01*
Y0218979D01*
Y0218879D01*
Y0218779D01*
Y0218679D01*
Y0218579D01*
Y0218479D01*
Y0218379D01*
Y0218279D01*
Y0218179D01*
Y0218079D01*
Y0217979D01*
Y0217879D01*
Y0217779D01*
Y0217679D01*
Y0217579D01*
Y0217479D01*
Y0217379D01*
Y0217279D01*
Y0217179D01*
Y0217079D01*
Y0216979D01*
Y0216879D01*
Y0216779D01*
Y0216679D01*
Y0216579D01*
Y0216479D01*
Y0216379D01*
Y0216279D01*
Y0216179D01*
Y0216079D01*
Y0215979D01*
Y0215879D01*
Y0215779D01*
Y0215679D01*
Y0215579D01*
Y0215479D01*
Y0215379D01*
Y0215279D01*
Y0215179D01*
Y0215079D01*
Y0214979D01*
Y0214879D01*
Y0214779D01*
Y0214679D01*
X1326480D01*
Y0214579D01*
Y0214479D01*
Y0214379D01*
X1326580D01*
Y0214279D01*
X1326680D01*
Y0214179D01*
X1326780D01*
Y0214079D01*
X1326980D01*
Y0213979D01*
X1327180D01*
Y0213879D01*
Y0213779D01*
Y0213679D01*
X1323780D01*
Y0213779D01*
Y0213879D01*
Y0213979D01*
X1323980D01*
Y0214079D01*
X1324180D01*
Y0214179D01*
X1324280D01*
Y0214279D01*
X1324380D01*
Y0214379D01*
X1324480D01*
Y0214479D01*
Y0214579D01*
Y0214679D01*
Y0214779D01*
X1324580D01*
Y0214879D01*
Y0214979D01*
Y0215079D01*
Y0215179D01*
Y0215279D01*
Y0215379D01*
Y0215479D01*
Y0215579D01*
Y0215679D01*
Y0215779D01*
Y0215879D01*
Y0215979D01*
Y0216079D01*
Y0216179D01*
Y0216279D01*
Y0216379D01*
Y0216479D01*
Y0216579D01*
Y0216679D01*
Y0216779D01*
Y0216879D01*
Y0216979D01*
Y0217079D01*
Y0217179D01*
Y0217279D01*
Y0217379D01*
Y0217479D01*
Y0217579D01*
Y0217679D01*
Y0217779D01*
Y0217879D01*
Y0217979D01*
Y0218079D01*
Y0218179D01*
Y0218279D01*
Y0218379D01*
Y0218479D01*
Y0218579D01*
Y0218679D01*
Y0218779D01*
Y0218879D01*
Y0218979D01*
Y0219079D01*
Y0219179D01*
Y0219279D01*
Y0219379D01*
Y0219479D01*
Y0219579D01*
Y0219679D01*
Y0219779D01*
Y0219879D01*
Y0219979D01*
Y0220079D01*
Y0220179D01*
Y0220279D01*
Y0220379D01*
Y0220479D01*
Y0220579D01*
Y0220679D01*
Y0220779D01*
Y0220879D01*
Y0220979D01*
Y0221079D01*
Y0221179D01*
Y0221279D01*
Y0221379D01*
Y0221479D01*
Y0221579D01*
Y0221679D01*
Y0221779D01*
Y0221879D01*
Y0221979D01*
Y0222079D01*
Y0222179D01*
Y0222279D01*
Y0222379D01*
Y0222479D01*
X1324480D01*
Y0222579D01*
Y0222679D01*
Y0222779D01*
X1324280D01*
Y0222879D01*
X1322280D01*
Y0222779D01*
X1321880D01*
Y0222679D01*
X1321580D01*
Y0222579D01*
X1321480D01*
Y0222479D01*
X1321280D01*
Y0222379D01*
X1321180D01*
Y0222279D01*
X1321080D01*
Y0222179D01*
X1320980D01*
Y0222079D01*
X1320880D01*
Y0221979D01*
X1320780D01*
Y0222079D01*
X1320680D01*
Y0222179D01*
Y0222279D01*
Y0222379D01*
X1320780D01*
Y0222479D01*
Y0222579D01*
X1320880D01*
Y0222679D01*
Y0222779D01*
Y0222879D01*
X1320980D01*
Y0222979D01*
Y0223079D01*
Y0223179D01*
X1321080D01*
Y0223279D01*
Y0223379D01*
Y0223479D01*
X1321180D01*
Y0223579D01*
Y0223679D01*
Y0223779D01*
X1321280D01*
Y0223879D01*
Y0223979D01*
X1329680D01*
Y0223879D01*
D02*
G37*
G36*
X1334580Y0221479D02*
Y0221379D01*
X1334680D01*
Y0221279D01*
Y0221179D01*
X1334780D01*
Y0221079D01*
Y0220979D01*
Y0220879D01*
X1334880D01*
Y0220779D01*
Y0220679D01*
Y0220579D01*
X1334980D01*
Y0220479D01*
Y0220379D01*
Y0220279D01*
X1335080D01*
Y0220179D01*
Y0220079D01*
X1335180D01*
Y0219979D01*
Y0219879D01*
Y0219779D01*
Y0219679D01*
X1334880D01*
Y0219779D01*
X1334780D01*
Y0219879D01*
X1334680D01*
Y0219979D01*
X1334580D01*
Y0220079D01*
X1334480D01*
Y0220179D01*
X1334380D01*
Y0220279D01*
X1334180D01*
Y0220379D01*
X1333980D01*
Y0220479D01*
X1333680D01*
Y0220579D01*
X1331080D01*
Y0220479D01*
X1330980D01*
Y0220379D01*
X1330880D01*
Y0220279D01*
Y0220179D01*
Y0220079D01*
Y0219979D01*
Y0219879D01*
Y0219779D01*
Y0219679D01*
Y0219579D01*
Y0219479D01*
Y0219379D01*
Y0219279D01*
Y0219179D01*
Y0219079D01*
Y0218979D01*
Y0218879D01*
Y0218779D01*
Y0218679D01*
Y0218579D01*
Y0218479D01*
Y0218379D01*
Y0218279D01*
X1333480D01*
Y0218379D01*
X1333680D01*
Y0218479D01*
X1333780D01*
Y0218579D01*
Y0218679D01*
X1333880D01*
Y0218779D01*
Y0218879D01*
X1334180D01*
Y0218779D01*
Y0218679D01*
Y0218579D01*
Y0218479D01*
Y0218379D01*
Y0218279D01*
Y0218179D01*
Y0218079D01*
Y0217979D01*
Y0217879D01*
Y0217779D01*
Y0217679D01*
Y0217579D01*
Y0217479D01*
Y0217379D01*
Y0217279D01*
Y0217179D01*
Y0217079D01*
Y0216979D01*
Y0216879D01*
Y0216779D01*
Y0216679D01*
X1333880D01*
Y0216779D01*
Y0216879D01*
Y0216979D01*
X1333780D01*
Y0217079D01*
X1333680D01*
Y0217179D01*
X1333580D01*
Y0217279D01*
X1333280D01*
Y0217379D01*
X1330880D01*
Y0217279D01*
Y0217179D01*
Y0217079D01*
Y0216979D01*
Y0216879D01*
Y0216779D01*
Y0216679D01*
Y0216579D01*
Y0216479D01*
Y0216379D01*
Y0216279D01*
Y0216179D01*
Y0216079D01*
Y0215979D01*
Y0215879D01*
Y0215779D01*
Y0215679D01*
Y0215579D01*
Y0215479D01*
Y0215379D01*
Y0215279D01*
Y0215179D01*
Y0215079D01*
Y0214979D01*
Y0214879D01*
X1330980D01*
Y0214779D01*
Y0214679D01*
X1331280D01*
Y0214579D01*
X1333380D01*
Y0214679D01*
X1334080D01*
Y0214779D01*
X1334380D01*
Y0214879D01*
X1334580D01*
Y0214979D01*
X1334680D01*
Y0215079D01*
X1334880D01*
Y0215179D01*
X1334980D01*
Y0215279D01*
X1335080D01*
Y0215379D01*
X1335180D01*
Y0215479D01*
X1335280D01*
Y0215579D01*
X1335380D01*
Y0215679D01*
X1335480D01*
Y0215579D01*
X1335580D01*
Y0215479D01*
Y0215379D01*
X1335480D01*
Y0215279D01*
Y0215179D01*
Y0215079D01*
X1335380D01*
Y0214979D01*
Y0214879D01*
X1335280D01*
Y0214779D01*
Y0214679D01*
Y0214579D01*
X1335180D01*
Y0214479D01*
Y0214379D01*
X1335080D01*
Y0214279D01*
Y0214179D01*
Y0214079D01*
X1334980D01*
Y0213979D01*
Y0213879D01*
X1334880D01*
Y0213779D01*
Y0213679D01*
X1328380D01*
Y0213779D01*
Y0213879D01*
Y0213979D01*
X1328680D01*
Y0214079D01*
X1328880D01*
Y0214179D01*
X1328980D01*
Y0214279D01*
X1329080D01*
Y0214379D01*
Y0214479D01*
X1329180D01*
Y0214579D01*
Y0214679D01*
Y0214779D01*
Y0214879D01*
Y0214979D01*
Y0215079D01*
Y0215179D01*
Y0215279D01*
Y0215379D01*
Y0215479D01*
Y0215579D01*
Y0215679D01*
Y0215779D01*
Y0215879D01*
Y0215979D01*
Y0216079D01*
Y0216179D01*
Y0216279D01*
Y0216379D01*
Y0216479D01*
Y0216579D01*
Y0216679D01*
Y0216779D01*
Y0216879D01*
Y0216979D01*
Y0217079D01*
Y0217179D01*
Y0217279D01*
Y0217379D01*
Y0217479D01*
Y0217579D01*
Y0217679D01*
Y0217779D01*
Y0217879D01*
Y0217979D01*
Y0218079D01*
Y0218179D01*
Y0218279D01*
Y0218379D01*
Y0218479D01*
Y0218579D01*
Y0218679D01*
Y0218779D01*
Y0218879D01*
Y0218979D01*
Y0219079D01*
Y0219179D01*
Y0219279D01*
Y0219379D01*
Y0219479D01*
Y0219579D01*
Y0219679D01*
Y0219779D01*
Y0219879D01*
Y0219979D01*
Y0220079D01*
Y0220179D01*
Y0220279D01*
Y0220379D01*
Y0220479D01*
Y0220579D01*
Y0220679D01*
Y0220779D01*
X1329080D01*
Y0220879D01*
Y0220979D01*
X1328980D01*
Y0221079D01*
X1328880D01*
Y0221179D01*
X1328580D01*
Y0221279D01*
X1328380D01*
Y0221379D01*
Y0221479D01*
Y0221579D01*
X1334580D01*
Y0221479D01*
D02*
G37*
G36*
X1355080Y0221579D02*
X1355480D01*
Y0221479D01*
X1355780D01*
Y0221379D01*
X1355980D01*
Y0221279D01*
X1356180D01*
Y0221179D01*
X1356280D01*
Y0221279D01*
X1356380D01*
Y0221379D01*
Y0221479D01*
Y0221579D01*
X1356780D01*
Y0221479D01*
X1356880D01*
Y0221379D01*
Y0221279D01*
Y0221179D01*
Y0221079D01*
X1356980D01*
Y0220979D01*
Y0220879D01*
Y0220779D01*
X1357080D01*
Y0220679D01*
Y0220579D01*
Y0220479D01*
Y0220379D01*
X1357180D01*
Y0220279D01*
Y0220179D01*
Y0220079D01*
X1357280D01*
Y0219979D01*
Y0219879D01*
Y0219779D01*
Y0219679D01*
X1357380D01*
Y0219579D01*
Y0219479D01*
X1357280D01*
Y0219379D01*
X1357080D01*
Y0219479D01*
X1356980D01*
Y0219579D01*
X1356880D01*
Y0219679D01*
X1356780D01*
Y0219779D01*
X1356680D01*
Y0219879D01*
X1356580D01*
Y0219979D01*
X1356480D01*
Y0220079D01*
X1356280D01*
Y0220179D01*
X1356180D01*
Y0220279D01*
X1355980D01*
Y0220379D01*
X1355680D01*
Y0220479D01*
X1355380D01*
Y0220579D01*
X1354980D01*
Y0220679D01*
X1354080D01*
Y0220579D01*
X1353680D01*
Y0220479D01*
X1353480D01*
Y0220379D01*
X1353280D01*
Y0220279D01*
X1353180D01*
Y0220179D01*
Y0220079D01*
X1353080D01*
Y0219979D01*
Y0219879D01*
Y0219779D01*
Y0219679D01*
Y0219579D01*
Y0219479D01*
Y0219379D01*
Y0219279D01*
X1353180D01*
Y0219179D01*
X1353280D01*
Y0219079D01*
X1353380D01*
Y0218979D01*
X1353680D01*
Y0218879D01*
X1353980D01*
Y0218779D01*
X1354380D01*
Y0218679D01*
X1354780D01*
Y0218579D01*
X1355280D01*
Y0218479D01*
X1355680D01*
Y0218379D01*
X1356080D01*
Y0218279D01*
X1356380D01*
Y0218179D01*
X1356580D01*
Y0218079D01*
X1356780D01*
Y0217979D01*
X1356980D01*
Y0217879D01*
X1357180D01*
Y0217779D01*
X1357280D01*
Y0217679D01*
X1357380D01*
Y0217579D01*
X1357480D01*
Y0217479D01*
X1357580D01*
Y0217379D01*
Y0217279D01*
X1357680D01*
Y0217179D01*
Y0217079D01*
X1357780D01*
Y0216979D01*
Y0216879D01*
Y0216779D01*
X1357880D01*
Y0216679D01*
Y0216579D01*
Y0216479D01*
Y0216379D01*
Y0216279D01*
Y0216179D01*
Y0216079D01*
Y0215979D01*
Y0215879D01*
Y0215779D01*
Y0215679D01*
Y0215579D01*
Y0215479D01*
Y0215379D01*
X1357780D01*
Y0215279D01*
Y0215179D01*
Y0215079D01*
X1357680D01*
Y0214979D01*
Y0214879D01*
X1357580D01*
Y0214779D01*
Y0214679D01*
X1357480D01*
Y0214579D01*
X1357380D01*
Y0214479D01*
X1357280D01*
Y0214379D01*
X1357180D01*
Y0214279D01*
X1357080D01*
Y0214179D01*
X1356980D01*
Y0214079D01*
X1356780D01*
Y0213979D01*
X1356580D01*
Y0213879D01*
X1356380D01*
Y0213779D01*
X1356080D01*
Y0213679D01*
X1355680D01*
Y0213579D01*
X1353880D01*
Y0213679D01*
X1353480D01*
Y0213779D01*
X1353180D01*
Y0213879D01*
X1352980D01*
Y0213979D01*
X1352780D01*
Y0214079D01*
X1352580D01*
Y0213979D01*
X1352480D01*
Y0213879D01*
Y0213779D01*
Y0213679D01*
X1351980D01*
Y0213779D01*
Y0213879D01*
Y0213979D01*
Y0214079D01*
X1351880D01*
Y0214179D01*
Y0214279D01*
Y0214379D01*
X1351780D01*
Y0214479D01*
Y0214579D01*
Y0214679D01*
Y0214779D01*
X1351680D01*
Y0214879D01*
Y0214979D01*
Y0215079D01*
Y0215179D01*
X1351580D01*
Y0215279D01*
Y0215379D01*
Y0215479D01*
Y0215579D01*
X1351480D01*
Y0215679D01*
Y0215779D01*
Y0215879D01*
X1351380D01*
Y0215979D01*
Y0216079D01*
X1351480D01*
Y0216179D01*
X1351680D01*
Y0216079D01*
X1351780D01*
Y0215979D01*
X1351880D01*
Y0215879D01*
X1351980D01*
Y0215779D01*
X1352080D01*
Y0215679D01*
X1352180D01*
Y0215579D01*
X1352280D01*
Y0215479D01*
X1352380D01*
Y0215379D01*
X1352480D01*
Y0215279D01*
X1352580D01*
Y0215179D01*
X1352780D01*
Y0215079D01*
X1352980D01*
Y0214979D01*
X1353080D01*
Y0214879D01*
X1353380D01*
Y0214779D01*
X1353580D01*
Y0214679D01*
X1353980D01*
Y0214579D01*
X1355380D01*
Y0214679D01*
X1355680D01*
Y0214779D01*
X1355880D01*
Y0214879D01*
X1355980D01*
Y0214979D01*
X1356080D01*
Y0215079D01*
X1356180D01*
Y0215179D01*
X1356280D01*
Y0215279D01*
Y0215379D01*
Y0215479D01*
X1356380D01*
Y0215579D01*
Y0215679D01*
Y0215779D01*
Y0215879D01*
Y0215979D01*
X1356280D01*
Y0216079D01*
Y0216179D01*
Y0216279D01*
X1356180D01*
Y0216379D01*
X1356080D01*
Y0216479D01*
X1355980D01*
Y0216579D01*
X1355780D01*
Y0216679D01*
X1355480D01*
Y0216779D01*
X1355080D01*
Y0216879D01*
X1354680D01*
Y0216979D01*
X1354180D01*
Y0217079D01*
X1353780D01*
Y0217179D01*
X1353380D01*
Y0217279D01*
X1353080D01*
Y0217379D01*
X1352880D01*
Y0217479D01*
X1352680D01*
Y0217579D01*
X1352480D01*
Y0217679D01*
X1352380D01*
Y0217779D01*
X1352280D01*
Y0217879D01*
X1352080D01*
Y0217979D01*
Y0218079D01*
X1351980D01*
Y0218179D01*
X1351880D01*
Y0218279D01*
Y0218379D01*
X1351780D01*
Y0218479D01*
Y0218579D01*
X1351680D01*
Y0218679D01*
Y0218779D01*
Y0218879D01*
Y0218979D01*
X1351580D01*
Y0219079D01*
Y0219179D01*
Y0219279D01*
Y0219379D01*
Y0219479D01*
Y0219579D01*
Y0219679D01*
Y0219779D01*
X1351680D01*
Y0219879D01*
Y0219979D01*
Y0220079D01*
Y0220179D01*
X1351780D01*
Y0220279D01*
Y0220379D01*
X1351880D01*
Y0220479D01*
Y0220579D01*
X1351980D01*
Y0220679D01*
X1352080D01*
Y0220779D01*
X1352180D01*
Y0220879D01*
X1352280D01*
Y0220979D01*
X1352380D01*
Y0221079D01*
X1352480D01*
Y0221179D01*
X1352580D01*
Y0221279D01*
X1352780D01*
Y0221379D01*
X1352980D01*
Y0221479D01*
X1353280D01*
Y0221579D01*
X1353780D01*
Y0221679D01*
X1355080D01*
Y0221579D01*
D02*
G37*
G36*
X1348280Y0221479D02*
Y0221379D01*
X1348380D01*
Y0221279D01*
Y0221179D01*
Y0221079D01*
X1348480D01*
Y0220979D01*
Y0220879D01*
Y0220779D01*
X1348580D01*
Y0220679D01*
Y0220579D01*
X1348680D01*
Y0220479D01*
Y0220379D01*
Y0220279D01*
X1348780D01*
Y0220179D01*
Y0220079D01*
X1348880D01*
Y0219979D01*
Y0219879D01*
Y0219779D01*
X1348980D01*
Y0219679D01*
Y0219579D01*
Y0219479D01*
X1349080D01*
Y0219379D01*
Y0219279D01*
X1349180D01*
Y0219179D01*
Y0219079D01*
Y0218979D01*
X1349280D01*
Y0218879D01*
Y0218779D01*
Y0218679D01*
X1349380D01*
Y0218579D01*
Y0218479D01*
X1349480D01*
Y0218379D01*
Y0218279D01*
Y0218179D01*
X1349580D01*
Y0218079D01*
Y0217979D01*
X1349680D01*
Y0217879D01*
Y0217779D01*
Y0217679D01*
X1349780D01*
Y0217579D01*
Y0217479D01*
Y0217379D01*
X1349880D01*
Y0217279D01*
Y0217179D01*
X1349980D01*
Y0217079D01*
Y0216979D01*
Y0216879D01*
X1350080D01*
Y0216779D01*
Y0216679D01*
Y0216579D01*
X1350180D01*
Y0216479D01*
Y0216379D01*
X1350280D01*
Y0216279D01*
Y0216179D01*
Y0216079D01*
X1350380D01*
Y0215979D01*
Y0215879D01*
X1350480D01*
Y0215779D01*
Y0215679D01*
Y0215579D01*
X1350580D01*
Y0215479D01*
Y0215379D01*
Y0215279D01*
X1350680D01*
Y0215179D01*
Y0215079D01*
X1350780D01*
Y0214979D01*
Y0214879D01*
Y0214779D01*
X1350880D01*
Y0214679D01*
Y0214579D01*
X1350980D01*
Y0214479D01*
X1351080D01*
Y0214379D01*
X1351180D01*
Y0214279D01*
X1351280D01*
Y0214179D01*
X1351380D01*
Y0214079D01*
X1351580D01*
Y0213979D01*
X1351680D01*
Y0213879D01*
Y0213779D01*
Y0213679D01*
X1348380D01*
Y0213779D01*
Y0213879D01*
Y0213979D01*
X1348680D01*
Y0214079D01*
X1348780D01*
Y0214179D01*
X1348880D01*
Y0214279D01*
X1348980D01*
Y0214379D01*
Y0214479D01*
Y0214579D01*
Y0214679D01*
Y0214779D01*
X1348880D01*
Y0214879D01*
Y0214979D01*
Y0215079D01*
X1348780D01*
Y0215179D01*
Y0215279D01*
X1348680D01*
Y0215379D01*
Y0215479D01*
Y0215579D01*
X1348580D01*
Y0215679D01*
Y0215779D01*
Y0215879D01*
X1345280D01*
Y0215779D01*
Y0215679D01*
Y0215579D01*
X1345180D01*
Y0215479D01*
Y0215379D01*
X1345080D01*
Y0215279D01*
Y0215179D01*
Y0215079D01*
X1344980D01*
Y0214979D01*
Y0214879D01*
Y0214779D01*
X1344880D01*
Y0214679D01*
Y0214579D01*
Y0214479D01*
Y0214379D01*
Y0214279D01*
Y0214179D01*
X1344980D01*
Y0214079D01*
X1345180D01*
Y0213979D01*
X1345480D01*
Y0213879D01*
Y0213779D01*
Y0213679D01*
X1340080D01*
Y0213779D01*
Y0213879D01*
Y0213979D01*
X1340380D01*
Y0214079D01*
X1340580D01*
Y0214179D01*
X1340680D01*
Y0214279D01*
X1340780D01*
Y0214379D01*
Y0214479D01*
Y0214579D01*
Y0214679D01*
X1340680D01*
Y0214779D01*
Y0214879D01*
X1340580D01*
Y0214979D01*
X1340480D01*
Y0215079D01*
X1340380D01*
Y0215179D01*
Y0215279D01*
X1340280D01*
Y0215379D01*
X1340180D01*
Y0215479D01*
Y0215579D01*
X1340080D01*
Y0215679D01*
X1339980D01*
Y0215779D01*
Y0215879D01*
X1339880D01*
Y0215979D01*
X1339780D01*
Y0216079D01*
Y0216179D01*
X1339680D01*
Y0216279D01*
X1339580D01*
Y0216379D01*
X1339480D01*
Y0216479D01*
Y0216579D01*
X1339380D01*
Y0216679D01*
X1339280D01*
Y0216779D01*
Y0216879D01*
X1339180D01*
Y0216779D01*
X1339080D01*
Y0216679D01*
Y0216579D01*
X1338980D01*
Y0216479D01*
Y0216379D01*
X1338880D01*
Y0216279D01*
X1338780D01*
Y0216179D01*
Y0216079D01*
X1338680D01*
Y0215979D01*
X1338580D01*
Y0215879D01*
Y0215779D01*
X1338480D01*
Y0215679D01*
X1338380D01*
Y0215579D01*
Y0215479D01*
X1338280D01*
Y0215379D01*
X1338180D01*
Y0215279D01*
Y0215179D01*
X1338080D01*
Y0215079D01*
Y0214979D01*
X1337980D01*
Y0214879D01*
X1337880D01*
Y0214779D01*
Y0214679D01*
X1337780D01*
Y0214579D01*
Y0214479D01*
Y0214379D01*
Y0214279D01*
Y0214179D01*
X1337880D01*
Y0214079D01*
X1338080D01*
Y0213979D01*
X1338380D01*
Y0213879D01*
Y0213779D01*
Y0213679D01*
X1335380D01*
Y0213779D01*
Y0213879D01*
Y0213979D01*
X1335580D01*
Y0214079D01*
X1335880D01*
Y0214179D01*
X1336080D01*
Y0214279D01*
X1336180D01*
Y0214379D01*
X1336280D01*
Y0214479D01*
X1336380D01*
Y0214579D01*
X1336480D01*
Y0214679D01*
X1336580D01*
Y0214779D01*
X1336680D01*
Y0214879D01*
X1336780D01*
Y0214979D01*
Y0215079D01*
X1336880D01*
Y0215179D01*
X1336980D01*
Y0215279D01*
Y0215379D01*
X1337080D01*
Y0215479D01*
X1337180D01*
Y0215579D01*
X1337280D01*
Y0215679D01*
Y0215779D01*
X1337380D01*
Y0215879D01*
X1337480D01*
Y0215979D01*
Y0216079D01*
X1337580D01*
Y0216179D01*
X1337680D01*
Y0216279D01*
X1337780D01*
Y0216379D01*
Y0216479D01*
X1337880D01*
Y0216579D01*
X1337980D01*
Y0216679D01*
Y0216779D01*
X1338080D01*
Y0216879D01*
X1338180D01*
Y0216979D01*
Y0217079D01*
X1338280D01*
Y0217179D01*
X1338380D01*
Y0217279D01*
X1338480D01*
Y0217379D01*
Y0217479D01*
X1338580D01*
Y0217579D01*
Y0217679D01*
Y0217779D01*
X1338480D01*
Y0217879D01*
X1338380D01*
Y0217979D01*
Y0218079D01*
X1338280D01*
Y0218179D01*
X1338180D01*
Y0218279D01*
X1338080D01*
Y0218379D01*
Y0218479D01*
X1337980D01*
Y0218579D01*
X1337880D01*
Y0218679D01*
Y0218779D01*
X1337780D01*
Y0218879D01*
X1337680D01*
Y0218979D01*
Y0219079D01*
X1337580D01*
Y0219179D01*
X1337480D01*
Y0219279D01*
X1337380D01*
Y0219379D01*
Y0219479D01*
X1337280D01*
Y0219579D01*
X1337180D01*
Y0219679D01*
Y0219779D01*
X1337080D01*
Y0219879D01*
X1336980D01*
Y0219979D01*
X1336880D01*
Y0220079D01*
Y0220179D01*
X1336780D01*
Y0220279D01*
X1336680D01*
Y0220379D01*
Y0220479D01*
X1336580D01*
Y0220579D01*
X1336480D01*
Y0220679D01*
X1336380D01*
Y0220779D01*
X1336280D01*
Y0220879D01*
X1336180D01*
Y0220979D01*
X1336080D01*
Y0221079D01*
X1335880D01*
Y0221179D01*
X1335680D01*
Y0221279D01*
X1335480D01*
Y0221379D01*
Y0221479D01*
Y0221579D01*
X1339180D01*
Y0221479D01*
Y0221379D01*
Y0221279D01*
X1338980D01*
Y0221179D01*
X1338780D01*
Y0221079D01*
X1338680D01*
Y0220979D01*
Y0220879D01*
X1338580D01*
Y0220779D01*
Y0220679D01*
X1338680D01*
Y0220579D01*
Y0220479D01*
X1338780D01*
Y0220379D01*
Y0220279D01*
X1338880D01*
Y0220179D01*
Y0220079D01*
X1338980D01*
Y0219979D01*
X1339080D01*
Y0219879D01*
Y0219779D01*
X1339180D01*
Y0219679D01*
X1339280D01*
Y0219579D01*
Y0219479D01*
X1339380D01*
Y0219379D01*
X1339480D01*
Y0219279D01*
Y0219179D01*
X1339580D01*
Y0219079D01*
X1339680D01*
Y0218979D01*
Y0218879D01*
X1339780D01*
Y0218779D01*
X1339880D01*
Y0218679D01*
X1339980D01*
Y0218779D01*
X1340080D01*
Y0218879D01*
Y0218979D01*
X1340180D01*
Y0219079D01*
X1340280D01*
Y0219179D01*
Y0219279D01*
X1340380D01*
Y0219379D01*
X1340480D01*
Y0219479D01*
Y0219579D01*
X1340580D01*
Y0219679D01*
X1340680D01*
Y0219779D01*
Y0219879D01*
X1340780D01*
Y0219979D01*
X1340880D01*
Y0220079D01*
Y0220179D01*
X1340980D01*
Y0220279D01*
X1341080D01*
Y0220379D01*
Y0220479D01*
X1341180D01*
Y0220579D01*
X1341280D01*
Y0220679D01*
Y0220779D01*
Y0220879D01*
Y0220979D01*
Y0221079D01*
X1341180D01*
Y0221179D01*
X1340980D01*
Y0221279D01*
X1340680D01*
Y0221379D01*
Y0221479D01*
Y0221579D01*
X1343480D01*
Y0221479D01*
Y0221379D01*
Y0221279D01*
X1343380D01*
Y0221179D01*
X1343080D01*
Y0221079D01*
X1342880D01*
Y0220979D01*
X1342780D01*
Y0220879D01*
X1342680D01*
Y0220779D01*
X1342580D01*
Y0220679D01*
X1342480D01*
Y0220579D01*
X1342380D01*
Y0220479D01*
X1342280D01*
Y0220379D01*
X1342180D01*
Y0220279D01*
Y0220179D01*
X1342080D01*
Y0220079D01*
X1341980D01*
Y0219979D01*
Y0219879D01*
X1341880D01*
Y0219779D01*
X1341780D01*
Y0219679D01*
X1341680D01*
Y0219579D01*
Y0219479D01*
X1341580D01*
Y0219379D01*
X1341480D01*
Y0219279D01*
Y0219179D01*
X1341380D01*
Y0219079D01*
X1341280D01*
Y0218979D01*
Y0218879D01*
X1341180D01*
Y0218779D01*
X1341080D01*
Y0218679D01*
X1340980D01*
Y0218579D01*
Y0218479D01*
X1340880D01*
Y0218379D01*
X1340780D01*
Y0218279D01*
Y0218179D01*
X1340680D01*
Y0218079D01*
X1340580D01*
Y0217979D01*
X1340480D01*
Y0217879D01*
X1340580D01*
Y0217779D01*
Y0217679D01*
X1340680D01*
Y0217579D01*
X1340780D01*
Y0217479D01*
Y0217379D01*
X1340880D01*
Y0217279D01*
X1340980D01*
Y0217179D01*
X1341080D01*
Y0217079D01*
Y0216979D01*
X1341180D01*
Y0216879D01*
X1341280D01*
Y0216779D01*
Y0216679D01*
X1341380D01*
Y0216579D01*
X1341480D01*
Y0216479D01*
X1341580D01*
Y0216379D01*
Y0216279D01*
X1341680D01*
Y0216179D01*
X1341780D01*
Y0216079D01*
Y0215979D01*
X1341880D01*
Y0215879D01*
X1341980D01*
Y0215779D01*
Y0215679D01*
X1342080D01*
Y0215579D01*
X1342180D01*
Y0215479D01*
X1342280D01*
Y0215379D01*
Y0215279D01*
X1342380D01*
Y0215179D01*
X1342480D01*
Y0215079D01*
Y0214979D01*
X1342580D01*
Y0214879D01*
X1342680D01*
Y0214779D01*
X1342780D01*
Y0214679D01*
Y0214579D01*
X1342880D01*
Y0214479D01*
X1342980D01*
Y0214379D01*
X1343080D01*
Y0214279D01*
X1343180D01*
Y0214179D01*
X1343380D01*
Y0214279D01*
X1343480D01*
Y0214379D01*
X1343580D01*
Y0214479D01*
Y0214579D01*
X1343680D01*
Y0214679D01*
X1343780D01*
Y0214779D01*
Y0214879D01*
X1343880D01*
Y0214979D01*
Y0215079D01*
X1343980D01*
Y0215179D01*
Y0215279D01*
X1344080D01*
Y0215379D01*
Y0215479D01*
Y0215579D01*
X1344180D01*
Y0215679D01*
Y0215779D01*
Y0215879D01*
X1344280D01*
Y0215979D01*
Y0216079D01*
X1344380D01*
Y0216179D01*
Y0216279D01*
Y0216379D01*
X1344480D01*
Y0216479D01*
Y0216579D01*
X1344580D01*
Y0216679D01*
Y0216779D01*
Y0216879D01*
X1344680D01*
Y0216979D01*
Y0217079D01*
X1344780D01*
Y0217179D01*
Y0217279D01*
Y0217379D01*
X1344880D01*
Y0217479D01*
Y0217579D01*
X1344980D01*
Y0217679D01*
Y0217779D01*
Y0217879D01*
X1345080D01*
Y0217979D01*
Y0218079D01*
Y0218179D01*
X1345180D01*
Y0218279D01*
Y0218379D01*
X1345280D01*
Y0218479D01*
Y0218579D01*
Y0218679D01*
X1345380D01*
Y0218779D01*
Y0218879D01*
X1345480D01*
Y0218979D01*
Y0219079D01*
Y0219179D01*
X1345580D01*
Y0219279D01*
Y0219379D01*
X1345680D01*
Y0219479D01*
Y0219579D01*
Y0219679D01*
X1345780D01*
Y0219779D01*
Y0219879D01*
X1345880D01*
Y0219979D01*
Y0220079D01*
Y0220179D01*
X1345980D01*
Y0220279D01*
Y0220379D01*
X1346080D01*
Y0220479D01*
Y0220579D01*
Y0220679D01*
X1346180D01*
Y0220779D01*
Y0220879D01*
Y0220979D01*
X1346280D01*
Y0221079D01*
Y0221179D01*
X1346380D01*
Y0221279D01*
Y0221379D01*
Y0221479D01*
X1346480D01*
Y0221579D01*
X1348280D01*
Y0221479D01*
D02*
G37*
G36*
X1309880Y0223879D02*
Y0223779D01*
X1309780D01*
Y0223679D01*
Y0223579D01*
Y0223479D01*
Y0223379D01*
Y0223279D01*
X1309680D01*
Y0223179D01*
Y0223079D01*
Y0222979D01*
Y0222879D01*
Y0222779D01*
X1309580D01*
Y0222679D01*
Y0222579D01*
Y0222479D01*
Y0222379D01*
Y0222279D01*
X1309480D01*
Y0222179D01*
Y0222079D01*
Y0221979D01*
Y0221879D01*
Y0221779D01*
X1309380D01*
Y0221679D01*
Y0221579D01*
Y0221479D01*
Y0221379D01*
Y0221279D01*
X1309280D01*
Y0221179D01*
Y0221079D01*
Y0220979D01*
Y0220879D01*
Y0220779D01*
X1309180D01*
Y0220679D01*
Y0220579D01*
Y0220479D01*
Y0220379D01*
Y0220279D01*
X1309080D01*
Y0220179D01*
Y0220079D01*
Y0219979D01*
Y0219879D01*
Y0219779D01*
X1308980D01*
Y0219679D01*
Y0219579D01*
Y0219479D01*
Y0219379D01*
Y0219279D01*
X1308880D01*
Y0219179D01*
Y0219079D01*
Y0218979D01*
Y0218879D01*
Y0218779D01*
X1308780D01*
Y0218679D01*
Y0218579D01*
Y0218479D01*
Y0218379D01*
Y0218279D01*
X1308680D01*
Y0218179D01*
Y0218079D01*
Y0217979D01*
Y0217879D01*
Y0217779D01*
X1308580D01*
Y0217679D01*
Y0217579D01*
Y0217479D01*
Y0217379D01*
Y0217279D01*
X1308480D01*
Y0217179D01*
Y0217079D01*
Y0216979D01*
Y0216879D01*
Y0216779D01*
X1308380D01*
Y0216679D01*
Y0216579D01*
Y0216479D01*
Y0216379D01*
Y0216279D01*
X1308280D01*
Y0216179D01*
Y0216079D01*
Y0215979D01*
Y0215879D01*
Y0215779D01*
X1308180D01*
Y0215679D01*
Y0215579D01*
Y0215479D01*
Y0215379D01*
Y0215279D01*
X1308080D01*
Y0215179D01*
Y0215079D01*
Y0214979D01*
Y0214879D01*
Y0214779D01*
X1307980D01*
Y0214679D01*
Y0214579D01*
Y0214479D01*
Y0214379D01*
Y0214279D01*
X1307880D01*
Y0214179D01*
Y0214079D01*
Y0213979D01*
Y0213879D01*
Y0213779D01*
X1305480D01*
Y0213879D01*
Y0213979D01*
Y0214079D01*
X1305580D01*
Y0214179D01*
Y0214279D01*
Y0214379D01*
Y0214479D01*
Y0214579D01*
X1305680D01*
Y0214679D01*
Y0214779D01*
Y0214879D01*
Y0214979D01*
Y0215079D01*
X1305780D01*
Y0215179D01*
Y0215279D01*
Y0215379D01*
Y0215479D01*
Y0215579D01*
X1305880D01*
Y0215679D01*
Y0215779D01*
Y0215879D01*
Y0215979D01*
Y0216079D01*
X1305980D01*
Y0216179D01*
Y0216279D01*
Y0216379D01*
Y0216479D01*
Y0216579D01*
X1306080D01*
Y0216679D01*
Y0216779D01*
Y0216879D01*
Y0216979D01*
Y0217079D01*
X1306180D01*
Y0217179D01*
Y0217279D01*
Y0217379D01*
Y0217479D01*
Y0217579D01*
X1306280D01*
Y0217679D01*
Y0217779D01*
Y0217879D01*
Y0217979D01*
Y0218079D01*
X1306380D01*
Y0218179D01*
Y0218279D01*
Y0218379D01*
Y0218479D01*
Y0218579D01*
X1306480D01*
Y0218679D01*
Y0218779D01*
Y0218879D01*
Y0218979D01*
Y0219079D01*
X1306580D01*
Y0219179D01*
Y0219279D01*
Y0219379D01*
Y0219479D01*
Y0219579D01*
X1306680D01*
Y0219679D01*
Y0219779D01*
Y0219879D01*
Y0219979D01*
Y0220079D01*
X1306780D01*
Y0220179D01*
Y0220279D01*
Y0220379D01*
Y0220479D01*
Y0220579D01*
X1306880D01*
Y0220679D01*
Y0220779D01*
Y0220879D01*
Y0220979D01*
Y0221079D01*
X1306980D01*
Y0221179D01*
Y0221279D01*
Y0221379D01*
Y0221479D01*
Y0221579D01*
X1307080D01*
Y0221679D01*
Y0221779D01*
Y0221879D01*
Y0221979D01*
Y0222079D01*
X1307180D01*
Y0222179D01*
Y0222279D01*
Y0222379D01*
Y0222479D01*
Y0222579D01*
X1307280D01*
Y0222679D01*
Y0222779D01*
Y0222879D01*
Y0222979D01*
Y0223079D01*
X1307380D01*
Y0223179D01*
Y0223279D01*
Y0223379D01*
Y0223479D01*
Y0223579D01*
X1307480D01*
Y0223679D01*
Y0223779D01*
Y0223879D01*
Y0223979D01*
X1309880D01*
Y0223879D01*
D02*
G37*
G36*
X1383680Y0209479D02*
Y0209379D01*
X1383780D01*
Y0209279D01*
Y0209179D01*
X1383880D01*
Y0209079D01*
Y0208979D01*
Y0208879D01*
X1383980D01*
Y0208779D01*
Y0208679D01*
Y0208579D01*
X1384080D01*
Y0208479D01*
Y0208379D01*
X1384180D01*
Y0208279D01*
Y0208179D01*
Y0208079D01*
X1384280D01*
Y0207979D01*
Y0207879D01*
Y0207779D01*
X1384180D01*
Y0207679D01*
X1384080D01*
Y0207779D01*
X1383980D01*
Y0207879D01*
X1383880D01*
Y0207979D01*
X1383680D01*
Y0208079D01*
X1383580D01*
Y0208179D01*
X1383480D01*
Y0208279D01*
X1383380D01*
Y0208379D01*
X1383180D01*
Y0208479D01*
X1382880D01*
Y0208579D01*
X1382480D01*
Y0208679D01*
X1380380D01*
Y0208579D01*
X1380080D01*
Y0208479D01*
Y0208379D01*
X1379980D01*
Y0208279D01*
Y0208179D01*
Y0208079D01*
Y0207979D01*
Y0207879D01*
Y0207779D01*
Y0207679D01*
Y0207579D01*
Y0207479D01*
Y0207379D01*
Y0207279D01*
Y0207179D01*
Y0207079D01*
Y0206979D01*
Y0206879D01*
Y0206779D01*
Y0206679D01*
Y0206579D01*
Y0206479D01*
Y0206379D01*
Y0206279D01*
X1382380D01*
Y0206379D01*
X1382680D01*
Y0206479D01*
X1382780D01*
Y0206579D01*
X1382880D01*
Y0206679D01*
Y0206779D01*
X1382980D01*
Y0206879D01*
Y0206979D01*
X1383280D01*
Y0206879D01*
Y0206779D01*
Y0206679D01*
Y0206579D01*
Y0206479D01*
Y0206379D01*
Y0206279D01*
Y0206179D01*
Y0206079D01*
Y0205979D01*
Y0205879D01*
Y0205779D01*
Y0205679D01*
Y0205579D01*
Y0205479D01*
Y0205379D01*
Y0205279D01*
Y0205179D01*
Y0205079D01*
Y0204979D01*
Y0204879D01*
Y0204779D01*
X1382980D01*
Y0204879D01*
Y0204979D01*
X1382880D01*
Y0205079D01*
Y0205179D01*
X1382780D01*
Y0205279D01*
X1382480D01*
Y0205379D01*
X1379980D01*
Y0205279D01*
Y0205179D01*
Y0205079D01*
Y0204979D01*
Y0204879D01*
Y0204779D01*
Y0204679D01*
Y0204579D01*
Y0204479D01*
Y0204379D01*
Y0204279D01*
Y0204179D01*
Y0204079D01*
Y0203979D01*
Y0203879D01*
Y0203779D01*
Y0203679D01*
Y0203579D01*
Y0203479D01*
Y0203379D01*
Y0203279D01*
Y0203179D01*
Y0203079D01*
Y0202979D01*
Y0202879D01*
X1380080D01*
Y0202779D01*
Y0202679D01*
X1382980D01*
Y0202779D01*
X1383380D01*
Y0202879D01*
X1383580D01*
Y0202979D01*
X1383780D01*
Y0203079D01*
X1383880D01*
Y0203179D01*
X1383980D01*
Y0203279D01*
X1384080D01*
Y0203379D01*
X1384180D01*
Y0203479D01*
X1384280D01*
Y0203579D01*
X1384380D01*
Y0203679D01*
X1384580D01*
Y0203579D01*
X1384680D01*
Y0203479D01*
Y0203379D01*
X1384580D01*
Y0203279D01*
Y0203179D01*
X1384480D01*
Y0203079D01*
Y0202979D01*
Y0202879D01*
X1384380D01*
Y0202779D01*
Y0202679D01*
X1384280D01*
Y0202579D01*
Y0202479D01*
Y0202379D01*
X1384180D01*
Y0202279D01*
Y0202179D01*
X1384080D01*
Y0202079D01*
Y0201979D01*
Y0201879D01*
X1383980D01*
Y0201779D01*
Y0201679D01*
X1377480D01*
Y0201779D01*
Y0201879D01*
Y0201979D01*
X1377680D01*
Y0202079D01*
X1377880D01*
Y0202179D01*
X1378080D01*
Y0202279D01*
X1378180D01*
Y0202379D01*
Y0202479D01*
Y0202579D01*
X1378280D01*
Y0202679D01*
Y0202779D01*
Y0202879D01*
Y0202979D01*
Y0203079D01*
Y0203179D01*
Y0203279D01*
Y0203379D01*
Y0203479D01*
Y0203579D01*
Y0203679D01*
Y0203779D01*
Y0203879D01*
Y0203979D01*
Y0204079D01*
Y0204179D01*
Y0204279D01*
Y0204379D01*
Y0204479D01*
Y0204579D01*
Y0204679D01*
Y0204779D01*
Y0204879D01*
Y0204979D01*
Y0205079D01*
Y0205179D01*
Y0205279D01*
Y0205379D01*
Y0205479D01*
Y0205579D01*
Y0205679D01*
Y0205779D01*
Y0205879D01*
Y0205979D01*
Y0206079D01*
Y0206179D01*
Y0206279D01*
Y0206379D01*
Y0206479D01*
Y0206579D01*
Y0206679D01*
Y0206779D01*
Y0206879D01*
Y0206979D01*
Y0207079D01*
Y0207179D01*
Y0207279D01*
Y0207379D01*
Y0207479D01*
Y0207579D01*
Y0207679D01*
Y0207779D01*
Y0207879D01*
Y0207979D01*
Y0208079D01*
Y0208179D01*
Y0208279D01*
Y0208379D01*
Y0208479D01*
Y0208579D01*
Y0208679D01*
Y0208779D01*
X1378180D01*
Y0208879D01*
Y0208979D01*
X1378080D01*
Y0209079D01*
X1377980D01*
Y0209179D01*
X1377780D01*
Y0209279D01*
X1377480D01*
Y0209379D01*
Y0209479D01*
Y0209579D01*
X1383680D01*
Y0209479D01*
D02*
G37*
G36*
X1404580Y0209579D02*
X1404980D01*
Y0209479D01*
X1405180D01*
Y0209379D01*
X1405380D01*
Y0209279D01*
X1405680D01*
Y0209379D01*
Y0209479D01*
X1405780D01*
Y0209579D01*
X1406180D01*
Y0209479D01*
Y0209379D01*
Y0209279D01*
X1406280D01*
Y0209179D01*
Y0209079D01*
Y0208979D01*
Y0208879D01*
X1406380D01*
Y0208779D01*
Y0208679D01*
Y0208579D01*
X1406480D01*
Y0208479D01*
Y0208379D01*
Y0208279D01*
Y0208179D01*
X1406580D01*
Y0208079D01*
Y0207979D01*
Y0207879D01*
X1406680D01*
Y0207779D01*
Y0207679D01*
Y0207579D01*
Y0207479D01*
X1406380D01*
Y0207579D01*
X1406280D01*
Y0207679D01*
X1406180D01*
Y0207779D01*
X1406080D01*
Y0207879D01*
X1405980D01*
Y0207979D01*
X1405780D01*
Y0208079D01*
X1405680D01*
Y0208179D01*
X1405480D01*
Y0208279D01*
X1405380D01*
Y0208379D01*
X1405080D01*
Y0208479D01*
X1404880D01*
Y0208579D01*
X1404480D01*
Y0208679D01*
X1403180D01*
Y0208579D01*
X1402880D01*
Y0208479D01*
X1402680D01*
Y0208379D01*
X1402580D01*
Y0208279D01*
X1402480D01*
Y0208179D01*
Y0208079D01*
X1402380D01*
Y0207979D01*
Y0207879D01*
Y0207779D01*
Y0207679D01*
Y0207579D01*
Y0207479D01*
Y0207379D01*
X1402480D01*
Y0207279D01*
X1402580D01*
Y0207179D01*
X1402680D01*
Y0207079D01*
X1402780D01*
Y0206979D01*
X1403080D01*
Y0206879D01*
X1403380D01*
Y0206779D01*
X1403880D01*
Y0206679D01*
X1404280D01*
Y0206579D01*
X1404780D01*
Y0206479D01*
X1405180D01*
Y0206379D01*
X1405480D01*
Y0206279D01*
X1405780D01*
Y0206179D01*
X1405980D01*
Y0206079D01*
X1406180D01*
Y0205979D01*
X1406380D01*
Y0205879D01*
X1406480D01*
Y0205779D01*
X1406580D01*
Y0205679D01*
X1406680D01*
Y0205579D01*
X1406780D01*
Y0205479D01*
X1406880D01*
Y0205379D01*
X1406980D01*
Y0205279D01*
Y0205179D01*
X1407080D01*
Y0205079D01*
Y0204979D01*
X1407180D01*
Y0204879D01*
Y0204779D01*
Y0204679D01*
Y0204579D01*
Y0204479D01*
Y0204379D01*
Y0204279D01*
X1407280D01*
Y0204179D01*
Y0204079D01*
Y0203979D01*
Y0203879D01*
X1407180D01*
Y0203779D01*
Y0203679D01*
Y0203579D01*
Y0203479D01*
Y0203379D01*
Y0203279D01*
X1407080D01*
Y0203179D01*
Y0203079D01*
X1406980D01*
Y0202979D01*
Y0202879D01*
X1406880D01*
Y0202779D01*
Y0202679D01*
X1406780D01*
Y0202579D01*
X1406680D01*
Y0202479D01*
X1406580D01*
Y0202379D01*
X1406480D01*
Y0202279D01*
X1406380D01*
Y0202179D01*
X1406180D01*
Y0202079D01*
X1406080D01*
Y0201979D01*
X1405880D01*
Y0201879D01*
X1405580D01*
Y0201779D01*
X1405280D01*
Y0201679D01*
X1404780D01*
Y0201579D01*
X1403380D01*
Y0201679D01*
X1402880D01*
Y0201779D01*
X1402580D01*
Y0201879D01*
X1402380D01*
Y0201979D01*
X1402180D01*
Y0202079D01*
X1401880D01*
Y0201979D01*
X1401780D01*
Y0201879D01*
Y0201779D01*
Y0201679D01*
X1401380D01*
Y0201779D01*
X1401280D01*
Y0201879D01*
Y0201979D01*
Y0202079D01*
Y0202179D01*
X1401180D01*
Y0202279D01*
Y0202379D01*
Y0202479D01*
Y0202579D01*
X1401080D01*
Y0202679D01*
Y0202779D01*
Y0202879D01*
X1400980D01*
Y0202979D01*
Y0203079D01*
Y0203179D01*
Y0203279D01*
X1400880D01*
Y0203379D01*
Y0203479D01*
Y0203579D01*
Y0203679D01*
X1400780D01*
Y0203779D01*
Y0203879D01*
Y0203979D01*
Y0204079D01*
Y0204179D01*
X1400980D01*
Y0204079D01*
X1401080D01*
Y0203979D01*
X1401180D01*
Y0203879D01*
X1401280D01*
Y0203779D01*
X1401380D01*
Y0203679D01*
X1401480D01*
Y0203579D01*
X1401580D01*
Y0203479D01*
X1401780D01*
Y0203379D01*
X1401880D01*
Y0203279D01*
X1401980D01*
Y0203179D01*
X1402180D01*
Y0203079D01*
X1402280D01*
Y0202979D01*
X1402480D01*
Y0202879D01*
X1402780D01*
Y0202779D01*
X1403080D01*
Y0202679D01*
X1403480D01*
Y0202579D01*
X1404580D01*
Y0202679D01*
X1404880D01*
Y0202779D01*
X1405180D01*
Y0202879D01*
X1405280D01*
Y0202979D01*
X1405380D01*
Y0203079D01*
X1405480D01*
Y0203179D01*
X1405580D01*
Y0203279D01*
Y0203379D01*
X1405680D01*
Y0203479D01*
Y0203579D01*
Y0203679D01*
Y0203779D01*
Y0203879D01*
Y0203979D01*
Y0204079D01*
Y0204179D01*
X1405580D01*
Y0204279D01*
X1405480D01*
Y0204379D01*
Y0204479D01*
X1405280D01*
Y0204579D01*
X1405180D01*
Y0204679D01*
X1404880D01*
Y0204779D01*
X1404580D01*
Y0204879D01*
X1404180D01*
Y0204979D01*
X1403680D01*
Y0205079D01*
X1403280D01*
Y0205179D01*
X1402880D01*
Y0205279D01*
X1402480D01*
Y0205379D01*
X1402280D01*
Y0205479D01*
X1402080D01*
Y0205579D01*
X1401880D01*
Y0205679D01*
X1401780D01*
Y0205779D01*
X1401580D01*
Y0205879D01*
X1401480D01*
Y0205979D01*
X1401380D01*
Y0206079D01*
X1401280D01*
Y0206179D01*
Y0206279D01*
X1401180D01*
Y0206379D01*
X1401080D01*
Y0206479D01*
Y0206579D01*
Y0206679D01*
X1400980D01*
Y0206779D01*
Y0206879D01*
Y0206979D01*
Y0207079D01*
Y0207179D01*
Y0207279D01*
Y0207379D01*
Y0207479D01*
Y0207579D01*
Y0207679D01*
Y0207779D01*
Y0207879D01*
Y0207979D01*
Y0208079D01*
X1401080D01*
Y0208179D01*
Y0208279D01*
Y0208379D01*
X1401180D01*
Y0208479D01*
Y0208579D01*
X1401280D01*
Y0208679D01*
X1401380D01*
Y0208779D01*
X1401480D01*
Y0208879D01*
Y0208979D01*
X1401580D01*
Y0209079D01*
X1401780D01*
Y0209179D01*
X1401880D01*
Y0209279D01*
X1402080D01*
Y0209379D01*
X1402280D01*
Y0209479D01*
X1402480D01*
Y0209579D01*
X1402880D01*
Y0209679D01*
X1404580D01*
Y0209579D01*
D02*
G37*
G36*
X1399880Y0209479D02*
X1399980D01*
Y0209379D01*
Y0209279D01*
Y0209179D01*
X1400080D01*
Y0209079D01*
Y0208979D01*
Y0208879D01*
X1400180D01*
Y0208779D01*
Y0208679D01*
Y0208579D01*
X1400280D01*
Y0208479D01*
Y0208379D01*
Y0208279D01*
Y0208179D01*
X1400380D01*
Y0208079D01*
Y0207979D01*
Y0207879D01*
X1400480D01*
Y0207779D01*
Y0207679D01*
Y0207579D01*
Y0207479D01*
X1400180D01*
Y0207579D01*
Y0207679D01*
X1400080D01*
Y0207779D01*
X1399980D01*
Y0207879D01*
X1399880D01*
Y0207979D01*
X1399780D01*
Y0208079D01*
X1399680D01*
Y0208179D01*
X1399580D01*
Y0208279D01*
X1399480D01*
Y0208379D01*
X1399380D01*
Y0208479D01*
X1399080D01*
Y0208579D01*
X1398680D01*
Y0208679D01*
X1397780D01*
Y0208579D01*
X1397680D01*
Y0208479D01*
X1397580D01*
Y0208379D01*
Y0208279D01*
Y0208179D01*
Y0208079D01*
Y0207979D01*
Y0207879D01*
Y0207779D01*
Y0207679D01*
Y0207579D01*
Y0207479D01*
Y0207379D01*
Y0207279D01*
Y0207179D01*
Y0207079D01*
Y0206979D01*
Y0206879D01*
Y0206779D01*
Y0206679D01*
Y0206579D01*
Y0206479D01*
Y0206379D01*
Y0206279D01*
Y0206179D01*
Y0206079D01*
Y0205979D01*
Y0205879D01*
Y0205779D01*
Y0205679D01*
Y0205579D01*
Y0205479D01*
Y0205379D01*
Y0205279D01*
Y0205179D01*
Y0205079D01*
Y0204979D01*
Y0204879D01*
Y0204779D01*
Y0204679D01*
Y0204579D01*
Y0204479D01*
Y0204379D01*
Y0204279D01*
Y0204179D01*
Y0204079D01*
Y0203979D01*
Y0203879D01*
Y0203779D01*
Y0203679D01*
Y0203579D01*
Y0203479D01*
Y0203379D01*
Y0203279D01*
Y0203179D01*
Y0203079D01*
Y0202979D01*
Y0202879D01*
Y0202779D01*
Y0202679D01*
Y0202579D01*
Y0202479D01*
X1397680D01*
Y0202379D01*
Y0202279D01*
X1397780D01*
Y0202179D01*
X1397980D01*
Y0202079D01*
X1398280D01*
Y0201979D01*
X1398380D01*
Y0201879D01*
Y0201779D01*
Y0201679D01*
X1395080D01*
Y0201779D01*
Y0201879D01*
Y0201979D01*
X1395180D01*
Y0202079D01*
X1395480D01*
Y0202179D01*
X1395680D01*
Y0202279D01*
X1395780D01*
Y0202379D01*
Y0202479D01*
X1395880D01*
Y0202579D01*
Y0202679D01*
Y0202779D01*
Y0202879D01*
Y0202979D01*
Y0203079D01*
Y0203179D01*
Y0203279D01*
Y0203379D01*
Y0203479D01*
Y0203579D01*
Y0203679D01*
Y0203779D01*
Y0203879D01*
Y0203979D01*
Y0204079D01*
Y0204179D01*
Y0204279D01*
Y0204379D01*
Y0204479D01*
Y0204579D01*
Y0204679D01*
Y0204779D01*
Y0204879D01*
Y0204979D01*
Y0205079D01*
Y0205179D01*
Y0205279D01*
Y0205379D01*
Y0205479D01*
Y0205579D01*
Y0205679D01*
Y0205779D01*
Y0205879D01*
Y0205979D01*
Y0206079D01*
Y0206179D01*
Y0206279D01*
Y0206379D01*
Y0206479D01*
Y0206579D01*
Y0206679D01*
Y0206779D01*
Y0206879D01*
Y0206979D01*
Y0207079D01*
Y0207179D01*
Y0207279D01*
Y0207379D01*
Y0207479D01*
Y0207579D01*
Y0207679D01*
Y0207779D01*
Y0207879D01*
Y0207979D01*
Y0208079D01*
Y0208179D01*
Y0208279D01*
Y0208379D01*
Y0208479D01*
X1395780D01*
Y0208579D01*
X1395680D01*
Y0208679D01*
X1394780D01*
Y0208579D01*
X1394380D01*
Y0208479D01*
X1394180D01*
Y0208379D01*
X1393980D01*
Y0208279D01*
X1393880D01*
Y0208179D01*
X1393780D01*
Y0208079D01*
X1393680D01*
Y0207979D01*
X1393580D01*
Y0207879D01*
Y0207779D01*
X1393480D01*
Y0207679D01*
X1393380D01*
Y0207579D01*
X1393280D01*
Y0207479D01*
X1393080D01*
Y0207579D01*
X1392980D01*
Y0207679D01*
X1393080D01*
Y0207779D01*
Y0207879D01*
Y0207979D01*
X1393180D01*
Y0208079D01*
Y0208179D01*
Y0208279D01*
Y0208379D01*
X1393280D01*
Y0208479D01*
Y0208579D01*
Y0208679D01*
X1393380D01*
Y0208779D01*
Y0208879D01*
Y0208979D01*
X1393480D01*
Y0209079D01*
Y0209179D01*
Y0209279D01*
X1393580D01*
Y0209379D01*
Y0209479D01*
Y0209579D01*
X1399880D01*
Y0209479D01*
D02*
G37*
G36*
X1349480D02*
Y0209379D01*
Y0209279D01*
X1349580D01*
Y0209179D01*
Y0209079D01*
Y0208979D01*
Y0208879D01*
X1349680D01*
Y0208779D01*
Y0208679D01*
Y0208579D01*
X1349780D01*
Y0208479D01*
Y0208379D01*
Y0208279D01*
X1349880D01*
Y0208179D01*
Y0208079D01*
Y0207979D01*
X1349980D01*
Y0207879D01*
Y0207779D01*
Y0207679D01*
Y0207579D01*
Y0207479D01*
X1349780D01*
Y0207579D01*
X1349680D01*
Y0207679D01*
X1349580D01*
Y0207779D01*
X1349480D01*
Y0207879D01*
X1349380D01*
Y0207979D01*
X1349280D01*
Y0208079D01*
X1349180D01*
Y0208179D01*
X1349080D01*
Y0208279D01*
X1348980D01*
Y0208379D01*
X1348880D01*
Y0208479D01*
X1348580D01*
Y0208579D01*
X1348180D01*
Y0208679D01*
X1347280D01*
Y0208579D01*
X1347180D01*
Y0208479D01*
X1347080D01*
Y0208379D01*
Y0208279D01*
Y0208179D01*
Y0208079D01*
Y0207979D01*
Y0207879D01*
Y0207779D01*
Y0207679D01*
Y0207579D01*
Y0207479D01*
Y0207379D01*
Y0207279D01*
Y0207179D01*
Y0207079D01*
Y0206979D01*
Y0206879D01*
Y0206779D01*
Y0206679D01*
Y0206579D01*
Y0206479D01*
Y0206379D01*
Y0206279D01*
Y0206179D01*
Y0206079D01*
Y0205979D01*
Y0205879D01*
Y0205779D01*
Y0205679D01*
Y0205579D01*
Y0205479D01*
Y0205379D01*
Y0205279D01*
Y0205179D01*
Y0205079D01*
Y0204979D01*
Y0204879D01*
Y0204779D01*
Y0204679D01*
Y0204579D01*
Y0204479D01*
Y0204379D01*
Y0204279D01*
Y0204179D01*
Y0204079D01*
Y0203979D01*
Y0203879D01*
Y0203779D01*
Y0203679D01*
Y0203579D01*
Y0203479D01*
Y0203379D01*
Y0203279D01*
Y0203179D01*
Y0203079D01*
Y0202979D01*
Y0202879D01*
Y0202779D01*
Y0202679D01*
Y0202579D01*
X1347180D01*
Y0202479D01*
Y0202379D01*
Y0202279D01*
X1347280D01*
Y0202179D01*
X1347480D01*
Y0202079D01*
X1347780D01*
Y0201979D01*
X1347980D01*
Y0201879D01*
Y0201779D01*
Y0201679D01*
X1344580D01*
Y0201779D01*
Y0201879D01*
Y0201979D01*
X1344680D01*
Y0202079D01*
X1344980D01*
Y0202179D01*
X1345180D01*
Y0202279D01*
X1345280D01*
Y0202379D01*
Y0202479D01*
X1345380D01*
Y0202579D01*
Y0202679D01*
Y0202779D01*
Y0202879D01*
Y0202979D01*
Y0203079D01*
Y0203179D01*
Y0203279D01*
Y0203379D01*
Y0203479D01*
Y0203579D01*
Y0203679D01*
Y0203779D01*
Y0203879D01*
Y0203979D01*
Y0204079D01*
Y0204179D01*
Y0204279D01*
Y0204379D01*
Y0204479D01*
Y0204579D01*
Y0204679D01*
Y0204779D01*
Y0204879D01*
Y0204979D01*
Y0205079D01*
Y0205179D01*
Y0205279D01*
Y0205379D01*
Y0205479D01*
Y0205579D01*
Y0205679D01*
Y0205779D01*
Y0205879D01*
Y0205979D01*
Y0206079D01*
Y0206179D01*
Y0206279D01*
Y0206379D01*
Y0206479D01*
Y0206579D01*
Y0206679D01*
Y0206779D01*
Y0206879D01*
Y0206979D01*
Y0207079D01*
Y0207179D01*
Y0207279D01*
Y0207379D01*
Y0207479D01*
Y0207579D01*
Y0207679D01*
Y0207779D01*
Y0207879D01*
Y0207979D01*
Y0208079D01*
Y0208179D01*
Y0208279D01*
Y0208379D01*
Y0208479D01*
Y0208579D01*
X1345180D01*
Y0208679D01*
X1344280D01*
Y0208579D01*
X1343880D01*
Y0208479D01*
X1343680D01*
Y0208379D01*
X1343580D01*
Y0208279D01*
X1343380D01*
Y0208179D01*
X1343280D01*
Y0208079D01*
X1343180D01*
Y0207979D01*
Y0207879D01*
X1343080D01*
Y0207779D01*
X1342980D01*
Y0207679D01*
X1342880D01*
Y0207579D01*
X1342780D01*
Y0207479D01*
X1342580D01*
Y0207579D01*
X1342480D01*
Y0207679D01*
X1342580D01*
Y0207779D01*
Y0207879D01*
Y0207979D01*
X1342680D01*
Y0208079D01*
Y0208179D01*
Y0208279D01*
X1342780D01*
Y0208379D01*
Y0208479D01*
Y0208579D01*
X1342880D01*
Y0208679D01*
Y0208779D01*
Y0208879D01*
Y0208979D01*
X1342980D01*
Y0209079D01*
Y0209179D01*
Y0209279D01*
X1343080D01*
Y0209379D01*
Y0209479D01*
Y0209579D01*
X1349480D01*
Y0209479D01*
D02*
G37*
G36*
X1340080Y0209579D02*
X1340380D01*
Y0209479D01*
X1340580D01*
Y0209379D01*
X1340780D01*
Y0209279D01*
X1341080D01*
Y0209379D01*
X1341180D01*
Y0209479D01*
Y0209579D01*
X1341580D01*
Y0209479D01*
Y0209379D01*
X1341680D01*
Y0209279D01*
Y0209179D01*
Y0209079D01*
X1341780D01*
Y0208979D01*
Y0208879D01*
Y0208779D01*
X1341880D01*
Y0208679D01*
Y0208579D01*
Y0208479D01*
Y0208379D01*
X1341980D01*
Y0208279D01*
Y0208179D01*
Y0208079D01*
X1342080D01*
Y0207979D01*
Y0207879D01*
Y0207779D01*
Y0207679D01*
X1342180D01*
Y0207579D01*
X1342080D01*
Y0207479D01*
X1341880D01*
Y0207579D01*
X1341780D01*
Y0207679D01*
X1341680D01*
Y0207779D01*
X1341480D01*
Y0207879D01*
X1341380D01*
Y0207979D01*
X1341280D01*
Y0208079D01*
X1341180D01*
Y0208179D01*
X1340980D01*
Y0208279D01*
X1340780D01*
Y0208379D01*
X1340580D01*
Y0208479D01*
X1340280D01*
Y0208579D01*
X1339980D01*
Y0208679D01*
X1338680D01*
Y0208579D01*
X1338380D01*
Y0208479D01*
X1338180D01*
Y0208379D01*
X1338080D01*
Y0208279D01*
X1337980D01*
Y0208179D01*
X1337880D01*
Y0208079D01*
Y0207979D01*
Y0207879D01*
X1337780D01*
Y0207779D01*
Y0207679D01*
Y0207579D01*
X1337880D01*
Y0207479D01*
Y0207379D01*
Y0207279D01*
X1337980D01*
Y0207179D01*
X1338080D01*
Y0207079D01*
X1338280D01*
Y0206979D01*
X1338480D01*
Y0206879D01*
X1338880D01*
Y0206779D01*
X1339280D01*
Y0206679D01*
X1339780D01*
Y0206579D01*
X1340180D01*
Y0206479D01*
X1340580D01*
Y0206379D01*
X1340980D01*
Y0206279D01*
X1341280D01*
Y0206179D01*
X1341480D01*
Y0206079D01*
X1341680D01*
Y0205979D01*
X1341780D01*
Y0205879D01*
X1341980D01*
Y0205779D01*
X1342080D01*
Y0205679D01*
X1342180D01*
Y0205579D01*
X1342280D01*
Y0205479D01*
X1342380D01*
Y0205379D01*
Y0205279D01*
X1342480D01*
Y0205179D01*
Y0205079D01*
X1342580D01*
Y0204979D01*
Y0204879D01*
Y0204779D01*
X1342680D01*
Y0204679D01*
Y0204579D01*
Y0204479D01*
Y0204379D01*
Y0204279D01*
Y0204179D01*
Y0204079D01*
Y0203979D01*
Y0203879D01*
Y0203779D01*
Y0203679D01*
Y0203579D01*
Y0203479D01*
X1342580D01*
Y0203379D01*
Y0203279D01*
Y0203179D01*
X1342480D01*
Y0203079D01*
Y0202979D01*
X1342380D01*
Y0202879D01*
Y0202779D01*
X1342280D01*
Y0202679D01*
X1342180D01*
Y0202579D01*
Y0202479D01*
X1342080D01*
Y0202379D01*
X1341980D01*
Y0202279D01*
X1341780D01*
Y0202179D01*
X1341680D01*
Y0202079D01*
X1341480D01*
Y0201979D01*
X1341280D01*
Y0201879D01*
X1341080D01*
Y0201779D01*
X1340780D01*
Y0201679D01*
X1340280D01*
Y0201579D01*
X1338880D01*
Y0201679D01*
X1338380D01*
Y0201779D01*
X1338080D01*
Y0201879D01*
X1337780D01*
Y0201979D01*
X1337580D01*
Y0202079D01*
X1337380D01*
Y0201979D01*
X1337280D01*
Y0201879D01*
Y0201779D01*
X1337180D01*
Y0201679D01*
X1336780D01*
Y0201779D01*
Y0201879D01*
Y0201979D01*
X1336680D01*
Y0202079D01*
Y0202179D01*
Y0202279D01*
Y0202379D01*
X1336580D01*
Y0202479D01*
Y0202579D01*
Y0202679D01*
Y0202779D01*
X1336480D01*
Y0202879D01*
Y0202979D01*
Y0203079D01*
X1336380D01*
Y0203179D01*
Y0203279D01*
Y0203379D01*
Y0203479D01*
X1336280D01*
Y0203579D01*
Y0203679D01*
Y0203779D01*
Y0203879D01*
X1336180D01*
Y0203979D01*
Y0204079D01*
X1336280D01*
Y0204179D01*
X1336480D01*
Y0204079D01*
X1336580D01*
Y0203979D01*
X1336680D01*
Y0203879D01*
X1336780D01*
Y0203779D01*
X1336880D01*
Y0203679D01*
X1336980D01*
Y0203579D01*
X1337080D01*
Y0203479D01*
X1337180D01*
Y0203379D01*
X1337280D01*
Y0203279D01*
X1337480D01*
Y0203179D01*
X1337580D01*
Y0203079D01*
X1337780D01*
Y0202979D01*
X1337980D01*
Y0202879D01*
X1338180D01*
Y0202779D01*
X1338480D01*
Y0202679D01*
X1338980D01*
Y0202579D01*
X1339980D01*
Y0202679D01*
X1340380D01*
Y0202779D01*
X1340580D01*
Y0202879D01*
X1340780D01*
Y0202979D01*
X1340880D01*
Y0203079D01*
X1340980D01*
Y0203179D01*
Y0203279D01*
X1341080D01*
Y0203379D01*
Y0203479D01*
Y0203579D01*
X1341180D01*
Y0203679D01*
Y0203779D01*
Y0203879D01*
Y0203979D01*
X1341080D01*
Y0204079D01*
Y0204179D01*
Y0204279D01*
X1340980D01*
Y0204379D01*
X1340880D01*
Y0204479D01*
X1340780D01*
Y0204579D01*
X1340580D01*
Y0204679D01*
X1340380D01*
Y0204779D01*
X1340080D01*
Y0204879D01*
X1339580D01*
Y0204979D01*
X1339180D01*
Y0205079D01*
X1338780D01*
Y0205179D01*
X1338280D01*
Y0205279D01*
X1337980D01*
Y0205379D01*
X1337680D01*
Y0205479D01*
X1337480D01*
Y0205579D01*
X1337380D01*
Y0205679D01*
X1337180D01*
Y0205779D01*
X1337080D01*
Y0205879D01*
X1336980D01*
Y0205979D01*
X1336880D01*
Y0206079D01*
X1336780D01*
Y0206179D01*
X1336680D01*
Y0206279D01*
Y0206379D01*
X1336580D01*
Y0206479D01*
Y0206579D01*
X1336480D01*
Y0206679D01*
Y0206779D01*
Y0206879D01*
X1336380D01*
Y0206979D01*
Y0207079D01*
Y0207179D01*
Y0207279D01*
Y0207379D01*
Y0207479D01*
Y0207579D01*
Y0207679D01*
Y0207779D01*
Y0207879D01*
X1336480D01*
Y0207979D01*
Y0208079D01*
Y0208179D01*
Y0208279D01*
X1336580D01*
Y0208379D01*
Y0208479D01*
X1336680D01*
Y0208579D01*
X1336780D01*
Y0208679D01*
Y0208779D01*
X1336880D01*
Y0208879D01*
X1336980D01*
Y0208979D01*
X1337080D01*
Y0209079D01*
X1337180D01*
Y0209179D01*
X1337380D01*
Y0209279D01*
X1337480D01*
Y0209379D01*
X1337680D01*
Y0209479D01*
X1337980D01*
Y0209579D01*
X1338280D01*
Y0209679D01*
X1340080D01*
Y0209579D01*
D02*
G37*
G36*
X1335880Y0209479D02*
Y0209379D01*
Y0209279D01*
X1335680D01*
Y0209179D01*
X1335580D01*
Y0209079D01*
X1335480D01*
Y0208979D01*
X1335380D01*
Y0208879D01*
X1335280D01*
Y0208779D01*
Y0208679D01*
Y0208579D01*
Y0208479D01*
X1335180D01*
Y0208379D01*
Y0208279D01*
Y0208179D01*
Y0208079D01*
Y0207979D01*
Y0207879D01*
Y0207779D01*
Y0207679D01*
Y0207579D01*
Y0207479D01*
Y0207379D01*
Y0207279D01*
Y0207179D01*
Y0207079D01*
Y0206979D01*
Y0206879D01*
Y0206779D01*
Y0206679D01*
Y0206579D01*
Y0206479D01*
Y0206379D01*
Y0206279D01*
Y0206179D01*
Y0206079D01*
Y0205979D01*
Y0205879D01*
Y0205779D01*
Y0205679D01*
Y0205579D01*
Y0205479D01*
Y0205379D01*
Y0205279D01*
Y0205179D01*
Y0205079D01*
Y0204979D01*
Y0204879D01*
Y0204779D01*
Y0204679D01*
Y0204579D01*
Y0204479D01*
Y0204379D01*
Y0204279D01*
Y0204179D01*
Y0204079D01*
Y0203979D01*
Y0203879D01*
Y0203779D01*
Y0203679D01*
Y0203579D01*
Y0203479D01*
Y0203379D01*
Y0203279D01*
Y0203179D01*
Y0203079D01*
Y0202979D01*
Y0202879D01*
Y0202779D01*
Y0202679D01*
Y0202579D01*
Y0202479D01*
Y0202379D01*
Y0202279D01*
Y0202179D01*
Y0202079D01*
Y0201979D01*
Y0201879D01*
Y0201779D01*
Y0201679D01*
Y0201579D01*
X1334880D01*
Y0201679D01*
X1334780D01*
Y0201779D01*
Y0201879D01*
X1334680D01*
Y0201979D01*
X1334580D01*
Y0202079D01*
X1334480D01*
Y0202179D01*
X1334380D01*
Y0202279D01*
X1334280D01*
Y0202379D01*
X1334180D01*
Y0202479D01*
X1334080D01*
Y0202579D01*
Y0202679D01*
X1333980D01*
Y0202779D01*
X1333880D01*
Y0202879D01*
X1333780D01*
Y0202979D01*
X1333680D01*
Y0203079D01*
X1333580D01*
Y0203179D01*
X1333480D01*
Y0203279D01*
X1333380D01*
Y0203379D01*
Y0203479D01*
X1333280D01*
Y0203579D01*
X1333180D01*
Y0203679D01*
X1333080D01*
Y0203779D01*
X1332980D01*
Y0203879D01*
X1332880D01*
Y0203979D01*
X1332780D01*
Y0204079D01*
X1332680D01*
Y0204179D01*
Y0204279D01*
X1332580D01*
Y0204379D01*
X1332480D01*
Y0204479D01*
X1332380D01*
Y0204579D01*
X1332280D01*
Y0204679D01*
X1332180D01*
Y0204779D01*
X1332080D01*
Y0204879D01*
X1331980D01*
Y0204979D01*
Y0205079D01*
X1331880D01*
Y0205179D01*
X1331780D01*
Y0205279D01*
X1331680D01*
Y0205379D01*
X1331580D01*
Y0205479D01*
X1331480D01*
Y0205579D01*
X1331380D01*
Y0205679D01*
X1331280D01*
Y0205779D01*
Y0205879D01*
X1331180D01*
Y0205979D01*
X1331080D01*
Y0206079D01*
X1330980D01*
Y0206179D01*
X1330880D01*
Y0206279D01*
X1330780D01*
Y0206379D01*
X1330680D01*
Y0206479D01*
X1330580D01*
Y0206579D01*
Y0206679D01*
X1330480D01*
Y0206779D01*
X1330380D01*
Y0206879D01*
X1330280D01*
Y0206979D01*
X1330180D01*
Y0207079D01*
X1330080D01*
Y0207179D01*
X1329980D01*
Y0207279D01*
X1329880D01*
Y0207379D01*
X1329780D01*
Y0207479D01*
Y0207579D01*
X1329680D01*
Y0207479D01*
Y0207379D01*
Y0207279D01*
Y0207179D01*
Y0207079D01*
Y0206979D01*
Y0206879D01*
Y0206779D01*
Y0206679D01*
Y0206579D01*
Y0206479D01*
Y0206379D01*
Y0206279D01*
Y0206179D01*
Y0206079D01*
Y0205979D01*
Y0205879D01*
Y0205779D01*
Y0205679D01*
Y0205579D01*
Y0205479D01*
Y0205379D01*
Y0205279D01*
Y0205179D01*
Y0205079D01*
Y0204979D01*
Y0204879D01*
Y0204779D01*
Y0204679D01*
Y0204579D01*
Y0204479D01*
Y0204379D01*
Y0204279D01*
Y0204179D01*
Y0204079D01*
Y0203979D01*
Y0203879D01*
Y0203779D01*
Y0203679D01*
Y0203579D01*
Y0203479D01*
Y0203379D01*
Y0203279D01*
Y0203179D01*
Y0203079D01*
Y0202979D01*
Y0202879D01*
Y0202779D01*
Y0202679D01*
X1329780D01*
Y0202579D01*
Y0202479D01*
Y0202379D01*
X1329880D01*
Y0202279D01*
X1329980D01*
Y0202179D01*
X1330180D01*
Y0202079D01*
X1330380D01*
Y0201979D01*
X1330480D01*
Y0201879D01*
Y0201779D01*
Y0201679D01*
X1327880D01*
Y0201779D01*
Y0201879D01*
Y0201979D01*
X1327980D01*
Y0202079D01*
X1328280D01*
Y0202179D01*
X1328380D01*
Y0202279D01*
X1328480D01*
Y0202379D01*
Y0202479D01*
X1328580D01*
Y0202579D01*
Y0202679D01*
Y0202779D01*
Y0202879D01*
Y0202979D01*
Y0203079D01*
Y0203179D01*
Y0203279D01*
Y0203379D01*
Y0203479D01*
Y0203579D01*
Y0203679D01*
Y0203779D01*
Y0203879D01*
Y0203979D01*
Y0204079D01*
Y0204179D01*
Y0204279D01*
Y0204379D01*
Y0204479D01*
Y0204579D01*
Y0204679D01*
Y0204779D01*
Y0204879D01*
Y0204979D01*
Y0205079D01*
Y0205179D01*
Y0205279D01*
Y0205379D01*
Y0205479D01*
Y0205579D01*
Y0205679D01*
Y0205779D01*
Y0205879D01*
Y0205979D01*
Y0206079D01*
Y0206179D01*
Y0206279D01*
Y0206379D01*
Y0206479D01*
Y0206579D01*
Y0206679D01*
Y0206779D01*
Y0206879D01*
Y0206979D01*
Y0207079D01*
Y0207179D01*
Y0207279D01*
Y0207379D01*
Y0207479D01*
Y0207579D01*
Y0207679D01*
Y0207779D01*
Y0207879D01*
Y0207979D01*
Y0208079D01*
Y0208179D01*
Y0208279D01*
Y0208379D01*
Y0208479D01*
Y0208579D01*
Y0208679D01*
Y0208779D01*
X1328480D01*
Y0208879D01*
Y0208979D01*
X1328380D01*
Y0209079D01*
X1328280D01*
Y0209179D01*
X1328080D01*
Y0209279D01*
X1327880D01*
Y0209379D01*
Y0209479D01*
Y0209579D01*
X1330280D01*
Y0209479D01*
X1330380D01*
Y0209379D01*
Y0209279D01*
X1330480D01*
Y0209179D01*
X1330580D01*
Y0209079D01*
X1330680D01*
Y0208979D01*
X1330780D01*
Y0208879D01*
X1330880D01*
Y0208779D01*
X1330980D01*
Y0208679D01*
X1331080D01*
Y0208579D01*
Y0208479D01*
X1331180D01*
Y0208379D01*
X1331280D01*
Y0208279D01*
X1331380D01*
Y0208179D01*
X1331480D01*
Y0208079D01*
X1331580D01*
Y0207979D01*
X1331680D01*
Y0207879D01*
X1331780D01*
Y0207779D01*
X1331880D01*
Y0207679D01*
Y0207579D01*
X1331980D01*
Y0207479D01*
X1332080D01*
Y0207379D01*
X1332180D01*
Y0207279D01*
X1332280D01*
Y0207179D01*
X1332380D01*
Y0207079D01*
X1332480D01*
Y0206979D01*
X1332580D01*
Y0206879D01*
Y0206779D01*
X1332680D01*
Y0206679D01*
X1332780D01*
Y0206579D01*
X1332880D01*
Y0206479D01*
X1332980D01*
Y0206379D01*
X1333080D01*
Y0206279D01*
X1333180D01*
Y0206179D01*
X1333280D01*
Y0206079D01*
Y0205979D01*
X1333380D01*
Y0205879D01*
X1333480D01*
Y0205779D01*
X1333580D01*
Y0205679D01*
X1333680D01*
Y0205579D01*
X1333780D01*
Y0205479D01*
X1333880D01*
Y0205379D01*
X1333980D01*
Y0205279D01*
Y0205179D01*
X1334180D01*
Y0205279D01*
Y0205379D01*
Y0205479D01*
Y0205579D01*
Y0205679D01*
Y0205779D01*
Y0205879D01*
Y0205979D01*
Y0206079D01*
Y0206179D01*
Y0206279D01*
Y0206379D01*
Y0206479D01*
Y0206579D01*
Y0206679D01*
Y0206779D01*
Y0206879D01*
Y0206979D01*
Y0207079D01*
Y0207179D01*
Y0207279D01*
Y0207379D01*
Y0207479D01*
Y0207579D01*
Y0207679D01*
Y0207779D01*
Y0207879D01*
Y0207979D01*
Y0208079D01*
Y0208179D01*
Y0208279D01*
Y0208379D01*
Y0208479D01*
Y0208579D01*
Y0208679D01*
X1334080D01*
Y0208779D01*
Y0208879D01*
Y0208979D01*
X1333980D01*
Y0209079D01*
X1333880D01*
Y0209179D01*
X1333680D01*
Y0209279D01*
X1333480D01*
Y0209379D01*
Y0209479D01*
Y0209579D01*
X1335880D01*
Y0209479D01*
D02*
G37*
G36*
X1392880D02*
Y0209379D01*
Y0209279D01*
X1392680D01*
Y0209179D01*
X1392580D01*
Y0209079D01*
X1392480D01*
Y0208979D01*
X1392380D01*
Y0208879D01*
X1392280D01*
Y0208779D01*
Y0208679D01*
Y0208579D01*
Y0208479D01*
Y0208379D01*
X1392180D01*
Y0208279D01*
Y0208179D01*
Y0208079D01*
Y0207979D01*
Y0207879D01*
Y0207779D01*
Y0207679D01*
Y0207579D01*
Y0207479D01*
Y0207379D01*
Y0207279D01*
Y0207179D01*
Y0207079D01*
Y0206979D01*
Y0206879D01*
Y0206779D01*
Y0206679D01*
Y0206579D01*
Y0206479D01*
Y0206379D01*
Y0206279D01*
Y0206179D01*
Y0206079D01*
Y0205979D01*
Y0205879D01*
Y0205779D01*
Y0205679D01*
Y0205579D01*
Y0205479D01*
Y0205379D01*
Y0205279D01*
Y0205179D01*
Y0205079D01*
Y0204979D01*
Y0204879D01*
Y0204779D01*
Y0204679D01*
Y0204579D01*
Y0204479D01*
Y0204379D01*
Y0204279D01*
Y0204179D01*
Y0204079D01*
Y0203979D01*
Y0203879D01*
Y0203779D01*
Y0203679D01*
Y0203579D01*
Y0203479D01*
Y0203379D01*
Y0203279D01*
Y0203179D01*
Y0203079D01*
Y0202979D01*
Y0202879D01*
Y0202779D01*
Y0202679D01*
Y0202579D01*
Y0202479D01*
Y0202379D01*
Y0202279D01*
Y0202179D01*
Y0202079D01*
Y0201979D01*
Y0201879D01*
Y0201779D01*
Y0201679D01*
Y0201579D01*
X1391880D01*
Y0201679D01*
X1391780D01*
Y0201779D01*
Y0201879D01*
X1391680D01*
Y0201979D01*
X1391580D01*
Y0202079D01*
X1391480D01*
Y0202179D01*
X1391380D01*
Y0202279D01*
X1391280D01*
Y0202379D01*
X1391180D01*
Y0202479D01*
X1391080D01*
Y0202579D01*
Y0202679D01*
X1390980D01*
Y0202779D01*
X1390880D01*
Y0202879D01*
X1390780D01*
Y0202979D01*
X1390680D01*
Y0203079D01*
X1390580D01*
Y0203179D01*
X1390480D01*
Y0203279D01*
X1390380D01*
Y0203379D01*
Y0203479D01*
X1390280D01*
Y0203579D01*
X1390180D01*
Y0203679D01*
X1390080D01*
Y0203779D01*
X1389980D01*
Y0203879D01*
X1389880D01*
Y0203979D01*
X1389780D01*
Y0204079D01*
X1389680D01*
Y0204179D01*
Y0204279D01*
X1389580D01*
Y0204379D01*
X1389480D01*
Y0204479D01*
X1389380D01*
Y0204579D01*
X1389280D01*
Y0204679D01*
X1389180D01*
Y0204779D01*
X1389080D01*
Y0204879D01*
X1388980D01*
Y0204979D01*
Y0205079D01*
X1388880D01*
Y0205179D01*
X1388780D01*
Y0205279D01*
X1388680D01*
Y0205379D01*
X1388580D01*
Y0205479D01*
X1388480D01*
Y0205579D01*
X1388380D01*
Y0205679D01*
X1388280D01*
Y0205779D01*
Y0205879D01*
X1388180D01*
Y0205979D01*
X1388080D01*
Y0206079D01*
X1387980D01*
Y0206179D01*
X1387880D01*
Y0206279D01*
X1387780D01*
Y0206379D01*
X1387680D01*
Y0206479D01*
X1387580D01*
Y0206579D01*
Y0206679D01*
X1387480D01*
Y0206779D01*
X1387380D01*
Y0206879D01*
X1387280D01*
Y0206979D01*
X1387180D01*
Y0207079D01*
X1387080D01*
Y0207179D01*
X1386980D01*
Y0207279D01*
X1386880D01*
Y0207379D01*
Y0207479D01*
X1386780D01*
Y0207579D01*
X1386680D01*
Y0207479D01*
Y0207379D01*
Y0207279D01*
Y0207179D01*
Y0207079D01*
Y0206979D01*
Y0206879D01*
Y0206779D01*
Y0206679D01*
Y0206579D01*
Y0206479D01*
Y0206379D01*
Y0206279D01*
Y0206179D01*
Y0206079D01*
Y0205979D01*
Y0205879D01*
Y0205779D01*
Y0205679D01*
Y0205579D01*
Y0205479D01*
Y0205379D01*
Y0205279D01*
Y0205179D01*
Y0205079D01*
Y0204979D01*
Y0204879D01*
Y0204779D01*
Y0204679D01*
Y0204579D01*
Y0204479D01*
Y0204379D01*
Y0204279D01*
Y0204179D01*
Y0204079D01*
Y0203979D01*
Y0203879D01*
Y0203779D01*
Y0203679D01*
Y0203579D01*
Y0203479D01*
Y0203379D01*
Y0203279D01*
Y0203179D01*
Y0203079D01*
Y0202979D01*
Y0202879D01*
Y0202779D01*
Y0202679D01*
X1386780D01*
Y0202579D01*
Y0202479D01*
Y0202379D01*
X1386880D01*
Y0202279D01*
X1386980D01*
Y0202179D01*
X1387180D01*
Y0202079D01*
X1387380D01*
Y0201979D01*
X1387480D01*
Y0201879D01*
Y0201779D01*
Y0201679D01*
X1384880D01*
Y0201779D01*
Y0201879D01*
Y0201979D01*
X1384980D01*
Y0202079D01*
X1385280D01*
Y0202179D01*
X1385380D01*
Y0202279D01*
X1385480D01*
Y0202379D01*
Y0202479D01*
X1385580D01*
Y0202579D01*
Y0202679D01*
Y0202779D01*
Y0202879D01*
Y0202979D01*
X1385680D01*
Y0203079D01*
Y0203179D01*
Y0203279D01*
Y0203379D01*
Y0203479D01*
Y0203579D01*
Y0203679D01*
Y0203779D01*
Y0203879D01*
Y0203979D01*
Y0204079D01*
Y0204179D01*
Y0204279D01*
Y0204379D01*
Y0204479D01*
Y0204579D01*
Y0204679D01*
Y0204779D01*
Y0204879D01*
Y0204979D01*
Y0205079D01*
Y0205179D01*
Y0205279D01*
Y0205379D01*
Y0205479D01*
Y0205579D01*
Y0205679D01*
Y0205779D01*
Y0205879D01*
Y0205979D01*
Y0206079D01*
Y0206179D01*
Y0206279D01*
Y0206379D01*
Y0206479D01*
Y0206579D01*
Y0206679D01*
Y0206779D01*
Y0206879D01*
Y0206979D01*
Y0207079D01*
Y0207179D01*
Y0207279D01*
Y0207379D01*
Y0207479D01*
Y0207579D01*
Y0207679D01*
Y0207779D01*
Y0207879D01*
Y0207979D01*
Y0208079D01*
Y0208179D01*
Y0208279D01*
Y0208379D01*
X1385580D01*
Y0208479D01*
Y0208579D01*
Y0208679D01*
Y0208779D01*
X1385480D01*
Y0208879D01*
Y0208979D01*
X1385380D01*
Y0209079D01*
X1385280D01*
Y0209179D01*
X1385080D01*
Y0209279D01*
X1384880D01*
Y0209379D01*
Y0209479D01*
Y0209579D01*
X1387280D01*
Y0209479D01*
X1387380D01*
Y0209379D01*
X1387480D01*
Y0209279D01*
Y0209179D01*
X1387580D01*
Y0209079D01*
X1387680D01*
Y0208979D01*
X1387780D01*
Y0208879D01*
X1387880D01*
Y0208779D01*
X1387980D01*
Y0208679D01*
X1388080D01*
Y0208579D01*
X1388180D01*
Y0208479D01*
Y0208379D01*
X1388280D01*
Y0208279D01*
X1388380D01*
Y0208179D01*
X1388480D01*
Y0208079D01*
X1388580D01*
Y0207979D01*
X1388680D01*
Y0207879D01*
X1388780D01*
Y0207779D01*
X1388880D01*
Y0207679D01*
Y0207579D01*
X1388980D01*
Y0207479D01*
X1389080D01*
Y0207379D01*
X1389180D01*
Y0207279D01*
X1389280D01*
Y0207179D01*
X1389380D01*
Y0207079D01*
X1389480D01*
Y0206979D01*
X1389580D01*
Y0206879D01*
Y0206779D01*
X1389680D01*
Y0206679D01*
X1389780D01*
Y0206579D01*
X1389880D01*
Y0206479D01*
X1389980D01*
Y0206379D01*
X1390080D01*
Y0206279D01*
X1390180D01*
Y0206179D01*
X1390280D01*
Y0206079D01*
Y0205979D01*
X1390380D01*
Y0205879D01*
X1390480D01*
Y0205779D01*
X1390580D01*
Y0205679D01*
X1390680D01*
Y0205579D01*
X1390780D01*
Y0205479D01*
X1390880D01*
Y0205379D01*
X1390980D01*
Y0205279D01*
Y0205179D01*
X1391080D01*
Y0205079D01*
X1391180D01*
Y0205179D01*
Y0205279D01*
Y0205379D01*
Y0205479D01*
Y0205579D01*
Y0205679D01*
Y0205779D01*
Y0205879D01*
Y0205979D01*
Y0206079D01*
Y0206179D01*
Y0206279D01*
Y0206379D01*
Y0206479D01*
Y0206579D01*
Y0206679D01*
Y0206779D01*
Y0206879D01*
Y0206979D01*
Y0207079D01*
Y0207179D01*
Y0207279D01*
Y0207379D01*
Y0207479D01*
Y0207579D01*
Y0207679D01*
Y0207779D01*
Y0207879D01*
Y0207979D01*
Y0208079D01*
Y0208179D01*
Y0208279D01*
Y0208379D01*
Y0208479D01*
Y0208579D01*
Y0208679D01*
Y0208779D01*
X1391080D01*
Y0208879D01*
Y0208979D01*
X1390980D01*
Y0209079D01*
X1390880D01*
Y0209179D01*
X1390680D01*
Y0209279D01*
X1390480D01*
Y0209379D01*
Y0209479D01*
Y0209579D01*
X1392880D01*
Y0209479D01*
D02*
G37*
G36*
X1376880D02*
Y0209379D01*
Y0209279D01*
X1376680D01*
Y0209179D01*
X1376480D01*
Y0209079D01*
X1376380D01*
Y0208979D01*
X1376280D01*
Y0208879D01*
X1376180D01*
Y0208779D01*
Y0208679D01*
Y0208579D01*
Y0208479D01*
Y0208379D01*
Y0208279D01*
Y0208179D01*
Y0208079D01*
Y0207979D01*
Y0207879D01*
Y0207779D01*
Y0207679D01*
Y0207579D01*
Y0207479D01*
Y0207379D01*
Y0207279D01*
Y0207179D01*
Y0207079D01*
Y0206979D01*
Y0206879D01*
Y0206779D01*
Y0206679D01*
Y0206579D01*
Y0206479D01*
Y0206379D01*
Y0206279D01*
Y0206179D01*
Y0206079D01*
Y0205979D01*
Y0205879D01*
Y0205779D01*
Y0205679D01*
Y0205579D01*
Y0205479D01*
Y0205379D01*
Y0205279D01*
Y0205179D01*
Y0205079D01*
Y0204979D01*
Y0204879D01*
Y0204779D01*
Y0204679D01*
Y0204579D01*
Y0204479D01*
Y0204379D01*
Y0204279D01*
Y0204179D01*
Y0204079D01*
Y0203979D01*
Y0203879D01*
Y0203779D01*
Y0203679D01*
Y0203579D01*
Y0203479D01*
Y0203379D01*
Y0203279D01*
Y0203179D01*
Y0203079D01*
Y0202979D01*
Y0202879D01*
Y0202779D01*
Y0202679D01*
Y0202579D01*
Y0202479D01*
X1376280D01*
Y0202379D01*
Y0202279D01*
X1376380D01*
Y0202179D01*
X1376480D01*
Y0202079D01*
X1376780D01*
Y0201979D01*
X1376880D01*
Y0201879D01*
Y0201779D01*
Y0201679D01*
X1373680D01*
Y0201779D01*
Y0201879D01*
Y0201979D01*
X1373780D01*
Y0202079D01*
X1373980D01*
Y0202179D01*
X1374180D01*
Y0202279D01*
X1374280D01*
Y0202379D01*
Y0202479D01*
X1374380D01*
Y0202579D01*
Y0202679D01*
Y0202779D01*
Y0202879D01*
Y0202979D01*
Y0203079D01*
Y0203179D01*
Y0203279D01*
Y0203379D01*
Y0203479D01*
Y0203579D01*
Y0203679D01*
Y0203779D01*
Y0203879D01*
Y0203979D01*
Y0204079D01*
Y0204179D01*
Y0204279D01*
Y0204379D01*
Y0204479D01*
Y0204579D01*
Y0204679D01*
Y0204779D01*
Y0204879D01*
Y0204979D01*
Y0205079D01*
Y0205179D01*
Y0205279D01*
Y0205379D01*
Y0205479D01*
Y0205579D01*
Y0205679D01*
Y0205779D01*
Y0205879D01*
Y0205979D01*
Y0206079D01*
Y0206179D01*
Y0206279D01*
Y0206379D01*
Y0206479D01*
Y0206579D01*
Y0206679D01*
Y0206779D01*
Y0206879D01*
Y0206979D01*
Y0207079D01*
Y0207179D01*
Y0207279D01*
Y0207379D01*
Y0207479D01*
Y0207579D01*
Y0207679D01*
Y0207779D01*
X1374280D01*
Y0207679D01*
Y0207579D01*
Y0207479D01*
X1374180D01*
Y0207379D01*
Y0207279D01*
X1374080D01*
Y0207179D01*
Y0207079D01*
X1373980D01*
Y0206979D01*
Y0206879D01*
Y0206779D01*
X1373880D01*
Y0206679D01*
Y0206579D01*
X1373780D01*
Y0206479D01*
Y0206379D01*
X1373680D01*
Y0206279D01*
Y0206179D01*
Y0206079D01*
X1373580D01*
Y0205979D01*
Y0205879D01*
X1373480D01*
Y0205779D01*
Y0205679D01*
X1373380D01*
Y0205579D01*
Y0205479D01*
X1373280D01*
Y0205379D01*
Y0205279D01*
Y0205179D01*
X1373180D01*
Y0205079D01*
Y0204979D01*
X1373080D01*
Y0204879D01*
Y0204779D01*
X1372980D01*
Y0204679D01*
Y0204579D01*
Y0204479D01*
X1372880D01*
Y0204379D01*
Y0204279D01*
X1372780D01*
Y0204179D01*
Y0204079D01*
X1372680D01*
Y0203979D01*
Y0203879D01*
Y0203779D01*
X1372580D01*
Y0203679D01*
Y0203579D01*
X1372480D01*
Y0203479D01*
Y0203379D01*
X1372380D01*
Y0203279D01*
Y0203179D01*
X1372280D01*
Y0203079D01*
Y0202979D01*
Y0202879D01*
X1372180D01*
Y0202779D01*
Y0202679D01*
X1372080D01*
Y0202579D01*
Y0202479D01*
X1371980D01*
Y0202379D01*
Y0202279D01*
Y0202179D01*
X1371880D01*
Y0202079D01*
Y0201979D01*
X1371780D01*
Y0201879D01*
Y0201779D01*
X1371680D01*
Y0201679D01*
Y0201579D01*
X1371380D01*
Y0201679D01*
Y0201779D01*
X1371280D01*
Y0201879D01*
Y0201979D01*
X1371180D01*
Y0202079D01*
Y0202179D01*
Y0202279D01*
X1371080D01*
Y0202379D01*
Y0202479D01*
X1370980D01*
Y0202579D01*
Y0202679D01*
X1370880D01*
Y0202779D01*
Y0202879D01*
X1370780D01*
Y0202979D01*
Y0203079D01*
Y0203179D01*
X1370680D01*
Y0203279D01*
Y0203379D01*
X1370580D01*
Y0203479D01*
Y0203579D01*
X1370480D01*
Y0203679D01*
Y0203779D01*
X1370380D01*
Y0203879D01*
Y0203979D01*
Y0204079D01*
X1370280D01*
Y0204179D01*
Y0204279D01*
X1370180D01*
Y0204379D01*
Y0204479D01*
X1370080D01*
Y0204579D01*
Y0204679D01*
X1369980D01*
Y0204779D01*
Y0204879D01*
Y0204979D01*
X1369880D01*
Y0205079D01*
Y0205179D01*
X1369780D01*
Y0205279D01*
Y0205379D01*
X1369680D01*
Y0205479D01*
Y0205579D01*
X1369580D01*
Y0205679D01*
Y0205779D01*
Y0205879D01*
X1369480D01*
Y0205979D01*
Y0206079D01*
X1369380D01*
Y0206179D01*
Y0206279D01*
X1369280D01*
Y0206379D01*
Y0206479D01*
X1369180D01*
Y0206579D01*
Y0206679D01*
X1369080D01*
Y0206779D01*
Y0206879D01*
Y0206979D01*
X1368980D01*
Y0207079D01*
Y0207179D01*
X1368880D01*
Y0207279D01*
Y0207379D01*
X1368780D01*
Y0207479D01*
Y0207579D01*
X1368680D01*
Y0207679D01*
Y0207779D01*
X1368580D01*
Y0207679D01*
Y0207579D01*
Y0207479D01*
Y0207379D01*
Y0207279D01*
Y0207179D01*
Y0207079D01*
Y0206979D01*
Y0206879D01*
Y0206779D01*
Y0206679D01*
Y0206579D01*
Y0206479D01*
Y0206379D01*
Y0206279D01*
Y0206179D01*
Y0206079D01*
Y0205979D01*
Y0205879D01*
Y0205779D01*
Y0205679D01*
Y0205579D01*
Y0205479D01*
Y0205379D01*
Y0205279D01*
Y0205179D01*
Y0205079D01*
Y0204979D01*
Y0204879D01*
Y0204779D01*
Y0204679D01*
Y0204579D01*
Y0204479D01*
Y0204379D01*
Y0204279D01*
Y0204179D01*
Y0204079D01*
Y0203979D01*
Y0203879D01*
Y0203779D01*
Y0203679D01*
Y0203579D01*
Y0203479D01*
Y0203379D01*
Y0203279D01*
Y0203179D01*
Y0203079D01*
Y0202979D01*
Y0202879D01*
Y0202779D01*
Y0202679D01*
X1368680D01*
Y0202579D01*
Y0202479D01*
Y0202379D01*
X1368780D01*
Y0202279D01*
X1368880D01*
Y0202179D01*
X1368980D01*
Y0202079D01*
X1369280D01*
Y0201979D01*
X1369380D01*
Y0201879D01*
Y0201779D01*
Y0201679D01*
X1366880D01*
Y0201779D01*
Y0201879D01*
Y0201979D01*
Y0202079D01*
X1367180D01*
Y0202179D01*
X1367280D01*
Y0202279D01*
X1367380D01*
Y0202379D01*
X1367480D01*
Y0202479D01*
Y0202579D01*
X1367580D01*
Y0202679D01*
Y0202779D01*
Y0202879D01*
Y0202979D01*
Y0203079D01*
Y0203179D01*
Y0203279D01*
Y0203379D01*
Y0203479D01*
Y0203579D01*
Y0203679D01*
Y0203779D01*
Y0203879D01*
Y0203979D01*
Y0204079D01*
Y0204179D01*
Y0204279D01*
Y0204379D01*
Y0204479D01*
Y0204579D01*
Y0204679D01*
Y0204779D01*
Y0204879D01*
Y0204979D01*
Y0205079D01*
Y0205179D01*
Y0205279D01*
Y0205379D01*
Y0205479D01*
Y0205579D01*
Y0205679D01*
Y0205779D01*
Y0205879D01*
Y0205979D01*
Y0206079D01*
Y0206179D01*
Y0206279D01*
Y0206379D01*
Y0206479D01*
Y0206579D01*
Y0206679D01*
Y0206779D01*
Y0206879D01*
Y0206979D01*
Y0207079D01*
Y0207179D01*
Y0207279D01*
Y0207379D01*
Y0207479D01*
Y0207579D01*
Y0207679D01*
Y0207779D01*
Y0207879D01*
Y0207979D01*
Y0208079D01*
Y0208179D01*
Y0208279D01*
Y0208379D01*
Y0208479D01*
Y0208579D01*
Y0208679D01*
Y0208779D01*
Y0208879D01*
X1367480D01*
Y0208979D01*
X1367380D01*
Y0209079D01*
X1367280D01*
Y0209179D01*
X1367080D01*
Y0209279D01*
X1366880D01*
Y0209379D01*
Y0209479D01*
Y0209579D01*
X1369680D01*
Y0209479D01*
X1369780D01*
Y0209379D01*
Y0209279D01*
X1369880D01*
Y0209179D01*
Y0209079D01*
X1369980D01*
Y0208979D01*
Y0208879D01*
Y0208779D01*
X1370080D01*
Y0208679D01*
Y0208579D01*
X1370180D01*
Y0208479D01*
Y0208379D01*
X1370280D01*
Y0208279D01*
Y0208179D01*
X1370380D01*
Y0208079D01*
Y0207979D01*
Y0207879D01*
X1370480D01*
Y0207779D01*
Y0207679D01*
X1370580D01*
Y0207579D01*
Y0207479D01*
X1370680D01*
Y0207379D01*
Y0207279D01*
X1370780D01*
Y0207179D01*
Y0207079D01*
Y0206979D01*
X1370880D01*
Y0206879D01*
Y0206779D01*
X1370980D01*
Y0206679D01*
Y0206579D01*
X1371080D01*
Y0206479D01*
Y0206379D01*
X1371180D01*
Y0206279D01*
Y0206179D01*
Y0206079D01*
X1371280D01*
Y0205979D01*
Y0205879D01*
X1371380D01*
Y0205779D01*
Y0205679D01*
X1371480D01*
Y0205579D01*
Y0205479D01*
X1371580D01*
Y0205379D01*
Y0205279D01*
Y0205179D01*
X1371680D01*
Y0205079D01*
Y0204979D01*
X1371780D01*
Y0204879D01*
Y0204779D01*
X1371880D01*
Y0204679D01*
Y0204579D01*
X1371980D01*
Y0204679D01*
X1372080D01*
Y0204779D01*
Y0204879D01*
Y0204979D01*
X1372180D01*
Y0205079D01*
Y0205179D01*
X1372280D01*
Y0205279D01*
Y0205379D01*
X1372380D01*
Y0205479D01*
Y0205579D01*
Y0205679D01*
X1372480D01*
Y0205779D01*
Y0205879D01*
X1372580D01*
Y0205979D01*
Y0206079D01*
X1372680D01*
Y0206179D01*
Y0206279D01*
Y0206379D01*
X1372780D01*
Y0206479D01*
Y0206579D01*
X1372880D01*
Y0206679D01*
Y0206779D01*
X1372980D01*
Y0206879D01*
Y0206979D01*
Y0207079D01*
X1373080D01*
Y0207179D01*
Y0207279D01*
X1373180D01*
Y0207379D01*
Y0207479D01*
X1373280D01*
Y0207579D01*
Y0207679D01*
Y0207779D01*
X1373380D01*
Y0207879D01*
Y0207979D01*
X1373480D01*
Y0208079D01*
Y0208179D01*
X1373580D01*
Y0208279D01*
Y0208379D01*
Y0208479D01*
X1373680D01*
Y0208579D01*
Y0208679D01*
X1373780D01*
Y0208779D01*
Y0208879D01*
X1373880D01*
Y0208979D01*
Y0209079D01*
Y0209179D01*
X1373980D01*
Y0209279D01*
Y0209379D01*
X1374080D01*
Y0209479D01*
Y0209579D01*
X1376880D01*
Y0209479D01*
D02*
G37*
G36*
X1304880Y0228479D02*
Y0228379D01*
Y0228279D01*
Y0228179D01*
Y0228079D01*
Y0227979D01*
Y0227879D01*
Y0227779D01*
Y0227679D01*
Y0227579D01*
Y0227479D01*
Y0227379D01*
Y0227279D01*
Y0227179D01*
Y0227079D01*
Y0226979D01*
Y0226879D01*
Y0226779D01*
Y0226679D01*
Y0226579D01*
Y0226479D01*
Y0226379D01*
Y0226279D01*
Y0226179D01*
Y0226079D01*
Y0225979D01*
Y0225879D01*
Y0225779D01*
Y0225679D01*
Y0225579D01*
Y0225479D01*
Y0225379D01*
Y0225279D01*
Y0225179D01*
Y0225079D01*
Y0224979D01*
Y0224879D01*
Y0224779D01*
Y0224679D01*
Y0224579D01*
Y0224479D01*
Y0224379D01*
Y0224279D01*
Y0224179D01*
Y0224079D01*
Y0223979D01*
X1306480D01*
Y0223879D01*
X1306380D01*
Y0223779D01*
Y0223679D01*
Y0223579D01*
Y0223479D01*
Y0223379D01*
X1306280D01*
Y0223279D01*
Y0223179D01*
Y0223079D01*
Y0222979D01*
Y0222879D01*
X1306180D01*
Y0222779D01*
Y0222679D01*
Y0222579D01*
Y0222479D01*
Y0222379D01*
X1306080D01*
Y0222279D01*
Y0222179D01*
Y0222079D01*
Y0221979D01*
Y0221879D01*
X1305980D01*
Y0221779D01*
Y0221679D01*
Y0221579D01*
Y0221479D01*
Y0221379D01*
X1305880D01*
Y0221279D01*
Y0221179D01*
Y0221079D01*
Y0220979D01*
X1304180D01*
Y0220879D01*
Y0220779D01*
Y0220679D01*
X1304080D01*
Y0220579D01*
Y0220479D01*
Y0220379D01*
Y0220279D01*
Y0220179D01*
X1303980D01*
Y0220079D01*
Y0219979D01*
Y0219879D01*
Y0219779D01*
Y0219679D01*
X1303880D01*
Y0219579D01*
Y0219479D01*
Y0219379D01*
Y0219279D01*
Y0219179D01*
X1303780D01*
Y0219079D01*
Y0218979D01*
Y0218879D01*
Y0218779D01*
Y0218679D01*
X1303680D01*
Y0218579D01*
Y0218479D01*
Y0218379D01*
Y0218279D01*
Y0218179D01*
X1305280D01*
Y0218079D01*
Y0217979D01*
Y0217879D01*
Y0217779D01*
X1305180D01*
Y0217679D01*
Y0217579D01*
Y0217479D01*
Y0217379D01*
Y0217279D01*
X1305080D01*
Y0217179D01*
Y0217079D01*
Y0216979D01*
Y0216879D01*
Y0216779D01*
X1304980D01*
Y0216679D01*
Y0216579D01*
Y0216479D01*
Y0216379D01*
Y0216279D01*
X1304880D01*
Y0216179D01*
Y0216079D01*
Y0215979D01*
Y0215879D01*
Y0215779D01*
X1304780D01*
Y0215679D01*
Y0215579D01*
Y0215479D01*
Y0215379D01*
Y0215279D01*
X1304680D01*
Y0215179D01*
Y0215079D01*
Y0214979D01*
Y0214879D01*
Y0214779D01*
X1304580D01*
Y0214679D01*
Y0214579D01*
Y0214479D01*
Y0214379D01*
Y0214279D01*
X1304480D01*
Y0214179D01*
Y0214079D01*
Y0213979D01*
Y0213879D01*
Y0213779D01*
X1304380D01*
Y0213679D01*
Y0213579D01*
Y0213479D01*
Y0213379D01*
Y0213279D01*
X1304280D01*
Y0213179D01*
Y0213079D01*
Y0212979D01*
Y0212879D01*
Y0212779D01*
X1304180D01*
Y0212679D01*
Y0212579D01*
Y0212479D01*
Y0212379D01*
Y0212279D01*
Y0212179D01*
Y0212079D01*
Y0211979D01*
X1304280D01*
Y0211879D01*
Y0211779D01*
Y0211679D01*
X1304380D01*
Y0211579D01*
Y0211479D01*
X1304480D01*
Y0211379D01*
X1304580D01*
Y0211279D01*
X1304680D01*
Y0211179D01*
X1304880D01*
Y0211079D01*
X1305080D01*
Y0210979D01*
X1305480D01*
Y0210879D01*
X1306080D01*
Y0210779D01*
X1309980D01*
Y0210879D01*
Y0210979D01*
Y0211079D01*
X1310080D01*
Y0211179D01*
Y0211279D01*
Y0211379D01*
Y0211479D01*
Y0211579D01*
X1310180D01*
Y0211679D01*
Y0211779D01*
Y0211879D01*
Y0211979D01*
Y0212079D01*
X1310280D01*
Y0212179D01*
Y0212279D01*
Y0212379D01*
Y0212479D01*
Y0212579D01*
X1310380D01*
Y0212679D01*
Y0212779D01*
Y0212879D01*
Y0212979D01*
Y0213079D01*
X1310480D01*
Y0213179D01*
Y0213279D01*
Y0213379D01*
Y0213479D01*
Y0213579D01*
X1310580D01*
Y0213679D01*
Y0213779D01*
X1309280D01*
Y0213879D01*
X1309080D01*
Y0213979D01*
X1308980D01*
Y0214079D01*
Y0214179D01*
Y0214279D01*
Y0214379D01*
Y0214479D01*
Y0214579D01*
Y0214679D01*
Y0214779D01*
Y0214879D01*
X1309080D01*
Y0214979D01*
Y0215079D01*
Y0215179D01*
Y0215279D01*
X1309180D01*
Y0215379D01*
Y0215479D01*
Y0215579D01*
Y0215679D01*
Y0215779D01*
X1309280D01*
Y0215879D01*
Y0215979D01*
Y0216079D01*
Y0216179D01*
Y0216279D01*
X1309380D01*
Y0216379D01*
Y0216479D01*
Y0216579D01*
Y0216679D01*
Y0216779D01*
X1309480D01*
Y0216879D01*
Y0216979D01*
Y0217079D01*
Y0217179D01*
Y0217279D01*
X1309580D01*
Y0217379D01*
Y0217479D01*
Y0217579D01*
Y0217679D01*
Y0217779D01*
X1309680D01*
Y0217879D01*
Y0217979D01*
Y0218079D01*
Y0218179D01*
X1311480D01*
Y0218279D01*
Y0218379D01*
Y0218479D01*
Y0218579D01*
Y0218679D01*
X1311580D01*
Y0218779D01*
Y0218879D01*
Y0218979D01*
Y0219079D01*
Y0219179D01*
X1311680D01*
Y0219279D01*
Y0219379D01*
Y0219479D01*
Y0219579D01*
Y0219679D01*
X1311780D01*
Y0219779D01*
Y0219879D01*
Y0219979D01*
Y0220079D01*
Y0220179D01*
X1311880D01*
Y0220279D01*
Y0220379D01*
Y0220479D01*
Y0220579D01*
Y0220679D01*
X1311980D01*
Y0220779D01*
Y0220879D01*
Y0220979D01*
X1310280D01*
Y0221079D01*
Y0221179D01*
Y0221279D01*
X1310380D01*
Y0221379D01*
Y0221479D01*
Y0221579D01*
Y0221679D01*
Y0221779D01*
X1310480D01*
Y0221879D01*
Y0221979D01*
Y0222079D01*
Y0222179D01*
Y0222279D01*
X1310580D01*
Y0222379D01*
Y0222479D01*
Y0222579D01*
Y0222679D01*
Y0222779D01*
X1310680D01*
Y0222879D01*
Y0222979D01*
Y0223079D01*
Y0223179D01*
Y0223279D01*
X1310780D01*
Y0223379D01*
Y0223479D01*
Y0223579D01*
Y0223679D01*
Y0223779D01*
X1310880D01*
Y0223879D01*
Y0223979D01*
X1315680D01*
Y0223879D01*
Y0223779D01*
Y0223679D01*
Y0223579D01*
Y0223479D01*
Y0223379D01*
Y0223279D01*
Y0223179D01*
Y0223079D01*
Y0222979D01*
Y0222879D01*
Y0222779D01*
Y0222679D01*
Y0222579D01*
Y0222479D01*
Y0222379D01*
Y0222279D01*
Y0222179D01*
Y0222079D01*
Y0221979D01*
Y0221879D01*
Y0221779D01*
Y0221679D01*
Y0221579D01*
Y0221479D01*
Y0221379D01*
Y0221279D01*
Y0221179D01*
Y0221079D01*
Y0220979D01*
Y0220879D01*
Y0220779D01*
Y0220679D01*
Y0220579D01*
X1315780D01*
Y0220479D01*
Y0220379D01*
Y0220279D01*
Y0220179D01*
Y0220079D01*
X1315880D01*
Y0219979D01*
Y0219879D01*
Y0219779D01*
Y0219679D01*
X1315980D01*
Y0219579D01*
Y0219479D01*
X1316080D01*
Y0219379D01*
Y0219279D01*
X1316180D01*
Y0219179D01*
Y0219079D01*
X1316280D01*
Y0218979D01*
X1316380D01*
Y0218879D01*
Y0218779D01*
X1316480D01*
Y0218679D01*
X1316580D01*
Y0218579D01*
X1316680D01*
Y0218479D01*
X1316780D01*
Y0218379D01*
X1316980D01*
Y0218279D01*
X1317080D01*
Y0218179D01*
Y0218079D01*
Y0217979D01*
Y0217879D01*
Y0217779D01*
Y0217679D01*
Y0217579D01*
Y0217479D01*
Y0217379D01*
Y0217279D01*
Y0217179D01*
Y0217079D01*
Y0216979D01*
Y0216879D01*
Y0216779D01*
Y0216679D01*
Y0216579D01*
Y0216479D01*
Y0216379D01*
Y0216279D01*
Y0216179D01*
Y0216079D01*
Y0215979D01*
Y0215879D01*
Y0215779D01*
Y0215679D01*
Y0215579D01*
Y0215479D01*
Y0215379D01*
Y0215279D01*
Y0215179D01*
Y0215079D01*
Y0214979D01*
Y0214879D01*
Y0214779D01*
Y0214679D01*
Y0214579D01*
Y0214479D01*
Y0214379D01*
Y0214279D01*
Y0214179D01*
Y0214079D01*
Y0213979D01*
Y0213879D01*
Y0213779D01*
Y0213679D01*
Y0213579D01*
Y0213479D01*
Y0213379D01*
X1316880D01*
Y0213279D01*
X1316580D01*
Y0213179D01*
X1316180D01*
Y0213079D01*
X1315880D01*
Y0212979D01*
X1315580D01*
Y0212879D01*
X1315280D01*
Y0212779D01*
X1315080D01*
Y0212679D01*
X1314780D01*
Y0212579D01*
X1314580D01*
Y0212479D01*
X1314380D01*
Y0212379D01*
X1314180D01*
Y0212279D01*
X1313980D01*
Y0212179D01*
X1313780D01*
Y0212079D01*
X1313580D01*
Y0211979D01*
X1313380D01*
Y0211879D01*
X1313280D01*
Y0211779D01*
X1313080D01*
Y0211679D01*
X1312880D01*
Y0211579D01*
X1312780D01*
Y0211479D01*
X1312680D01*
Y0211379D01*
X1312480D01*
Y0211279D01*
X1312380D01*
Y0211179D01*
X1312280D01*
Y0211079D01*
X1312080D01*
Y0210979D01*
X1311980D01*
Y0210879D01*
X1311880D01*
Y0210779D01*
X1311780D01*
Y0210679D01*
X1311680D01*
Y0210579D01*
X1311580D01*
Y0210479D01*
X1311480D01*
Y0210379D01*
X1311380D01*
Y0210279D01*
X1311280D01*
Y0210179D01*
X1311180D01*
Y0210079D01*
X1311080D01*
Y0209979D01*
X1310980D01*
Y0209879D01*
Y0209779D01*
X1310880D01*
Y0209679D01*
X1310780D01*
Y0209579D01*
X1310680D01*
Y0209479D01*
Y0209379D01*
X1310580D01*
Y0209279D01*
X1310480D01*
Y0209179D01*
Y0209079D01*
X1310380D01*
Y0208979D01*
Y0208879D01*
X1310280D01*
Y0208779D01*
Y0208679D01*
X1310180D01*
Y0208579D01*
Y0208479D01*
X1310080D01*
Y0208379D01*
Y0208279D01*
Y0208179D01*
X1309980D01*
Y0208079D01*
Y0207979D01*
Y0207879D01*
Y0207779D01*
X1309880D01*
Y0207679D01*
Y0207579D01*
Y0207479D01*
Y0207379D01*
Y0207279D01*
Y0207179D01*
Y0207079D01*
Y0206979D01*
Y0206879D01*
Y0206779D01*
Y0206679D01*
Y0206579D01*
Y0206479D01*
Y0206379D01*
Y0206279D01*
X1309980D01*
Y0206179D01*
Y0206079D01*
Y0205979D01*
Y0205879D01*
Y0205779D01*
X1310080D01*
Y0205679D01*
Y0205579D01*
Y0205479D01*
Y0205379D01*
X1310180D01*
Y0205279D01*
Y0205179D01*
Y0205079D01*
X1310280D01*
Y0204979D01*
Y0204879D01*
X1310380D01*
Y0204779D01*
Y0204679D01*
X1310180D01*
Y0204579D01*
X1309880D01*
Y0204479D01*
X1309380D01*
Y0204379D01*
X1308280D01*
Y0204479D01*
X1307780D01*
Y0204579D01*
X1307480D01*
Y0204679D01*
X1307180D01*
Y0204779D01*
X1306980D01*
Y0204879D01*
X1306780D01*
Y0204979D01*
X1306680D01*
Y0205079D01*
X1306480D01*
Y0205179D01*
X1306380D01*
Y0205279D01*
X1306180D01*
Y0205379D01*
X1306080D01*
Y0205479D01*
X1305980D01*
Y0205579D01*
X1305780D01*
Y0205679D01*
X1305680D01*
Y0205779D01*
X1305580D01*
Y0205879D01*
X1305480D01*
Y0205979D01*
X1305380D01*
Y0206079D01*
X1305280D01*
Y0206179D01*
X1305180D01*
Y0206279D01*
X1305080D01*
Y0206379D01*
Y0206479D01*
X1304980D01*
Y0206579D01*
X1304880D01*
Y0206679D01*
X1304780D01*
Y0206779D01*
X1304680D01*
Y0206879D01*
Y0206979D01*
X1304580D01*
Y0207079D01*
X1304480D01*
Y0207179D01*
Y0207279D01*
X1304380D01*
Y0207379D01*
Y0207479D01*
X1304280D01*
Y0207579D01*
X1304180D01*
Y0207679D01*
Y0207779D01*
X1304080D01*
Y0207879D01*
Y0207979D01*
X1303980D01*
Y0208079D01*
Y0208179D01*
X1303880D01*
Y0208279D01*
Y0208379D01*
X1303780D01*
Y0208479D01*
Y0208579D01*
X1303680D01*
Y0208679D01*
Y0208779D01*
X1303580D01*
Y0208879D01*
Y0208979D01*
X1303480D01*
Y0209079D01*
Y0209179D01*
X1303380D01*
Y0209279D01*
Y0209379D01*
X1303280D01*
Y0209479D01*
Y0209579D01*
X1303180D01*
Y0209679D01*
Y0209779D01*
Y0209879D01*
X1303080D01*
Y0209979D01*
Y0210079D01*
X1302980D01*
Y0210179D01*
Y0210279D01*
X1302880D01*
Y0210379D01*
Y0210479D01*
X1302780D01*
Y0210579D01*
Y0210679D01*
X1302680D01*
Y0210779D01*
Y0210879D01*
X1302580D01*
Y0210979D01*
Y0211079D01*
X1302480D01*
Y0211179D01*
Y0211279D01*
X1302380D01*
Y0211379D01*
Y0211479D01*
X1302280D01*
Y0211579D01*
Y0211679D01*
X1302180D01*
Y0211779D01*
Y0211879D01*
X1302080D01*
Y0211979D01*
X1301980D01*
Y0212079D01*
Y0212179D01*
X1301880D01*
Y0212279D01*
X1301780D01*
Y0212379D01*
X1301680D01*
Y0212479D01*
X1301580D01*
Y0212579D01*
X1301480D01*
Y0212679D01*
X1301380D01*
Y0212779D01*
X1301280D01*
Y0212879D01*
X1301080D01*
Y0212979D01*
X1300680D01*
Y0213079D01*
X1300480D01*
Y0212979D01*
X1299980D01*
Y0212879D01*
X1299780D01*
Y0212779D01*
X1299580D01*
Y0212679D01*
X1299480D01*
Y0212579D01*
X1299380D01*
Y0212479D01*
X1299280D01*
Y0212379D01*
X1299180D01*
Y0212279D01*
X1299080D01*
Y0212179D01*
X1298980D01*
Y0212079D01*
X1298880D01*
Y0211979D01*
X1298780D01*
Y0211879D01*
X1298680D01*
Y0211779D01*
X1298580D01*
Y0211679D01*
X1298480D01*
Y0211579D01*
X1298280D01*
Y0211479D01*
X1297480D01*
Y0211579D01*
X1297180D01*
Y0211679D01*
X1296980D01*
Y0211779D01*
X1296880D01*
Y0211879D01*
X1296780D01*
Y0211979D01*
X1296580D01*
Y0212079D01*
Y0212179D01*
X1296480D01*
Y0212279D01*
X1296380D01*
Y0212379D01*
X1296280D01*
Y0212479D01*
Y0212579D01*
X1296180D01*
Y0212679D01*
Y0212779D01*
X1296080D01*
Y0212879D01*
Y0212979D01*
X1295980D01*
Y0213079D01*
Y0213179D01*
X1295880D01*
Y0213279D01*
Y0213379D01*
X1295780D01*
Y0213479D01*
Y0213579D01*
X1295680D01*
Y0213679D01*
Y0213779D01*
Y0213879D01*
X1295580D01*
Y0213979D01*
Y0214079D01*
X1295480D01*
Y0214179D01*
Y0214279D01*
Y0214379D01*
X1295380D01*
Y0214479D01*
Y0214579D01*
X1295280D01*
Y0214679D01*
Y0214779D01*
Y0214879D01*
X1295180D01*
Y0214979D01*
X1295080D01*
Y0215079D01*
Y0215179D01*
X1294980D01*
Y0215279D01*
X1294880D01*
Y0215379D01*
Y0215479D01*
X1294780D01*
Y0215579D01*
X1294680D01*
Y0215679D01*
X1294580D01*
Y0215779D01*
X1294480D01*
Y0215879D01*
X1294380D01*
Y0215979D01*
X1294280D01*
Y0216079D01*
X1294180D01*
Y0216179D01*
X1294080D01*
Y0216279D01*
X1293980D01*
Y0216379D01*
X1293880D01*
Y0216479D01*
X1293680D01*
Y0216579D01*
X1293580D01*
Y0216679D01*
X1293480D01*
Y0216779D01*
X1293380D01*
Y0216879D01*
X1293280D01*
Y0216979D01*
X1293180D01*
Y0217079D01*
X1293080D01*
Y0217179D01*
X1292980D01*
Y0217279D01*
X1292880D01*
Y0217379D01*
Y0217479D01*
X1292780D01*
Y0217579D01*
X1292680D01*
Y0217679D01*
Y0217779D01*
X1292580D01*
Y0217879D01*
Y0217979D01*
X1292480D01*
Y0218079D01*
Y0218179D01*
X1292380D01*
Y0218279D01*
Y0218379D01*
X1292280D01*
Y0218479D01*
Y0218579D01*
Y0218679D01*
Y0218779D01*
X1292180D01*
Y0218879D01*
Y0218979D01*
Y0219079D01*
Y0219179D01*
Y0219279D01*
X1299080D01*
Y0219379D01*
Y0219479D01*
Y0219579D01*
Y0219679D01*
Y0219779D01*
Y0219879D01*
Y0219979D01*
Y0220079D01*
Y0220179D01*
Y0220279D01*
Y0220379D01*
Y0220479D01*
Y0220579D01*
Y0220679D01*
Y0220779D01*
Y0220879D01*
Y0220979D01*
Y0221079D01*
Y0221179D01*
Y0221279D01*
Y0221379D01*
Y0221479D01*
Y0221579D01*
Y0221679D01*
Y0221779D01*
Y0221879D01*
Y0221979D01*
Y0222079D01*
Y0222179D01*
Y0222279D01*
Y0222379D01*
Y0222479D01*
Y0222579D01*
Y0222679D01*
Y0222779D01*
Y0222879D01*
Y0222979D01*
Y0223079D01*
Y0223179D01*
Y0223279D01*
Y0223379D01*
Y0223479D01*
Y0223579D01*
Y0223679D01*
Y0223779D01*
Y0223879D01*
Y0223979D01*
Y0224079D01*
Y0224179D01*
Y0224279D01*
Y0224379D01*
Y0224479D01*
Y0224579D01*
Y0224679D01*
Y0224779D01*
Y0224879D01*
Y0224979D01*
Y0225079D01*
Y0225179D01*
Y0225279D01*
Y0225379D01*
Y0225479D01*
Y0225579D01*
Y0225679D01*
Y0225779D01*
Y0225879D01*
Y0225979D01*
Y0226079D01*
Y0226179D01*
Y0226279D01*
Y0226379D01*
Y0226479D01*
Y0226579D01*
Y0226679D01*
Y0226779D01*
Y0226879D01*
Y0226979D01*
Y0227079D01*
Y0227179D01*
Y0227279D01*
Y0227379D01*
Y0227479D01*
Y0227579D01*
Y0227679D01*
Y0227779D01*
Y0227879D01*
Y0227979D01*
Y0228079D01*
Y0228179D01*
Y0228279D01*
Y0228379D01*
Y0228479D01*
Y0228579D01*
X1304880D01*
Y0228479D01*
D02*
G37*
G36*
X1366380Y0209479D02*
Y0209379D01*
Y0209279D01*
X1366080D01*
Y0209179D01*
X1365980D01*
Y0209079D01*
X1365880D01*
Y0208979D01*
X1365780D01*
Y0208879D01*
Y0208779D01*
X1365680D01*
Y0208679D01*
Y0208579D01*
Y0208479D01*
Y0208379D01*
Y0208279D01*
Y0208179D01*
Y0208079D01*
Y0207979D01*
Y0207879D01*
Y0207779D01*
Y0207679D01*
Y0207579D01*
Y0207479D01*
Y0207379D01*
Y0207279D01*
Y0207179D01*
Y0207079D01*
Y0206979D01*
Y0206879D01*
Y0206779D01*
Y0206679D01*
Y0206579D01*
Y0206479D01*
Y0206379D01*
Y0206279D01*
Y0206179D01*
Y0206079D01*
Y0205979D01*
Y0205879D01*
Y0205779D01*
Y0205679D01*
Y0205579D01*
Y0205479D01*
Y0205379D01*
Y0205279D01*
Y0205179D01*
Y0205079D01*
Y0204979D01*
Y0204879D01*
Y0204779D01*
Y0204679D01*
Y0204579D01*
Y0204479D01*
Y0204379D01*
Y0204279D01*
Y0204179D01*
Y0204079D01*
Y0203979D01*
Y0203879D01*
Y0203779D01*
X1365580D01*
Y0203679D01*
Y0203579D01*
Y0203479D01*
Y0203379D01*
Y0203279D01*
X1365480D01*
Y0203179D01*
Y0203079D01*
X1365380D01*
Y0202979D01*
Y0202879D01*
X1365280D01*
Y0202779D01*
Y0202679D01*
X1365180D01*
Y0202579D01*
X1365080D01*
Y0202479D01*
Y0202379D01*
X1364980D01*
Y0202279D01*
X1364880D01*
Y0202179D01*
X1364680D01*
Y0202079D01*
X1364580D01*
Y0201979D01*
X1364380D01*
Y0201879D01*
X1364080D01*
Y0201779D01*
X1363780D01*
Y0201679D01*
X1363180D01*
Y0201579D01*
X1361580D01*
Y0201679D01*
X1360980D01*
Y0201779D01*
X1360680D01*
Y0201879D01*
X1360380D01*
Y0201979D01*
X1360180D01*
Y0202079D01*
X1359980D01*
Y0202179D01*
X1359880D01*
Y0202279D01*
X1359680D01*
Y0202379D01*
X1359580D01*
Y0202479D01*
X1359480D01*
Y0202579D01*
X1359380D01*
Y0202679D01*
X1359280D01*
Y0202779D01*
Y0202879D01*
X1359180D01*
Y0202979D01*
X1359080D01*
Y0203079D01*
Y0203179D01*
X1358980D01*
Y0203279D01*
Y0203379D01*
Y0203479D01*
X1358880D01*
Y0203579D01*
Y0203679D01*
Y0203779D01*
Y0203879D01*
Y0203979D01*
Y0204079D01*
Y0204179D01*
Y0204279D01*
Y0204379D01*
Y0204479D01*
Y0204579D01*
Y0204679D01*
Y0204779D01*
Y0204879D01*
Y0204979D01*
Y0205079D01*
Y0205179D01*
Y0205279D01*
Y0205379D01*
Y0205479D01*
Y0205579D01*
Y0205679D01*
Y0205779D01*
Y0205879D01*
Y0205979D01*
Y0206079D01*
Y0206179D01*
Y0206279D01*
Y0206379D01*
Y0206479D01*
Y0206579D01*
Y0206679D01*
Y0206779D01*
Y0206879D01*
Y0206979D01*
Y0207079D01*
Y0207179D01*
Y0207279D01*
Y0207379D01*
Y0207479D01*
Y0207579D01*
Y0207679D01*
Y0207779D01*
Y0207879D01*
Y0207979D01*
Y0208079D01*
Y0208179D01*
Y0208279D01*
Y0208379D01*
Y0208479D01*
Y0208579D01*
X1358780D01*
Y0208679D01*
Y0208779D01*
Y0208879D01*
X1358680D01*
Y0208979D01*
Y0209079D01*
X1358580D01*
Y0209179D01*
X1358380D01*
Y0209279D01*
X1358080D01*
Y0209379D01*
Y0209479D01*
Y0209579D01*
X1361280D01*
Y0209479D01*
Y0209379D01*
Y0209279D01*
X1360980D01*
Y0209179D01*
X1360780D01*
Y0209079D01*
X1360680D01*
Y0208979D01*
Y0208879D01*
X1360580D01*
Y0208779D01*
Y0208679D01*
Y0208579D01*
Y0208479D01*
X1360480D01*
Y0208379D01*
Y0208279D01*
Y0208179D01*
Y0208079D01*
Y0207979D01*
Y0207879D01*
Y0207779D01*
Y0207679D01*
Y0207579D01*
Y0207479D01*
Y0207379D01*
Y0207279D01*
Y0207179D01*
Y0207079D01*
Y0206979D01*
Y0206879D01*
Y0206779D01*
Y0206679D01*
Y0206579D01*
Y0206479D01*
Y0206379D01*
Y0206279D01*
Y0206179D01*
Y0206079D01*
Y0205979D01*
Y0205879D01*
Y0205779D01*
Y0205679D01*
Y0205579D01*
Y0205479D01*
Y0205379D01*
Y0205279D01*
Y0205179D01*
Y0205079D01*
Y0204979D01*
Y0204879D01*
Y0204779D01*
Y0204679D01*
Y0204579D01*
Y0204479D01*
Y0204379D01*
Y0204279D01*
Y0204179D01*
X1360580D01*
Y0204079D01*
Y0203979D01*
Y0203879D01*
Y0203779D01*
Y0203679D01*
X1360680D01*
Y0203579D01*
Y0203479D01*
Y0203379D01*
X1360780D01*
Y0203279D01*
Y0203179D01*
X1360880D01*
Y0203079D01*
X1360980D01*
Y0202979D01*
X1361080D01*
Y0202879D01*
X1361280D01*
Y0202779D01*
X1361480D01*
Y0202679D01*
X1361880D01*
Y0202579D01*
X1363280D01*
Y0202679D01*
X1363680D01*
Y0202779D01*
X1363880D01*
Y0202879D01*
X1363980D01*
Y0202979D01*
X1364080D01*
Y0203079D01*
X1364180D01*
Y0203179D01*
X1364280D01*
Y0203279D01*
X1364380D01*
Y0203379D01*
Y0203479D01*
Y0203579D01*
X1364480D01*
Y0203679D01*
Y0203779D01*
Y0203879D01*
Y0203979D01*
X1364580D01*
Y0204079D01*
Y0204179D01*
Y0204279D01*
Y0204379D01*
Y0204479D01*
Y0204579D01*
Y0204679D01*
Y0204779D01*
Y0204879D01*
Y0204979D01*
Y0205079D01*
Y0205179D01*
Y0205279D01*
Y0205379D01*
Y0205479D01*
Y0205579D01*
Y0205679D01*
Y0205779D01*
Y0205879D01*
Y0205979D01*
Y0206079D01*
Y0206179D01*
Y0206279D01*
Y0206379D01*
Y0206479D01*
Y0206579D01*
Y0206679D01*
Y0206779D01*
Y0206879D01*
Y0206979D01*
Y0207079D01*
Y0207179D01*
Y0207279D01*
Y0207379D01*
Y0207479D01*
Y0207579D01*
Y0207679D01*
Y0207779D01*
Y0207879D01*
Y0207979D01*
Y0208079D01*
Y0208179D01*
Y0208279D01*
Y0208379D01*
Y0208479D01*
Y0208579D01*
X1364480D01*
Y0208679D01*
Y0208779D01*
Y0208879D01*
X1364380D01*
Y0208979D01*
Y0209079D01*
X1364280D01*
Y0209179D01*
X1364080D01*
Y0209279D01*
X1363780D01*
Y0209379D01*
Y0209479D01*
Y0209579D01*
X1366380D01*
Y0209479D01*
D02*
G37*
G36*
X1327280Y0211879D02*
Y0211779D01*
X1327180D01*
Y0211679D01*
X1326880D01*
Y0211579D01*
X1326680D01*
Y0211479D01*
X1326580D01*
Y0211379D01*
X1326480D01*
Y0211279D01*
Y0211179D01*
Y0211079D01*
X1326380D01*
Y0210979D01*
Y0210879D01*
Y0210779D01*
Y0210679D01*
Y0210579D01*
Y0210479D01*
Y0210379D01*
Y0210279D01*
Y0210179D01*
Y0210079D01*
Y0209979D01*
Y0209879D01*
Y0209779D01*
Y0209679D01*
Y0209579D01*
Y0209479D01*
Y0209379D01*
Y0209279D01*
Y0209179D01*
Y0209079D01*
Y0208979D01*
Y0208879D01*
Y0208779D01*
Y0208679D01*
Y0208579D01*
Y0208479D01*
Y0208379D01*
Y0208279D01*
Y0208179D01*
Y0208079D01*
Y0207979D01*
Y0207879D01*
Y0207779D01*
Y0207679D01*
Y0207579D01*
Y0207479D01*
Y0207379D01*
Y0207279D01*
Y0207179D01*
Y0207079D01*
Y0206979D01*
Y0206879D01*
Y0206779D01*
Y0206679D01*
Y0206579D01*
Y0206479D01*
Y0206379D01*
Y0206279D01*
Y0206179D01*
Y0206079D01*
Y0205979D01*
Y0205879D01*
Y0205779D01*
Y0205679D01*
Y0205579D01*
Y0205479D01*
Y0205379D01*
Y0205279D01*
Y0205179D01*
Y0205079D01*
Y0204979D01*
Y0204879D01*
Y0204779D01*
Y0204679D01*
Y0204579D01*
Y0204479D01*
Y0204379D01*
Y0204279D01*
Y0204179D01*
Y0204079D01*
Y0203979D01*
Y0203879D01*
Y0203779D01*
Y0203679D01*
Y0203579D01*
Y0203479D01*
Y0203379D01*
Y0203279D01*
Y0203179D01*
Y0203079D01*
Y0202979D01*
Y0202879D01*
Y0202779D01*
Y0202679D01*
X1326480D01*
Y0202579D01*
Y0202479D01*
Y0202379D01*
X1326580D01*
Y0202279D01*
X1326680D01*
Y0202179D01*
X1326880D01*
Y0202079D01*
X1327180D01*
Y0201979D01*
X1327280D01*
Y0201879D01*
Y0201779D01*
Y0201679D01*
X1323680D01*
Y0201779D01*
Y0201879D01*
Y0201979D01*
X1323780D01*
Y0202079D01*
X1324080D01*
Y0202179D01*
X1324280D01*
Y0202279D01*
X1324380D01*
Y0202379D01*
Y0202479D01*
X1324480D01*
Y0202579D01*
Y0202679D01*
Y0202779D01*
X1324580D01*
Y0202879D01*
Y0202979D01*
Y0203079D01*
Y0203179D01*
Y0203279D01*
Y0203379D01*
Y0203479D01*
Y0203579D01*
Y0203679D01*
Y0203779D01*
Y0203879D01*
Y0203979D01*
Y0204079D01*
Y0204179D01*
Y0204279D01*
Y0204379D01*
Y0204479D01*
Y0204579D01*
Y0204679D01*
Y0204779D01*
Y0204879D01*
Y0204979D01*
Y0205079D01*
Y0205179D01*
Y0205279D01*
Y0205379D01*
Y0205479D01*
Y0205579D01*
Y0205679D01*
Y0205779D01*
Y0205879D01*
Y0205979D01*
Y0206079D01*
Y0206179D01*
Y0206279D01*
Y0206379D01*
Y0206479D01*
Y0206579D01*
Y0206679D01*
Y0206779D01*
Y0206879D01*
Y0206979D01*
Y0207079D01*
Y0207179D01*
Y0207279D01*
Y0207379D01*
Y0207479D01*
Y0207579D01*
Y0207679D01*
Y0207779D01*
Y0207879D01*
Y0207979D01*
Y0208079D01*
Y0208179D01*
Y0208279D01*
Y0208379D01*
Y0208479D01*
Y0208579D01*
Y0208679D01*
Y0208779D01*
Y0208879D01*
Y0208979D01*
Y0209079D01*
Y0209179D01*
Y0209279D01*
Y0209379D01*
Y0209479D01*
Y0209579D01*
Y0209679D01*
Y0209779D01*
Y0209879D01*
Y0209979D01*
Y0210079D01*
Y0210179D01*
Y0210279D01*
Y0210379D01*
Y0210479D01*
Y0210579D01*
Y0210679D01*
Y0210779D01*
Y0210879D01*
Y0210979D01*
X1324480D01*
Y0211079D01*
Y0211179D01*
Y0211279D01*
X1324380D01*
Y0211379D01*
Y0211479D01*
X1324180D01*
Y0211579D01*
X1324080D01*
Y0211679D01*
X1323780D01*
Y0211779D01*
X1323680D01*
Y0211879D01*
Y0211979D01*
X1327280D01*
Y0211879D01*
D02*
G37*
G36*
X1355180Y0209479D02*
X1355680D01*
Y0209379D01*
X1356080D01*
Y0209279D01*
X1356280D01*
Y0209179D01*
X1356480D01*
Y0209079D01*
X1356580D01*
Y0208979D01*
X1356780D01*
Y0208879D01*
X1356880D01*
Y0208779D01*
X1356980D01*
Y0208679D01*
X1357080D01*
Y0208579D01*
Y0208479D01*
X1357180D01*
Y0208379D01*
Y0208279D01*
X1357280D01*
Y0208179D01*
Y0208079D01*
Y0207979D01*
X1357380D01*
Y0207879D01*
Y0207779D01*
Y0207679D01*
Y0207579D01*
Y0207479D01*
Y0207379D01*
Y0207279D01*
Y0207179D01*
Y0207079D01*
Y0206979D01*
Y0206879D01*
X1357280D01*
Y0206779D01*
Y0206679D01*
Y0206579D01*
X1357180D01*
Y0206479D01*
Y0206379D01*
X1357080D01*
Y0206279D01*
Y0206179D01*
X1356980D01*
Y0206079D01*
X1356880D01*
Y0205979D01*
X1356780D01*
Y0205879D01*
X1356580D01*
Y0205779D01*
X1356480D01*
Y0205679D01*
X1356280D01*
Y0205579D01*
X1356080D01*
Y0205479D01*
X1355780D01*
Y0205379D01*
X1355380D01*
Y0205279D01*
X1355580D01*
Y0205179D01*
X1355780D01*
Y0205079D01*
X1355980D01*
Y0204979D01*
X1356080D01*
Y0204879D01*
X1356180D01*
Y0204779D01*
X1356280D01*
Y0204679D01*
X1356380D01*
Y0204579D01*
X1356480D01*
Y0204479D01*
X1356580D01*
Y0204379D01*
X1356680D01*
Y0204279D01*
Y0204179D01*
X1356780D01*
Y0204079D01*
X1356880D01*
Y0203979D01*
Y0203879D01*
X1356980D01*
Y0203779D01*
Y0203679D01*
X1357080D01*
Y0203579D01*
X1357180D01*
Y0203479D01*
Y0203379D01*
X1357280D01*
Y0203279D01*
Y0203179D01*
X1357380D01*
Y0203079D01*
X1357480D01*
Y0202979D01*
Y0202879D01*
X1357580D01*
Y0202779D01*
X1357680D01*
Y0202679D01*
X1357780D01*
Y0202579D01*
X1357880D01*
Y0202479D01*
X1357980D01*
Y0202379D01*
X1358080D01*
Y0202279D01*
X1358280D01*
Y0202179D01*
X1358580D01*
Y0202079D01*
X1358780D01*
Y0201979D01*
Y0201879D01*
Y0201779D01*
X1358580D01*
Y0201679D01*
X1358280D01*
Y0201579D01*
X1357080D01*
Y0201679D01*
X1356680D01*
Y0201779D01*
X1356480D01*
Y0201879D01*
X1356280D01*
Y0201979D01*
X1356080D01*
Y0202079D01*
X1355980D01*
Y0202179D01*
X1355880D01*
Y0202279D01*
X1355780D01*
Y0202379D01*
X1355680D01*
Y0202479D01*
X1355580D01*
Y0202579D01*
Y0202679D01*
X1355480D01*
Y0202779D01*
X1355380D01*
Y0202879D01*
Y0202979D01*
X1355280D01*
Y0203079D01*
Y0203179D01*
X1355180D01*
Y0203279D01*
Y0203379D01*
X1355080D01*
Y0203479D01*
Y0203579D01*
X1354980D01*
Y0203679D01*
Y0203779D01*
X1354880D01*
Y0203879D01*
Y0203979D01*
X1354780D01*
Y0204079D01*
Y0204179D01*
X1354680D01*
Y0204279D01*
Y0204379D01*
X1354580D01*
Y0204479D01*
X1354480D01*
Y0204579D01*
X1354380D01*
Y0204679D01*
X1354280D01*
Y0204779D01*
X1354180D01*
Y0204879D01*
X1353880D01*
Y0204979D01*
X1352680D01*
Y0204879D01*
Y0204779D01*
Y0204679D01*
Y0204579D01*
Y0204479D01*
Y0204379D01*
Y0204279D01*
Y0204179D01*
Y0204079D01*
Y0203979D01*
Y0203879D01*
Y0203779D01*
Y0203679D01*
Y0203579D01*
Y0203479D01*
Y0203379D01*
Y0203279D01*
Y0203179D01*
Y0203079D01*
Y0202979D01*
Y0202879D01*
Y0202779D01*
Y0202679D01*
Y0202579D01*
X1352780D01*
Y0202479D01*
Y0202379D01*
Y0202279D01*
X1352880D01*
Y0202179D01*
X1353080D01*
Y0202079D01*
X1353380D01*
Y0201979D01*
X1353480D01*
Y0201879D01*
Y0201779D01*
Y0201679D01*
X1350180D01*
Y0201779D01*
Y0201879D01*
Y0201979D01*
X1350280D01*
Y0202079D01*
X1350580D01*
Y0202179D01*
X1350680D01*
Y0202279D01*
X1350780D01*
Y0202379D01*
Y0202479D01*
X1350880D01*
Y0202579D01*
Y0202679D01*
Y0202779D01*
Y0202879D01*
Y0202979D01*
Y0203079D01*
Y0203179D01*
Y0203279D01*
Y0203379D01*
Y0203479D01*
Y0203579D01*
Y0203679D01*
Y0203779D01*
Y0203879D01*
Y0203979D01*
Y0204079D01*
Y0204179D01*
Y0204279D01*
Y0204379D01*
Y0204479D01*
Y0204579D01*
Y0204679D01*
Y0204779D01*
Y0204879D01*
Y0204979D01*
Y0205079D01*
Y0205179D01*
Y0205279D01*
Y0205379D01*
Y0205479D01*
Y0205579D01*
Y0205679D01*
Y0205779D01*
Y0205879D01*
Y0205979D01*
Y0206079D01*
Y0206179D01*
Y0206279D01*
Y0206379D01*
Y0206479D01*
Y0206579D01*
Y0206679D01*
Y0206779D01*
Y0206879D01*
Y0206979D01*
Y0207079D01*
Y0207179D01*
Y0207279D01*
Y0207379D01*
Y0207479D01*
Y0207579D01*
Y0207679D01*
Y0207779D01*
Y0207879D01*
Y0207979D01*
Y0208079D01*
Y0208179D01*
Y0208279D01*
Y0208379D01*
Y0208479D01*
Y0208579D01*
Y0208679D01*
Y0208779D01*
Y0208879D01*
X1350780D01*
Y0208979D01*
X1350680D01*
Y0209079D01*
X1350580D01*
Y0209179D01*
X1350380D01*
Y0209279D01*
X1350180D01*
Y0209379D01*
Y0209479D01*
Y0209579D01*
X1355180D01*
Y0209479D01*
D02*
G37*
%LPC*%
G36*
X1346980Y0220079D02*
X1346880D01*
Y0219979D01*
Y0219879D01*
Y0219779D01*
X1346780D01*
Y0219679D01*
Y0219579D01*
X1346680D01*
Y0219479D01*
Y0219379D01*
Y0219279D01*
X1346580D01*
Y0219179D01*
Y0219079D01*
Y0218979D01*
X1346480D01*
Y0218879D01*
Y0218779D01*
X1346380D01*
Y0218679D01*
Y0218579D01*
Y0218479D01*
X1346280D01*
Y0218379D01*
Y0218279D01*
Y0218179D01*
X1346180D01*
Y0218079D01*
Y0217979D01*
X1346080D01*
Y0217879D01*
Y0217779D01*
Y0217679D01*
X1345980D01*
Y0217579D01*
Y0217479D01*
X1345880D01*
Y0217379D01*
Y0217279D01*
Y0217179D01*
X1345780D01*
Y0217079D01*
Y0216979D01*
Y0216879D01*
X1345680D01*
Y0216779D01*
X1348180D01*
Y0216879D01*
Y0216979D01*
X1348080D01*
Y0217079D01*
Y0217179D01*
Y0217279D01*
X1347980D01*
Y0217379D01*
Y0217479D01*
X1347880D01*
Y0217579D01*
Y0217679D01*
Y0217779D01*
X1347780D01*
Y0217879D01*
Y0217979D01*
Y0218079D01*
X1347680D01*
Y0218179D01*
Y0218279D01*
X1347580D01*
Y0218379D01*
Y0218479D01*
Y0218579D01*
X1347480D01*
Y0218679D01*
Y0218779D01*
Y0218879D01*
X1347380D01*
Y0218979D01*
Y0219079D01*
Y0219179D01*
X1347280D01*
Y0219279D01*
Y0219379D01*
X1347180D01*
Y0219479D01*
Y0219579D01*
Y0219679D01*
X1347080D01*
Y0219779D01*
Y0219879D01*
Y0219979D01*
X1346980D01*
Y0220079D01*
D02*
G37*
G36*
X1354680Y0208579D02*
X1352780D01*
Y0208479D01*
Y0208379D01*
X1352680D01*
Y0208279D01*
Y0208179D01*
Y0208079D01*
Y0207979D01*
Y0207879D01*
Y0207779D01*
Y0207679D01*
Y0207579D01*
Y0207479D01*
Y0207379D01*
Y0207279D01*
Y0207179D01*
Y0207079D01*
Y0206979D01*
Y0206879D01*
Y0206779D01*
Y0206679D01*
Y0206579D01*
Y0206479D01*
Y0206379D01*
Y0206279D01*
Y0206179D01*
Y0206079D01*
Y0205979D01*
Y0205879D01*
X1354380D01*
Y0205979D01*
X1354680D01*
Y0206079D01*
X1354880D01*
Y0206179D01*
X1355080D01*
Y0206279D01*
X1355180D01*
Y0206379D01*
X1355280D01*
Y0206479D01*
Y0206579D01*
X1355380D01*
Y0206679D01*
Y0206779D01*
X1355480D01*
Y0206879D01*
Y0206979D01*
Y0207079D01*
Y0207179D01*
Y0207279D01*
X1355580D01*
Y0207379D01*
Y0207479D01*
X1355480D01*
Y0207579D01*
Y0207679D01*
Y0207779D01*
Y0207879D01*
X1355380D01*
Y0207979D01*
Y0208079D01*
X1355280D01*
Y0208179D01*
X1355180D01*
Y0208279D01*
X1355080D01*
Y0208379D01*
X1354980D01*
Y0208479D01*
X1354680D01*
Y0208579D01*
D02*
G37*
%LPD*%
G54D14*
X1363695Y0047371D02*
X1359030D01*
X1363695Y0052036D01*
Y0053203D01*
X1362529Y0054369D01*
X1360196D01*
X1359030Y0053203D01*
X1366027D02*
X1367194Y0054369D01*
X1369526D01*
X1370693Y0053203D01*
Y0052036D01*
X1369526Y0050870D01*
X1368360D01*
X1369526D01*
X1370693Y0049704D01*
Y0048537D01*
X1369526Y0047371D01*
X1367194D01*
X1366027Y0048537D01*
X1373025Y0047371D02*
Y0048537D01*
X1374191D01*
Y0047371D01*
X1373025D01*
X1378857D02*
X1381189D01*
X1380023D01*
Y0054369D01*
X1378857Y0053203D01*
X1384688Y0047371D02*
Y0048537D01*
X1385854D01*
Y0047371D01*
X1384688D01*
X1390520D02*
X1392852D01*
X1391686D01*
Y0054369D01*
X1390520Y0053203D01*
X1396351Y0047371D02*
Y0048537D01*
X1397517D01*
Y0047371D01*
X1396351D01*
X1402182D02*
X1404515D01*
X1403349D01*
Y0054369D01*
X1402182Y0053203D01*
X1412679Y0054369D02*
X1408014D01*
Y0050870D01*
X1410346Y0052036D01*
X1411513D01*
X1412679Y0050870D01*
Y0048537D01*
X1411513Y0047371D01*
X1409180D01*
X1408014Y0048537D01*
X1208480Y0136704D02*
Y0143702D01*
X1211979D01*
X1213145Y0142535D01*
Y0140203D01*
X1211979Y0139037D01*
X1208480D01*
X1215477Y0141369D02*
Y0137870D01*
X1216644Y0136704D01*
X1220142D01*
Y0141369D01*
X1222475Y0143702D02*
Y0136704D01*
X1225974D01*
X1227140Y0137870D01*
Y0139037D01*
Y0140203D01*
X1225974Y0141369D01*
X1222475D01*
X1229473Y0136704D02*
X1231805D01*
X1230639D01*
Y0143702D01*
X1229473D01*
X1235304Y0136704D02*
X1237637D01*
X1236471D01*
Y0141369D01*
X1235304D01*
X1245801D02*
X1242302D01*
X1241136Y0140203D01*
Y0137870D01*
X1242302Y0136704D01*
X1245801D01*
X1255131D02*
Y0143702D01*
X1258630D01*
X1259796Y0142535D01*
Y0140203D01*
X1258630Y0139037D01*
X1255131D01*
X1257464D02*
X1259796Y0136704D01*
X1265628D02*
X1263295D01*
X1262129Y0137870D01*
Y0140203D01*
X1263295Y0141369D01*
X1265628D01*
X1266794Y0140203D01*
Y0139037D01*
X1262129D01*
X1269127Y0136704D02*
X1271459D01*
X1270293D01*
Y0143702D01*
X1269127D01*
X1278457Y0136704D02*
X1276124D01*
X1274958Y0137870D01*
Y0140203D01*
X1276124Y0141369D01*
X1278457D01*
X1279623Y0140203D01*
Y0139037D01*
X1274958D01*
X1283122Y0141369D02*
X1285455D01*
X1286621Y0140203D01*
Y0136704D01*
X1283122D01*
X1281956Y0137870D01*
X1283122Y0139037D01*
X1286621D01*
X1288954Y0136704D02*
X1292453D01*
X1293619Y0137870D01*
X1292453Y0139037D01*
X1290120D01*
X1288954Y0140203D01*
X1290120Y0141369D01*
X1293619D01*
X1299450Y0136704D02*
X1297118D01*
X1295951Y0137870D01*
Y0140203D01*
X1297118Y0141369D01*
X1299450D01*
X1300616Y0140203D01*
Y0139037D01*
X1295951D01*
X1208480Y0076205D02*
Y0083202D01*
X1211979D01*
X1213145Y0082036D01*
Y0079704D01*
X1211979Y0078537D01*
X1208480D01*
X1218976Y0076205D02*
X1216644D01*
X1215477Y0077371D01*
Y0079704D01*
X1216644Y0080870D01*
X1218976D01*
X1220142Y0079704D01*
Y0078537D01*
X1215477D01*
X1223641Y0082036D02*
Y0080870D01*
X1222475D01*
X1224808D01*
X1223641D01*
Y0077371D01*
X1224808Y0076205D01*
X1231805D02*
X1229473D01*
X1228307Y0077371D01*
Y0079704D01*
X1229473Y0080870D01*
X1231805D01*
X1232972Y0079704D01*
Y0078537D01*
X1228307D01*
X1235304Y0080870D02*
Y0076205D01*
Y0078537D01*
X1236471Y0079704D01*
X1237637Y0080870D01*
X1238803D01*
X1249300Y0083202D02*
Y0076205D01*
X1253965D01*
X1256297Y0080870D02*
Y0077371D01*
X1257464Y0076205D01*
X1260963D01*
Y0080870D01*
X1264462Y0076205D02*
X1266794D01*
X1267960Y0077371D01*
Y0079704D01*
X1266794Y0080870D01*
X1264462D01*
X1263295Y0079704D01*
Y0077371D01*
X1264462Y0076205D01*
X1270293D02*
Y0080870D01*
X1273792D01*
X1274958Y0079704D01*
Y0076205D01*
X1279623Y0073872D02*
X1280790D01*
X1281956Y0075038D01*
Y0080870D01*
X1278457D01*
X1277291Y0079704D01*
Y0077371D01*
X1278457Y0076205D01*
X1281956D01*
X1208480Y0108704D02*
Y0115702D01*
X1210812Y0113369D01*
X1213145Y0115702D01*
Y0108704D01*
X1220142Y0114535D02*
X1218976Y0115702D01*
X1216644D01*
X1215477Y0114535D01*
Y0109870D01*
X1216644Y0108704D01*
X1218976D01*
X1220142Y0109870D01*
X1222475Y0115702D02*
Y0109870D01*
X1223641Y0108704D01*
X1225974D01*
X1227140Y0109870D01*
Y0115702D01*
X1229473Y0108704D02*
X1231805D01*
X1230639D01*
Y0115702D01*
X1229473Y0114535D01*
X1239970Y0115702D02*
X1235304D01*
Y0112203D01*
X1237637Y0113369D01*
X1238803D01*
X1239970Y0112203D01*
Y0109870D01*
X1238803Y0108704D01*
X1236471D01*
X1235304Y0109870D01*
X1246967Y0108704D02*
X1242302D01*
X1246967Y0113369D01*
Y0114535D01*
X1245801Y0115702D01*
X1243468D01*
X1242302Y0114535D01*
X1249300Y0108704D02*
Y0113369D01*
X1251632Y0115702D01*
X1253965Y0113369D01*
Y0108704D01*
Y0112203D01*
X1249300D01*
X1256297Y0108704D02*
Y0109870D01*
X1257464D01*
Y0108704D01*
X1256297D01*
X1262129D02*
Y0115702D01*
X1265628D01*
X1266794Y0114535D01*
Y0112203D01*
X1265628Y0111037D01*
X1262129D01*
X1273792Y0113369D02*
X1270293D01*
X1269127Y0112203D01*
Y0109870D01*
X1270293Y0108704D01*
X1273792D01*
X1276124Y0115702D02*
Y0108704D01*
X1279623D01*
X1280790Y0109870D01*
Y0111037D01*
Y0112203D01*
X1279623Y0113369D01*
X1276124D01*
X1283122Y0115702D02*
Y0108704D01*
X1286621D01*
X1287787Y0109870D01*
Y0114535D01*
X1286621Y0115702D01*
X1283122D01*
X1291286Y0108704D02*
X1293619D01*
X1294785Y0109870D01*
Y0112203D01*
X1293619Y0113369D01*
X1291286D01*
X1290120Y0112203D01*
Y0109870D01*
X1291286Y0108704D01*
X1301783Y0113369D02*
X1298284D01*
X1297118Y0112203D01*
Y0109870D01*
X1298284Y0108704D01*
X1301783D01*
X1208480Y0174469D02*
Y0167471D01*
X1213145D01*
X1215477D02*
Y0172136D01*
X1217810Y0174469D01*
X1220142Y0172136D01*
Y0167471D01*
Y0170970D01*
X1215477D01*
X1222475Y0174469D02*
Y0168638D01*
X1223641Y0167471D01*
X1225974D01*
X1227140Y0168638D01*
Y0174469D01*
X1229473Y0167471D02*
Y0174469D01*
X1234138Y0167471D01*
Y0174469D01*
X1241136Y0173303D02*
X1239970Y0174469D01*
X1237637D01*
X1236471Y0173303D01*
Y0168638D01*
X1237637Y0167471D01*
X1239970D01*
X1241136Y0168638D01*
X1243468Y0174469D02*
Y0167471D01*
Y0170970D01*
X1248133D01*
Y0174469D01*
Y0167471D01*
X1250466Y0174469D02*
X1255131Y0167471D01*
Y0174469D02*
X1250466Y0167471D01*
X1257464Y0174469D02*
Y0167471D01*
X1262129D01*
X1264462Y0170970D02*
X1269127D01*
X1276124Y0174469D02*
X1271459D01*
Y0170970D01*
X1273792D01*
X1271459D01*
Y0167471D01*
X1283122D02*
X1278457D01*
X1283122Y0172136D01*
Y0173303D01*
X1281956Y0174469D01*
X1279623D01*
X1278457Y0173303D01*
X1285455D02*
X1286621Y0174469D01*
X1288954D01*
X1290120Y0173303D01*
Y0172136D01*
X1288954Y0170970D01*
X1290120Y0169804D01*
Y0168638D01*
X1288954Y0167471D01*
X1286621D01*
X1285455Y0168638D01*
Y0169804D01*
X1286621Y0170970D01*
X1285455Y0172136D01*
Y0173303D01*
X1286621Y0170970D02*
X1288954D01*
X1297118Y0174469D02*
X1292453D01*
Y0167471D01*
X1297118D01*
X1292453Y0170970D02*
X1294785D01*
X1299450Y0167471D02*
X1301783D01*
X1300616D01*
Y0174469D01*
X1299450Y0173303D01*
X1309947Y0167471D02*
X1305282D01*
X1309947Y0172136D01*
Y0173303D01*
X1308781Y0174469D01*
X1306448D01*
X1305282Y0173303D01*
X1312279Y0174469D02*
X1316945Y0167471D01*
Y0174469D02*
X1312279Y0167471D01*
X1360196Y0080870D02*
X1362529D01*
X1363695Y0079704D01*
Y0076205D01*
X1360196D01*
X1359030Y0077371D01*
X1360196Y0078537D01*
X1363695D01*
X1366027Y0082036D02*
X1367194Y0083202D01*
X1369526D01*
X1370693Y0082036D01*
Y0077371D01*
X1369526Y0076205D01*
X1367194D01*
X1366027Y0077371D01*
Y0082036D01*
X1376524Y0076205D02*
Y0083202D01*
X1373025Y0079704D01*
X1377690D01*
X1380023Y0082036D02*
X1381189Y0083202D01*
X1383522D01*
X1384688Y0082036D01*
Y0080870D01*
X1383522Y0079704D01*
X1384688Y0078537D01*
Y0077371D01*
X1383522Y0076205D01*
X1381189D01*
X1380023Y0077371D01*
Y0078537D01*
X1381189Y0079704D01*
X1380023Y0080870D01*
Y0082036D01*
X1381189Y0079704D02*
X1383522D01*
X1387021Y0082036D02*
X1388187Y0083202D01*
X1390520D01*
X1391686Y0082036D01*
Y0080870D01*
X1390520Y0079704D01*
X1391686Y0078537D01*
Y0077371D01*
X1390520Y0076205D01*
X1388187D01*
X1387021Y0077371D01*
Y0078537D01*
X1388187Y0079704D01*
X1387021Y0080870D01*
Y0082036D01*
X1388187Y0079704D02*
X1390520D01*
X1398683Y0076205D02*
X1394018D01*
X1398683Y0080870D01*
Y0082036D01*
X1397517Y0083202D01*
X1395185D01*
X1394018Y0082036D01*
X1401016Y0077371D02*
X1402182Y0076205D01*
X1404515D01*
X1405681Y0077371D01*
Y0082036D01*
X1404515Y0083202D01*
X1402182D01*
X1401016Y0082036D01*
Y0080870D01*
X1402182Y0079704D01*
X1405681D01*
X1408014Y0082036D02*
X1409180Y0083202D01*
X1411513D01*
X1412679Y0082036D01*
Y0080870D01*
X1411513Y0079704D01*
X1412679Y0078537D01*
Y0077371D01*
X1411513Y0076205D01*
X1409180D01*
X1408014Y0077371D01*
Y0078537D01*
X1409180Y0079704D01*
X1408014Y0080870D01*
Y0082036D01*
X1409180Y0079704D02*
X1411513D01*
X0706530Y0097019D02*
X0709529D01*
X0708029D01*
Y0092520D01*
X0713277D02*
X0711778D01*
X0711028Y0093270D01*
Y0094769D01*
X0711778Y0095519D01*
X0713277D01*
X0714027Y0094769D01*
Y0094020D01*
X0711028D01*
X0715527Y0095519D02*
X0718526Y0092520D01*
X0717026Y0094020D01*
X0718526Y0095519D01*
X0715527Y0092520D01*
X0720775Y0095519D02*
X0722275D01*
X0723024Y0094769D01*
Y0092520D01*
X0720775D01*
X0720025Y0093270D01*
X0720775Y0094020D01*
X0723024D01*
X0724524Y0092520D02*
X0726773D01*
X0727523Y0093270D01*
X0726773Y0094020D01*
X0725274D01*
X0724524Y0094769D01*
X0725274Y0095519D01*
X0727523D01*
X0733521Y0097019D02*
X0735020D01*
X0734271D01*
Y0092520D01*
X0733521D01*
X0735020D01*
X0737270D02*
Y0095519D01*
X0739519D01*
X0740269Y0094769D01*
Y0092520D01*
X0741768D02*
X0744018D01*
X0744767Y0093270D01*
X0744018Y0094020D01*
X0742518D01*
X0741768Y0094769D01*
X0742518Y0095519D01*
X0744767D01*
X0747017Y0096269D02*
Y0095519D01*
X0746267D01*
X0747766D01*
X0747017D01*
Y0093270D01*
X0747766Y0092520D01*
X0750016Y0095519D02*
Y0092520D01*
Y0094020D01*
X0750765Y0094769D01*
X0751515Y0095519D01*
X0752265D01*
X0754514D02*
Y0093270D01*
X0755264Y0092520D01*
X0757513D01*
Y0095519D01*
X0759013Y0092520D02*
Y0095519D01*
X0759762D01*
X0760512Y0094769D01*
Y0092520D01*
Y0094769D01*
X0761262Y0095519D01*
X0762012Y0094769D01*
Y0092520D01*
X0765761D02*
X0764261D01*
X0763511Y0093270D01*
Y0094769D01*
X0764261Y0095519D01*
X0765761D01*
X0766510Y0094769D01*
Y0094020D01*
X0763511D01*
X0768010Y0092520D02*
Y0095519D01*
X0770259D01*
X0771009Y0094769D01*
Y0092520D01*
X0773258Y0096269D02*
Y0095519D01*
X0772508D01*
X0774008D01*
X0773258D01*
Y0093270D01*
X0774008Y0092520D01*
X0776257D02*
X0778506D01*
X0779256Y0093270D01*
X0778506Y0094020D01*
X0777007D01*
X0776257Y0094769D01*
X0777007Y0095519D01*
X0779256D01*
X0786754Y0092520D02*
X0785254Y0094020D01*
Y0095519D01*
X0786754Y0097019D01*
X0789003D02*
X0792002D01*
X0790503D01*
Y0092520D01*
X0793502Y0097019D02*
X0795001D01*
X0794251D01*
Y0092520D01*
X0793502D01*
X0795001D01*
X0797250D02*
X0798750Y0094020D01*
Y0095519D01*
X0797250Y0097019D01*
X0806248Y0095519D02*
X0807747D01*
X0808497Y0094769D01*
Y0092520D01*
X0806248D01*
X0805498Y0093270D01*
X0806248Y0094020D01*
X0808497D01*
X0809996Y0092520D02*
Y0095519D01*
X0812246D01*
X0812995Y0094769D01*
Y0092520D01*
X0817494Y0097019D02*
Y0092520D01*
X0815245D01*
X0814495Y0093270D01*
Y0094769D01*
X0815245Y0095519D01*
X0817494D01*
X0818993Y0092520D02*
X0821992Y0095519D01*
X0824242Y0092520D02*
X0825741D01*
X0826491Y0093270D01*
Y0094769D01*
X0825741Y0095519D01*
X0824242D01*
X0823492Y0094769D01*
Y0093270D01*
X0824242Y0092520D01*
X0827991Y0095519D02*
Y0092520D01*
Y0094020D01*
X0828740Y0094769D01*
X0829490Y0095519D01*
X0830240D01*
X0836988Y0092520D02*
X0838487D01*
X0837737D01*
Y0095519D01*
X0836988D01*
X0841486Y0096269D02*
Y0095519D01*
X0840736D01*
X0842236D01*
X0841486D01*
Y0093270D01*
X0842236Y0092520D01*
X0844485D02*
X0846734D01*
X0847484Y0093270D01*
X0846734Y0094020D01*
X0845235D01*
X0844485Y0094769D01*
X0845235Y0095519D01*
X0847484D01*
X0853482Y0092520D02*
X0854982D01*
X0854232D01*
Y0097019D01*
X0853482D01*
X0857231Y0092520D02*
X0858731D01*
X0857981D01*
Y0095519D01*
X0857231D01*
X0863979D02*
X0861730D01*
X0860980Y0094769D01*
Y0093270D01*
X0861730Y0092520D01*
X0863979D01*
X0867728D02*
X0866228D01*
X0865478Y0093270D01*
Y0094769D01*
X0866228Y0095519D01*
X0867728D01*
X0868477Y0094769D01*
Y0094020D01*
X0865478D01*
X0869977Y0092520D02*
Y0095519D01*
X0872226D01*
X0872976Y0094769D01*
Y0092520D01*
X0874475D02*
X0876725D01*
X0877474Y0093270D01*
X0876725Y0094020D01*
X0875225D01*
X0874475Y0094769D01*
X0875225Y0095519D01*
X0877474D01*
X0879724Y0092520D02*
X0881223D01*
X0881973Y0093270D01*
Y0094769D01*
X0881223Y0095519D01*
X0879724D01*
X0878974Y0094769D01*
Y0093270D01*
X0879724Y0092520D01*
X0883473Y0095519D02*
Y0092520D01*
Y0094020D01*
X0884222Y0094769D01*
X0884972Y0095519D01*
X0885722D01*
X0887971Y0092520D02*
X0890220D01*
X0890970Y0093270D01*
X0890220Y0094020D01*
X0888721D01*
X0887971Y0094769D01*
X0888721Y0095519D01*
X0890970D01*
X0899967Y0097019D02*
Y0092520D01*
X0897718D01*
X0896968Y0093270D01*
Y0094769D01*
X0897718Y0095519D01*
X0899967D01*
X0902217Y0092520D02*
X0903716D01*
X0904466Y0093270D01*
Y0094769D01*
X0903716Y0095519D01*
X0902217D01*
X0901467Y0094769D01*
Y0093270D01*
X0902217Y0092520D01*
X0910464D02*
Y0095519D01*
X0912713D01*
X0913463Y0094769D01*
Y0092520D01*
X0915712D02*
X0917212D01*
X0917962Y0093270D01*
Y0094769D01*
X0917212Y0095519D01*
X0915712D01*
X0914962Y0094769D01*
Y0093270D01*
X0915712Y0092520D01*
X0920211Y0096269D02*
Y0095519D01*
X0919461D01*
X0920961D01*
X0920211D01*
Y0093270D01*
X0920961Y0092520D01*
X0927708Y0095519D02*
Y0093270D01*
X0928458Y0092520D01*
X0929208Y0093270D01*
X0929958Y0092520D01*
X0930707Y0093270D01*
Y0095519D01*
X0932957D02*
X0934456D01*
X0935206Y0094769D01*
Y0092520D01*
X0932957D01*
X0932207Y0093270D01*
X0932957Y0094020D01*
X0935206D01*
X0936705Y0095519D02*
Y0092520D01*
Y0094020D01*
X0937455Y0094769D01*
X0938205Y0095519D01*
X0938955D01*
X0941204D02*
Y0092520D01*
Y0094020D01*
X0941954Y0094769D01*
X0942704Y0095519D01*
X0943453D01*
X0946452D02*
X0947952D01*
X0948702Y0094769D01*
Y0092520D01*
X0946452D01*
X0945702Y0093270D01*
X0946452Y0094020D01*
X0948702D01*
X0950201Y0092520D02*
Y0095519D01*
X0952450D01*
X0953200Y0094769D01*
Y0092520D01*
X0955449Y0096269D02*
Y0095519D01*
X0954700D01*
X0956199D01*
X0955449D01*
Y0093270D01*
X0956199Y0092520D01*
X0963697Y0096269D02*
Y0095519D01*
X0962947D01*
X0964447D01*
X0963697D01*
Y0093270D01*
X0964447Y0092520D01*
X0966696Y0097019D02*
Y0092520D01*
Y0094769D01*
X0967445Y0095519D01*
X0968945D01*
X0969695Y0094769D01*
Y0092520D01*
X0973444D02*
X0971944D01*
X0971194Y0093270D01*
Y0094769D01*
X0971944Y0095519D01*
X0973444D01*
X0974193Y0094769D01*
Y0094020D01*
X0971194D01*
X0980941Y0095519D02*
X0982441D01*
X0983190Y0094769D01*
Y0092520D01*
X0980941D01*
X0980191Y0093270D01*
X0980941Y0094020D01*
X0983190D01*
X0987689Y0095519D02*
X0985440D01*
X0984690Y0094769D01*
Y0093270D01*
X0985440Y0092520D01*
X0987689D01*
X0992188Y0095519D02*
X0989938D01*
X0989188Y0094769D01*
Y0093270D01*
X0989938Y0092520D01*
X0992188D01*
X0993687Y0095519D02*
Y0093270D01*
X0994437Y0092520D01*
X0996686D01*
Y0095519D01*
X0998186D02*
Y0092520D01*
Y0094020D01*
X0998935Y0094769D01*
X0999685Y0095519D01*
X1000435D01*
X1003434D02*
X1004933D01*
X1005683Y0094769D01*
Y0092520D01*
X1003434D01*
X1002684Y0093270D01*
X1003434Y0094020D01*
X1005683D01*
X1010182Y0095519D02*
X1007932D01*
X1007183Y0094769D01*
Y0093270D01*
X1007932Y0092520D01*
X1010182D01*
X1011681Y0095519D02*
Y0093270D01*
X1012431Y0092520D01*
X1014680D01*
Y0091770D01*
X1013931Y0091021D01*
X1013181D01*
X1014680Y0092520D02*
Y0095519D01*
X1021428Y0092520D02*
X1022928D01*
X1023677Y0093270D01*
Y0094769D01*
X1022928Y0095519D01*
X1021428D01*
X1020678Y0094769D01*
Y0093270D01*
X1021428Y0092520D01*
X1025177Y0095519D02*
Y0092520D01*
Y0094020D01*
X1025927Y0094769D01*
X1026676Y0095519D01*
X1027426D01*
X1037173D02*
X1034924D01*
X1034174Y0094769D01*
Y0093270D01*
X1034924Y0092520D01*
X1037173D01*
X1039422D02*
X1040922D01*
X1041672Y0093270D01*
Y0094769D01*
X1040922Y0095519D01*
X1039422D01*
X1038673Y0094769D01*
Y0093270D01*
X1039422Y0092520D01*
X1043171D02*
Y0095519D01*
X1043921D01*
X1044671Y0094769D01*
Y0092520D01*
Y0094769D01*
X1045420Y0095519D01*
X1046170Y0094769D01*
Y0092520D01*
X1047670Y0091021D02*
Y0095519D01*
X1049919D01*
X1050669Y0094769D01*
Y0093270D01*
X1049919Y0092520D01*
X1047670D01*
X1052168D02*
X1053668D01*
X1052918D01*
Y0097019D01*
X1052168D01*
X1058166Y0092520D02*
X1056667D01*
X1055917Y0093270D01*
Y0094769D01*
X1056667Y0095519D01*
X1058166D01*
X1058916Y0094769D01*
Y0094020D01*
X1055917D01*
X1061165Y0096269D02*
Y0095519D01*
X1060416D01*
X1061915D01*
X1061165D01*
Y0093270D01*
X1061915Y0092520D01*
X1066414D02*
X1064914D01*
X1064164Y0093270D01*
Y0094769D01*
X1064914Y0095519D01*
X1066414D01*
X1067163Y0094769D01*
Y0094020D01*
X1064164D01*
X1068663Y0092520D02*
Y0095519D01*
X1070912D01*
X1071662Y0094769D01*
Y0092520D01*
X1075411D02*
X1073911D01*
X1073161Y0093270D01*
Y0094769D01*
X1073911Y0095519D01*
X1075411D01*
X1076161Y0094769D01*
Y0094020D01*
X1073161D01*
X1077660Y0092520D02*
X1079909D01*
X1080659Y0093270D01*
X1079909Y0094020D01*
X1078410D01*
X1077660Y0094769D01*
X1078410Y0095519D01*
X1080659D01*
X1082158Y0092520D02*
X1084408D01*
X1085158Y0093270D01*
X1084408Y0094020D01*
X1082908D01*
X1082158Y0094769D01*
X1082908Y0095519D01*
X1085158D01*
X1091905Y0092520D02*
X1093405D01*
X1094155Y0093270D01*
Y0094769D01*
X1093405Y0095519D01*
X1091905D01*
X1091156Y0094769D01*
Y0093270D01*
X1091905Y0092520D01*
X1096404D02*
Y0096269D01*
Y0094769D01*
X1095654D01*
X1097154D01*
X1096404D01*
Y0096269D01*
X1097154Y0097019D01*
X1104651Y0096269D02*
Y0095519D01*
X1103901D01*
X1105401D01*
X1104651D01*
Y0093270D01*
X1105401Y0092520D01*
X1107650Y0097019D02*
Y0092520D01*
Y0094769D01*
X1108400Y0095519D01*
X1109900D01*
X1110649Y0094769D01*
Y0092520D01*
X1112149D02*
X1113648D01*
X1112899D01*
Y0095519D01*
X1112149D01*
X1115898Y0092520D02*
X1118147D01*
X1118897Y0093270D01*
X1118147Y0094020D01*
X1116647D01*
X1115898Y0094769D01*
X1116647Y0095519D01*
X1118897D01*
X1124895Y0092520D02*
X1127144D01*
X1127894Y0093270D01*
X1127144Y0094020D01*
X1125644D01*
X1124895Y0094769D01*
X1125644Y0095519D01*
X1127894D01*
X1129393Y0091021D02*
Y0095519D01*
X1131643D01*
X1132392Y0094769D01*
Y0093270D01*
X1131643Y0092520D01*
X1129393D01*
X1136141D02*
X1134642D01*
X1133892Y0093270D01*
Y0094769D01*
X1134642Y0095519D01*
X1136141D01*
X1136891Y0094769D01*
Y0094020D01*
X1133892D01*
X1141389Y0095519D02*
X1139140D01*
X1138390Y0094769D01*
Y0093270D01*
X1139140Y0092520D01*
X1141389D01*
X1142889D02*
X1144388D01*
X1143639D01*
Y0095519D01*
X1142889D01*
X1147388Y0092520D02*
Y0096269D01*
Y0094769D01*
X1146638D01*
X1148137D01*
X1147388D01*
Y0096269D01*
X1148137Y0097019D01*
X1150387Y0092520D02*
X1151886D01*
X1151136D01*
Y0095519D01*
X1150387D01*
X1157134D02*
X1154885D01*
X1154135Y0094769D01*
Y0093270D01*
X1154885Y0092520D01*
X1157134D01*
X1159384Y0095519D02*
X1160883D01*
X1161633Y0094769D01*
Y0092520D01*
X1159384D01*
X1158634Y0093270D01*
X1159384Y0094020D01*
X1161633D01*
X1163882Y0096269D02*
Y0095519D01*
X1163132D01*
X1164632D01*
X1163882D01*
Y0093270D01*
X1164632Y0092520D01*
X1166881D02*
X1168381D01*
X1167631D01*
Y0095519D01*
X1166881D01*
X1171380Y0092520D02*
X1172879D01*
X1173629Y0093270D01*
Y0094769D01*
X1172879Y0095519D01*
X1171380D01*
X1170630Y0094769D01*
Y0093270D01*
X1171380Y0092520D01*
X1175129D02*
Y0095519D01*
X1177378D01*
X1178128Y0094769D01*
Y0092520D01*
X0707279Y0081254D02*
X0708779D01*
X0709529Y0082003D01*
Y0083503D01*
X0708779Y0084253D01*
X0707279D01*
X0706530Y0083503D01*
Y0082003D01*
X0707279Y0081254D01*
X0711028Y0084253D02*
Y0081254D01*
Y0082753D01*
X0711778Y0083503D01*
X0712528Y0084253D01*
X0713277D01*
X0720775D02*
X0722275D01*
X0723024Y0083503D01*
Y0081254D01*
X0720775D01*
X0720025Y0082003D01*
X0720775Y0082753D01*
X0723024D01*
X0724524Y0081254D02*
Y0084253D01*
X0726773D01*
X0727523Y0083503D01*
Y0081254D01*
X0729022Y0084253D02*
Y0082003D01*
X0729772Y0081254D01*
X0732021D01*
Y0080504D01*
X0731272Y0079754D01*
X0730522D01*
X0732021Y0081254D02*
Y0084253D01*
X0738020Y0081254D02*
X0739519D01*
X0738769D01*
Y0084253D01*
X0738020D01*
X0741768Y0081254D02*
Y0084253D01*
X0744018D01*
X0744767Y0083503D01*
Y0081254D01*
X0747017D02*
Y0085002D01*
Y0083503D01*
X0746267D01*
X0747766D01*
X0747017D01*
Y0085002D01*
X0747766Y0085752D01*
X0750765Y0081254D02*
X0752265D01*
X0753015Y0082003D01*
Y0083503D01*
X0752265Y0084253D01*
X0750765D01*
X0750016Y0083503D01*
Y0082003D01*
X0750765Y0081254D01*
X0754514Y0084253D02*
Y0081254D01*
Y0082753D01*
X0755264Y0083503D01*
X0756014Y0084253D01*
X0756763D01*
X0759013Y0081254D02*
Y0084253D01*
X0759762D01*
X0760512Y0083503D01*
Y0081254D01*
Y0083503D01*
X0761262Y0084253D01*
X0762012Y0083503D01*
Y0081254D01*
X0764261Y0084253D02*
X0765761D01*
X0766510Y0083503D01*
Y0081254D01*
X0764261D01*
X0763511Y0082003D01*
X0764261Y0082753D01*
X0766510D01*
X0768760Y0085002D02*
Y0084253D01*
X0768010D01*
X0769509D01*
X0768760D01*
Y0082003D01*
X0769509Y0081254D01*
X0771759D02*
X0773258D01*
X0772508D01*
Y0084253D01*
X0771759D01*
X0776257Y0081254D02*
X0777757D01*
X0778506Y0082003D01*
Y0083503D01*
X0777757Y0084253D01*
X0776257D01*
X0775507Y0083503D01*
Y0082003D01*
X0776257Y0081254D01*
X0780006D02*
Y0084253D01*
X0782255D01*
X0783005Y0083503D01*
Y0081254D01*
X0792002Y0084253D02*
X0789753D01*
X0789003Y0083503D01*
Y0082003D01*
X0789753Y0081254D01*
X0792002D01*
X0794251D02*
X0795751D01*
X0796501Y0082003D01*
Y0083503D01*
X0795751Y0084253D01*
X0794251D01*
X0793502Y0083503D01*
Y0082003D01*
X0794251Y0081254D01*
X0798000D02*
Y0084253D01*
X0800249D01*
X0800999Y0083503D01*
Y0081254D01*
X0803249Y0085002D02*
Y0084253D01*
X0802499D01*
X0803998D01*
X0803249D01*
Y0082003D01*
X0803998Y0081254D01*
X0806997Y0084253D02*
X0808497D01*
X0809247Y0083503D01*
Y0081254D01*
X0806997D01*
X0806248Y0082003D01*
X0806997Y0082753D01*
X0809247D01*
X0810746Y0081254D02*
X0812246D01*
X0811496D01*
Y0084253D01*
X0810746D01*
X0814495Y0081254D02*
Y0084253D01*
X0816744D01*
X0817494Y0083503D01*
Y0081254D01*
X0821243D02*
X0819743D01*
X0818993Y0082003D01*
Y0083503D01*
X0819743Y0084253D01*
X0821243D01*
X0821992Y0083503D01*
Y0082753D01*
X0818993D01*
X0826491Y0085752D02*
Y0081254D01*
X0824242D01*
X0823492Y0082003D01*
Y0083503D01*
X0824242Y0084253D01*
X0826491D01*
X0833239Y0085002D02*
Y0084253D01*
X0832489D01*
X0833989D01*
X0833239D01*
Y0082003D01*
X0833989Y0081254D01*
X0836238Y0085752D02*
Y0081254D01*
Y0083503D01*
X0836988Y0084253D01*
X0838487D01*
X0839237Y0083503D01*
Y0081254D01*
X0842986D02*
X0841486D01*
X0840736Y0082003D01*
Y0083503D01*
X0841486Y0084253D01*
X0842986D01*
X0843735Y0083503D01*
Y0082753D01*
X0840736D01*
X0845235Y0084253D02*
Y0081254D01*
Y0082753D01*
X0845985Y0083503D01*
X0846734Y0084253D01*
X0847484D01*
X0851983Y0081254D02*
X0850483D01*
X0849734Y0082003D01*
Y0083503D01*
X0850483Y0084253D01*
X0851983D01*
X0852732Y0083503D01*
Y0082753D01*
X0849734D01*
X0854232Y0081254D02*
X0855731D01*
X0854982D01*
Y0084253D01*
X0854232D01*
X0857981Y0081254D02*
Y0084253D01*
X0860230D01*
X0860980Y0083503D01*
Y0081254D01*
X0862479D02*
Y0082003D01*
X0863229D01*
Y0081254D01*
X0862479D01*
X0870727Y0085752D02*
X0873726D01*
X0872226D01*
Y0081254D01*
X0875225Y0085752D02*
X0876725D01*
X0875975D01*
Y0081254D01*
X0875225D01*
X0876725D01*
X0884222Y0084253D02*
X0885722D01*
X0886472Y0083503D01*
Y0081254D01*
X0884222D01*
X0883473Y0082003D01*
X0884222Y0082753D01*
X0886472D01*
X0887971Y0081254D02*
Y0084253D01*
X0890220D01*
X0890970Y0083503D01*
Y0081254D01*
X0895469Y0085752D02*
Y0081254D01*
X0893219D01*
X0892470Y0082003D01*
Y0083503D01*
X0893219Y0084253D01*
X0895469D01*
X0896968Y0081254D02*
X0899967Y0084253D01*
X0902217Y0081254D02*
X0903716D01*
X0904466Y0082003D01*
Y0083503D01*
X0903716Y0084253D01*
X0902217D01*
X0901467Y0083503D01*
Y0082003D01*
X0902217Y0081254D01*
X0905965Y0084253D02*
Y0081254D01*
Y0082753D01*
X0906715Y0083503D01*
X0907465Y0084253D01*
X0908215D01*
X0914962Y0081254D02*
X0916462D01*
X0915712D01*
Y0084253D01*
X0914962D01*
X0919461Y0085002D02*
Y0084253D01*
X0918711D01*
X0920211D01*
X0919461D01*
Y0082003D01*
X0920211Y0081254D01*
X0922460D02*
X0924709D01*
X0925459Y0082003D01*
X0924709Y0082753D01*
X0923210D01*
X0922460Y0083503D01*
X0923210Y0084253D01*
X0925459D01*
X0931457Y0081254D02*
X0932957D01*
X0932207D01*
Y0085752D01*
X0931457D01*
X0935206Y0081254D02*
X0936705D01*
X0935956D01*
Y0084253D01*
X0935206D01*
X0941954D02*
X0939705D01*
X0938955Y0083503D01*
Y0082003D01*
X0939705Y0081254D01*
X0941954D01*
X0945702D02*
X0944203D01*
X0943453Y0082003D01*
Y0083503D01*
X0944203Y0084253D01*
X0945702D01*
X0946452Y0083503D01*
Y0082753D01*
X0943453D01*
X0947952Y0081254D02*
Y0084253D01*
X0950201D01*
X0950951Y0083503D01*
Y0081254D01*
X0952450D02*
X0954700D01*
X0955449Y0082003D01*
X0954700Y0082753D01*
X0953200D01*
X0952450Y0083503D01*
X0953200Y0084253D01*
X0955449D01*
X0957699Y0081254D02*
X0959198D01*
X0959948Y0082003D01*
Y0083503D01*
X0959198Y0084253D01*
X0957699D01*
X0956949Y0083503D01*
Y0082003D01*
X0957699Y0081254D01*
X0961448Y0084253D02*
Y0081254D01*
Y0082753D01*
X0962197Y0083503D01*
X0962947Y0084253D01*
X0963697D01*
X0965946Y0081254D02*
X0968195D01*
X0968945Y0082003D01*
X0968195Y0082753D01*
X0966696D01*
X0965946Y0083503D01*
X0966696Y0084253D01*
X0968945D01*
X0977942Y0085752D02*
Y0081254D01*
X0975693D01*
X0974943Y0082003D01*
Y0083503D01*
X0975693Y0084253D01*
X0977942D01*
X0980191Y0081254D02*
X0981691D01*
X0982441Y0082003D01*
Y0083503D01*
X0981691Y0084253D01*
X0980191D01*
X0979442Y0083503D01*
Y0082003D01*
X0980191Y0081254D01*
X0988439D02*
Y0084253D01*
X0990688D01*
X0991438Y0083503D01*
Y0081254D01*
X0993687D02*
X0995187D01*
X0995936Y0082003D01*
Y0083503D01*
X0995187Y0084253D01*
X0993687D01*
X0992937Y0083503D01*
Y0082003D01*
X0993687Y0081254D01*
X0998186Y0085002D02*
Y0084253D01*
X0997436D01*
X0998935D01*
X0998186D01*
Y0082003D01*
X0998935Y0081254D01*
X1005683Y0084253D02*
Y0082003D01*
X1006433Y0081254D01*
X1007183Y0082003D01*
X1007932Y0081254D01*
X1008682Y0082003D01*
Y0084253D01*
X1010931D02*
X1012431D01*
X1013181Y0083503D01*
Y0081254D01*
X1010931D01*
X1010182Y0082003D01*
X1010931Y0082753D01*
X1013181D01*
X1014680Y0084253D02*
Y0081254D01*
Y0082753D01*
X1015430Y0083503D01*
X1016180Y0084253D01*
X1016930D01*
X1019179D02*
Y0081254D01*
Y0082753D01*
X1019929Y0083503D01*
X1020678Y0084253D01*
X1021428D01*
X1024427D02*
X1025927D01*
X1026676Y0083503D01*
Y0081254D01*
X1024427D01*
X1023677Y0082003D01*
X1024427Y0082753D01*
X1026676D01*
X1028176Y0081254D02*
Y0084253D01*
X1030425D01*
X1031175Y0083503D01*
Y0081254D01*
X1033424Y0085002D02*
Y0084253D01*
X1032675D01*
X1034174D01*
X1033424D01*
Y0082003D01*
X1034174Y0081254D01*
X1041672Y0085002D02*
Y0084253D01*
X1040922D01*
X1042421D01*
X1041672D01*
Y0082003D01*
X1042421Y0081254D01*
X1044671Y0085752D02*
Y0081254D01*
Y0083503D01*
X1045420Y0084253D01*
X1046920D01*
X1047670Y0083503D01*
Y0081254D01*
X1049919Y0084253D02*
X1051418D01*
X1052168Y0083503D01*
Y0081254D01*
X1049919D01*
X1049169Y0082003D01*
X1049919Y0082753D01*
X1052168D01*
X1054418Y0085002D02*
Y0084253D01*
X1053668D01*
X1055167D01*
X1054418D01*
Y0082003D01*
X1055167Y0081254D01*
X1062665Y0085002D02*
Y0084253D01*
X1061915D01*
X1063415D01*
X1062665D01*
Y0082003D01*
X1063415Y0081254D01*
X1065664Y0085752D02*
Y0081254D01*
Y0083503D01*
X1066414Y0084253D01*
X1067913D01*
X1068663Y0083503D01*
Y0081254D01*
X1070162D02*
X1071662D01*
X1070912D01*
Y0084253D01*
X1070162D01*
X1073911Y0081254D02*
X1076161D01*
X1076910Y0082003D01*
X1076161Y0082753D01*
X1074661D01*
X1073911Y0083503D01*
X1074661Y0084253D01*
X1076910D01*
X1085907Y0085752D02*
Y0081254D01*
X1083658D01*
X1082908Y0082003D01*
Y0083503D01*
X1083658Y0084253D01*
X1085907D01*
X1089656Y0081254D02*
X1088157D01*
X1087407Y0082003D01*
Y0083503D01*
X1088157Y0084253D01*
X1089656D01*
X1090406Y0083503D01*
Y0082753D01*
X1087407D01*
X1091905Y0081254D02*
X1094155D01*
X1094904Y0082003D01*
X1094155Y0082753D01*
X1092655D01*
X1091905Y0083503D01*
X1092655Y0084253D01*
X1094904D01*
X1096404Y0081254D02*
X1097904D01*
X1097154D01*
Y0084253D01*
X1096404D01*
X1101652Y0079754D02*
X1102402D01*
X1103152Y0080504D01*
Y0084253D01*
X1100902D01*
X1100153Y0083503D01*
Y0082003D01*
X1100902Y0081254D01*
X1103152D01*
X1104651D02*
Y0084253D01*
X1106901D01*
X1107650Y0083503D01*
Y0081254D01*
X1113648Y0084253D02*
Y0082003D01*
X1114398Y0081254D01*
X1115148Y0082003D01*
X1115898Y0081254D01*
X1116647Y0082003D01*
Y0084253D01*
X1118147Y0081254D02*
X1119646D01*
X1118897D01*
Y0084253D01*
X1118147D01*
X1121896Y0081254D02*
X1123395D01*
X1122645D01*
Y0085752D01*
X1121896D01*
X1125644Y0081254D02*
X1127144D01*
X1126394D01*
Y0085752D01*
X1125644D01*
X1133892Y0081254D02*
Y0084253D01*
X1134642D01*
X1135391Y0083503D01*
Y0081254D01*
Y0083503D01*
X1136141Y0084253D01*
X1136891Y0083503D01*
Y0081254D01*
X1140640D02*
X1139140D01*
X1138390Y0082003D01*
Y0083503D01*
X1139140Y0084253D01*
X1140640D01*
X1141389Y0083503D01*
Y0082753D01*
X1138390D01*
X1145138Y0081254D02*
X1143639D01*
X1142889Y0082003D01*
Y0083503D01*
X1143639Y0084253D01*
X1145138D01*
X1145888Y0083503D01*
Y0082753D01*
X1142889D01*
X1148137Y0085002D02*
Y0084253D01*
X1147388D01*
X1148887D01*
X1148137D01*
Y0082003D01*
X1148887Y0081254D01*
X0143113Y0962369D02*
X0143780Y0962703D01*
X0144780Y0963702D01*
Y0956704D01*
X0393013Y0962036D02*
Y0962369D01*
X0393346Y0963036D01*
X0393679Y0963369D01*
X0394346Y0963702D01*
X0395679D01*
X0396345Y0963369D01*
X0396679Y0963036D01*
X0397012Y0962369D01*
Y0961703D01*
X0396679Y0961036D01*
X0396012Y0960037D01*
X0392680Y0956704D01*
X0397345D01*
X0642280Y0963702D02*
X0645946D01*
X0643947Y0961036D01*
X0644947D01*
X0645613Y0960703D01*
X0645946Y0960370D01*
X0646280Y0959370D01*
Y0958704D01*
X0645946Y0957704D01*
X0645280Y0957037D01*
X0644280Y0956704D01*
X0643280D01*
X0642280Y0957037D01*
X0641947Y0957370D01*
X0641614Y0958037D01*
X0895613Y0963702D02*
X0892281Y0959037D01*
X0897280D01*
X0895613Y0963702D02*
Y0956704D01*
X1146179Y0963702D02*
X1142846D01*
X1142513Y0960703D01*
X1142846Y0961036D01*
X1143846Y0961370D01*
X1144846D01*
X1145846Y0961036D01*
X1146512Y0960370D01*
X1146845Y0959370D01*
Y0958704D01*
X1146512Y0957704D01*
X1145846Y0957037D01*
X1144846Y0956704D01*
X1143846D01*
X1142846Y0957037D01*
X1142513Y0957370D01*
X1142180Y0958037D01*
X1396679Y0962703D02*
X1396346Y0963369D01*
X1395346Y0963702D01*
X1394679D01*
X1393679Y0963369D01*
X1393013Y0962369D01*
X1392680Y0960703D01*
Y0959037D01*
X1393013Y0957704D01*
X1393679Y0957037D01*
X1394679Y0956704D01*
X1395012D01*
X1396012Y0957037D01*
X1396679Y0957704D01*
X1397012Y0958704D01*
Y0959037D01*
X1396679Y0960037D01*
X1396012Y0960703D01*
X1395012Y0961036D01*
X1394679D01*
X1393679Y0960703D01*
X1393013Y0960037D01*
X1392680Y0959037D01*
X1512812Y0842404D02*
X1510146Y0849403D01*
X1507480Y0842404D01*
X1508479Y0844737D02*
X1511812D01*
X1507480Y0611403D02*
Y0604404D01*
Y0611403D02*
X1510479D01*
X1511479Y0611069D01*
X1511812Y0610736D01*
X1512145Y0610069D01*
Y0609403D01*
X1511812Y0608736D01*
X1511479Y0608403D01*
X1510479Y0608070D01*
X1507480D02*
X1510479D01*
X1511479Y0607737D01*
X1511812Y0607403D01*
X1512145Y0606737D01*
Y0605737D01*
X1511812Y0605070D01*
X1511479Y0604737D01*
X1510479Y0604404D01*
X1507480D01*
X1512479Y0372236D02*
X1512145Y0372903D01*
X1511479Y0373569D01*
X1510812Y0373903D01*
X1509479D01*
X1508813Y0373569D01*
X1508146Y0372903D01*
X1507813Y0372236D01*
X1507480Y0371236D01*
Y0369570D01*
X1507813Y0368570D01*
X1508146Y0367904D01*
X1508813Y0367237D01*
X1509479Y0366904D01*
X1510812D01*
X1511479Y0367237D01*
X1512145Y0367904D01*
X1512479Y0368570D01*
X1507480Y0136902D02*
Y0129904D01*
Y0136902D02*
X1509813D01*
X1510812Y0136569D01*
X1511479Y0135903D01*
X1511812Y0135236D01*
X1512145Y0134236D01*
Y0132570D01*
X1511812Y0131570D01*
X1511479Y0130904D01*
X1510812Y0130237D01*
X1509813Y0129904D01*
X1507480D01*
X0032812Y0842404D02*
X0030146Y0849403D01*
X0027480Y0842404D01*
X0028479Y0844737D02*
X0031812D01*
X0027480Y0611403D02*
Y0604404D01*
Y0611403D02*
X0030479D01*
X0031479Y0611069D01*
X0031812Y0610736D01*
X0032145Y0610069D01*
Y0609403D01*
X0031812Y0608736D01*
X0031479Y0608403D01*
X0030479Y0608070D01*
X0027480D02*
X0030479D01*
X0031479Y0607737D01*
X0031812Y0607403D01*
X0032145Y0606737D01*
Y0605737D01*
X0031812Y0605070D01*
X0031479Y0604737D01*
X0030479Y0604404D01*
X0027480D01*
X0032479Y0372236D02*
X0032145Y0372903D01*
X0031479Y0373569D01*
X0030812Y0373903D01*
X0029479D01*
X0028813Y0373569D01*
X0028146Y0372903D01*
X0027813Y0372236D01*
X0027480Y0371236D01*
Y0369570D01*
X0027813Y0368570D01*
X0028146Y0367904D01*
X0028813Y0367237D01*
X0029479Y0366904D01*
X0030812D01*
X0031479Y0367237D01*
X0032145Y0367904D01*
X0032479Y0368570D01*
X0027480Y0136902D02*
Y0129904D01*
Y0136902D02*
X0029812D01*
X0030812Y0136569D01*
X0031479Y0135903D01*
X0031812Y0135236D01*
X0032145Y0134236D01*
Y0132570D01*
X0031812Y0131570D01*
X0031479Y0130904D01*
X0030812Y0130237D01*
X0029812Y0129904D01*
X0027480D01*
X0143113Y0032369D02*
X0143780Y0032703D01*
X0144780Y0033702D01*
Y0026704D01*
X0393013Y0032036D02*
Y0032369D01*
X0393346Y0033036D01*
X0393679Y0033369D01*
X0394346Y0033702D01*
X0395679D01*
X0396345Y0033369D01*
X0396679Y0033036D01*
X0397012Y0032369D01*
Y0031703D01*
X0396679Y0031036D01*
X0396012Y0030037D01*
X0392680Y0026704D01*
X0397345D01*
X0642280Y0033702D02*
X0645946D01*
X0643947Y0031036D01*
X0644947D01*
X0645613Y0030703D01*
X0645946Y0030370D01*
X0646280Y0029370D01*
Y0028703D01*
X0645946Y0027704D01*
X0645280Y0027037D01*
X0644280Y0026704D01*
X0643280D01*
X0642280Y0027037D01*
X0641947Y0027371D01*
X0641614Y0028037D01*
X0895613Y0033702D02*
X0892281Y0029037D01*
X0897280D01*
X0895613Y0033702D02*
Y0026704D01*
X1146179Y0033702D02*
X1142846D01*
X1142513Y0030703D01*
X1142846Y0031036D01*
X1143846Y0031370D01*
X1144846D01*
X1145846Y0031036D01*
X1146512Y0030370D01*
X1146845Y0029370D01*
Y0028703D01*
X1146512Y0027704D01*
X1145846Y0027037D01*
X1144846Y0026704D01*
X1143846D01*
X1142846Y0027037D01*
X1142513Y0027371D01*
X1142180Y0028037D01*
X1396679Y0032703D02*
X1396346Y0033369D01*
X1395346Y0033702D01*
X1394679D01*
X1393679Y0033369D01*
X1393013Y0032369D01*
X1392680Y0030703D01*
Y0029037D01*
X1393013Y0027704D01*
X1393679Y0027037D01*
X1394679Y0026704D01*
X1395012D01*
X1396012Y0027037D01*
X1396679Y0027704D01*
X1397012Y0028703D01*
Y0029037D01*
X1396679Y0030037D01*
X1396012Y0030703D01*
X1395012Y0031036D01*
X1394679D01*
X1393679Y0030703D01*
X1393013Y0030037D01*
X1392680Y0029037D01*
X1213145Y0053203D02*
X1211979Y0054369D01*
X1209646D01*
X1208480Y0053203D01*
Y0052036D01*
X1209646Y0050870D01*
X1211979D01*
X1213145Y0049704D01*
Y0048537D01*
X1211979Y0047371D01*
X1209646D01*
X1208480Y0048537D01*
X1220142Y0053203D02*
X1218976Y0054369D01*
X1216644D01*
X1215477Y0053203D01*
Y0048537D01*
X1216644Y0047371D01*
X1218976D01*
X1220142Y0048537D01*
X1222475Y0047371D02*
Y0052036D01*
X1224808Y0054369D01*
X1227140Y0052036D01*
Y0047371D01*
Y0050870D01*
X1222475D01*
X1229473Y0054369D02*
Y0047371D01*
X1234138D01*
X1241136Y0054369D02*
X1236471D01*
Y0047371D01*
X1241136D01*
X1236471Y0050870D02*
X1238803D01*
X1243468Y0052036D02*
X1244635D01*
Y0050870D01*
X1243468D01*
Y0052036D01*
Y0048537D02*
X1244635D01*
Y0047371D01*
X1243468D01*
Y0048537D01*
X1256297Y0047371D02*
X1258630D01*
X1257464D01*
Y0054369D01*
X1256297Y0053203D01*
X1262129Y0047371D02*
Y0048537D01*
X1263295D01*
Y0047371D01*
X1262129D01*
X1267960Y0053203D02*
X1269127Y0054369D01*
X1271459D01*
X1272626Y0053203D01*
Y0048537D01*
X1271459Y0047371D01*
X1269127D01*
X1267960Y0048537D01*
Y0053203D01*
X1274958D02*
X1276124Y0054369D01*
X1278457D01*
X1279623Y0053203D01*
Y0048537D01*
X1278457Y0047371D01*
X1276124D01*
X1274958Y0048537D01*
Y0053203D01*
X0707279Y0073736D02*
Y0072986D01*
X0706530D01*
X0708029D01*
X0707279D01*
Y0070737D01*
X0708029Y0069987D01*
X0710278Y0074486D02*
Y0069987D01*
Y0072236D01*
X0711028Y0072986D01*
X0712528D01*
X0713277Y0072236D01*
Y0069987D01*
X0717026D02*
X0715527D01*
X0714777Y0070737D01*
Y0072236D01*
X0715527Y0072986D01*
X0717026D01*
X0717776Y0072236D01*
Y0071487D01*
X0714777D01*
X0723774Y0069987D02*
X0726023D01*
X0726773Y0070737D01*
X0726023Y0071487D01*
X0724524D01*
X0723774Y0072236D01*
X0724524Y0072986D01*
X0726773D01*
X0728273Y0068488D02*
Y0072986D01*
X0730522D01*
X0731272Y0072236D01*
Y0070737D01*
X0730522Y0069987D01*
X0728273D01*
X0735020D02*
X0733521D01*
X0732771Y0070737D01*
Y0072236D01*
X0733521Y0072986D01*
X0735020D01*
X0735770Y0072236D01*
Y0071487D01*
X0732771D01*
X0740269Y0072986D02*
X0738020D01*
X0737270Y0072236D01*
Y0070737D01*
X0738020Y0069987D01*
X0740269D01*
X0741768D02*
X0743268D01*
X0742518D01*
Y0072986D01*
X0741768D01*
X0746267Y0069987D02*
Y0073736D01*
Y0072236D01*
X0745517D01*
X0747017D01*
X0746267D01*
Y0073736D01*
X0747017Y0074486D01*
X0749266Y0069987D02*
X0750765D01*
X0750016D01*
Y0072986D01*
X0749266D01*
X0756014D02*
X0753764D01*
X0753015Y0072236D01*
Y0070737D01*
X0753764Y0069987D01*
X0756014D01*
X0758263Y0072986D02*
X0759762D01*
X0760512Y0072236D01*
Y0069987D01*
X0758263D01*
X0757513Y0070737D01*
X0758263Y0071487D01*
X0760512D01*
X0762761Y0073736D02*
Y0072986D01*
X0762012D01*
X0763511D01*
X0762761D01*
Y0070737D01*
X0763511Y0069987D01*
X0765761D02*
X0767260D01*
X0766510D01*
Y0072986D01*
X0765761D01*
X0770259Y0069987D02*
X0771759D01*
X0772508Y0070737D01*
Y0072236D01*
X0771759Y0072986D01*
X0770259D01*
X0769509Y0072236D01*
Y0070737D01*
X0770259Y0069987D01*
X0774008D02*
Y0072986D01*
X0776257D01*
X0777007Y0072236D01*
Y0069987D01*
X0778506D02*
X0780756D01*
X0781505Y0070737D01*
X0780756Y0071487D01*
X0779256D01*
X0778506Y0072236D01*
X0779256Y0072986D01*
X0781505D01*
X0783755Y0069237D02*
X0784505Y0069987D01*
Y0070737D01*
X0783755D01*
Y0069987D01*
X0784505D01*
X0783755Y0069237D01*
X0783005Y0068488D01*
X0792002Y0072986D02*
Y0070737D01*
X0792752Y0069987D01*
X0793502Y0070737D01*
X0794251Y0069987D01*
X0795001Y0070737D01*
Y0072986D01*
X0796501Y0069987D02*
X0798000D01*
X0797250D01*
Y0072986D01*
X0796501D01*
X0800249Y0069987D02*
X0801749D01*
X0800999D01*
Y0074486D01*
X0800249D01*
X0803998Y0069987D02*
X0805498D01*
X0804748D01*
Y0074486D01*
X0803998D01*
X0812246D02*
Y0069987D01*
X0814495D01*
X0815245Y0070737D01*
Y0071487D01*
Y0072236D01*
X0814495Y0072986D01*
X0812246D01*
X0818993Y0069987D02*
X0817494D01*
X0816744Y0070737D01*
Y0072236D01*
X0817494Y0072986D01*
X0818993D01*
X0819743Y0072236D01*
Y0071487D01*
X0816744D01*
X0825741Y0069987D02*
X0827991D01*
X0828740Y0070737D01*
X0827991Y0071487D01*
X0826491D01*
X0825741Y0072236D01*
X0826491Y0072986D01*
X0828740D01*
X0830240D02*
Y0070737D01*
X0830989Y0069987D01*
X0833239D01*
Y0072986D01*
X0834738Y0069987D02*
X0836238D01*
X0835488D01*
Y0072986D01*
X0834738D01*
X0839237Y0073736D02*
Y0072986D01*
X0838487D01*
X0839987D01*
X0839237D01*
Y0070737D01*
X0839987Y0069987D01*
X0842986Y0072986D02*
X0844485D01*
X0845235Y0072236D01*
Y0069987D01*
X0842986D01*
X0842236Y0070737D01*
X0842986Y0071487D01*
X0845235D01*
X0846734Y0074486D02*
Y0069987D01*
X0848984D01*
X0849734Y0070737D01*
Y0071487D01*
Y0072236D01*
X0848984Y0072986D01*
X0846734D01*
X0851233Y0069987D02*
X0852732D01*
X0851983D01*
Y0074486D01*
X0851233D01*
X0857231Y0069987D02*
X0855731D01*
X0854982Y0070737D01*
Y0072236D01*
X0855731Y0072986D01*
X0857231D01*
X0857981Y0072236D01*
Y0071487D01*
X0854982D01*
X0864729Y0069987D02*
Y0073736D01*
Y0072236D01*
X0863979D01*
X0865478D01*
X0864729D01*
Y0073736D01*
X0865478Y0074486D01*
X0868477Y0069987D02*
X0869977D01*
X0870727Y0070737D01*
Y0072236D01*
X0869977Y0072986D01*
X0868477D01*
X0867728Y0072236D01*
Y0070737D01*
X0868477Y0069987D01*
X0872226Y0072986D02*
Y0069987D01*
Y0071487D01*
X0872976Y0072236D01*
X0873726Y0072986D01*
X0874475D01*
X0881223D02*
Y0070737D01*
X0881973Y0069987D01*
X0884222D01*
Y0069237D01*
X0883473Y0068488D01*
X0882723D01*
X0884222Y0069987D02*
Y0072986D01*
X0886472Y0069987D02*
X0887971D01*
X0888721Y0070737D01*
Y0072236D01*
X0887971Y0072986D01*
X0886472D01*
X0885722Y0072236D01*
Y0070737D01*
X0886472Y0069987D01*
X0890220Y0072986D02*
Y0070737D01*
X0890970Y0069987D01*
X0893219D01*
Y0072986D01*
X0894719D02*
Y0069987D01*
Y0071487D01*
X0895469Y0072236D01*
X0896218Y0072986D01*
X0896968D01*
X0904466D02*
X0905965D01*
X0906715Y0072236D01*
Y0069987D01*
X0904466D01*
X0903716Y0070737D01*
X0904466Y0071487D01*
X0906715D01*
X0908215Y0068488D02*
Y0072986D01*
X0910464D01*
X0911214Y0072236D01*
Y0070737D01*
X0910464Y0069987D01*
X0908215D01*
X0912713Y0068488D02*
Y0072986D01*
X0914962D01*
X0915712Y0072236D01*
Y0070737D01*
X0914962Y0069987D01*
X0912713D01*
X0917212D02*
X0918711D01*
X0917962D01*
Y0074486D01*
X0917212D01*
X0920961Y0069987D02*
X0922460D01*
X0921710D01*
Y0072986D01*
X0920961D01*
X0927708D02*
X0925459D01*
X0924709Y0072236D01*
Y0070737D01*
X0925459Y0069987D01*
X0927708D01*
X0929958Y0072986D02*
X0931457D01*
X0932207Y0072236D01*
Y0069987D01*
X0929958D01*
X0929208Y0070737D01*
X0929958Y0071487D01*
X0932207D01*
X0934456Y0073736D02*
Y0072986D01*
X0933706D01*
X0935206D01*
X0934456D01*
Y0070737D01*
X0935206Y0069987D01*
X0937455D02*
X0938955D01*
X0938205D01*
Y0072986D01*
X0937455D01*
X0941954Y0069987D02*
X0943453D01*
X0944203Y0070737D01*
Y0072236D01*
X0943453Y0072986D01*
X0941954D01*
X0941204Y0072236D01*
Y0070737D01*
X0941954Y0069987D01*
X0945702D02*
Y0072986D01*
X0947952D01*
X0948701Y0072236D01*
Y0069987D01*
X0955449D02*
X0956949D01*
X0957699Y0070737D01*
Y0072236D01*
X0956949Y0072986D01*
X0955449D01*
X0954700Y0072236D01*
Y0070737D01*
X0955449Y0069987D01*
X0959198Y0072986D02*
Y0069987D01*
Y0071487D01*
X0959948Y0072236D01*
X0960698Y0072986D01*
X0961447D01*
X0968945Y0069987D02*
Y0073736D01*
Y0072236D01*
X0968195D01*
X0969695D01*
X0968945D01*
Y0073736D01*
X0969695Y0074486D01*
X0971944Y0069987D02*
X0973444D01*
X0972694D01*
Y0072986D01*
X0971944D01*
X0976443Y0073736D02*
Y0072986D01*
X0975693D01*
X0977192D01*
X0976443D01*
Y0070737D01*
X0977192Y0069987D01*
X0984690D02*
Y0073736D01*
Y0072236D01*
X0983940D01*
X0985440D01*
X0984690D01*
Y0073736D01*
X0985440Y0074486D01*
X0988439Y0069987D02*
X0989938D01*
X0990688Y0070737D01*
Y0072236D01*
X0989938Y0072986D01*
X0988439D01*
X0987689Y0072236D01*
Y0070737D01*
X0988439Y0069987D01*
X0992188Y0072986D02*
Y0069987D01*
Y0071487D01*
X0992937Y0072236D01*
X0993687Y0072986D01*
X0994437D01*
X1001934D02*
X1003434D01*
X1004184Y0072236D01*
Y0069987D01*
X1001934D01*
X1001185Y0070737D01*
X1001934Y0071487D01*
X1004184D01*
X1005683Y0069987D02*
Y0072986D01*
X1007932D01*
X1008682Y0072236D01*
Y0069987D01*
X1010182Y0072986D02*
Y0070737D01*
X1010931Y0069987D01*
X1013181D01*
Y0069237D01*
X1012431Y0068488D01*
X1011681D01*
X1013181Y0069987D02*
Y0072986D01*
X1019179Y0068488D02*
Y0072986D01*
X1021428D01*
X1022178Y0072236D01*
Y0070737D01*
X1021428Y0069987D01*
X1019179D01*
X1024427Y0072986D02*
X1025927D01*
X1026676Y0072236D01*
Y0069987D01*
X1024427D01*
X1023677Y0070737D01*
X1024427Y0071487D01*
X1026676D01*
X1028176Y0072986D02*
Y0069987D01*
Y0071487D01*
X1028926Y0072236D01*
X1029675Y0072986D01*
X1030425D01*
X1033424Y0073736D02*
Y0072986D01*
X1032675D01*
X1034174D01*
X1033424D01*
Y0070737D01*
X1034174Y0069987D01*
X1036423D02*
X1037923D01*
X1037173D01*
Y0072986D01*
X1036423D01*
X1043171D02*
X1040922D01*
X1040172Y0072236D01*
Y0070737D01*
X1040922Y0069987D01*
X1043171D01*
X1044671Y0072986D02*
Y0070737D01*
X1045420Y0069987D01*
X1047670D01*
Y0072986D01*
X1049169Y0069987D02*
X1050669D01*
X1049919D01*
Y0074486D01*
X1049169D01*
X1053668Y0072986D02*
X1055167D01*
X1055917Y0072236D01*
Y0069987D01*
X1053668D01*
X1052918Y0070737D01*
X1053668Y0071487D01*
X1055917D01*
X1057417Y0072986D02*
Y0069987D01*
Y0071487D01*
X1058166Y0072236D01*
X1058916Y0072986D01*
X1059666D01*
X1066414Y0068488D02*
Y0072986D01*
X1068663D01*
X1069413Y0072236D01*
Y0070737D01*
X1068663Y0069987D01*
X1066414D01*
X1070912Y0072986D02*
Y0070737D01*
X1071662Y0069987D01*
X1073911D01*
Y0072986D01*
X1075411D02*
Y0069987D01*
Y0071487D01*
X1076161Y0072236D01*
X1076910Y0072986D01*
X1077660D01*
X1079909Y0068488D02*
Y0072986D01*
X1082158D01*
X1082908Y0072236D01*
Y0070737D01*
X1082158Y0069987D01*
X1079909D01*
X1085158D02*
X1086657D01*
X1087407Y0070737D01*
Y0072236D01*
X1086657Y0072986D01*
X1085158D01*
X1084408Y0072236D01*
Y0070737D01*
X1085158Y0069987D01*
X1088906D02*
X1091156D01*
X1091905Y0070737D01*
X1091156Y0071487D01*
X1089656D01*
X1088906Y0072236D01*
X1089656Y0072986D01*
X1091905D01*
X1095654Y0069987D02*
X1094155D01*
X1093405Y0070737D01*
Y0072236D01*
X1094155Y0072986D01*
X1095654D01*
X1096404Y0072236D01*
Y0071487D01*
X1093405D01*
X1098653Y0069237D02*
X1099403Y0069987D01*
Y0070737D01*
X1098653D01*
Y0069987D01*
X1099403D01*
X1098653Y0069237D01*
X1097903Y0068488D01*
X1107650Y0069987D02*
X1109150D01*
X1109900Y0070737D01*
Y0072236D01*
X1109150Y0072986D01*
X1107650D01*
X1106901Y0072236D01*
Y0070737D01*
X1107650Y0069987D01*
X1111399Y0072986D02*
Y0069987D01*
Y0071487D01*
X1112149Y0072236D01*
X1112899Y0072986D01*
X1113648D01*
X1120396D02*
Y0070737D01*
X1121146Y0069987D01*
X1121896Y0070737D01*
X1122645Y0069987D01*
X1123395Y0070737D01*
Y0072986D01*
X1124895Y0069987D02*
X1126394D01*
X1125644D01*
Y0072986D01*
X1124895D01*
X1128644Y0069987D02*
X1130143D01*
X1129393D01*
Y0074486D01*
X1128644D01*
X1132392Y0069987D02*
X1133892D01*
X1133142D01*
Y0074486D01*
X1132392D01*
X1141389Y0069987D02*
X1142889D01*
X1143639Y0070737D01*
Y0072236D01*
X1142889Y0072986D01*
X1141389D01*
X1140640Y0072236D01*
Y0070737D01*
X1141389Y0069987D01*
X1145138Y0068488D02*
Y0072986D01*
X1147388D01*
X1148137Y0072236D01*
Y0070737D01*
X1147388Y0069987D01*
X1145138D01*
X1151886D02*
X1150387D01*
X1149637Y0070737D01*
Y0072236D01*
X1150387Y0072986D01*
X1151886D01*
X1152636Y0072236D01*
Y0071487D01*
X1149637D01*
X1154135Y0072986D02*
Y0069987D01*
Y0071487D01*
X1154885Y0072236D01*
X1155635Y0072986D01*
X1156385D01*
X1159384D02*
X1160883D01*
X1161633Y0072236D01*
Y0069987D01*
X1159384D01*
X1158634Y0070737D01*
X1159384Y0071487D01*
X1161633D01*
X1163882Y0073736D02*
Y0072986D01*
X1163132D01*
X1164632D01*
X1163882D01*
Y0070737D01*
X1164632Y0069987D01*
X1169131D02*
X1167631D01*
X1166881Y0070737D01*
Y0072236D01*
X1167631Y0072986D01*
X1169131D01*
X1169880Y0072236D01*
Y0071487D01*
X1166881D01*
X1175878Y0069987D02*
X1177378D01*
X1176628D01*
Y0072986D01*
X1175878D01*
X1179627Y0069987D02*
Y0072986D01*
X1181876D01*
X1182626Y0072236D01*
Y0069987D01*
X0707279Y0061720D02*
X0708779D01*
X0709529Y0060970D01*
Y0058720D01*
X0707279D01*
X0706530Y0059470D01*
X0707279Y0060220D01*
X0709529D01*
X0711028Y0058720D02*
Y0061720D01*
X0713277D01*
X0714027Y0060970D01*
Y0058720D01*
X0720025D02*
X0721525D01*
X0720775D01*
Y0061720D01*
X0720025D01*
X0723774Y0058720D02*
Y0061720D01*
X0724524D01*
X0725274Y0060970D01*
Y0058720D01*
Y0060970D01*
X0726023Y0061720D01*
X0726773Y0060970D01*
Y0058720D01*
X0728273Y0057221D02*
Y0061720D01*
X0730522D01*
X0731272Y0060970D01*
Y0059470D01*
X0730522Y0058720D01*
X0728273D01*
X0732771D02*
X0734271D01*
X0733521D01*
Y0063219D01*
X0732771D01*
X0738769Y0058720D02*
X0737270D01*
X0736520Y0059470D01*
Y0060970D01*
X0737270Y0061720D01*
X0738769D01*
X0739519Y0060970D01*
Y0060220D01*
X0736520D01*
X0741018Y0058720D02*
Y0061720D01*
X0741768D01*
X0742518Y0060970D01*
Y0058720D01*
Y0060970D01*
X0743268Y0061720D01*
X0744018Y0060970D01*
Y0058720D01*
X0747766D02*
X0746267D01*
X0745517Y0059470D01*
Y0060970D01*
X0746267Y0061720D01*
X0747766D01*
X0748516Y0060970D01*
Y0060220D01*
X0745517D01*
X0750016Y0058720D02*
Y0061720D01*
X0752265D01*
X0753015Y0060970D01*
Y0058720D01*
X0755264Y0062469D02*
Y0061720D01*
X0754514D01*
X0756014D01*
X0755264D01*
Y0059470D01*
X0756014Y0058720D01*
X0759013Y0061720D02*
X0760512D01*
X0761262Y0060970D01*
Y0058720D01*
X0759013D01*
X0758263Y0059470D01*
X0759013Y0060220D01*
X0761262D01*
X0763511Y0062469D02*
Y0061720D01*
X0762761D01*
X0764261D01*
X0763511D01*
Y0059470D01*
X0764261Y0058720D01*
X0766510D02*
X0768010D01*
X0767260D01*
Y0061720D01*
X0766510D01*
X0771009Y0058720D02*
X0772508D01*
X0773258Y0059470D01*
Y0060970D01*
X0772508Y0061720D01*
X0771009D01*
X0770259Y0060970D01*
Y0059470D01*
X0771009Y0058720D01*
X0774758D02*
Y0061720D01*
X0777007D01*
X0777757Y0060970D01*
Y0058720D01*
X0779256D02*
Y0059470D01*
X0780006D01*
Y0058720D01*
X0779256D01*
X0787503Y0063219D02*
X0790503D01*
X0789003D01*
Y0058720D01*
X0792002Y0063219D02*
X0793502D01*
X0792752D01*
Y0058720D01*
X0792002D01*
X0793502D01*
X0800999Y0061720D02*
X0802499D01*
X0803248Y0060970D01*
Y0058720D01*
X0800999D01*
X0800249Y0059470D01*
X0800999Y0060220D01*
X0803248D01*
X0804748Y0058720D02*
Y0061720D01*
X0806997D01*
X0807747Y0060970D01*
Y0058720D01*
X0812246Y0063219D02*
Y0058720D01*
X0809996D01*
X0809247Y0059470D01*
Y0060970D01*
X0809996Y0061720D01*
X0812246D01*
X0813745Y0058720D02*
X0816744Y0061720D01*
X0818993Y0058720D02*
X0820493D01*
X0821243Y0059470D01*
Y0060970D01*
X0820493Y0061720D01*
X0818993D01*
X0818244Y0060970D01*
Y0059470D01*
X0818993Y0058720D01*
X0822742Y0061720D02*
Y0058720D01*
Y0060220D01*
X0823492Y0060970D01*
X0824242Y0061720D01*
X0824991D01*
X0831739Y0058720D02*
X0833239D01*
X0832489D01*
Y0061720D01*
X0831739D01*
X0836238Y0062469D02*
Y0061720D01*
X0835488D01*
X0836988D01*
X0836238D01*
Y0059470D01*
X0836988Y0058720D01*
X0839237D02*
X0841486D01*
X0842236Y0059470D01*
X0841486Y0060220D01*
X0839987D01*
X0839237Y0060970D01*
X0839987Y0061720D01*
X0842236D01*
X0848234Y0058720D02*
X0849734D01*
X0848984D01*
Y0063219D01*
X0848234D01*
X0851983Y0058720D02*
X0853482D01*
X0852732D01*
Y0061720D01*
X0851983D01*
X0858731D02*
X0856481D01*
X0855731Y0060970D01*
Y0059470D01*
X0856481Y0058720D01*
X0858731D01*
X0862479D02*
X0860980D01*
X0860230Y0059470D01*
Y0060970D01*
X0860980Y0061720D01*
X0862479D01*
X0863229Y0060970D01*
Y0060220D01*
X0860230D01*
X0864729Y0058720D02*
Y0061720D01*
X0866978D01*
X0867728Y0060970D01*
Y0058720D01*
X0869227D02*
X0871476D01*
X0872226Y0059470D01*
X0871476Y0060220D01*
X0869977D01*
X0869227Y0060970D01*
X0869977Y0061720D01*
X0872226D01*
X0874475Y0058720D02*
X0875975D01*
X0876725Y0059470D01*
Y0060970D01*
X0875975Y0061720D01*
X0874475D01*
X0873726Y0060970D01*
Y0059470D01*
X0874475Y0058720D01*
X0878224Y0061720D02*
Y0058720D01*
Y0060220D01*
X0878974Y0060970D01*
X0879724Y0061720D01*
X0880474D01*
X0882723Y0058720D02*
X0884972D01*
X0885722Y0059470D01*
X0884972Y0060220D01*
X0883473D01*
X0882723Y0060970D01*
X0883473Y0061720D01*
X0885722D01*
X0894719Y0063219D02*
Y0058720D01*
X0892470D01*
X0891720Y0059470D01*
Y0060970D01*
X0892470Y0061720D01*
X0894719D01*
X0896968Y0058720D02*
X0898468D01*
X0899218Y0059470D01*
Y0060970D01*
X0898468Y0061720D01*
X0896968D01*
X0896218Y0060970D01*
Y0059470D01*
X0896968Y0058720D01*
X0905216D02*
Y0061720D01*
X0907465D01*
X0908215Y0060970D01*
Y0058720D01*
X0910464D02*
X0911963D01*
X0912713Y0059470D01*
Y0060970D01*
X0911963Y0061720D01*
X0910464D01*
X0909714Y0060970D01*
Y0059470D01*
X0910464Y0058720D01*
X0914962Y0062469D02*
Y0061720D01*
X0914213D01*
X0915712D01*
X0914962D01*
Y0059470D01*
X0915712Y0058720D01*
X0922460Y0061720D02*
Y0059470D01*
X0923210Y0058720D01*
X0923960Y0059470D01*
X0924709Y0058720D01*
X0925459Y0059470D01*
Y0061720D01*
X0927708D02*
X0929208D01*
X0929958Y0060970D01*
Y0058720D01*
X0927708D01*
X0926959Y0059470D01*
X0927708Y0060220D01*
X0929958D01*
X0931457Y0061720D02*
Y0058720D01*
Y0060220D01*
X0932207Y0060970D01*
X0932957Y0061720D01*
X0933706D01*
X0935956D02*
Y0058720D01*
Y0060220D01*
X0936705Y0060970D01*
X0937455Y0061720D01*
X0938205D01*
X0941204D02*
X0942704D01*
X0943453Y0060970D01*
Y0058720D01*
X0941204D01*
X0940454Y0059470D01*
X0941204Y0060220D01*
X0943453D01*
X0944953Y0058720D02*
Y0061720D01*
X0947202D01*
X0947952Y0060970D01*
Y0058720D01*
X0950201Y0062469D02*
Y0061720D01*
X0949451D01*
X0950951D01*
X0950201D01*
Y0059470D01*
X0950951Y0058720D01*
X0958448Y0062469D02*
Y0061720D01*
X0957699D01*
X0959198D01*
X0958448D01*
Y0059470D01*
X0959198Y0058720D01*
X0961448Y0063219D02*
Y0058720D01*
Y0060970D01*
X0962197Y0061720D01*
X0963697D01*
X0964447Y0060970D01*
Y0058720D01*
X0966696Y0061720D02*
X0968195D01*
X0968945Y0060970D01*
Y0058720D01*
X0966696D01*
X0965946Y0059470D01*
X0966696Y0060220D01*
X0968945D01*
X0971194Y0062469D02*
Y0061720D01*
X0970444D01*
X0971944D01*
X0971194D01*
Y0059470D01*
X0971944Y0058720D01*
X0979442Y0062469D02*
Y0061720D01*
X0978692D01*
X0980191D01*
X0979442D01*
Y0059470D01*
X0980191Y0058720D01*
X0982441Y0063219D02*
Y0058720D01*
Y0060970D01*
X0983190Y0061720D01*
X0984690D01*
X0985440Y0060970D01*
Y0058720D01*
X0989188D02*
X0987689D01*
X0986939Y0059470D01*
Y0060970D01*
X0987689Y0061720D01*
X0989188D01*
X0989938Y0060970D01*
Y0060220D01*
X0986939D01*
X0998935Y0063219D02*
Y0058720D01*
X0996686D01*
X0995936Y0059470D01*
Y0060970D01*
X0996686Y0061720D01*
X0998935D01*
X1002684Y0058720D02*
X1001185D01*
X1000435Y0059470D01*
Y0060970D01*
X1001185Y0061720D01*
X1002684D01*
X1003434Y0060970D01*
Y0060220D01*
X1000435D01*
X1004933Y0058720D02*
X1007183D01*
X1007932Y0059470D01*
X1007183Y0060220D01*
X1005683D01*
X1004933Y0060970D01*
X1005683Y0061720D01*
X1007932D01*
X1009432Y0058720D02*
X1010931D01*
X1010182D01*
Y0061720D01*
X1009432D01*
X1014680Y0057221D02*
X1015430D01*
X1016180Y0057971D01*
Y0061720D01*
X1013931D01*
X1013181Y0060970D01*
Y0059470D01*
X1013931Y0058720D01*
X1016180D01*
X1017679D02*
Y0061720D01*
X1019929D01*
X1020678Y0060970D01*
Y0058720D01*
X1026676D02*
X1028176D01*
X1027426D01*
Y0061720D01*
X1026676D01*
X1030425Y0058720D02*
X1032675D01*
X1033424Y0059470D01*
X1032675Y0060220D01*
X1031175D01*
X1030425Y0060970D01*
X1031175Y0061720D01*
X1033424D01*
X1039422Y0057221D02*
Y0061720D01*
X1041672D01*
X1042421Y0060970D01*
Y0059470D01*
X1041672Y0058720D01*
X1039422D01*
X1043921Y0061720D02*
Y0058720D01*
Y0060220D01*
X1044671Y0060970D01*
X1045420Y0061720D01*
X1046170D01*
X1049169Y0058720D02*
X1050669D01*
X1051418Y0059470D01*
Y0060970D01*
X1050669Y0061720D01*
X1049169D01*
X1048419Y0060970D01*
Y0059470D01*
X1049169Y0058720D01*
X1055917Y0063219D02*
Y0058720D01*
X1053668D01*
X1052918Y0059470D01*
Y0060970D01*
X1053668Y0061720D01*
X1055917D01*
X1057417D02*
Y0059470D01*
X1058166Y0058720D01*
X1060415D01*
Y0061720D01*
X1064914D02*
X1062665D01*
X1061915Y0060970D01*
Y0059470D01*
X1062665Y0058720D01*
X1064914D01*
X1067163Y0062469D02*
Y0061720D01*
X1066414D01*
X1067913D01*
X1067163D01*
Y0059470D01*
X1067913Y0058720D01*
X1070162D02*
X1071662D01*
X1070912D01*
Y0061720D01*
X1070162D01*
X1074661Y0058720D02*
X1076161D01*
X1076910Y0059470D01*
Y0060970D01*
X1076161Y0061720D01*
X1074661D01*
X1073911Y0060970D01*
Y0059470D01*
X1074661Y0058720D01*
X1078410D02*
Y0061720D01*
X1080659D01*
X1081409Y0060970D01*
Y0058720D01*
X1087407Y0061720D02*
Y0059470D01*
X1088157Y0058720D01*
X1088906Y0059470D01*
X1089656Y0058720D01*
X1090406Y0059470D01*
Y0061720D01*
X1092655Y0058720D02*
X1094155D01*
X1094904Y0059470D01*
Y0060970D01*
X1094155Y0061720D01*
X1092655D01*
X1091905Y0060970D01*
Y0059470D01*
X1092655Y0058720D01*
X1096404Y0061720D02*
Y0058720D01*
Y0060220D01*
X1097154Y0060970D01*
X1097904Y0061720D01*
X1098653D01*
X1101652Y0062469D02*
Y0061720D01*
X1100902D01*
X1102402D01*
X1101652D01*
Y0059470D01*
X1102402Y0058720D01*
X1104651Y0063219D02*
Y0058720D01*
Y0060970D01*
X1105401Y0061720D01*
X1106901D01*
X1107650Y0060970D01*
Y0058720D01*
X1109150Y0061720D02*
Y0059470D01*
X1109900Y0058720D01*
X1112149D01*
Y0057971D01*
X1111399Y0057221D01*
X1110649D01*
X1112149Y0058720D02*
Y0061720D01*
X1113648Y0058720D02*
Y0059470D01*
X1114398D01*
Y0058720D01*
X1113648D01*
X1121896Y0063219D02*
Y0062469D01*
X1123395Y0060970D01*
X1124895Y0062469D01*
Y0063219D01*
X1123395Y0060970D02*
Y0058720D01*
X1127144D02*
X1128644D01*
X1129393Y0059470D01*
Y0060970D01*
X1128644Y0061720D01*
X1127144D01*
X1126394Y0060970D01*
Y0059470D01*
X1127144Y0058720D01*
X1130893Y0061720D02*
Y0059470D01*
X1131643Y0058720D01*
X1133892D01*
Y0061720D01*
X1139890Y0058720D02*
X1142139D01*
X1142889Y0059470D01*
X1142139Y0060220D01*
X1140640D01*
X1139890Y0060970D01*
X1140640Y0061720D01*
X1142889D01*
X1144388Y0063219D02*
Y0058720D01*
Y0060970D01*
X1145138Y0061720D01*
X1146638D01*
X1147388Y0060970D01*
Y0058720D01*
X1149637D02*
X1151136D01*
X1151886Y0059470D01*
Y0060970D01*
X1151136Y0061720D01*
X1149637D01*
X1148887Y0060970D01*
Y0059470D01*
X1149637Y0058720D01*
X1153386Y0061720D02*
Y0059470D01*
X1154135Y0058720D01*
X1156385D01*
Y0061720D01*
X1157884Y0058720D02*
X1159384D01*
X1158634D01*
Y0063219D01*
X1157884D01*
X1164632D02*
Y0058720D01*
X1162383D01*
X1161633Y0059470D01*
Y0060970D01*
X1162383Y0061720D01*
X1164632D01*
X0709529Y0050453D02*
X0707279D01*
X0706530Y0049703D01*
Y0048204D01*
X0707279Y0047454D01*
X0709529D01*
X0711778D02*
X0713277D01*
X0714027Y0048204D01*
Y0049703D01*
X0713277Y0050453D01*
X0711778D01*
X0711028Y0049703D01*
Y0048204D01*
X0711778Y0047454D01*
X0715527D02*
Y0050453D01*
X0716277D01*
X0717026Y0049703D01*
Y0047454D01*
Y0049703D01*
X0717776Y0050453D01*
X0718526Y0049703D01*
Y0047454D01*
X0720025Y0045954D02*
Y0050453D01*
X0722275D01*
X0723024Y0049703D01*
Y0048204D01*
X0722275Y0047454D01*
X0720025D01*
X0724524D02*
X0726023D01*
X0725274D01*
Y0051952D01*
X0724524D01*
X0730522Y0047454D02*
X0729022D01*
X0728273Y0048204D01*
Y0049703D01*
X0729022Y0050453D01*
X0730522D01*
X0731272Y0049703D01*
Y0048954D01*
X0728273D01*
X0733521Y0051203D02*
Y0050453D01*
X0732771D01*
X0734271D01*
X0733521D01*
Y0048204D01*
X0734271Y0047454D01*
X0738769D02*
X0737270D01*
X0736520Y0048204D01*
Y0049703D01*
X0737270Y0050453D01*
X0738769D01*
X0739519Y0049703D01*
Y0048954D01*
X0736520D01*
X0741018Y0047454D02*
X0742518D01*
X0741768D01*
Y0051952D01*
X0741018D01*
X0744767Y0050453D02*
Y0048204D01*
X0745517Y0047454D01*
X0747766D01*
Y0046704D01*
X0747017Y0045954D01*
X0746267D01*
X0747766Y0047454D02*
Y0050453D01*
X0753764D02*
X0755264Y0047454D01*
X0756763Y0050453D01*
X0759013D02*
X0760512D01*
X0761262Y0049703D01*
Y0047454D01*
X0759013D01*
X0758263Y0048204D01*
X0759013Y0048954D01*
X0761262D01*
X0762761Y0047454D02*
X0764261D01*
X0763511D01*
Y0051952D01*
X0762761D01*
X0766510Y0047454D02*
X0768010D01*
X0767260D01*
Y0050453D01*
X0766510D01*
X0773258Y0051952D02*
Y0047454D01*
X0771009D01*
X0770259Y0048204D01*
Y0049703D01*
X0771009Y0050453D01*
X0773258D01*
X0775507D02*
X0777007D01*
X0777757Y0049703D01*
Y0047454D01*
X0775507D01*
X0774758Y0048204D01*
X0775507Y0048954D01*
X0777757D01*
X0780006Y0051203D02*
Y0050453D01*
X0779256D01*
X0780756D01*
X0780006D01*
Y0048204D01*
X0780756Y0047454D01*
X0785254D02*
X0783755D01*
X0783005Y0048204D01*
Y0049703D01*
X0783755Y0050453D01*
X0785254D01*
X0786004Y0049703D01*
Y0048954D01*
X0783005D01*
X0792752Y0050453D02*
X0794251D01*
X0795001Y0049703D01*
Y0047454D01*
X0792752D01*
X0792002Y0048204D01*
X0792752Y0048954D01*
X0795001D01*
X0796501Y0047454D02*
Y0050453D01*
X0798750D01*
X0799500Y0049703D01*
Y0047454D01*
X0803998Y0051952D02*
Y0047454D01*
X0801749D01*
X0800999Y0048204D01*
Y0049703D01*
X0801749Y0050453D01*
X0803998D01*
X0810746Y0051203D02*
Y0050453D01*
X0809996D01*
X0811496D01*
X0810746D01*
Y0048204D01*
X0811496Y0047454D01*
X0815994D02*
X0814495D01*
X0813745Y0048204D01*
Y0049703D01*
X0814495Y0050453D01*
X0815994D01*
X0816744Y0049703D01*
Y0048954D01*
X0813745D01*
X0818244Y0047454D02*
X0820493D01*
X0821243Y0048204D01*
X0820493Y0048954D01*
X0818993D01*
X0818244Y0049703D01*
X0818993Y0050453D01*
X0821243D01*
X0823492Y0051203D02*
Y0050453D01*
X0822742D01*
X0824242D01*
X0823492D01*
Y0048204D01*
X0824242Y0047454D01*
X0830989Y0050453D02*
Y0048204D01*
X0831739Y0047454D01*
X0833988D01*
Y0046704D01*
X0833239Y0045954D01*
X0832489D01*
X0833988Y0047454D02*
Y0050453D01*
X0836238Y0047454D02*
X0837737D01*
X0838487Y0048204D01*
Y0049703D01*
X0837737Y0050453D01*
X0836238D01*
X0835488Y0049703D01*
Y0048204D01*
X0836238Y0047454D01*
X0839987Y0050453D02*
Y0048204D01*
X0840736Y0047454D01*
X0842986D01*
Y0050453D01*
X0844485D02*
Y0047454D01*
Y0048954D01*
X0845235Y0049703D01*
X0845985Y0050453D01*
X0846734D01*
X0856481Y0051952D02*
Y0047454D01*
X0854232D01*
X0853482Y0048204D01*
Y0049703D01*
X0854232Y0050453D01*
X0856481D01*
X0860230Y0047454D02*
X0858731D01*
X0857981Y0048204D01*
Y0049703D01*
X0858731Y0050453D01*
X0860230D01*
X0860980Y0049703D01*
Y0048954D01*
X0857981D01*
X0862479Y0047454D02*
X0864729D01*
X0865478Y0048204D01*
X0864729Y0048954D01*
X0863229D01*
X0862479Y0049703D01*
X0863229Y0050453D01*
X0865478D01*
X0866978Y0047454D02*
X0868477D01*
X0867728D01*
Y0050453D01*
X0866978D01*
X0872226Y0045954D02*
X0872976D01*
X0873726Y0046704D01*
Y0050453D01*
X0871476D01*
X0870727Y0049703D01*
Y0048204D01*
X0871476Y0047454D01*
X0873726D01*
X0875225D02*
Y0050453D01*
X0877474D01*
X0878224Y0049703D01*
Y0047454D01*
X0884222D02*
X0885722D01*
X0884972D01*
Y0050453D01*
X0884222D01*
X0887971Y0047454D02*
Y0050453D01*
X0888721D01*
X0889471Y0049703D01*
Y0047454D01*
Y0049703D01*
X0890220Y0050453D01*
X0890970Y0049703D01*
Y0047454D01*
X0892470Y0045954D02*
Y0050453D01*
X0894719D01*
X0895469Y0049703D01*
Y0048204D01*
X0894719Y0047454D01*
X0892470D01*
X0896968D02*
X0898468D01*
X0897718D01*
Y0051952D01*
X0896968D01*
X0902966Y0047454D02*
X0901467D01*
X0900717Y0048204D01*
Y0049703D01*
X0901467Y0050453D01*
X0902966D01*
X0903716Y0049703D01*
Y0048954D01*
X0900717D01*
X0905216Y0047454D02*
Y0050453D01*
X0905965D01*
X0906715Y0049703D01*
Y0047454D01*
Y0049703D01*
X0907465Y0050453D01*
X0908215Y0049703D01*
Y0047454D01*
X0911963D02*
X0910464D01*
X0909714Y0048204D01*
Y0049703D01*
X0910464Y0050453D01*
X0911963D01*
X0912713Y0049703D01*
Y0048954D01*
X0909714D01*
X0914213Y0047454D02*
Y0050453D01*
X0916462D01*
X0917212Y0049703D01*
Y0047454D01*
X0919461Y0051203D02*
Y0050453D01*
X0918711D01*
X0920211D01*
X0919461D01*
Y0048204D01*
X0920211Y0047454D01*
X0923210Y0050453D02*
X0924709D01*
X0925459Y0049703D01*
Y0047454D01*
X0923210D01*
X0922460Y0048204D01*
X0923210Y0048954D01*
X0925459D01*
X0927708Y0051203D02*
Y0050453D01*
X0926959D01*
X0928458D01*
X0927708D01*
Y0048204D01*
X0928458Y0047454D01*
X0930707D02*
X0932207D01*
X0931457D01*
Y0050453D01*
X0930707D01*
X0935206Y0047454D02*
X0936705D01*
X0937455Y0048204D01*
Y0049703D01*
X0936705Y0050453D01*
X0935206D01*
X0934456Y0049703D01*
Y0048204D01*
X0935206Y0047454D01*
X0938955D02*
Y0050453D01*
X0941204D01*
X0941954Y0049703D01*
Y0047454D01*
X0948702Y0051203D02*
Y0050453D01*
X0947952D01*
X0949451D01*
X0948702D01*
Y0048204D01*
X0949451Y0047454D01*
X0952450D02*
X0953950D01*
X0954700Y0048204D01*
Y0049703D01*
X0953950Y0050453D01*
X0952450D01*
X0951701Y0049703D01*
Y0048204D01*
X0952450Y0047454D01*
X0963697Y0050453D02*
X0961448D01*
X0960698Y0049703D01*
Y0048204D01*
X0961448Y0047454D01*
X0963697D01*
X0965946D02*
X0967445D01*
X0968195Y0048204D01*
Y0049703D01*
X0967445Y0050453D01*
X0965946D01*
X0965196Y0049703D01*
Y0048204D01*
X0965946Y0047454D01*
X0969695D02*
Y0050453D01*
X0971944D01*
X0972694Y0049703D01*
Y0047454D01*
X0974943D02*
Y0051203D01*
Y0049703D01*
X0974193D01*
X0975693D01*
X0974943D01*
Y0051203D01*
X0975693Y0051952D01*
X0977942Y0047454D02*
X0979442D01*
X0978692D01*
Y0050453D01*
X0977942D01*
X0981691D02*
Y0047454D01*
Y0048954D01*
X0982441Y0049703D01*
X0983190Y0050453D01*
X0983940D01*
X0986189Y0047454D02*
Y0050453D01*
X0986939D01*
X0987689Y0049703D01*
Y0047454D01*
Y0049703D01*
X0988439Y0050453D01*
X0989188Y0049703D01*
Y0047454D01*
X0995936Y0051203D02*
Y0050453D01*
X0995187D01*
X0996686D01*
X0995936D01*
Y0048204D01*
X0996686Y0047454D01*
X0998935Y0051952D02*
Y0047454D01*
Y0049703D01*
X0999685Y0050453D01*
X1001185D01*
X1001934Y0049703D01*
Y0047454D01*
X1005683D02*
X1004184D01*
X1003434Y0048204D01*
Y0049703D01*
X1004184Y0050453D01*
X1005683D01*
X1006433Y0049703D01*
Y0048954D01*
X1003434D01*
X1012431Y0047454D02*
X1014680D01*
X1015430Y0048204D01*
X1014680Y0048954D01*
X1013181D01*
X1012431Y0049703D01*
X1013181Y0050453D01*
X1015430D01*
X1016930D02*
Y0048204D01*
X1017679Y0047454D01*
X1019929D01*
Y0046704D01*
X1019179Y0045954D01*
X1018429D01*
X1019929Y0047454D02*
Y0050453D01*
X1021428Y0047454D02*
X1023677D01*
X1024427Y0048204D01*
X1023677Y0048954D01*
X1022178D01*
X1021428Y0049703D01*
X1022178Y0050453D01*
X1024427D01*
X1026676Y0051203D02*
Y0050453D01*
X1025927D01*
X1027426D01*
X1026676D01*
Y0048204D01*
X1027426Y0047454D01*
X1031925D02*
X1030425D01*
X1029675Y0048204D01*
Y0049703D01*
X1030425Y0050453D01*
X1031925D01*
X1032675Y0049703D01*
Y0048954D01*
X1029675D01*
X1034174Y0047454D02*
Y0050453D01*
X1034924D01*
X1035674Y0049703D01*
Y0047454D01*
Y0049703D01*
X1036423Y0050453D01*
X1037173Y0049703D01*
Y0047454D01*
X1043921D02*
Y0051203D01*
Y0049703D01*
X1043171D01*
X1044671D01*
X1043921D01*
Y0051203D01*
X1044671Y0051952D01*
X1046920Y0050453D02*
Y0048204D01*
X1047670Y0047454D01*
X1049919D01*
Y0050453D01*
X1051418Y0047454D02*
Y0050453D01*
X1053668D01*
X1054418Y0049703D01*
Y0047454D01*
X1058916Y0050453D02*
X1056667D01*
X1055917Y0049703D01*
Y0048204D01*
X1056667Y0047454D01*
X1058916D01*
X1061165Y0051203D02*
Y0050453D01*
X1060415D01*
X1061915D01*
X1061165D01*
Y0048204D01*
X1061915Y0047454D01*
X1064164D02*
X1065664D01*
X1064914D01*
Y0050453D01*
X1064164D01*
X1068663Y0047454D02*
X1070162D01*
X1070912Y0048204D01*
Y0049703D01*
X1070162Y0050453D01*
X1068663D01*
X1067913Y0049703D01*
Y0048204D01*
X1068663Y0047454D01*
X1072412D02*
Y0050453D01*
X1074661D01*
X1075411Y0049703D01*
Y0047454D01*
X1077660Y0050453D02*
X1079160D01*
X1079909Y0049703D01*
Y0047454D01*
X1077660D01*
X1076910Y0048204D01*
X1077660Y0048954D01*
X1079909D01*
X1081409Y0047454D02*
X1082908D01*
X1082158D01*
Y0051952D01*
X1081409D01*
X1085158Y0047454D02*
X1086657D01*
X1085907D01*
Y0050453D01*
X1085158D01*
X1089656Y0051203D02*
Y0050453D01*
X1088906D01*
X1090406D01*
X1089656D01*
Y0048204D01*
X1090406Y0047454D01*
X1092655Y0050453D02*
Y0048204D01*
X1093405Y0047454D01*
X1095654D01*
Y0046704D01*
X1094904Y0045954D01*
X1094155D01*
X1095654Y0047454D02*
Y0050453D01*
X1102402Y0047454D02*
Y0051203D01*
Y0049703D01*
X1101652D01*
X1103152D01*
X1102402D01*
Y0051203D01*
X1103152Y0051952D01*
X1106151Y0047454D02*
X1107650D01*
X1108400Y0048204D01*
Y0049703D01*
X1107650Y0050453D01*
X1106151D01*
X1105401Y0049703D01*
Y0048204D01*
X1106151Y0047454D01*
X1109900Y0050453D02*
Y0047454D01*
Y0048954D01*
X1110649Y0049703D01*
X1111399Y0050453D01*
X1112149D01*
X1118897D02*
Y0048204D01*
X1119646Y0047454D01*
X1121896D01*
Y0046704D01*
X1121146Y0045954D01*
X1120396D01*
X1121896Y0047454D02*
Y0050453D01*
X1124145Y0047454D02*
X1125644D01*
X1126394Y0048204D01*
Y0049703D01*
X1125644Y0050453D01*
X1124145D01*
X1123395Y0049703D01*
Y0048204D01*
X1124145Y0047454D01*
X1127894Y0050453D02*
Y0048204D01*
X1128644Y0047454D01*
X1130893D01*
Y0050453D01*
X1132392D02*
Y0047454D01*
Y0048954D01*
X1133142Y0049703D01*
X1133892Y0050453D01*
X1134642D01*
X1142139D02*
X1143639D01*
X1144388Y0049703D01*
Y0047454D01*
X1142139D01*
X1141389Y0048204D01*
X1142139Y0048954D01*
X1144388D01*
X1145888Y0045954D02*
Y0050453D01*
X1148137D01*
X1148887Y0049703D01*
Y0048204D01*
X1148137Y0047454D01*
X1145888D01*
X1150387Y0045954D02*
Y0050453D01*
X1152636D01*
X1153386Y0049703D01*
Y0048204D01*
X1152636Y0047454D01*
X1150387D01*
X1154885D02*
X1156385D01*
X1155635D01*
Y0051952D01*
X1154885D01*
X1158634Y0047454D02*
X1160133D01*
X1159384D01*
Y0050453D01*
X1158634D01*
X1165382D02*
X1163132D01*
X1162383Y0049703D01*
Y0048204D01*
X1163132Y0047454D01*
X1165382D01*
X1167631Y0050453D02*
X1169131D01*
X1169880Y0049703D01*
Y0047454D01*
X1167631D01*
X1166881Y0048204D01*
X1167631Y0048954D01*
X1169880D01*
X1172130Y0051203D02*
Y0050453D01*
X1171380D01*
X1172879D01*
X1172130D01*
Y0048204D01*
X1172879Y0047454D01*
X1175128D02*
X1176628D01*
X1175878D01*
Y0050453D01*
X1175128D01*
X1179627Y0047454D02*
X1181127D01*
X1181876Y0048204D01*
Y0049703D01*
X1181127Y0050453D01*
X1179627D01*
X1178877Y0049703D01*
Y0048204D01*
X1179627Y0047454D01*
X1183376D02*
Y0050453D01*
X1185625D01*
X1186375Y0049703D01*
Y0047454D01*
X1187874D02*
Y0048204D01*
X1188624D01*
Y0047454D01*
X1187874D01*
G54D16*
X1353980Y0096203D02*
Y0091704D01*
X1356551D01*
X1360471D02*
X1358757Y0096203D01*
X1357043Y0091704D01*
X1357686Y0093204D02*
X1359828D01*
X1361521Y0096203D02*
X1363235Y0094061D01*
Y0091704D01*
X1364949Y0096203D02*
X1363235Y0094061D01*
X1366813Y0096203D02*
X1366384Y0095989D01*
X1365956Y0095560D01*
X1365741Y0095132D01*
X1365527Y0094489D01*
Y0093418D01*
X1365741Y0092775D01*
X1365956Y0092347D01*
X1366384Y0091918D01*
X1366813Y0091704D01*
X1367670D01*
X1368098Y0091918D01*
X1368526Y0092347D01*
X1368741Y0092775D01*
X1368955Y0093418D01*
Y0094489D01*
X1368741Y0095132D01*
X1368526Y0095560D01*
X1368098Y0095989D01*
X1367670Y0096203D01*
X1366813D01*
X1370005D02*
Y0092989D01*
X1370219Y0092347D01*
X1370648Y0091918D01*
X1371290Y0091704D01*
X1371719D01*
X1372361Y0091918D01*
X1372790Y0092347D01*
X1373004Y0092989D01*
Y0096203D01*
X1375746D02*
Y0091704D01*
X1374247Y0096203D02*
X1377246D01*
X1381317D02*
Y0091704D01*
Y0096203D02*
X1383245D01*
X1383887Y0095989D01*
X1384102Y0095775D01*
X1384316Y0095346D01*
Y0094918D01*
X1384102Y0094489D01*
X1383887Y0094275D01*
X1383245Y0094061D01*
X1381317D02*
X1383245D01*
X1383887Y0093846D01*
X1384102Y0093632D01*
X1384316Y0093204D01*
Y0092561D01*
X1384102Y0092132D01*
X1383887Y0091918D01*
X1383245Y0091704D01*
X1381317D01*
X1385323Y0096203D02*
X1387037Y0094061D01*
Y0091704D01*
X1388751Y0096203D02*
X1387037Y0094061D01*
X1389543Y0094703D02*
X1389329Y0094489D01*
X1389543Y0094275D01*
X1389758Y0094489D01*
X1389543Y0094703D01*
Y0092132D02*
X1389329Y0091918D01*
X1389543Y0091704D01*
X1389758Y0091918D01*
X1389543Y0092132D01*
X1357407Y0060704D02*
X1355694Y0065203D01*
X1353980Y0060704D01*
X1354622Y0062204D02*
X1356765D01*
X1358457Y0065203D02*
Y0060704D01*
X1361028D01*
X1363021Y0065203D02*
Y0060704D01*
X1361521Y0065203D02*
X1364520D01*
X1365056D02*
Y0060704D01*
X1365998Y0065203D02*
Y0061989D01*
X1366213Y0061347D01*
X1366641Y0060918D01*
X1367284Y0060704D01*
X1367712D01*
X1368355Y0060918D01*
X1368784Y0061347D01*
X1368998Y0061989D01*
Y0065203D01*
X1370240D02*
Y0060704D01*
Y0065203D02*
X1371954Y0060704D01*
X1373668Y0065203D02*
X1371954Y0060704D01*
X1373668Y0065203D02*
Y0060704D01*
X1378489Y0065203D02*
Y0060704D01*
Y0065203D02*
X1379988D01*
X1380631Y0064989D01*
X1381060Y0064560D01*
X1381274Y0064132D01*
X1381488Y0063489D01*
Y0062418D01*
X1381274Y0061775D01*
X1381060Y0061347D01*
X1380631Y0060918D01*
X1379988Y0060704D01*
X1378489D01*
X1385280Y0065203D02*
X1382495D01*
Y0060704D01*
X1385280D01*
X1382495Y0063061D02*
X1384209D01*
X1389029Y0064560D02*
X1388601Y0064989D01*
X1387958Y0065203D01*
X1387101D01*
X1386458Y0064989D01*
X1386030Y0064560D01*
Y0064132D01*
X1386244Y0063703D01*
X1386458Y0063489D01*
X1386887Y0063275D01*
X1388172Y0062846D01*
X1388601Y0062632D01*
X1388815Y0062418D01*
X1389029Y0061989D01*
Y0061347D01*
X1388601Y0060918D01*
X1387958Y0060704D01*
X1387101D01*
X1386458Y0060918D01*
X1386030Y0061347D01*
X1390036Y0065203D02*
Y0060704D01*
X1394193Y0064132D02*
X1393978Y0064560D01*
X1393550Y0064989D01*
X1393121Y0065203D01*
X1392264D01*
X1391836Y0064989D01*
X1391407Y0064560D01*
X1391193Y0064132D01*
X1390979Y0063489D01*
Y0062418D01*
X1391193Y0061775D01*
X1391407Y0061347D01*
X1391836Y0060918D01*
X1392264Y0060704D01*
X1393121D01*
X1393550Y0060918D01*
X1393978Y0061347D01*
X1394193Y0061775D01*
Y0062418D01*
X1393121D02*
X1394193D01*
X1395221Y0065203D02*
Y0060704D01*
Y0065203D02*
X1398220Y0060704D01*
Y0065203D02*
Y0060704D01*
X1402248Y0065203D02*
X1399463D01*
Y0060704D01*
X1402248D01*
X1399463Y0063061D02*
X1401177D01*
X1402998Y0065203D02*
Y0060704D01*
Y0065203D02*
X1404926D01*
X1405569Y0064989D01*
X1405783Y0064775D01*
X1405997Y0064346D01*
Y0063918D01*
X1405783Y0063489D01*
X1405569Y0063275D01*
X1404926Y0063061D01*
X1402998D01*
X1404497D02*
X1405997Y0060704D01*
X1410539Y0065203D02*
X1412253Y0060704D01*
X1413967Y0065203D02*
X1412253Y0060704D01*
X1417330Y0065203D02*
X1414545D01*
Y0060704D01*
X1417330D01*
X1414545Y0063061D02*
X1416259D01*
X1418080Y0065203D02*
Y0060704D01*
Y0065203D02*
X1420008D01*
X1420651Y0064989D01*
X1420865Y0064775D01*
X1421080Y0064346D01*
Y0063918D01*
X1420865Y0063489D01*
X1420651Y0063275D01*
X1420008Y0063061D01*
X1418080D01*
X1419580D02*
X1421080Y0060704D01*
X1425086Y0064560D02*
X1424657Y0064989D01*
X1424015Y0065203D01*
X1423158D01*
X1422515Y0064989D01*
X1422087Y0064560D01*
Y0064132D01*
X1422301Y0063703D01*
X1422515Y0063489D01*
X1422943Y0063275D01*
X1424229Y0062846D01*
X1424657Y0062632D01*
X1424872Y0062418D01*
X1425086Y0061989D01*
Y0061347D01*
X1424657Y0060918D01*
X1424015Y0060704D01*
X1423158D01*
X1422515Y0060918D01*
X1422087Y0061347D01*
X1426093Y0065203D02*
Y0060704D01*
X1428321Y0065203D02*
X1427892Y0064989D01*
X1427464Y0064560D01*
X1427250Y0064132D01*
X1427035Y0063489D01*
Y0062418D01*
X1427250Y0061775D01*
X1427464Y0061347D01*
X1427892Y0060918D01*
X1428321Y0060704D01*
X1429178D01*
X1429606Y0060918D01*
X1430035Y0061347D01*
X1430249Y0061775D01*
X1430463Y0062418D01*
Y0063489D01*
X1430249Y0064132D01*
X1430035Y0064560D01*
X1429606Y0064989D01*
X1429178Y0065203D01*
X1428321D01*
X1431513D02*
Y0060704D01*
Y0065203D02*
X1434512Y0060704D01*
Y0065203D02*
Y0060704D01*
X1435969Y0063703D02*
X1435755Y0063489D01*
X1435969Y0063275D01*
X1436183Y0063489D01*
X1435969Y0063703D01*
Y0061132D02*
X1435755Y0060918D01*
X1435969Y0060704D01*
X1436183Y0060918D01*
X1435969Y0061132D01*
X1203480Y0182946D02*
X1205408D01*
X1206050Y0183161D01*
X1206265Y0183375D01*
X1206479Y0183803D01*
Y0184446D01*
X1206265Y0184874D01*
X1206050Y0185089D01*
X1205408Y0185303D01*
X1203480D01*
Y0180804D01*
X1207486Y0185303D02*
Y0180804D01*
Y0185303D02*
X1209414D01*
X1210057Y0185089D01*
X1210271Y0184874D01*
X1210485Y0184446D01*
Y0184018D01*
X1210271Y0183589D01*
X1210057Y0183375D01*
X1209414Y0183161D01*
X1207486D01*
X1208986D02*
X1210485Y0180804D01*
X1212778Y0185303D02*
X1212349Y0185089D01*
X1211921Y0184660D01*
X1211706Y0184232D01*
X1211492Y0183589D01*
Y0182518D01*
X1211706Y0181875D01*
X1211921Y0181447D01*
X1212349Y0181018D01*
X1212778Y0180804D01*
X1213635D01*
X1214063Y0181018D01*
X1214492Y0181447D01*
X1214706Y0181875D01*
X1214920Y0182518D01*
Y0183589D01*
X1214706Y0184232D01*
X1214492Y0184660D01*
X1214063Y0185089D01*
X1213635Y0185303D01*
X1212778D01*
X1218112D02*
Y0181875D01*
X1217898Y0181232D01*
X1217684Y0181018D01*
X1217255Y0180804D01*
X1216827D01*
X1216398Y0181018D01*
X1216184Y0181232D01*
X1215970Y0181875D01*
Y0182304D01*
X1222054Y0185303D02*
X1219269D01*
Y0180804D01*
X1222054D01*
X1219269Y0183161D02*
X1220983D01*
X1226018Y0184232D02*
X1225803Y0184660D01*
X1225375Y0185089D01*
X1224946Y0185303D01*
X1224090D01*
X1223661Y0185089D01*
X1223232Y0184660D01*
X1223018Y0184232D01*
X1222804Y0183589D01*
Y0182518D01*
X1223018Y0181875D01*
X1223232Y0181447D01*
X1223661Y0181018D01*
X1224090Y0180804D01*
X1224946D01*
X1225375Y0181018D01*
X1225803Y0181447D01*
X1226018Y0181875D01*
X1228781Y0185303D02*
Y0180804D01*
X1227282Y0185303D02*
X1230281D01*
X1235851D02*
Y0180804D01*
X1234352Y0185303D02*
X1237351D01*
X1237887D02*
Y0180804D01*
X1240329Y0185303D02*
Y0180804D01*
X1238829Y0185303D02*
X1241829D01*
X1242364D02*
Y0180804D01*
X1244935D01*
X1248213Y0185303D02*
X1245428D01*
Y0180804D01*
X1248213D01*
X1245428Y0183161D02*
X1247142D01*
X1249177Y0183803D02*
X1248963Y0183589D01*
X1249177Y0183375D01*
X1249391Y0183589D01*
X1249177Y0183803D01*
Y0181232D02*
X1248963Y0181018D01*
X1249177Y0180804D01*
X1249391Y0181018D01*
X1249177Y0181232D01*
X1203480Y0155203D02*
Y0150704D01*
Y0155203D02*
X1204979D01*
X1205622Y0154989D01*
X1206050Y0154560D01*
X1206265Y0154132D01*
X1206479Y0153489D01*
Y0152418D01*
X1206265Y0151775D01*
X1206050Y0151347D01*
X1205622Y0150918D01*
X1204979Y0150704D01*
X1203480D01*
X1210271Y0155203D02*
X1207486D01*
Y0150704D01*
X1210271D01*
X1207486Y0153061D02*
X1209200D01*
X1214020Y0154560D02*
X1213592Y0154989D01*
X1212949Y0155203D01*
X1212092D01*
X1211449Y0154989D01*
X1211021Y0154560D01*
Y0154132D01*
X1211235Y0153703D01*
X1211449Y0153489D01*
X1211878Y0153275D01*
X1213163Y0152846D01*
X1213592Y0152632D01*
X1213806Y0152418D01*
X1214020Y0151989D01*
Y0151347D01*
X1213592Y0150918D01*
X1212949Y0150704D01*
X1212092D01*
X1211449Y0150918D01*
X1211021Y0151347D01*
X1215027Y0155203D02*
Y0150704D01*
X1219183Y0154132D02*
X1218969Y0154560D01*
X1218541Y0154989D01*
X1218112Y0155203D01*
X1217255D01*
X1216827Y0154989D01*
X1216398Y0154560D01*
X1216184Y0154132D01*
X1215970Y0153489D01*
Y0152418D01*
X1216184Y0151775D01*
X1216398Y0151347D01*
X1216827Y0150918D01*
X1217255Y0150704D01*
X1218112D01*
X1218541Y0150918D01*
X1218969Y0151347D01*
X1219183Y0151775D01*
Y0152418D01*
X1218112D02*
X1219183D01*
X1220212Y0155203D02*
Y0150704D01*
Y0155203D02*
X1223211Y0150704D01*
Y0155203D02*
Y0150704D01*
X1227239Y0155203D02*
X1224454D01*
Y0150704D01*
X1227239D01*
X1224454Y0153061D02*
X1226168D01*
X1227989Y0155203D02*
Y0150704D01*
Y0155203D02*
X1229488D01*
X1230131Y0154989D01*
X1230560Y0154560D01*
X1230774Y0154132D01*
X1230988Y0153489D01*
Y0152418D01*
X1230774Y0151775D01*
X1230560Y0151347D01*
X1230131Y0150918D01*
X1229488Y0150704D01*
X1227989D01*
X1235530Y0155203D02*
Y0150704D01*
Y0155203D02*
X1238315D01*
X1235530Y0153061D02*
X1237244D01*
X1240115Y0155203D02*
X1239686Y0154989D01*
X1239258Y0154560D01*
X1239043Y0154132D01*
X1238829Y0153489D01*
Y0152418D01*
X1239043Y0151775D01*
X1239258Y0151347D01*
X1239686Y0150918D01*
X1240115Y0150704D01*
X1240972D01*
X1241400Y0150918D01*
X1241829Y0151347D01*
X1242043Y0151775D01*
X1242257Y0152418D01*
Y0153489D01*
X1242043Y0154132D01*
X1241829Y0154560D01*
X1241400Y0154989D01*
X1240972Y0155203D01*
X1240115D01*
X1243307D02*
Y0150704D01*
Y0155203D02*
X1245235D01*
X1245878Y0154989D01*
X1246092Y0154774D01*
X1246306Y0154346D01*
Y0153918D01*
X1246092Y0153489D01*
X1245878Y0153275D01*
X1245235Y0153061D01*
X1243307D01*
X1244806D02*
X1246306Y0150704D01*
X1247527Y0153703D02*
X1247313Y0153489D01*
X1247527Y0153275D01*
X1247742Y0153489D01*
X1247527Y0153703D01*
Y0151132D02*
X1247313Y0150918D01*
X1247527Y0150704D01*
X1247742Y0150918D01*
X1247527Y0151132D01*
X1203480Y0125203D02*
Y0120704D01*
Y0125203D02*
X1206265D01*
X1203480Y0123061D02*
X1205194D01*
X1206779Y0125203D02*
Y0120704D01*
X1207722Y0125203D02*
Y0120704D01*
X1210293D01*
X1213570Y0125203D02*
X1210785D01*
Y0120704D01*
X1213570D01*
X1210785Y0123061D02*
X1212499D01*
X1217855Y0125203D02*
Y0120704D01*
Y0125203D02*
X1220854Y0120704D01*
Y0125203D02*
Y0120704D01*
X1225525D02*
X1223811Y0125203D01*
X1222097Y0120704D01*
X1222740Y0122204D02*
X1224882D01*
X1226575Y0125203D02*
Y0120704D01*
Y0125203D02*
X1228289Y0120704D01*
X1230002Y0125203D02*
X1228289Y0120704D01*
X1230002Y0125203D02*
Y0120704D01*
X1234073Y0125203D02*
X1231288D01*
Y0120704D01*
X1234073D01*
X1231288Y0123061D02*
X1233002D01*
X1235037Y0123703D02*
X1234823Y0123489D01*
X1235037Y0123275D01*
X1235251Y0123489D01*
X1235037Y0123703D01*
Y0121132D02*
X1234823Y0120918D01*
X1235037Y0120704D01*
X1235251Y0120918D01*
X1235037Y0121132D01*
X1206265Y0096203D02*
X1203480D01*
Y0091704D01*
X1206265D01*
X1203480Y0094061D02*
X1205194D01*
X1207015Y0096203D02*
Y0091704D01*
Y0096203D02*
X1210014Y0091704D01*
Y0096203D02*
Y0091704D01*
X1214470Y0095132D02*
X1214256Y0095560D01*
X1213827Y0095989D01*
X1213399Y0096203D01*
X1212542D01*
X1212113Y0095989D01*
X1211685Y0095560D01*
X1211471Y0095132D01*
X1211257Y0094489D01*
Y0093418D01*
X1211471Y0092775D01*
X1211685Y0092347D01*
X1212113Y0091918D01*
X1212542Y0091704D01*
X1213399D01*
X1213827Y0091918D01*
X1214256Y0092347D01*
X1214470Y0092775D01*
Y0093418D01*
X1213399D02*
X1214470D01*
X1215499Y0096203D02*
Y0091704D01*
X1216441Y0096203D02*
Y0091704D01*
Y0096203D02*
X1219440Y0091704D01*
Y0096203D02*
Y0091704D01*
X1223468Y0096203D02*
X1220683D01*
Y0091704D01*
X1223468D01*
X1220683Y0094061D02*
X1222397D01*
X1227003Y0096203D02*
X1224218D01*
Y0091704D01*
X1227003D01*
X1224218Y0094061D02*
X1225932D01*
X1227753Y0096203D02*
Y0091704D01*
Y0096203D02*
X1229681D01*
X1230324Y0095989D01*
X1230538Y0095775D01*
X1230752Y0095346D01*
Y0094918D01*
X1230538Y0094489D01*
X1230324Y0094275D01*
X1229681Y0094061D01*
X1227753D01*
X1229253D02*
X1230752Y0091704D01*
X1231974Y0094703D02*
X1231759Y0094489D01*
X1231974Y0094275D01*
X1232188Y0094489D01*
X1231974Y0094703D01*
Y0092132D02*
X1231759Y0091918D01*
X1231974Y0091704D01*
X1232188Y0091918D01*
X1231974Y0092132D01*
G54D20*
X0126830Y0067205D02*
Y0073203D01*
X0128829Y0071203D01*
X0130828Y0073203D01*
Y0067205D01*
X0132828Y0068204D02*
X0133827Y0067205D01*
X0135827D01*
X0136826Y0068204D01*
Y0072203D01*
X0135827Y0073203D01*
X0133827D01*
X0132828Y0072203D01*
Y0071203D01*
X0133827Y0070204D01*
X0136826D01*
X0144824Y0073203D02*
X0148822D01*
X0146823D01*
Y0067205D01*
X0150822D02*
X0152821D01*
X0151822D01*
Y0071203D01*
X0150822D01*
X0156820Y0072203D02*
Y0071203D01*
X0155820D01*
X0157820D01*
X0156820D01*
Y0068204D01*
X0157820Y0067205D01*
X0160819D02*
X0162818D01*
X0161818D01*
Y0073203D01*
X0160819D01*
X0168816Y0067205D02*
X0166817D01*
X0165817Y0068204D01*
Y0070204D01*
X0166817Y0071203D01*
X0168816D01*
X0169816Y0070204D01*
Y0069204D01*
X0165817D01*
X0181812Y0072203D02*
X0180812Y0073203D01*
X0178813D01*
X0177813Y0072203D01*
Y0071203D01*
X0178813Y0070204D01*
X0180812D01*
X0181812Y0069204D01*
Y0068204D01*
X0180812Y0067205D01*
X0178813D01*
X0177813Y0068204D01*
X0183811Y0073203D02*
Y0067205D01*
Y0070204D01*
X0184811Y0071203D01*
X0186810D01*
X0187810Y0070204D01*
Y0067205D01*
X0192808D02*
X0190809D01*
X0189809Y0068204D01*
Y0070204D01*
X0190809Y0071203D01*
X0192808D01*
X0193808Y0070204D01*
Y0069204D01*
X0189809D01*
X0198806Y0067205D02*
X0196807D01*
X0195807Y0068204D01*
Y0070204D01*
X0196807Y0071203D01*
X0198806D01*
X0199806Y0070204D01*
Y0069204D01*
X0195807D01*
X0202805Y0072203D02*
Y0071203D01*
X0201805D01*
X0203805D01*
X0202805D01*
Y0068204D01*
X0203805Y0067205D01*
X0567280Y0087441D02*
Y0093440D01*
X0571278Y0087441D01*
Y0093440D01*
X0574277Y0087441D02*
X0576277D01*
X0577276Y0088441D01*
Y0090440D01*
X0576277Y0091440D01*
X0574277D01*
X0573278Y0090440D01*
Y0088441D01*
X0574277Y0087441D01*
X0580275Y0092440D02*
Y0091440D01*
X0579276D01*
X0581275D01*
X0580275D01*
Y0088441D01*
X0581275Y0087441D01*
X0590272D02*
X0592272D01*
X0591272D01*
Y0091440D01*
X0590272D01*
X0595271Y0087441D02*
Y0091440D01*
X0598270D01*
X0599269Y0090440D01*
Y0087441D01*
X0607267Y0091440D02*
X0609266Y0087441D01*
X0611265Y0091440D01*
X0616264Y0087441D02*
X0614264D01*
X0613265Y0088441D01*
Y0090440D01*
X0614264Y0091440D01*
X0616264D01*
X0617264Y0090440D01*
Y0089441D01*
X0613265D01*
X0619263Y0091440D02*
Y0087441D01*
Y0089441D01*
X0620262Y0090440D01*
X0621262Y0091440D01*
X0622262D01*
X0625261Y0087441D02*
X0628260D01*
X0629260Y0088441D01*
X0628260Y0089441D01*
X0626261D01*
X0625261Y0090440D01*
X0626261Y0091440D01*
X0629260D01*
X0631259Y0087441D02*
X0633258D01*
X0632259D01*
Y0091440D01*
X0631259D01*
X0637257Y0087441D02*
X0639256D01*
X0640256Y0088441D01*
Y0090440D01*
X0639256Y0091440D01*
X0637257D01*
X0636257Y0090440D01*
Y0088441D01*
X0637257Y0087441D01*
X0642255D02*
Y0091440D01*
X0645254D01*
X0646254Y0090440D01*
Y0087441D01*
X0658250Y0091440D02*
X0655251D01*
X0654251Y0090440D01*
Y0088441D01*
X0655251Y0087441D01*
X0658250D01*
X0661249D02*
X0663249D01*
X0664248Y0088441D01*
Y0090440D01*
X0663249Y0091440D01*
X0661249D01*
X0660250Y0090440D01*
Y0088441D01*
X0661249Y0087441D01*
X0666248D02*
Y0091440D01*
X0669247D01*
X0670246Y0090440D01*
Y0087441D01*
X0673245Y0092440D02*
Y0091440D01*
X0672246D01*
X0674245D01*
X0673245D01*
Y0088441D01*
X0674245Y0087441D01*
X0677244Y0091440D02*
Y0087441D01*
Y0089441D01*
X0678244Y0090440D01*
X0679243Y0091440D01*
X0680243D01*
X0684242Y0087441D02*
X0686241D01*
X0687241Y0088441D01*
Y0090440D01*
X0686241Y0091440D01*
X0684242D01*
X0683242Y0090440D01*
Y0088441D01*
X0684242Y0087441D01*
X0689240D02*
X0691240D01*
X0690240D01*
Y0093440D01*
X0689240D01*
X0520678Y0092440D02*
X0519679Y0093440D01*
X0517679D01*
X0516680Y0092440D01*
Y0091440D01*
X0517679Y0090440D01*
X0519679D01*
X0520678Y0089441D01*
Y0088441D01*
X0519679Y0087441D01*
X0517679D01*
X0516680Y0088441D01*
X0522678Y0093440D02*
Y0089441D01*
X0524677Y0087441D01*
X0526676Y0089441D01*
Y0093440D01*
X0528676Y0087441D02*
Y0093440D01*
X0532675Y0087441D01*
Y0093440D01*
X0540672Y0087441D02*
Y0093440D01*
X0543671D01*
X0544671Y0092440D01*
Y0090440D01*
X0543671Y0089441D01*
X0540672D01*
X0542671D02*
X0544671Y0087441D01*
X0550669Y0093440D02*
X0546670D01*
Y0087441D01*
X0550669D01*
X0546670Y0090440D02*
X0548669D01*
X0552668Y0093440D02*
Y0089441D01*
X0554667Y0087441D01*
X0556667Y0089441D01*
Y0093440D01*
X0558666Y0091440D02*
X0559666D01*
Y0090440D01*
X0558666D01*
Y0091440D01*
Y0088441D02*
X0559666D01*
Y0087441D01*
X0558666D01*
Y0088441D01*
X0432880Y0087441D02*
Y0093440D01*
X0435879D01*
X0436878Y0092440D01*
Y0090440D01*
X0435879Y0089441D01*
X0432880D01*
X0434879D02*
X0436878Y0087441D01*
X0442876Y0093440D02*
X0438878D01*
Y0087441D01*
X0442876D01*
X0438878Y0090440D02*
X0440877D01*
X0444876Y0093440D02*
Y0089441D01*
X0446875Y0087441D01*
X0448875Y0089441D01*
Y0093440D01*
X0450874Y0091440D02*
X0451873D01*
Y0090440D01*
X0450874D01*
Y0091440D01*
Y0088441D02*
X0451873D01*
Y0087441D01*
X0450874D01*
Y0088441D01*
X0126780Y0046575D02*
Y0052573D01*
X0128779Y0050573D01*
X0130778Y0052573D01*
Y0046575D01*
X0136776Y0051573D02*
X0135777Y0052573D01*
X0133777D01*
X0132778Y0051573D01*
Y0047574D01*
X0133777Y0046575D01*
X0135777D01*
X0136776Y0047574D01*
X0138776Y0052573D02*
Y0047574D01*
X0139775Y0046575D01*
X0141775D01*
X0142774Y0047574D01*
Y0052573D01*
X0144774Y0046575D02*
X0146773D01*
X0145773D01*
Y0052573D01*
X0144774Y0051573D01*
X0153771Y0052573D02*
X0149772D01*
Y0049574D01*
X0151772Y0050573D01*
X0152771D01*
X0153771Y0049574D01*
Y0047574D01*
X0152771Y0046575D01*
X0150772D01*
X0149772Y0047574D01*
X0159769Y0046575D02*
X0155770D01*
X0159769Y0050573D01*
Y0051573D01*
X0158769Y0052573D01*
X0156770D01*
X0155770Y0051573D01*
X0161768Y0046575D02*
Y0050573D01*
X0163768Y0052573D01*
X0165767Y0050573D01*
Y0046575D01*
Y0049574D01*
X0161768D01*
X0167766Y0046575D02*
Y0047574D01*
X0168766D01*
Y0046575D01*
X0167766D01*
X0176763Y0051573D02*
X0175764Y0052573D01*
X0173764D01*
X0172765Y0051573D01*
Y0047574D01*
X0173764Y0046575D01*
X0175764D01*
X0176763Y0047574D01*
Y0049574D01*
X0174764D01*
X0178763Y0046575D02*
Y0052573D01*
X0180762Y0050573D01*
X0182762Y0052573D01*
Y0046575D01*
X0184761Y0047574D02*
X0185761Y0046575D01*
X0187760D01*
X0188760Y0047574D01*
Y0051573D01*
X0187760Y0052573D01*
X0185761D01*
X0184761Y0051573D01*
Y0050573D01*
X0185761Y0049574D01*
X0188760D01*
X0381030Y0052573D02*
X0385028D01*
Y0051573D01*
X0381030Y0047574D01*
Y0046575D01*
X0387028D02*
X0391026Y0050573D01*
X0397024Y0046575D02*
X0393026D01*
X0397024Y0050573D01*
Y0051573D01*
X0396025Y0052573D01*
X0394025D01*
X0393026Y0051573D01*
X0399024Y0046575D02*
X0401023D01*
X0400024D01*
Y0052573D01*
X0399024Y0051573D01*
X0404022Y0046575D02*
X0408021Y0050573D01*
X0414019Y0046575D02*
X0410020D01*
X0414019Y0050573D01*
Y0051573D01*
X0413019Y0052573D01*
X0411020D01*
X0410020Y0051573D01*
X0416018D02*
X0417018Y0052573D01*
X0419017D01*
X0420017Y0051573D01*
Y0047574D01*
X0419017Y0046575D01*
X0417018D01*
X0416018Y0047574D01*
Y0051573D01*
X0426015Y0046575D02*
X0422016D01*
X0426015Y0050573D01*
Y0051573D01*
X0425015Y0052573D01*
X0423016D01*
X0422016Y0051573D01*
X0432013Y0052573D02*
X0428014D01*
Y0049574D01*
X0430014Y0050573D01*
X0431013D01*
X0432013Y0049574D01*
Y0047574D01*
X0431013Y0046575D01*
X0429014D01*
X0428014Y0047574D01*
X0298078Y0051573D02*
X0297079Y0052573D01*
X0295079D01*
X0294080Y0051573D01*
Y0047574D01*
X0295079Y0046575D01*
X0297079D01*
X0298078Y0047574D01*
Y0049574D01*
X0296079D01*
X0304076Y0052573D02*
X0300078D01*
Y0046575D01*
X0304076D01*
X0300078Y0049574D02*
X0302077D01*
X0306076Y0046575D02*
Y0052573D01*
X0310074Y0046575D01*
Y0052573D01*
X0316073D02*
X0312074D01*
Y0046575D01*
X0316073D01*
X0312074Y0049574D02*
X0314073D01*
X0318072Y0046575D02*
Y0052573D01*
X0321071D01*
X0322071Y0051573D01*
Y0049574D01*
X0321071Y0048574D01*
X0318072D01*
X0320071D02*
X0322071Y0046575D01*
X0324070D02*
Y0050573D01*
X0326069Y0052573D01*
X0328069Y0050573D01*
Y0046575D01*
Y0049574D01*
X0324070D01*
X0330068Y0052573D02*
X0334067D01*
X0332067D01*
Y0046575D01*
X0340065Y0052573D02*
X0336066D01*
Y0046575D01*
X0340065D01*
X0336066Y0049574D02*
X0338065D01*
X0342064Y0052573D02*
Y0046575D01*
X0345063D01*
X0346063Y0047574D01*
Y0051573D01*
X0345063Y0052573D01*
X0342064D01*
X0372054Y0050573D02*
X0373054D01*
Y0049574D01*
X0372054D01*
Y0050573D01*
Y0047574D02*
X0373054D01*
Y0046575D01*
X0372054D01*
Y0047574D01*
X0046230Y0087441D02*
Y0091440D01*
X0048229Y0093440D01*
X0050228Y0091440D01*
Y0087441D01*
Y0090440D01*
X0046230D01*
X0052228Y0093440D02*
Y0087441D01*
X0056226D01*
X0058226Y0093440D02*
Y0087441D01*
X0062225D01*
X0070222D02*
Y0091440D01*
X0072221Y0093440D01*
X0074221Y0091440D01*
Y0087441D01*
Y0090440D01*
X0070222D01*
X0076220Y0087441D02*
Y0093440D01*
X0079219D01*
X0080219Y0092440D01*
Y0090440D01*
X0079219Y0089441D01*
X0076220D01*
X0078219D02*
X0080219Y0087441D01*
X0082218Y0093440D02*
X0086217D01*
X0084217D01*
Y0087441D01*
X0088216Y0093440D02*
Y0087441D01*
X0090215Y0089441D01*
X0092215Y0087441D01*
Y0093440D01*
X0097213D02*
X0095214D01*
X0094214Y0092440D01*
Y0088441D01*
X0095214Y0087441D01*
X0097213D01*
X0098213Y0088441D01*
Y0092440D01*
X0097213Y0093440D01*
X0100212Y0087441D02*
Y0093440D01*
X0103211D01*
X0104211Y0092440D01*
Y0090440D01*
X0103211Y0089441D01*
X0100212D01*
X0102211D02*
X0104211Y0087441D01*
X0106210Y0093440D02*
Y0087441D01*
Y0089441D01*
X0110209Y0093440D01*
X0107210Y0090440D01*
X0110209Y0087441D01*
X0118206Y0093440D02*
Y0089441D01*
X0120206Y0087441D01*
X0122205Y0089441D01*
Y0093440D01*
X0124204D02*
X0126204D01*
X0125204D01*
Y0087441D01*
X0124204D01*
X0126204D01*
X0133202Y0093440D02*
X0129203D01*
Y0087441D01*
X0133202D01*
X0129203Y0090440D02*
X0131202D01*
X0135201Y0093440D02*
Y0087441D01*
X0137200Y0089441D01*
X0139200Y0087441D01*
Y0093440D01*
X0145198D02*
X0141199D01*
Y0087441D01*
X0145198D01*
X0141199Y0090440D02*
X0143198D01*
X0147197Y0093440D02*
Y0087441D01*
X0150196D01*
X0151196Y0088441D01*
Y0092440D01*
X0150196Y0093440D01*
X0147197D01*
X0163192D02*
X0159193D01*
Y0090440D01*
X0161193D01*
X0159193D01*
Y0087441D01*
X0165191D02*
Y0093440D01*
X0168190D01*
X0169190Y0092440D01*
Y0090440D01*
X0168190Y0089441D01*
X0165191D01*
X0167191D02*
X0169190Y0087441D01*
X0174188Y0093440D02*
X0172189D01*
X0171189Y0092440D01*
Y0088441D01*
X0172189Y0087441D01*
X0174188D01*
X0175188Y0088441D01*
Y0092440D01*
X0174188Y0093440D01*
X0177187Y0087441D02*
Y0093440D01*
X0179187Y0091440D01*
X0181186Y0093440D01*
Y0087441D01*
X0189183Y0093440D02*
X0193182D01*
X0191183D01*
Y0087441D01*
X0198180Y0093440D02*
X0196181D01*
X0195182Y0092440D01*
Y0088441D01*
X0196181Y0087441D01*
X0198180D01*
X0199180Y0088441D01*
Y0092440D01*
X0198180Y0093440D01*
X0201180Y0087441D02*
Y0093440D01*
X0204179D01*
X0205178Y0092440D01*
Y0090440D01*
X0204179Y0089441D01*
X0201180D01*
X0217174Y0092440D02*
X0216175Y0093440D01*
X0214175D01*
X0213176Y0092440D01*
Y0091440D01*
X0214175Y0090440D01*
X0216175D01*
X0217174Y0089441D01*
Y0088441D01*
X0216175Y0087441D01*
X0214175D01*
X0213176Y0088441D01*
X0219174Y0093440D02*
X0221173D01*
X0220173D01*
Y0087441D01*
X0219174D01*
X0221173D01*
X0224172Y0093440D02*
Y0087441D01*
X0227171D01*
X0228171Y0088441D01*
Y0092440D01*
X0227171Y0093440D01*
X0224172D01*
X0234169D02*
X0230170D01*
Y0087441D01*
X0234169D01*
X0230170Y0090440D02*
X0232170D01*
X0462030Y0087441D02*
Y0091440D01*
X0464029Y0093440D01*
X0466028Y0091440D01*
Y0087441D01*
Y0090440D01*
X0462030D01*
X0348430Y0087441D02*
Y0093440D01*
X0350429Y0091440D01*
X0352428Y0093440D01*
Y0087441D01*
X0358426Y0092440D02*
X0357427Y0093440D01*
X0355427D01*
X0354428Y0092440D01*
Y0088441D01*
X0355427Y0087441D01*
X0357427D01*
X0358426Y0088441D01*
X0360426Y0093440D02*
Y0088441D01*
X0361425Y0087441D01*
X0363425D01*
X0364424Y0088441D01*
Y0093440D01*
X0366424Y0087441D02*
X0368423D01*
X0367424D01*
Y0093440D01*
X0366424Y0092440D01*
X0375421Y0093440D02*
X0371422D01*
Y0090440D01*
X0373422Y0091440D01*
X0374421D01*
X0375421Y0090440D01*
Y0088441D01*
X0374421Y0087441D01*
X0372422D01*
X0371422Y0088441D01*
X0381419Y0087441D02*
X0377420D01*
X0381419Y0091440D01*
Y0092440D01*
X0380419Y0093440D01*
X0378420D01*
X0377420Y0092440D01*
X0293880Y0093440D02*
Y0087441D01*
X0296879D01*
X0297878Y0088441D01*
Y0089441D01*
X0296879Y0090440D01*
X0293880D01*
X0296879D01*
X0297878Y0091440D01*
Y0092440D01*
X0296879Y0093440D01*
X0293880D01*
X0302877D02*
X0300877D01*
X0299878Y0092440D01*
Y0088441D01*
X0300877Y0087441D01*
X0302877D01*
X0303876Y0088441D01*
Y0092440D01*
X0302877Y0093440D01*
X0305876Y0087441D02*
Y0091440D01*
X0307875Y0093440D01*
X0309875Y0091440D01*
Y0087441D01*
Y0090440D01*
X0305876D01*
X0311874Y0087441D02*
Y0093440D01*
X0314873D01*
X0315873Y0092440D01*
Y0090440D01*
X0314873Y0089441D01*
X0311874D01*
X0313873D02*
X0315873Y0087441D01*
X0317872Y0093440D02*
Y0087441D01*
X0320871D01*
X0321871Y0088441D01*
Y0092440D01*
X0320871Y0093440D01*
X0317872D01*
X0330868Y0087441D02*
Y0093440D01*
X0332867D02*
Y0087441D01*
X0329868Y0091440D02*
X0332867D01*
X0333867D01*
X0329868Y0089441D02*
X0333867D01*
X0335866Y0091440D02*
X0336866D01*
Y0090440D01*
X0335866D01*
Y0091440D01*
Y0088441D02*
X0336866D01*
Y0087441D01*
X0335866D01*
Y0088441D01*
X0046230Y0073157D02*
Y0067159D01*
X0050228D01*
X0052228D02*
Y0071157D01*
X0054227Y0073157D01*
X0056226Y0071157D01*
Y0067159D01*
Y0070158D01*
X0052228D01*
X0058226Y0073157D02*
Y0072157D01*
X0060225Y0070158D01*
X0062225Y0072157D01*
Y0073157D01*
X0060225Y0070158D02*
Y0067159D01*
X0068222Y0073157D02*
X0064224D01*
Y0067159D01*
X0068222D01*
X0064224Y0070158D02*
X0066223D01*
X0070222Y0067159D02*
Y0073157D01*
X0073221D01*
X0074221Y0072157D01*
Y0070158D01*
X0073221Y0069158D01*
X0070222D01*
X0072221D02*
X0074221Y0067159D01*
X0082218D02*
Y0073157D01*
X0086217Y0067159D01*
Y0073157D01*
X0088216Y0067159D02*
Y0071157D01*
X0090215Y0073157D01*
X0092215Y0071157D01*
Y0067159D01*
Y0070158D01*
X0088216D01*
X0094214Y0067159D02*
Y0073157D01*
X0096214Y0071157D01*
X0098213Y0073157D01*
Y0067159D01*
X0104211Y0073157D02*
X0100212D01*
Y0067159D01*
X0104211D01*
X0100212Y0070158D02*
X0102211D01*
X0112208Y0069158D02*
X0116207D01*
X0112208Y0071157D02*
X0116207D01*
X0046230Y0046575D02*
Y0052573D01*
X0049229D01*
X0050228Y0051573D01*
Y0049574D01*
X0049229Y0048574D01*
X0046230D01*
X0052228Y0052573D02*
Y0046575D01*
X0056226D01*
X0061225Y0052573D02*
X0059225D01*
X0058226Y0051573D01*
Y0047574D01*
X0059225Y0046575D01*
X0061225D01*
X0062225Y0047574D01*
Y0051573D01*
X0061225Y0052573D01*
X0064224D02*
X0068222D01*
X0066223D01*
Y0046575D01*
X0076220D02*
Y0052573D01*
X0080219Y0046575D01*
Y0052573D01*
X0082218Y0046575D02*
Y0050573D01*
X0084217Y0052573D01*
X0086217Y0050573D01*
Y0046575D01*
Y0049574D01*
X0082218D01*
X0088216Y0046575D02*
Y0052573D01*
X0090215Y0050573D01*
X0092215Y0052573D01*
Y0046575D01*
X0098213Y0052573D02*
X0094214D01*
Y0046575D01*
X0098213D01*
X0094214Y0049574D02*
X0096214D01*
X0106210Y0048574D02*
X0110209D01*
X0106210Y0050573D02*
X0110209D01*
X0456929Y0046575D02*
Y0052573D01*
X0453930Y0049574D01*
X0457928D01*
X0459928Y0050573D02*
X0460927D01*
Y0049574D01*
X0459928D01*
Y0050573D01*
Y0047574D02*
X0460927D01*
Y0046575D01*
X0459928D01*
Y0047574D01*
X0464926Y0051573D02*
X0465926Y0052573D01*
X0467925D01*
X0468925Y0051573D01*
Y0050573D01*
X0467925Y0049574D01*
X0466925D01*
X0467925D01*
X0468925Y0048574D01*
Y0047574D01*
X0467925Y0046575D01*
X0465926D01*
X0464926Y0047574D01*
X0470924Y0051573D02*
X0471924Y0052573D01*
X0473923D01*
X0474923Y0051573D01*
Y0047574D01*
X0473923Y0046575D01*
X0471924D01*
X0470924Y0047574D01*
Y0051573D01*
X0476922Y0050573D02*
X0477922D01*
Y0049574D01*
X0476922D01*
Y0050573D01*
Y0047574D02*
X0477922D01*
Y0046575D01*
X0476922D01*
Y0047574D01*
X0485919Y0052573D02*
X0481921D01*
Y0049574D01*
X0483920Y0050573D01*
X0484920D01*
X0485919Y0049574D01*
Y0047574D01*
X0484920Y0046575D01*
X0482920D01*
X0481921Y0047574D01*
X0487919Y0052573D02*
X0491917D01*
Y0051573D01*
X0487919Y0047574D01*
Y0046575D01*
X0499915D02*
Y0052573D01*
X0502914D01*
X0503913Y0051573D01*
Y0049574D01*
X0502914Y0048574D01*
X0499915D01*
X0505913Y0046575D02*
Y0052573D01*
X0507912Y0050573D01*
X0509911Y0052573D01*
Y0046575D01*
X0580380Y0052573D02*
X0584378D01*
X0582379D01*
Y0046575D01*
X0590376Y0052573D02*
X0586378D01*
Y0046575D01*
X0590376D01*
X0586378Y0049574D02*
X0588377D01*
X0592376Y0052573D02*
X0596375Y0046575D01*
Y0052573D02*
X0592376Y0046575D01*
X0598374D02*
Y0050573D01*
X0600373Y0052573D01*
X0602373Y0050573D01*
Y0046575D01*
Y0049574D01*
X0598374D01*
X0608371Y0051573D02*
X0607371Y0052573D01*
X0605372D01*
X0604372Y0051573D01*
Y0050573D01*
X0605372Y0049574D01*
X0607371D01*
X0608371Y0048574D01*
Y0047574D01*
X0607371Y0046575D01*
X0605372D01*
X0604372Y0047574D01*
X0616368Y0052573D02*
X0618367D01*
X0617368D01*
Y0046575D01*
X0616368D01*
X0618367D01*
X0621366D02*
Y0052573D01*
X0625365Y0046575D01*
Y0052573D01*
X0631363Y0051573D02*
X0630364Y0052573D01*
X0628364D01*
X0627364Y0051573D01*
Y0050573D01*
X0628364Y0049574D01*
X0630364D01*
X0631363Y0048574D01*
Y0047574D01*
X0630364Y0046575D01*
X0628364D01*
X0627364Y0047574D01*
X0633362Y0052573D02*
X0637361D01*
X0635362D01*
Y0046575D01*
X0639361D02*
Y0052573D01*
X0642360D01*
X0643359Y0051573D01*
Y0049574D01*
X0642360Y0048574D01*
X0639361D01*
X0641360D02*
X0643359Y0046575D01*
X0645359Y0052573D02*
Y0047574D01*
X0646358Y0046575D01*
X0648358D01*
X0649357Y0047574D01*
Y0052573D01*
X0651357Y0046575D02*
Y0052573D01*
X0653356Y0050573D01*
X0655355Y0052573D01*
Y0046575D01*
X0661353Y0052573D02*
X0657355D01*
Y0046575D01*
X0661353D01*
X0657355Y0049574D02*
X0659354D01*
X0663353Y0046575D02*
Y0052573D01*
X0667351Y0046575D01*
Y0052573D01*
X0669351D02*
X0673350D01*
X0671350D01*
Y0046575D01*
X0679348Y0051573D02*
X0678348Y0052573D01*
X0676349D01*
X0675349Y0051573D01*
Y0050573D01*
X0676349Y0049574D01*
X0678348D01*
X0679348Y0048574D01*
Y0047574D01*
X0678348Y0046575D01*
X0676349D01*
X0675349Y0047574D01*
X0293880Y0073106D02*
X0297878D01*
X0295879D01*
Y0067108D01*
X0299878Y0073106D02*
X0301877D01*
X0300877D01*
Y0067108D01*
X0299878D01*
X0301877D01*
X0304876Y0073106D02*
Y0067108D01*
X0307875D01*
X0308875Y0068108D01*
Y0072106D01*
X0307875Y0073106D01*
X0304876D01*
X0317872Y0067108D02*
Y0073106D01*
X0319871D02*
Y0067108D01*
X0316872Y0071107D02*
X0319871D01*
X0320871D01*
X0316872Y0069108D02*
X0320871D01*
X0322870Y0071107D02*
X0323870D01*
Y0070107D01*
X0322870D01*
Y0071107D01*
Y0068108D02*
X0323870D01*
Y0067108D01*
X0322870D01*
Y0068108D01*
X0348430Y0067108D02*
Y0068108D01*
X0349429D01*
Y0067108D01*
X0348430D01*
X0353428Y0073106D02*
X0357427D01*
X0355427D01*
Y0067108D01*
X0359426Y0073106D02*
X0361425D01*
X0360426D01*
Y0067108D01*
X0359426D01*
X0361425D01*
X0364424Y0073106D02*
Y0067108D01*
X0367424D01*
X0368423Y0068108D01*
Y0072106D01*
X0367424Y0073106D01*
X0364424D01*
X0127080Y0067008D02*
Y0073006D01*
X0129079Y0071007D01*
X0131078Y0073006D01*
Y0067008D01*
X0133078D02*
X0135077D01*
X0134077D01*
Y0073006D01*
X0133078Y0072006D01*
X0138076Y0067008D02*
X0140075D01*
X0139076D01*
Y0073006D01*
X0138076Y0072006D01*
X0153071D02*
X0152072Y0073006D01*
X0150072D01*
X0149073Y0072006D01*
Y0068008D01*
X0150072Y0067008D01*
X0152072D01*
X0153071Y0068008D01*
Y0070007D01*
X0151072D01*
X0158070Y0067008D02*
X0156070D01*
X0155071Y0068008D01*
Y0070007D01*
X0156070Y0071007D01*
X0158070D01*
X0159069Y0070007D01*
Y0069007D01*
X0155071D01*
X0161069Y0071007D02*
Y0067008D01*
Y0069007D01*
X0162068Y0070007D01*
X0163068Y0071007D01*
X0164068D01*
X0167067Y0073006D02*
Y0067008D01*
X0170066D01*
X0171065Y0068008D01*
Y0069007D01*
Y0070007D01*
X0170066Y0071007D01*
X0167067D01*
X0176064Y0067008D02*
X0174064D01*
X0173065Y0068008D01*
Y0070007D01*
X0174064Y0071007D01*
X0176064D01*
X0177064Y0070007D01*
Y0069007D01*
X0173065D01*
X0179063Y0071007D02*
Y0067008D01*
Y0069007D01*
X0180062Y0070007D01*
X0181062Y0071007D01*
X0182062D01*
X0191059Y0073006D02*
X0193058D01*
X0192059D01*
Y0067008D01*
X0191059D01*
X0193058D01*
X0196057D02*
Y0071007D01*
X0199056D01*
X0200056Y0070007D01*
Y0067008D01*
X0203055D02*
Y0072006D01*
Y0070007D01*
X0202055D01*
X0204055D01*
X0203055D01*
Y0072006D01*
X0204055Y0073006D01*
X0208053Y0067008D02*
X0210053D01*
X0211052Y0068008D01*
Y0070007D01*
X0210053Y0071007D01*
X0208053D01*
X0207054Y0070007D01*
Y0068008D01*
X0208053Y0067008D01*
X0213052Y0071007D02*
Y0067008D01*
Y0069007D01*
X0214052Y0070007D01*
X0215051Y0071007D01*
X0216051D01*
X0219050Y0067008D02*
Y0071007D01*
X0220050D01*
X0221049Y0070007D01*
Y0067008D01*
Y0070007D01*
X0222049Y0071007D01*
X0223049Y0070007D01*
Y0067008D01*
X0226048Y0071007D02*
X0228047D01*
X0229047Y0070007D01*
Y0067008D01*
X0226048D01*
X0225048Y0068008D01*
X0226048Y0069007D01*
X0229047D01*
X0232046Y0072006D02*
Y0071007D01*
X0231046D01*
X0233045D01*
X0232046D01*
Y0068008D01*
X0233045Y0067008D01*
X0236044D02*
X0238044D01*
X0237044D01*
Y0071007D01*
X0236044D01*
X0242042Y0067008D02*
X0244042D01*
X0245041Y0068008D01*
Y0070007D01*
X0244042Y0071007D01*
X0242042D01*
X0241043Y0070007D01*
Y0068008D01*
X0242042Y0067008D01*
X0247041D02*
Y0071007D01*
X0250040D01*
X0251040Y0070007D01*
Y0067008D01*
G54D31*
X1349980Y0040704D02*
Y0100704D01*
X1199480Y0160704D02*
X1499480D01*
X1199480Y0100704D02*
Y0160704D01*
Y0070704D02*
X1499480D01*
X1199480Y0130704D02*
X1499480D01*
X1269980Y0949704D02*
Y0969704D01*
X1019980Y0949704D02*
Y0969704D01*
X0769980Y0949704D02*
Y0969704D01*
X0519980Y0949704D02*
Y0969704D01*
X0039980Y0949704D02*
X1499980D01*
X0019980Y0969704D02*
X1519980D01*
X0269980Y0949704D02*
Y0969704D01*
X1499980Y0039704D02*
Y0949704D01*
X1519980Y0019704D02*
Y0969704D01*
X1499980Y0732204D02*
X1519980D01*
X1499980Y0494704D02*
X1519980D01*
X1499980Y0257204D02*
X1519980D01*
X1269980Y0019704D02*
Y0039704D01*
X1019980Y0019704D02*
Y0039704D01*
X0769980Y0019704D02*
Y0039704D01*
X0519980Y0019704D02*
Y0039704D01*
X1499980D02*
Y0159704D01*
X0019980Y0019704D02*
Y0969704D01*
Y0019704D02*
X1519980D01*
X0039980Y0039704D02*
Y0949704D01*
Y0039704D02*
X1499980D01*
X0019980Y0732204D02*
X0039980D01*
X0019980Y0494704D02*
X0039980D01*
X0019980Y0257204D02*
X0039980D01*
X0269980Y0019704D02*
Y0039704D01*
X1199580Y0190104D02*
X1499580D01*
X1199480Y0160704D02*
Y0190104D01*
X1199580Y0240154D02*
X1499980D01*
X1199480Y0100704D02*
X1499480D01*
X1199480Y0039704D02*
Y0100704D01*
X0701230D02*
X1199480D01*
X0701230Y0039704D02*
Y0100704D01*
X1199480Y0190104D02*
Y0240154D01*
X1199580D01*
X0497080Y0080325D02*
Y0100658D01*
X0413080Y0080325D02*
Y0100658D01*
X0039880Y0080325D02*
X0700080D01*
X0039880Y0059992D02*
X0699880D01*
X0039880Y0039658D02*
X0440380D01*
X0039930Y0100658D02*
X0700080D01*
X0039930Y0039658D02*
Y0100658D01*
Y0039658D02*
X0197480D01*
X0039880D02*
Y0100658D01*
X0286380Y0039658D02*
Y0100658D01*
X0700080Y0039658D02*
Y0100658D01*
X0440380Y0039658D02*
X0700080D01*
X0559280Y0039008D02*
Y0059292D01*
M02*
