G04*
G04 #@! TF.GenerationSoftware,Altium Limited,Altium Designer,23.1.1 (15)*
G04*
G04 Layer_Color=8388736*
%FSAX25Y25*%
%MOIN*%
G70*
G04*
G04 #@! TF.SameCoordinates,3BE6CC82-2BF3-4767-8D6A-7EFB0FF24752*
G04*
G04*
G04 #@! TF.FilePolarity,Negative*
G04*
G01*
G75*
%ADD20C,0.00800*%
%ADD31C,0.01000*%
G04:AMPARAMS|DCode=33|XSize=11.81mil|YSize=62.99mil|CornerRadius=1.95mil|HoleSize=0mil|Usage=FLASHONLY|Rotation=315.000|XOffset=0mil|YOffset=0mil|HoleType=Round|Shape=RoundedRectangle|*
%AMROUNDEDRECTD33*
21,1,0.01181,0.05909,0,0,315.0*
21,1,0.00791,0.06299,0,0,315.0*
1,1,0.00390,-0.01810,-0.02369*
1,1,0.00390,-0.02369,-0.01810*
1,1,0.00390,0.01810,0.02369*
1,1,0.00390,0.02369,0.01810*
%
%ADD33ROUNDEDRECTD33*%
G04:AMPARAMS|DCode=34|XSize=62.99mil|YSize=11.81mil|CornerRadius=1.95mil|HoleSize=0mil|Usage=FLASHONLY|Rotation=315.000|XOffset=0mil|YOffset=0mil|HoleType=Round|Shape=RoundedRectangle|*
%AMROUNDEDRECTD34*
21,1,0.06299,0.00791,0,0,315.0*
21,1,0.05909,0.01181,0,0,315.0*
1,1,0.00390,0.01810,-0.02369*
1,1,0.00390,-0.02369,0.01810*
1,1,0.00390,-0.01810,0.02369*
1,1,0.00390,0.02369,-0.01810*
%
%ADD34ROUNDEDRECTD34*%
G04:AMPARAMS|DCode=35|XSize=31.5mil|YSize=31.5mil|CornerRadius=2.05mil|HoleSize=0mil|Usage=FLASHONLY|Rotation=270.000|XOffset=0mil|YOffset=0mil|HoleType=Round|Shape=RoundedRectangle|*
%AMROUNDEDRECTD35*
21,1,0.03150,0.02740,0,0,270.0*
21,1,0.02740,0.03150,0,0,270.0*
1,1,0.00409,-0.01370,-0.01370*
1,1,0.00409,-0.01370,0.01370*
1,1,0.00409,0.01370,0.01370*
1,1,0.00409,0.01370,-0.01370*
%
%ADD35ROUNDEDRECTD35*%
G04:AMPARAMS|DCode=36|XSize=19.68mil|YSize=19.68mil|CornerRadius=1.97mil|HoleSize=0mil|Usage=FLASHONLY|Rotation=270.000|XOffset=0mil|YOffset=0mil|HoleType=Round|Shape=RoundedRectangle|*
%AMROUNDEDRECTD36*
21,1,0.01968,0.01575,0,0,270.0*
21,1,0.01575,0.01968,0,0,270.0*
1,1,0.00394,-0.00787,-0.00787*
1,1,0.00394,-0.00787,0.00787*
1,1,0.00394,0.00787,0.00787*
1,1,0.00394,0.00787,-0.00787*
%
%ADD36ROUNDEDRECTD36*%
G04:AMPARAMS|DCode=37|XSize=19.68mil|YSize=19.68mil|CornerRadius=1.97mil|HoleSize=0mil|Usage=FLASHONLY|Rotation=315.000|XOffset=0mil|YOffset=0mil|HoleType=Round|Shape=RoundedRectangle|*
%AMROUNDEDRECTD37*
21,1,0.01968,0.01575,0,0,315.0*
21,1,0.01575,0.01968,0,0,315.0*
1,1,0.00394,0.00000,-0.01114*
1,1,0.00394,-0.01114,0.00000*
1,1,0.00394,0.00000,0.01114*
1,1,0.00394,0.01114,0.00000*
%
%ADD37ROUNDEDRECTD37*%
G04:AMPARAMS|DCode=42|XSize=19.68mil|YSize=19.68mil|CornerRadius=1.97mil|HoleSize=0mil|Usage=FLASHONLY|Rotation=0.000|XOffset=0mil|YOffset=0mil|HoleType=Round|Shape=RoundedRectangle|*
%AMROUNDEDRECTD42*
21,1,0.01968,0.01575,0,0,0.0*
21,1,0.01575,0.01968,0,0,0.0*
1,1,0.00394,0.00787,-0.00787*
1,1,0.00394,-0.00787,-0.00787*
1,1,0.00394,-0.00787,0.00787*
1,1,0.00394,0.00787,0.00787*
%
%ADD42ROUNDEDRECTD42*%
G04:AMPARAMS|DCode=46|XSize=64.96mil|YSize=23.62mil|CornerRadius=2.01mil|HoleSize=0mil|Usage=FLASHONLY|Rotation=0.000|XOffset=0mil|YOffset=0mil|HoleType=Round|Shape=RoundedRectangle|*
%AMROUNDEDRECTD46*
21,1,0.06496,0.01961,0,0,0.0*
21,1,0.06095,0.02362,0,0,0.0*
1,1,0.00402,0.03047,-0.00980*
1,1,0.00402,-0.03047,-0.00980*
1,1,0.00402,-0.03047,0.00980*
1,1,0.00402,0.03047,0.00980*
%
%ADD46ROUNDEDRECTD46*%
G04:AMPARAMS|DCode=47|XSize=7.87mil|YSize=11.81mil|CornerRadius=1.99mil|HoleSize=0mil|Usage=FLASHONLY|Rotation=0.000|XOffset=0mil|YOffset=0mil|HoleType=Round|Shape=RoundedRectangle|*
%AMROUNDEDRECTD47*
21,1,0.00787,0.00784,0,0,0.0*
21,1,0.00390,0.01181,0,0,0.0*
1,1,0.00398,0.00195,-0.00392*
1,1,0.00398,-0.00195,-0.00392*
1,1,0.00398,-0.00195,0.00392*
1,1,0.00398,0.00195,0.00392*
%
%ADD47ROUNDEDRECTD47*%
G04:AMPARAMS|DCode=48|XSize=7.87mil|YSize=13.78mil|CornerRadius=1.99mil|HoleSize=0mil|Usage=FLASHONLY|Rotation=0.000|XOffset=0mil|YOffset=0mil|HoleType=Round|Shape=RoundedRectangle|*
%AMROUNDEDRECTD48*
21,1,0.00787,0.00980,0,0,0.0*
21,1,0.00390,0.01378,0,0,0.0*
1,1,0.00398,0.00195,-0.00490*
1,1,0.00398,-0.00195,-0.00490*
1,1,0.00398,-0.00195,0.00490*
1,1,0.00398,0.00195,0.00490*
%
%ADD48ROUNDEDRECTD48*%
G04:AMPARAMS|DCode=54|XSize=55.12mil|YSize=45.28mil|CornerRadius=2.04mil|HoleSize=0mil|Usage=FLASHONLY|Rotation=45.000|XOffset=0mil|YOffset=0mil|HoleType=Round|Shape=RoundedRectangle|*
%AMROUNDEDRECTD54*
21,1,0.05512,0.04120,0,0,45.0*
21,1,0.05104,0.04528,0,0,45.0*
1,1,0.00408,0.03261,0.00348*
1,1,0.00408,-0.00348,-0.03261*
1,1,0.00408,-0.03261,-0.00348*
1,1,0.00408,0.00348,0.03261*
%
%ADD54ROUNDEDRECTD54*%
G04:AMPARAMS|DCode=57|XSize=55.12mil|YSize=45.28mil|CornerRadius=2.04mil|HoleSize=0mil|Usage=FLASHONLY|Rotation=90.000|XOffset=0mil|YOffset=0mil|HoleType=Round|Shape=RoundedRectangle|*
%AMROUNDEDRECTD57*
21,1,0.05512,0.04120,0,0,90.0*
21,1,0.05104,0.04528,0,0,90.0*
1,1,0.00408,0.02060,0.02552*
1,1,0.00408,0.02060,-0.02552*
1,1,0.00408,-0.02060,-0.02552*
1,1,0.00408,-0.02060,0.02552*
%
%ADD57ROUNDEDRECTD57*%
%ADD67R,0.05124X0.04731*%
%ADD68R,0.02762X0.03550*%
%ADD69R,0.06699X0.04337*%
%ADD70O,0.05912X0.02172*%
%ADD71R,0.03550X0.02762*%
G04:AMPARAMS|DCode=72|XSize=61.09mil|YSize=43.37mil|CornerRadius=3.97mil|HoleSize=0mil|Usage=FLASHONLY|Rotation=270.000|XOffset=0mil|YOffset=0mil|HoleType=Round|Shape=RoundedRectangle|*
%AMROUNDEDRECTD72*
21,1,0.06109,0.03543,0,0,270.0*
21,1,0.05315,0.04337,0,0,270.0*
1,1,0.00794,-0.01772,-0.02657*
1,1,0.00794,-0.01772,0.02657*
1,1,0.00794,0.01772,0.02657*
1,1,0.00794,0.01772,-0.02657*
%
%ADD72ROUNDEDRECTD72*%
G04:AMPARAMS|DCode=73|XSize=39.43mil|YSize=55.18mil|CornerRadius=3.95mil|HoleSize=0mil|Usage=FLASHONLY|Rotation=270.000|XOffset=0mil|YOffset=0mil|HoleType=Round|Shape=RoundedRectangle|*
%AMROUNDEDRECTD73*
21,1,0.03943,0.04728,0,0,270.0*
21,1,0.03154,0.05518,0,0,270.0*
1,1,0.00790,-0.02364,-0.01577*
1,1,0.00790,-0.02364,0.01577*
1,1,0.00790,0.02364,0.01577*
1,1,0.00790,0.02364,-0.01577*
%
%ADD73ROUNDEDRECTD73*%
G04:AMPARAMS|DCode=74|XSize=27.62mil|YSize=43.37mil|CornerRadius=4.01mil|HoleSize=0mil|Usage=FLASHONLY|Rotation=180.000|XOffset=0mil|YOffset=0mil|HoleType=Round|Shape=RoundedRectangle|*
%AMROUNDEDRECTD74*
21,1,0.02762,0.03535,0,0,180.0*
21,1,0.01961,0.04337,0,0,180.0*
1,1,0.00802,-0.00980,0.01768*
1,1,0.00802,0.00980,0.01768*
1,1,0.00802,0.00980,-0.01768*
1,1,0.00802,-0.00980,-0.01768*
%
%ADD74ROUNDEDRECTD74*%
%ADD75O,0.05912X0.01187*%
%ADD76O,0.01187X0.05912*%
%ADD77C,0.04750*%
%ADD78C,0.04606*%
G04:AMPARAMS|DCode=79|XSize=14.63mil|YSize=39.43mil|CornerRadius=3.97mil|HoleSize=0mil|Usage=FLASHONLY|Rotation=180.000|XOffset=0mil|YOffset=0mil|HoleType=Round|Shape=RoundedRectangle|*
%AMROUNDEDRECTD79*
21,1,0.01463,0.03150,0,0,180.0*
21,1,0.00670,0.03943,0,0,180.0*
1,1,0.00793,-0.00335,0.01575*
1,1,0.00793,0.00335,0.01575*
1,1,0.00793,0.00335,-0.01575*
1,1,0.00793,-0.00335,-0.01575*
%
%ADD79ROUNDEDRECTD79*%
G04:AMPARAMS|DCode=80|XSize=14.63mil|YSize=35.5mil|CornerRadius=3.97mil|HoleSize=0mil|Usage=FLASHONLY|Rotation=180.000|XOffset=0mil|YOffset=0mil|HoleType=Round|Shape=RoundedRectangle|*
%AMROUNDEDRECTD80*
21,1,0.01463,0.02756,0,0,180.0*
21,1,0.00670,0.03550,0,0,180.0*
1,1,0.00793,-0.00335,0.01378*
1,1,0.00793,0.00335,0.01378*
1,1,0.00793,0.00335,-0.01378*
1,1,0.00793,-0.00335,-0.01378*
%
%ADD80ROUNDEDRECTD80*%
%ADD81R,0.06699X0.04337*%
%ADD82O,0.05715X0.01581*%
%ADD83R,0.05400X0.12400*%
%ADD84R,0.04731X0.05124*%
G04:AMPARAMS|DCode=85|XSize=11.87mil|YSize=26.24mil|CornerRadius=3.97mil|HoleSize=0mil|Usage=FLASHONLY|Rotation=180.000|XOffset=0mil|YOffset=0mil|HoleType=Round|Shape=RoundedRectangle|*
%AMROUNDEDRECTD85*
21,1,0.01187,0.01831,0,0,180.0*
21,1,0.00394,0.02624,0,0,180.0*
1,1,0.00794,-0.00197,0.00915*
1,1,0.00794,0.00197,0.00915*
1,1,0.00794,0.00197,-0.00915*
1,1,0.00794,-0.00197,-0.00915*
%
%ADD85ROUNDEDRECTD85*%
G04:AMPARAMS|DCode=86|XSize=19.75mil|YSize=26.24mil|CornerRadius=3.97mil|HoleSize=0mil|Usage=FLASHONLY|Rotation=180.000|XOffset=0mil|YOffset=0mil|HoleType=Round|Shape=RoundedRectangle|*
%AMROUNDEDRECTD86*
21,1,0.01975,0.01831,0,0,180.0*
21,1,0.01181,0.02624,0,0,180.0*
1,1,0.00794,-0.00591,0.00915*
1,1,0.00794,0.00591,0.00915*
1,1,0.00794,0.00591,-0.00915*
1,1,0.00794,-0.00591,-0.00915*
%
%ADD86ROUNDEDRECTD86*%
%ADD87C,0.07874*%
%ADD88R,0.04140X0.04337*%
%ADD89R,0.04337X0.04140*%
G04:AMPARAMS|DCode=90|XSize=41.4mil|YSize=43.37mil|CornerRadius=0mil|HoleSize=0mil|Usage=FLASHONLY|Rotation=45.000|XOffset=0mil|YOffset=0mil|HoleType=Round|Shape=Rectangle|*
%AMROTATEDRECTD90*
4,1,4,0.00070,-0.02997,-0.02997,0.00070,-0.00070,0.02997,0.02997,-0.00070,0.00070,-0.02997,0.0*
%
%ADD90ROTATEDRECTD90*%

G04:AMPARAMS|DCode=91|XSize=41.4mil|YSize=43.37mil|CornerRadius=7.61mil|HoleSize=0mil|Usage=FLASHONLY|Rotation=135.000|XOffset=0mil|YOffset=0mil|HoleType=Round|Shape=RoundedRectangle|*
%AMROUNDEDRECTD91*
21,1,0.04140,0.02815,0,0,135.0*
21,1,0.02618,0.04337,0,0,135.0*
1,1,0.01522,0.00070,0.01921*
1,1,0.01522,0.01921,0.00070*
1,1,0.01522,-0.00070,-0.01921*
1,1,0.01522,-0.01921,-0.00070*
%
%ADD91ROUNDEDRECTD91*%
G04:AMPARAMS|DCode=92|XSize=41.4mil|YSize=43.37mil|CornerRadius=0mil|HoleSize=0mil|Usage=FLASHONLY|Rotation=315.000|XOffset=0mil|YOffset=0mil|HoleType=Round|Shape=Rectangle|*
%AMROTATEDRECTD92*
4,1,4,-0.02997,-0.00070,0.00070,0.02997,0.02997,0.00070,-0.00070,-0.02997,-0.02997,-0.00070,0.0*
%
%ADD92ROTATEDRECTD92*%

%ADD93C,0.12611*%
%ADD94C,0.15000*%
%ADD95R,0.06896X0.06896*%
%ADD96C,0.06896*%
%ADD97C,0.05400*%
G04:AMPARAMS|DCode=98|XSize=68.96mil|YSize=68.96mil|CornerRadius=18.24mil|HoleSize=0mil|Usage=FLASHONLY|Rotation=180.000|XOffset=0mil|YOffset=0mil|HoleType=Round|Shape=RoundedRectangle|*
%AMROUNDEDRECTD98*
21,1,0.06896,0.03248,0,0,180.0*
21,1,0.03248,0.06896,0,0,180.0*
1,1,0.03648,-0.01624,0.01624*
1,1,0.03648,0.01624,0.01624*
1,1,0.03648,0.01624,-0.01624*
1,1,0.03648,-0.01624,-0.01624*
%
%ADD98ROUNDEDRECTD98*%
%ADD99C,0.03943*%
G04:AMPARAMS|DCode=100|XSize=49.21mil|YSize=27.56mil|CornerRadius=13.78mil|HoleSize=0mil|Usage=FLASHONLY|Rotation=180.000|XOffset=0mil|YOffset=0mil|HoleType=Round|Shape=RoundedRectangle|*
%AMROUNDEDRECTD100*
21,1,0.04921,0.00000,0,0,180.0*
21,1,0.02165,0.02756,0,0,180.0*
1,1,0.02756,-0.01083,0.00000*
1,1,0.02756,0.01083,0.00000*
1,1,0.02756,0.01083,0.00000*
1,1,0.02756,-0.01083,0.00000*
%
%ADD100ROUNDEDRECTD100*%
G04:AMPARAMS|DCode=101|XSize=23.62mil|YSize=74.8mil|CornerRadius=11.81mil|HoleSize=0mil|Usage=FLASHONLY|Rotation=180.000|XOffset=0mil|YOffset=0mil|HoleType=Round|Shape=RoundedRectangle|*
%AMROUNDEDRECTD101*
21,1,0.02362,0.05118,0,0,180.0*
21,1,0.00000,0.07480,0,0,180.0*
1,1,0.02362,0.00000,0.02559*
1,1,0.02362,0.00000,0.02559*
1,1,0.02362,0.00000,-0.02559*
1,1,0.02362,0.00000,-0.02559*
%
%ADD101ROUNDEDRECTD101*%
G04:AMPARAMS|DCode=102|XSize=27.56mil|YSize=59.06mil|CornerRadius=13.78mil|HoleSize=0mil|Usage=FLASHONLY|Rotation=180.000|XOffset=0mil|YOffset=0mil|HoleType=Round|Shape=RoundedRectangle|*
%AMROUNDEDRECTD102*
21,1,0.02756,0.03150,0,0,180.0*
21,1,0.00000,0.05906,0,0,180.0*
1,1,0.02756,0.00000,0.01575*
1,1,0.02756,0.00000,0.01575*
1,1,0.02756,0.00000,-0.01575*
1,1,0.02756,0.00000,-0.01575*
%
%ADD102ROUNDEDRECTD102*%
G04:AMPARAMS|DCode=103|XSize=65.02mil|YSize=65.02mil|CornerRadius=3.83mil|HoleSize=0mil|Usage=FLASHONLY|Rotation=270.000|XOffset=0mil|YOffset=0mil|HoleType=Round|Shape=RoundedRectangle|*
%AMROUNDEDRECTD103*
21,1,0.06502,0.05736,0,0,270.0*
21,1,0.05736,0.06502,0,0,270.0*
1,1,0.00766,-0.02868,-0.02868*
1,1,0.00766,-0.02868,0.02868*
1,1,0.00766,0.02868,0.02868*
1,1,0.00766,0.02868,-0.02868*
%
%ADD103ROUNDEDRECTD103*%
%ADD104C,0.06502*%
G04:AMPARAMS|DCode=105|XSize=66.93mil|YSize=66.93mil|CornerRadius=2.01mil|HoleSize=0mil|Usage=FLASHONLY|Rotation=0.000|XOffset=0mil|YOffset=0mil|HoleType=Round|Shape=RoundedRectangle|*
%AMROUNDEDRECTD105*
21,1,0.06693,0.06291,0,0,0.0*
21,1,0.06291,0.06693,0,0,0.0*
1,1,0.00402,0.03146,-0.03146*
1,1,0.00402,-0.03146,-0.03146*
1,1,0.00402,-0.03146,0.03146*
1,1,0.00402,0.03146,0.03146*
%
%ADD105ROUNDEDRECTD105*%
%ADD106C,0.06693*%
%ADD107O,0.06896X0.06896*%
G36*
X0157198Y0501823D02*
X0157808Y0501214D01*
X0158137Y0500418D01*
X0158137Y0499987D01*
X0158143Y0499603D01*
X0157891Y0498877D01*
X0157405Y0498282D01*
X0156743Y0497892D01*
X0156366Y0497822D01*
Y0497822D01*
X0156366D01*
Y0495066D01*
X0156366Y0494596D01*
X0156006Y0493728D01*
X0155341Y0493063D01*
X0154473Y0492704D01*
X0154003Y0492704D01*
X0153533D01*
X0152665Y0493063D01*
X0152001Y0493728D01*
X0151641Y0494596D01*
X0151641Y0495066D01*
X0151641Y0499790D01*
X0151641Y0500260D01*
X0152001Y0501128D01*
X0152665Y0501793D01*
X0153533Y0502152D01*
X0154003Y0502152D01*
X0155972D01*
X0156403Y0502152D01*
X0157198Y0501823D01*
D02*
G37*
G36*
X0148052Y0523038D02*
X0148071Y0523038D01*
X0148072Y0523037D01*
X0148073Y0523037D01*
X0148598Y0522969D01*
X0148599Y0522969D01*
X0148600Y0522969D01*
X0148618Y0522965D01*
X0148637Y0522960D01*
X0148638Y0522960D01*
X0148639Y0522960D01*
X0149139Y0522785D01*
X0149140Y0522785D01*
X0149141Y0522784D01*
X0149158Y0522776D01*
X0149175Y0522768D01*
X0149176Y0522768D01*
X0149177Y0522767D01*
X0149630Y0522494D01*
X0149631Y0522493D01*
X0149632Y0522493D01*
X0149647Y0522482D01*
X0149662Y0522471D01*
X0149663Y0522470D01*
X0149664Y0522469D01*
X0150052Y0522109D01*
X0150052Y0522108D01*
X0150053Y0522107D01*
X0150066Y0522093D01*
X0150078Y0522079D01*
X0150078Y0522078D01*
X0150079Y0522077D01*
X0150385Y0521645D01*
X0150386Y0521644D01*
X0150387Y0521643D01*
X0150396Y0521627D01*
X0150405Y0521611D01*
X0150405Y0521610D01*
X0150406Y0521609D01*
X0150617Y0521123D01*
X0150617Y0521122D01*
X0150618Y0521121D01*
X0150623Y0521103D01*
X0150629Y0521085D01*
X0150629Y0521084D01*
X0150629Y0521083D01*
X0150736Y0520564D01*
X0150736Y0520563D01*
X0150737Y0520562D01*
X0150739Y0520544D01*
X0150741Y0520525D01*
X0150740Y0520524D01*
X0150741Y0520523D01*
X0150740Y0520258D01*
D01*
X0150740Y0513960D01*
X0150740Y0513568D01*
X0150736Y0513529D01*
X0150724Y0513491D01*
X0150425Y0512768D01*
X0150406Y0512733D01*
X0150381Y0512702D01*
X0149827Y0512149D01*
X0149797Y0512124D01*
X0149762Y0512105D01*
X0149762Y0512105D01*
X0149039Y0511805D01*
X0149001Y0511794D01*
X0148962Y0511790D01*
X0148570Y0511790D01*
X0148570Y0511790D01*
X0147389D01*
X0146997Y0511790D01*
D01*
X0146997D01*
X0146958Y0511794D01*
X0146921Y0511805D01*
X0146197Y0512105D01*
X0146162Y0512124D01*
X0146132Y0512149D01*
X0145578Y0512702D01*
X0145553Y0512733D01*
X0145535Y0512768D01*
X0145235Y0513491D01*
X0145223Y0513529D01*
X0145220Y0513568D01*
Y0513959D01*
X0145220Y0513960D01*
X0145220Y0520258D01*
X0145218Y0520743D01*
X0145220Y0520760D01*
X0145221Y0520778D01*
X0145222Y0520780D01*
X0145222Y0520782D01*
X0145227Y0520798D01*
X0145232Y0520816D01*
X0145583Y0521719D01*
X0145592Y0521735D01*
X0145599Y0521751D01*
X0145600Y0521752D01*
X0145601Y0521754D01*
X0145613Y0521769D01*
X0145623Y0521782D01*
X0146280Y0522494D01*
X0146293Y0522506D01*
X0146307Y0522518D01*
X0146308Y0522519D01*
X0146310Y0522520D01*
X0146325Y0522529D01*
X0146340Y0522539D01*
X0147212Y0522961D01*
X0147229Y0522967D01*
X0147246Y0522974D01*
X0147247Y0522974D01*
X0147249Y0522975D01*
X0147267Y0522978D01*
X0147284Y0522981D01*
X0147767Y0523018D01*
X0147767D01*
X0148031Y0523038D01*
X0148032Y0523038D01*
X0148033Y0523039D01*
X0148052Y0523038D01*
D02*
G37*
G36*
X0189357Y0501793D02*
X0190022Y0501128D01*
X0190381Y0500260D01*
X0190381Y0499790D01*
Y0495066D01*
X0190381Y0494596D01*
X0190022Y0493728D01*
X0189357Y0493063D01*
X0188489Y0492704D01*
X0188019Y0492704D01*
X0187549Y0492704D01*
X0186681Y0493063D01*
X0186016Y0493728D01*
X0185657Y0494596D01*
X0185657Y0495066D01*
Y0497822D01*
X0185657Y0497822D01*
X0185279Y0497892D01*
X0184618Y0498282D01*
X0184131Y0498877D01*
X0183879Y0499603D01*
X0183885Y0499987D01*
Y0500418D01*
X0184215Y0501214D01*
X0184824Y0501823D01*
X0185620Y0502152D01*
X0188019D01*
X0188489Y0502152D01*
X0189357Y0501793D01*
D02*
G37*
G36*
X0193990Y0523038D02*
X0193991Y0523038D01*
X0194255Y0523018D01*
X0194255D01*
X0194738Y0522981D01*
X0194755Y0522978D01*
X0194773Y0522975D01*
X0194775Y0522974D01*
X0194777Y0522974D01*
X0194793Y0522967D01*
X0194810Y0522961D01*
X0195682Y0522539D01*
X0195697Y0522530D01*
X0195713Y0522520D01*
X0195714Y0522519D01*
X0195716Y0522518D01*
X0195729Y0522506D01*
X0195742Y0522494D01*
X0196399Y0521782D01*
X0196410Y0521768D01*
X0196421Y0521754D01*
X0196422Y0521752D01*
X0196423Y0521751D01*
X0196431Y0521735D01*
X0196439Y0521719D01*
X0196790Y0520816D01*
X0196795Y0520799D01*
X0196800Y0520782D01*
X0196800Y0520780D01*
X0196801Y0520778D01*
X0196802Y0520760D01*
X0196804Y0520743D01*
X0196803Y0520258D01*
D01*
X0196803Y0513960D01*
Y0513568D01*
X0196799Y0513529D01*
X0196787Y0513491D01*
X0196787Y0513491D01*
X0196488Y0512768D01*
X0196469Y0512733D01*
X0196458Y0512719D01*
X0196444Y0512702D01*
X0196444Y0512702D01*
X0195890Y0512149D01*
X0195860Y0512124D01*
X0195825Y0512105D01*
X0195102Y0511805D01*
X0195064Y0511794D01*
X0195025Y0511790D01*
D01*
X0195025D01*
X0194633Y0511790D01*
X0193452D01*
X0193452Y0511790D01*
X0193061Y0511790D01*
X0193021Y0511794D01*
X0192984Y0511805D01*
X0192984Y0511805D01*
X0192260Y0512105D01*
X0192225Y0512124D01*
X0192195Y0512149D01*
X0191641Y0512702D01*
X0191616Y0512733D01*
X0191598Y0512768D01*
X0191298Y0513491D01*
X0191287Y0513529D01*
X0191283Y0513568D01*
Y0513568D01*
D01*
X0191283Y0513960D01*
X0191283Y0520259D01*
X0191283Y0520259D01*
X0191282Y0520523D01*
X0191282Y0520524D01*
X0191282Y0520525D01*
X0191284Y0520544D01*
X0191286Y0520562D01*
X0191286Y0520563D01*
X0191286Y0520564D01*
X0191393Y0521083D01*
X0191393Y0521084D01*
X0191393Y0521085D01*
X0191399Y0521103D01*
X0191405Y0521121D01*
X0191405Y0521122D01*
X0191405Y0521123D01*
X0191617Y0521609D01*
X0191617Y0521610D01*
X0191617Y0521611D01*
X0191627Y0521627D01*
X0191636Y0521643D01*
X0191636Y0521644D01*
X0191637Y0521645D01*
X0191943Y0522077D01*
X0191944Y0522078D01*
X0191944Y0522079D01*
X0191957Y0522093D01*
X0191969Y0522107D01*
X0191970Y0522108D01*
X0191970Y0522109D01*
X0192359Y0522469D01*
X0192359Y0522470D01*
X0192360Y0522471D01*
X0192375Y0522482D01*
X0192390Y0522493D01*
X0192391Y0522493D01*
X0192392Y0522494D01*
X0192846Y0522767D01*
X0192847Y0522768D01*
X0192848Y0522768D01*
X0192865Y0522776D01*
X0192881Y0522784D01*
X0192882Y0522785D01*
X0192883Y0522785D01*
X0193384Y0522960D01*
X0193385Y0522960D01*
X0193386Y0522960D01*
X0193404Y0522965D01*
X0193422Y0522969D01*
X0193423Y0522969D01*
X0193424Y0522969D01*
X0193949Y0523037D01*
X0193950Y0523037D01*
X0193951Y0523038D01*
X0193970Y0523038D01*
X0193989Y0523039D01*
X0193990Y0523038D01*
D02*
G37*
G54D20*
X0127180Y0073307D02*
X0131178D01*
X0129179D01*
Y0067309D01*
X0134177D02*
X0136177D01*
X0137176Y0068309D01*
Y0070308D01*
X0136177Y0071307D01*
X0134177D01*
X0133178Y0070308D01*
Y0068309D01*
X0134177Y0067309D01*
X0139176Y0065310D02*
Y0071307D01*
X0142175D01*
X0143175Y0070308D01*
Y0068309D01*
X0142175Y0067309D01*
X0139176D01*
X0155171Y0072307D02*
X0154171Y0073307D01*
X0152172D01*
X0151172Y0072307D01*
Y0071307D01*
X0152172Y0070308D01*
X0154171D01*
X0155171Y0069308D01*
Y0068309D01*
X0154171Y0067309D01*
X0152172D01*
X0151172Y0068309D01*
X0158170Y0067309D02*
X0160169D01*
X0161169Y0068309D01*
Y0070308D01*
X0160169Y0071307D01*
X0158170D01*
X0157170Y0070308D01*
Y0068309D01*
X0158170Y0067309D01*
X0163168D02*
X0165167D01*
X0164168D01*
Y0073307D01*
X0163168D01*
X0172165D02*
Y0067309D01*
X0169166D01*
X0168166Y0068309D01*
Y0070308D01*
X0169166Y0071307D01*
X0172165D01*
X0177164Y0067309D02*
X0175164D01*
X0174164Y0068309D01*
Y0070308D01*
X0175164Y0071307D01*
X0177164D01*
X0178163Y0070308D01*
Y0069308D01*
X0174164D01*
X0180163Y0071307D02*
Y0067309D01*
Y0069308D01*
X0181162Y0070308D01*
X0182162Y0071307D01*
X0183161D01*
X0127180Y0073307D02*
X0131178D01*
X0129179D01*
Y0067309D01*
X0134177D02*
X0136177D01*
X0137176Y0068309D01*
Y0070308D01*
X0136177Y0071307D01*
X0134177D01*
X0133178Y0070308D01*
Y0068309D01*
X0134177Y0067309D01*
X0139176Y0065310D02*
Y0071307D01*
X0142175D01*
X0143175Y0070308D01*
Y0068309D01*
X0142175Y0067309D01*
X0139176D01*
X0155171Y0072307D02*
X0154171Y0073307D01*
X0152172D01*
X0151172Y0072307D01*
Y0071307D01*
X0152172Y0070308D01*
X0154171D01*
X0155171Y0069308D01*
Y0068309D01*
X0154171Y0067309D01*
X0152172D01*
X0151172Y0068309D01*
X0158170Y0067309D02*
X0160169D01*
X0161169Y0068309D01*
Y0070308D01*
X0160169Y0071307D01*
X0158170D01*
X0157170Y0070308D01*
Y0068309D01*
X0158170Y0067309D01*
X0163168D02*
X0165167D01*
X0164168D01*
Y0073307D01*
X0163168D01*
X0172165D02*
Y0067309D01*
X0169166D01*
X0168166Y0068309D01*
Y0070308D01*
X0169166Y0071307D01*
X0172165D01*
X0177164Y0067309D02*
X0175164D01*
X0174164Y0068309D01*
Y0070308D01*
X0175164Y0071307D01*
X0177164D01*
X0178163Y0070308D01*
Y0069308D01*
X0174164D01*
X0180163Y0071307D02*
Y0067309D01*
Y0069308D01*
X0181162Y0070308D01*
X0182162Y0071307D01*
X0183161D01*
X0567280Y0087441D02*
Y0093440D01*
X0571278Y0087441D01*
Y0093440D01*
X0574277Y0087441D02*
X0576277D01*
X0577276Y0088441D01*
Y0090440D01*
X0576277Y0091440D01*
X0574277D01*
X0573278Y0090440D01*
Y0088441D01*
X0574277Y0087441D01*
X0580275Y0092440D02*
Y0091440D01*
X0579276D01*
X0581275D01*
X0580275D01*
Y0088441D01*
X0581275Y0087441D01*
X0590272D02*
X0592272D01*
X0591272D01*
Y0091440D01*
X0590272D01*
X0595271Y0087441D02*
Y0091440D01*
X0598270D01*
X0599269Y0090440D01*
Y0087441D01*
X0607267Y0091440D02*
X0609266Y0087441D01*
X0611265Y0091440D01*
X0616264Y0087441D02*
X0614264D01*
X0613265Y0088441D01*
Y0090440D01*
X0614264Y0091440D01*
X0616264D01*
X0617264Y0090440D01*
Y0089441D01*
X0613265D01*
X0619263Y0091440D02*
Y0087441D01*
Y0089441D01*
X0620262Y0090440D01*
X0621262Y0091440D01*
X0622262D01*
X0625261Y0087441D02*
X0628260D01*
X0629260Y0088441D01*
X0628260Y0089441D01*
X0626261D01*
X0625261Y0090440D01*
X0626261Y0091440D01*
X0629260D01*
X0631259Y0087441D02*
X0633258D01*
X0632259D01*
Y0091440D01*
X0631259D01*
X0637257Y0087441D02*
X0639256D01*
X0640256Y0088441D01*
Y0090440D01*
X0639256Y0091440D01*
X0637257D01*
X0636257Y0090440D01*
Y0088441D01*
X0637257Y0087441D01*
X0642255D02*
Y0091440D01*
X0645254D01*
X0646254Y0090440D01*
Y0087441D01*
X0658250Y0091440D02*
X0655251D01*
X0654251Y0090440D01*
Y0088441D01*
X0655251Y0087441D01*
X0658250D01*
X0661249D02*
X0663249D01*
X0664248Y0088441D01*
Y0090440D01*
X0663249Y0091440D01*
X0661249D01*
X0660250Y0090440D01*
Y0088441D01*
X0661249Y0087441D01*
X0666248D02*
Y0091440D01*
X0669247D01*
X0670246Y0090440D01*
Y0087441D01*
X0673245Y0092440D02*
Y0091440D01*
X0672246D01*
X0674245D01*
X0673245D01*
Y0088441D01*
X0674245Y0087441D01*
X0677244Y0091440D02*
Y0087441D01*
Y0089441D01*
X0678244Y0090440D01*
X0679243Y0091440D01*
X0680243D01*
X0684242Y0087441D02*
X0686241D01*
X0687241Y0088441D01*
Y0090440D01*
X0686241Y0091440D01*
X0684242D01*
X0683242Y0090440D01*
Y0088441D01*
X0684242Y0087441D01*
X0689240D02*
X0691240D01*
X0690240D01*
Y0093440D01*
X0689240D01*
X0520678Y0092440D02*
X0519679Y0093440D01*
X0517679D01*
X0516680Y0092440D01*
Y0091440D01*
X0517679Y0090440D01*
X0519679D01*
X0520678Y0089441D01*
Y0088441D01*
X0519679Y0087441D01*
X0517679D01*
X0516680Y0088441D01*
X0522678Y0093440D02*
Y0089441D01*
X0524677Y0087441D01*
X0526676Y0089441D01*
Y0093440D01*
X0528676Y0087441D02*
Y0093440D01*
X0532675Y0087441D01*
Y0093440D01*
X0540672Y0087441D02*
Y0093440D01*
X0543671D01*
X0544671Y0092440D01*
Y0090440D01*
X0543671Y0089441D01*
X0540672D01*
X0542671D02*
X0544671Y0087441D01*
X0550669Y0093440D02*
X0546670D01*
Y0087441D01*
X0550669D01*
X0546670Y0090440D02*
X0548669D01*
X0552668Y0093440D02*
Y0089441D01*
X0554667Y0087441D01*
X0556667Y0089441D01*
Y0093440D01*
X0558666Y0091440D02*
X0559666D01*
Y0090440D01*
X0558666D01*
Y0091440D01*
Y0088441D02*
X0559666D01*
Y0087441D01*
X0558666D01*
Y0088441D01*
X0432880Y0087441D02*
Y0093440D01*
X0435879D01*
X0436878Y0092440D01*
Y0090440D01*
X0435879Y0089441D01*
X0432880D01*
X0434879D02*
X0436878Y0087441D01*
X0442876Y0093440D02*
X0438878D01*
Y0087441D01*
X0442876D01*
X0438878Y0090440D02*
X0440877D01*
X0444876Y0093440D02*
Y0089441D01*
X0446875Y0087441D01*
X0448875Y0089441D01*
Y0093440D01*
X0450874Y0091440D02*
X0451873D01*
Y0090440D01*
X0450874D01*
Y0091440D01*
Y0088441D02*
X0451873D01*
Y0087441D01*
X0450874D01*
Y0088441D01*
X0126780Y0046575D02*
Y0052573D01*
X0128779Y0050573D01*
X0130778Y0052573D01*
Y0046575D01*
X0136776Y0051573D02*
X0135777Y0052573D01*
X0133777D01*
X0132778Y0051573D01*
Y0047574D01*
X0133777Y0046575D01*
X0135777D01*
X0136776Y0047574D01*
X0138776Y0052573D02*
Y0047574D01*
X0139775Y0046575D01*
X0141775D01*
X0142774Y0047574D01*
Y0052573D01*
X0144774Y0046575D02*
X0146773D01*
X0145773D01*
Y0052573D01*
X0144774Y0051573D01*
X0153771Y0052573D02*
X0149772D01*
Y0049574D01*
X0151772Y0050573D01*
X0152771D01*
X0153771Y0049574D01*
Y0047574D01*
X0152771Y0046575D01*
X0150772D01*
X0149772Y0047574D01*
X0159769Y0046575D02*
X0155770D01*
X0159769Y0050573D01*
Y0051573D01*
X0158769Y0052573D01*
X0156770D01*
X0155770Y0051573D01*
X0161768Y0046575D02*
Y0050573D01*
X0163768Y0052573D01*
X0165767Y0050573D01*
Y0046575D01*
Y0049574D01*
X0161768D01*
X0167766Y0046575D02*
Y0047574D01*
X0168766D01*
Y0046575D01*
X0167766D01*
X0176763Y0051573D02*
X0175764Y0052573D01*
X0173764D01*
X0172765Y0051573D01*
Y0047574D01*
X0173764Y0046575D01*
X0175764D01*
X0176763Y0047574D01*
Y0049574D01*
X0174764D01*
X0178763Y0052573D02*
X0182762D01*
X0180762D01*
Y0046575D01*
X0188760Y0051573D02*
X0187760Y0052573D01*
X0185761D01*
X0184761Y0051573D01*
Y0050573D01*
X0185761Y0049574D01*
X0187760D01*
X0188760Y0048574D01*
Y0047574D01*
X0187760Y0046575D01*
X0185761D01*
X0184761Y0047574D01*
X0381030Y0052573D02*
X0385028D01*
Y0051573D01*
X0381030Y0047574D01*
Y0046575D01*
X0387028D02*
X0391026Y0050573D01*
X0397024Y0046575D02*
X0393026D01*
X0397024Y0050573D01*
Y0051573D01*
X0396025Y0052573D01*
X0394025D01*
X0393026Y0051573D01*
X0399024Y0046575D02*
X0401023D01*
X0400024D01*
Y0052573D01*
X0399024Y0051573D01*
X0404022Y0046575D02*
X0408021Y0050573D01*
X0414019Y0046575D02*
X0410020D01*
X0414019Y0050573D01*
Y0051573D01*
X0413019Y0052573D01*
X0411020D01*
X0410020Y0051573D01*
X0416018D02*
X0417018Y0052573D01*
X0419017D01*
X0420017Y0051573D01*
Y0047574D01*
X0419017Y0046575D01*
X0417018D01*
X0416018Y0047574D01*
Y0051573D01*
X0426015Y0046575D02*
X0422016D01*
X0426015Y0050573D01*
Y0051573D01*
X0425015Y0052573D01*
X0423016D01*
X0422016Y0051573D01*
X0432013Y0052573D02*
X0428014D01*
Y0049574D01*
X0430014Y0050573D01*
X0431013D01*
X0432013Y0049574D01*
Y0047574D01*
X0431013Y0046575D01*
X0429014D01*
X0428014Y0047574D01*
X0298078Y0051573D02*
X0297079Y0052573D01*
X0295079D01*
X0294080Y0051573D01*
Y0047574D01*
X0295079Y0046575D01*
X0297079D01*
X0298078Y0047574D01*
Y0049574D01*
X0296079D01*
X0304076Y0052573D02*
X0300078D01*
Y0046575D01*
X0304076D01*
X0300078Y0049574D02*
X0302077D01*
X0306076Y0046575D02*
Y0052573D01*
X0310074Y0046575D01*
Y0052573D01*
X0316073D02*
X0312074D01*
Y0046575D01*
X0316073D01*
X0312074Y0049574D02*
X0314073D01*
X0318072Y0046575D02*
Y0052573D01*
X0321071D01*
X0322071Y0051573D01*
Y0049574D01*
X0321071Y0048574D01*
X0318072D01*
X0320071D02*
X0322071Y0046575D01*
X0324070D02*
Y0050573D01*
X0326069Y0052573D01*
X0328069Y0050573D01*
Y0046575D01*
Y0049574D01*
X0324070D01*
X0330068Y0052573D02*
X0334067D01*
X0332067D01*
Y0046575D01*
X0340065Y0052573D02*
X0336066D01*
Y0046575D01*
X0340065D01*
X0336066Y0049574D02*
X0338065D01*
X0342064Y0052573D02*
Y0046575D01*
X0345063D01*
X0346063Y0047574D01*
Y0051573D01*
X0345063Y0052573D01*
X0342064D01*
X0372054Y0050573D02*
X0373054D01*
Y0049574D01*
X0372054D01*
Y0050573D01*
Y0047574D02*
X0373054D01*
Y0046575D01*
X0372054D01*
Y0047574D01*
X0046230Y0087441D02*
Y0091440D01*
X0048229Y0093440D01*
X0050228Y0091440D01*
Y0087441D01*
Y0090440D01*
X0046230D01*
X0052228Y0093440D02*
Y0087441D01*
X0056226D01*
X0058226Y0093440D02*
Y0087441D01*
X0062225D01*
X0070222D02*
Y0091440D01*
X0072221Y0093440D01*
X0074221Y0091440D01*
Y0087441D01*
Y0090440D01*
X0070222D01*
X0076220Y0087441D02*
Y0093440D01*
X0079219D01*
X0080219Y0092440D01*
Y0090440D01*
X0079219Y0089441D01*
X0076220D01*
X0078219D02*
X0080219Y0087441D01*
X0082218Y0093440D02*
X0086217D01*
X0084217D01*
Y0087441D01*
X0088216Y0093440D02*
Y0087441D01*
X0090215Y0089441D01*
X0092215Y0087441D01*
Y0093440D01*
X0097213D02*
X0095214D01*
X0094214Y0092440D01*
Y0088441D01*
X0095214Y0087441D01*
X0097213D01*
X0098213Y0088441D01*
Y0092440D01*
X0097213Y0093440D01*
X0100212Y0087441D02*
Y0093440D01*
X0103211D01*
X0104211Y0092440D01*
Y0090440D01*
X0103211Y0089441D01*
X0100212D01*
X0102211D02*
X0104211Y0087441D01*
X0106210Y0093440D02*
Y0087441D01*
Y0089441D01*
X0110209Y0093440D01*
X0107210Y0090440D01*
X0110209Y0087441D01*
X0118206Y0093440D02*
Y0089441D01*
X0120206Y0087441D01*
X0122205Y0089441D01*
Y0093440D01*
X0124204D02*
X0126204D01*
X0125204D01*
Y0087441D01*
X0124204D01*
X0126204D01*
X0133202Y0093440D02*
X0129203D01*
Y0087441D01*
X0133202D01*
X0129203Y0090440D02*
X0131202D01*
X0135201Y0093440D02*
Y0087441D01*
X0137200Y0089441D01*
X0139200Y0087441D01*
Y0093440D01*
X0145198D02*
X0141199D01*
Y0087441D01*
X0145198D01*
X0141199Y0090440D02*
X0143198D01*
X0147197Y0093440D02*
Y0087441D01*
X0150196D01*
X0151196Y0088441D01*
Y0092440D01*
X0150196Y0093440D01*
X0147197D01*
X0163192D02*
X0159193D01*
Y0090440D01*
X0161193D01*
X0159193D01*
Y0087441D01*
X0165191D02*
Y0093440D01*
X0168190D01*
X0169190Y0092440D01*
Y0090440D01*
X0168190Y0089441D01*
X0165191D01*
X0167191D02*
X0169190Y0087441D01*
X0174188Y0093440D02*
X0172189D01*
X0171189Y0092440D01*
Y0088441D01*
X0172189Y0087441D01*
X0174188D01*
X0175188Y0088441D01*
Y0092440D01*
X0174188Y0093440D01*
X0177187Y0087441D02*
Y0093440D01*
X0179187Y0091440D01*
X0181186Y0093440D01*
Y0087441D01*
X0189183Y0093440D02*
X0193182D01*
X0191183D01*
Y0087441D01*
X0198180Y0093440D02*
X0196181D01*
X0195182Y0092440D01*
Y0088441D01*
X0196181Y0087441D01*
X0198180D01*
X0199180Y0088441D01*
Y0092440D01*
X0198180Y0093440D01*
X0201180Y0087441D02*
Y0093440D01*
X0204179D01*
X0205178Y0092440D01*
Y0090440D01*
X0204179Y0089441D01*
X0201180D01*
X0217174Y0092440D02*
X0216175Y0093440D01*
X0214175D01*
X0213176Y0092440D01*
Y0091440D01*
X0214175Y0090440D01*
X0216175D01*
X0217174Y0089441D01*
Y0088441D01*
X0216175Y0087441D01*
X0214175D01*
X0213176Y0088441D01*
X0219174Y0093440D02*
X0221173D01*
X0220173D01*
Y0087441D01*
X0219174D01*
X0221173D01*
X0224172Y0093440D02*
Y0087441D01*
X0227171D01*
X0228171Y0088441D01*
Y0092440D01*
X0227171Y0093440D01*
X0224172D01*
X0234169D02*
X0230170D01*
Y0087441D01*
X0234169D01*
X0230170Y0090440D02*
X0232170D01*
X0462030Y0087441D02*
Y0091440D01*
X0464029Y0093440D01*
X0466028Y0091440D01*
Y0087441D01*
Y0090440D01*
X0462030D01*
X0348430Y0087441D02*
Y0093440D01*
X0350429Y0091440D01*
X0352428Y0093440D01*
Y0087441D01*
X0358426Y0092440D02*
X0357427Y0093440D01*
X0355427D01*
X0354428Y0092440D01*
Y0088441D01*
X0355427Y0087441D01*
X0357427D01*
X0358426Y0088441D01*
X0360426Y0093440D02*
Y0088441D01*
X0361425Y0087441D01*
X0363425D01*
X0364424Y0088441D01*
Y0093440D01*
X0366424Y0087441D02*
X0368423D01*
X0367424D01*
Y0093440D01*
X0366424Y0092440D01*
X0375421Y0093440D02*
X0371422D01*
Y0090440D01*
X0373422Y0091440D01*
X0374421D01*
X0375421Y0090440D01*
Y0088441D01*
X0374421Y0087441D01*
X0372422D01*
X0371422Y0088441D01*
X0381419Y0087441D02*
X0377420D01*
X0381419Y0091440D01*
Y0092440D01*
X0380419Y0093440D01*
X0378420D01*
X0377420Y0092440D01*
X0293880Y0093440D02*
Y0087441D01*
X0296879D01*
X0297878Y0088441D01*
Y0089441D01*
X0296879Y0090440D01*
X0293880D01*
X0296879D01*
X0297878Y0091440D01*
Y0092440D01*
X0296879Y0093440D01*
X0293880D01*
X0302877D02*
X0300877D01*
X0299878Y0092440D01*
Y0088441D01*
X0300877Y0087441D01*
X0302877D01*
X0303876Y0088441D01*
Y0092440D01*
X0302877Y0093440D01*
X0305876Y0087441D02*
Y0091440D01*
X0307875Y0093440D01*
X0309875Y0091440D01*
Y0087441D01*
Y0090440D01*
X0305876D01*
X0311874Y0087441D02*
Y0093440D01*
X0314873D01*
X0315873Y0092440D01*
Y0090440D01*
X0314873Y0089441D01*
X0311874D01*
X0313873D02*
X0315873Y0087441D01*
X0317872Y0093440D02*
Y0087441D01*
X0320871D01*
X0321871Y0088441D01*
Y0092440D01*
X0320871Y0093440D01*
X0317872D01*
X0330868Y0087441D02*
Y0093440D01*
X0332867D02*
Y0087441D01*
X0329868Y0091440D02*
X0332867D01*
X0333867D01*
X0329868Y0089441D02*
X0333867D01*
X0335866Y0091440D02*
X0336866D01*
Y0090440D01*
X0335866D01*
Y0091440D01*
Y0088441D02*
X0336866D01*
Y0087441D01*
X0335866D01*
Y0088441D01*
X0046230Y0073157D02*
Y0067159D01*
X0050228D01*
X0052228D02*
Y0071157D01*
X0054227Y0073157D01*
X0056226Y0071157D01*
Y0067159D01*
Y0070158D01*
X0052228D01*
X0058226Y0073157D02*
Y0072157D01*
X0060225Y0070158D01*
X0062225Y0072157D01*
Y0073157D01*
X0060225Y0070158D02*
Y0067159D01*
X0068222Y0073157D02*
X0064224D01*
Y0067159D01*
X0068222D01*
X0064224Y0070158D02*
X0066223D01*
X0070222Y0067159D02*
Y0073157D01*
X0073221D01*
X0074221Y0072157D01*
Y0070158D01*
X0073221Y0069158D01*
X0070222D01*
X0072221D02*
X0074221Y0067159D01*
X0082218D02*
Y0073157D01*
X0086217Y0067159D01*
Y0073157D01*
X0088216Y0067159D02*
Y0071157D01*
X0090215Y0073157D01*
X0092215Y0071157D01*
Y0067159D01*
Y0070158D01*
X0088216D01*
X0094214Y0067159D02*
Y0073157D01*
X0096214Y0071157D01*
X0098213Y0073157D01*
Y0067159D01*
X0104211Y0073157D02*
X0100212D01*
Y0067159D01*
X0104211D01*
X0100212Y0070158D02*
X0102211D01*
X0112208Y0069158D02*
X0116207D01*
X0112208Y0071157D02*
X0116207D01*
X0046230Y0046575D02*
Y0052573D01*
X0049229D01*
X0050228Y0051573D01*
Y0049574D01*
X0049229Y0048574D01*
X0046230D01*
X0052228Y0052573D02*
Y0046575D01*
X0056226D01*
X0061225Y0052573D02*
X0059225D01*
X0058226Y0051573D01*
Y0047574D01*
X0059225Y0046575D01*
X0061225D01*
X0062225Y0047574D01*
Y0051573D01*
X0061225Y0052573D01*
X0064224D02*
X0068222D01*
X0066223D01*
Y0046575D01*
X0076220D02*
Y0052573D01*
X0080219Y0046575D01*
Y0052573D01*
X0082218Y0046575D02*
Y0050573D01*
X0084217Y0052573D01*
X0086217Y0050573D01*
Y0046575D01*
Y0049574D01*
X0082218D01*
X0088216Y0046575D02*
Y0052573D01*
X0090215Y0050573D01*
X0092215Y0052573D01*
Y0046575D01*
X0098213Y0052573D02*
X0094214D01*
Y0046575D01*
X0098213D01*
X0094214Y0049574D02*
X0096214D01*
X0106210Y0048574D02*
X0110209D01*
X0106210Y0050573D02*
X0110209D01*
X0456929Y0046575D02*
Y0052573D01*
X0453930Y0049574D01*
X0457928D01*
X0459928Y0050573D02*
X0460927D01*
Y0049574D01*
X0459928D01*
Y0050573D01*
Y0047574D02*
X0460927D01*
Y0046575D01*
X0459928D01*
Y0047574D01*
X0464926Y0051573D02*
X0465926Y0052573D01*
X0467925D01*
X0468925Y0051573D01*
Y0050573D01*
X0467925Y0049574D01*
X0466925D01*
X0467925D01*
X0468925Y0048574D01*
Y0047574D01*
X0467925Y0046575D01*
X0465926D01*
X0464926Y0047574D01*
X0470924Y0051573D02*
X0471924Y0052573D01*
X0473923D01*
X0474923Y0051573D01*
Y0047574D01*
X0473923Y0046575D01*
X0471924D01*
X0470924Y0047574D01*
Y0051573D01*
X0476922Y0050573D02*
X0477922D01*
Y0049574D01*
X0476922D01*
Y0050573D01*
Y0047574D02*
X0477922D01*
Y0046575D01*
X0476922D01*
Y0047574D01*
X0485919Y0052573D02*
X0481921D01*
Y0049574D01*
X0483920Y0050573D01*
X0484920D01*
X0485919Y0049574D01*
Y0047574D01*
X0484920Y0046575D01*
X0482920D01*
X0481921Y0047574D01*
X0487919Y0052573D02*
X0491917D01*
Y0051573D01*
X0487919Y0047574D01*
Y0046575D01*
X0499915D02*
Y0052573D01*
X0502914D01*
X0503913Y0051573D01*
Y0049574D01*
X0502914Y0048574D01*
X0499915D01*
X0505913Y0046575D02*
Y0052573D01*
X0507912Y0050573D01*
X0509911Y0052573D01*
Y0046575D01*
X0580380Y0052573D02*
X0584378D01*
X0582379D01*
Y0046575D01*
X0590376Y0052573D02*
X0586378D01*
Y0046575D01*
X0590376D01*
X0586378Y0049574D02*
X0588377D01*
X0592376Y0052573D02*
X0596375Y0046575D01*
Y0052573D02*
X0592376Y0046575D01*
X0598374D02*
Y0050573D01*
X0600373Y0052573D01*
X0602373Y0050573D01*
Y0046575D01*
Y0049574D01*
X0598374D01*
X0608371Y0051573D02*
X0607371Y0052573D01*
X0605372D01*
X0604372Y0051573D01*
Y0050573D01*
X0605372Y0049574D01*
X0607371D01*
X0608371Y0048574D01*
Y0047574D01*
X0607371Y0046575D01*
X0605372D01*
X0604372Y0047574D01*
X0616368Y0052573D02*
X0618367D01*
X0617368D01*
Y0046575D01*
X0616368D01*
X0618367D01*
X0621366D02*
Y0052573D01*
X0625365Y0046575D01*
Y0052573D01*
X0631363Y0051573D02*
X0630364Y0052573D01*
X0628364D01*
X0627364Y0051573D01*
Y0050573D01*
X0628364Y0049574D01*
X0630364D01*
X0631363Y0048574D01*
Y0047574D01*
X0630364Y0046575D01*
X0628364D01*
X0627364Y0047574D01*
X0633362Y0052573D02*
X0637361D01*
X0635362D01*
Y0046575D01*
X0639361D02*
Y0052573D01*
X0642360D01*
X0643359Y0051573D01*
Y0049574D01*
X0642360Y0048574D01*
X0639361D01*
X0641360D02*
X0643359Y0046575D01*
X0645359Y0052573D02*
Y0047574D01*
X0646358Y0046575D01*
X0648358D01*
X0649357Y0047574D01*
Y0052573D01*
X0651357Y0046575D02*
Y0052573D01*
X0653356Y0050573D01*
X0655355Y0052573D01*
Y0046575D01*
X0661353Y0052573D02*
X0657355D01*
Y0046575D01*
X0661353D01*
X0657355Y0049574D02*
X0659354D01*
X0663353Y0046575D02*
Y0052573D01*
X0667351Y0046575D01*
Y0052573D01*
X0669351D02*
X0673350D01*
X0671350D01*
Y0046575D01*
X0679348Y0051573D02*
X0678348Y0052573D01*
X0676349D01*
X0675349Y0051573D01*
Y0050573D01*
X0676349Y0049574D01*
X0678348D01*
X0679348Y0048574D01*
Y0047574D01*
X0678348Y0046575D01*
X0676349D01*
X0675349Y0047574D01*
X0293880Y0073106D02*
X0297878D01*
X0295879D01*
Y0067108D01*
X0299878Y0073106D02*
X0301877D01*
X0300877D01*
Y0067108D01*
X0299878D01*
X0301877D01*
X0304876Y0073106D02*
Y0067108D01*
X0307875D01*
X0308875Y0068108D01*
Y0072106D01*
X0307875Y0073106D01*
X0304876D01*
X0317872Y0067108D02*
Y0073106D01*
X0319871D02*
Y0067108D01*
X0316872Y0071107D02*
X0319871D01*
X0320871D01*
X0316872Y0069108D02*
X0320871D01*
X0322870Y0071107D02*
X0323870D01*
Y0070107D01*
X0322870D01*
Y0071107D01*
Y0068108D02*
X0323870D01*
Y0067108D01*
X0322870D01*
Y0068108D01*
X0348430Y0067108D02*
Y0068108D01*
X0349429D01*
Y0067108D01*
X0348430D01*
X0353428Y0073106D02*
X0357427D01*
X0355427D01*
Y0067108D01*
X0359426Y0073106D02*
X0361425D01*
X0360426D01*
Y0067108D01*
X0359426D01*
X0361425D01*
X0364424Y0073106D02*
Y0067108D01*
X0367424D01*
X0368423Y0068108D01*
Y0072106D01*
X0367424Y0073106D01*
X0364424D01*
X0127080Y0067008D02*
Y0073006D01*
X0129079Y0071007D01*
X0131078Y0073006D01*
Y0067008D01*
X0133078D02*
X0135077D01*
X0134077D01*
Y0073006D01*
X0133078Y0072006D01*
X0138076Y0067008D02*
X0140075D01*
X0139076D01*
Y0073006D01*
X0138076Y0072006D01*
X0153071D02*
X0152072Y0073006D01*
X0150072D01*
X0149073Y0072006D01*
Y0068008D01*
X0150072Y0067008D01*
X0152072D01*
X0153071Y0068008D01*
Y0070007D01*
X0151072D01*
X0158070Y0067008D02*
X0156070D01*
X0155071Y0068008D01*
Y0070007D01*
X0156070Y0071007D01*
X0158070D01*
X0159069Y0070007D01*
Y0069007D01*
X0155071D01*
X0161069Y0071007D02*
Y0067008D01*
Y0069007D01*
X0162068Y0070007D01*
X0163068Y0071007D01*
X0164068D01*
X0167067Y0073006D02*
Y0067008D01*
X0170066D01*
X0171065Y0068008D01*
Y0069007D01*
Y0070007D01*
X0170066Y0071007D01*
X0167067D01*
X0176064Y0067008D02*
X0174064D01*
X0173065Y0068008D01*
Y0070007D01*
X0174064Y0071007D01*
X0176064D01*
X0177064Y0070007D01*
Y0069007D01*
X0173065D01*
X0179063Y0071007D02*
Y0067008D01*
Y0069007D01*
X0180062Y0070007D01*
X0181062Y0071007D01*
X0182062D01*
X0191059Y0073006D02*
X0193058D01*
X0192059D01*
Y0067008D01*
X0191059D01*
X0193058D01*
X0196057D02*
Y0071007D01*
X0199056D01*
X0200056Y0070007D01*
Y0067008D01*
X0203055D02*
Y0072006D01*
Y0070007D01*
X0202055D01*
X0204055D01*
X0203055D01*
Y0072006D01*
X0204055Y0073006D01*
X0208053Y0067008D02*
X0210053D01*
X0211052Y0068008D01*
Y0070007D01*
X0210053Y0071007D01*
X0208053D01*
X0207054Y0070007D01*
Y0068008D01*
X0208053Y0067008D01*
X0213052Y0071007D02*
Y0067008D01*
Y0069007D01*
X0214052Y0070007D01*
X0215051Y0071007D01*
X0216051D01*
X0219050Y0067008D02*
Y0071007D01*
X0220050D01*
X0221049Y0070007D01*
Y0067008D01*
Y0070007D01*
X0222049Y0071007D01*
X0223049Y0070007D01*
Y0067008D01*
X0226048Y0071007D02*
X0228047D01*
X0229047Y0070007D01*
Y0067008D01*
X0226048D01*
X0225048Y0068008D01*
X0226048Y0069007D01*
X0229047D01*
X0232046Y0072006D02*
Y0071007D01*
X0231046D01*
X0233045D01*
X0232046D01*
Y0068008D01*
X0233045Y0067008D01*
X0236044D02*
X0238044D01*
X0237044D01*
Y0071007D01*
X0236044D01*
X0242042Y0067008D02*
X0244042D01*
X0245041Y0068008D01*
Y0070007D01*
X0244042Y0071007D01*
X0242042D01*
X0241043Y0070007D01*
Y0068008D01*
X0242042Y0067008D01*
X0247041D02*
Y0071007D01*
X0250040D01*
X0251040Y0070007D01*
Y0067008D01*
G54D31*
X0497080Y0080325D02*
Y0100658D01*
X0413080Y0080325D02*
Y0100658D01*
X0039880Y0080325D02*
X0700080D01*
X0039880Y0059992D02*
X0699880D01*
X0039880Y0039658D02*
X0440380D01*
X0039930Y0100658D02*
X0700080D01*
X0039930Y0039658D02*
Y0100658D01*
Y0039658D02*
X0197480D01*
X0039880D02*
Y0100658D01*
X0286380Y0039658D02*
Y0100658D01*
X0700080Y0039658D02*
Y0100658D01*
X0440380Y0039658D02*
X0700080D01*
X0559280Y0039008D02*
Y0059292D01*
G54D33*
X0243171Y0333420D02*
D03*
X0244563Y0332028D02*
D03*
X0245955Y0330636D02*
D03*
X0247347Y0329244D02*
D03*
X0248739Y0327853D02*
D03*
X0250131Y0326461D02*
D03*
X0251522Y0325069D02*
D03*
X0252914Y0323677D02*
D03*
X0254306Y0322285D02*
D03*
X0255698Y0320893D02*
D03*
X0257090Y0319501D02*
D03*
X0258482Y0318109D02*
D03*
X0235654Y0295281D02*
D03*
X0234262Y0296673D02*
D03*
X0232870Y0298065D02*
D03*
X0231479Y0299457D02*
D03*
X0230087Y0300849D02*
D03*
X0228695Y0302241D02*
D03*
X0227303Y0303633D02*
D03*
X0225911Y0305025D02*
D03*
X0224519Y0306417D02*
D03*
X0223127Y0307809D02*
D03*
X0221735Y0309201D02*
D03*
X0220343Y0310593D02*
D03*
G54D34*
X0258482D02*
D03*
X0257090Y0309201D02*
D03*
X0255698Y0307809D02*
D03*
X0254306Y0306417D02*
D03*
X0252914Y0305025D02*
D03*
X0251522Y0303633D02*
D03*
X0250131Y0302241D02*
D03*
X0248739Y0300849D02*
D03*
X0247347Y0299457D02*
D03*
X0245955Y0298065D02*
D03*
X0244563Y0296673D02*
D03*
X0243171Y0295281D02*
D03*
X0220343Y0318109D02*
D03*
X0221735Y0319501D02*
D03*
X0223127Y0320893D02*
D03*
X0224519Y0322285D02*
D03*
X0225911Y0323677D02*
D03*
X0227303Y0325069D02*
D03*
X0228695Y0326461D02*
D03*
X0230087Y0327853D02*
D03*
X0231479Y0329244D02*
D03*
X0232870Y0330636D02*
D03*
X0234262Y0332028D02*
D03*
X0235654Y0333420D02*
D03*
G54D35*
X0316915Y0241184D02*
D03*
Y0247089D02*
D03*
G54D36*
X0332381Y0484302D02*
D03*
Y0488239D02*
D03*
Y0498739D02*
D03*
Y0494802D02*
D03*
X0273680Y0236777D02*
D03*
Y0232840D02*
D03*
X0310630Y0239112D02*
D03*
Y0235175D02*
D03*
X0317011Y0254200D02*
D03*
Y0250263D02*
D03*
X0331707Y0400969D02*
D03*
Y0404906D02*
D03*
X0181224Y0482440D02*
D03*
Y0486377D02*
D03*
Y0479408D02*
D03*
Y0475471D02*
D03*
G54D37*
X0288297Y0287874D02*
D03*
X0285513Y0290658D02*
D03*
X0270624Y0276863D02*
D03*
X0273408Y0274079D02*
D03*
G54D42*
X0162078Y0482188D02*
D03*
X0158141D02*
D03*
X0272511Y0372808D02*
D03*
X0276448D02*
D03*
X0301359Y0368008D02*
D03*
X0305296D02*
D03*
X0301359Y0377933D02*
D03*
X0305296D02*
D03*
X0329700Y0505030D02*
D03*
X0333637D02*
D03*
X0239850Y0471845D02*
D03*
X0235913D02*
D03*
X0239748Y0478008D02*
D03*
X0235811D02*
D03*
G54D46*
X0190031Y0486908D02*
D03*
Y0481908D02*
D03*
Y0476908D02*
D03*
Y0471908D02*
D03*
Y0466908D02*
D03*
Y0461908D02*
D03*
Y0456908D02*
D03*
Y0451908D02*
D03*
X0228417D02*
D03*
Y0456908D02*
D03*
Y0461908D02*
D03*
Y0466908D02*
D03*
Y0471908D02*
D03*
Y0476908D02*
D03*
Y0481908D02*
D03*
Y0486908D02*
D03*
G54D47*
X0254048Y0444100D02*
D03*
X0252080D02*
D03*
X0250111Y0444100D02*
D03*
Y0446462D02*
D03*
X0252080Y0446462D02*
D03*
G54D48*
X0254048Y0446363D02*
D03*
G54D54*
X0279445Y0276267D02*
D03*
X0285569Y0282391D02*
D03*
X0281115Y0286845D02*
D03*
X0274990Y0280721D02*
D03*
G54D57*
X0337468Y0486369D02*
D03*
Y0495030D02*
D03*
X0343767D02*
D03*
Y0486369D02*
D03*
G54D67*
X0312411Y0405398D02*
D03*
Y0397130D02*
D03*
X0242980Y0507274D02*
D03*
Y0515542D02*
D03*
X0251480Y0507274D02*
D03*
Y0515542D02*
D03*
X0304309Y0405843D02*
D03*
Y0397575D02*
D03*
G54D68*
X0299835Y0324062D02*
D03*
Y0319337D02*
D03*
X0296394Y0403150D02*
D03*
Y0398425D02*
D03*
X0319831Y0403150D02*
D03*
Y0398425D02*
D03*
X0268760Y0236370D02*
D03*
Y0231646D02*
D03*
X0154768Y0423850D02*
D03*
Y0419126D02*
D03*
X0280310Y0317212D02*
D03*
Y0321936D02*
D03*
X0251480Y0501570D02*
D03*
Y0496845D02*
D03*
X0242980Y0501570D02*
D03*
Y0496845D02*
D03*
X0332381Y0468408D02*
D03*
Y0473133D02*
D03*
Y0458255D02*
D03*
Y0462979D02*
D03*
X0332346Y0452829D02*
D03*
Y0448105D02*
D03*
X0308480Y0441326D02*
D03*
Y0436601D02*
D03*
G54D69*
X0214211Y0385229D02*
D03*
X0214211Y0378339D02*
D03*
X0214211Y0371449D02*
D03*
X0228778D02*
D03*
X0228778Y0378339D02*
D03*
X0228778Y0385229D02*
D03*
X0236060Y0262544D02*
D03*
X0236060Y0269434D02*
D03*
X0236060Y0276324D02*
D03*
X0221493D02*
D03*
Y0269434D02*
D03*
X0221493Y0262544D02*
D03*
G54D70*
X0303319Y0235083D02*
D03*
X0303319Y0237642D02*
D03*
X0303319Y0240201D02*
D03*
X0303319Y0242760D02*
D03*
X0303319Y0245320D02*
D03*
Y0247879D02*
D03*
Y0250438D02*
D03*
Y0252997D02*
D03*
X0303319Y0255556D02*
D03*
X0303319Y0258115D02*
D03*
X0303319Y0260674D02*
D03*
Y0263233D02*
D03*
X0280090Y0235083D02*
D03*
X0280090Y0237642D02*
D03*
X0280090Y0240201D02*
D03*
X0280090Y0242760D02*
D03*
X0280090Y0245320D02*
D03*
Y0247879D02*
D03*
X0280090Y0250438D02*
D03*
X0280090Y0252997D02*
D03*
X0280090Y0255556D02*
D03*
X0280090Y0258115D02*
D03*
X0280090Y0260674D02*
D03*
X0280090Y0263233D02*
D03*
G54D71*
X0193645Y0426148D02*
D03*
X0188921D02*
D03*
X0303817Y0363008D02*
D03*
X0308542D02*
D03*
X0187517Y0303229D02*
D03*
X0192242D02*
D03*
X0187517Y0278229D02*
D03*
X0192242D02*
D03*
X0187517Y0336562D02*
D03*
X0192242D02*
D03*
X0187517Y0319896D02*
D03*
X0192242D02*
D03*
X0187517Y0294896D02*
D03*
X0192242D02*
D03*
X0187517Y0353229D02*
D03*
X0192242D02*
D03*
X0187517Y0344896D02*
D03*
X0192242D02*
D03*
X0187517Y0311562D02*
D03*
X0192242D02*
D03*
X0187517Y0328229D02*
D03*
X0192242D02*
D03*
X0177254Y0278187D02*
D03*
X0181978D02*
D03*
X0177254Y0311521D02*
D03*
X0181978D02*
D03*
X0177254Y0353187D02*
D03*
X0181978D02*
D03*
X0308542Y0373008D02*
D03*
X0303817D02*
D03*
X0181978Y0294854D02*
D03*
X0177254D02*
D03*
X0181978Y0286521D02*
D03*
X0177254D02*
D03*
X0181978Y0319854D02*
D03*
X0177254D02*
D03*
X0181978Y0336521D02*
D03*
X0177254D02*
D03*
X0194017Y0390908D02*
D03*
X0189293D02*
D03*
X0182631Y0457052D02*
D03*
X0177907D02*
D03*
X0182566Y0461908D02*
D03*
X0177842D02*
D03*
X0157755Y0487408D02*
D03*
X0162480D02*
D03*
X0241102Y0456845D02*
D03*
X0236377D02*
D03*
X0241031Y0462093D02*
D03*
X0236306D02*
D03*
X0326688Y0510700D02*
D03*
X0331413D02*
D03*
X0321193Y0426129D02*
D03*
X0325918Y0426129D02*
D03*
X0321193Y0431129D02*
D03*
X0325918D02*
D03*
X0321193Y0436129D02*
D03*
X0325918D02*
D03*
X0321193Y0441129D02*
D03*
X0325918D02*
D03*
X0134217Y0422008D02*
D03*
X0138942D02*
D03*
X0193645Y0430847D02*
D03*
X0188921D02*
D03*
X0261442Y0246871D02*
D03*
X0256717D02*
D03*
X0261442Y0251508D02*
D03*
X0256717D02*
D03*
X0251169Y0246871D02*
D03*
X0246444D02*
D03*
X0251169Y0251508D02*
D03*
X0246444D02*
D03*
X0240869D02*
D03*
X0236144D02*
D03*
X0240869Y0246871D02*
D03*
X0236144D02*
D03*
X0181978Y0344854D02*
D03*
X0177254D02*
D03*
X0181978Y0303187D02*
D03*
X0177254D02*
D03*
X0181978Y0328187D02*
D03*
X0177254D02*
D03*
X0192242Y0286562D02*
D03*
X0187517D02*
D03*
G54D72*
X0345310Y0389121D02*
D03*
X0345310Y0415696D02*
D03*
G54D73*
X0338224Y0394140D02*
D03*
Y0410676D02*
D03*
G54D74*
X0286569Y0323467D02*
D03*
X0290310D02*
D03*
X0294050D02*
D03*
Y0312640D02*
D03*
X0290310D02*
D03*
X0286569D02*
D03*
G54D75*
X0323314Y0501168D02*
D03*
Y0499593D02*
D03*
X0262684Y0504318D02*
D03*
Y0502743D02*
D03*
Y0501168D02*
D03*
Y0499593D02*
D03*
Y0498018D02*
D03*
Y0496444D02*
D03*
Y0494869D02*
D03*
Y0493294D02*
D03*
Y0491719D02*
D03*
Y0490144D02*
D03*
Y0488570D02*
D03*
Y0486995D02*
D03*
Y0485420D02*
D03*
Y0483845D02*
D03*
Y0482270D02*
D03*
Y0480696D02*
D03*
Y0479121D02*
D03*
Y0477546D02*
D03*
Y0475971D02*
D03*
Y0474396D02*
D03*
Y0472822D02*
D03*
Y0471247D02*
D03*
Y0469672D02*
D03*
Y0468097D02*
D03*
Y0466522D02*
D03*
Y0464948D02*
D03*
Y0463373D02*
D03*
Y0461798D02*
D03*
Y0460223D02*
D03*
Y0458648D02*
D03*
Y0457073D02*
D03*
Y0455499D02*
D03*
X0323314D02*
D03*
Y0457073D02*
D03*
Y0458648D02*
D03*
Y0460223D02*
D03*
Y0461798D02*
D03*
Y0463373D02*
D03*
Y0464948D02*
D03*
Y0466522D02*
D03*
Y0468097D02*
D03*
Y0469672D02*
D03*
Y0471247D02*
D03*
Y0472822D02*
D03*
Y0474396D02*
D03*
Y0475971D02*
D03*
Y0477546D02*
D03*
Y0479121D02*
D03*
Y0480696D02*
D03*
Y0482270D02*
D03*
Y0483845D02*
D03*
Y0485420D02*
D03*
Y0486995D02*
D03*
Y0488570D02*
D03*
Y0490144D02*
D03*
Y0491719D02*
D03*
Y0493294D02*
D03*
Y0494869D02*
D03*
Y0496444D02*
D03*
Y0498018D02*
D03*
Y0502743D02*
D03*
Y0504318D02*
D03*
G54D76*
X0268590Y0449593D02*
D03*
X0270165D02*
D03*
X0271740D02*
D03*
X0273314D02*
D03*
X0274889D02*
D03*
X0276464D02*
D03*
X0278039D02*
D03*
X0279613D02*
D03*
X0281188D02*
D03*
X0282763D02*
D03*
X0284338D02*
D03*
X0285913D02*
D03*
X0287488D02*
D03*
X0289062D02*
D03*
X0290637D02*
D03*
X0292212D02*
D03*
X0293787D02*
D03*
X0295361D02*
D03*
X0296936D02*
D03*
X0298511D02*
D03*
X0300086D02*
D03*
X0301661D02*
D03*
X0303236D02*
D03*
X0304810D02*
D03*
X0306385D02*
D03*
X0307960D02*
D03*
X0309535D02*
D03*
X0311110D02*
D03*
X0312684D02*
D03*
X0314259D02*
D03*
X0315834D02*
D03*
X0317409D02*
D03*
Y0510223D02*
D03*
X0315834D02*
D03*
X0314259D02*
D03*
X0312684D02*
D03*
X0311110D02*
D03*
X0309535D02*
D03*
X0307960D02*
D03*
X0306385D02*
D03*
X0304810D02*
D03*
X0303236D02*
D03*
X0301661D02*
D03*
X0300086D02*
D03*
X0298511D02*
D03*
X0296936D02*
D03*
X0295361D02*
D03*
X0293787D02*
D03*
X0292212D02*
D03*
X0290637D02*
D03*
X0289062D02*
D03*
X0287488D02*
D03*
X0285913D02*
D03*
X0284338D02*
D03*
X0282763D02*
D03*
X0281188D02*
D03*
X0279613D02*
D03*
X0278039D02*
D03*
X0276464D02*
D03*
X0274889D02*
D03*
X0273314D02*
D03*
X0271740D02*
D03*
X0270165D02*
D03*
X0268590D02*
D03*
G54D77*
X0154280Y0499513D02*
D03*
X0187742D02*
D03*
G54D78*
X0147980Y0517408D02*
D03*
X0194043D02*
D03*
G54D79*
X0159692Y0495066D02*
D03*
X0161661D02*
D03*
X0163629D02*
D03*
X0165598D02*
D03*
X0167566D02*
D03*
X0169535D02*
D03*
X0171503D02*
D03*
X0173472D02*
D03*
X0175440D02*
D03*
X0177409D02*
D03*
X0179377D02*
D03*
X0181346D02*
D03*
G54D80*
X0182330Y0501365D02*
D03*
X0180361D02*
D03*
X0178393D02*
D03*
X0176425D02*
D03*
X0174456D02*
D03*
X0172487D02*
D03*
X0170519D02*
D03*
X0168551D02*
D03*
X0166582D02*
D03*
X0164613D02*
D03*
X0162645D02*
D03*
X0160677D02*
D03*
G54D81*
X0258507Y0262918D02*
D03*
X0249452Y0269808D02*
D03*
X0258507Y0276698D02*
D03*
G54D82*
X0266248Y0376895D02*
D03*
X0248728D02*
D03*
X0266248Y0374927D02*
D03*
Y0372958D02*
D03*
Y0370990D02*
D03*
Y0369021D02*
D03*
X0248728Y0374927D02*
D03*
Y0372958D02*
D03*
Y0370990D02*
D03*
Y0369021D02*
D03*
Y0383871D02*
D03*
Y0385840D02*
D03*
Y0387808D02*
D03*
Y0389777D02*
D03*
X0266248Y0383871D02*
D03*
Y0385840D02*
D03*
Y0387808D02*
D03*
Y0389777D02*
D03*
X0248728Y0391745D02*
D03*
X0266248D02*
D03*
G54D83*
X0133783Y0431814D02*
D03*
X0143783D02*
D03*
Y0453802D02*
D03*
X0133783D02*
D03*
G54D84*
X0143397Y0466546D02*
D03*
X0151665D02*
D03*
X0183700Y0390712D02*
D03*
X0175432D02*
D03*
X0183565Y0430847D02*
D03*
X0175297D02*
D03*
X0175427Y0399908D02*
D03*
X0183695D02*
D03*
G54D85*
X0169527Y0484493D02*
D03*
X0171495Y0484493D02*
D03*
X0175432D02*
D03*
X0177401D02*
D03*
Y0487780D02*
D03*
X0175432D02*
D03*
X0171495D02*
D03*
X0169527D02*
D03*
G54D86*
X0173464Y0484493D02*
D03*
Y0487780D02*
D03*
G54D87*
X0327980Y0232277D02*
D03*
X0133767Y0494596D02*
D03*
X0147980Y0232675D02*
D03*
G54D88*
X0295462Y0299480D02*
D03*
Y0305779D02*
D03*
X0280480Y0305047D02*
D03*
Y0311346D02*
D03*
X0169114Y0472546D02*
D03*
Y0466247D02*
D03*
X0163018Y0472546D02*
D03*
Y0466247D02*
D03*
G54D89*
X0150649Y0473743D02*
D03*
X0144350Y0473743D02*
D03*
X0189704Y0400108D02*
D03*
X0196003D02*
D03*
G54D90*
X0270616Y0295592D02*
D03*
X0275071Y0291138D02*
D03*
X0266315Y0291144D02*
D03*
X0270769Y0286690D02*
D03*
G54D91*
X0262778Y0295791D02*
D03*
X0258324Y0291336D02*
D03*
G54D92*
X0267146Y0300055D02*
D03*
X0271600Y0304509D02*
D03*
G54D93*
X0132980Y0514908D02*
D03*
X0342980D02*
D03*
G54D94*
X0132980D02*
D03*
X0342980Y0234908D02*
D03*
X0342980Y0514908D02*
D03*
X0132980Y0234908D02*
D03*
G54D95*
X0147980Y0243408D02*
D03*
X0200180Y0261908D02*
D03*
X0327980Y0243408D02*
D03*
G54D96*
X0147980Y0253408D02*
D03*
Y0263408D02*
D03*
X0200180Y0251908D02*
D03*
X0217900Y0234506D02*
D03*
X0227900D02*
D03*
X0237900D02*
D03*
X0247900D02*
D03*
X0327980Y0263408D02*
D03*
Y0253408D02*
D03*
G54D97*
X0252030Y0336711D02*
D03*
X0198680Y0236130D02*
D03*
X0185869Y0235780D02*
D03*
X0273962Y0329208D02*
D03*
X0213313Y0288608D02*
D03*
G54D98*
X0257900Y0234506D02*
D03*
X0157980Y0393408D02*
D03*
G54D99*
X0342358Y0397881D02*
D03*
Y0406936D02*
D03*
G54D100*
X0155283Y0500184D02*
D03*
X0186740D02*
D03*
G54D101*
X0154003Y0497822D02*
D03*
X0188019D02*
D03*
G54D102*
X0147980Y0518688D02*
D03*
X0194043D02*
D03*
G54D103*
X0147980Y0373408D02*
D03*
G54D104*
Y0363408D02*
D03*
Y0353408D02*
D03*
Y0343408D02*
D03*
Y0333408D02*
D03*
Y0323408D02*
D03*
Y0313408D02*
D03*
Y0303408D02*
D03*
Y0293408D02*
D03*
Y0283408D02*
D03*
X0157980Y0373408D02*
D03*
Y0363408D02*
D03*
Y0353408D02*
D03*
Y0343408D02*
D03*
Y0333408D02*
D03*
Y0323408D02*
D03*
Y0313408D02*
D03*
Y0303408D02*
D03*
Y0293408D02*
D03*
Y0283408D02*
D03*
X0317980Y0373408D02*
D03*
Y0363408D02*
D03*
Y0353408D02*
D03*
Y0343408D02*
D03*
Y0333408D02*
D03*
Y0323408D02*
D03*
Y0313408D02*
D03*
Y0303408D02*
D03*
Y0293408D02*
D03*
Y0283408D02*
D03*
X0327980Y0373408D02*
D03*
Y0363408D02*
D03*
Y0353408D02*
D03*
Y0343408D02*
D03*
Y0333408D02*
D03*
Y0323408D02*
D03*
Y0313408D02*
D03*
Y0303408D02*
D03*
Y0293408D02*
D03*
Y0283408D02*
D03*
G54D105*
X0208094Y0420408D02*
D03*
X0285813D02*
D03*
G54D106*
X0218094D02*
D03*
X0208094Y0410408D02*
D03*
X0218094D02*
D03*
X0235813D02*
D03*
X0245813D02*
D03*
X0255813D02*
D03*
X0265813D02*
D03*
X0275813D02*
D03*
X0285813D02*
D03*
X0235813Y0420408D02*
D03*
X0245813D02*
D03*
X0255813D02*
D03*
X0265813D02*
D03*
X0275813D02*
D03*
G54D107*
X0147980Y0393408D02*
D03*
M02*
