G04*
G04 #@! TF.GenerationSoftware,Altium Limited,Altium Designer,23.1.1 (15)*
G04*
G04 Layer_Color=8454143*
%FSAX25Y25*%
%MOIN*%
G70*
G04*
G04 #@! TF.SameCoordinates,3BE6CC82-2BF3-4767-8D6A-7EFB0FF24752*
G04*
G04*
G04 #@! TF.FilePolarity,Positive*
G04*
G01*
G75*
%ADD20C,0.00800*%
%ADD31C,0.01000*%
%ADD146C,0.01500*%
%ADD153C,0.00100*%
G36*
X0869822Y0625776D02*
X0869984D01*
X0870424Y0625729D01*
X0870909Y0625660D01*
X0871418Y0625544D01*
X0871974Y0625405D01*
X0872483Y0625220D01*
X0872506D01*
X0872552Y0625197D01*
X0872622Y0625151D01*
X0872714Y0625105D01*
X0872946Y0624989D01*
X0873246Y0624781D01*
X0873594Y0624549D01*
X0873941Y0624248D01*
X0874265Y0623901D01*
X0874566Y0623508D01*
Y0623485D01*
X0874589Y0623462D01*
X0874635Y0623392D01*
X0874681Y0623323D01*
X0874797Y0623091D01*
X0874936Y0622790D01*
X0875098Y0622420D01*
X0875213Y0621981D01*
X0875329Y0621518D01*
X0875375Y0621009D01*
X0873339Y0620847D01*
Y0620870D01*
Y0620916D01*
X0873316Y0620986D01*
X0873293Y0621101D01*
X0873223Y0621356D01*
X0873131Y0621703D01*
X0872992Y0622073D01*
X0872784Y0622443D01*
X0872529Y0622790D01*
X0872205Y0623114D01*
X0872159Y0623138D01*
X0872043Y0623230D01*
X0871812Y0623369D01*
X0871511Y0623508D01*
X0871118Y0623647D01*
X0870655Y0623785D01*
X0870076Y0623878D01*
X0869428Y0623901D01*
X0869104D01*
X0868966Y0623878D01*
X0868781Y0623855D01*
X0868364Y0623809D01*
X0867901Y0623716D01*
X0867438Y0623600D01*
X0866999Y0623415D01*
X0866814Y0623300D01*
X0866628Y0623184D01*
X0866582Y0623161D01*
X0866490Y0623068D01*
X0866351Y0622906D01*
X0866212Y0622721D01*
X0866050Y0622467D01*
X0865911Y0622189D01*
X0865819Y0621865D01*
X0865772Y0621495D01*
Y0621448D01*
Y0621356D01*
X0865795Y0621194D01*
X0865842Y0621009D01*
X0865911Y0620777D01*
X0866027Y0620546D01*
X0866166Y0620315D01*
X0866374Y0620083D01*
X0866397Y0620060D01*
X0866513Y0619991D01*
X0866605Y0619921D01*
X0866698Y0619875D01*
X0866837Y0619805D01*
X0866999Y0619713D01*
X0867207Y0619643D01*
X0867438Y0619551D01*
X0867693Y0619458D01*
X0867994Y0619343D01*
X0868318Y0619250D01*
X0868688Y0619134D01*
X0869104Y0619042D01*
X0869567Y0618926D01*
X0869590D01*
X0869683Y0618903D01*
X0869822Y0618880D01*
X0869984Y0618834D01*
X0870192Y0618787D01*
X0870447Y0618718D01*
X0870701Y0618648D01*
X0870979Y0618579D01*
X0871581Y0618417D01*
X0872159Y0618255D01*
X0872437Y0618162D01*
X0872691Y0618070D01*
X0872923Y0618001D01*
X0873108Y0617908D01*
X0873131D01*
X0873177Y0617885D01*
X0873246Y0617839D01*
X0873339Y0617792D01*
X0873594Y0617653D01*
X0873894Y0617468D01*
X0874242Y0617214D01*
X0874589Y0616936D01*
X0874913Y0616612D01*
X0875190Y0616265D01*
X0875213Y0616219D01*
X0875306Y0616103D01*
X0875399Y0615895D01*
X0875537Y0615617D01*
X0875653Y0615293D01*
X0875769Y0614900D01*
X0875838Y0614460D01*
X0875861Y0613997D01*
Y0613974D01*
Y0613951D01*
Y0613882D01*
Y0613789D01*
X0875815Y0613534D01*
X0875769Y0613211D01*
X0875676Y0612840D01*
X0875560Y0612447D01*
X0875375Y0612030D01*
X0875121Y0611591D01*
Y0611568D01*
X0875098Y0611545D01*
X0874982Y0611406D01*
X0874820Y0611197D01*
X0874589Y0610966D01*
X0874288Y0610688D01*
X0873918Y0610388D01*
X0873501Y0610110D01*
X0873015Y0609855D01*
X0872992D01*
X0872946Y0609832D01*
X0872876Y0609809D01*
X0872784Y0609763D01*
X0872645Y0609716D01*
X0872483Y0609647D01*
X0872113Y0609554D01*
X0871673Y0609439D01*
X0871141Y0609323D01*
X0870562Y0609254D01*
X0869938Y0609231D01*
X0869567D01*
X0869382Y0609254D01*
X0869174D01*
X0868943Y0609277D01*
X0868665Y0609300D01*
X0868086Y0609392D01*
X0867485Y0609485D01*
X0866883Y0609647D01*
X0866304Y0609855D01*
X0866281D01*
X0866235Y0609878D01*
X0866166Y0609925D01*
X0866073Y0609971D01*
X0865795Y0610110D01*
X0865471Y0610318D01*
X0865101Y0610596D01*
X0864708Y0610920D01*
X0864338Y0611313D01*
X0863990Y0611753D01*
Y0611776D01*
X0863944Y0611822D01*
X0863921Y0611892D01*
X0863852Y0611984D01*
X0863805Y0612100D01*
X0863736Y0612239D01*
X0863574Y0612586D01*
X0863412Y0613025D01*
X0863273Y0613511D01*
X0863181Y0614067D01*
X0863134Y0614645D01*
X0865124Y0614830D01*
Y0614807D01*
Y0614784D01*
X0865147Y0614715D01*
Y0614622D01*
X0865194Y0614414D01*
X0865263Y0614113D01*
X0865356Y0613812D01*
X0865448Y0613465D01*
X0865610Y0613141D01*
X0865772Y0612840D01*
X0865795Y0612817D01*
X0865865Y0612725D01*
X0865981Y0612563D01*
X0866166Y0612401D01*
X0866397Y0612192D01*
X0866652Y0611984D01*
X0866999Y0611776D01*
X0867369Y0611591D01*
X0867392D01*
X0867415Y0611568D01*
X0867485Y0611545D01*
X0867554Y0611521D01*
X0867785Y0611452D01*
X0868086Y0611359D01*
X0868457Y0611267D01*
X0868873Y0611197D01*
X0869336Y0611151D01*
X0869845Y0611128D01*
X0870053D01*
X0870285Y0611151D01*
X0870562Y0611174D01*
X0870886Y0611221D01*
X0871257Y0611267D01*
X0871627Y0611359D01*
X0871974Y0611475D01*
X0872020Y0611498D01*
X0872136Y0611545D01*
X0872298Y0611637D01*
X0872506Y0611730D01*
X0872714Y0611892D01*
X0872946Y0612054D01*
X0873177Y0612239D01*
X0873362Y0612470D01*
X0873385Y0612493D01*
X0873432Y0612586D01*
X0873501Y0612702D01*
X0873594Y0612887D01*
X0873686Y0613072D01*
X0873756Y0613303D01*
X0873802Y0613558D01*
X0873825Y0613835D01*
Y0613859D01*
Y0613974D01*
X0873802Y0614113D01*
X0873779Y0614298D01*
X0873709Y0614483D01*
X0873640Y0614715D01*
X0873524Y0614946D01*
X0873362Y0615154D01*
X0873339Y0615177D01*
X0873270Y0615247D01*
X0873177Y0615339D01*
X0873015Y0615478D01*
X0872830Y0615617D01*
X0872575Y0615779D01*
X0872275Y0615941D01*
X0871928Y0616080D01*
X0871904Y0616103D01*
X0871789Y0616126D01*
X0871604Y0616196D01*
X0871488Y0616219D01*
X0871326Y0616265D01*
X0871164Y0616334D01*
X0870956Y0616381D01*
X0870724Y0616450D01*
X0870447Y0616520D01*
X0870169Y0616589D01*
X0869845Y0616682D01*
X0869475Y0616774D01*
X0869081Y0616867D01*
X0869058D01*
X0868989Y0616890D01*
X0868873Y0616913D01*
X0868734Y0616959D01*
X0868549Y0617005D01*
X0868341Y0617052D01*
X0867878Y0617191D01*
X0867369Y0617353D01*
X0866837Y0617515D01*
X0866374Y0617677D01*
X0866166Y0617769D01*
X0865981Y0617862D01*
X0865957D01*
X0865934Y0617885D01*
X0865795Y0617977D01*
X0865587Y0618093D01*
X0865356Y0618278D01*
X0865078Y0618486D01*
X0864800Y0618741D01*
X0864523Y0619042D01*
X0864291Y0619366D01*
X0864268Y0619412D01*
X0864199Y0619528D01*
X0864106Y0619713D01*
X0864014Y0619944D01*
X0863921Y0620245D01*
X0863828Y0620592D01*
X0863759Y0620962D01*
X0863736Y0621356D01*
Y0621379D01*
Y0621402D01*
Y0621472D01*
Y0621564D01*
X0863782Y0621796D01*
X0863828Y0622096D01*
X0863898Y0622443D01*
X0864014Y0622837D01*
X0864176Y0623230D01*
X0864407Y0623624D01*
Y0623647D01*
X0864430Y0623670D01*
X0864546Y0623809D01*
X0864708Y0623994D01*
X0864916Y0624225D01*
X0865194Y0624480D01*
X0865541Y0624757D01*
X0865957Y0625012D01*
X0866420Y0625243D01*
X0866443D01*
X0866490Y0625267D01*
X0866559Y0625290D01*
X0866652Y0625336D01*
X0866767Y0625382D01*
X0866929Y0625428D01*
X0867276Y0625521D01*
X0867716Y0625614D01*
X0868225Y0625706D01*
X0868757Y0625776D01*
X0869359Y0625799D01*
X0869660D01*
X0869822Y0625776D01*
D02*
G37*
G36*
X0691852D02*
X0692014D01*
X0692454Y0625729D01*
X0692940Y0625660D01*
X0693449Y0625544D01*
X0694004Y0625405D01*
X0694513Y0625220D01*
X0694536D01*
X0694583Y0625197D01*
X0694652Y0625151D01*
X0694745Y0625105D01*
X0694976Y0624989D01*
X0695277Y0624781D01*
X0695624Y0624549D01*
X0695971Y0624248D01*
X0696295Y0623901D01*
X0696596Y0623508D01*
Y0623485D01*
X0696619Y0623462D01*
X0696665Y0623392D01*
X0696711Y0623323D01*
X0696827Y0623091D01*
X0696966Y0622790D01*
X0697128Y0622420D01*
X0697244Y0621981D01*
X0697359Y0621518D01*
X0697406Y0621009D01*
X0695369Y0620847D01*
Y0620870D01*
Y0620916D01*
X0695346Y0620986D01*
X0695323Y0621101D01*
X0695254Y0621356D01*
X0695161Y0621703D01*
X0695022Y0622073D01*
X0694814Y0622443D01*
X0694559Y0622790D01*
X0694236Y0623114D01*
X0694189Y0623138D01*
X0694073Y0623230D01*
X0693842Y0623369D01*
X0693541Y0623508D01*
X0693148Y0623647D01*
X0692685Y0623785D01*
X0692107Y0623878D01*
X0691459Y0623901D01*
X0691135D01*
X0690996Y0623878D01*
X0690811Y0623855D01*
X0690394Y0623809D01*
X0689931Y0623716D01*
X0689469Y0623600D01*
X0689029Y0623415D01*
X0688844Y0623300D01*
X0688659Y0623184D01*
X0688613Y0623161D01*
X0688520Y0623068D01*
X0688381Y0622906D01*
X0688242Y0622721D01*
X0688080Y0622467D01*
X0687941Y0622189D01*
X0687849Y0621865D01*
X0687803Y0621495D01*
Y0621448D01*
Y0621356D01*
X0687826Y0621194D01*
X0687872Y0621009D01*
X0687941Y0620777D01*
X0688057Y0620546D01*
X0688196Y0620315D01*
X0688404Y0620083D01*
X0688427Y0620060D01*
X0688543Y0619991D01*
X0688636Y0619921D01*
X0688728Y0619875D01*
X0688867Y0619805D01*
X0689029Y0619713D01*
X0689237Y0619643D01*
X0689469Y0619551D01*
X0689723Y0619458D01*
X0690024Y0619343D01*
X0690348Y0619250D01*
X0690718Y0619134D01*
X0691135Y0619042D01*
X0691598Y0618926D01*
X0691621D01*
X0691713Y0618903D01*
X0691852Y0618880D01*
X0692014Y0618834D01*
X0692222Y0618787D01*
X0692477Y0618718D01*
X0692731Y0618648D01*
X0693009Y0618579D01*
X0693611Y0618417D01*
X0694189Y0618255D01*
X0694467Y0618162D01*
X0694721Y0618070D01*
X0694953Y0618001D01*
X0695138Y0617908D01*
X0695161D01*
X0695207Y0617885D01*
X0695277Y0617839D01*
X0695369Y0617792D01*
X0695624Y0617653D01*
X0695925Y0617468D01*
X0696272Y0617214D01*
X0696619Y0616936D01*
X0696943Y0616612D01*
X0697221Y0616265D01*
X0697244Y0616219D01*
X0697336Y0616103D01*
X0697429Y0615895D01*
X0697568Y0615617D01*
X0697683Y0615293D01*
X0697799Y0614900D01*
X0697868Y0614460D01*
X0697892Y0613997D01*
Y0613974D01*
Y0613951D01*
Y0613882D01*
Y0613789D01*
X0697845Y0613534D01*
X0697799Y0613211D01*
X0697707Y0612840D01*
X0697591Y0612447D01*
X0697406Y0612030D01*
X0697151Y0611591D01*
Y0611568D01*
X0697128Y0611545D01*
X0697012Y0611406D01*
X0696850Y0611197D01*
X0696619Y0610966D01*
X0696318Y0610688D01*
X0695948Y0610388D01*
X0695531Y0610110D01*
X0695045Y0609855D01*
X0695022D01*
X0694976Y0609832D01*
X0694907Y0609809D01*
X0694814Y0609763D01*
X0694675Y0609716D01*
X0694513Y0609647D01*
X0694143Y0609554D01*
X0693703Y0609439D01*
X0693171Y0609323D01*
X0692593Y0609254D01*
X0691968Y0609231D01*
X0691598D01*
X0691412Y0609254D01*
X0691204D01*
X0690973Y0609277D01*
X0690695Y0609300D01*
X0690117Y0609392D01*
X0689515Y0609485D01*
X0688913Y0609647D01*
X0688335Y0609855D01*
X0688312D01*
X0688265Y0609878D01*
X0688196Y0609925D01*
X0688103Y0609971D01*
X0687826Y0610110D01*
X0687502Y0610318D01*
X0687132Y0610596D01*
X0686738Y0610920D01*
X0686368Y0611313D01*
X0686021Y0611753D01*
Y0611776D01*
X0685975Y0611822D01*
X0685951Y0611892D01*
X0685882Y0611984D01*
X0685836Y0612100D01*
X0685766Y0612239D01*
X0685604Y0612586D01*
X0685442Y0613025D01*
X0685303Y0613511D01*
X0685211Y0614067D01*
X0685165Y0614645D01*
X0687155Y0614830D01*
Y0614807D01*
Y0614784D01*
X0687178Y0614715D01*
Y0614622D01*
X0687224Y0614414D01*
X0687293Y0614113D01*
X0687386Y0613812D01*
X0687479Y0613465D01*
X0687641Y0613141D01*
X0687803Y0612840D01*
X0687826Y0612817D01*
X0687895Y0612725D01*
X0688011Y0612563D01*
X0688196Y0612401D01*
X0688427Y0612192D01*
X0688682Y0611984D01*
X0689029Y0611776D01*
X0689399Y0611591D01*
X0689422D01*
X0689445Y0611568D01*
X0689515Y0611545D01*
X0689584Y0611521D01*
X0689816Y0611452D01*
X0690117Y0611359D01*
X0690487Y0611267D01*
X0690903Y0611197D01*
X0691366Y0611151D01*
X0691875Y0611128D01*
X0692084D01*
X0692315Y0611151D01*
X0692593Y0611174D01*
X0692916Y0611221D01*
X0693287Y0611267D01*
X0693657Y0611359D01*
X0694004Y0611475D01*
X0694050Y0611498D01*
X0694166Y0611545D01*
X0694328Y0611637D01*
X0694536Y0611730D01*
X0694745Y0611892D01*
X0694976Y0612054D01*
X0695207Y0612239D01*
X0695393Y0612470D01*
X0695416Y0612493D01*
X0695462Y0612586D01*
X0695531Y0612702D01*
X0695624Y0612887D01*
X0695716Y0613072D01*
X0695786Y0613303D01*
X0695832Y0613558D01*
X0695855Y0613835D01*
Y0613859D01*
Y0613974D01*
X0695832Y0614113D01*
X0695809Y0614298D01*
X0695740Y0614483D01*
X0695670Y0614715D01*
X0695554Y0614946D01*
X0695393Y0615154D01*
X0695369Y0615177D01*
X0695300Y0615247D01*
X0695207Y0615339D01*
X0695045Y0615478D01*
X0694860Y0615617D01*
X0694606Y0615779D01*
X0694305Y0615941D01*
X0693958Y0616080D01*
X0693935Y0616103D01*
X0693819Y0616126D01*
X0693634Y0616196D01*
X0693518Y0616219D01*
X0693356Y0616265D01*
X0693194Y0616334D01*
X0692986Y0616381D01*
X0692755Y0616450D01*
X0692477Y0616520D01*
X0692199Y0616589D01*
X0691875Y0616682D01*
X0691505Y0616774D01*
X0691112Y0616867D01*
X0691088D01*
X0691019Y0616890D01*
X0690903Y0616913D01*
X0690765Y0616959D01*
X0690579Y0617005D01*
X0690371Y0617052D01*
X0689908Y0617191D01*
X0689399Y0617353D01*
X0688867Y0617515D01*
X0688404Y0617677D01*
X0688196Y0617769D01*
X0688011Y0617862D01*
X0687988D01*
X0687964Y0617885D01*
X0687826Y0617977D01*
X0687617Y0618093D01*
X0687386Y0618278D01*
X0687108Y0618486D01*
X0686831Y0618741D01*
X0686553Y0619042D01*
X0686322Y0619366D01*
X0686299Y0619412D01*
X0686229Y0619528D01*
X0686136Y0619713D01*
X0686044Y0619944D01*
X0685951Y0620245D01*
X0685859Y0620592D01*
X0685789Y0620962D01*
X0685766Y0621356D01*
Y0621379D01*
Y0621402D01*
Y0621472D01*
Y0621564D01*
X0685813Y0621796D01*
X0685859Y0622096D01*
X0685928Y0622443D01*
X0686044Y0622837D01*
X0686206Y0623230D01*
X0686437Y0623624D01*
Y0623647D01*
X0686460Y0623670D01*
X0686576Y0623809D01*
X0686738Y0623994D01*
X0686946Y0624225D01*
X0687224Y0624480D01*
X0687571Y0624757D01*
X0687988Y0625012D01*
X0688450Y0625243D01*
X0688474D01*
X0688520Y0625267D01*
X0688589Y0625290D01*
X0688682Y0625336D01*
X0688798Y0625382D01*
X0688960Y0625428D01*
X0689307Y0625521D01*
X0689746Y0625614D01*
X0690255Y0625706D01*
X0690788Y0625776D01*
X0691389Y0625799D01*
X0691690D01*
X0691852Y0625776D01*
D02*
G37*
G36*
X0773351Y0609508D02*
X0771523D01*
Y0610966D01*
X0771500Y0610943D01*
X0771477Y0610897D01*
X0771407Y0610804D01*
X0771315Y0610688D01*
X0771199Y0610573D01*
X0771060Y0610434D01*
X0770898Y0610272D01*
X0770690Y0610110D01*
X0770482Y0609948D01*
X0770250Y0609786D01*
X0769973Y0609647D01*
X0769672Y0609531D01*
X0769371Y0609416D01*
X0769024Y0609323D01*
X0768654Y0609277D01*
X0768260Y0609254D01*
X0768121D01*
X0768029Y0609277D01*
X0767751Y0609300D01*
X0767427Y0609346D01*
X0767034Y0609439D01*
X0766594Y0609578D01*
X0766155Y0609763D01*
X0765715Y0610017D01*
X0765692D01*
X0765669Y0610064D01*
X0765530Y0610156D01*
X0765322Y0610341D01*
X0765067Y0610573D01*
X0764766Y0610873D01*
X0764465Y0611244D01*
X0764165Y0611660D01*
X0763910Y0612146D01*
Y0612169D01*
X0763887Y0612216D01*
X0763864Y0612285D01*
X0763818Y0612378D01*
X0763771Y0612516D01*
X0763702Y0612678D01*
X0763656Y0612840D01*
X0763609Y0613049D01*
X0763493Y0613511D01*
X0763378Y0614044D01*
X0763308Y0614645D01*
X0763285Y0615293D01*
Y0615316D01*
Y0615363D01*
Y0615455D01*
Y0615594D01*
X0763308Y0615733D01*
Y0615918D01*
X0763355Y0616334D01*
X0763424Y0616820D01*
X0763540Y0617353D01*
X0763679Y0617908D01*
X0763864Y0618440D01*
Y0618463D01*
X0763887Y0618510D01*
X0763933Y0618579D01*
X0763979Y0618672D01*
X0764118Y0618926D01*
X0764303Y0619250D01*
X0764535Y0619597D01*
X0764836Y0619944D01*
X0765183Y0620315D01*
X0765599Y0620615D01*
X0765622D01*
X0765646Y0620639D01*
X0765715Y0620685D01*
X0765807Y0620731D01*
X0766039Y0620847D01*
X0766363Y0621009D01*
X0766733Y0621148D01*
X0767173Y0621263D01*
X0767659Y0621356D01*
X0768168Y0621379D01*
X0768353D01*
X0768538Y0621356D01*
X0768793Y0621333D01*
X0769093Y0621263D01*
X0769417Y0621194D01*
X0769741Y0621078D01*
X0770042Y0620916D01*
X0770088Y0620893D01*
X0770181Y0620847D01*
X0770320Y0620731D01*
X0770505Y0620615D01*
X0770736Y0620453D01*
X0770945Y0620245D01*
X0771176Y0620037D01*
X0771384Y0619782D01*
Y0625521D01*
X0773351D01*
Y0609508D01*
D02*
G37*
G36*
X0741001D02*
X0739173D01*
Y0610966D01*
X0739150Y0610943D01*
X0739127Y0610897D01*
X0739058Y0610804D01*
X0738965Y0610688D01*
X0738849Y0610573D01*
X0738711Y0610434D01*
X0738549Y0610272D01*
X0738340Y0610110D01*
X0738132Y0609948D01*
X0737901Y0609786D01*
X0737623Y0609647D01*
X0737322Y0609531D01*
X0737021Y0609416D01*
X0736674Y0609323D01*
X0736304Y0609277D01*
X0735911Y0609254D01*
X0735772D01*
X0735679Y0609277D01*
X0735402Y0609300D01*
X0735078Y0609346D01*
X0734684Y0609439D01*
X0734244Y0609578D01*
X0733805Y0609763D01*
X0733365Y0610017D01*
X0733342D01*
X0733319Y0610064D01*
X0733180Y0610156D01*
X0732972Y0610341D01*
X0732717Y0610573D01*
X0732416Y0610873D01*
X0732116Y0611244D01*
X0731815Y0611660D01*
X0731560Y0612146D01*
Y0612169D01*
X0731537Y0612216D01*
X0731514Y0612285D01*
X0731468Y0612378D01*
X0731422Y0612516D01*
X0731352Y0612678D01*
X0731306Y0612840D01*
X0731259Y0613049D01*
X0731144Y0613511D01*
X0731028Y0614044D01*
X0730959Y0614645D01*
X0730935Y0615293D01*
Y0615316D01*
Y0615363D01*
Y0615455D01*
Y0615594D01*
X0730959Y0615733D01*
Y0615918D01*
X0731005Y0616334D01*
X0731074Y0616820D01*
X0731190Y0617353D01*
X0731329Y0617908D01*
X0731514Y0618440D01*
Y0618463D01*
X0731537Y0618510D01*
X0731583Y0618579D01*
X0731630Y0618672D01*
X0731769Y0618926D01*
X0731954Y0619250D01*
X0732185Y0619597D01*
X0732486Y0619944D01*
X0732833Y0620315D01*
X0733250Y0620615D01*
X0733273D01*
X0733296Y0620639D01*
X0733365Y0620685D01*
X0733458Y0620731D01*
X0733689Y0620847D01*
X0734013Y0621009D01*
X0734383Y0621148D01*
X0734823Y0621263D01*
X0735309Y0621356D01*
X0735818Y0621379D01*
X0736003D01*
X0736188Y0621356D01*
X0736443Y0621333D01*
X0736744Y0621263D01*
X0737068Y0621194D01*
X0737392Y0621078D01*
X0737692Y0620916D01*
X0737739Y0620893D01*
X0737831Y0620847D01*
X0737970Y0620731D01*
X0738155Y0620615D01*
X0738387Y0620453D01*
X0738595Y0620245D01*
X0738826Y0620037D01*
X0739035Y0619782D01*
Y0625521D01*
X0741001D01*
Y0609508D01*
D02*
G37*
G36*
X0937553Y0621356D02*
X0937715Y0621333D01*
X0938062Y0621286D01*
X0938478Y0621194D01*
X0938918Y0621055D01*
X0939357Y0620847D01*
X0939797Y0620592D01*
X0939820D01*
X0939843Y0620546D01*
X0939982Y0620453D01*
X0940191Y0620268D01*
X0940445Y0620037D01*
X0940723Y0619736D01*
X0941000Y0619366D01*
X0941278Y0618926D01*
X0941510Y0618440D01*
Y0618417D01*
X0941533Y0618371D01*
X0941556Y0618301D01*
X0941602Y0618209D01*
X0941648Y0618070D01*
X0941695Y0617908D01*
X0941810Y0617538D01*
X0941926Y0617075D01*
X0942019Y0616566D01*
X0942088Y0615987D01*
X0942111Y0615386D01*
Y0615363D01*
Y0615316D01*
Y0615224D01*
Y0615085D01*
X0942088Y0614923D01*
Y0614738D01*
X0942042Y0614321D01*
X0941949Y0613812D01*
X0941833Y0613280D01*
X0941671Y0612725D01*
X0941463Y0612169D01*
Y0612146D01*
X0941440Y0612100D01*
X0941394Y0612030D01*
X0941348Y0611938D01*
X0941186Y0611683D01*
X0940977Y0611359D01*
X0940723Y0611012D01*
X0940399Y0610665D01*
X0940029Y0610318D01*
X0939589Y0609994D01*
X0939566D01*
X0939543Y0609971D01*
X0939473Y0609925D01*
X0939381Y0609878D01*
X0939149Y0609763D01*
X0938825Y0609624D01*
X0938432Y0609485D01*
X0938015Y0609369D01*
X0937529Y0609277D01*
X0937043Y0609254D01*
X0936882D01*
X0936696Y0609277D01*
X0936465Y0609300D01*
X0936187Y0609346D01*
X0935886Y0609416D01*
X0935586Y0609508D01*
X0935285Y0609647D01*
X0935262Y0609670D01*
X0935146Y0609716D01*
X0935007Y0609809D01*
X0934822Y0609948D01*
X0934637Y0610087D01*
X0934406Y0610272D01*
X0934197Y0610480D01*
X0934012Y0610711D01*
Y0605065D01*
X0932045D01*
Y0621124D01*
X0933827D01*
Y0619597D01*
X0933850Y0619643D01*
X0933943Y0619736D01*
X0934058Y0619898D01*
X0934244Y0620083D01*
X0934452Y0620315D01*
X0934683Y0620523D01*
X0934961Y0620731D01*
X0935239Y0620916D01*
X0935285Y0620939D01*
X0935377Y0620986D01*
X0935563Y0621055D01*
X0935794Y0621148D01*
X0936072Y0621240D01*
X0936396Y0621310D01*
X0936766Y0621356D01*
X0937182Y0621379D01*
X0937437D01*
X0937553Y0621356D01*
D02*
G37*
G36*
X0725035D02*
X0725289Y0621333D01*
X0725590Y0621286D01*
X0725914Y0621217D01*
X0726261Y0621124D01*
X0726585Y0620986D01*
X0726631Y0620962D01*
X0726724Y0620916D01*
X0726886Y0620847D01*
X0727071Y0620731D01*
X0727303Y0620592D01*
X0727511Y0620407D01*
X0727719Y0620222D01*
X0727904Y0619991D01*
X0727927Y0619967D01*
X0727974Y0619875D01*
X0728043Y0619759D01*
X0728159Y0619597D01*
X0728251Y0619366D01*
X0728344Y0619134D01*
X0728460Y0618857D01*
X0728529Y0618556D01*
Y0618533D01*
X0728552Y0618440D01*
X0728575Y0618301D01*
X0728598Y0618116D01*
Y0617839D01*
X0728621Y0617515D01*
X0728645Y0617121D01*
Y0616635D01*
Y0609508D01*
X0726678D01*
Y0616543D01*
Y0616566D01*
Y0616589D01*
Y0616751D01*
Y0616959D01*
X0726655Y0617214D01*
X0726631Y0617515D01*
X0726585Y0617815D01*
X0726516Y0618093D01*
X0726446Y0618348D01*
Y0618371D01*
X0726400Y0618440D01*
X0726331Y0618556D01*
X0726261Y0618695D01*
X0726146Y0618834D01*
X0726007Y0618996D01*
X0725822Y0619158D01*
X0725613Y0619296D01*
X0725590Y0619319D01*
X0725521Y0619366D01*
X0725382Y0619412D01*
X0725220Y0619482D01*
X0725035Y0619551D01*
X0724803Y0619620D01*
X0724526Y0619643D01*
X0724248Y0619667D01*
X0724132D01*
X0724040Y0619643D01*
X0723808Y0619620D01*
X0723508Y0619574D01*
X0723184Y0619458D01*
X0722813Y0619319D01*
X0722443Y0619134D01*
X0722096Y0618857D01*
X0722050Y0618810D01*
X0721957Y0618695D01*
X0721888Y0618602D01*
X0721818Y0618486D01*
X0721726Y0618348D01*
X0721656Y0618186D01*
X0721564Y0618001D01*
X0721471Y0617769D01*
X0721402Y0617515D01*
X0721332Y0617237D01*
X0721286Y0616936D01*
X0721240Y0616612D01*
X0721194Y0616219D01*
Y0615825D01*
Y0609508D01*
X0719227D01*
Y0621124D01*
X0720985D01*
Y0619458D01*
X0721008Y0619482D01*
X0721055Y0619551D01*
X0721124Y0619643D01*
X0721217Y0619759D01*
X0721356Y0619898D01*
X0721518Y0620060D01*
X0721703Y0620245D01*
X0721934Y0620430D01*
X0722165Y0620592D01*
X0722443Y0620777D01*
X0722744Y0620939D01*
X0723068Y0621078D01*
X0723438Y0621194D01*
X0723808Y0621286D01*
X0724225Y0621356D01*
X0724665Y0621379D01*
X0724850D01*
X0725035Y0621356D01*
D02*
G37*
G36*
X0854549D02*
X0854804Y0621310D01*
X0855105Y0621217D01*
X0855429Y0621101D01*
X0855799Y0620939D01*
X0856192Y0620731D01*
X0855475Y0618926D01*
X0855452Y0618949D01*
X0855359Y0618996D01*
X0855221Y0619065D01*
X0855035Y0619134D01*
X0854827Y0619204D01*
X0854573Y0619273D01*
X0854318Y0619319D01*
X0854064Y0619343D01*
X0853948D01*
X0853832Y0619319D01*
X0853670Y0619296D01*
X0853508Y0619250D01*
X0853300Y0619181D01*
X0853092Y0619088D01*
X0852907Y0618949D01*
X0852883Y0618926D01*
X0852814Y0618880D01*
X0852744Y0618787D01*
X0852629Y0618672D01*
X0852513Y0618510D01*
X0852397Y0618325D01*
X0852282Y0618116D01*
X0852189Y0617862D01*
X0852166Y0617815D01*
X0852143Y0617677D01*
X0852097Y0617468D01*
X0852027Y0617191D01*
X0851958Y0616844D01*
X0851911Y0616450D01*
X0851888Y0616034D01*
X0851865Y0615571D01*
Y0609508D01*
X0849898D01*
Y0621124D01*
X0851680D01*
Y0619366D01*
X0851703Y0619389D01*
X0851796Y0619551D01*
X0851911Y0619759D01*
X0852097Y0620014D01*
X0852282Y0620268D01*
X0852490Y0620546D01*
X0852698Y0620777D01*
X0852907Y0620962D01*
X0852930Y0620986D01*
X0852999Y0621032D01*
X0853138Y0621101D01*
X0853277Y0621171D01*
X0853462Y0621240D01*
X0853693Y0621310D01*
X0853925Y0621356D01*
X0854179Y0621379D01*
X0854341D01*
X0854549Y0621356D01*
D02*
G37*
G36*
X0761203D02*
X0761457Y0621310D01*
X0761758Y0621217D01*
X0762082Y0621101D01*
X0762452Y0620939D01*
X0762846Y0620731D01*
X0762128Y0618926D01*
X0762105Y0618949D01*
X0762013Y0618996D01*
X0761874Y0619065D01*
X0761689Y0619134D01*
X0761480Y0619204D01*
X0761226Y0619273D01*
X0760971Y0619319D01*
X0760717Y0619343D01*
X0760601D01*
X0760485Y0619319D01*
X0760323Y0619296D01*
X0760161Y0619250D01*
X0759953Y0619181D01*
X0759745Y0619088D01*
X0759560Y0618949D01*
X0759537Y0618926D01*
X0759467Y0618880D01*
X0759398Y0618787D01*
X0759282Y0618672D01*
X0759166Y0618510D01*
X0759051Y0618325D01*
X0758935Y0618116D01*
X0758842Y0617862D01*
X0758819Y0617815D01*
X0758796Y0617677D01*
X0758750Y0617468D01*
X0758680Y0617191D01*
X0758611Y0616844D01*
X0758565Y0616450D01*
X0758542Y0616034D01*
X0758518Y0615571D01*
Y0609508D01*
X0756552D01*
Y0621124D01*
X0758333D01*
Y0619366D01*
X0758356Y0619389D01*
X0758449Y0619551D01*
X0758565Y0619759D01*
X0758750Y0620014D01*
X0758935Y0620268D01*
X0759143Y0620546D01*
X0759351Y0620777D01*
X0759560Y0620962D01*
X0759583Y0620986D01*
X0759652Y0621032D01*
X0759791Y0621101D01*
X0759930Y0621171D01*
X0760115Y0621240D01*
X0760347Y0621310D01*
X0760578Y0621356D01*
X0760832Y0621379D01*
X0760994D01*
X0761203Y0621356D01*
D02*
G37*
G36*
X0660035D02*
X0660382Y0621333D01*
X0660752Y0621286D01*
X0661145Y0621194D01*
X0661562Y0621101D01*
X0661955Y0620962D01*
X0661978D01*
X0662002Y0620939D01*
X0662117Y0620893D01*
X0662302Y0620800D01*
X0662534Y0620685D01*
X0662788Y0620523D01*
X0663043Y0620338D01*
X0663274Y0620129D01*
X0663482Y0619898D01*
X0663506Y0619875D01*
X0663552Y0619782D01*
X0663644Y0619620D01*
X0663760Y0619435D01*
X0663876Y0619158D01*
X0663991Y0618857D01*
X0664084Y0618510D01*
X0664177Y0618116D01*
X0662256Y0617862D01*
Y0617908D01*
X0662233Y0618001D01*
X0662187Y0618162D01*
X0662117Y0618371D01*
X0662002Y0618579D01*
X0661863Y0618810D01*
X0661701Y0619042D01*
X0661469Y0619250D01*
X0661446Y0619273D01*
X0661353Y0619319D01*
X0661215Y0619412D01*
X0661006Y0619505D01*
X0660775Y0619597D01*
X0660474Y0619690D01*
X0660104Y0619736D01*
X0659711Y0619759D01*
X0659479D01*
X0659248Y0619736D01*
X0658947Y0619713D01*
X0658646Y0619643D01*
X0658322Y0619574D01*
X0658021Y0619458D01*
X0657767Y0619296D01*
X0657744Y0619273D01*
X0657674Y0619227D01*
X0657582Y0619134D01*
X0657489Y0618996D01*
X0657374Y0618857D01*
X0657281Y0618672D01*
X0657211Y0618463D01*
X0657188Y0618255D01*
Y0618232D01*
Y0618186D01*
X0657211Y0618116D01*
Y0618024D01*
X0657281Y0617792D01*
X0657420Y0617561D01*
X0657443Y0617538D01*
X0657466Y0617515D01*
X0657512Y0617445D01*
X0657605Y0617376D01*
X0657697Y0617306D01*
X0657836Y0617214D01*
X0657998Y0617144D01*
X0658183Y0617052D01*
X0658207D01*
X0658253Y0617029D01*
X0658345Y0617005D01*
X0658507Y0616936D01*
X0658739Y0616867D01*
X0659039Y0616797D01*
X0659225Y0616728D01*
X0659433Y0616682D01*
X0659664Y0616612D01*
X0659919Y0616543D01*
X0659942D01*
X0660011Y0616520D01*
X0660127Y0616496D01*
X0660266Y0616450D01*
X0660428Y0616404D01*
X0660636Y0616358D01*
X0661076Y0616219D01*
X0661562Y0616080D01*
X0662048Y0615918D01*
X0662487Y0615756D01*
X0662673Y0615687D01*
X0662835Y0615617D01*
X0662881Y0615594D01*
X0662973Y0615548D01*
X0663112Y0615478D01*
X0663320Y0615363D01*
X0663529Y0615224D01*
X0663737Y0615039D01*
X0663945Y0614830D01*
X0664130Y0614599D01*
X0664153Y0614576D01*
X0664200Y0614483D01*
X0664292Y0614344D01*
X0664385Y0614136D01*
X0664454Y0613882D01*
X0664547Y0613604D01*
X0664593Y0613280D01*
X0664616Y0612910D01*
Y0612863D01*
Y0612748D01*
X0664593Y0612563D01*
X0664547Y0612308D01*
X0664477Y0612030D01*
X0664362Y0611730D01*
X0664223Y0611382D01*
X0664038Y0611059D01*
X0664015Y0611012D01*
X0663922Y0610920D01*
X0663806Y0610758D01*
X0663621Y0610573D01*
X0663367Y0610364D01*
X0663089Y0610133D01*
X0662765Y0609925D01*
X0662372Y0609716D01*
X0662349D01*
X0662325Y0609693D01*
X0662187Y0609647D01*
X0661955Y0609578D01*
X0661654Y0609485D01*
X0661284Y0609392D01*
X0660868Y0609323D01*
X0660428Y0609277D01*
X0659919Y0609254D01*
X0659711D01*
X0659549Y0609277D01*
X0659364D01*
X0659132Y0609300D01*
X0658901Y0609323D01*
X0658646Y0609369D01*
X0658091Y0609485D01*
X0657512Y0609647D01*
X0656957Y0609878D01*
X0656702Y0610017D01*
X0656471Y0610179D01*
X0656448Y0610202D01*
X0656425Y0610225D01*
X0656286Y0610364D01*
X0656078Y0610573D01*
X0655846Y0610897D01*
X0655592Y0611290D01*
X0655337Y0611753D01*
X0655129Y0612331D01*
X0654967Y0612979D01*
X0656911Y0613280D01*
Y0613257D01*
Y0613234D01*
X0656957Y0613095D01*
X0657003Y0612863D01*
X0657096Y0612609D01*
X0657211Y0612331D01*
X0657350Y0612030D01*
X0657559Y0611730D01*
X0657813Y0611475D01*
X0657859Y0611452D01*
X0657952Y0611382D01*
X0658137Y0611290D01*
X0658368Y0611174D01*
X0658669Y0611059D01*
X0659016Y0610966D01*
X0659433Y0610897D01*
X0659919Y0610873D01*
X0660150D01*
X0660382Y0610897D01*
X0660682Y0610943D01*
X0661006Y0611012D01*
X0661353Y0611105D01*
X0661654Y0611221D01*
X0661932Y0611406D01*
X0661955Y0611429D01*
X0662048Y0611498D01*
X0662140Y0611614D01*
X0662279Y0611776D01*
X0662395Y0611961D01*
X0662510Y0612192D01*
X0662580Y0612424D01*
X0662603Y0612702D01*
Y0612725D01*
Y0612817D01*
X0662580Y0612933D01*
X0662534Y0613095D01*
X0662464Y0613257D01*
X0662349Y0613419D01*
X0662210Y0613604D01*
X0662002Y0613743D01*
X0661978Y0613766D01*
X0661909Y0613789D01*
X0661793Y0613859D01*
X0661608Y0613928D01*
X0661330Y0614020D01*
X0661168Y0614090D01*
X0660983Y0614136D01*
X0660775Y0614206D01*
X0660544Y0614275D01*
X0660289Y0614344D01*
X0659988Y0614414D01*
X0659965D01*
X0659896Y0614437D01*
X0659780Y0614460D01*
X0659641Y0614506D01*
X0659456Y0614553D01*
X0659248Y0614622D01*
X0658808Y0614738D01*
X0658299Y0614900D01*
X0657813Y0615039D01*
X0657350Y0615201D01*
X0657142Y0615293D01*
X0656980Y0615363D01*
X0656934Y0615386D01*
X0656841Y0615432D01*
X0656702Y0615525D01*
X0656517Y0615640D01*
X0656309Y0615802D01*
X0656101Y0615987D01*
X0655893Y0616196D01*
X0655707Y0616450D01*
X0655684Y0616473D01*
X0655638Y0616566D01*
X0655569Y0616728D01*
X0655499Y0616913D01*
X0655430Y0617144D01*
X0655360Y0617422D01*
X0655314Y0617700D01*
X0655291Y0618024D01*
Y0618070D01*
Y0618162D01*
X0655314Y0618301D01*
X0655337Y0618510D01*
X0655383Y0618718D01*
X0655430Y0618972D01*
X0655522Y0619204D01*
X0655638Y0619458D01*
X0655661Y0619482D01*
X0655707Y0619574D01*
X0655777Y0619690D01*
X0655893Y0619852D01*
X0656031Y0620014D01*
X0656193Y0620222D01*
X0656378Y0620407D01*
X0656610Y0620569D01*
X0656633Y0620592D01*
X0656702Y0620615D01*
X0656795Y0620685D01*
X0656934Y0620754D01*
X0657119Y0620847D01*
X0657327Y0620939D01*
X0657582Y0621032D01*
X0657859Y0621124D01*
X0657906Y0621148D01*
X0657998Y0621171D01*
X0658160Y0621217D01*
X0658368Y0621263D01*
X0658623Y0621310D01*
X0658901Y0621333D01*
X0659225Y0621379D01*
X0659780D01*
X0660035Y0621356D01*
D02*
G37*
G36*
X0902218D02*
X0902357D01*
X0902542Y0621333D01*
X0902981Y0621263D01*
X0903467Y0621148D01*
X0903976Y0620962D01*
X0904486Y0620731D01*
X0904972Y0620407D01*
X0904995D01*
X0905018Y0620361D01*
X0905157Y0620222D01*
X0905365Y0620014D01*
X0905619Y0619713D01*
X0905874Y0619343D01*
X0906129Y0618880D01*
X0906360Y0618348D01*
X0906522Y0617723D01*
X0904601Y0617422D01*
Y0617445D01*
X0904578Y0617468D01*
X0904555Y0617607D01*
X0904486Y0617815D01*
X0904370Y0618070D01*
X0904254Y0618348D01*
X0904069Y0618648D01*
X0903861Y0618926D01*
X0903629Y0619158D01*
X0903606Y0619181D01*
X0903514Y0619250D01*
X0903352Y0619343D01*
X0903166Y0619458D01*
X0902912Y0619574D01*
X0902634Y0619667D01*
X0902310Y0619736D01*
X0901963Y0619759D01*
X0901824D01*
X0901709Y0619736D01*
X0901454Y0619713D01*
X0901107Y0619620D01*
X0900737Y0619505D01*
X0900320Y0619319D01*
X0899927Y0619042D01*
X0899742Y0618880D01*
X0899557Y0618695D01*
Y0618672D01*
X0899510Y0618648D01*
X0899464Y0618579D01*
X0899418Y0618486D01*
X0899349Y0618371D01*
X0899256Y0618232D01*
X0899187Y0618070D01*
X0899094Y0617885D01*
X0899001Y0617653D01*
X0898932Y0617399D01*
X0898839Y0617121D01*
X0898770Y0616820D01*
X0898724Y0616496D01*
X0898677Y0616126D01*
X0898631Y0615733D01*
Y0615316D01*
Y0615293D01*
Y0615224D01*
Y0615085D01*
X0898654Y0614946D01*
Y0614738D01*
X0898677Y0614530D01*
X0898747Y0614020D01*
X0898839Y0613465D01*
X0899001Y0612887D01*
X0899210Y0612378D01*
X0899349Y0612123D01*
X0899510Y0611915D01*
X0899557Y0611868D01*
X0899672Y0611753D01*
X0899881Y0611591D01*
X0900135Y0611406D01*
X0900482Y0611197D01*
X0900876Y0611035D01*
X0901338Y0610920D01*
X0901593Y0610897D01*
X0901848Y0610873D01*
X0901894D01*
X0902033Y0610897D01*
X0902264Y0610920D01*
X0902519Y0610966D01*
X0902819Y0611035D01*
X0903143Y0611174D01*
X0903467Y0611336D01*
X0903768Y0611568D01*
X0903815Y0611591D01*
X0903884Y0611706D01*
X0904023Y0611868D01*
X0904185Y0612123D01*
X0904347Y0612424D01*
X0904532Y0612794D01*
X0904671Y0613257D01*
X0904763Y0613766D01*
X0906707Y0613511D01*
Y0613488D01*
X0906684Y0613419D01*
X0906661Y0613326D01*
X0906638Y0613187D01*
X0906591Y0613002D01*
X0906545Y0612817D01*
X0906383Y0612354D01*
X0906175Y0611868D01*
X0905874Y0611336D01*
X0905504Y0610827D01*
X0905295Y0610596D01*
X0905064Y0610364D01*
X0905041Y0610341D01*
X0904995Y0610318D01*
X0904925Y0610272D01*
X0904833Y0610202D01*
X0904717Y0610110D01*
X0904555Y0610017D01*
X0904370Y0609925D01*
X0904185Y0609809D01*
X0903722Y0609601D01*
X0903166Y0609439D01*
X0902565Y0609300D01*
X0902218Y0609277D01*
X0901871Y0609254D01*
X0901639D01*
X0901477Y0609277D01*
X0901269Y0609300D01*
X0901038Y0609346D01*
X0900783Y0609392D01*
X0900506Y0609439D01*
X0899881Y0609624D01*
X0899580Y0609763D01*
X0899256Y0609902D01*
X0898932Y0610087D01*
X0898631Y0610295D01*
X0898330Y0610526D01*
X0898053Y0610804D01*
X0898030Y0610827D01*
X0897983Y0610873D01*
X0897914Y0610966D01*
X0897821Y0611082D01*
X0897729Y0611244D01*
X0897590Y0611452D01*
X0897474Y0611683D01*
X0897335Y0611938D01*
X0897196Y0612239D01*
X0897081Y0612586D01*
X0896942Y0612933D01*
X0896849Y0613349D01*
X0896757Y0613766D01*
X0896687Y0614252D01*
X0896641Y0614738D01*
X0896618Y0615270D01*
Y0615293D01*
Y0615363D01*
Y0615455D01*
Y0615594D01*
X0896641Y0615756D01*
Y0615941D01*
X0896664Y0616149D01*
X0896687Y0616381D01*
X0896757Y0616890D01*
X0896873Y0617445D01*
X0897011Y0618001D01*
X0897220Y0618556D01*
Y0618579D01*
X0897243Y0618625D01*
X0897289Y0618695D01*
X0897335Y0618787D01*
X0897474Y0619042D01*
X0897682Y0619343D01*
X0897960Y0619690D01*
X0898284Y0620037D01*
X0898677Y0620384D01*
X0899117Y0620662D01*
X0899140D01*
X0899187Y0620685D01*
X0899256Y0620731D01*
X0899349Y0620777D01*
X0899464Y0620824D01*
X0899603Y0620893D01*
X0899950Y0621032D01*
X0900344Y0621148D01*
X0900829Y0621263D01*
X0901338Y0621356D01*
X0901894Y0621379D01*
X0902079D01*
X0902218Y0621356D01*
D02*
G37*
G36*
X0831363Y0609323D02*
Y0609300D01*
X0831340Y0609231D01*
X0831294Y0609138D01*
X0831247Y0609022D01*
X0831178Y0608860D01*
X0831109Y0608675D01*
X0830947Y0608282D01*
X0830785Y0607842D01*
X0830599Y0607402D01*
X0830414Y0607009D01*
X0830322Y0606847D01*
X0830252Y0606685D01*
X0830229Y0606639D01*
X0830160Y0606523D01*
X0830044Y0606361D01*
X0829905Y0606153D01*
X0829720Y0605922D01*
X0829512Y0605690D01*
X0829304Y0605459D01*
X0829049Y0605273D01*
X0829026Y0605250D01*
X0828933Y0605204D01*
X0828795Y0605135D01*
X0828586Y0605042D01*
X0828355Y0604950D01*
X0828077Y0604880D01*
X0827776Y0604834D01*
X0827429Y0604811D01*
X0827337D01*
X0827221Y0604834D01*
X0827059D01*
X0826874Y0604880D01*
X0826666Y0604926D01*
X0826434Y0604973D01*
X0826180Y0605065D01*
X0825972Y0606893D01*
X0825995D01*
X0826087Y0606870D01*
X0826203Y0606847D01*
X0826342Y0606801D01*
X0826712Y0606731D01*
X0827082Y0606708D01*
X0827198D01*
X0827314Y0606731D01*
X0827452D01*
X0827800Y0606801D01*
X0827962Y0606870D01*
X0828123Y0606940D01*
X0828147D01*
X0828193Y0606986D01*
X0828262Y0607032D01*
X0828355Y0607102D01*
X0828563Y0607287D01*
X0828748Y0607541D01*
Y0607564D01*
X0828795Y0607611D01*
X0828841Y0607703D01*
X0828887Y0607842D01*
X0828980Y0608027D01*
X0829072Y0608305D01*
X0829211Y0608629D01*
X0829350Y0609022D01*
Y0609045D01*
X0829396Y0609138D01*
X0829443Y0609300D01*
X0829535Y0609508D01*
X0825138Y0621124D01*
X0827221D01*
X0829651Y0614391D01*
Y0614368D01*
X0829674Y0614344D01*
X0829697Y0614275D01*
X0829720Y0614159D01*
X0829766Y0614044D01*
X0829813Y0613905D01*
X0829928Y0613581D01*
X0830067Y0613187D01*
X0830206Y0612725D01*
X0830345Y0612239D01*
X0830484Y0611706D01*
Y0611730D01*
X0830507Y0611776D01*
X0830530Y0611845D01*
X0830553Y0611938D01*
X0830576Y0612054D01*
X0830623Y0612192D01*
X0830715Y0612539D01*
X0830831Y0612933D01*
X0830993Y0613396D01*
X0831132Y0613859D01*
X0831317Y0614344D01*
X0833816Y0621124D01*
X0835783D01*
X0831363Y0609323D01*
D02*
G37*
G36*
X0652468Y0616265D02*
Y0616242D01*
Y0616149D01*
Y0616034D01*
Y0615872D01*
X0652445Y0615663D01*
Y0615432D01*
X0652422Y0615154D01*
X0652398Y0614877D01*
X0652329Y0614252D01*
X0652236Y0613604D01*
X0652098Y0612979D01*
X0652005Y0612678D01*
X0651912Y0612401D01*
Y0612378D01*
X0651889Y0612331D01*
X0651843Y0612262D01*
X0651797Y0612169D01*
X0651658Y0611915D01*
X0651450Y0611591D01*
X0651172Y0611221D01*
X0650848Y0610850D01*
X0650431Y0610457D01*
X0649922Y0610110D01*
X0649899D01*
X0649853Y0610064D01*
X0649784Y0610040D01*
X0649668Y0609971D01*
X0649529Y0609902D01*
X0649344Y0609832D01*
X0649159Y0609763D01*
X0648927Y0609670D01*
X0648673Y0609578D01*
X0648395Y0609508D01*
X0648094Y0609439D01*
X0647747Y0609369D01*
X0647400Y0609323D01*
X0647030Y0609277D01*
X0646197Y0609231D01*
X0645989D01*
X0645827Y0609254D01*
X0645642D01*
X0645410Y0609277D01*
X0645156Y0609300D01*
X0644901Y0609323D01*
X0644322Y0609416D01*
X0643698Y0609554D01*
X0643096Y0609740D01*
X0642518Y0609994D01*
X0642494D01*
X0642448Y0610040D01*
X0642379Y0610087D01*
X0642286Y0610133D01*
X0642032Y0610318D01*
X0641731Y0610573D01*
X0641384Y0610897D01*
X0641060Y0611267D01*
X0640736Y0611730D01*
X0640481Y0612239D01*
Y0612262D01*
X0640458Y0612308D01*
X0640435Y0612401D01*
X0640389Y0612516D01*
X0640342Y0612655D01*
X0640296Y0612840D01*
X0640227Y0613049D01*
X0640180Y0613303D01*
X0640134Y0613581D01*
X0640065Y0613882D01*
X0640019Y0614206D01*
X0639972Y0614553D01*
X0639926Y0614946D01*
X0639903Y0615363D01*
X0639880Y0615802D01*
Y0616265D01*
Y0625521D01*
X0642008D01*
Y0616265D01*
Y0616242D01*
Y0616173D01*
Y0616057D01*
Y0615918D01*
X0642032Y0615756D01*
Y0615548D01*
X0642055Y0615108D01*
X0642101Y0614599D01*
X0642170Y0614090D01*
X0642263Y0613604D01*
X0642309Y0613396D01*
X0642379Y0613187D01*
X0642402Y0613141D01*
X0642448Y0613025D01*
X0642564Y0612863D01*
X0642703Y0612632D01*
X0642865Y0612401D01*
X0643096Y0612146D01*
X0643374Y0611892D01*
X0643698Y0611683D01*
X0643744Y0611660D01*
X0643860Y0611591D01*
X0644068Y0611521D01*
X0644346Y0611429D01*
X0644670Y0611313D01*
X0645086Y0611244D01*
X0645526Y0611174D01*
X0646012Y0611151D01*
X0646243D01*
X0646382Y0611174D01*
X0646590D01*
X0646799Y0611197D01*
X0647308Y0611290D01*
X0647863Y0611406D01*
X0648395Y0611591D01*
X0648904Y0611845D01*
X0649136Y0612007D01*
X0649344Y0612192D01*
X0649367Y0612216D01*
X0649390Y0612239D01*
X0649436Y0612308D01*
X0649506Y0612401D01*
X0649575Y0612539D01*
X0649668Y0612678D01*
X0649760Y0612887D01*
X0649853Y0613095D01*
X0649945Y0613349D01*
X0650015Y0613650D01*
X0650107Y0613997D01*
X0650177Y0614368D01*
X0650246Y0614784D01*
X0650293Y0615224D01*
X0650339Y0615733D01*
Y0616265D01*
Y0625521D01*
X0652468D01*
Y0616265D01*
D02*
G37*
G36*
X0928968Y0609508D02*
X0927209D01*
Y0611197D01*
X0927186Y0611174D01*
X0927140Y0611105D01*
X0927070Y0611012D01*
X0926954Y0610897D01*
X0926816Y0610758D01*
X0926654Y0610573D01*
X0926468Y0610411D01*
X0926237Y0610225D01*
X0925983Y0610040D01*
X0925705Y0609878D01*
X0925404Y0609716D01*
X0925080Y0609554D01*
X0924710Y0609439D01*
X0924340Y0609346D01*
X0923923Y0609277D01*
X0923507Y0609254D01*
X0923345D01*
X0923136Y0609277D01*
X0922882Y0609300D01*
X0922581Y0609346D01*
X0922257Y0609416D01*
X0921933Y0609508D01*
X0921586Y0609647D01*
X0921540Y0609670D01*
X0921447Y0609716D01*
X0921285Y0609809D01*
X0921100Y0609925D01*
X0920869Y0610064D01*
X0920660Y0610225D01*
X0920452Y0610411D01*
X0920267Y0610619D01*
X0920244Y0610642D01*
X0920198Y0610735D01*
X0920128Y0610850D01*
X0920036Y0611035D01*
X0919920Y0611244D01*
X0919827Y0611498D01*
X0919735Y0611776D01*
X0919665Y0612077D01*
Y0612100D01*
X0919642Y0612192D01*
X0919619Y0612331D01*
Y0612516D01*
X0919596Y0612794D01*
X0919573Y0613095D01*
X0919550Y0613488D01*
Y0613928D01*
Y0621124D01*
X0921517D01*
Y0614668D01*
Y0614645D01*
Y0614599D01*
Y0614530D01*
Y0614414D01*
Y0614159D01*
X0921540Y0613835D01*
Y0613488D01*
X0921563Y0613141D01*
X0921586Y0612840D01*
X0921632Y0612586D01*
Y0612563D01*
X0921679Y0612470D01*
X0921725Y0612331D01*
X0921794Y0612146D01*
X0921910Y0611961D01*
X0922049Y0611753D01*
X0922211Y0611568D01*
X0922419Y0611382D01*
X0922442Y0611359D01*
X0922535Y0611313D01*
X0922650Y0611244D01*
X0922836Y0611174D01*
X0923044Y0611082D01*
X0923298Y0611012D01*
X0923576Y0610966D01*
X0923900Y0610943D01*
X0924062D01*
X0924224Y0610966D01*
X0924432Y0610989D01*
X0924687Y0611059D01*
X0924964Y0611128D01*
X0925265Y0611244D01*
X0925566Y0611382D01*
X0925612Y0611406D01*
X0925705Y0611475D01*
X0925844Y0611568D01*
X0926006Y0611706D01*
X0926191Y0611892D01*
X0926376Y0612100D01*
X0926538Y0612331D01*
X0926677Y0612609D01*
X0926700Y0612655D01*
X0926723Y0612748D01*
X0926769Y0612933D01*
X0926839Y0613187D01*
X0926908Y0613511D01*
X0926954Y0613905D01*
X0926978Y0614368D01*
X0927001Y0614900D01*
Y0621124D01*
X0928968D01*
Y0609508D01*
D02*
G37*
G36*
X0910363Y0616381D02*
X0915014Y0621124D01*
X0917583D01*
X0913117Y0616797D01*
X0918022Y0609508D01*
X0915593D01*
X0911728Y0615432D01*
X0910363Y0614113D01*
Y0609508D01*
X0908396D01*
Y0625521D01*
X0910363D01*
Y0616381D01*
D02*
G37*
G36*
X0890162Y0621356D02*
X0890509Y0621333D01*
X0890902Y0621286D01*
X0891296Y0621217D01*
X0891689Y0621124D01*
X0892059Y0621009D01*
X0892106Y0620986D01*
X0892221Y0620939D01*
X0892383Y0620870D01*
X0892592Y0620777D01*
X0892823Y0620639D01*
X0893054Y0620500D01*
X0893263Y0620315D01*
X0893448Y0620129D01*
X0893471Y0620106D01*
X0893517Y0620037D01*
X0893587Y0619921D01*
X0893679Y0619782D01*
X0893795Y0619574D01*
X0893887Y0619366D01*
X0893980Y0619111D01*
X0894049Y0618810D01*
Y0618787D01*
X0894073Y0618718D01*
X0894096Y0618579D01*
X0894119Y0618394D01*
Y0618139D01*
X0894142Y0617839D01*
X0894165Y0617445D01*
Y0617005D01*
Y0614368D01*
Y0614344D01*
Y0614252D01*
Y0614113D01*
Y0613928D01*
Y0613720D01*
Y0613465D01*
X0894188Y0612910D01*
Y0612331D01*
X0894211Y0611753D01*
X0894234Y0611498D01*
Y0611267D01*
X0894258Y0611059D01*
X0894281Y0610897D01*
Y0610873D01*
X0894304Y0610781D01*
X0894327Y0610642D01*
X0894396Y0610457D01*
X0894443Y0610249D01*
X0894535Y0610017D01*
X0894651Y0609763D01*
X0894767Y0609508D01*
X0892707D01*
X0892684Y0609531D01*
X0892661Y0609624D01*
X0892615Y0609740D01*
X0892545Y0609925D01*
X0892476Y0610133D01*
X0892430Y0610388D01*
X0892383Y0610665D01*
X0892337Y0610966D01*
X0892314D01*
X0892291Y0610920D01*
X0892152Y0610804D01*
X0891944Y0610642D01*
X0891666Y0610434D01*
X0891319Y0610225D01*
X0890972Y0609994D01*
X0890602Y0609786D01*
X0890208Y0609624D01*
X0890162Y0609601D01*
X0890023Y0609578D01*
X0889815Y0609508D01*
X0889560Y0609439D01*
X0889236Y0609369D01*
X0888866Y0609323D01*
X0888449Y0609277D01*
X0888033Y0609254D01*
X0887848D01*
X0887709Y0609277D01*
X0887547D01*
X0887362Y0609300D01*
X0886945Y0609369D01*
X0886483Y0609485D01*
X0885973Y0609647D01*
X0885511Y0609878D01*
X0885094Y0610179D01*
X0885048Y0610225D01*
X0884932Y0610341D01*
X0884770Y0610549D01*
X0884585Y0610827D01*
X0884400Y0611174D01*
X0884238Y0611568D01*
X0884122Y0612054D01*
X0884099Y0612285D01*
X0884076Y0612563D01*
Y0612609D01*
Y0612702D01*
X0884099Y0612863D01*
X0884122Y0613072D01*
X0884169Y0613326D01*
X0884238Y0613581D01*
X0884331Y0613859D01*
X0884446Y0614113D01*
X0884469Y0614136D01*
X0884516Y0614229D01*
X0884608Y0614368D01*
X0884724Y0614530D01*
X0884863Y0614715D01*
X0885048Y0614900D01*
X0885233Y0615085D01*
X0885464Y0615247D01*
X0885488Y0615270D01*
X0885580Y0615316D01*
X0885696Y0615409D01*
X0885881Y0615501D01*
X0886089Y0615594D01*
X0886344Y0615710D01*
X0886598Y0615802D01*
X0886899Y0615895D01*
X0886922D01*
X0887015Y0615918D01*
X0887154Y0615964D01*
X0887339Y0615987D01*
X0887570Y0616034D01*
X0887871Y0616080D01*
X0888218Y0616149D01*
X0888635Y0616196D01*
X0888658D01*
X0888750Y0616219D01*
X0888866D01*
X0889028Y0616242D01*
X0889213Y0616265D01*
X0889445Y0616311D01*
X0889699Y0616334D01*
X0889977Y0616381D01*
X0890532Y0616496D01*
X0891134Y0616612D01*
X0891666Y0616751D01*
X0891920Y0616820D01*
X0892152Y0616890D01*
Y0616913D01*
Y0616959D01*
X0892175Y0617098D01*
Y0617260D01*
Y0617353D01*
Y0617399D01*
Y0617422D01*
Y0617445D01*
Y0617584D01*
X0892152Y0617815D01*
X0892106Y0618070D01*
X0892036Y0618348D01*
X0891920Y0618625D01*
X0891782Y0618880D01*
X0891597Y0619088D01*
X0891573Y0619111D01*
X0891458Y0619204D01*
X0891273Y0619296D01*
X0891041Y0619435D01*
X0890717Y0619551D01*
X0890347Y0619667D01*
X0889884Y0619736D01*
X0889352Y0619759D01*
X0889121D01*
X0888889Y0619736D01*
X0888565Y0619690D01*
X0888241Y0619643D01*
X0887894Y0619551D01*
X0887570Y0619435D01*
X0887292Y0619273D01*
X0887269Y0619250D01*
X0887177Y0619181D01*
X0887061Y0619065D01*
X0886922Y0618880D01*
X0886783Y0618648D01*
X0886621Y0618348D01*
X0886483Y0617977D01*
X0886344Y0617561D01*
X0884423Y0617815D01*
Y0617839D01*
X0884446Y0617862D01*
Y0617931D01*
X0884469Y0618024D01*
X0884539Y0618232D01*
X0884631Y0618533D01*
X0884747Y0618834D01*
X0884886Y0619158D01*
X0885071Y0619482D01*
X0885279Y0619782D01*
X0885303Y0619805D01*
X0885395Y0619898D01*
X0885534Y0620037D01*
X0885719Y0620222D01*
X0885973Y0620407D01*
X0886274Y0620592D01*
X0886621Y0620800D01*
X0887015Y0620962D01*
X0887038D01*
X0887061Y0620986D01*
X0887131Y0621009D01*
X0887223Y0621032D01*
X0887455Y0621101D01*
X0887778Y0621171D01*
X0888149Y0621240D01*
X0888612Y0621310D01*
X0889097Y0621356D01*
X0889653Y0621379D01*
X0889907D01*
X0890162Y0621356D01*
D02*
G37*
G36*
X0819238D02*
X0819585Y0621333D01*
X0819978Y0621286D01*
X0820372Y0621217D01*
X0820765Y0621124D01*
X0821135Y0621009D01*
X0821181Y0620986D01*
X0821297Y0620939D01*
X0821459Y0620870D01*
X0821667Y0620777D01*
X0821899Y0620639D01*
X0822130Y0620500D01*
X0822338Y0620315D01*
X0822524Y0620129D01*
X0822547Y0620106D01*
X0822593Y0620037D01*
X0822663Y0619921D01*
X0822755Y0619782D01*
X0822871Y0619574D01*
X0822963Y0619366D01*
X0823056Y0619111D01*
X0823125Y0618810D01*
Y0618787D01*
X0823148Y0618718D01*
X0823172Y0618579D01*
X0823195Y0618394D01*
Y0618139D01*
X0823218Y0617839D01*
X0823241Y0617445D01*
Y0617005D01*
Y0614368D01*
Y0614344D01*
Y0614252D01*
Y0614113D01*
Y0613928D01*
Y0613720D01*
Y0613465D01*
X0823264Y0612910D01*
Y0612331D01*
X0823287Y0611753D01*
X0823310Y0611498D01*
Y0611267D01*
X0823333Y0611059D01*
X0823357Y0610897D01*
Y0610873D01*
X0823380Y0610781D01*
X0823403Y0610642D01*
X0823472Y0610457D01*
X0823519Y0610249D01*
X0823611Y0610017D01*
X0823727Y0609763D01*
X0823843Y0609508D01*
X0821783D01*
X0821760Y0609531D01*
X0821737Y0609624D01*
X0821691Y0609740D01*
X0821621Y0609925D01*
X0821552Y0610133D01*
X0821506Y0610388D01*
X0821459Y0610665D01*
X0821413Y0610966D01*
X0821390D01*
X0821367Y0610920D01*
X0821228Y0610804D01*
X0821019Y0610642D01*
X0820742Y0610434D01*
X0820395Y0610225D01*
X0820048Y0609994D01*
X0819677Y0609786D01*
X0819284Y0609624D01*
X0819238Y0609601D01*
X0819099Y0609578D01*
X0818891Y0609508D01*
X0818636Y0609439D01*
X0818312Y0609369D01*
X0817942Y0609323D01*
X0817525Y0609277D01*
X0817109Y0609254D01*
X0816924D01*
X0816785Y0609277D01*
X0816623D01*
X0816438Y0609300D01*
X0816021Y0609369D01*
X0815559Y0609485D01*
X0815049Y0609647D01*
X0814587Y0609878D01*
X0814170Y0610179D01*
X0814124Y0610225D01*
X0814008Y0610341D01*
X0813846Y0610549D01*
X0813661Y0610827D01*
X0813476Y0611174D01*
X0813314Y0611568D01*
X0813198Y0612054D01*
X0813175Y0612285D01*
X0813152Y0612563D01*
Y0612609D01*
Y0612702D01*
X0813175Y0612863D01*
X0813198Y0613072D01*
X0813245Y0613326D01*
X0813314Y0613581D01*
X0813406Y0613859D01*
X0813522Y0614113D01*
X0813545Y0614136D01*
X0813592Y0614229D01*
X0813684Y0614368D01*
X0813800Y0614530D01*
X0813939Y0614715D01*
X0814124Y0614900D01*
X0814309Y0615085D01*
X0814540Y0615247D01*
X0814563Y0615270D01*
X0814656Y0615316D01*
X0814772Y0615409D01*
X0814957Y0615501D01*
X0815165Y0615594D01*
X0815420Y0615710D01*
X0815674Y0615802D01*
X0815975Y0615895D01*
X0815998D01*
X0816091Y0615918D01*
X0816230Y0615964D01*
X0816415Y0615987D01*
X0816646Y0616034D01*
X0816947Y0616080D01*
X0817294Y0616149D01*
X0817710Y0616196D01*
X0817734D01*
X0817826Y0616219D01*
X0817942D01*
X0818104Y0616242D01*
X0818289Y0616265D01*
X0818520Y0616311D01*
X0818775Y0616334D01*
X0819053Y0616381D01*
X0819608Y0616496D01*
X0820210Y0616612D01*
X0820742Y0616751D01*
X0820996Y0616820D01*
X0821228Y0616890D01*
Y0616913D01*
Y0616959D01*
X0821251Y0617098D01*
Y0617260D01*
Y0617353D01*
Y0617399D01*
Y0617422D01*
Y0617445D01*
Y0617584D01*
X0821228Y0617815D01*
X0821181Y0618070D01*
X0821112Y0618348D01*
X0820996Y0618625D01*
X0820858Y0618880D01*
X0820673Y0619088D01*
X0820649Y0619111D01*
X0820534Y0619204D01*
X0820348Y0619296D01*
X0820117Y0619435D01*
X0819793Y0619551D01*
X0819423Y0619667D01*
X0818960Y0619736D01*
X0818428Y0619759D01*
X0818196D01*
X0817965Y0619736D01*
X0817641Y0619690D01*
X0817317Y0619643D01*
X0816970Y0619551D01*
X0816646Y0619435D01*
X0816368Y0619273D01*
X0816345Y0619250D01*
X0816253Y0619181D01*
X0816137Y0619065D01*
X0815998Y0618880D01*
X0815859Y0618648D01*
X0815697Y0618348D01*
X0815559Y0617977D01*
X0815420Y0617561D01*
X0813499Y0617815D01*
Y0617839D01*
X0813522Y0617862D01*
Y0617931D01*
X0813545Y0618024D01*
X0813615Y0618232D01*
X0813707Y0618533D01*
X0813823Y0618834D01*
X0813962Y0619158D01*
X0814147Y0619482D01*
X0814355Y0619782D01*
X0814378Y0619805D01*
X0814471Y0619898D01*
X0814610Y0620037D01*
X0814795Y0620222D01*
X0815049Y0620407D01*
X0815350Y0620592D01*
X0815697Y0620800D01*
X0816091Y0620962D01*
X0816114D01*
X0816137Y0620986D01*
X0816206Y0621009D01*
X0816299Y0621032D01*
X0816530Y0621101D01*
X0816854Y0621171D01*
X0817225Y0621240D01*
X0817687Y0621310D01*
X0818173Y0621356D01*
X0818729Y0621379D01*
X0818983D01*
X0819238Y0621356D01*
D02*
G37*
G36*
X0803664Y0611406D02*
X0811555D01*
Y0609508D01*
X0801536D01*
Y0625521D01*
X0803664D01*
Y0611406D01*
D02*
G37*
G36*
X0790405Y0615154D02*
X0792581D01*
Y0613349D01*
X0790405D01*
Y0609508D01*
X0788438D01*
Y0613349D01*
X0781473D01*
Y0615154D01*
X0788809Y0625521D01*
X0790405D01*
Y0615154D01*
D02*
G37*
G36*
X0749540Y0621356D02*
X0749887Y0621333D01*
X0750281Y0621286D01*
X0750674Y0621217D01*
X0751067Y0621124D01*
X0751438Y0621009D01*
X0751484Y0620986D01*
X0751600Y0620939D01*
X0751761Y0620870D01*
X0751970Y0620777D01*
X0752201Y0620639D01*
X0752433Y0620500D01*
X0752641Y0620315D01*
X0752826Y0620129D01*
X0752849Y0620106D01*
X0752895Y0620037D01*
X0752965Y0619921D01*
X0753057Y0619782D01*
X0753173Y0619574D01*
X0753266Y0619366D01*
X0753358Y0619111D01*
X0753428Y0618810D01*
Y0618787D01*
X0753451Y0618718D01*
X0753474Y0618579D01*
X0753497Y0618394D01*
Y0618139D01*
X0753520Y0617839D01*
X0753543Y0617445D01*
Y0617005D01*
Y0614368D01*
Y0614344D01*
Y0614252D01*
Y0614113D01*
Y0613928D01*
Y0613720D01*
Y0613465D01*
X0753566Y0612910D01*
Y0612331D01*
X0753590Y0611753D01*
X0753613Y0611498D01*
Y0611267D01*
X0753636Y0611059D01*
X0753659Y0610897D01*
Y0610873D01*
X0753682Y0610781D01*
X0753705Y0610642D01*
X0753775Y0610457D01*
X0753821Y0610249D01*
X0753914Y0610017D01*
X0754029Y0609763D01*
X0754145Y0609508D01*
X0752085D01*
X0752062Y0609531D01*
X0752039Y0609624D01*
X0751993Y0609740D01*
X0751924Y0609925D01*
X0751854Y0610133D01*
X0751808Y0610388D01*
X0751761Y0610665D01*
X0751715Y0610966D01*
X0751692D01*
X0751669Y0610920D01*
X0751530Y0610804D01*
X0751322Y0610642D01*
X0751044Y0610434D01*
X0750697Y0610225D01*
X0750350Y0609994D01*
X0749980Y0609786D01*
X0749586Y0609624D01*
X0749540Y0609601D01*
X0749401Y0609578D01*
X0749193Y0609508D01*
X0748939Y0609439D01*
X0748615Y0609369D01*
X0748244Y0609323D01*
X0747828Y0609277D01*
X0747411Y0609254D01*
X0747226D01*
X0747087Y0609277D01*
X0746925D01*
X0746740Y0609300D01*
X0746324Y0609369D01*
X0745861Y0609485D01*
X0745352Y0609647D01*
X0744889Y0609878D01*
X0744472Y0610179D01*
X0744426Y0610225D01*
X0744311Y0610341D01*
X0744148Y0610549D01*
X0743963Y0610827D01*
X0743778Y0611174D01*
X0743616Y0611568D01*
X0743501Y0612054D01*
X0743477Y0612285D01*
X0743454Y0612563D01*
Y0612609D01*
Y0612702D01*
X0743477Y0612863D01*
X0743501Y0613072D01*
X0743547Y0613326D01*
X0743616Y0613581D01*
X0743709Y0613859D01*
X0743824Y0614113D01*
X0743848Y0614136D01*
X0743894Y0614229D01*
X0743987Y0614368D01*
X0744102Y0614530D01*
X0744241Y0614715D01*
X0744426Y0614900D01*
X0744611Y0615085D01*
X0744843Y0615247D01*
X0744866Y0615270D01*
X0744958Y0615316D01*
X0745074Y0615409D01*
X0745259Y0615501D01*
X0745468Y0615594D01*
X0745722Y0615710D01*
X0745976Y0615802D01*
X0746277Y0615895D01*
X0746301D01*
X0746393Y0615918D01*
X0746532Y0615964D01*
X0746717Y0615987D01*
X0746948Y0616034D01*
X0747249Y0616080D01*
X0747596Y0616149D01*
X0748013Y0616196D01*
X0748036D01*
X0748129Y0616219D01*
X0748244D01*
X0748406Y0616242D01*
X0748591Y0616265D01*
X0748823Y0616311D01*
X0749077Y0616334D01*
X0749355Y0616381D01*
X0749910Y0616496D01*
X0750512Y0616612D01*
X0751044Y0616751D01*
X0751299Y0616820D01*
X0751530Y0616890D01*
Y0616913D01*
Y0616959D01*
X0751553Y0617098D01*
Y0617260D01*
Y0617353D01*
Y0617399D01*
Y0617422D01*
Y0617445D01*
Y0617584D01*
X0751530Y0617815D01*
X0751484Y0618070D01*
X0751414Y0618348D01*
X0751299Y0618625D01*
X0751160Y0618880D01*
X0750975Y0619088D01*
X0750952Y0619111D01*
X0750836Y0619204D01*
X0750651Y0619296D01*
X0750419Y0619435D01*
X0750095Y0619551D01*
X0749725Y0619667D01*
X0749262Y0619736D01*
X0748730Y0619759D01*
X0748499D01*
X0748267Y0619736D01*
X0747943Y0619690D01*
X0747619Y0619643D01*
X0747272Y0619551D01*
X0746948Y0619435D01*
X0746671Y0619273D01*
X0746648Y0619250D01*
X0746555Y0619181D01*
X0746439Y0619065D01*
X0746301Y0618880D01*
X0746162Y0618648D01*
X0746000Y0618348D01*
X0745861Y0617977D01*
X0745722Y0617561D01*
X0743801Y0617815D01*
Y0617839D01*
X0743824Y0617862D01*
Y0617931D01*
X0743848Y0618024D01*
X0743917Y0618232D01*
X0744010Y0618533D01*
X0744125Y0618834D01*
X0744264Y0619158D01*
X0744449Y0619482D01*
X0744658Y0619782D01*
X0744681Y0619805D01*
X0744773Y0619898D01*
X0744912Y0620037D01*
X0745097Y0620222D01*
X0745352Y0620407D01*
X0745653Y0620592D01*
X0746000Y0620800D01*
X0746393Y0620962D01*
X0746416D01*
X0746439Y0620986D01*
X0746509Y0621009D01*
X0746601Y0621032D01*
X0746833Y0621101D01*
X0747157Y0621171D01*
X0747527Y0621240D01*
X0747990Y0621310D01*
X0748476Y0621356D01*
X0749031Y0621379D01*
X0749286D01*
X0749540Y0621356D01*
D02*
G37*
G36*
X0712192D02*
X0712539Y0621333D01*
X0712933Y0621286D01*
X0713326Y0621217D01*
X0713719Y0621124D01*
X0714090Y0621009D01*
X0714136Y0620986D01*
X0714252Y0620939D01*
X0714414Y0620870D01*
X0714622Y0620777D01*
X0714853Y0620639D01*
X0715085Y0620500D01*
X0715293Y0620315D01*
X0715478Y0620129D01*
X0715501Y0620106D01*
X0715547Y0620037D01*
X0715617Y0619921D01*
X0715709Y0619782D01*
X0715825Y0619574D01*
X0715918Y0619366D01*
X0716010Y0619111D01*
X0716080Y0618810D01*
Y0618787D01*
X0716103Y0618718D01*
X0716126Y0618579D01*
X0716149Y0618394D01*
Y0618139D01*
X0716172Y0617839D01*
X0716195Y0617445D01*
Y0617005D01*
Y0614368D01*
Y0614344D01*
Y0614252D01*
Y0614113D01*
Y0613928D01*
Y0613720D01*
Y0613465D01*
X0716219Y0612910D01*
Y0612331D01*
X0716242Y0611753D01*
X0716265Y0611498D01*
Y0611267D01*
X0716288Y0611059D01*
X0716311Y0610897D01*
Y0610873D01*
X0716334Y0610781D01*
X0716357Y0610642D01*
X0716427Y0610457D01*
X0716473Y0610249D01*
X0716566Y0610017D01*
X0716681Y0609763D01*
X0716797Y0609508D01*
X0714738D01*
X0714714Y0609531D01*
X0714691Y0609624D01*
X0714645Y0609740D01*
X0714576Y0609925D01*
X0714506Y0610133D01*
X0714460Y0610388D01*
X0714414Y0610665D01*
X0714367Y0610966D01*
X0714344D01*
X0714321Y0610920D01*
X0714182Y0610804D01*
X0713974Y0610642D01*
X0713696Y0610434D01*
X0713349Y0610225D01*
X0713002Y0609994D01*
X0712632Y0609786D01*
X0712238Y0609624D01*
X0712192Y0609601D01*
X0712053Y0609578D01*
X0711845Y0609508D01*
X0711590Y0609439D01*
X0711267Y0609369D01*
X0710896Y0609323D01*
X0710480Y0609277D01*
X0710063Y0609254D01*
X0709878D01*
X0709739Y0609277D01*
X0709577D01*
X0709392Y0609300D01*
X0708976Y0609369D01*
X0708513Y0609485D01*
X0708004Y0609647D01*
X0707541Y0609878D01*
X0707125Y0610179D01*
X0707078Y0610225D01*
X0706962Y0610341D01*
X0706801Y0610549D01*
X0706615Y0610827D01*
X0706430Y0611174D01*
X0706268Y0611568D01*
X0706153Y0612054D01*
X0706129Y0612285D01*
X0706106Y0612563D01*
Y0612609D01*
Y0612702D01*
X0706129Y0612863D01*
X0706153Y0613072D01*
X0706199Y0613326D01*
X0706268Y0613581D01*
X0706361Y0613859D01*
X0706477Y0614113D01*
X0706500Y0614136D01*
X0706546Y0614229D01*
X0706638Y0614368D01*
X0706754Y0614530D01*
X0706893Y0614715D01*
X0707078Y0614900D01*
X0707263Y0615085D01*
X0707495Y0615247D01*
X0707518Y0615270D01*
X0707610Y0615316D01*
X0707726Y0615409D01*
X0707911Y0615501D01*
X0708119Y0615594D01*
X0708374Y0615710D01*
X0708629Y0615802D01*
X0708929Y0615895D01*
X0708953D01*
X0709045Y0615918D01*
X0709184Y0615964D01*
X0709369Y0615987D01*
X0709600Y0616034D01*
X0709901Y0616080D01*
X0710248Y0616149D01*
X0710665Y0616196D01*
X0710688D01*
X0710781Y0616219D01*
X0710896D01*
X0711058Y0616242D01*
X0711243Y0616265D01*
X0711475Y0616311D01*
X0711729Y0616334D01*
X0712007Y0616381D01*
X0712562Y0616496D01*
X0713164Y0616612D01*
X0713696Y0616751D01*
X0713951Y0616820D01*
X0714182Y0616890D01*
Y0616913D01*
Y0616959D01*
X0714205Y0617098D01*
Y0617260D01*
Y0617353D01*
Y0617399D01*
Y0617422D01*
Y0617445D01*
Y0617584D01*
X0714182Y0617815D01*
X0714136Y0618070D01*
X0714067Y0618348D01*
X0713951Y0618625D01*
X0713812Y0618880D01*
X0713627Y0619088D01*
X0713604Y0619111D01*
X0713488Y0619204D01*
X0713303Y0619296D01*
X0713071Y0619435D01*
X0712747Y0619551D01*
X0712377Y0619667D01*
X0711914Y0619736D01*
X0711382Y0619759D01*
X0711151D01*
X0710919Y0619736D01*
X0710596Y0619690D01*
X0710272Y0619643D01*
X0709924Y0619551D01*
X0709600Y0619435D01*
X0709323Y0619273D01*
X0709300Y0619250D01*
X0709207Y0619181D01*
X0709091Y0619065D01*
X0708953Y0618880D01*
X0708814Y0618648D01*
X0708652Y0618348D01*
X0708513Y0617977D01*
X0708374Y0617561D01*
X0706453Y0617815D01*
Y0617839D01*
X0706477Y0617862D01*
Y0617931D01*
X0706500Y0618024D01*
X0706569Y0618232D01*
X0706662Y0618533D01*
X0706777Y0618834D01*
X0706916Y0619158D01*
X0707101Y0619482D01*
X0707310Y0619782D01*
X0707333Y0619805D01*
X0707425Y0619898D01*
X0707564Y0620037D01*
X0707749Y0620222D01*
X0708004Y0620407D01*
X0708305Y0620592D01*
X0708652Y0620800D01*
X0709045Y0620962D01*
X0709068D01*
X0709091Y0620986D01*
X0709161Y0621009D01*
X0709253Y0621032D01*
X0709485Y0621101D01*
X0709809Y0621171D01*
X0710179Y0621240D01*
X0710642Y0621310D01*
X0711128Y0621356D01*
X0711683Y0621379D01*
X0711938D01*
X0712192Y0621356D01*
D02*
G37*
G36*
X0880813Y0621124D02*
X0882803D01*
Y0619597D01*
X0880813D01*
Y0612771D01*
Y0612725D01*
Y0612632D01*
Y0612493D01*
X0880836Y0612331D01*
X0880860Y0611961D01*
X0880883Y0611799D01*
X0880906Y0611683D01*
X0880929Y0611637D01*
X0880998Y0611545D01*
X0881091Y0611429D01*
X0881253Y0611313D01*
X0881299Y0611290D01*
X0881415Y0611244D01*
X0881623Y0611197D01*
X0881924Y0611174D01*
X0882155D01*
X0882271Y0611197D01*
X0882433D01*
X0882618Y0611221D01*
X0882803Y0611244D01*
X0883058Y0609508D01*
X0883012D01*
X0882919Y0609485D01*
X0882757Y0609462D01*
X0882549Y0609439D01*
X0882317Y0609392D01*
X0882063Y0609369D01*
X0881554Y0609346D01*
X0881369D01*
X0881184Y0609369D01*
X0880952Y0609392D01*
X0880674Y0609416D01*
X0880397Y0609485D01*
X0880142Y0609554D01*
X0879888Y0609670D01*
X0879865Y0609693D01*
X0879795Y0609740D01*
X0879703Y0609809D01*
X0879564Y0609925D01*
X0879448Y0610040D01*
X0879309Y0610202D01*
X0879170Y0610364D01*
X0879078Y0610573D01*
Y0610596D01*
X0879031Y0610688D01*
X0879008Y0610850D01*
X0878962Y0611082D01*
X0878916Y0611382D01*
X0878893Y0611568D01*
Y0611776D01*
X0878870Y0612030D01*
X0878846Y0612285D01*
Y0612563D01*
Y0612887D01*
Y0619597D01*
X0877389D01*
Y0621124D01*
X0878846D01*
Y0623994D01*
X0880813Y0625174D01*
Y0621124D01*
D02*
G37*
G36*
X0702844D02*
X0704834D01*
Y0619597D01*
X0702844D01*
Y0612771D01*
Y0612725D01*
Y0612632D01*
Y0612493D01*
X0702867Y0612331D01*
X0702890Y0611961D01*
X0702913Y0611799D01*
X0702936Y0611683D01*
X0702959Y0611637D01*
X0703029Y0611545D01*
X0703121Y0611429D01*
X0703283Y0611313D01*
X0703330Y0611290D01*
X0703445Y0611244D01*
X0703653Y0611197D01*
X0703954Y0611174D01*
X0704186D01*
X0704301Y0611197D01*
X0704463D01*
X0704648Y0611221D01*
X0704834Y0611244D01*
X0705088Y0609508D01*
X0705042D01*
X0704949Y0609485D01*
X0704787Y0609462D01*
X0704579Y0609439D01*
X0704348Y0609392D01*
X0704093Y0609369D01*
X0703584Y0609346D01*
X0703399D01*
X0703214Y0609369D01*
X0702982Y0609392D01*
X0702705Y0609416D01*
X0702427Y0609485D01*
X0702173Y0609554D01*
X0701918Y0609670D01*
X0701895Y0609693D01*
X0701825Y0609740D01*
X0701733Y0609809D01*
X0701594Y0609925D01*
X0701478Y0610040D01*
X0701339Y0610202D01*
X0701201Y0610364D01*
X0701108Y0610573D01*
Y0610596D01*
X0701062Y0610688D01*
X0701039Y0610850D01*
X0700992Y0611082D01*
X0700946Y0611382D01*
X0700923Y0611568D01*
Y0611776D01*
X0700900Y0612030D01*
X0700877Y0612285D01*
Y0612563D01*
Y0612887D01*
Y0619597D01*
X0699419D01*
Y0621124D01*
X0700877D01*
Y0623994D01*
X0702844Y0625174D01*
Y0621124D01*
D02*
G37*
G36*
X0842609Y0621356D02*
X0842794Y0621333D01*
X0843026Y0621286D01*
X0843280Y0621240D01*
X0843581Y0621171D01*
X0843859Y0621101D01*
X0844183Y0620986D01*
X0844483Y0620870D01*
X0844808Y0620708D01*
X0845131Y0620523D01*
X0845455Y0620315D01*
X0845756Y0620060D01*
X0846034Y0619782D01*
X0846057Y0619759D01*
X0846103Y0619713D01*
X0846173Y0619620D01*
X0846265Y0619482D01*
X0846381Y0619319D01*
X0846497Y0619134D01*
X0846636Y0618903D01*
X0846774Y0618625D01*
X0846913Y0618325D01*
X0847052Y0618001D01*
X0847168Y0617630D01*
X0847283Y0617237D01*
X0847376Y0616797D01*
X0847445Y0616334D01*
X0847492Y0615848D01*
X0847515Y0615316D01*
Y0615293D01*
Y0615201D01*
Y0615039D01*
X0847492Y0614807D01*
X0838814D01*
Y0614784D01*
Y0614715D01*
X0838837Y0614622D01*
Y0614483D01*
X0838861Y0614321D01*
X0838907Y0614136D01*
X0838976Y0613720D01*
X0839115Y0613257D01*
X0839300Y0612748D01*
X0839555Y0612285D01*
X0839879Y0611868D01*
X0839902D01*
X0839925Y0611822D01*
X0840064Y0611706D01*
X0840272Y0611545D01*
X0840550Y0611382D01*
X0840920Y0611197D01*
X0841337Y0611035D01*
X0841799Y0610920D01*
X0842054Y0610897D01*
X0842332Y0610873D01*
X0842517D01*
X0842725Y0610897D01*
X0842979Y0610943D01*
X0843257Y0611012D01*
X0843581Y0611105D01*
X0843882Y0611244D01*
X0844183Y0611429D01*
X0844206Y0611452D01*
X0844322Y0611545D01*
X0844460Y0611683D01*
X0844622Y0611868D01*
X0844808Y0612123D01*
X0845016Y0612447D01*
X0845224Y0612817D01*
X0845409Y0613257D01*
X0847445Y0613002D01*
Y0612979D01*
X0847422Y0612933D01*
X0847399Y0612840D01*
X0847353Y0612702D01*
X0847283Y0612563D01*
X0847214Y0612378D01*
X0847029Y0611984D01*
X0846797Y0611545D01*
X0846474Y0611082D01*
X0846103Y0610642D01*
X0845640Y0610225D01*
X0845617D01*
X0845571Y0610179D01*
X0845502Y0610133D01*
X0845409Y0610064D01*
X0845270Y0609994D01*
X0845131Y0609925D01*
X0844946Y0609832D01*
X0844738Y0609740D01*
X0844507Y0609647D01*
X0844275Y0609554D01*
X0843697Y0609416D01*
X0843049Y0609300D01*
X0842332Y0609254D01*
X0842077D01*
X0841915Y0609277D01*
X0841707Y0609300D01*
X0841452Y0609346D01*
X0841175Y0609392D01*
X0840874Y0609439D01*
X0840226Y0609624D01*
X0839879Y0609763D01*
X0839555Y0609902D01*
X0839208Y0610087D01*
X0838884Y0610295D01*
X0838583Y0610526D01*
X0838282Y0610804D01*
X0838259Y0610827D01*
X0838213Y0610873D01*
X0838143Y0610966D01*
X0838051Y0611105D01*
X0837935Y0611267D01*
X0837819Y0611452D01*
X0837680Y0611683D01*
X0837541Y0611938D01*
X0837403Y0612239D01*
X0837264Y0612563D01*
X0837148Y0612933D01*
X0837032Y0613326D01*
X0836940Y0613743D01*
X0836870Y0614206D01*
X0836824Y0614691D01*
X0836801Y0615201D01*
Y0615224D01*
Y0615339D01*
Y0615478D01*
X0836824Y0615687D01*
X0836847Y0615941D01*
X0836870Y0616219D01*
X0836917Y0616543D01*
X0836986Y0616867D01*
X0837171Y0617607D01*
X0837287Y0617977D01*
X0837426Y0618371D01*
X0837611Y0618741D01*
X0837819Y0619088D01*
X0838051Y0619435D01*
X0838305Y0619759D01*
X0838328Y0619782D01*
X0838375Y0619829D01*
X0838467Y0619898D01*
X0838583Y0620014D01*
X0838722Y0620129D01*
X0838907Y0620268D01*
X0839115Y0620430D01*
X0839370Y0620569D01*
X0839624Y0620731D01*
X0839925Y0620870D01*
X0840249Y0621009D01*
X0840596Y0621124D01*
X0840966Y0621240D01*
X0841360Y0621310D01*
X0841776Y0621356D01*
X0842216Y0621379D01*
X0842447D01*
X0842609Y0621356D01*
D02*
G37*
G36*
X0672090D02*
X0672276Y0621333D01*
X0672507Y0621286D01*
X0672762Y0621240D01*
X0673062Y0621171D01*
X0673340Y0621101D01*
X0673664Y0620986D01*
X0673965Y0620870D01*
X0674289Y0620708D01*
X0674613Y0620523D01*
X0674937Y0620315D01*
X0675238Y0620060D01*
X0675515Y0619782D01*
X0675538Y0619759D01*
X0675585Y0619713D01*
X0675654Y0619620D01*
X0675747Y0619482D01*
X0675862Y0619319D01*
X0675978Y0619134D01*
X0676117Y0618903D01*
X0676256Y0618625D01*
X0676395Y0618325D01*
X0676533Y0618001D01*
X0676649Y0617630D01*
X0676765Y0617237D01*
X0676857Y0616797D01*
X0676927Y0616334D01*
X0676973Y0615848D01*
X0676996Y0615316D01*
Y0615293D01*
Y0615201D01*
Y0615039D01*
X0676973Y0614807D01*
X0668296D01*
Y0614784D01*
Y0614715D01*
X0668319Y0614622D01*
Y0614483D01*
X0668342Y0614321D01*
X0668388Y0614136D01*
X0668458Y0613720D01*
X0668596Y0613257D01*
X0668782Y0612748D01*
X0669036Y0612285D01*
X0669360Y0611868D01*
X0669383D01*
X0669406Y0611822D01*
X0669545Y0611706D01*
X0669753Y0611545D01*
X0670031Y0611382D01*
X0670401Y0611197D01*
X0670818Y0611035D01*
X0671281Y0610920D01*
X0671535Y0610897D01*
X0671813Y0610873D01*
X0671998D01*
X0672206Y0610897D01*
X0672461Y0610943D01*
X0672738Y0611012D01*
X0673062Y0611105D01*
X0673363Y0611244D01*
X0673664Y0611429D01*
X0673687Y0611452D01*
X0673803Y0611545D01*
X0673942Y0611683D01*
X0674104Y0611868D01*
X0674289Y0612123D01*
X0674497Y0612447D01*
X0674705Y0612817D01*
X0674890Y0613257D01*
X0676927Y0613002D01*
Y0612979D01*
X0676904Y0612933D01*
X0676881Y0612840D01*
X0676834Y0612702D01*
X0676765Y0612563D01*
X0676695Y0612378D01*
X0676510Y0611984D01*
X0676279Y0611545D01*
X0675955Y0611082D01*
X0675585Y0610642D01*
X0675122Y0610225D01*
X0675099D01*
X0675052Y0610179D01*
X0674983Y0610133D01*
X0674890Y0610064D01*
X0674752Y0609994D01*
X0674613Y0609925D01*
X0674428Y0609832D01*
X0674219Y0609740D01*
X0673988Y0609647D01*
X0673757Y0609554D01*
X0673178Y0609416D01*
X0672530Y0609300D01*
X0671813Y0609254D01*
X0671558D01*
X0671396Y0609277D01*
X0671188Y0609300D01*
X0670933Y0609346D01*
X0670656Y0609392D01*
X0670355Y0609439D01*
X0669707Y0609624D01*
X0669360Y0609763D01*
X0669036Y0609902D01*
X0668689Y0610087D01*
X0668365Y0610295D01*
X0668064Y0610526D01*
X0667763Y0610804D01*
X0667740Y0610827D01*
X0667694Y0610873D01*
X0667625Y0610966D01*
X0667532Y0611105D01*
X0667416Y0611267D01*
X0667301Y0611452D01*
X0667162Y0611683D01*
X0667023Y0611938D01*
X0666884Y0612239D01*
X0666745Y0612563D01*
X0666630Y0612933D01*
X0666514Y0613326D01*
X0666421Y0613743D01*
X0666352Y0614206D01*
X0666305Y0614691D01*
X0666282Y0615201D01*
Y0615224D01*
Y0615339D01*
Y0615478D01*
X0666305Y0615687D01*
X0666329Y0615941D01*
X0666352Y0616219D01*
X0666398Y0616543D01*
X0666468Y0616867D01*
X0666653Y0617607D01*
X0666768Y0617977D01*
X0666907Y0618371D01*
X0667092Y0618741D01*
X0667301Y0619088D01*
X0667532Y0619435D01*
X0667787Y0619759D01*
X0667810Y0619782D01*
X0667856Y0619829D01*
X0667948Y0619898D01*
X0668064Y0620014D01*
X0668203Y0620129D01*
X0668388Y0620268D01*
X0668596Y0620430D01*
X0668851Y0620569D01*
X0669105Y0620731D01*
X0669406Y0620870D01*
X0669730Y0621009D01*
X0670077Y0621124D01*
X0670448Y0621240D01*
X0670841Y0621310D01*
X0671257Y0621356D01*
X0671697Y0621379D01*
X0671929D01*
X0672090Y0621356D01*
D02*
G37*
%LPC*%
G36*
X0768376Y0619759D02*
X0768260D01*
X0768168Y0619736D01*
X0767913Y0619713D01*
X0767612Y0619620D01*
X0767265Y0619505D01*
X0766895Y0619296D01*
X0766525Y0619042D01*
X0766340Y0618857D01*
X0766178Y0618672D01*
Y0618648D01*
X0766131Y0618625D01*
X0766108Y0618556D01*
X0766039Y0618463D01*
X0765970Y0618348D01*
X0765900Y0618209D01*
X0765831Y0618047D01*
X0765738Y0617862D01*
X0765646Y0617630D01*
X0765576Y0617376D01*
X0765507Y0617098D01*
X0765437Y0616797D01*
X0765391Y0616473D01*
X0765345Y0616103D01*
X0765298Y0615710D01*
Y0615293D01*
Y0615270D01*
Y0615201D01*
Y0615085D01*
X0765322Y0614923D01*
Y0614738D01*
X0765345Y0614530D01*
X0765414Y0614044D01*
X0765530Y0613511D01*
X0765692Y0612956D01*
X0765923Y0612424D01*
X0766062Y0612192D01*
X0766224Y0611961D01*
X0766247D01*
X0766270Y0611915D01*
X0766386Y0611799D01*
X0766594Y0611614D01*
X0766849Y0611429D01*
X0767173Y0611221D01*
X0767566Y0611035D01*
X0767983Y0610920D01*
X0768214Y0610897D01*
X0768445Y0610873D01*
X0768561D01*
X0768654Y0610897D01*
X0768908Y0610920D01*
X0769209Y0611012D01*
X0769556Y0611128D01*
X0769926Y0611313D01*
X0770297Y0611568D01*
X0770482Y0611730D01*
X0770644Y0611915D01*
Y0611938D01*
X0770690Y0611961D01*
X0770736Y0612030D01*
X0770783Y0612123D01*
X0770852Y0612239D01*
X0770945Y0612354D01*
X0771014Y0612539D01*
X0771107Y0612725D01*
X0771199Y0612933D01*
X0771269Y0613164D01*
X0771361Y0613442D01*
X0771430Y0613720D01*
X0771477Y0614044D01*
X0771523Y0614368D01*
X0771569Y0614738D01*
Y0615131D01*
Y0615154D01*
Y0615247D01*
Y0615363D01*
X0771546Y0615525D01*
Y0615710D01*
X0771523Y0615941D01*
X0771500Y0616196D01*
X0771454Y0616473D01*
X0771338Y0617029D01*
X0771176Y0617607D01*
X0770945Y0618162D01*
X0770806Y0618394D01*
X0770644Y0618625D01*
Y0618648D01*
X0770598Y0618672D01*
X0770482Y0618810D01*
X0770273Y0618996D01*
X0770019Y0619204D01*
X0769695Y0619412D01*
X0769302Y0619574D01*
X0768862Y0619713D01*
X0768631Y0619736D01*
X0768376Y0619759D01*
D02*
G37*
G36*
X0736026D02*
X0735911D01*
X0735818Y0619736D01*
X0735564Y0619713D01*
X0735263Y0619620D01*
X0734916Y0619505D01*
X0734545Y0619296D01*
X0734175Y0619042D01*
X0733990Y0618857D01*
X0733828Y0618672D01*
Y0618648D01*
X0733782Y0618625D01*
X0733759Y0618556D01*
X0733689Y0618463D01*
X0733620Y0618348D01*
X0733550Y0618209D01*
X0733481Y0618047D01*
X0733388Y0617862D01*
X0733296Y0617630D01*
X0733226Y0617376D01*
X0733157Y0617098D01*
X0733088Y0616797D01*
X0733041Y0616473D01*
X0732995Y0616103D01*
X0732949Y0615710D01*
Y0615293D01*
Y0615270D01*
Y0615201D01*
Y0615085D01*
X0732972Y0614923D01*
Y0614738D01*
X0732995Y0614530D01*
X0733064Y0614044D01*
X0733180Y0613511D01*
X0733342Y0612956D01*
X0733573Y0612424D01*
X0733712Y0612192D01*
X0733874Y0611961D01*
X0733897D01*
X0733921Y0611915D01*
X0734036Y0611799D01*
X0734244Y0611614D01*
X0734499Y0611429D01*
X0734823Y0611221D01*
X0735216Y0611035D01*
X0735633Y0610920D01*
X0735864Y0610897D01*
X0736096Y0610873D01*
X0736211D01*
X0736304Y0610897D01*
X0736559Y0610920D01*
X0736859Y0611012D01*
X0737207Y0611128D01*
X0737577Y0611313D01*
X0737947Y0611568D01*
X0738132Y0611730D01*
X0738294Y0611915D01*
Y0611938D01*
X0738340Y0611961D01*
X0738387Y0612030D01*
X0738433Y0612123D01*
X0738502Y0612239D01*
X0738595Y0612354D01*
X0738664Y0612539D01*
X0738757Y0612725D01*
X0738849Y0612933D01*
X0738919Y0613164D01*
X0739011Y0613442D01*
X0739081Y0613720D01*
X0739127Y0614044D01*
X0739173Y0614368D01*
X0739220Y0614738D01*
Y0615131D01*
Y0615154D01*
Y0615247D01*
Y0615363D01*
X0739196Y0615525D01*
Y0615710D01*
X0739173Y0615941D01*
X0739150Y0616196D01*
X0739104Y0616473D01*
X0738988Y0617029D01*
X0738826Y0617607D01*
X0738595Y0618162D01*
X0738456Y0618394D01*
X0738294Y0618625D01*
Y0618648D01*
X0738248Y0618672D01*
X0738132Y0618810D01*
X0737924Y0618996D01*
X0737669Y0619204D01*
X0737345Y0619412D01*
X0736952Y0619574D01*
X0736512Y0619713D01*
X0736281Y0619736D01*
X0736026Y0619759D01*
D02*
G37*
G36*
X0936997Y0619829D02*
X0936882D01*
X0936789Y0619805D01*
X0936558Y0619759D01*
X0936257Y0619690D01*
X0935910Y0619551D01*
X0935539Y0619343D01*
X0935331Y0619204D01*
X0935146Y0619042D01*
X0934961Y0618857D01*
X0934776Y0618648D01*
Y0618625D01*
X0934729Y0618602D01*
X0934683Y0618533D01*
X0934637Y0618440D01*
X0934568Y0618301D01*
X0934475Y0618162D01*
X0934382Y0617977D01*
X0934313Y0617792D01*
X0934220Y0617561D01*
X0934128Y0617306D01*
X0934058Y0617029D01*
X0933966Y0616728D01*
X0933920Y0616381D01*
X0933873Y0616034D01*
X0933827Y0615663D01*
Y0615247D01*
Y0615224D01*
Y0615154D01*
Y0615039D01*
X0933850Y0614877D01*
Y0614691D01*
X0933873Y0614483D01*
X0933943Y0613997D01*
X0934058Y0613442D01*
X0934197Y0612910D01*
X0934429Y0612378D01*
X0934568Y0612146D01*
X0934729Y0611938D01*
X0934776Y0611892D01*
X0934892Y0611776D01*
X0935077Y0611591D01*
X0935331Y0611406D01*
X0935655Y0611221D01*
X0936025Y0611035D01*
X0936442Y0610920D01*
X0936673Y0610897D01*
X0936905Y0610873D01*
X0937043D01*
X0937136Y0610897D01*
X0937368Y0610943D01*
X0937691Y0611012D01*
X0938039Y0611151D01*
X0938409Y0611336D01*
X0938779Y0611614D01*
X0938964Y0611776D01*
X0939149Y0611961D01*
Y0611984D01*
X0939196Y0612007D01*
X0939242Y0612077D01*
X0939288Y0612169D01*
X0939381Y0612285D01*
X0939450Y0612447D01*
X0939543Y0612609D01*
X0939635Y0612817D01*
X0939705Y0613025D01*
X0939797Y0613303D01*
X0939890Y0613581D01*
X0939959Y0613882D01*
X0940005Y0614229D01*
X0940052Y0614599D01*
X0940098Y0614992D01*
Y0615409D01*
Y0615432D01*
Y0615501D01*
Y0615617D01*
X0940075Y0615779D01*
Y0615964D01*
X0940052Y0616173D01*
X0939982Y0616658D01*
X0939867Y0617191D01*
X0939705Y0617723D01*
X0939473Y0618255D01*
X0939334Y0618510D01*
X0939172Y0618718D01*
Y0618741D01*
X0939126Y0618764D01*
X0939010Y0618903D01*
X0938825Y0619065D01*
X0938571Y0619273D01*
X0938247Y0619482D01*
X0937877Y0619667D01*
X0937460Y0619782D01*
X0937229Y0619805D01*
X0936997Y0619829D01*
D02*
G37*
G36*
X0892175Y0615339D02*
X0892152D01*
X0892129Y0615316D01*
X0892059Y0615293D01*
X0891967Y0615270D01*
X0891851Y0615224D01*
X0891712Y0615177D01*
X0891550Y0615131D01*
X0891365Y0615085D01*
X0891157Y0615016D01*
X0890902Y0614969D01*
X0890648Y0614900D01*
X0890347Y0614830D01*
X0890023Y0614761D01*
X0889699Y0614691D01*
X0889329Y0614645D01*
X0888935Y0614576D01*
X0888889D01*
X0888750Y0614553D01*
X0888519Y0614506D01*
X0888264Y0614460D01*
X0887987Y0614414D01*
X0887709Y0614344D01*
X0887455Y0614275D01*
X0887223Y0614182D01*
X0887200D01*
X0887131Y0614136D01*
X0887038Y0614090D01*
X0886945Y0614020D01*
X0886668Y0613835D01*
X0886436Y0613558D01*
Y0613534D01*
X0886390Y0613488D01*
X0886367Y0613396D01*
X0886321Y0613280D01*
X0886274Y0613141D01*
X0886228Y0613002D01*
X0886205Y0612817D01*
X0886182Y0612632D01*
Y0612609D01*
Y0612493D01*
X0886205Y0612354D01*
X0886251Y0612169D01*
X0886321Y0611961D01*
X0886436Y0611753D01*
X0886575Y0611521D01*
X0886760Y0611313D01*
X0886783Y0611290D01*
X0886876Y0611244D01*
X0887015Y0611151D01*
X0887200Y0611059D01*
X0887455Y0610966D01*
X0887755Y0610873D01*
X0888102Y0610827D01*
X0888519Y0610804D01*
X0888704D01*
X0888935Y0610827D01*
X0889190Y0610873D01*
X0889514Y0610920D01*
X0889838Y0611012D01*
X0890185Y0611128D01*
X0890532Y0611290D01*
X0890578Y0611313D01*
X0890671Y0611382D01*
X0890833Y0611498D01*
X0891018Y0611660D01*
X0891226Y0611845D01*
X0891458Y0612077D01*
X0891643Y0612354D01*
X0891828Y0612655D01*
X0891851Y0612678D01*
X0891874Y0612771D01*
X0891920Y0612933D01*
X0891990Y0613141D01*
X0892059Y0613419D01*
X0892106Y0613743D01*
X0892129Y0614136D01*
X0892152Y0614599D01*
X0892175Y0615339D01*
D02*
G37*
G36*
X0821251D02*
X0821228D01*
X0821205Y0615316D01*
X0821135Y0615293D01*
X0821043Y0615270D01*
X0820927Y0615224D01*
X0820788Y0615177D01*
X0820626Y0615131D01*
X0820441Y0615085D01*
X0820233Y0615016D01*
X0819978Y0614969D01*
X0819724Y0614900D01*
X0819423Y0614830D01*
X0819099Y0614761D01*
X0818775Y0614691D01*
X0818405Y0614645D01*
X0818011Y0614576D01*
X0817965D01*
X0817826Y0614553D01*
X0817595Y0614506D01*
X0817340Y0614460D01*
X0817063Y0614414D01*
X0816785Y0614344D01*
X0816530Y0614275D01*
X0816299Y0614182D01*
X0816276D01*
X0816206Y0614136D01*
X0816114Y0614090D01*
X0816021Y0614020D01*
X0815744Y0613835D01*
X0815512Y0613558D01*
Y0613534D01*
X0815466Y0613488D01*
X0815443Y0613396D01*
X0815396Y0613280D01*
X0815350Y0613141D01*
X0815304Y0613002D01*
X0815281Y0612817D01*
X0815258Y0612632D01*
Y0612609D01*
Y0612493D01*
X0815281Y0612354D01*
X0815327Y0612169D01*
X0815396Y0611961D01*
X0815512Y0611753D01*
X0815651Y0611521D01*
X0815836Y0611313D01*
X0815859Y0611290D01*
X0815952Y0611244D01*
X0816091Y0611151D01*
X0816276Y0611059D01*
X0816530Y0610966D01*
X0816831Y0610873D01*
X0817178Y0610827D01*
X0817595Y0610804D01*
X0817780D01*
X0818011Y0610827D01*
X0818266Y0610873D01*
X0818590Y0610920D01*
X0818914Y0611012D01*
X0819261Y0611128D01*
X0819608Y0611290D01*
X0819654Y0611313D01*
X0819747Y0611382D01*
X0819909Y0611498D01*
X0820094Y0611660D01*
X0820302Y0611845D01*
X0820534Y0612077D01*
X0820719Y0612354D01*
X0820904Y0612655D01*
X0820927Y0612678D01*
X0820950Y0612771D01*
X0820996Y0612933D01*
X0821066Y0613141D01*
X0821135Y0613419D01*
X0821181Y0613743D01*
X0821205Y0614136D01*
X0821228Y0614599D01*
X0821251Y0615339D01*
D02*
G37*
G36*
X0788438Y0622328D02*
X0783394Y0615154D01*
X0788438D01*
Y0622328D01*
D02*
G37*
G36*
X0751553Y0615339D02*
X0751530D01*
X0751507Y0615316D01*
X0751438Y0615293D01*
X0751345Y0615270D01*
X0751229Y0615224D01*
X0751090Y0615177D01*
X0750928Y0615131D01*
X0750743Y0615085D01*
X0750535Y0615016D01*
X0750281Y0614969D01*
X0750026Y0614900D01*
X0749725Y0614830D01*
X0749401Y0614761D01*
X0749077Y0614691D01*
X0748707Y0614645D01*
X0748314Y0614576D01*
X0748267D01*
X0748129Y0614553D01*
X0747897Y0614506D01*
X0747643Y0614460D01*
X0747365Y0614414D01*
X0747087Y0614344D01*
X0746833Y0614275D01*
X0746601Y0614182D01*
X0746578D01*
X0746509Y0614136D01*
X0746416Y0614090D01*
X0746324Y0614020D01*
X0746046Y0613835D01*
X0745815Y0613558D01*
Y0613534D01*
X0745768Y0613488D01*
X0745745Y0613396D01*
X0745699Y0613280D01*
X0745653Y0613141D01*
X0745606Y0613002D01*
X0745583Y0612817D01*
X0745560Y0612632D01*
Y0612609D01*
Y0612493D01*
X0745583Y0612354D01*
X0745629Y0612169D01*
X0745699Y0611961D01*
X0745815Y0611753D01*
X0745953Y0611521D01*
X0746138Y0611313D01*
X0746162Y0611290D01*
X0746254Y0611244D01*
X0746393Y0611151D01*
X0746578Y0611059D01*
X0746833Y0610966D01*
X0747133Y0610873D01*
X0747481Y0610827D01*
X0747897Y0610804D01*
X0748082D01*
X0748314Y0610827D01*
X0748568Y0610873D01*
X0748892Y0610920D01*
X0749216Y0611012D01*
X0749563Y0611128D01*
X0749910Y0611290D01*
X0749957Y0611313D01*
X0750049Y0611382D01*
X0750211Y0611498D01*
X0750396Y0611660D01*
X0750604Y0611845D01*
X0750836Y0612077D01*
X0751021Y0612354D01*
X0751206Y0612655D01*
X0751229Y0612678D01*
X0751253Y0612771D01*
X0751299Y0612933D01*
X0751368Y0613141D01*
X0751438Y0613419D01*
X0751484Y0613743D01*
X0751507Y0614136D01*
X0751530Y0614599D01*
X0751553Y0615339D01*
D02*
G37*
G36*
X0714205D02*
X0714182D01*
X0714159Y0615316D01*
X0714090Y0615293D01*
X0713997Y0615270D01*
X0713881Y0615224D01*
X0713742Y0615177D01*
X0713581Y0615131D01*
X0713395Y0615085D01*
X0713187Y0615016D01*
X0712933Y0614969D01*
X0712678Y0614900D01*
X0712377Y0614830D01*
X0712053Y0614761D01*
X0711729Y0614691D01*
X0711359Y0614645D01*
X0710966Y0614576D01*
X0710919D01*
X0710781Y0614553D01*
X0710549Y0614506D01*
X0710295Y0614460D01*
X0710017Y0614414D01*
X0709739Y0614344D01*
X0709485Y0614275D01*
X0709253Y0614182D01*
X0709230D01*
X0709161Y0614136D01*
X0709068Y0614090D01*
X0708976Y0614020D01*
X0708698Y0613835D01*
X0708467Y0613558D01*
Y0613534D01*
X0708420Y0613488D01*
X0708397Y0613396D01*
X0708351Y0613280D01*
X0708305Y0613141D01*
X0708258Y0613002D01*
X0708235Y0612817D01*
X0708212Y0612632D01*
Y0612609D01*
Y0612493D01*
X0708235Y0612354D01*
X0708282Y0612169D01*
X0708351Y0611961D01*
X0708467Y0611753D01*
X0708605Y0611521D01*
X0708790Y0611313D01*
X0708814Y0611290D01*
X0708906Y0611244D01*
X0709045Y0611151D01*
X0709230Y0611059D01*
X0709485Y0610966D01*
X0709786Y0610873D01*
X0710133Y0610827D01*
X0710549Y0610804D01*
X0710734D01*
X0710966Y0610827D01*
X0711220Y0610873D01*
X0711544Y0610920D01*
X0711868Y0611012D01*
X0712215Y0611128D01*
X0712562Y0611290D01*
X0712609Y0611313D01*
X0712701Y0611382D01*
X0712863Y0611498D01*
X0713048Y0611660D01*
X0713257Y0611845D01*
X0713488Y0612077D01*
X0713673Y0612354D01*
X0713858Y0612655D01*
X0713881Y0612678D01*
X0713904Y0612771D01*
X0713951Y0612933D01*
X0714020Y0613141D01*
X0714090Y0613419D01*
X0714136Y0613743D01*
X0714159Y0614136D01*
X0714182Y0614599D01*
X0714205Y0615339D01*
D02*
G37*
G36*
X0842239Y0619759D02*
X0842100D01*
X0842008Y0619736D01*
X0841753Y0619713D01*
X0841452Y0619643D01*
X0841082Y0619528D01*
X0840689Y0619366D01*
X0840318Y0619134D01*
X0839948Y0618834D01*
X0839902Y0618787D01*
X0839809Y0618672D01*
X0839647Y0618463D01*
X0839485Y0618186D01*
X0839300Y0617862D01*
X0839138Y0617445D01*
X0838999Y0616959D01*
X0838930Y0616427D01*
X0845432D01*
Y0616450D01*
Y0616496D01*
X0845409Y0616566D01*
Y0616658D01*
X0845363Y0616936D01*
X0845293Y0617237D01*
X0845178Y0617607D01*
X0845062Y0617954D01*
X0844877Y0618301D01*
X0844669Y0618602D01*
Y0618625D01*
X0844622Y0618648D01*
X0844507Y0618787D01*
X0844298Y0618972D01*
X0844021Y0619181D01*
X0843674Y0619389D01*
X0843257Y0619574D01*
X0842771Y0619713D01*
X0842517Y0619736D01*
X0842239Y0619759D01*
D02*
G37*
G36*
X0671720D02*
X0671581D01*
X0671489Y0619736D01*
X0671234Y0619713D01*
X0670933Y0619643D01*
X0670563Y0619528D01*
X0670170Y0619366D01*
X0669800Y0619134D01*
X0669429Y0618834D01*
X0669383Y0618787D01*
X0669291Y0618672D01*
X0669129Y0618463D01*
X0668967Y0618186D01*
X0668782Y0617862D01*
X0668619Y0617445D01*
X0668481Y0616959D01*
X0668411Y0616427D01*
X0674914D01*
Y0616450D01*
Y0616496D01*
X0674890Y0616566D01*
Y0616658D01*
X0674844Y0616936D01*
X0674775Y0617237D01*
X0674659Y0617607D01*
X0674543Y0617954D01*
X0674358Y0618301D01*
X0674150Y0618602D01*
Y0618625D01*
X0674104Y0618648D01*
X0673988Y0618787D01*
X0673780Y0618972D01*
X0673502Y0619181D01*
X0673155Y0619389D01*
X0672738Y0619574D01*
X0672253Y0619713D01*
X0671998Y0619736D01*
X0671720Y0619759D01*
D02*
G37*
%LPD*%
G54D20*
X0127680Y0065809D02*
Y0071807D01*
X0129679Y0069807D01*
X0131678Y0071807D01*
Y0065809D01*
X0133678D02*
X0135677D01*
X0134677D01*
Y0071807D01*
X0133678Y0070807D01*
X0142675Y0065809D02*
X0138676D01*
X0142675Y0069807D01*
Y0070807D01*
X0141675Y0071807D01*
X0139676D01*
X0138676Y0070807D01*
X0154671D02*
X0153671Y0071807D01*
X0151672D01*
X0150672Y0070807D01*
Y0069807D01*
X0151672Y0068808D01*
X0153671D01*
X0154671Y0067808D01*
Y0066808D01*
X0153671Y0065809D01*
X0151672D01*
X0150672Y0066808D01*
X0157670Y0070807D02*
Y0069807D01*
X0156670D01*
X0158670D01*
X0157670D01*
Y0066808D01*
X0158670Y0065809D01*
X0162668Y0069807D02*
X0164668D01*
X0165667Y0068808D01*
Y0065809D01*
X0162668D01*
X0161669Y0066808D01*
X0162668Y0067808D01*
X0165667D01*
X0171665Y0069807D02*
X0168666D01*
X0167667Y0068808D01*
Y0066808D01*
X0168666Y0065809D01*
X0171665D01*
X0173665D02*
Y0071807D01*
Y0067808D02*
X0176664Y0069807D01*
X0173665Y0067808D02*
X0176664Y0065809D01*
X0179663Y0069807D02*
Y0066808D01*
X0180663Y0065809D01*
X0183661D01*
Y0069807D01*
X0185661Y0063810D02*
Y0069807D01*
X0188660D01*
X0189660Y0068808D01*
Y0066808D01*
X0188660Y0065809D01*
X0185661D01*
X0567280Y0087441D02*
Y0093440D01*
X0571278Y0087441D01*
Y0093440D01*
X0574277Y0087441D02*
X0576277D01*
X0577276Y0088441D01*
Y0090440D01*
X0576277Y0091440D01*
X0574277D01*
X0573278Y0090440D01*
Y0088441D01*
X0574277Y0087441D01*
X0580275Y0092440D02*
Y0091440D01*
X0579276D01*
X0581275D01*
X0580275D01*
Y0088441D01*
X0581275Y0087441D01*
X0590272D02*
X0592272D01*
X0591272D01*
Y0091440D01*
X0590272D01*
X0595271Y0087441D02*
Y0091440D01*
X0598270D01*
X0599269Y0090440D01*
Y0087441D01*
X0607267Y0091440D02*
X0609266Y0087441D01*
X0611265Y0091440D01*
X0616264Y0087441D02*
X0614264D01*
X0613265Y0088441D01*
Y0090440D01*
X0614264Y0091440D01*
X0616264D01*
X0617264Y0090440D01*
Y0089441D01*
X0613265D01*
X0619263Y0091440D02*
Y0087441D01*
Y0089441D01*
X0620262Y0090440D01*
X0621262Y0091440D01*
X0622262D01*
X0625261Y0087441D02*
X0628260D01*
X0629260Y0088441D01*
X0628260Y0089441D01*
X0626261D01*
X0625261Y0090440D01*
X0626261Y0091440D01*
X0629260D01*
X0631259Y0087441D02*
X0633258D01*
X0632259D01*
Y0091440D01*
X0631259D01*
X0637257Y0087441D02*
X0639256D01*
X0640256Y0088441D01*
Y0090440D01*
X0639256Y0091440D01*
X0637257D01*
X0636257Y0090440D01*
Y0088441D01*
X0637257Y0087441D01*
X0642255D02*
Y0091440D01*
X0645254D01*
X0646254Y0090440D01*
Y0087441D01*
X0658250Y0091440D02*
X0655251D01*
X0654251Y0090440D01*
Y0088441D01*
X0655251Y0087441D01*
X0658250D01*
X0661249D02*
X0663249D01*
X0664248Y0088441D01*
Y0090440D01*
X0663249Y0091440D01*
X0661249D01*
X0660250Y0090440D01*
Y0088441D01*
X0661249Y0087441D01*
X0666248D02*
Y0091440D01*
X0669247D01*
X0670246Y0090440D01*
Y0087441D01*
X0673245Y0092440D02*
Y0091440D01*
X0672246D01*
X0674245D01*
X0673245D01*
Y0088441D01*
X0674245Y0087441D01*
X0677244Y0091440D02*
Y0087441D01*
Y0089441D01*
X0678244Y0090440D01*
X0679243Y0091440D01*
X0680243D01*
X0684242Y0087441D02*
X0686241D01*
X0687241Y0088441D01*
Y0090440D01*
X0686241Y0091440D01*
X0684242D01*
X0683242Y0090440D01*
Y0088441D01*
X0684242Y0087441D01*
X0689240D02*
X0691240D01*
X0690240D01*
Y0093440D01*
X0689240D01*
X0520678Y0092440D02*
X0519679Y0093440D01*
X0517679D01*
X0516680Y0092440D01*
Y0091440D01*
X0517679Y0090440D01*
X0519679D01*
X0520678Y0089441D01*
Y0088441D01*
X0519679Y0087441D01*
X0517679D01*
X0516680Y0088441D01*
X0522678Y0093440D02*
Y0089441D01*
X0524677Y0087441D01*
X0526676Y0089441D01*
Y0093440D01*
X0528676Y0087441D02*
Y0093440D01*
X0532675Y0087441D01*
Y0093440D01*
X0540672Y0087441D02*
Y0093440D01*
X0543671D01*
X0544671Y0092440D01*
Y0090440D01*
X0543671Y0089441D01*
X0540672D01*
X0542671D02*
X0544671Y0087441D01*
X0550669Y0093440D02*
X0546670D01*
Y0087441D01*
X0550669D01*
X0546670Y0090440D02*
X0548669D01*
X0552668Y0093440D02*
Y0089441D01*
X0554667Y0087441D01*
X0556667Y0089441D01*
Y0093440D01*
X0558666Y0091440D02*
X0559666D01*
Y0090440D01*
X0558666D01*
Y0091440D01*
Y0088441D02*
X0559666D01*
Y0087441D01*
X0558666D01*
Y0088441D01*
X0432880Y0087441D02*
Y0093440D01*
X0435879D01*
X0436878Y0092440D01*
Y0090440D01*
X0435879Y0089441D01*
X0432880D01*
X0434879D02*
X0436878Y0087441D01*
X0442876Y0093440D02*
X0438878D01*
Y0087441D01*
X0442876D01*
X0438878Y0090440D02*
X0440877D01*
X0444876Y0093440D02*
Y0089441D01*
X0446875Y0087441D01*
X0448875Y0089441D01*
Y0093440D01*
X0450874Y0091440D02*
X0451873D01*
Y0090440D01*
X0450874D01*
Y0091440D01*
Y0088441D02*
X0451873D01*
Y0087441D01*
X0450874D01*
Y0088441D01*
X0126780Y0046575D02*
Y0052573D01*
X0128779Y0050573D01*
X0130778Y0052573D01*
Y0046575D01*
X0136776Y0051573D02*
X0135777Y0052573D01*
X0133777D01*
X0132778Y0051573D01*
Y0047574D01*
X0133777Y0046575D01*
X0135777D01*
X0136776Y0047574D01*
X0138776Y0052573D02*
Y0047574D01*
X0139775Y0046575D01*
X0141775D01*
X0142774Y0047574D01*
Y0052573D01*
X0144774Y0046575D02*
X0146773D01*
X0145773D01*
Y0052573D01*
X0144774Y0051573D01*
X0153771Y0052573D02*
X0149772D01*
Y0049574D01*
X0151772Y0050573D01*
X0152771D01*
X0153771Y0049574D01*
Y0047574D01*
X0152771Y0046575D01*
X0150772D01*
X0149772Y0047574D01*
X0159769Y0046575D02*
X0155770D01*
X0159769Y0050573D01*
Y0051573D01*
X0158769Y0052573D01*
X0156770D01*
X0155770Y0051573D01*
X0161768Y0046575D02*
Y0050573D01*
X0163768Y0052573D01*
X0165767Y0050573D01*
Y0046575D01*
Y0049574D01*
X0161768D01*
X0167766Y0046575D02*
Y0047574D01*
X0168766D01*
Y0046575D01*
X0167766D01*
X0176763Y0051573D02*
X0175764Y0052573D01*
X0173764D01*
X0172765Y0051573D01*
Y0047574D01*
X0173764Y0046575D01*
X0175764D01*
X0176763Y0047574D01*
Y0049574D01*
X0174764D01*
X0178763Y0046575D02*
Y0052573D01*
X0180762Y0050573D01*
X0182762Y0052573D01*
Y0046575D01*
X0184761D02*
X0186760D01*
X0185761D01*
Y0052573D01*
X0184761Y0051573D01*
X0193758Y0046575D02*
X0189759D01*
X0193758Y0050573D01*
Y0051573D01*
X0192758Y0052573D01*
X0190759D01*
X0189759Y0051573D01*
X0381030Y0052573D02*
X0385028D01*
Y0051573D01*
X0381030Y0047574D01*
Y0046575D01*
X0387028D02*
X0391026Y0050573D01*
X0397024Y0046575D02*
X0393026D01*
X0397024Y0050573D01*
Y0051573D01*
X0396025Y0052573D01*
X0394025D01*
X0393026Y0051573D01*
X0399024Y0046575D02*
X0401023D01*
X0400024D01*
Y0052573D01*
X0399024Y0051573D01*
X0404022Y0046575D02*
X0408021Y0050573D01*
X0414019Y0046575D02*
X0410020D01*
X0414019Y0050573D01*
Y0051573D01*
X0413019Y0052573D01*
X0411020D01*
X0410020Y0051573D01*
X0416018D02*
X0417018Y0052573D01*
X0419017D01*
X0420017Y0051573D01*
Y0047574D01*
X0419017Y0046575D01*
X0417018D01*
X0416018Y0047574D01*
Y0051573D01*
X0426015Y0046575D02*
X0422016D01*
X0426015Y0050573D01*
Y0051573D01*
X0425015Y0052573D01*
X0423016D01*
X0422016Y0051573D01*
X0432013Y0052573D02*
X0428014D01*
Y0049574D01*
X0430014Y0050573D01*
X0431013D01*
X0432013Y0049574D01*
Y0047574D01*
X0431013Y0046575D01*
X0429014D01*
X0428014Y0047574D01*
X0298078Y0051573D02*
X0297079Y0052573D01*
X0295079D01*
X0294080Y0051573D01*
Y0047574D01*
X0295079Y0046575D01*
X0297079D01*
X0298078Y0047574D01*
Y0049574D01*
X0296079D01*
X0304076Y0052573D02*
X0300078D01*
Y0046575D01*
X0304076D01*
X0300078Y0049574D02*
X0302077D01*
X0306076Y0046575D02*
Y0052573D01*
X0310074Y0046575D01*
Y0052573D01*
X0316073D02*
X0312074D01*
Y0046575D01*
X0316073D01*
X0312074Y0049574D02*
X0314073D01*
X0318072Y0046575D02*
Y0052573D01*
X0321071D01*
X0322071Y0051573D01*
Y0049574D01*
X0321071Y0048574D01*
X0318072D01*
X0320071D02*
X0322071Y0046575D01*
X0324070D02*
Y0050573D01*
X0326069Y0052573D01*
X0328069Y0050573D01*
Y0046575D01*
Y0049574D01*
X0324070D01*
X0330068Y0052573D02*
X0334067D01*
X0332067D01*
Y0046575D01*
X0340065Y0052573D02*
X0336066D01*
Y0046575D01*
X0340065D01*
X0336066Y0049574D02*
X0338065D01*
X0342064Y0052573D02*
Y0046575D01*
X0345063D01*
X0346063Y0047574D01*
Y0051573D01*
X0345063Y0052573D01*
X0342064D01*
X0372054Y0050573D02*
X0373054D01*
Y0049574D01*
X0372054D01*
Y0050573D01*
Y0047574D02*
X0373054D01*
Y0046575D01*
X0372054D01*
Y0047574D01*
X0046230Y0087441D02*
Y0091440D01*
X0048229Y0093440D01*
X0050228Y0091440D01*
Y0087441D01*
Y0090440D01*
X0046230D01*
X0052228Y0093440D02*
Y0087441D01*
X0056226D01*
X0058226Y0093440D02*
Y0087441D01*
X0062225D01*
X0070222D02*
Y0091440D01*
X0072221Y0093440D01*
X0074221Y0091440D01*
Y0087441D01*
Y0090440D01*
X0070222D01*
X0076220Y0087441D02*
Y0093440D01*
X0079219D01*
X0080219Y0092440D01*
Y0090440D01*
X0079219Y0089441D01*
X0076220D01*
X0078219D02*
X0080219Y0087441D01*
X0082218Y0093440D02*
X0086217D01*
X0084217D01*
Y0087441D01*
X0088216Y0093440D02*
Y0087441D01*
X0090215Y0089441D01*
X0092215Y0087441D01*
Y0093440D01*
X0097213D02*
X0095214D01*
X0094214Y0092440D01*
Y0088441D01*
X0095214Y0087441D01*
X0097213D01*
X0098213Y0088441D01*
Y0092440D01*
X0097213Y0093440D01*
X0100212Y0087441D02*
Y0093440D01*
X0103211D01*
X0104211Y0092440D01*
Y0090440D01*
X0103211Y0089441D01*
X0100212D01*
X0102211D02*
X0104211Y0087441D01*
X0106210Y0093440D02*
Y0087441D01*
Y0089441D01*
X0110209Y0093440D01*
X0107210Y0090440D01*
X0110209Y0087441D01*
X0118206Y0093440D02*
Y0089441D01*
X0120206Y0087441D01*
X0122205Y0089441D01*
Y0093440D01*
X0124204D02*
X0126204D01*
X0125204D01*
Y0087441D01*
X0124204D01*
X0126204D01*
X0133202Y0093440D02*
X0129203D01*
Y0087441D01*
X0133202D01*
X0129203Y0090440D02*
X0131202D01*
X0135201Y0093440D02*
Y0087441D01*
X0137200Y0089441D01*
X0139200Y0087441D01*
Y0093440D01*
X0145198D02*
X0141199D01*
Y0087441D01*
X0145198D01*
X0141199Y0090440D02*
X0143198D01*
X0147197Y0093440D02*
Y0087441D01*
X0150196D01*
X0151196Y0088441D01*
Y0092440D01*
X0150196Y0093440D01*
X0147197D01*
X0163192D02*
X0159193D01*
Y0090440D01*
X0161193D01*
X0159193D01*
Y0087441D01*
X0165191D02*
Y0093440D01*
X0168190D01*
X0169190Y0092440D01*
Y0090440D01*
X0168190Y0089441D01*
X0165191D01*
X0167191D02*
X0169190Y0087441D01*
X0174188Y0093440D02*
X0172189D01*
X0171189Y0092440D01*
Y0088441D01*
X0172189Y0087441D01*
X0174188D01*
X0175188Y0088441D01*
Y0092440D01*
X0174188Y0093440D01*
X0177187Y0087441D02*
Y0093440D01*
X0179187Y0091440D01*
X0181186Y0093440D01*
Y0087441D01*
X0189183Y0093440D02*
X0193182D01*
X0191183D01*
Y0087441D01*
X0198180Y0093440D02*
X0196181D01*
X0195182Y0092440D01*
Y0088441D01*
X0196181Y0087441D01*
X0198180D01*
X0199180Y0088441D01*
Y0092440D01*
X0198180Y0093440D01*
X0201180Y0087441D02*
Y0093440D01*
X0204179D01*
X0205178Y0092440D01*
Y0090440D01*
X0204179Y0089441D01*
X0201180D01*
X0217174Y0092440D02*
X0216175Y0093440D01*
X0214175D01*
X0213176Y0092440D01*
Y0091440D01*
X0214175Y0090440D01*
X0216175D01*
X0217174Y0089441D01*
Y0088441D01*
X0216175Y0087441D01*
X0214175D01*
X0213176Y0088441D01*
X0219174Y0093440D02*
X0221173D01*
X0220173D01*
Y0087441D01*
X0219174D01*
X0221173D01*
X0224172Y0093440D02*
Y0087441D01*
X0227171D01*
X0228171Y0088441D01*
Y0092440D01*
X0227171Y0093440D01*
X0224172D01*
X0234169D02*
X0230170D01*
Y0087441D01*
X0234169D01*
X0230170Y0090440D02*
X0232170D01*
X0462030Y0087441D02*
Y0091440D01*
X0464029Y0093440D01*
X0466028Y0091440D01*
Y0087441D01*
Y0090440D01*
X0462030D01*
X0348430Y0087441D02*
Y0093440D01*
X0350429Y0091440D01*
X0352428Y0093440D01*
Y0087441D01*
X0358426Y0092440D02*
X0357427Y0093440D01*
X0355427D01*
X0354428Y0092440D01*
Y0088441D01*
X0355427Y0087441D01*
X0357427D01*
X0358426Y0088441D01*
X0360426Y0093440D02*
Y0088441D01*
X0361425Y0087441D01*
X0363425D01*
X0364424Y0088441D01*
Y0093440D01*
X0366424Y0087441D02*
X0368423D01*
X0367424D01*
Y0093440D01*
X0366424Y0092440D01*
X0375421Y0093440D02*
X0371422D01*
Y0090440D01*
X0373422Y0091440D01*
X0374421D01*
X0375421Y0090440D01*
Y0088441D01*
X0374421Y0087441D01*
X0372422D01*
X0371422Y0088441D01*
X0381419Y0087441D02*
X0377420D01*
X0381419Y0091440D01*
Y0092440D01*
X0380419Y0093440D01*
X0378420D01*
X0377420Y0092440D01*
X0293880Y0093440D02*
Y0087441D01*
X0296879D01*
X0297878Y0088441D01*
Y0089441D01*
X0296879Y0090440D01*
X0293880D01*
X0296879D01*
X0297878Y0091440D01*
Y0092440D01*
X0296879Y0093440D01*
X0293880D01*
X0302877D02*
X0300877D01*
X0299878Y0092440D01*
Y0088441D01*
X0300877Y0087441D01*
X0302877D01*
X0303876Y0088441D01*
Y0092440D01*
X0302877Y0093440D01*
X0305876Y0087441D02*
Y0091440D01*
X0307875Y0093440D01*
X0309875Y0091440D01*
Y0087441D01*
Y0090440D01*
X0305876D01*
X0311874Y0087441D02*
Y0093440D01*
X0314873D01*
X0315873Y0092440D01*
Y0090440D01*
X0314873Y0089441D01*
X0311874D01*
X0313873D02*
X0315873Y0087441D01*
X0317872Y0093440D02*
Y0087441D01*
X0320871D01*
X0321871Y0088441D01*
Y0092440D01*
X0320871Y0093440D01*
X0317872D01*
X0330868Y0087441D02*
Y0093440D01*
X0332867D02*
Y0087441D01*
X0329868Y0091440D02*
X0332867D01*
X0333867D01*
X0329868Y0089441D02*
X0333867D01*
X0335866Y0091440D02*
X0336866D01*
Y0090440D01*
X0335866D01*
Y0091440D01*
Y0088441D02*
X0336866D01*
Y0087441D01*
X0335866D01*
Y0088441D01*
X0046230Y0073157D02*
Y0067159D01*
X0050228D01*
X0052228D02*
Y0071157D01*
X0054227Y0073157D01*
X0056226Y0071157D01*
Y0067159D01*
Y0070158D01*
X0052228D01*
X0058226Y0073157D02*
Y0072157D01*
X0060225Y0070158D01*
X0062225Y0072157D01*
Y0073157D01*
X0060225Y0070158D02*
Y0067159D01*
X0068222Y0073157D02*
X0064224D01*
Y0067159D01*
X0068222D01*
X0064224Y0070158D02*
X0066223D01*
X0070222Y0067159D02*
Y0073157D01*
X0073221D01*
X0074221Y0072157D01*
Y0070158D01*
X0073221Y0069158D01*
X0070222D01*
X0072221D02*
X0074221Y0067159D01*
X0082218D02*
Y0073157D01*
X0086217Y0067159D01*
Y0073157D01*
X0088216Y0067159D02*
Y0071157D01*
X0090215Y0073157D01*
X0092215Y0071157D01*
Y0067159D01*
Y0070158D01*
X0088216D01*
X0094214Y0067159D02*
Y0073157D01*
X0096214Y0071157D01*
X0098213Y0073157D01*
Y0067159D01*
X0104211Y0073157D02*
X0100212D01*
Y0067159D01*
X0104211D01*
X0100212Y0070158D02*
X0102211D01*
X0112208Y0069158D02*
X0116207D01*
X0112208Y0071157D02*
X0116207D01*
X0046230Y0046575D02*
Y0052573D01*
X0049229D01*
X0050228Y0051573D01*
Y0049574D01*
X0049229Y0048574D01*
X0046230D01*
X0052228Y0052573D02*
Y0046575D01*
X0056226D01*
X0061225Y0052573D02*
X0059225D01*
X0058226Y0051573D01*
Y0047574D01*
X0059225Y0046575D01*
X0061225D01*
X0062225Y0047574D01*
Y0051573D01*
X0061225Y0052573D01*
X0064224D02*
X0068222D01*
X0066223D01*
Y0046575D01*
X0076220D02*
Y0052573D01*
X0080219Y0046575D01*
Y0052573D01*
X0082218Y0046575D02*
Y0050573D01*
X0084217Y0052573D01*
X0086217Y0050573D01*
Y0046575D01*
Y0049574D01*
X0082218D01*
X0088216Y0046575D02*
Y0052573D01*
X0090215Y0050573D01*
X0092215Y0052573D01*
Y0046575D01*
X0098213Y0052573D02*
X0094214D01*
Y0046575D01*
X0098213D01*
X0094214Y0049574D02*
X0096214D01*
X0106210Y0048574D02*
X0110209D01*
X0106210Y0050573D02*
X0110209D01*
X0456929Y0046575D02*
Y0052573D01*
X0453930Y0049574D01*
X0457928D01*
X0459928Y0050573D02*
X0460927D01*
Y0049574D01*
X0459928D01*
Y0050573D01*
Y0047574D02*
X0460927D01*
Y0046575D01*
X0459928D01*
Y0047574D01*
X0464926Y0051573D02*
X0465926Y0052573D01*
X0467925D01*
X0468925Y0051573D01*
Y0050573D01*
X0467925Y0049574D01*
X0466925D01*
X0467925D01*
X0468925Y0048574D01*
Y0047574D01*
X0467925Y0046575D01*
X0465926D01*
X0464926Y0047574D01*
X0470924Y0051573D02*
X0471924Y0052573D01*
X0473923D01*
X0474923Y0051573D01*
Y0047574D01*
X0473923Y0046575D01*
X0471924D01*
X0470924Y0047574D01*
Y0051573D01*
X0476922Y0050573D02*
X0477922D01*
Y0049574D01*
X0476922D01*
Y0050573D01*
Y0047574D02*
X0477922D01*
Y0046575D01*
X0476922D01*
Y0047574D01*
X0485919Y0052573D02*
X0481921D01*
Y0049574D01*
X0483920Y0050573D01*
X0484920D01*
X0485919Y0049574D01*
Y0047574D01*
X0484920Y0046575D01*
X0482920D01*
X0481921Y0047574D01*
X0487919Y0052573D02*
X0491917D01*
Y0051573D01*
X0487919Y0047574D01*
Y0046575D01*
X0499915D02*
Y0052573D01*
X0502914D01*
X0503913Y0051573D01*
Y0049574D01*
X0502914Y0048574D01*
X0499915D01*
X0505913Y0046575D02*
Y0052573D01*
X0507912Y0050573D01*
X0509911Y0052573D01*
Y0046575D01*
X0580380Y0052573D02*
X0584378D01*
X0582379D01*
Y0046575D01*
X0590376Y0052573D02*
X0586378D01*
Y0046575D01*
X0590376D01*
X0586378Y0049574D02*
X0588377D01*
X0592376Y0052573D02*
X0596375Y0046575D01*
Y0052573D02*
X0592376Y0046575D01*
X0598374D02*
Y0050573D01*
X0600373Y0052573D01*
X0602373Y0050573D01*
Y0046575D01*
Y0049574D01*
X0598374D01*
X0608371Y0051573D02*
X0607371Y0052573D01*
X0605372D01*
X0604372Y0051573D01*
Y0050573D01*
X0605372Y0049574D01*
X0607371D01*
X0608371Y0048574D01*
Y0047574D01*
X0607371Y0046575D01*
X0605372D01*
X0604372Y0047574D01*
X0616368Y0052573D02*
X0618367D01*
X0617368D01*
Y0046575D01*
X0616368D01*
X0618367D01*
X0621366D02*
Y0052573D01*
X0625365Y0046575D01*
Y0052573D01*
X0631363Y0051573D02*
X0630364Y0052573D01*
X0628364D01*
X0627364Y0051573D01*
Y0050573D01*
X0628364Y0049574D01*
X0630364D01*
X0631363Y0048574D01*
Y0047574D01*
X0630364Y0046575D01*
X0628364D01*
X0627364Y0047574D01*
X0633362Y0052573D02*
X0637361D01*
X0635362D01*
Y0046575D01*
X0639361D02*
Y0052573D01*
X0642360D01*
X0643359Y0051573D01*
Y0049574D01*
X0642360Y0048574D01*
X0639361D01*
X0641360D02*
X0643359Y0046575D01*
X0645359Y0052573D02*
Y0047574D01*
X0646358Y0046575D01*
X0648358D01*
X0649357Y0047574D01*
Y0052573D01*
X0651357Y0046575D02*
Y0052573D01*
X0653356Y0050573D01*
X0655355Y0052573D01*
Y0046575D01*
X0661353Y0052573D02*
X0657355D01*
Y0046575D01*
X0661353D01*
X0657355Y0049574D02*
X0659354D01*
X0663353Y0046575D02*
Y0052573D01*
X0667351Y0046575D01*
Y0052573D01*
X0669351D02*
X0673350D01*
X0671350D01*
Y0046575D01*
X0679348Y0051573D02*
X0678348Y0052573D01*
X0676349D01*
X0675349Y0051573D01*
Y0050573D01*
X0676349Y0049574D01*
X0678348D01*
X0679348Y0048574D01*
Y0047574D01*
X0678348Y0046575D01*
X0676349D01*
X0675349Y0047574D01*
X0293880Y0073106D02*
X0297878D01*
X0295879D01*
Y0067108D01*
X0299878Y0073106D02*
X0301877D01*
X0300877D01*
Y0067108D01*
X0299878D01*
X0301877D01*
X0304876Y0073106D02*
Y0067108D01*
X0307875D01*
X0308875Y0068108D01*
Y0072106D01*
X0307875Y0073106D01*
X0304876D01*
X0317872Y0067108D02*
Y0073106D01*
X0319871D02*
Y0067108D01*
X0316872Y0071107D02*
X0319871D01*
X0320871D01*
X0316872Y0069108D02*
X0320871D01*
X0322870Y0071107D02*
X0323870D01*
Y0070107D01*
X0322870D01*
Y0071107D01*
Y0068108D02*
X0323870D01*
Y0067108D01*
X0322870D01*
Y0068108D01*
X0348430Y0067108D02*
Y0068108D01*
X0349429D01*
Y0067108D01*
X0348430D01*
X0353428Y0073106D02*
X0357427D01*
X0355427D01*
Y0067108D01*
X0359426Y0073106D02*
X0361425D01*
X0360426D01*
Y0067108D01*
X0359426D01*
X0361425D01*
X0364424Y0073106D02*
Y0067108D01*
X0367424D01*
X0368423Y0068108D01*
Y0072106D01*
X0367424Y0073106D01*
X0364424D01*
X0127080Y0067008D02*
Y0073006D01*
X0129079Y0071007D01*
X0131078Y0073006D01*
Y0067008D01*
X0133078D02*
X0135077D01*
X0134077D01*
Y0073006D01*
X0133078Y0072006D01*
X0138076Y0067008D02*
X0140075D01*
X0139076D01*
Y0073006D01*
X0138076Y0072006D01*
X0153071D02*
X0152072Y0073006D01*
X0150072D01*
X0149073Y0072006D01*
Y0068008D01*
X0150072Y0067008D01*
X0152072D01*
X0153071Y0068008D01*
Y0070007D01*
X0151072D01*
X0158070Y0067008D02*
X0156070D01*
X0155071Y0068008D01*
Y0070007D01*
X0156070Y0071007D01*
X0158070D01*
X0159069Y0070007D01*
Y0069007D01*
X0155071D01*
X0161069Y0071007D02*
Y0067008D01*
Y0069007D01*
X0162068Y0070007D01*
X0163068Y0071007D01*
X0164068D01*
X0167067Y0073006D02*
Y0067008D01*
X0170066D01*
X0171065Y0068008D01*
Y0069007D01*
Y0070007D01*
X0170066Y0071007D01*
X0167067D01*
X0176064Y0067008D02*
X0174064D01*
X0173065Y0068008D01*
Y0070007D01*
X0174064Y0071007D01*
X0176064D01*
X0177064Y0070007D01*
Y0069007D01*
X0173065D01*
X0179063Y0071007D02*
Y0067008D01*
Y0069007D01*
X0180062Y0070007D01*
X0181062Y0071007D01*
X0182062D01*
X0191059Y0073006D02*
X0193058D01*
X0192059D01*
Y0067008D01*
X0191059D01*
X0193058D01*
X0196057D02*
Y0071007D01*
X0199056D01*
X0200056Y0070007D01*
Y0067008D01*
X0203055D02*
Y0072006D01*
Y0070007D01*
X0202055D01*
X0204055D01*
X0203055D01*
Y0072006D01*
X0204055Y0073006D01*
X0208053Y0067008D02*
X0210053D01*
X0211052Y0068008D01*
Y0070007D01*
X0210053Y0071007D01*
X0208053D01*
X0207054Y0070007D01*
Y0068008D01*
X0208053Y0067008D01*
X0213052Y0071007D02*
Y0067008D01*
Y0069007D01*
X0214052Y0070007D01*
X0215051Y0071007D01*
X0216051D01*
X0219050Y0067008D02*
Y0071007D01*
X0220050D01*
X0221049Y0070007D01*
Y0067008D01*
Y0070007D01*
X0222049Y0071007D01*
X0223049Y0070007D01*
Y0067008D01*
X0226048Y0071007D02*
X0228047D01*
X0229047Y0070007D01*
Y0067008D01*
X0226048D01*
X0225048Y0068008D01*
X0226048Y0069007D01*
X0229047D01*
X0232046Y0072006D02*
Y0071007D01*
X0231046D01*
X0233045D01*
X0232046D01*
Y0068008D01*
X0233045Y0067008D01*
X0236044D02*
X0238044D01*
X0237044D01*
Y0071007D01*
X0236044D01*
X0242042Y0067008D02*
X0244042D01*
X0245041Y0068008D01*
Y0070007D01*
X0244042Y0071007D01*
X0242042D01*
X0241043Y0070007D01*
Y0068008D01*
X0242042Y0067008D01*
X0247041D02*
Y0071007D01*
X0250040D01*
X0251040Y0070007D01*
Y0067008D01*
G54D31*
X0455299Y0586006D02*
Y0580008D01*
X0459298D01*
X0462297Y0584007D02*
X0464296D01*
X0465296Y0583007D01*
Y0580008D01*
X0462297D01*
X0461297Y0581008D01*
X0462297Y0582008D01*
X0465296D01*
X0467295Y0584007D02*
Y0581008D01*
X0468295Y0580008D01*
X0471294D01*
Y0579008D01*
X0470294Y0578009D01*
X0469295D01*
X0471294Y0580008D02*
Y0584007D01*
X0476293Y0580008D02*
X0474293D01*
X0473293Y0581008D01*
Y0583007D01*
X0474293Y0584007D01*
X0476293D01*
X0477292Y0583007D01*
Y0582008D01*
X0473293D01*
X0479291Y0584007D02*
Y0580008D01*
Y0582008D01*
X0480291Y0583007D01*
X0481291Y0584007D01*
X0482291D01*
X0458298Y0472008D02*
Y0478006D01*
X0455299Y0475007D01*
X0459298D01*
X0455299Y0501007D02*
X0456299Y0502006D01*
X0458298D01*
X0459298Y0501007D01*
Y0500007D01*
X0458298Y0499007D01*
X0457299D01*
X0458298D01*
X0459298Y0498007D01*
Y0497008D01*
X0458298Y0496008D01*
X0456299D01*
X0455299Y0497008D01*
X0459298Y0520008D02*
X0455299D01*
X0459298Y0524007D01*
Y0525006D01*
X0458298Y0526006D01*
X0456299D01*
X0455299Y0525006D01*
Y0544008D02*
X0457299D01*
X0456299D01*
Y0550006D01*
X0455299Y0549007D01*
X0496291Y0580008D02*
Y0586006D01*
X0500289Y0580008D01*
Y0586006D01*
X0503288Y0584007D02*
X0505288D01*
X0506287Y0583007D01*
Y0580008D01*
X0503288D01*
X0502289Y0581008D01*
X0503288Y0582008D01*
X0506287D01*
X0508287Y0580008D02*
Y0584007D01*
X0509286D01*
X0510286Y0583007D01*
Y0580008D01*
Y0583007D01*
X0511286Y0584007D01*
X0512285Y0583007D01*
Y0580008D01*
X0517284D02*
X0515284D01*
X0514285Y0581008D01*
Y0583007D01*
X0515284Y0584007D01*
X0517284D01*
X0518283Y0583007D01*
Y0582008D01*
X0514285D01*
X0496291Y0454006D02*
Y0448008D01*
X0499290D01*
X0500289Y0449008D01*
Y0450007D01*
X0499290Y0451007D01*
X0496291D01*
X0499290D01*
X0500289Y0452007D01*
Y0453007D01*
X0499290Y0454006D01*
X0496291D01*
X0503288Y0448008D02*
X0505288D01*
X0506287Y0449008D01*
Y0451007D01*
X0505288Y0452007D01*
X0503288D01*
X0502289Y0451007D01*
Y0449008D01*
X0503288Y0448008D01*
X0509286Y0453007D02*
Y0452007D01*
X0508287D01*
X0510286D01*
X0509286D01*
Y0449008D01*
X0510286Y0448008D01*
X0514285Y0453007D02*
Y0452007D01*
X0513285D01*
X0515284D01*
X0514285D01*
Y0449008D01*
X0515284Y0448008D01*
X0519283D02*
X0521282D01*
X0522282Y0449008D01*
Y0451007D01*
X0521282Y0452007D01*
X0519283D01*
X0518283Y0451007D01*
Y0449008D01*
X0519283Y0448008D01*
X0524282D02*
Y0452007D01*
X0525281D01*
X0526281Y0451007D01*
Y0448008D01*
Y0451007D01*
X0527281Y0452007D01*
X0528280Y0451007D01*
Y0448008D01*
X0539277Y0454006D02*
X0537277D01*
X0536278Y0453007D01*
Y0449008D01*
X0537277Y0448008D01*
X0539277D01*
X0540276Y0449008D01*
Y0453007D01*
X0539277Y0454006D01*
X0542276Y0452007D02*
X0544275Y0448008D01*
X0546274Y0452007D01*
X0551273Y0448008D02*
X0549273D01*
X0548274Y0449008D01*
Y0451007D01*
X0549273Y0452007D01*
X0551273D01*
X0552273Y0451007D01*
Y0450007D01*
X0548274D01*
X0554272Y0452007D02*
Y0448008D01*
Y0450007D01*
X0555271Y0451007D01*
X0556271Y0452007D01*
X0557271D01*
X0560270Y0448008D02*
X0562269D01*
X0561270D01*
Y0454006D01*
X0560270D01*
X0566268Y0452007D02*
X0568267D01*
X0569267Y0451007D01*
Y0448008D01*
X0566268D01*
X0565268Y0449008D01*
X0566268Y0450007D01*
X0569267D01*
X0571266Y0452007D02*
Y0449008D01*
X0572266Y0448008D01*
X0575265D01*
Y0447009D01*
X0574265Y0446009D01*
X0573266D01*
X0575265Y0448008D02*
Y0452007D01*
X0496291Y0466006D02*
Y0460008D01*
X0499290D01*
X0500289Y0461008D01*
Y0462008D01*
X0499290Y0463007D01*
X0496291D01*
X0499290D01*
X0500289Y0464007D01*
Y0465006D01*
X0499290Y0466006D01*
X0496291D01*
X0503288Y0460008D02*
X0505288D01*
X0506287Y0461008D01*
Y0463007D01*
X0505288Y0464007D01*
X0503288D01*
X0502289Y0463007D01*
Y0461008D01*
X0503288Y0460008D01*
X0509286Y0465006D02*
Y0464007D01*
X0508287D01*
X0510286D01*
X0509286D01*
Y0461008D01*
X0510286Y0460008D01*
X0514285Y0465006D02*
Y0464007D01*
X0513285D01*
X0515284D01*
X0514285D01*
Y0461008D01*
X0515284Y0460008D01*
X0519283D02*
X0521282D01*
X0522282Y0461008D01*
Y0463007D01*
X0521282Y0464007D01*
X0519283D01*
X0518283Y0463007D01*
Y0461008D01*
X0519283Y0460008D01*
X0524282D02*
Y0464007D01*
X0525281D01*
X0526281Y0463007D01*
Y0460008D01*
Y0463007D01*
X0527281Y0464007D01*
X0528280Y0463007D01*
Y0460008D01*
X0540276Y0465006D02*
X0539277Y0466006D01*
X0537277D01*
X0536278Y0465006D01*
Y0464007D01*
X0537277Y0463007D01*
X0539277D01*
X0540276Y0462008D01*
Y0461008D01*
X0539277Y0460008D01*
X0537277D01*
X0536278Y0461008D01*
X0543275Y0460008D02*
X0545275D01*
X0546274Y0461008D01*
Y0463007D01*
X0545275Y0464007D01*
X0543275D01*
X0542276Y0463007D01*
Y0461008D01*
X0543275Y0460008D01*
X0548274D02*
X0550273D01*
X0549273D01*
Y0466006D01*
X0548274D01*
X0557271D02*
Y0460008D01*
X0554272D01*
X0553272Y0461008D01*
Y0463007D01*
X0554272Y0464007D01*
X0557271D01*
X0562269Y0460008D02*
X0560270D01*
X0559270Y0461008D01*
Y0463007D01*
X0560270Y0464007D01*
X0562269D01*
X0563269Y0463007D01*
Y0462008D01*
X0559270D01*
X0565268Y0464007D02*
Y0460008D01*
Y0462008D01*
X0566268Y0463007D01*
X0567268Y0464007D01*
X0568267D01*
X0496291Y0478006D02*
Y0472008D01*
X0499290D01*
X0500289Y0473008D01*
Y0474008D01*
X0499290Y0475007D01*
X0496291D01*
X0499290D01*
X0500289Y0476007D01*
Y0477006D01*
X0499290Y0478006D01*
X0496291D01*
X0503288Y0472008D02*
X0505288D01*
X0506287Y0473008D01*
Y0475007D01*
X0505288Y0476007D01*
X0503288D01*
X0502289Y0475007D01*
Y0473008D01*
X0503288Y0472008D01*
X0509286Y0477006D02*
Y0476007D01*
X0508287D01*
X0510286D01*
X0509286D01*
Y0473008D01*
X0510286Y0472008D01*
X0514285Y0477006D02*
Y0476007D01*
X0513285D01*
X0515284D01*
X0514285D01*
Y0473008D01*
X0515284Y0472008D01*
X0519283D02*
X0521282D01*
X0522282Y0473008D01*
Y0475007D01*
X0521282Y0476007D01*
X0519283D01*
X0518283Y0475007D01*
Y0473008D01*
X0519283Y0472008D01*
X0524282D02*
Y0476007D01*
X0525281D01*
X0526281Y0475007D01*
Y0472008D01*
Y0475007D01*
X0527281Y0476007D01*
X0528280Y0475007D01*
Y0472008D01*
X0540276Y0477006D02*
X0539277Y0478006D01*
X0537277D01*
X0536278Y0477006D01*
Y0476007D01*
X0537277Y0475007D01*
X0539277D01*
X0540276Y0474008D01*
Y0473008D01*
X0539277Y0472008D01*
X0537277D01*
X0536278Y0473008D01*
X0542276Y0472008D02*
X0544275D01*
X0543275D01*
Y0476007D01*
X0542276D01*
X0549273Y0470009D02*
X0550273D01*
X0551273Y0471008D01*
Y0476007D01*
X0548274D01*
X0547274Y0475007D01*
Y0473008D01*
X0548274Y0472008D01*
X0551273D01*
X0553272D02*
Y0476007D01*
X0556271D01*
X0557271Y0475007D01*
Y0472008D01*
X0560270Y0476007D02*
X0562269D01*
X0563269Y0475007D01*
Y0472008D01*
X0560270D01*
X0559270Y0473008D01*
X0560270Y0474008D01*
X0563269D01*
X0565268Y0472008D02*
X0567268D01*
X0566268D01*
Y0478006D01*
X0565268D01*
X0496291Y0490006D02*
Y0484008D01*
X0499290D01*
X0500289Y0485008D01*
Y0489007D01*
X0499290Y0490006D01*
X0496291D01*
X0502289Y0484008D02*
X0504288D01*
X0503288D01*
Y0488007D01*
X0502289D01*
X0510286Y0484008D02*
X0508287D01*
X0507287Y0485008D01*
Y0487007D01*
X0508287Y0488007D01*
X0510286D01*
X0511286Y0487007D01*
Y0486007D01*
X0507287D01*
X0513285Y0484008D02*
X0515284D01*
X0514285D01*
Y0490006D01*
X0513285D01*
X0521282Y0484008D02*
X0519283D01*
X0518283Y0485008D01*
Y0487007D01*
X0519283Y0488007D01*
X0521282D01*
X0522282Y0487007D01*
Y0486007D01*
X0518283D01*
X0528280Y0488007D02*
X0525281D01*
X0524282Y0487007D01*
Y0485008D01*
X0525281Y0484008D01*
X0528280D01*
X0531279Y0489007D02*
Y0488007D01*
X0530280D01*
X0532279D01*
X0531279D01*
Y0485008D01*
X0532279Y0484008D01*
X0535278Y0488007D02*
Y0484008D01*
Y0486007D01*
X0536278Y0487007D01*
X0537277Y0488007D01*
X0538277D01*
X0541276Y0484008D02*
X0543275D01*
X0542276D01*
Y0488007D01*
X0541276D01*
X0550273D02*
X0547274D01*
X0546274Y0487007D01*
Y0485008D01*
X0547274Y0484008D01*
X0550273D01*
X0558271Y0489007D02*
X0559270Y0490006D01*
X0561270D01*
X0562269Y0489007D01*
Y0488007D01*
X0561270Y0487007D01*
X0560270D01*
X0561270D01*
X0562269Y0486007D01*
Y0485008D01*
X0561270Y0484008D01*
X0559270D01*
X0558271Y0485008D01*
X0496291Y0496008D02*
Y0502006D01*
X0499290D01*
X0500289Y0501007D01*
Y0499007D01*
X0499290Y0498007D01*
X0496291D01*
X0502289Y0502006D02*
Y0496008D01*
X0504288Y0498007D01*
X0506287Y0496008D01*
Y0502006D01*
X0508287Y0496008D02*
Y0502006D01*
X0511286D01*
X0512285Y0501007D01*
Y0499007D01*
X0511286Y0498007D01*
X0508287D01*
X0510286D02*
X0512285Y0496008D01*
X0496291Y0514006D02*
Y0508008D01*
X0499290D01*
X0500289Y0509008D01*
Y0513006D01*
X0499290Y0514006D01*
X0496291D01*
X0502289Y0508008D02*
X0504288D01*
X0503288D01*
Y0512007D01*
X0502289D01*
X0510286Y0508008D02*
X0508287D01*
X0507287Y0509008D01*
Y0511007D01*
X0508287Y0512007D01*
X0510286D01*
X0511286Y0511007D01*
Y0510007D01*
X0507287D01*
X0513285Y0508008D02*
X0515284D01*
X0514285D01*
Y0514006D01*
X0513285D01*
X0521282Y0508008D02*
X0519283D01*
X0518283Y0509008D01*
Y0511007D01*
X0519283Y0512007D01*
X0521282D01*
X0522282Y0511007D01*
Y0510007D01*
X0518283D01*
X0528280Y0512007D02*
X0525281D01*
X0524282Y0511007D01*
Y0509008D01*
X0525281Y0508008D01*
X0528280D01*
X0531279Y0513006D02*
Y0512007D01*
X0530280D01*
X0532279D01*
X0531279D01*
Y0509008D01*
X0532279Y0508008D01*
X0535278Y0512007D02*
Y0508008D01*
Y0510007D01*
X0536278Y0511007D01*
X0537277Y0512007D01*
X0538277D01*
X0541276Y0508008D02*
X0543275D01*
X0542276D01*
Y0512007D01*
X0541276D01*
X0550273D02*
X0547274D01*
X0546274Y0511007D01*
Y0509008D01*
X0547274Y0508008D01*
X0550273D01*
X0562269D02*
X0558271D01*
X0562269Y0512007D01*
Y0513006D01*
X0561270Y0514006D01*
X0559270D01*
X0558271Y0513006D01*
X0500289Y0525006D02*
X0499290Y0526006D01*
X0497290D01*
X0496291Y0525006D01*
Y0521008D01*
X0497290Y0520008D01*
X0499290D01*
X0500289Y0521008D01*
Y0523007D01*
X0498290D01*
X0502289Y0520008D02*
Y0526006D01*
X0506287Y0520008D01*
Y0526006D01*
X0508287D02*
Y0520008D01*
X0511286D01*
X0512285Y0521008D01*
Y0525006D01*
X0511286Y0526006D01*
X0508287D01*
X0496291Y0538006D02*
Y0532008D01*
X0499290D01*
X0500289Y0533008D01*
Y0537007D01*
X0499290Y0538006D01*
X0496291D01*
X0502289Y0532008D02*
X0504288D01*
X0503288D01*
Y0536007D01*
X0502289D01*
X0510286Y0532008D02*
X0508287D01*
X0507287Y0533008D01*
Y0535007D01*
X0508287Y0536007D01*
X0510286D01*
X0511286Y0535007D01*
Y0534008D01*
X0507287D01*
X0513285Y0532008D02*
X0515284D01*
X0514285D01*
Y0538006D01*
X0513285D01*
X0521282Y0532008D02*
X0519283D01*
X0518283Y0533008D01*
Y0535007D01*
X0519283Y0536007D01*
X0521282D01*
X0522282Y0535007D01*
Y0534008D01*
X0518283D01*
X0528280Y0536007D02*
X0525281D01*
X0524282Y0535007D01*
Y0533008D01*
X0525281Y0532008D01*
X0528280D01*
X0531279Y0537007D02*
Y0536007D01*
X0530280D01*
X0532279D01*
X0531279D01*
Y0533008D01*
X0532279Y0532008D01*
X0535278Y0536007D02*
Y0532008D01*
Y0534008D01*
X0536278Y0535007D01*
X0537277Y0536007D01*
X0538277D01*
X0541276Y0532008D02*
X0543275D01*
X0542276D01*
Y0536007D01*
X0541276D01*
X0550273D02*
X0547274D01*
X0546274Y0535007D01*
Y0533008D01*
X0547274Y0532008D01*
X0550273D01*
X0558271D02*
X0560270D01*
X0559270D01*
Y0538006D01*
X0558271Y0537007D01*
X0496291Y0550006D02*
X0500289D01*
X0498290D01*
Y0544008D01*
X0503288D02*
X0505288D01*
X0506287Y0545008D01*
Y0547007D01*
X0505288Y0548007D01*
X0503288D01*
X0502289Y0547007D01*
Y0545008D01*
X0503288Y0544008D01*
X0508287Y0542009D02*
Y0548007D01*
X0511286D01*
X0512285Y0547007D01*
Y0545008D01*
X0511286Y0544008D01*
X0508287D01*
X0524282Y0549007D02*
X0523282Y0550006D01*
X0521282D01*
X0520283Y0549007D01*
Y0548007D01*
X0521282Y0547007D01*
X0523282D01*
X0524282Y0546007D01*
Y0545008D01*
X0523282Y0544008D01*
X0521282D01*
X0520283Y0545008D01*
X0526281Y0544008D02*
X0528280D01*
X0527281D01*
Y0548007D01*
X0526281D01*
X0533279Y0542009D02*
X0534278D01*
X0535278Y0543009D01*
Y0548007D01*
X0532279D01*
X0531279Y0547007D01*
Y0545008D01*
X0532279Y0544008D01*
X0535278D01*
X0537277D02*
Y0548007D01*
X0540276D01*
X0541276Y0547007D01*
Y0544008D01*
X0544275Y0548007D02*
X0546274D01*
X0547274Y0547007D01*
Y0544008D01*
X0544275D01*
X0543275Y0545008D01*
X0544275Y0546007D01*
X0547274D01*
X0549273Y0544008D02*
X0551273D01*
X0550273D01*
Y0550006D01*
X0549273D01*
X0496291Y0562006D02*
X0500289D01*
X0498290D01*
Y0556008D01*
X0503288D02*
X0505288D01*
X0506287Y0557008D01*
Y0559007D01*
X0505288Y0560007D01*
X0503288D01*
X0502289Y0559007D01*
Y0557008D01*
X0503288Y0556008D01*
X0508287Y0554009D02*
Y0560007D01*
X0511286D01*
X0512285Y0559007D01*
Y0557008D01*
X0511286Y0556008D01*
X0508287D01*
X0524282Y0561006D02*
X0523282Y0562006D01*
X0521282D01*
X0520283Y0561006D01*
Y0560007D01*
X0521282Y0559007D01*
X0523282D01*
X0524282Y0558007D01*
Y0557008D01*
X0523282Y0556008D01*
X0521282D01*
X0520283Y0557008D01*
X0527281Y0556008D02*
X0529280D01*
X0530280Y0557008D01*
Y0559007D01*
X0529280Y0560007D01*
X0527281D01*
X0526281Y0559007D01*
Y0557008D01*
X0527281Y0556008D01*
X0532279D02*
X0534278D01*
X0533279D01*
Y0562006D01*
X0532279D01*
X0541276D02*
Y0556008D01*
X0538277D01*
X0537277Y0557008D01*
Y0559007D01*
X0538277Y0560007D01*
X0541276D01*
X0546274Y0556008D02*
X0544275D01*
X0543275Y0557008D01*
Y0559007D01*
X0544275Y0560007D01*
X0546274D01*
X0547274Y0559007D01*
Y0558007D01*
X0543275D01*
X0549273Y0560007D02*
Y0556008D01*
Y0558007D01*
X0550273Y0559007D01*
X0551273Y0560007D01*
X0552273D01*
X0496291Y0574006D02*
X0500289D01*
X0498290D01*
Y0568008D01*
X0503288D02*
X0505288D01*
X0506287Y0569008D01*
Y0571007D01*
X0505288Y0572007D01*
X0503288D01*
X0502289Y0571007D01*
Y0569008D01*
X0503288Y0568008D01*
X0508287Y0566009D02*
Y0572007D01*
X0511286D01*
X0512285Y0571007D01*
Y0569008D01*
X0511286Y0568008D01*
X0508287D01*
X0523282Y0574006D02*
X0521282D01*
X0520283Y0573006D01*
Y0569008D01*
X0521282Y0568008D01*
X0523282D01*
X0524282Y0569008D01*
Y0573006D01*
X0523282Y0574006D01*
X0526281Y0572007D02*
X0528280Y0568008D01*
X0530280Y0572007D01*
X0535278Y0568008D02*
X0533279D01*
X0532279Y0569008D01*
Y0571007D01*
X0533279Y0572007D01*
X0535278D01*
X0536278Y0571007D01*
Y0570008D01*
X0532279D01*
X0538277Y0572007D02*
Y0568008D01*
Y0570008D01*
X0539277Y0571007D01*
X0540276Y0572007D01*
X0541276D01*
X0544275Y0568008D02*
X0546274D01*
X0545275D01*
Y0574006D01*
X0544275D01*
X0550273Y0572007D02*
X0552273D01*
X0553272Y0571007D01*
Y0568008D01*
X0550273D01*
X0549273Y0569008D01*
X0550273Y0570008D01*
X0553272D01*
X0555271Y0572007D02*
Y0569008D01*
X0556271Y0568008D01*
X0559270D01*
Y0567008D01*
X0558271Y0566009D01*
X0557271D01*
X0559270Y0568008D02*
Y0572007D01*
X0589265Y0580008D02*
Y0586006D01*
X0591264Y0584007D01*
X0593264Y0586006D01*
Y0580008D01*
X0596263Y0584007D02*
X0598262D01*
X0599262Y0583007D01*
Y0580008D01*
X0596263D01*
X0595263Y0581008D01*
X0596263Y0582008D01*
X0599262D01*
X0602261Y0585007D02*
Y0584007D01*
X0601261D01*
X0603261D01*
X0602261D01*
Y0581008D01*
X0603261Y0580008D01*
X0609259D02*
X0607259D01*
X0606259Y0581008D01*
Y0583007D01*
X0607259Y0584007D01*
X0609259D01*
X0610258Y0583007D01*
Y0582008D01*
X0606259D01*
X0612258Y0584007D02*
Y0580008D01*
Y0582008D01*
X0613257Y0583007D01*
X0614257Y0584007D01*
X0615257D01*
X0618256Y0580008D02*
X0620255D01*
X0619255D01*
Y0584007D01*
X0618256D01*
X0624254D02*
X0626253D01*
X0627253Y0583007D01*
Y0580008D01*
X0624254D01*
X0623254Y0581008D01*
X0624254Y0582008D01*
X0627253D01*
X0629252Y0580008D02*
X0631251D01*
X0630252D01*
Y0586006D01*
X0629252D01*
X0593264Y0465006D02*
X0592264Y0466006D01*
X0590265D01*
X0589265Y0465006D01*
Y0464007D01*
X0590265Y0463007D01*
X0592264D01*
X0593264Y0462008D01*
Y0461008D01*
X0592264Y0460008D01*
X0590265D01*
X0589265Y0461008D01*
X0596263Y0460008D02*
X0598262D01*
X0599262Y0461008D01*
Y0463007D01*
X0598262Y0464007D01*
X0596263D01*
X0595263Y0463007D01*
Y0461008D01*
X0596263Y0460008D01*
X0601261D02*
X0603261D01*
X0602261D01*
Y0466006D01*
X0601261D01*
X0610258D02*
Y0460008D01*
X0607259D01*
X0606259Y0461008D01*
Y0463007D01*
X0607259Y0464007D01*
X0610258D01*
X0615257Y0460008D02*
X0613257D01*
X0612258Y0461008D01*
Y0463007D01*
X0613257Y0464007D01*
X0615257D01*
X0616256Y0463007D01*
Y0462008D01*
X0612258D01*
X0618256Y0464007D02*
Y0460008D01*
Y0462008D01*
X0619255Y0463007D01*
X0620255Y0464007D01*
X0621255D01*
X0630252Y0460008D02*
Y0466006D01*
X0633251D01*
X0634250Y0465006D01*
Y0463007D01*
X0633251Y0462008D01*
X0630252D01*
X0632251D02*
X0634250Y0460008D01*
X0639249D02*
X0637250D01*
X0636250Y0461008D01*
Y0463007D01*
X0637250Y0464007D01*
X0639249D01*
X0640248Y0463007D01*
Y0462008D01*
X0636250D01*
X0642248Y0460008D02*
X0645247D01*
X0646247Y0461008D01*
X0645247Y0462008D01*
X0643248D01*
X0642248Y0463007D01*
X0643248Y0464007D01*
X0646247D01*
X0648246Y0460008D02*
X0650245D01*
X0649246D01*
Y0464007D01*
X0648246D01*
X0653244Y0460008D02*
X0656243D01*
X0657243Y0461008D01*
X0656243Y0462008D01*
X0654244D01*
X0653244Y0463007D01*
X0654244Y0464007D01*
X0657243D01*
X0660242Y0465006D02*
Y0464007D01*
X0659242D01*
X0661242D01*
X0660242D01*
Y0461008D01*
X0661242Y0460008D01*
X0593264Y0490006D02*
X0589265D01*
Y0487007D01*
X0591264D01*
X0589265D01*
Y0484008D01*
X0595263D02*
Y0490006D01*
X0598262D01*
X0599262Y0489007D01*
Y0487007D01*
X0598262Y0486007D01*
X0595263D01*
X0597262D02*
X0599262Y0484008D01*
X0601261Y0487007D02*
X0605260D01*
X0610258Y0484008D02*
Y0490006D01*
X0607259Y0487007D01*
X0611258D01*
X0593264Y0514006D02*
X0589265D01*
Y0511007D01*
X0591264D01*
X0589265D01*
Y0508008D01*
X0595263D02*
Y0514006D01*
X0598262D01*
X0599262Y0513006D01*
Y0511007D01*
X0598262Y0510007D01*
X0595263D01*
X0597262D02*
X0599262Y0508008D01*
X0601261Y0511007D02*
X0605260D01*
X0610258Y0508008D02*
Y0514006D01*
X0607259Y0511007D01*
X0611258D01*
X0593264Y0538006D02*
X0589265D01*
Y0535007D01*
X0591264D01*
X0589265D01*
Y0532008D01*
X0595263D02*
Y0538006D01*
X0598262D01*
X0599262Y0537007D01*
Y0535007D01*
X0598262Y0534008D01*
X0595263D01*
X0597262D02*
X0599262Y0532008D01*
X0601261Y0535007D02*
X0605260D01*
X0610258Y0532008D02*
Y0538006D01*
X0607259Y0535007D01*
X0611258D01*
X0593264Y0561006D02*
X0592264Y0562006D01*
X0590265D01*
X0589265Y0561006D01*
Y0560007D01*
X0590265Y0559007D01*
X0592264D01*
X0593264Y0558007D01*
Y0557008D01*
X0592264Y0556008D01*
X0590265D01*
X0589265Y0557008D01*
X0596263Y0556008D02*
X0598262D01*
X0599262Y0557008D01*
Y0559007D01*
X0598262Y0560007D01*
X0596263D01*
X0595263Y0559007D01*
Y0557008D01*
X0596263Y0556008D01*
X0601261D02*
X0603261D01*
X0602261D01*
Y0562006D01*
X0601261D01*
X0610258D02*
Y0556008D01*
X0607259D01*
X0606259Y0557008D01*
Y0559007D01*
X0607259Y0560007D01*
X0610258D01*
X0615257Y0556008D02*
X0613257D01*
X0612258Y0557008D01*
Y0559007D01*
X0613257Y0560007D01*
X0615257D01*
X0616256Y0559007D01*
Y0558007D01*
X0612258D01*
X0618256Y0560007D02*
Y0556008D01*
Y0558007D01*
X0619255Y0559007D01*
X0620255Y0560007D01*
X0621255D01*
X0630252Y0556008D02*
Y0562006D01*
X0633251D01*
X0634250Y0561006D01*
Y0559007D01*
X0633251Y0558007D01*
X0630252D01*
X0632251D02*
X0634250Y0556008D01*
X0639249D02*
X0637250D01*
X0636250Y0557008D01*
Y0559007D01*
X0637250Y0560007D01*
X0639249D01*
X0640248Y0559007D01*
Y0558007D01*
X0636250D01*
X0642248Y0556008D02*
X0645247D01*
X0646247Y0557008D01*
X0645247Y0558007D01*
X0643248D01*
X0642248Y0559007D01*
X0643248Y0560007D01*
X0646247D01*
X0648246Y0556008D02*
X0650245D01*
X0649246D01*
Y0560007D01*
X0648246D01*
X0653244Y0556008D02*
X0656243D01*
X0657243Y0557008D01*
X0656243Y0558007D01*
X0654244D01*
X0653244Y0559007D01*
X0654244Y0560007D01*
X0657243D01*
X0660242Y0561006D02*
Y0560007D01*
X0659242D01*
X0661242D01*
X0660242D01*
Y0557008D01*
X0661242Y0556008D01*
X0675242Y0586006D02*
X0679240D01*
X0677241D01*
Y0580008D01*
X0681240Y0586006D02*
Y0580008D01*
Y0583007D01*
X0682239Y0584007D01*
X0684239D01*
X0685239Y0583007D01*
Y0580008D01*
X0687238D02*
X0689237D01*
X0688237D01*
Y0584007D01*
X0687238D01*
X0696235D02*
X0693236D01*
X0692236Y0583007D01*
Y0581008D01*
X0693236Y0580008D01*
X0696235D01*
X0698234D02*
Y0586006D01*
Y0582008D02*
X0701233Y0584007D01*
X0698234Y0582008D02*
X0701233Y0580008D01*
X0704232D02*
Y0584007D01*
X0707231D01*
X0708231Y0583007D01*
Y0580008D01*
X0713229D02*
X0711230D01*
X0710230Y0581008D01*
Y0583007D01*
X0711230Y0584007D01*
X0713229D01*
X0714229Y0583007D01*
Y0582008D01*
X0710230D01*
X0716228Y0580008D02*
X0719228D01*
X0720227Y0581008D01*
X0719228Y0582008D01*
X0717228D01*
X0716228Y0583007D01*
X0717228Y0584007D01*
X0720227D01*
X0722226Y0580008D02*
X0725226D01*
X0726225Y0581008D01*
X0725226Y0582008D01*
X0723226D01*
X0722226Y0583007D01*
X0723226Y0584007D01*
X0726225D01*
X0675242Y0465006D02*
X0676241Y0466006D01*
X0678241D01*
X0679240Y0465006D01*
Y0461008D01*
X0678241Y0460008D01*
X0676241D01*
X0675242Y0461008D01*
Y0465006D01*
X0681240Y0460008D02*
Y0461008D01*
X0682239D01*
Y0460008D01*
X0681240D01*
X0689237D02*
Y0466006D01*
X0686238Y0463007D01*
X0690237D01*
X0692236Y0465006D02*
X0693236Y0466006D01*
X0695235D01*
X0696235Y0465006D01*
Y0461008D01*
X0695235Y0460008D01*
X0693236D01*
X0692236Y0461008D01*
Y0465006D01*
X0698234Y0460008D02*
Y0464007D01*
X0699234D01*
X0700234Y0463007D01*
Y0460008D01*
Y0463007D01*
X0701233Y0464007D01*
X0702233Y0463007D01*
Y0460008D01*
X0704232D02*
X0706232D01*
X0705232D01*
Y0464007D01*
X0704232D01*
X0709231Y0460008D02*
X0711230D01*
X0710230D01*
Y0466006D01*
X0709231D01*
X0675242Y0472008D02*
X0677241D01*
X0676241D01*
Y0478006D01*
X0675242Y0477006D01*
X0680240Y0472008D02*
Y0473008D01*
X0681240D01*
Y0472008D01*
X0680240D01*
X0688237D02*
Y0478006D01*
X0685239Y0475007D01*
X0689237D01*
X0691236Y0477006D02*
X0692236Y0478006D01*
X0694236D01*
X0695235Y0477006D01*
Y0473008D01*
X0694236Y0472008D01*
X0692236D01*
X0691236Y0473008D01*
Y0477006D01*
X0697235Y0472008D02*
Y0476007D01*
X0698234D01*
X0699234Y0475007D01*
Y0472008D01*
Y0475007D01*
X0700234Y0476007D01*
X0701233Y0475007D01*
Y0472008D01*
X0703233D02*
X0705232D01*
X0704232D01*
Y0476007D01*
X0703233D01*
X0708231Y0472008D02*
X0710230D01*
X0709231D01*
Y0478006D01*
X0708231D01*
X0675242Y0489007D02*
X0676241Y0490006D01*
X0678241D01*
X0679240Y0489007D01*
Y0488007D01*
X0678241Y0487007D01*
X0679240Y0486007D01*
Y0485008D01*
X0678241Y0484008D01*
X0676241D01*
X0675242Y0485008D01*
Y0486007D01*
X0676241Y0487007D01*
X0675242Y0488007D01*
Y0489007D01*
X0676241Y0487007D02*
X0678241D01*
X0681240Y0484008D02*
Y0485008D01*
X0682239D01*
Y0484008D01*
X0681240D01*
X0686238Y0489007D02*
X0687238Y0490006D01*
X0689237D01*
X0690237Y0489007D01*
Y0485008D01*
X0689237Y0484008D01*
X0687238D01*
X0686238Y0485008D01*
Y0489007D01*
X0692236D02*
X0693236Y0490006D01*
X0695235D01*
X0696235Y0489007D01*
Y0485008D01*
X0695235Y0484008D01*
X0693236D01*
X0692236Y0485008D01*
Y0489007D01*
X0698234Y0484008D02*
Y0488007D01*
X0699234D01*
X0700234Y0487007D01*
Y0484008D01*
Y0487007D01*
X0701233Y0488007D01*
X0702233Y0487007D01*
Y0484008D01*
X0704232D02*
X0706232D01*
X0705232D01*
Y0488007D01*
X0704232D01*
X0709231Y0484008D02*
X0711230D01*
X0710230D01*
Y0490006D01*
X0709231D01*
X0675242Y0496008D02*
X0677241D01*
X0676241D01*
Y0502006D01*
X0675242Y0501007D01*
X0680240Y0496008D02*
Y0497008D01*
X0681240D01*
Y0496008D01*
X0680240D01*
X0688237D02*
Y0502006D01*
X0685239Y0499007D01*
X0689237D01*
X0691236Y0501007D02*
X0692236Y0502006D01*
X0694236D01*
X0695235Y0501007D01*
Y0497008D01*
X0694236Y0496008D01*
X0692236D01*
X0691236Y0497008D01*
Y0501007D01*
X0697235Y0496008D02*
Y0500007D01*
X0698234D01*
X0699234Y0499007D01*
Y0496008D01*
Y0499007D01*
X0700234Y0500007D01*
X0701233Y0499007D01*
Y0496008D01*
X0703233D02*
X0705232D01*
X0704232D01*
Y0500007D01*
X0703233D01*
X0708231Y0496008D02*
X0710230D01*
X0709231D01*
Y0502006D01*
X0708231D01*
X0678241Y0508008D02*
Y0514006D01*
X0675242Y0511007D01*
X0679240D01*
X0681240Y0513006D02*
X0682239Y0514006D01*
X0684239D01*
X0685239Y0513006D01*
Y0509008D01*
X0684239Y0508008D01*
X0682239D01*
X0681240Y0509008D01*
Y0513006D01*
X0687238Y0508008D02*
Y0509008D01*
X0688237D01*
Y0508008D01*
X0687238D01*
X0692236Y0513006D02*
X0693236Y0514006D01*
X0695235D01*
X0696235Y0513006D01*
Y0509008D01*
X0695235Y0508008D01*
X0693236D01*
X0692236Y0509008D01*
Y0513006D01*
X0698234D02*
X0699234Y0514006D01*
X0701233D01*
X0702233Y0513006D01*
Y0509008D01*
X0701233Y0508008D01*
X0699234D01*
X0698234Y0509008D01*
Y0513006D01*
X0704232Y0508008D02*
Y0512007D01*
X0705232D01*
X0706232Y0511007D01*
Y0508008D01*
Y0511007D01*
X0707231Y0512007D01*
X0708231Y0511007D01*
Y0508008D01*
X0710230D02*
X0712230D01*
X0711230D01*
Y0512007D01*
X0710230D01*
X0715229Y0508008D02*
X0717228D01*
X0716228D01*
Y0514006D01*
X0715229D01*
X0675242Y0520008D02*
X0677241D01*
X0676241D01*
Y0526006D01*
X0675242Y0525006D01*
X0680240Y0520008D02*
Y0521008D01*
X0681240D01*
Y0520008D01*
X0680240D01*
X0688237D02*
Y0526006D01*
X0685239Y0523007D01*
X0689237D01*
X0691236Y0525006D02*
X0692236Y0526006D01*
X0694236D01*
X0695235Y0525006D01*
Y0521008D01*
X0694236Y0520008D01*
X0692236D01*
X0691236Y0521008D01*
Y0525006D01*
X0697235Y0520008D02*
Y0524007D01*
X0698234D01*
X0699234Y0523007D01*
Y0520008D01*
Y0523007D01*
X0700234Y0524007D01*
X0701233Y0523007D01*
Y0520008D01*
X0703233D02*
X0705232D01*
X0704232D01*
Y0524007D01*
X0703233D01*
X0708231Y0520008D02*
X0710230D01*
X0709231D01*
Y0526006D01*
X0708231D01*
X0675242Y0537007D02*
X0676241Y0538006D01*
X0678241D01*
X0679240Y0537007D01*
Y0536007D01*
X0678241Y0535007D01*
X0679240Y0534008D01*
Y0533008D01*
X0678241Y0532008D01*
X0676241D01*
X0675242Y0533008D01*
Y0534008D01*
X0676241Y0535007D01*
X0675242Y0536007D01*
Y0537007D01*
X0676241Y0535007D02*
X0678241D01*
X0681240Y0532008D02*
Y0533008D01*
X0682239D01*
Y0532008D01*
X0681240D01*
X0686238Y0537007D02*
X0687238Y0538006D01*
X0689237D01*
X0690237Y0537007D01*
Y0533008D01*
X0689237Y0532008D01*
X0687238D01*
X0686238Y0533008D01*
Y0537007D01*
X0692236D02*
X0693236Y0538006D01*
X0695235D01*
X0696235Y0537007D01*
Y0533008D01*
X0695235Y0532008D01*
X0693236D01*
X0692236Y0533008D01*
Y0537007D01*
X0698234Y0532008D02*
Y0536007D01*
X0699234D01*
X0700234Y0535007D01*
Y0532008D01*
Y0535007D01*
X0701233Y0536007D01*
X0702233Y0535007D01*
Y0532008D01*
X0704232D02*
X0706232D01*
X0705232D01*
Y0536007D01*
X0704232D01*
X0709231Y0532008D02*
X0711230D01*
X0710230D01*
Y0538006D01*
X0709231D01*
X0675242Y0544008D02*
X0677241D01*
X0676241D01*
Y0550006D01*
X0675242Y0549007D01*
X0680240Y0544008D02*
Y0545008D01*
X0681240D01*
Y0544008D01*
X0680240D01*
X0688237D02*
Y0550006D01*
X0685239Y0547007D01*
X0689237D01*
X0691236Y0549007D02*
X0692236Y0550006D01*
X0694236D01*
X0695235Y0549007D01*
Y0545008D01*
X0694236Y0544008D01*
X0692236D01*
X0691236Y0545008D01*
Y0549007D01*
X0697235Y0544008D02*
Y0548007D01*
X0698234D01*
X0699234Y0547007D01*
Y0544008D01*
Y0547007D01*
X0700234Y0548007D01*
X0701233Y0547007D01*
Y0544008D01*
X0703233D02*
X0705232D01*
X0704232D01*
Y0548007D01*
X0703233D01*
X0708231Y0544008D02*
X0710230D01*
X0709231D01*
Y0550006D01*
X0708231D01*
X0675242Y0561006D02*
X0676241Y0562006D01*
X0678241D01*
X0679240Y0561006D01*
Y0557008D01*
X0678241Y0556008D01*
X0676241D01*
X0675242Y0557008D01*
Y0561006D01*
X0681240Y0556008D02*
Y0557008D01*
X0682239D01*
Y0556008D01*
X0681240D01*
X0689237D02*
Y0562006D01*
X0686238Y0559007D01*
X0690237D01*
X0692236Y0561006D02*
X0693236Y0562006D01*
X0695235D01*
X0696235Y0561006D01*
Y0557008D01*
X0695235Y0556008D01*
X0693236D01*
X0692236Y0557008D01*
Y0561006D01*
X0698234Y0556008D02*
Y0560007D01*
X0699234D01*
X0700234Y0559007D01*
Y0556008D01*
Y0559007D01*
X0701233Y0560007D01*
X0702233Y0559007D01*
Y0556008D01*
X0704232D02*
X0706232D01*
X0705232D01*
Y0560007D01*
X0704232D01*
X0709231Y0556008D02*
X0711230D01*
X0710230D01*
Y0562006D01*
X0709231D01*
X0744224Y0585007D02*
X0743224Y0586006D01*
X0741225D01*
X0740225Y0585007D01*
Y0581008D01*
X0741225Y0580008D01*
X0743224D01*
X0744224Y0581008D01*
X0747223Y0580008D02*
X0749222D01*
X0750222Y0581008D01*
Y0583007D01*
X0749222Y0584007D01*
X0747223D01*
X0746223Y0583007D01*
Y0581008D01*
X0747223Y0580008D01*
X0752221D02*
Y0584007D01*
X0755220D01*
X0756220Y0583007D01*
Y0580008D01*
X0758219D02*
X0761218D01*
X0762218Y0581008D01*
X0761218Y0582008D01*
X0759219D01*
X0758219Y0583007D01*
X0759219Y0584007D01*
X0762218D01*
X0765217Y0585007D02*
Y0584007D01*
X0764218D01*
X0766217D01*
X0765217D01*
Y0581008D01*
X0766217Y0580008D01*
X0770216Y0584007D02*
X0772215D01*
X0773215Y0583007D01*
Y0580008D01*
X0770216D01*
X0769216Y0581008D01*
X0770216Y0582008D01*
X0773215D01*
X0775214Y0580008D02*
Y0584007D01*
X0778213D01*
X0779213Y0583007D01*
Y0580008D01*
X0782212Y0585007D02*
Y0584007D01*
X0781212D01*
X0783211D01*
X0782212D01*
Y0581008D01*
X0783211Y0580008D01*
X0740225Y0465006D02*
X0741225Y0466006D01*
X0743224D01*
X0744224Y0465006D01*
Y0464007D01*
X0743224Y0463007D01*
X0742225D01*
X0743224D01*
X0744224Y0462008D01*
Y0461008D01*
X0743224Y0460008D01*
X0741225D01*
X0740225Y0461008D01*
X0746223Y0460008D02*
Y0461008D01*
X0747223D01*
Y0460008D01*
X0746223D01*
X0755220Y0466006D02*
X0751222D01*
Y0463007D01*
X0753221Y0464007D01*
X0754221D01*
X0755220Y0463007D01*
Y0461008D01*
X0754221Y0460008D01*
X0752221D01*
X0751222Y0461008D01*
X0743224Y0484008D02*
Y0490006D01*
X0740225Y0487007D01*
X0744224D01*
X0746223Y0484008D02*
Y0485008D01*
X0747223D01*
Y0484008D01*
X0746223D01*
X0755220D02*
X0751222D01*
X0755220Y0488007D01*
Y0489007D01*
X0754221Y0490006D01*
X0752221D01*
X0751222Y0489007D01*
X0743224Y0508008D02*
Y0514006D01*
X0740225Y0511007D01*
X0744224D01*
X0746223Y0508008D02*
Y0509008D01*
X0747223D01*
Y0508008D01*
X0746223D01*
X0755220D02*
X0751222D01*
X0755220Y0512007D01*
Y0513006D01*
X0754221Y0514006D01*
X0752221D01*
X0751222Y0513006D01*
X0743224Y0532008D02*
Y0538006D01*
X0740225Y0535007D01*
X0744224D01*
X0746223Y0532008D02*
Y0533008D01*
X0747223D01*
Y0532008D01*
X0746223D01*
X0755220D02*
X0751222D01*
X0755220Y0536007D01*
Y0537007D01*
X0754221Y0538006D01*
X0752221D01*
X0751222Y0537007D01*
X0740225Y0561006D02*
X0741225Y0562006D01*
X0743224D01*
X0744224Y0561006D01*
Y0560007D01*
X0743224Y0559007D01*
X0742225D01*
X0743224D01*
X0744224Y0558007D01*
Y0557008D01*
X0743224Y0556008D01*
X0741225D01*
X0740225Y0557008D01*
X0746223Y0556008D02*
Y0557008D01*
X0747223D01*
Y0556008D01*
X0746223D01*
X0755220Y0562006D02*
X0751222D01*
Y0559007D01*
X0753221Y0560007D01*
X0754221D01*
X0755220Y0559007D01*
Y0557008D01*
X0754221Y0556008D01*
X0752221D01*
X0751222Y0557008D01*
X0797211Y0586006D02*
Y0580008D01*
X0800210D01*
X0801210Y0581008D01*
Y0582008D01*
X0800210Y0583007D01*
X0797211D01*
X0800210D01*
X0801210Y0584007D01*
Y0585007D01*
X0800210Y0586006D01*
X0797211D01*
X0804209Y0580008D02*
X0806208D01*
X0807208Y0581008D01*
Y0583007D01*
X0806208Y0584007D01*
X0804209D01*
X0803209Y0583007D01*
Y0581008D01*
X0804209Y0580008D01*
X0810207Y0584007D02*
X0812206D01*
X0813206Y0583007D01*
Y0580008D01*
X0810207D01*
X0809207Y0581008D01*
X0810207Y0582008D01*
X0813206D01*
X0815205Y0584007D02*
Y0580008D01*
Y0582008D01*
X0816205Y0583007D01*
X0817205Y0584007D01*
X0818204D01*
X0825202Y0586006D02*
Y0580008D01*
X0822203D01*
X0821204Y0581008D01*
Y0583007D01*
X0822203Y0584007D01*
X0825202D01*
X0833200Y0586006D02*
Y0580008D01*
X0837198D01*
X0840197Y0584007D02*
X0842197D01*
X0843196Y0583007D01*
Y0580008D01*
X0840197D01*
X0839198Y0581008D01*
X0840197Y0582008D01*
X0843196D01*
X0845196Y0584007D02*
Y0581008D01*
X0846196Y0580008D01*
X0849195D01*
Y0579008D01*
X0848195Y0578009D01*
X0847195D01*
X0849195Y0580008D02*
Y0584007D01*
X0854193Y0580008D02*
X0852194D01*
X0851194Y0581008D01*
Y0583007D01*
X0852194Y0584007D01*
X0854193D01*
X0855193Y0583007D01*
Y0582008D01*
X0851194D01*
X0857192Y0584007D02*
Y0580008D01*
Y0582008D01*
X0858192Y0583007D01*
X0859191Y0584007D01*
X0860191D01*
X0873187Y0585007D02*
X0872187Y0586006D01*
X0870188D01*
X0869188Y0585007D01*
Y0584007D01*
X0870188Y0583007D01*
X0872187D01*
X0873187Y0582008D01*
Y0581008D01*
X0872187Y0580008D01*
X0870188D01*
X0869188Y0581008D01*
X0876186Y0585007D02*
Y0584007D01*
X0875186D01*
X0877185D01*
X0876186D01*
Y0581008D01*
X0877185Y0580008D01*
X0881184Y0584007D02*
X0883183D01*
X0884183Y0583007D01*
Y0580008D01*
X0881184D01*
X0880184Y0581008D01*
X0881184Y0582008D01*
X0884183D01*
X0890181Y0584007D02*
X0887182D01*
X0886182Y0583007D01*
Y0581008D01*
X0887182Y0580008D01*
X0890181D01*
X0892181D02*
Y0586006D01*
Y0582008D02*
X0895180Y0584007D01*
X0892181Y0582008D02*
X0895180Y0580008D01*
X0909180Y0586006D02*
Y0580008D01*
X0912179D01*
X0913178Y0581008D01*
Y0582008D01*
X0912179Y0583007D01*
X0909180D01*
X0912179D01*
X0913178Y0584007D01*
Y0585007D01*
X0912179Y0586006D01*
X0909180D01*
X0916177Y0580008D02*
X0918177D01*
X0919176Y0581008D01*
Y0583007D01*
X0918177Y0584007D01*
X0916177D01*
X0915178Y0583007D01*
Y0581008D01*
X0916177Y0580008D01*
X0922175Y0584007D02*
X0924175D01*
X0925175Y0583007D01*
Y0580008D01*
X0922175D01*
X0921176Y0581008D01*
X0922175Y0582008D01*
X0925175D01*
X0927174Y0584007D02*
Y0580008D01*
Y0582008D01*
X0928174Y0583007D01*
X0929173Y0584007D01*
X0930173D01*
X0937171Y0586006D02*
Y0580008D01*
X0934172D01*
X0933172Y0581008D01*
Y0583007D01*
X0934172Y0584007D01*
X0937171D01*
X0945168Y0586006D02*
Y0580008D01*
X0949167D01*
X0952166Y0584007D02*
X0954165D01*
X0955165Y0583007D01*
Y0580008D01*
X0952166D01*
X0951166Y0581008D01*
X0952166Y0582008D01*
X0955165D01*
X0957164Y0584007D02*
Y0581008D01*
X0958164Y0580008D01*
X0961163D01*
Y0579008D01*
X0960163Y0578009D01*
X0959163D01*
X0961163Y0580008D02*
Y0584007D01*
X0966161Y0580008D02*
X0964162D01*
X0963162Y0581008D01*
Y0583007D01*
X0964162Y0584007D01*
X0966161D01*
X0967161Y0583007D01*
Y0582008D01*
X0963162D01*
X0969160Y0584007D02*
Y0580008D01*
Y0582008D01*
X0970160Y0583007D01*
X0971160Y0584007D01*
X0972159D01*
X0985155Y0585007D02*
X0984155Y0586006D01*
X0982156D01*
X0981156Y0585007D01*
Y0584007D01*
X0982156Y0583007D01*
X0984155D01*
X0985155Y0582008D01*
Y0581008D01*
X0984155Y0580008D01*
X0982156D01*
X0981156Y0581008D01*
X0988154Y0585007D02*
Y0584007D01*
X0987154D01*
X0989154D01*
X0988154D01*
Y0581008D01*
X0989154Y0580008D01*
X0993153Y0584007D02*
X0995152D01*
X0996152Y0583007D01*
Y0580008D01*
X0993153D01*
X0992153Y0581008D01*
X0993153Y0582008D01*
X0996152D01*
X1002150Y0584007D02*
X0999150D01*
X0998151Y0583007D01*
Y0581008D01*
X0999150Y0580008D01*
X1002150D01*
X1004149D02*
Y0586006D01*
Y0582008D02*
X1007148Y0584007D01*
X1004149Y0582008D02*
X1007148Y0580008D01*
X1021148Y0586006D02*
Y0580008D01*
X1024147D01*
X1025147Y0581008D01*
Y0582008D01*
X1024147Y0583007D01*
X1021148D01*
X1024147D01*
X1025147Y0584007D01*
Y0585007D01*
X1024147Y0586006D01*
X1021148D01*
X1028146Y0580008D02*
X1030145D01*
X1031145Y0581008D01*
Y0583007D01*
X1030145Y0584007D01*
X1028146D01*
X1027146Y0583007D01*
Y0581008D01*
X1028146Y0580008D01*
X1034144Y0584007D02*
X1036143D01*
X1037143Y0583007D01*
Y0580008D01*
X1034144D01*
X1033144Y0581008D01*
X1034144Y0582008D01*
X1037143D01*
X1039142Y0584007D02*
Y0580008D01*
Y0582008D01*
X1040142Y0583007D01*
X1041142Y0584007D01*
X1042141D01*
X1049139Y0586006D02*
Y0580008D01*
X1046140D01*
X1045140Y0581008D01*
Y0583007D01*
X1046140Y0584007D01*
X1049139D01*
X1057136Y0586006D02*
Y0580008D01*
X1061135D01*
X1064134Y0584007D02*
X1066133D01*
X1067133Y0583007D01*
Y0580008D01*
X1064134D01*
X1063134Y0581008D01*
X1064134Y0582008D01*
X1067133D01*
X1069132Y0584007D02*
Y0581008D01*
X1070132Y0580008D01*
X1073131D01*
Y0579008D01*
X1072132Y0578009D01*
X1071132D01*
X1073131Y0580008D02*
Y0584007D01*
X1078129Y0580008D02*
X1076130D01*
X1075130Y0581008D01*
Y0583007D01*
X1076130Y0584007D01*
X1078129D01*
X1079129Y0583007D01*
Y0582008D01*
X1075130D01*
X1081129Y0584007D02*
Y0580008D01*
Y0582008D01*
X1082128Y0583007D01*
X1083128Y0584007D01*
X1084128D01*
X1097123Y0585007D02*
X1096124Y0586006D01*
X1094124D01*
X1093125Y0585007D01*
Y0584007D01*
X1094124Y0583007D01*
X1096124D01*
X1097123Y0582008D01*
Y0581008D01*
X1096124Y0580008D01*
X1094124D01*
X1093125Y0581008D01*
X1100122Y0585007D02*
Y0584007D01*
X1099123D01*
X1101122D01*
X1100122D01*
Y0581008D01*
X1101122Y0580008D01*
X1105121Y0584007D02*
X1107120D01*
X1108120Y0583007D01*
Y0580008D01*
X1105121D01*
X1104121Y0581008D01*
X1105121Y0582008D01*
X1108120D01*
X1114118Y0584007D02*
X1111119D01*
X1110119Y0583007D01*
Y0581008D01*
X1111119Y0580008D01*
X1114118D01*
X1116117D02*
Y0586006D01*
Y0582008D02*
X1119116Y0584007D01*
X1116117Y0582008D02*
X1119116Y0580008D01*
X0497080Y0080325D02*
Y0100658D01*
X0413080Y0080325D02*
Y0100658D01*
X0039880Y0080325D02*
X0700080D01*
X0039880Y0059992D02*
X0699880D01*
X0039880Y0039658D02*
X0440380D01*
X0039930Y0100658D02*
X0700080D01*
X0039930Y0039658D02*
Y0100658D01*
Y0039658D02*
X0197480D01*
X0039880D02*
Y0100658D01*
X0286380Y0039658D02*
Y0100658D01*
X0700080Y0039658D02*
Y0100658D01*
X0440380Y0039658D02*
X0700080D01*
X0559280Y0039008D02*
Y0059292D01*
G54D146*
X0448299Y0577008D02*
X1126116D01*
X0448299Y0589008D02*
X1126116D01*
X0448299Y0445008D02*
Y0589008D01*
Y0445008D02*
X0489291D01*
X0448299Y0457008D02*
X0489291D01*
X0448299Y0469008D02*
X0489291D01*
X0448299Y0481008D02*
X0489291D01*
X0448299Y0493008D02*
X0489291D01*
X0448299Y0505008D02*
X0489291D01*
X0448299Y0517008D02*
X0489291D01*
X0448299Y0529008D02*
X0489291D01*
X0448299Y0541008D02*
X0489291D01*
X0448299Y0553008D02*
X0489291D01*
X0448299Y0565008D02*
X0489291D01*
Y0445008D02*
Y0589008D01*
Y0445008D02*
X0582265D01*
X0489291Y0457008D02*
X0582265D01*
X0489291Y0469008D02*
X0582265D01*
X0489291Y0481008D02*
X0582265D01*
X0489291Y0493008D02*
X0582265D01*
X0489291Y0505008D02*
X0582265D01*
X0489291Y0517008D02*
X0582265D01*
X0489291Y0529008D02*
X0582265D01*
X0489291Y0541008D02*
X0582265D01*
X0489291Y0553008D02*
X0582265D01*
X0489291Y0565008D02*
X0582265D01*
Y0445008D02*
Y0589008D01*
Y0445008D02*
X0668242D01*
X0582265Y0457008D02*
X0668242D01*
X0582265Y0469008D02*
X0668242D01*
X0582265Y0481008D02*
X0668242D01*
X0582265Y0493008D02*
X0668242D01*
X0582265Y0505008D02*
X0668242D01*
X0582265Y0517008D02*
X0668242D01*
X0582265Y0529008D02*
X0668242D01*
X0582265Y0541008D02*
X0668242D01*
X0582265Y0553008D02*
X0668242D01*
X0582265Y0565008D02*
X0668242D01*
Y0445008D02*
Y0589008D01*
Y0445008D02*
X0733225D01*
X0668242Y0457008D02*
X0733225D01*
X0668242Y0469008D02*
X0733225D01*
X0668242Y0481008D02*
X0733225D01*
X0668242Y0493008D02*
X0733225D01*
X0668242Y0505008D02*
X0733225D01*
X0668242Y0517008D02*
X0733225D01*
X0668242Y0529008D02*
X0733225D01*
X0668242Y0541008D02*
X0733225D01*
X0668242Y0553008D02*
X0733225D01*
X0668242Y0565008D02*
X0733225D01*
Y0445008D02*
Y0589008D01*
Y0445008D02*
X0790211D01*
X0733225Y0457008D02*
X0790211D01*
X0733225Y0469008D02*
X0790211D01*
X0733225Y0481008D02*
X0790211D01*
X0733225Y0493008D02*
X0790211D01*
X0733225Y0505008D02*
X0790211D01*
X0733225Y0517008D02*
X0790211D01*
X0733225Y0529008D02*
X0790211D01*
X0733225Y0541008D02*
X0790211D01*
X0733225Y0553008D02*
X0790211D01*
X0733225Y0565008D02*
X0790211D01*
Y0445008D02*
Y0589008D01*
Y0445008D02*
X0902180D01*
X0790211Y0457008D02*
X0902180D01*
X0790211Y0469008D02*
X0902180D01*
X0790211Y0481008D02*
X0902180D01*
X0790211Y0493008D02*
X0902180D01*
X0790211Y0505008D02*
X0902180D01*
X0790211Y0517008D02*
X0902180D01*
X0790211Y0529008D02*
X0902180D01*
X0790211Y0541008D02*
X0902180D01*
X0790211Y0553008D02*
X0902180D01*
X0790211Y0565008D02*
X0902180D01*
Y0445008D02*
Y0589008D01*
Y0445008D02*
X1014148D01*
X0902180Y0457008D02*
X1014148D01*
X0902180Y0469008D02*
X1014148D01*
X0902180Y0481008D02*
X1014148D01*
X0902180Y0493008D02*
X1014148D01*
X0902180Y0505008D02*
X1014148D01*
X0902180Y0517008D02*
X1014148D01*
X0902180Y0529008D02*
X1014148D01*
X0902180Y0541008D02*
X1014148D01*
X0902180Y0553008D02*
X1014148D01*
X0902180Y0565008D02*
X1014148D01*
Y0445008D02*
Y0589008D01*
Y0445008D02*
X1126116D01*
X1014148Y0457008D02*
X1126116D01*
X1014148Y0469008D02*
X1126116D01*
X1014148Y0481008D02*
X1126116D01*
X1014148Y0493008D02*
X1126116D01*
X1014148Y0505008D02*
X1126116D01*
X1014148Y0517008D02*
X1126116D01*
X1014148Y0529008D02*
X1126116D01*
X1014148Y0541008D02*
X1126116D01*
X1014148Y0553008D02*
X1126116D01*
X1014148Y0565008D02*
X1126116D01*
Y0445008D02*
Y0589008D01*
G54D153*
X0896180Y0445008D02*
X0902180Y0451008D01*
X0890180Y0445008D02*
X0902180Y0457008D01*
X0884180Y0445008D02*
X0896180Y0457008D01*
X0878180Y0445008D02*
X0890180Y0457008D01*
X0872180Y0445008D02*
X0884180Y0457008D01*
X0866180Y0445008D02*
X0878180Y0457008D01*
X0860180Y0445008D02*
X0872180Y0457008D01*
X0854180Y0445008D02*
X0866180Y0457008D01*
X0848180Y0445008D02*
X0860180Y0457008D01*
X0842180Y0445008D02*
X0854180Y0457008D01*
X0836180Y0445008D02*
X0848180Y0457008D01*
X0830180Y0445008D02*
X0842180Y0457008D01*
X0824180Y0445008D02*
X0836180Y0457008D01*
X0818180Y0445008D02*
X0830180Y0457008D01*
X0812180Y0445008D02*
X0824180Y0457008D01*
X0806180Y0445008D02*
X0818180Y0457008D01*
X0800180Y0445008D02*
X0812180Y0457008D01*
X0794180Y0445008D02*
X0806180Y0457008D01*
X0790211Y0447040D02*
X0800180Y0457008D01*
X0790211Y0453040D02*
X0794180Y0457008D01*
X0896180D02*
X0902180Y0463008D01*
X0890180Y0457008D02*
X0902180Y0469008D01*
X0884180Y0457008D02*
X0896180Y0469008D01*
X0878180Y0457008D02*
X0890180Y0469008D01*
X0872180Y0457008D02*
X0884180Y0469008D01*
X0866180Y0457008D02*
X0878180Y0469008D01*
X0860180Y0457008D02*
X0872180Y0469008D01*
X0854180Y0457008D02*
X0866180Y0469008D01*
X0848180Y0457008D02*
X0860180Y0469008D01*
X0842180Y0457008D02*
X0854180Y0469008D01*
X0836180Y0457008D02*
X0848180Y0469008D01*
X0830180Y0457008D02*
X0842180Y0469008D01*
X0824180Y0457008D02*
X0836180Y0469008D01*
X0818180Y0457008D02*
X0830180Y0469008D01*
X0812180Y0457008D02*
X0824180Y0469008D01*
X0806180Y0457008D02*
X0818180Y0469008D01*
X0800180Y0457008D02*
X0812180Y0469008D01*
X0794180Y0457008D02*
X0806180Y0469008D01*
X0790211Y0459040D02*
X0800180Y0469008D01*
X0790211Y0465040D02*
X0794180Y0469008D01*
X0896180D02*
X0902180Y0475008D01*
X0890180Y0469008D02*
X0902180Y0481008D01*
X0884180Y0469008D02*
X0896180Y0481008D01*
X0878180Y0469008D02*
X0890180Y0481008D01*
X0872180Y0469008D02*
X0884180Y0481008D01*
X0866180Y0469008D02*
X0878180Y0481008D01*
X0860180Y0469008D02*
X0872180Y0481008D01*
X0854180Y0469008D02*
X0866180Y0481008D01*
X0848180Y0469008D02*
X0860180Y0481008D01*
X0842180Y0469008D02*
X0854180Y0481008D01*
X0836180Y0469008D02*
X0848180Y0481008D01*
X0830180Y0469008D02*
X0842180Y0481008D01*
X0824180Y0469008D02*
X0836180Y0481008D01*
X0818180Y0469008D02*
X0830180Y0481008D01*
X0812180Y0469008D02*
X0824180Y0481008D01*
X0806180Y0469008D02*
X0818180Y0481008D01*
X0800180Y0469008D02*
X0812180Y0481008D01*
X0794180Y0469008D02*
X0806180Y0481008D01*
X0790211Y0471040D02*
X0800180Y0481008D01*
X0790211Y0477040D02*
X0794180Y0481008D01*
X0896180D02*
X0902180Y0487008D01*
X0890180Y0481008D02*
X0902180Y0493008D01*
X0884180Y0481008D02*
X0896180Y0493008D01*
X0878180Y0481008D02*
X0890180Y0493008D01*
X0872180Y0481008D02*
X0884180Y0493008D01*
X0866180Y0481008D02*
X0878180Y0493008D01*
X0860180Y0481008D02*
X0872180Y0493008D01*
X0854180Y0481008D02*
X0866180Y0493008D01*
X0848180Y0481008D02*
X0860180Y0493008D01*
X0842180Y0481008D02*
X0854180Y0493008D01*
X0836180Y0481008D02*
X0848180Y0493008D01*
X0830180Y0481008D02*
X0842180Y0493008D01*
X0824180Y0481008D02*
X0836180Y0493008D01*
X0818180Y0481008D02*
X0830180Y0493008D01*
X0812180Y0481008D02*
X0824180Y0493008D01*
X0806180Y0481008D02*
X0818180Y0493008D01*
X0800180Y0481008D02*
X0812180Y0493008D01*
X0794180Y0481008D02*
X0806180Y0493008D01*
X0790211Y0483040D02*
X0800180Y0493008D01*
X0790211Y0489040D02*
X0794180Y0493008D01*
X0896180D02*
X0902180Y0499008D01*
X0890180Y0493008D02*
X0902180Y0505008D01*
X0884180Y0493008D02*
X0896180Y0505008D01*
X0878180Y0493008D02*
X0890180Y0505008D01*
X0872180Y0493008D02*
X0884180Y0505008D01*
X0866180Y0493008D02*
X0878180Y0505008D01*
X0860180Y0493008D02*
X0872180Y0505008D01*
X0854180Y0493008D02*
X0866180Y0505008D01*
X0848180Y0493008D02*
X0860180Y0505008D01*
X0842180Y0493008D02*
X0854180Y0505008D01*
X0836180Y0493008D02*
X0848180Y0505008D01*
X0830180Y0493008D02*
X0842180Y0505008D01*
X0824180Y0493008D02*
X0836180Y0505008D01*
X0818180Y0493008D02*
X0830180Y0505008D01*
X0812180Y0493008D02*
X0824180Y0505008D01*
X0806180Y0493008D02*
X0818180Y0505008D01*
X0800180Y0493008D02*
X0812180Y0505008D01*
X0794180Y0493008D02*
X0806180Y0505008D01*
X0790211Y0495040D02*
X0800180Y0505008D01*
X0790211Y0501040D02*
X0794180Y0505008D01*
X0896180D02*
X0902180Y0511008D01*
X0890180Y0505008D02*
X0902180Y0517008D01*
X0884180Y0505008D02*
X0896180Y0517008D01*
X0878180Y0505008D02*
X0890180Y0517008D01*
X0872180Y0505008D02*
X0884180Y0517008D01*
X0866180Y0505008D02*
X0878180Y0517008D01*
X0860180Y0505008D02*
X0872180Y0517008D01*
X0854180Y0505008D02*
X0866180Y0517008D01*
X0848180Y0505008D02*
X0860180Y0517008D01*
X0842180Y0505008D02*
X0854180Y0517008D01*
X0836180Y0505008D02*
X0848180Y0517008D01*
X0830180Y0505008D02*
X0842180Y0517008D01*
X0824180Y0505008D02*
X0836180Y0517008D01*
X0818180Y0505008D02*
X0830180Y0517008D01*
X0812180Y0505008D02*
X0824180Y0517008D01*
X0806180Y0505008D02*
X0818180Y0517008D01*
X0800180Y0505008D02*
X0812180Y0517008D01*
X0794180Y0505008D02*
X0806180Y0517008D01*
X0790211Y0507040D02*
X0800180Y0517008D01*
X0790211Y0513040D02*
X0794180Y0517008D01*
X0896180D02*
X0902180Y0523008D01*
X0890180Y0517008D02*
X0902180Y0529008D01*
X0884180Y0517008D02*
X0896180Y0529008D01*
X0878180Y0517008D02*
X0890180Y0529008D01*
X0872180Y0517008D02*
X0884180Y0529008D01*
X0866180Y0517008D02*
X0878180Y0529008D01*
X0860180Y0517008D02*
X0872180Y0529008D01*
X0854180Y0517008D02*
X0866180Y0529008D01*
X0848180Y0517008D02*
X0860180Y0529008D01*
X0842180Y0517008D02*
X0854180Y0529008D01*
X0836180Y0517008D02*
X0848180Y0529008D01*
X0830180Y0517008D02*
X0842180Y0529008D01*
X0824180Y0517008D02*
X0836180Y0529008D01*
X0818180Y0517008D02*
X0830180Y0529008D01*
X0812180Y0517008D02*
X0824180Y0529008D01*
X0806180Y0517008D02*
X0818180Y0529008D01*
X0800180Y0517008D02*
X0812180Y0529008D01*
X0794180Y0517008D02*
X0806180Y0529008D01*
X0790211Y0519040D02*
X0800180Y0529008D01*
X0790211Y0525040D02*
X0794180Y0529008D01*
X0896180D02*
X0902180Y0535008D01*
X0890180Y0529008D02*
X0902180Y0541008D01*
X0884180Y0529008D02*
X0896180Y0541008D01*
X0878180Y0529008D02*
X0890180Y0541008D01*
X0872180Y0529008D02*
X0884180Y0541008D01*
X0866180Y0529008D02*
X0878180Y0541008D01*
X0860180Y0529008D02*
X0872180Y0541008D01*
X0854180Y0529008D02*
X0866180Y0541008D01*
X0848180Y0529008D02*
X0860180Y0541008D01*
X0842180Y0529008D02*
X0854180Y0541008D01*
X0836180Y0529008D02*
X0848180Y0541008D01*
X0830180Y0529008D02*
X0842180Y0541008D01*
X0824180Y0529008D02*
X0836180Y0541008D01*
X0818180Y0529008D02*
X0830180Y0541008D01*
X0812180Y0529008D02*
X0824180Y0541008D01*
X0806180Y0529008D02*
X0818180Y0541008D01*
X0800180Y0529008D02*
X0812180Y0541008D01*
X0794180Y0529008D02*
X0806180Y0541008D01*
X0790211Y0531040D02*
X0800180Y0541008D01*
X0790211Y0537040D02*
X0794180Y0541008D01*
X0896180D02*
X0902180Y0547008D01*
X0890180Y0541008D02*
X0902180Y0553008D01*
X0884180Y0541008D02*
X0896180Y0553008D01*
X0878180Y0541008D02*
X0890180Y0553008D01*
X0872180Y0541008D02*
X0884180Y0553008D01*
X0866180Y0541008D02*
X0878180Y0553008D01*
X0860180Y0541008D02*
X0872180Y0553008D01*
X0854180Y0541008D02*
X0866180Y0553008D01*
X0848180Y0541008D02*
X0860180Y0553008D01*
X0842180Y0541008D02*
X0854180Y0553008D01*
X0836180Y0541008D02*
X0848180Y0553008D01*
X0830180Y0541008D02*
X0842180Y0553008D01*
X0824180Y0541008D02*
X0836180Y0553008D01*
X0818180Y0541008D02*
X0830180Y0553008D01*
X0812180Y0541008D02*
X0824180Y0553008D01*
X0806180Y0541008D02*
X0818180Y0553008D01*
X0800180Y0541008D02*
X0812180Y0553008D01*
X0794180Y0541008D02*
X0806180Y0553008D01*
X0790211Y0543040D02*
X0800180Y0553008D01*
X0790211Y0549040D02*
X0794180Y0553008D01*
X0896180D02*
X0902180Y0559008D01*
X0890180Y0553008D02*
X0902180Y0565008D01*
X0884180Y0553008D02*
X0896180Y0565008D01*
X0878180Y0553008D02*
X0890180Y0565008D01*
X0872180Y0553008D02*
X0884180Y0565008D01*
X0866180Y0553008D02*
X0878180Y0565008D01*
X0860180Y0553008D02*
X0872180Y0565008D01*
X0854180Y0553008D02*
X0866180Y0565008D01*
X0848180Y0553008D02*
X0860180Y0565008D01*
X0842180Y0553008D02*
X0854180Y0565008D01*
X0836180Y0553008D02*
X0848180Y0565008D01*
X0830180Y0553008D02*
X0842180Y0565008D01*
X0824180Y0553008D02*
X0836180Y0565008D01*
X0818180Y0553008D02*
X0830180Y0565008D01*
X0812180Y0553008D02*
X0824180Y0565008D01*
X0806180Y0553008D02*
X0818180Y0565008D01*
X0800180Y0553008D02*
X0812180Y0565008D01*
X0794180Y0553008D02*
X0806180Y0565008D01*
X0790211Y0555040D02*
X0800180Y0565008D01*
X0790211Y0561040D02*
X0794180Y0565008D01*
X0896180D02*
X0902180Y0571008D01*
X0890180Y0565008D02*
X0902180Y0577008D01*
X0884180Y0565008D02*
X0896180Y0577008D01*
X0878180Y0565008D02*
X0890180Y0577008D01*
X0872180Y0565008D02*
X0884180Y0577008D01*
X0866180Y0565008D02*
X0878180Y0577008D01*
X0860180Y0565008D02*
X0872180Y0577008D01*
X0854180Y0565008D02*
X0866180Y0577008D01*
X0848180Y0565008D02*
X0860180Y0577008D01*
X0842180Y0565008D02*
X0854180Y0577008D01*
X0836180Y0565008D02*
X0848180Y0577008D01*
X0830180Y0565008D02*
X0842180Y0577008D01*
X0824180Y0565008D02*
X0836180Y0577008D01*
X0818180Y0565008D02*
X0830180Y0577008D01*
X0812180Y0565008D02*
X0824180Y0577008D01*
X0806180Y0565008D02*
X0818180Y0577008D01*
X0800180Y0565008D02*
X0812180Y0577008D01*
X0794180Y0565008D02*
X0806180Y0577008D01*
X0790211Y0567040D02*
X0800180Y0577008D01*
X0790211Y0573040D02*
X0794180Y0577008D01*
X0902180Y0451008D02*
X0908180Y0445008D01*
X0902180Y0457008D02*
X0914180Y0445008D01*
X0908180Y0457008D02*
X0920180Y0445008D01*
X0914180Y0457008D02*
X0926180Y0445008D01*
X0920180Y0457008D02*
X0932180Y0445008D01*
X0926180Y0457008D02*
X0938180Y0445008D01*
X0932180Y0457008D02*
X0944180Y0445008D01*
X0938180Y0457008D02*
X0950180Y0445008D01*
X0944180Y0457008D02*
X0956180Y0445008D01*
X0950180Y0457008D02*
X0962180Y0445008D01*
X0956180Y0457008D02*
X0968180Y0445008D01*
X0962180Y0457008D02*
X0974180Y0445008D01*
X0968180Y0457008D02*
X0980180Y0445008D01*
X0974180Y0457008D02*
X0986180Y0445008D01*
X0980180Y0457008D02*
X0992180Y0445008D01*
X0986180Y0457008D02*
X0998180Y0445008D01*
X0992180Y0457008D02*
X1004180Y0445008D01*
X0998180Y0457008D02*
X1010180Y0445008D01*
X1004180Y0457008D02*
X1014148Y0447040D01*
X1010180Y0457008D02*
X1014148Y0453040D01*
X0902180Y0463008D02*
X0908180Y0457008D01*
X0902180Y0469008D02*
X0914180Y0457008D01*
X0908180Y0469008D02*
X0920180Y0457008D01*
X0914180Y0469008D02*
X0926180Y0457008D01*
X0920180Y0469008D02*
X0932180Y0457008D01*
X0926180Y0469008D02*
X0938180Y0457008D01*
X0932180Y0469008D02*
X0944180Y0457008D01*
X0938180Y0469008D02*
X0950180Y0457008D01*
X0944180Y0469008D02*
X0956180Y0457008D01*
X0950180Y0469008D02*
X0962180Y0457008D01*
X0956180Y0469008D02*
X0968180Y0457008D01*
X0962180Y0469008D02*
X0974180Y0457008D01*
X0968180Y0469008D02*
X0980180Y0457008D01*
X0974180Y0469008D02*
X0986180Y0457008D01*
X0980180Y0469008D02*
X0992180Y0457008D01*
X0986180Y0469008D02*
X0998180Y0457008D01*
X0992180Y0469008D02*
X1004180Y0457008D01*
X0998180Y0469008D02*
X1010180Y0457008D01*
X1004180Y0469008D02*
X1014148Y0459040D01*
X1010180Y0469008D02*
X1014148Y0465040D01*
X0902180Y0475008D02*
X0908180Y0469008D01*
X0902180Y0481008D02*
X0914180Y0469008D01*
X0908180Y0481008D02*
X0920180Y0469008D01*
X0914180Y0481008D02*
X0926180Y0469008D01*
X0920180Y0481008D02*
X0932180Y0469008D01*
X0926180Y0481008D02*
X0938180Y0469008D01*
X0932180Y0481008D02*
X0944180Y0469008D01*
X0938180Y0481008D02*
X0950180Y0469008D01*
X0944180Y0481008D02*
X0956180Y0469008D01*
X0950180Y0481008D02*
X0962180Y0469008D01*
X0956180Y0481008D02*
X0968180Y0469008D01*
X0962180Y0481008D02*
X0974180Y0469008D01*
X0968180Y0481008D02*
X0980180Y0469008D01*
X0974180Y0481008D02*
X0986180Y0469008D01*
X0980180Y0481008D02*
X0992180Y0469008D01*
X0986180Y0481008D02*
X0998180Y0469008D01*
X0992180Y0481008D02*
X1004180Y0469008D01*
X0998180Y0481008D02*
X1010180Y0469008D01*
X1004180Y0481008D02*
X1014148Y0471040D01*
X1010180Y0481008D02*
X1014148Y0477040D01*
X0902180Y0487008D02*
X0908180Y0481008D01*
X0902180Y0493008D02*
X0914180Y0481008D01*
X0908180Y0493008D02*
X0920180Y0481008D01*
X0914180Y0493008D02*
X0926180Y0481008D01*
X0920180Y0493008D02*
X0932180Y0481008D01*
X0926180Y0493008D02*
X0938180Y0481008D01*
X0932180Y0493008D02*
X0944180Y0481008D01*
X0938180Y0493008D02*
X0950180Y0481008D01*
X0944180Y0493008D02*
X0956180Y0481008D01*
X0950180Y0493008D02*
X0962180Y0481008D01*
X0956180Y0493008D02*
X0968180Y0481008D01*
X0962180Y0493008D02*
X0974180Y0481008D01*
X0968180Y0493008D02*
X0980180Y0481008D01*
X0974180Y0493008D02*
X0986180Y0481008D01*
X0980180Y0493008D02*
X0992180Y0481008D01*
X0986180Y0493008D02*
X0998180Y0481008D01*
X0992180Y0493008D02*
X1004180Y0481008D01*
X0998180Y0493008D02*
X1010180Y0481008D01*
X1004180Y0493008D02*
X1014148Y0483040D01*
X1010180Y0493008D02*
X1014148Y0489040D01*
X0902180Y0499008D02*
X0908180Y0493008D01*
X0902180Y0505008D02*
X0914180Y0493008D01*
X0908180Y0505008D02*
X0920180Y0493008D01*
X0914180Y0505008D02*
X0926180Y0493008D01*
X0920180Y0505008D02*
X0932180Y0493008D01*
X0926180Y0505008D02*
X0938180Y0493008D01*
X0932180Y0505008D02*
X0944180Y0493008D01*
X0938180Y0505008D02*
X0950180Y0493008D01*
X0944180Y0505008D02*
X0956180Y0493008D01*
X0950180Y0505008D02*
X0962180Y0493008D01*
X0956180Y0505008D02*
X0968180Y0493008D01*
X0962180Y0505008D02*
X0974180Y0493008D01*
X0968180Y0505008D02*
X0980180Y0493008D01*
X0974180Y0505008D02*
X0986180Y0493008D01*
X0980180Y0505008D02*
X0992180Y0493008D01*
X0986180Y0505008D02*
X0998180Y0493008D01*
X0992180Y0505008D02*
X1004180Y0493008D01*
X0998180Y0505008D02*
X1010180Y0493008D01*
X1004180Y0505008D02*
X1014148Y0495040D01*
X1010180Y0505008D02*
X1014148Y0501040D01*
X0902180Y0511008D02*
X0908180Y0505008D01*
X0902180Y0517008D02*
X0914180Y0505008D01*
X0908180Y0517008D02*
X0920180Y0505008D01*
X0914180Y0517008D02*
X0926180Y0505008D01*
X0920180Y0517008D02*
X0932180Y0505008D01*
X0926180Y0517008D02*
X0938180Y0505008D01*
X0932180Y0517008D02*
X0944180Y0505008D01*
X0938180Y0517008D02*
X0950180Y0505008D01*
X0944180Y0517008D02*
X0956180Y0505008D01*
X0950180Y0517008D02*
X0962180Y0505008D01*
X0956180Y0517008D02*
X0968180Y0505008D01*
X0962180Y0517008D02*
X0974180Y0505008D01*
X0968180Y0517008D02*
X0980180Y0505008D01*
X0974180Y0517008D02*
X0986180Y0505008D01*
X0980180Y0517008D02*
X0992180Y0505008D01*
X0986180Y0517008D02*
X0998180Y0505008D01*
X0992180Y0517008D02*
X1004180Y0505008D01*
X0998180Y0517008D02*
X1010180Y0505008D01*
X1004180Y0517008D02*
X1014148Y0507040D01*
X1010180Y0517008D02*
X1014148Y0513040D01*
X0902180Y0523008D02*
X0908180Y0517008D01*
X0902180Y0529008D02*
X0914180Y0517008D01*
X0908180Y0529008D02*
X0920180Y0517008D01*
X0914180Y0529008D02*
X0926180Y0517008D01*
X0920180Y0529008D02*
X0932180Y0517008D01*
X0926180Y0529008D02*
X0938180Y0517008D01*
X0932180Y0529008D02*
X0944180Y0517008D01*
X0938180Y0529008D02*
X0950180Y0517008D01*
X0944180Y0529008D02*
X0956180Y0517008D01*
X0950180Y0529008D02*
X0962180Y0517008D01*
X0956180Y0529008D02*
X0968180Y0517008D01*
X0962180Y0529008D02*
X0974180Y0517008D01*
X0968180Y0529008D02*
X0980180Y0517008D01*
X0974180Y0529008D02*
X0986180Y0517008D01*
X0980180Y0529008D02*
X0992180Y0517008D01*
X0986180Y0529008D02*
X0998180Y0517008D01*
X0992180Y0529008D02*
X1004180Y0517008D01*
X0998180Y0529008D02*
X1010180Y0517008D01*
X1004180Y0529008D02*
X1014148Y0519040D01*
X1010180Y0529008D02*
X1014148Y0525040D01*
X0902180Y0535008D02*
X0908180Y0529008D01*
X0902180Y0541008D02*
X0914180Y0529008D01*
X0908180Y0541008D02*
X0920180Y0529008D01*
X0914180Y0541008D02*
X0926180Y0529008D01*
X0920180Y0541008D02*
X0932180Y0529008D01*
X0926180Y0541008D02*
X0938180Y0529008D01*
X0932180Y0541008D02*
X0944180Y0529008D01*
X0938180Y0541008D02*
X0950180Y0529008D01*
X0944180Y0541008D02*
X0956180Y0529008D01*
X0950180Y0541008D02*
X0962180Y0529008D01*
X0956180Y0541008D02*
X0968180Y0529008D01*
X0962180Y0541008D02*
X0974180Y0529008D01*
X0968180Y0541008D02*
X0980180Y0529008D01*
X0974180Y0541008D02*
X0986180Y0529008D01*
X0980180Y0541008D02*
X0992180Y0529008D01*
X0986180Y0541008D02*
X0998180Y0529008D01*
X0992180Y0541008D02*
X1004180Y0529008D01*
X0998180Y0541008D02*
X1010180Y0529008D01*
X1004180Y0541008D02*
X1014148Y0531040D01*
X1010180Y0541008D02*
X1014148Y0537040D01*
X0902180Y0547008D02*
X0908180Y0541008D01*
X0902180Y0553008D02*
X0914180Y0541008D01*
X0908180Y0553008D02*
X0920180Y0541008D01*
X0914180Y0553008D02*
X0926180Y0541008D01*
X0920180Y0553008D02*
X0932180Y0541008D01*
X0926180Y0553008D02*
X0938180Y0541008D01*
X0932180Y0553008D02*
X0944180Y0541008D01*
X0938180Y0553008D02*
X0950180Y0541008D01*
X0944180Y0553008D02*
X0956180Y0541008D01*
X0950180Y0553008D02*
X0962180Y0541008D01*
X0956180Y0553008D02*
X0968180Y0541008D01*
X0962180Y0553008D02*
X0974180Y0541008D01*
X0968180Y0553008D02*
X0980180Y0541008D01*
X0974180Y0553008D02*
X0986180Y0541008D01*
X0980180Y0553008D02*
X0992180Y0541008D01*
X0986180Y0553008D02*
X0998180Y0541008D01*
X0992180Y0553008D02*
X1004180Y0541008D01*
X0998180Y0553008D02*
X1010180Y0541008D01*
X1004180Y0553008D02*
X1014148Y0543040D01*
X1010180Y0553008D02*
X1014148Y0549040D01*
X0902180Y0559008D02*
X0908180Y0553008D01*
X0902180Y0565008D02*
X0914180Y0553008D01*
X0908180Y0565008D02*
X0920180Y0553008D01*
X0914180Y0565008D02*
X0926180Y0553008D01*
X0920180Y0565008D02*
X0932180Y0553008D01*
X0926180Y0565008D02*
X0938180Y0553008D01*
X0932180Y0565008D02*
X0944180Y0553008D01*
X0938180Y0565008D02*
X0950180Y0553008D01*
X0944180Y0565008D02*
X0956180Y0553008D01*
X0950180Y0565008D02*
X0962180Y0553008D01*
X0956180Y0565008D02*
X0968180Y0553008D01*
X0962180Y0565008D02*
X0974180Y0553008D01*
X0968180Y0565008D02*
X0980180Y0553008D01*
X0974180Y0565008D02*
X0986180Y0553008D01*
X0980180Y0565008D02*
X0992180Y0553008D01*
X0986180Y0565008D02*
X0998180Y0553008D01*
X0992180Y0565008D02*
X1004180Y0553008D01*
X0998180Y0565008D02*
X1010180Y0553008D01*
X1004180Y0565008D02*
X1014148Y0555040D01*
X1010180Y0565008D02*
X1014148Y0561040D01*
X0902180Y0571008D02*
X0908180Y0565008D01*
X0902180Y0577008D02*
X0914180Y0565008D01*
X0908180Y0577008D02*
X0920180Y0565008D01*
X0914180Y0577008D02*
X0926180Y0565008D01*
X0920180Y0577008D02*
X0932180Y0565008D01*
X0926180Y0577008D02*
X0938180Y0565008D01*
X0932180Y0577008D02*
X0944180Y0565008D01*
X0938180Y0577008D02*
X0950180Y0565008D01*
X0944180Y0577008D02*
X0956180Y0565008D01*
X0950180Y0577008D02*
X0962180Y0565008D01*
X0956180Y0577008D02*
X0968180Y0565008D01*
X0962180Y0577008D02*
X0974180Y0565008D01*
X0968180Y0577008D02*
X0980180Y0565008D01*
X0974180Y0577008D02*
X0986180Y0565008D01*
X0980180Y0577008D02*
X0992180Y0565008D01*
X0986180Y0577008D02*
X0998180Y0565008D01*
X0992180Y0577008D02*
X1004180Y0565008D01*
X0998180Y0577008D02*
X1010180Y0565008D01*
X1004180Y0577008D02*
X1014148Y0567040D01*
X1010180Y0577008D02*
X1014148Y0573040D01*
Y0451008D02*
X1126116D01*
X1014148Y0463008D02*
X1126116D01*
X1014148Y0475008D02*
X1126116D01*
X1014148Y0487008D02*
X1126116D01*
X1014148Y0499008D02*
X1126116D01*
X1014148Y0511008D02*
X1126116D01*
X1014148Y0523008D02*
X1126116D01*
X1014148Y0535008D02*
X1126116D01*
X1014148Y0547008D02*
X1126116D01*
X1014148Y0559008D02*
X1126116D01*
X1014148Y0571008D02*
X1126116D01*
M02*
