M48
;Layer_Color=9474304
;FILE_FORMAT=2:5
INCH
;TYPE=PLATED
T1F00S00C0.00787
T2F00S00C0.00984
T3F00S00C0.01181
T4F00S00C0.01575
T6F00S00C0.02500
T8F00S00C0.04016
T9F00S00C0.04331
T10F00S00C0.04331
T11F00S00C0.04528
;TYPE=NON_PLATED
T12F00S00C0.03543
T13F00S00C0.11811
T14F00S00C0.12500
%
T01
X0160280Y0417747
X0162248Y0420208
X0158311
X0160280Y0422669
X0167995Y0498266
X0172830Y0498787
T02
X0316838Y0238805
X0316809Y0258805
X0347030Y0272208
X0347632Y0309808
X0334930Y0228982
X0305370Y0230808
X0306980Y0237508
X0298180Y0243608
X0295380Y0244408
X0290480Y0243608
X0287862Y0248415
X0292509Y0251240
X0288043Y0256608
X0289080Y0272145
X0291923Y0271960
X0291280Y0276064
X0291380Y0284408
X0290580Y0289685
X0279630Y0293520
X0274437Y0297808
X0283230Y0299564
X0285050Y0301632
X0290409Y0308828
X0300880Y0306625
X0306685Y0286558
X0312073Y0269908
X0300785Y0270090
X0272280Y0263258
X0267412Y0274190
X0267880Y0279711
X0262153Y0289015
X0250580Y0288608
X0250480Y0295808
X0241811Y0293708
X0244680Y0290808
X0236080Y0290446
X0232230Y0288340
X0234080Y0286408
X0227405Y0287032
X0227580Y0294708
X0226530Y0297572
X0231080Y0293564
X0235380Y0303161
X0238694Y0303401
X0243130Y0302694
X0240880Y0300298
X0244680Y0307108
X0242730Y0309316
X0249580Y0308508
X0247230Y0305394
X0254180Y0312208
X0262153Y0312108
X0261080Y0305918
X0230380Y0307008
X0228480Y0309608
X0214180Y0309255
X0195080Y0311495
X0192230Y0309304
X0192230Y0300970
X0195080Y0303161
X0195080Y0294828
X0195080Y0286495
X0195080Y0278161
X0185211Y0282505
X0185759Y0290605
X0180354Y0298896
X0184358Y0307369
X0174386Y0308018
X0163502
X0163391Y0297611
X0163591Y0288340
X0163511Y0278605
X0171519Y0260208
X0177244Y0252958
X0194043Y0251593
X0205780Y0251708
X0200180Y0245464
X0191680Y0228982
X0157186Y0229508
X0157980Y0253408
X0215794Y0262075
X0213638Y0267058
X0214159Y0275484
X0216294Y0277119
X0221494Y0279419
X0229434Y0280167
X0235994Y0279299
X0231894Y0269417
X0225712
X0229294Y0261976
X0247100Y0261901
X0253980Y0262058
X0251225Y0253727
X0251080Y0244433
X0261353
X0263680Y0251371
X0276262Y0240408
X0273930Y0228108
X0268668
X0283230Y0232462
X0287933
X0240780Y0244433
X0240733Y0253976
X0154880Y0263408
X0141130Y0262008
X0140580Y0228808
X0126530Y0283208
X0152711Y0288223
X0153011Y0297905
X0152911Y0308305
X0152810Y0328505
X0127180Y0317308
X0126880Y0342908
X0127030Y0380008
X0147930Y0401871
X0152380Y0419008
X0138491Y0448845
X0138948Y0466633
X0127798Y0462160
X0149283Y0460550
X0156866Y0457680
X0157783Y0466298
X0172645Y0460997
Y0457933
X0179562Y0465318
X0177407Y0467683
X0197232Y0465920
X0197180Y0448302
X0183968Y0448200
X0216003Y0448530
X0223924Y0451837
X0232080Y0448508
X0244780Y0449008
X0248480Y0446471
X0249973Y0442159
X0255543Y0441940
X0255880Y0444808
X0258655Y0445281
X0268180Y0445308
X0266780Y0447608
X0266550Y0461798
Y0464948
X0274074Y0463318
X0281188Y0459058
X0278039Y0453459
X0280847Y0445497
X0282843Y0443240
X0290580Y0453708
X0293645Y0454140
X0297700Y0453574
X0301669Y0453889
X0307960Y0453829
X0303236Y0445357
X0302587Y0441440
X0312414Y0436705
X0308121Y0410808
X0299708Y0401040
X0296720Y0392812
X0296930Y0389627
X0291740Y0397361
X0277085Y0392812
X0270280Y0392208
X0270028Y0387808
X0271028Y0384608
X0276444Y0379958
X0264980Y0379061
X0262553Y0368736
X0272408Y0370648
X0277280Y0360808
X0286569Y0344608
X0294050
X0303177Y0353608
X0301348Y0365808
X0310609Y0369015
X0299587Y0377890
X0301380Y0330508
X0296930Y0319911
X0290310Y0320054
X0283780Y0320161
X0276096Y0313056
X0259888Y0316936
X0251580Y0317608
X0248880Y0319708
X0245193Y0321349
X0245880Y0324808
X0236080Y0325069
Y0327640
X0238080Y0322508
X0246230Y0313908
X0223680Y0313994
X0218491Y0317153
X0213947Y0322201
X0209780Y0319408
X0208280Y0317208
X0207615Y0321111
X0205680Y0323213
X0204630Y0327008
X0206180Y0329244
X0205034Y0331708
X0195686Y0331591
X0197556Y0329244
X0192242Y0325808
X0186466Y0324944
X0182819Y0323708
Y0332424
X0182020Y0340804
X0187466Y0342525
Y0350744
X0181978Y0349139
X0166591Y0349271
X0168180Y0341318
X0162730Y0337208
X0162459Y0328905
X0171519Y0332210
X0172180Y0324138
X0172732Y0316140
X0180348Y0315762
X0187080Y0316408
X0192180Y0315108
X0191980Y0333608
X0195003Y0336708
X0195080Y0344828
Y0353161
X0193888Y0365045
X0188065Y0371019
X0195003Y0380708
X0196576Y0391008
X0189507Y0395408
X0175185Y0404919
X0164191Y0407171
X0168114Y0389093
X0167480Y0385133
X0171085Y0357108
X0207880Y0357658
X0206087Y0341002
X0222580Y0333708
X0234880Y0338608
X0258180Y0339608
X0255580Y0333435
X0249594Y0352108
X0252580Y0372933
X0245930Y0380581
X0252380Y0387808
X0248878Y0396802
X0258727Y0397508
X0261426Y0397408
X0268665Y0397208
X0229880Y0372508
X0208638Y0375658
X0207930Y0436208
X0218192Y0464648
X0245511Y0460861
Y0458302
X0253610Y0455499
X0252292Y0449083
X0249279Y0467581
X0294720Y0464452
X0313334Y0468176
X0319448Y0461798
X0319078Y0457073
X0317409Y0453829
X0324441Y0452594
X0327629Y0459455
X0328766Y0466359
X0317877Y0445140
X0316380Y0400969
X0321080Y0393911
X0323280Y0385760
X0334480Y0393911
X0332080Y0396808
X0336080Y0401008
X0332380Y0407707
X0348630Y0417108
X0345280Y0385008
X0347830Y0349425
X0343454Y0478608
X0337716Y0482534
X0332287Y0481168
X0330019Y0479121
X0332247Y0476026
X0335232Y0473133
X0319196Y0477455
X0314480Y0480656
Y0485573
X0319507Y0490085
X0319448Y0494869
X0313570Y0496877
X0320558Y0507467
X0326280Y0507408
X0332484Y0502148
X0343780Y0500508
X0348480Y0496108
X0348280Y0505608
X0333271Y0519207
X0315342
X0328984Y0487782
X0304397Y0486788
X0304318Y0483018
Y0480459
X0299279Y0478097
X0296550Y0472613
X0304791Y0472034
X0296523Y0485770
X0296720Y0493648
X0294024Y0498256
X0288763Y0498349
X0283128Y0496864
X0278157Y0498448
X0276826Y0492983
X0275185Y0487914
X0268720Y0485573
X0266550Y0493294
X0258448Y0490144
Y0479121
X0257507Y0472231
X0251204Y0478030
X0241811Y0477953
X0241913Y0471916
X0235880Y0474008
X0235850Y0476108
X0224003Y0481932
X0217999Y0480365
Y0498959
X0230401Y0494660
X0231531Y0505519
X0239169Y0515546
X0247452Y0515633
X0255125Y0515526
X0255873Y0502743
X0270039Y0504089
X0278039Y0506357
X0289062
X0292212
X0300196Y0505243
X0301105Y0501837
X0306129Y0494884
X0311110Y0506357
X0301380Y0519508
X0290637Y0514908
X0267302Y0519207
X0269121Y0471010
X0284358Y0470066
X0282232Y0477743
X0242780Y0490377
X0197338Y0492971
X0197421Y0501570
X0183043Y0495066
X0177407Y0489827
X0173550Y0490200
X0169255Y0492034
X0169172Y0482083
X0171731Y0482097
X0179053Y0479388
X0184654Y0482081
X0197023Y0478766
X0176208Y0473908
X0157554Y0472731
X0158094Y0490298
X0217232Y0519660
X0141354Y0520294
X0127566Y0504440
Y0484219
X0130429Y0473814
X0138251Y0479164
X0148019Y0484447
X0154819Y0482148
X0154929Y0487526
X0142964Y0490310
T03
X0314141Y0235108
X0310732Y0253108
X0300680Y0267358
X0285430Y0266658
X0272480Y0256008
X0258380Y0279908
T04
X0264880Y0236808
X0209530Y0296402
X0207615Y0298408
X0132880Y0383308
X0130230Y0422408
X0147480Y0429273
X0153080Y0428972
X0152436Y0410764
X0147964Y0450227
X0143767Y0461916
X0163160Y0454881
X0169172Y0460633
X0171826Y0448790
X0171380Y0430508
X0188921Y0423208
X0206410Y0385229
X0295330Y0357658
X0325880Y0423408
X0335680Y0453350
X0181047Y0490377
X0163889Y0491007
T06
X0185869Y0235780
X0198680Y0236130
X0213313Y0288608
X0252030Y0336711
X0273962Y0329208
T08
X0317980Y0283408
Y0293408
Y0303408
X0327980
Y0293408
Y0283408
X0157980
Y0293408
Y0303408
X0147980
Y0293408
Y0283408
Y0313408
Y0323408
Y0333408
Y0343408
Y0353408
Y0363408
Y0373408
X0157980
Y0363408
Y0353408
Y0343408
Y0333408
Y0323408
Y0313408
X0317980
Y0323408
Y0333408
Y0343408
Y0353408
Y0363408
Y0373408
X0327980
Y0363408
Y0353408
Y0343408
Y0333408
Y0323408
Y0313408
T09
X0217900Y0234506
X0227900
X0237900
X0247900
X0257900
T10
X0208094Y0410408
Y0420408
X0218094
Y0410408
X0235813
X0245813
X0255813
X0265813
X0275813
X0285813
Y0420408
X0275813
X0265813
X0255813
X0245813
X0235813
T11
X0327980Y0243408
Y0253408
Y0263408
X0200180Y0261908
Y0251908
X0147980Y0253408
Y0243408
Y0263408
X0147980Y0393408
X0157980
T12
X0342358Y0397881
Y0406936
T13
X0342980Y0514908
X0132980
T14
X0342980Y0234908
X0132980
X0342980Y0514908
X0132980
M30
