G04*
G04 #@! TF.GenerationSoftware,Altium Limited,Altium Designer,23.1.1 (15)*
G04*
G04 Layer_Color=16711935*
%FSAX25Y25*%
%MOIN*%
G70*
G04*
G04 #@! TF.SameCoordinates,3BE6CC82-2BF3-4767-8D6A-7EFB0FF24752*
G04*
G04*
G04 #@! TF.FilePolarity,Negative*
G04*
G01*
G75*
%ADD20C,0.00800*%
%ADD31C,0.01000*%
G04:AMPARAMS|DCode=35|XSize=31.5mil|YSize=31.5mil|CornerRadius=2.05mil|HoleSize=0mil|Usage=FLASHONLY|Rotation=270.000|XOffset=0mil|YOffset=0mil|HoleType=Round|Shape=RoundedRectangle|*
%AMROUNDEDRECTD35*
21,1,0.03150,0.02740,0,0,270.0*
21,1,0.02740,0.03150,0,0,270.0*
1,1,0.00409,-0.01370,-0.01370*
1,1,0.00409,-0.01370,0.01370*
1,1,0.00409,0.01370,0.01370*
1,1,0.00409,0.01370,-0.01370*
%
%ADD35ROUNDEDRECTD35*%
G04:AMPARAMS|DCode=36|XSize=19.68mil|YSize=19.68mil|CornerRadius=1.97mil|HoleSize=0mil|Usage=FLASHONLY|Rotation=270.000|XOffset=0mil|YOffset=0mil|HoleType=Round|Shape=RoundedRectangle|*
%AMROUNDEDRECTD36*
21,1,0.01968,0.01575,0,0,270.0*
21,1,0.01575,0.01968,0,0,270.0*
1,1,0.00394,-0.00787,-0.00787*
1,1,0.00394,-0.00787,0.00787*
1,1,0.00394,0.00787,0.00787*
1,1,0.00394,0.00787,-0.00787*
%
%ADD36ROUNDEDRECTD36*%
G04:AMPARAMS|DCode=37|XSize=19.68mil|YSize=19.68mil|CornerRadius=1.97mil|HoleSize=0mil|Usage=FLASHONLY|Rotation=315.000|XOffset=0mil|YOffset=0mil|HoleType=Round|Shape=RoundedRectangle|*
%AMROUNDEDRECTD37*
21,1,0.01968,0.01575,0,0,315.0*
21,1,0.01575,0.01968,0,0,315.0*
1,1,0.00394,0.00000,-0.01114*
1,1,0.00394,-0.01114,0.00000*
1,1,0.00394,0.00000,0.01114*
1,1,0.00394,0.01114,0.00000*
%
%ADD37ROUNDEDRECTD37*%
G04:AMPARAMS|DCode=42|XSize=19.68mil|YSize=19.68mil|CornerRadius=1.97mil|HoleSize=0mil|Usage=FLASHONLY|Rotation=0.000|XOffset=0mil|YOffset=0mil|HoleType=Round|Shape=RoundedRectangle|*
%AMROUNDEDRECTD42*
21,1,0.01968,0.01575,0,0,0.0*
21,1,0.01575,0.01968,0,0,0.0*
1,1,0.00394,0.00787,-0.00787*
1,1,0.00394,-0.00787,-0.00787*
1,1,0.00394,-0.00787,0.00787*
1,1,0.00394,0.00787,0.00787*
%
%ADD42ROUNDEDRECTD42*%
G04:AMPARAMS|DCode=47|XSize=7.87mil|YSize=11.81mil|CornerRadius=1.99mil|HoleSize=0mil|Usage=FLASHONLY|Rotation=0.000|XOffset=0mil|YOffset=0mil|HoleType=Round|Shape=RoundedRectangle|*
%AMROUNDEDRECTD47*
21,1,0.00787,0.00784,0,0,0.0*
21,1,0.00390,0.01181,0,0,0.0*
1,1,0.00398,0.00195,-0.00392*
1,1,0.00398,-0.00195,-0.00392*
1,1,0.00398,-0.00195,0.00392*
1,1,0.00398,0.00195,0.00392*
%
%ADD47ROUNDEDRECTD47*%
G04:AMPARAMS|DCode=48|XSize=7.87mil|YSize=13.78mil|CornerRadius=1.99mil|HoleSize=0mil|Usage=FLASHONLY|Rotation=0.000|XOffset=0mil|YOffset=0mil|HoleType=Round|Shape=RoundedRectangle|*
%AMROUNDEDRECTD48*
21,1,0.00787,0.00980,0,0,0.0*
21,1,0.00390,0.01378,0,0,0.0*
1,1,0.00398,0.00195,-0.00490*
1,1,0.00398,-0.00195,-0.00490*
1,1,0.00398,-0.00195,0.00490*
1,1,0.00398,0.00195,0.00490*
%
%ADD48ROUNDEDRECTD48*%
%ADD68R,0.02762X0.03550*%
%ADD71R,0.03550X0.02762*%
%ADD77C,0.04750*%
%ADD78C,0.04606*%
%ADD87C,0.07874*%
%ADD88R,0.04140X0.04337*%
%ADD89R,0.04337X0.04140*%
%ADD93C,0.12611*%
%ADD94C,0.15000*%
%ADD95R,0.06896X0.06896*%
%ADD96C,0.06896*%
%ADD97C,0.05400*%
G04:AMPARAMS|DCode=98|XSize=68.96mil|YSize=68.96mil|CornerRadius=18.24mil|HoleSize=0mil|Usage=FLASHONLY|Rotation=180.000|XOffset=0mil|YOffset=0mil|HoleType=Round|Shape=RoundedRectangle|*
%AMROUNDEDRECTD98*
21,1,0.06896,0.03248,0,0,180.0*
21,1,0.03248,0.06896,0,0,180.0*
1,1,0.03648,-0.01624,0.01624*
1,1,0.03648,0.01624,0.01624*
1,1,0.03648,0.01624,-0.01624*
1,1,0.03648,-0.01624,-0.01624*
%
%ADD98ROUNDEDRECTD98*%
%ADD99C,0.03943*%
G04:AMPARAMS|DCode=100|XSize=49.21mil|YSize=27.56mil|CornerRadius=13.78mil|HoleSize=0mil|Usage=FLASHONLY|Rotation=180.000|XOffset=0mil|YOffset=0mil|HoleType=Round|Shape=RoundedRectangle|*
%AMROUNDEDRECTD100*
21,1,0.04921,0.00000,0,0,180.0*
21,1,0.02165,0.02756,0,0,180.0*
1,1,0.02756,-0.01083,0.00000*
1,1,0.02756,0.01083,0.00000*
1,1,0.02756,0.01083,0.00000*
1,1,0.02756,-0.01083,0.00000*
%
%ADD100ROUNDEDRECTD100*%
G04:AMPARAMS|DCode=101|XSize=23.62mil|YSize=74.8mil|CornerRadius=11.81mil|HoleSize=0mil|Usage=FLASHONLY|Rotation=180.000|XOffset=0mil|YOffset=0mil|HoleType=Round|Shape=RoundedRectangle|*
%AMROUNDEDRECTD101*
21,1,0.02362,0.05118,0,0,180.0*
21,1,0.00000,0.07480,0,0,180.0*
1,1,0.02362,0.00000,0.02559*
1,1,0.02362,0.00000,0.02559*
1,1,0.02362,0.00000,-0.02559*
1,1,0.02362,0.00000,-0.02559*
%
%ADD101ROUNDEDRECTD101*%
G04:AMPARAMS|DCode=102|XSize=27.56mil|YSize=59.06mil|CornerRadius=13.78mil|HoleSize=0mil|Usage=FLASHONLY|Rotation=180.000|XOffset=0mil|YOffset=0mil|HoleType=Round|Shape=RoundedRectangle|*
%AMROUNDEDRECTD102*
21,1,0.02756,0.03150,0,0,180.0*
21,1,0.00000,0.05906,0,0,180.0*
1,1,0.02756,0.00000,0.01575*
1,1,0.02756,0.00000,0.01575*
1,1,0.02756,0.00000,-0.01575*
1,1,0.02756,0.00000,-0.01575*
%
%ADD102ROUNDEDRECTD102*%
G04:AMPARAMS|DCode=103|XSize=65.02mil|YSize=65.02mil|CornerRadius=3.83mil|HoleSize=0mil|Usage=FLASHONLY|Rotation=270.000|XOffset=0mil|YOffset=0mil|HoleType=Round|Shape=RoundedRectangle|*
%AMROUNDEDRECTD103*
21,1,0.06502,0.05736,0,0,270.0*
21,1,0.05736,0.06502,0,0,270.0*
1,1,0.00766,-0.02868,-0.02868*
1,1,0.00766,-0.02868,0.02868*
1,1,0.00766,0.02868,0.02868*
1,1,0.00766,0.02868,-0.02868*
%
%ADD103ROUNDEDRECTD103*%
%ADD104C,0.06502*%
G04:AMPARAMS|DCode=105|XSize=66.93mil|YSize=66.93mil|CornerRadius=2.01mil|HoleSize=0mil|Usage=FLASHONLY|Rotation=0.000|XOffset=0mil|YOffset=0mil|HoleType=Round|Shape=RoundedRectangle|*
%AMROUNDEDRECTD105*
21,1,0.06693,0.06291,0,0,0.0*
21,1,0.06291,0.06693,0,0,0.0*
1,1,0.00402,0.03146,-0.03146*
1,1,0.00402,-0.03146,-0.03146*
1,1,0.00402,-0.03146,0.03146*
1,1,0.00402,0.03146,0.03146*
%
%ADD105ROUNDEDRECTD105*%
%ADD106C,0.06693*%
%ADD107O,0.06896X0.06896*%
G04:AMPARAMS|DCode=133|XSize=31.5mil|YSize=31.5mil|CornerRadius=2.05mil|HoleSize=0mil|Usage=FLASHONLY|Rotation=0.000|XOffset=0mil|YOffset=0mil|HoleType=Round|Shape=RoundedRectangle|*
%AMROUNDEDRECTD133*
21,1,0.03150,0.02740,0,0,0.0*
21,1,0.02740,0.03150,0,0,0.0*
1,1,0.00409,0.01370,-0.01370*
1,1,0.00409,-0.01370,-0.01370*
1,1,0.00409,-0.01370,0.01370*
1,1,0.00409,0.01370,0.01370*
%
%ADD133ROUNDEDRECTD133*%
G04:AMPARAMS|DCode=134|XSize=31.5mil|YSize=31.5mil|CornerRadius=2.05mil|HoleSize=0mil|Usage=FLASHONLY|Rotation=225.000|XOffset=0mil|YOffset=0mil|HoleType=Round|Shape=RoundedRectangle|*
%AMROUNDEDRECTD134*
21,1,0.03150,0.02740,0,0,225.0*
21,1,0.02740,0.03150,0,0,225.0*
1,1,0.00409,-0.01938,0.00000*
1,1,0.00409,0.00000,0.01938*
1,1,0.00409,0.01938,0.00000*
1,1,0.00409,0.00000,-0.01938*
%
%ADD134ROUNDEDRECTD134*%
G04:AMPARAMS|DCode=135|XSize=31.5mil|YSize=31.5mil|CornerRadius=2.05mil|HoleSize=0mil|Usage=FLASHONLY|Rotation=135.000|XOffset=0mil|YOffset=0mil|HoleType=Round|Shape=RoundedRectangle|*
%AMROUNDEDRECTD135*
21,1,0.03150,0.02740,0,0,135.0*
21,1,0.02740,0.03150,0,0,135.0*
1,1,0.00409,0.00000,0.01938*
1,1,0.00409,0.01938,0.00000*
1,1,0.00409,0.00000,-0.01938*
1,1,0.00409,-0.01938,0.00000*
%
%ADD135ROUNDEDRECTD135*%
G04:AMPARAMS|DCode=136|XSize=31.5mil|YSize=55.12mil|CornerRadius=2.05mil|HoleSize=0mil|Usage=FLASHONLY|Rotation=90.000|XOffset=0mil|YOffset=0mil|HoleType=Round|Shape=RoundedRectangle|*
%AMROUNDEDRECTD136*
21,1,0.03150,0.05102,0,0,90.0*
21,1,0.02740,0.05512,0,0,90.0*
1,1,0.00409,0.02551,0.01370*
1,1,0.00409,0.02551,-0.01370*
1,1,0.00409,-0.02551,-0.01370*
1,1,0.00409,-0.02551,0.01370*
%
%ADD136ROUNDEDRECTD136*%
G04:AMPARAMS|DCode=137|XSize=23.62mil|YSize=12.21mil|CornerRadius=1.95mil|HoleSize=0mil|Usage=FLASHONLY|Rotation=180.000|XOffset=0mil|YOffset=0mil|HoleType=Round|Shape=RoundedRectangle|*
%AMROUNDEDRECTD137*
21,1,0.02362,0.00830,0,0,180.0*
21,1,0.01972,0.01221,0,0,180.0*
1,1,0.00391,-0.00986,0.00415*
1,1,0.00391,0.00986,0.00415*
1,1,0.00391,0.00986,-0.00415*
1,1,0.00391,-0.00986,-0.00415*
%
%ADD137ROUNDEDRECTD137*%
%ADD138C,0.05315*%
G04:AMPARAMS|DCode=140|XSize=59.06mil|YSize=17.72mil|CornerRadius=1.95mil|HoleSize=0mil|Usage=FLASHONLY|Rotation=90.000|XOffset=0mil|YOffset=0mil|HoleType=Round|Shape=RoundedRectangle|*
%AMROUNDEDRECTD140*
21,1,0.05906,0.01382,0,0,90.0*
21,1,0.05516,0.01772,0,0,90.0*
1,1,0.00390,0.00691,0.02758*
1,1,0.00390,0.00691,-0.02758*
1,1,0.00390,-0.00691,-0.02758*
1,1,0.00390,-0.00691,0.02758*
%
%ADD140ROUNDEDRECTD140*%
G04:AMPARAMS|DCode=142|XSize=43.31mil|YSize=23.62mil|CornerRadius=2.01mil|HoleSize=0mil|Usage=FLASHONLY|Rotation=180.000|XOffset=0mil|YOffset=0mil|HoleType=Round|Shape=RoundedRectangle|*
%AMROUNDEDRECTD142*
21,1,0.04331,0.01961,0,0,180.0*
21,1,0.03929,0.02362,0,0,180.0*
1,1,0.00402,-0.01965,0.00980*
1,1,0.00402,0.01965,0.00980*
1,1,0.00402,0.01965,-0.00980*
1,1,0.00402,-0.01965,-0.00980*
%
%ADD142ROUNDEDRECTD142*%
G04:AMPARAMS|DCode=144|XSize=19.68mil|YSize=19.68mil|CornerRadius=1.97mil|HoleSize=0mil|Usage=FLASHONLY|Rotation=45.000|XOffset=0mil|YOffset=0mil|HoleType=Round|Shape=RoundedRectangle|*
%AMROUNDEDRECTD144*
21,1,0.01968,0.01575,0,0,45.0*
21,1,0.01575,0.01968,0,0,45.0*
1,1,0.00394,0.01114,0.00000*
1,1,0.00394,0.00000,-0.01114*
1,1,0.00394,-0.01114,0.00000*
1,1,0.00394,0.00000,0.01114*
%
%ADD144ROUNDEDRECTD144*%
G04:AMPARAMS|DCode=147|XSize=54mil|YSize=67mil|CornerRadius=0mil|HoleSize=0mil|Usage=FLASHONLY|Rotation=135.000|XOffset=0mil|YOffset=0mil|HoleType=Round|Shape=Rectangle|*
%AMROTATEDRECTD147*
4,1,4,0.04278,0.00460,-0.00460,-0.04278,-0.04278,-0.00460,0.00460,0.04278,0.04278,0.00460,0.0*
%
%ADD147ROTATEDRECTD147*%

G04:AMPARAMS|DCode=148|XSize=27.62mil|YSize=35.5mil|CornerRadius=0mil|HoleSize=0mil|Usage=FLASHONLY|Rotation=135.000|XOffset=0mil|YOffset=0mil|HoleType=Round|Shape=Rectangle|*
%AMROTATEDRECTD148*
4,1,4,0.02232,0.00278,-0.00278,-0.02232,-0.02232,-0.00278,0.00278,0.02232,0.02232,0.00278,0.0*
%
%ADD148ROTATEDRECTD148*%

%ADD149C,0.01201*%
G36*
X0148052Y0523038D02*
X0148071Y0523038D01*
X0148072Y0523037D01*
X0148073Y0523037D01*
X0148598Y0522969D01*
X0148599Y0522969D01*
X0148600Y0522969D01*
X0148618Y0522965D01*
X0148637Y0522960D01*
X0148638Y0522960D01*
X0148639Y0522960D01*
X0149139Y0522785D01*
X0149140Y0522785D01*
X0149141Y0522784D01*
X0149158Y0522776D01*
X0149175Y0522768D01*
X0149176Y0522768D01*
X0149177Y0522767D01*
X0149630Y0522494D01*
X0149631Y0522493D01*
X0149632Y0522493D01*
X0149647Y0522482D01*
X0149662Y0522471D01*
X0149663Y0522470D01*
X0149664Y0522469D01*
X0150052Y0522109D01*
X0150052Y0522108D01*
X0150053Y0522107D01*
X0150066Y0522093D01*
X0150078Y0522079D01*
X0150078Y0522078D01*
X0150079Y0522077D01*
X0150385Y0521645D01*
X0150386Y0521644D01*
X0150387Y0521643D01*
X0150396Y0521627D01*
X0150405Y0521611D01*
X0150405Y0521610D01*
X0150406Y0521609D01*
X0150617Y0521123D01*
X0150617Y0521122D01*
X0150618Y0521121D01*
X0150623Y0521103D01*
X0150629Y0521085D01*
X0150629Y0521084D01*
X0150629Y0521083D01*
X0150736Y0520564D01*
X0150736Y0520563D01*
X0150737Y0520562D01*
X0150739Y0520544D01*
X0150741Y0520525D01*
X0150740Y0520524D01*
X0150741Y0520523D01*
X0150740Y0520258D01*
D01*
X0150740Y0513960D01*
X0150740Y0513568D01*
X0150736Y0513529D01*
X0150724Y0513491D01*
X0150425Y0512768D01*
X0150406Y0512733D01*
X0150381Y0512702D01*
X0149827Y0512149D01*
X0149797Y0512124D01*
X0149762Y0512105D01*
X0149762Y0512105D01*
X0149039Y0511805D01*
X0149001Y0511794D01*
X0148962Y0511790D01*
D01*
X0148962D01*
X0148570Y0511790D01*
X0148570Y0511790D01*
X0147389D01*
X0146997Y0511790D01*
D01*
X0146997D01*
X0146958Y0511794D01*
X0146921Y0511805D01*
X0146197Y0512105D01*
X0146162Y0512124D01*
X0146132Y0512149D01*
X0145578Y0512702D01*
X0145553Y0512733D01*
X0145535Y0512768D01*
X0145235Y0513491D01*
X0145223Y0513529D01*
X0145220Y0513568D01*
Y0513959D01*
X0145220Y0513960D01*
X0145220Y0520258D01*
X0145218Y0520743D01*
X0145220Y0520760D01*
X0145221Y0520778D01*
X0145222Y0520780D01*
X0145222Y0520782D01*
X0145227Y0520798D01*
X0145232Y0520816D01*
X0145583Y0521719D01*
X0145591Y0521735D01*
X0145599Y0521751D01*
X0145600Y0521752D01*
X0145601Y0521754D01*
X0145612Y0521768D01*
X0145623Y0521782D01*
X0146280Y0522494D01*
X0146293Y0522506D01*
X0146307Y0522518D01*
X0146308Y0522519D01*
X0146310Y0522520D01*
X0146325Y0522530D01*
X0146340Y0522539D01*
X0147212Y0522961D01*
X0147229Y0522967D01*
X0147246Y0522974D01*
X0147247Y0522974D01*
X0147249Y0522975D01*
X0147267Y0522978D01*
X0147284Y0522981D01*
X0147767Y0523018D01*
X0147767D01*
X0148031Y0523038D01*
X0148032Y0523038D01*
X0148033Y0523039D01*
X0148052Y0523038D01*
D02*
G37*
G36*
X0193990Y0523038D02*
X0193991Y0523038D01*
X0194255Y0523018D01*
X0194255D01*
X0194738Y0522981D01*
X0194756Y0522978D01*
X0194773Y0522975D01*
X0194775Y0522974D01*
X0194777Y0522974D01*
X0194793Y0522967D01*
X0194810Y0522961D01*
X0195682Y0522539D01*
X0195697Y0522530D01*
X0195713Y0522520D01*
X0195714Y0522519D01*
X0195716Y0522518D01*
X0195729Y0522506D01*
X0195742Y0522494D01*
X0196399Y0521782D01*
X0196410Y0521768D01*
X0196421Y0521754D01*
X0196422Y0521752D01*
X0196423Y0521751D01*
X0196431Y0521735D01*
X0196439Y0521719D01*
X0196790Y0520816D01*
X0196795Y0520798D01*
X0196800Y0520782D01*
X0196800Y0520780D01*
X0196801Y0520778D01*
X0196802Y0520760D01*
X0196804Y0520743D01*
X0196803Y0520258D01*
Y0513960D01*
Y0513568D01*
X0196799Y0513529D01*
X0196787Y0513491D01*
X0196488Y0512768D01*
X0196469Y0512733D01*
X0196444Y0512702D01*
X0195890Y0512149D01*
X0195860Y0512124D01*
X0195825Y0512105D01*
X0195102Y0511805D01*
X0195064Y0511794D01*
X0195025Y0511790D01*
D01*
X0195025D01*
X0194633Y0511790D01*
X0193452D01*
X0193452Y0511790D01*
X0193061Y0511790D01*
X0193021Y0511794D01*
X0192984Y0511805D01*
X0192260Y0512105D01*
X0192225Y0512124D01*
X0192195Y0512149D01*
X0191641Y0512702D01*
X0191616Y0512733D01*
X0191598Y0512768D01*
X0191298Y0513491D01*
X0191287Y0513529D01*
X0191283Y0513568D01*
Y0513568D01*
D01*
X0191283Y0513960D01*
X0191283Y0520259D01*
X0191283Y0520259D01*
X0191282Y0520523D01*
X0191282Y0520524D01*
X0191282Y0520525D01*
X0191284Y0520544D01*
X0191286Y0520562D01*
X0191286Y0520563D01*
X0191286Y0520564D01*
X0191393Y0521083D01*
X0191393Y0521084D01*
X0191393Y0521085D01*
X0191399Y0521103D01*
X0191405Y0521121D01*
X0191405Y0521122D01*
X0191405Y0521123D01*
X0191617Y0521609D01*
X0191617Y0521610D01*
X0191617Y0521611D01*
X0191627Y0521627D01*
X0191636Y0521643D01*
X0191636Y0521644D01*
X0191637Y0521645D01*
X0191943Y0522077D01*
X0191944Y0522078D01*
X0191944Y0522079D01*
X0191956Y0522093D01*
X0191969Y0522107D01*
X0191970Y0522108D01*
X0191970Y0522109D01*
X0192359Y0522469D01*
X0192359Y0522470D01*
X0192360Y0522471D01*
X0192375Y0522482D01*
X0192390Y0522493D01*
X0192391Y0522493D01*
X0192392Y0522494D01*
X0192846Y0522767D01*
X0192847Y0522768D01*
X0192848Y0522768D01*
X0192864Y0522776D01*
X0192881Y0522784D01*
X0192882Y0522785D01*
X0192883Y0522785D01*
X0193384Y0522960D01*
X0193385Y0522960D01*
X0193386Y0522960D01*
X0193404Y0522965D01*
X0193422Y0522969D01*
X0193423Y0522969D01*
X0193424Y0522969D01*
X0193949Y0523037D01*
X0193950Y0523037D01*
X0193951Y0523038D01*
X0193970Y0523038D01*
X0193989Y0523039D01*
X0193990Y0523038D01*
D02*
G37*
G36*
X0189357Y0501793D02*
X0190022Y0501128D01*
X0190381Y0500260D01*
X0190381Y0499790D01*
X0190381Y0495066D01*
X0190381Y0495066D01*
X0190381Y0494596D01*
X0190022Y0493728D01*
X0189357Y0493063D01*
X0188489Y0492704D01*
X0188019Y0492704D01*
X0187549Y0492704D01*
X0186681Y0493063D01*
X0186016Y0493728D01*
X0185657Y0494596D01*
X0185657Y0495066D01*
X0185657Y0497822D01*
X0185279Y0497892D01*
X0184618Y0498282D01*
X0184131Y0498877D01*
X0183879Y0499603D01*
X0183885Y0499987D01*
X0183885Y0500418D01*
X0184215Y0501214D01*
X0184824Y0501823D01*
X0185620Y0502152D01*
X0186050Y0502152D01*
X0188019D01*
X0188489Y0502152D01*
X0189357Y0501793D01*
D02*
G37*
G36*
X0157198Y0501823D02*
X0157808Y0501214D01*
X0158137Y0500418D01*
X0158137Y0499987D01*
X0158143Y0499603D01*
X0157891Y0498877D01*
X0157405Y0498282D01*
X0156743Y0497892D01*
X0156366Y0497822D01*
X0156366Y0497822D01*
Y0495066D01*
X0156366Y0494596D01*
X0156006Y0493728D01*
X0155341Y0493063D01*
X0154473Y0492704D01*
X0154003Y0492704D01*
X0153533D01*
X0152665Y0493063D01*
X0152001Y0493728D01*
X0151641Y0494596D01*
X0151641Y0495066D01*
Y0499790D01*
X0151641Y0500260D01*
X0152001Y0501128D01*
X0152665Y0501793D01*
X0153533Y0502152D01*
X0154003Y0502152D01*
X0155972D01*
X0156403Y0502152D01*
X0157198Y0501823D01*
D02*
G37*
G36*
X0161303Y0426901D02*
X0161815Y0426901D01*
X0161854D01*
X0161927Y0426871D01*
X0161982Y0426816D01*
X0162012Y0426743D01*
Y0426704D01*
X0162012D01*
Y0423850D01*
X0162016Y0423811D01*
X0162045Y0423740D01*
X0162099Y0423686D01*
X0162170Y0423657D01*
X0162209Y0423653D01*
X0162209D01*
X0163036Y0423653D01*
X0163075Y0423653D01*
X0163147Y0423623D01*
X0163202Y0423568D01*
X0163232Y0423495D01*
X0163232Y0423456D01*
X0163232Y0423456D01*
X0163232Y0416960D01*
Y0416921D01*
X0163202Y0416849D01*
X0163147Y0416793D01*
X0163075Y0416763D01*
X0163036D01*
X0162209Y0416763D01*
X0162170Y0416759D01*
X0162099Y0416730D01*
X0162045Y0416676D01*
X0162016Y0416605D01*
X0162012Y0416566D01*
X0162012Y0413712D01*
Y0413673D01*
X0161982Y0413601D01*
X0161927Y0413545D01*
X0161854Y0413515D01*
X0161815D01*
X0161303Y0413515D01*
X0161264Y0413515D01*
X0161192Y0413545D01*
X0161136Y0413601D01*
X0161106Y0413673D01*
X0161106Y0413712D01*
Y0413712D01*
Y0416566D01*
X0161103Y0416605D01*
X0161073Y0416676D01*
X0161019Y0416730D01*
X0160948Y0416759D01*
X0160909Y0416763D01*
X0160909Y0416763D01*
X0159650Y0416763D01*
X0159611Y0416759D01*
X0159540Y0416730D01*
X0159486Y0416676D01*
X0159457Y0416605D01*
X0159453Y0416566D01*
Y0416566D01*
X0159453Y0413712D01*
X0159453Y0413673D01*
X0159423Y0413601D01*
X0159368Y0413545D01*
X0159295Y0413515D01*
X0159256D01*
X0159256Y0413515D01*
X0158705D01*
X0158633Y0413545D01*
X0158577Y0413601D01*
X0158547Y0413673D01*
Y0413712D01*
Y0413712D01*
X0158547Y0416566D01*
X0158544Y0416605D01*
X0158514Y0416676D01*
X0158460Y0416730D01*
X0158389Y0416759D01*
X0158351Y0416763D01*
X0158351Y0416763D01*
X0157485D01*
X0157412Y0416793D01*
X0157357Y0416849D01*
X0157327Y0416921D01*
Y0416960D01*
X0157327Y0416960D01*
X0157327Y0423456D01*
Y0423495D01*
X0157357Y0423568D01*
X0157412Y0423623D01*
X0157485Y0423653D01*
X0157524D01*
Y0423653D01*
X0158351D01*
X0158389Y0423657D01*
X0158460Y0423686D01*
X0158514Y0423740D01*
X0158544Y0423811D01*
X0158547Y0423850D01*
X0158547Y0423850D01*
Y0426704D01*
Y0426743D01*
X0158577Y0426816D01*
X0158633Y0426871D01*
X0158705Y0426901D01*
X0158744D01*
X0158744Y0426901D01*
X0159256Y0426901D01*
X0159295D01*
X0159368Y0426871D01*
X0159423Y0426816D01*
X0159453Y0426743D01*
Y0426704D01*
X0159453D01*
Y0423850D01*
X0159457Y0423811D01*
X0159486Y0423740D01*
X0159540Y0423686D01*
X0159611Y0423657D01*
X0159650Y0423653D01*
X0160909D01*
X0160948Y0423657D01*
X0161019Y0423686D01*
X0161073Y0423740D01*
X0161103Y0423811D01*
X0161106Y0423850D01*
X0161106D01*
Y0426704D01*
X0161106Y0426743D01*
X0161136Y0426816D01*
X0161192Y0426871D01*
X0161264Y0426901D01*
X0161303Y0426901D01*
D02*
G37*
G54D20*
X0127180Y0073307D02*
Y0067309D01*
X0130179D01*
X0131178Y0068309D01*
Y0069308D01*
X0130179Y0070308D01*
X0127180D01*
X0130179D01*
X0131178Y0071307D01*
Y0072307D01*
X0130179Y0073307D01*
X0127180D01*
X0134177Y0067309D02*
X0136177D01*
X0137176Y0068309D01*
Y0070308D01*
X0136177Y0071307D01*
X0134177D01*
X0133178Y0070308D01*
Y0068309D01*
X0134177Y0067309D01*
X0140175Y0072307D02*
Y0071307D01*
X0139176D01*
X0141175D01*
X0140175D01*
Y0068309D01*
X0141175Y0067309D01*
X0145174Y0072307D02*
Y0071307D01*
X0144174D01*
X0146174D01*
X0145174D01*
Y0068309D01*
X0146174Y0067309D01*
X0150172D02*
X0152172D01*
X0153171Y0068309D01*
Y0070308D01*
X0152172Y0071307D01*
X0150172D01*
X0149172Y0070308D01*
Y0068309D01*
X0150172Y0067309D01*
X0155171D02*
Y0071307D01*
X0156170D01*
X0157170Y0070308D01*
Y0067309D01*
Y0070308D01*
X0158170Y0071307D01*
X0159169Y0070308D01*
Y0067309D01*
X0171165Y0072307D02*
X0170166Y0073307D01*
X0168166D01*
X0167167Y0072307D01*
Y0071307D01*
X0168166Y0070308D01*
X0170166D01*
X0171165Y0069308D01*
Y0068309D01*
X0170166Y0067309D01*
X0168166D01*
X0167167Y0068309D01*
X0174164Y0067309D02*
X0176164D01*
X0177164Y0068309D01*
Y0070308D01*
X0176164Y0071307D01*
X0174164D01*
X0173165Y0070308D01*
Y0068309D01*
X0174164Y0067309D01*
X0179163D02*
X0181162D01*
X0180163D01*
Y0073307D01*
X0179163D01*
X0188160D02*
Y0067309D01*
X0185161D01*
X0184161Y0068309D01*
Y0070308D01*
X0185161Y0071307D01*
X0188160D01*
X0193158Y0067309D02*
X0191159D01*
X0190159Y0068309D01*
Y0070308D01*
X0191159Y0071307D01*
X0193158D01*
X0194158Y0070308D01*
Y0069308D01*
X0190159D01*
X0196157Y0071307D02*
Y0067309D01*
Y0069308D01*
X0197157Y0070308D01*
X0198157Y0071307D01*
X0199156D01*
X0567280Y0087441D02*
Y0093440D01*
X0571278Y0087441D01*
Y0093440D01*
X0574277Y0087441D02*
X0576277D01*
X0577276Y0088441D01*
Y0090440D01*
X0576277Y0091440D01*
X0574277D01*
X0573278Y0090440D01*
Y0088441D01*
X0574277Y0087441D01*
X0580275Y0092440D02*
Y0091440D01*
X0579276D01*
X0581275D01*
X0580275D01*
Y0088441D01*
X0581275Y0087441D01*
X0590272D02*
X0592272D01*
X0591272D01*
Y0091440D01*
X0590272D01*
X0595271Y0087441D02*
Y0091440D01*
X0598270D01*
X0599269Y0090440D01*
Y0087441D01*
X0607267Y0091440D02*
X0609266Y0087441D01*
X0611265Y0091440D01*
X0616264Y0087441D02*
X0614264D01*
X0613265Y0088441D01*
Y0090440D01*
X0614264Y0091440D01*
X0616264D01*
X0617264Y0090440D01*
Y0089441D01*
X0613265D01*
X0619263Y0091440D02*
Y0087441D01*
Y0089441D01*
X0620262Y0090440D01*
X0621262Y0091440D01*
X0622262D01*
X0625261Y0087441D02*
X0628260D01*
X0629260Y0088441D01*
X0628260Y0089441D01*
X0626261D01*
X0625261Y0090440D01*
X0626261Y0091440D01*
X0629260D01*
X0631259Y0087441D02*
X0633258D01*
X0632259D01*
Y0091440D01*
X0631259D01*
X0637257Y0087441D02*
X0639256D01*
X0640256Y0088441D01*
Y0090440D01*
X0639256Y0091440D01*
X0637257D01*
X0636257Y0090440D01*
Y0088441D01*
X0637257Y0087441D01*
X0642255D02*
Y0091440D01*
X0645254D01*
X0646254Y0090440D01*
Y0087441D01*
X0658250Y0091440D02*
X0655251D01*
X0654251Y0090440D01*
Y0088441D01*
X0655251Y0087441D01*
X0658250D01*
X0661249D02*
X0663249D01*
X0664248Y0088441D01*
Y0090440D01*
X0663249Y0091440D01*
X0661249D01*
X0660250Y0090440D01*
Y0088441D01*
X0661249Y0087441D01*
X0666248D02*
Y0091440D01*
X0669247D01*
X0670246Y0090440D01*
Y0087441D01*
X0673245Y0092440D02*
Y0091440D01*
X0672246D01*
X0674245D01*
X0673245D01*
Y0088441D01*
X0674245Y0087441D01*
X0677244Y0091440D02*
Y0087441D01*
Y0089441D01*
X0678244Y0090440D01*
X0679243Y0091440D01*
X0680243D01*
X0684242Y0087441D02*
X0686241D01*
X0687241Y0088441D01*
Y0090440D01*
X0686241Y0091440D01*
X0684242D01*
X0683242Y0090440D01*
Y0088441D01*
X0684242Y0087441D01*
X0689240D02*
X0691240D01*
X0690240D01*
Y0093440D01*
X0689240D01*
X0520678Y0092440D02*
X0519679Y0093440D01*
X0517679D01*
X0516680Y0092440D01*
Y0091440D01*
X0517679Y0090440D01*
X0519679D01*
X0520678Y0089441D01*
Y0088441D01*
X0519679Y0087441D01*
X0517679D01*
X0516680Y0088441D01*
X0522678Y0093440D02*
Y0089441D01*
X0524677Y0087441D01*
X0526676Y0089441D01*
Y0093440D01*
X0528676Y0087441D02*
Y0093440D01*
X0532675Y0087441D01*
Y0093440D01*
X0540672Y0087441D02*
Y0093440D01*
X0543671D01*
X0544671Y0092440D01*
Y0090440D01*
X0543671Y0089441D01*
X0540672D01*
X0542671D02*
X0544671Y0087441D01*
X0550669Y0093440D02*
X0546670D01*
Y0087441D01*
X0550669D01*
X0546670Y0090440D02*
X0548669D01*
X0552668Y0093440D02*
Y0089441D01*
X0554667Y0087441D01*
X0556667Y0089441D01*
Y0093440D01*
X0558666Y0091440D02*
X0559666D01*
Y0090440D01*
X0558666D01*
Y0091440D01*
Y0088441D02*
X0559666D01*
Y0087441D01*
X0558666D01*
Y0088441D01*
X0432880Y0087441D02*
Y0093440D01*
X0435879D01*
X0436878Y0092440D01*
Y0090440D01*
X0435879Y0089441D01*
X0432880D01*
X0434879D02*
X0436878Y0087441D01*
X0442876Y0093440D02*
X0438878D01*
Y0087441D01*
X0442876D01*
X0438878Y0090440D02*
X0440877D01*
X0444876Y0093440D02*
Y0089441D01*
X0446875Y0087441D01*
X0448875Y0089441D01*
Y0093440D01*
X0450874Y0091440D02*
X0451873D01*
Y0090440D01*
X0450874D01*
Y0091440D01*
Y0088441D02*
X0451873D01*
Y0087441D01*
X0450874D01*
Y0088441D01*
X0126780Y0046575D02*
Y0052573D01*
X0128779Y0050573D01*
X0130778Y0052573D01*
Y0046575D01*
X0136776Y0051573D02*
X0135777Y0052573D01*
X0133777D01*
X0132778Y0051573D01*
Y0047574D01*
X0133777Y0046575D01*
X0135777D01*
X0136776Y0047574D01*
X0138776Y0052573D02*
Y0047574D01*
X0139775Y0046575D01*
X0141775D01*
X0142774Y0047574D01*
Y0052573D01*
X0144774Y0046575D02*
X0146773D01*
X0145773D01*
Y0052573D01*
X0144774Y0051573D01*
X0153771Y0052573D02*
X0149772D01*
Y0049574D01*
X0151772Y0050573D01*
X0152771D01*
X0153771Y0049574D01*
Y0047574D01*
X0152771Y0046575D01*
X0150772D01*
X0149772Y0047574D01*
X0159769Y0046575D02*
X0155770D01*
X0159769Y0050573D01*
Y0051573D01*
X0158769Y0052573D01*
X0156770D01*
X0155770Y0051573D01*
X0161768Y0046575D02*
Y0050573D01*
X0163768Y0052573D01*
X0165767Y0050573D01*
Y0046575D01*
Y0049574D01*
X0161768D01*
X0167766Y0046575D02*
Y0047574D01*
X0168766D01*
Y0046575D01*
X0167766D01*
X0176763Y0051573D02*
X0175764Y0052573D01*
X0173764D01*
X0172765Y0051573D01*
Y0047574D01*
X0173764Y0046575D01*
X0175764D01*
X0176763Y0047574D01*
Y0049574D01*
X0174764D01*
X0178763Y0052573D02*
Y0046575D01*
X0181762D01*
X0182762Y0047574D01*
Y0048574D01*
X0181762Y0049574D01*
X0178763D01*
X0181762D01*
X0182762Y0050573D01*
Y0051573D01*
X0181762Y0052573D01*
X0178763D01*
X0188760Y0051573D02*
X0187760Y0052573D01*
X0185761D01*
X0184761Y0051573D01*
Y0050573D01*
X0185761Y0049574D01*
X0187760D01*
X0188760Y0048574D01*
Y0047574D01*
X0187760Y0046575D01*
X0185761D01*
X0184761Y0047574D01*
X0381030Y0052573D02*
X0385028D01*
Y0051573D01*
X0381030Y0047574D01*
Y0046575D01*
X0387028D02*
X0391026Y0050573D01*
X0397024Y0046575D02*
X0393026D01*
X0397024Y0050573D01*
Y0051573D01*
X0396025Y0052573D01*
X0394025D01*
X0393026Y0051573D01*
X0399024Y0046575D02*
X0401023D01*
X0400024D01*
Y0052573D01*
X0399024Y0051573D01*
X0404022Y0046575D02*
X0408021Y0050573D01*
X0414019Y0046575D02*
X0410020D01*
X0414019Y0050573D01*
Y0051573D01*
X0413019Y0052573D01*
X0411020D01*
X0410020Y0051573D01*
X0416018D02*
X0417018Y0052573D01*
X0419017D01*
X0420017Y0051573D01*
Y0047574D01*
X0419017Y0046575D01*
X0417018D01*
X0416018Y0047574D01*
Y0051573D01*
X0426015Y0046575D02*
X0422016D01*
X0426015Y0050573D01*
Y0051573D01*
X0425015Y0052573D01*
X0423016D01*
X0422016Y0051573D01*
X0432013Y0052573D02*
X0428014D01*
Y0049574D01*
X0430014Y0050573D01*
X0431013D01*
X0432013Y0049574D01*
Y0047574D01*
X0431013Y0046575D01*
X0429014D01*
X0428014Y0047574D01*
X0298078Y0051573D02*
X0297079Y0052573D01*
X0295079D01*
X0294080Y0051573D01*
Y0047574D01*
X0295079Y0046575D01*
X0297079D01*
X0298078Y0047574D01*
Y0049574D01*
X0296079D01*
X0304076Y0052573D02*
X0300078D01*
Y0046575D01*
X0304076D01*
X0300078Y0049574D02*
X0302077D01*
X0306076Y0046575D02*
Y0052573D01*
X0310074Y0046575D01*
Y0052573D01*
X0316073D02*
X0312074D01*
Y0046575D01*
X0316073D01*
X0312074Y0049574D02*
X0314073D01*
X0318072Y0046575D02*
Y0052573D01*
X0321071D01*
X0322071Y0051573D01*
Y0049574D01*
X0321071Y0048574D01*
X0318072D01*
X0320071D02*
X0322071Y0046575D01*
X0324070D02*
Y0050573D01*
X0326069Y0052573D01*
X0328069Y0050573D01*
Y0046575D01*
Y0049574D01*
X0324070D01*
X0330068Y0052573D02*
X0334067D01*
X0332067D01*
Y0046575D01*
X0340065Y0052573D02*
X0336066D01*
Y0046575D01*
X0340065D01*
X0336066Y0049574D02*
X0338065D01*
X0342064Y0052573D02*
Y0046575D01*
X0345063D01*
X0346063Y0047574D01*
Y0051573D01*
X0345063Y0052573D01*
X0342064D01*
X0372054Y0050573D02*
X0373054D01*
Y0049574D01*
X0372054D01*
Y0050573D01*
Y0047574D02*
X0373054D01*
Y0046575D01*
X0372054D01*
Y0047574D01*
X0046230Y0087441D02*
Y0091440D01*
X0048229Y0093440D01*
X0050228Y0091440D01*
Y0087441D01*
Y0090440D01*
X0046230D01*
X0052228Y0093440D02*
Y0087441D01*
X0056226D01*
X0058226Y0093440D02*
Y0087441D01*
X0062225D01*
X0070222D02*
Y0091440D01*
X0072221Y0093440D01*
X0074221Y0091440D01*
Y0087441D01*
Y0090440D01*
X0070222D01*
X0076220Y0087441D02*
Y0093440D01*
X0079219D01*
X0080219Y0092440D01*
Y0090440D01*
X0079219Y0089441D01*
X0076220D01*
X0078219D02*
X0080219Y0087441D01*
X0082218Y0093440D02*
X0086217D01*
X0084217D01*
Y0087441D01*
X0088216Y0093440D02*
Y0087441D01*
X0090215Y0089441D01*
X0092215Y0087441D01*
Y0093440D01*
X0097213D02*
X0095214D01*
X0094214Y0092440D01*
Y0088441D01*
X0095214Y0087441D01*
X0097213D01*
X0098213Y0088441D01*
Y0092440D01*
X0097213Y0093440D01*
X0100212Y0087441D02*
Y0093440D01*
X0103211D01*
X0104211Y0092440D01*
Y0090440D01*
X0103211Y0089441D01*
X0100212D01*
X0102211D02*
X0104211Y0087441D01*
X0106210Y0093440D02*
Y0087441D01*
Y0089441D01*
X0110209Y0093440D01*
X0107210Y0090440D01*
X0110209Y0087441D01*
X0118206Y0093440D02*
Y0089441D01*
X0120206Y0087441D01*
X0122205Y0089441D01*
Y0093440D01*
X0124204D02*
X0126204D01*
X0125204D01*
Y0087441D01*
X0124204D01*
X0126204D01*
X0133202Y0093440D02*
X0129203D01*
Y0087441D01*
X0133202D01*
X0129203Y0090440D02*
X0131202D01*
X0135201Y0093440D02*
Y0087441D01*
X0137200Y0089441D01*
X0139200Y0087441D01*
Y0093440D01*
X0145198D02*
X0141199D01*
Y0087441D01*
X0145198D01*
X0141199Y0090440D02*
X0143198D01*
X0147197Y0093440D02*
Y0087441D01*
X0150196D01*
X0151196Y0088441D01*
Y0092440D01*
X0150196Y0093440D01*
X0147197D01*
X0163192D02*
X0159193D01*
Y0090440D01*
X0161193D01*
X0159193D01*
Y0087441D01*
X0165191D02*
Y0093440D01*
X0168190D01*
X0169190Y0092440D01*
Y0090440D01*
X0168190Y0089441D01*
X0165191D01*
X0167191D02*
X0169190Y0087441D01*
X0174188Y0093440D02*
X0172189D01*
X0171189Y0092440D01*
Y0088441D01*
X0172189Y0087441D01*
X0174188D01*
X0175188Y0088441D01*
Y0092440D01*
X0174188Y0093440D01*
X0177187Y0087441D02*
Y0093440D01*
X0179187Y0091440D01*
X0181186Y0093440D01*
Y0087441D01*
X0189183Y0093440D02*
X0193182D01*
X0191183D01*
Y0087441D01*
X0198180Y0093440D02*
X0196181D01*
X0195182Y0092440D01*
Y0088441D01*
X0196181Y0087441D01*
X0198180D01*
X0199180Y0088441D01*
Y0092440D01*
X0198180Y0093440D01*
X0201180Y0087441D02*
Y0093440D01*
X0204179D01*
X0205178Y0092440D01*
Y0090440D01*
X0204179Y0089441D01*
X0201180D01*
X0217174Y0092440D02*
X0216175Y0093440D01*
X0214175D01*
X0213176Y0092440D01*
Y0091440D01*
X0214175Y0090440D01*
X0216175D01*
X0217174Y0089441D01*
Y0088441D01*
X0216175Y0087441D01*
X0214175D01*
X0213176Y0088441D01*
X0219174Y0093440D02*
X0221173D01*
X0220173D01*
Y0087441D01*
X0219174D01*
X0221173D01*
X0224172Y0093440D02*
Y0087441D01*
X0227171D01*
X0228171Y0088441D01*
Y0092440D01*
X0227171Y0093440D01*
X0224172D01*
X0234169D02*
X0230170D01*
Y0087441D01*
X0234169D01*
X0230170Y0090440D02*
X0232170D01*
X0462030Y0087441D02*
Y0091440D01*
X0464029Y0093440D01*
X0466028Y0091440D01*
Y0087441D01*
Y0090440D01*
X0462030D01*
X0348430Y0087441D02*
Y0093440D01*
X0350429Y0091440D01*
X0352428Y0093440D01*
Y0087441D01*
X0358426Y0092440D02*
X0357427Y0093440D01*
X0355427D01*
X0354428Y0092440D01*
Y0088441D01*
X0355427Y0087441D01*
X0357427D01*
X0358426Y0088441D01*
X0360426Y0093440D02*
Y0088441D01*
X0361425Y0087441D01*
X0363425D01*
X0364424Y0088441D01*
Y0093440D01*
X0366424Y0087441D02*
X0368423D01*
X0367424D01*
Y0093440D01*
X0366424Y0092440D01*
X0375421Y0093440D02*
X0371422D01*
Y0090440D01*
X0373422Y0091440D01*
X0374421D01*
X0375421Y0090440D01*
Y0088441D01*
X0374421Y0087441D01*
X0372422D01*
X0371422Y0088441D01*
X0381419Y0087441D02*
X0377420D01*
X0381419Y0091440D01*
Y0092440D01*
X0380419Y0093440D01*
X0378420D01*
X0377420Y0092440D01*
X0293880Y0093440D02*
Y0087441D01*
X0296879D01*
X0297878Y0088441D01*
Y0089441D01*
X0296879Y0090440D01*
X0293880D01*
X0296879D01*
X0297878Y0091440D01*
Y0092440D01*
X0296879Y0093440D01*
X0293880D01*
X0302877D02*
X0300877D01*
X0299878Y0092440D01*
Y0088441D01*
X0300877Y0087441D01*
X0302877D01*
X0303876Y0088441D01*
Y0092440D01*
X0302877Y0093440D01*
X0305876Y0087441D02*
Y0091440D01*
X0307875Y0093440D01*
X0309875Y0091440D01*
Y0087441D01*
Y0090440D01*
X0305876D01*
X0311874Y0087441D02*
Y0093440D01*
X0314873D01*
X0315873Y0092440D01*
Y0090440D01*
X0314873Y0089441D01*
X0311874D01*
X0313873D02*
X0315873Y0087441D01*
X0317872Y0093440D02*
Y0087441D01*
X0320871D01*
X0321871Y0088441D01*
Y0092440D01*
X0320871Y0093440D01*
X0317872D01*
X0330868Y0087441D02*
Y0093440D01*
X0332867D02*
Y0087441D01*
X0329868Y0091440D02*
X0332867D01*
X0333867D01*
X0329868Y0089441D02*
X0333867D01*
X0335866Y0091440D02*
X0336866D01*
Y0090440D01*
X0335866D01*
Y0091440D01*
Y0088441D02*
X0336866D01*
Y0087441D01*
X0335866D01*
Y0088441D01*
X0046230Y0073157D02*
Y0067159D01*
X0050228D01*
X0052228D02*
Y0071157D01*
X0054227Y0073157D01*
X0056226Y0071157D01*
Y0067159D01*
Y0070158D01*
X0052228D01*
X0058226Y0073157D02*
Y0072157D01*
X0060225Y0070158D01*
X0062225Y0072157D01*
Y0073157D01*
X0060225Y0070158D02*
Y0067159D01*
X0068222Y0073157D02*
X0064224D01*
Y0067159D01*
X0068222D01*
X0064224Y0070158D02*
X0066223D01*
X0070222Y0067159D02*
Y0073157D01*
X0073221D01*
X0074221Y0072157D01*
Y0070158D01*
X0073221Y0069158D01*
X0070222D01*
X0072221D02*
X0074221Y0067159D01*
X0082218D02*
Y0073157D01*
X0086217Y0067159D01*
Y0073157D01*
X0088216Y0067159D02*
Y0071157D01*
X0090215Y0073157D01*
X0092215Y0071157D01*
Y0067159D01*
Y0070158D01*
X0088216D01*
X0094214Y0067159D02*
Y0073157D01*
X0096214Y0071157D01*
X0098213Y0073157D01*
Y0067159D01*
X0104211Y0073157D02*
X0100212D01*
Y0067159D01*
X0104211D01*
X0100212Y0070158D02*
X0102211D01*
X0112208Y0069158D02*
X0116207D01*
X0112208Y0071157D02*
X0116207D01*
X0046230Y0046575D02*
Y0052573D01*
X0049229D01*
X0050228Y0051573D01*
Y0049574D01*
X0049229Y0048574D01*
X0046230D01*
X0052228Y0052573D02*
Y0046575D01*
X0056226D01*
X0061225Y0052573D02*
X0059225D01*
X0058226Y0051573D01*
Y0047574D01*
X0059225Y0046575D01*
X0061225D01*
X0062225Y0047574D01*
Y0051573D01*
X0061225Y0052573D01*
X0064224D02*
X0068222D01*
X0066223D01*
Y0046575D01*
X0076220D02*
Y0052573D01*
X0080219Y0046575D01*
Y0052573D01*
X0082218Y0046575D02*
Y0050573D01*
X0084217Y0052573D01*
X0086217Y0050573D01*
Y0046575D01*
Y0049574D01*
X0082218D01*
X0088216Y0046575D02*
Y0052573D01*
X0090215Y0050573D01*
X0092215Y0052573D01*
Y0046575D01*
X0098213Y0052573D02*
X0094214D01*
Y0046575D01*
X0098213D01*
X0094214Y0049574D02*
X0096214D01*
X0106210Y0048574D02*
X0110209D01*
X0106210Y0050573D02*
X0110209D01*
X0456929Y0046575D02*
Y0052573D01*
X0453930Y0049574D01*
X0457928D01*
X0459928Y0050573D02*
X0460927D01*
Y0049574D01*
X0459928D01*
Y0050573D01*
Y0047574D02*
X0460927D01*
Y0046575D01*
X0459928D01*
Y0047574D01*
X0464926Y0051573D02*
X0465926Y0052573D01*
X0467925D01*
X0468925Y0051573D01*
Y0050573D01*
X0467925Y0049574D01*
X0466925D01*
X0467925D01*
X0468925Y0048574D01*
Y0047574D01*
X0467925Y0046575D01*
X0465926D01*
X0464926Y0047574D01*
X0470924Y0051573D02*
X0471924Y0052573D01*
X0473923D01*
X0474923Y0051573D01*
Y0047574D01*
X0473923Y0046575D01*
X0471924D01*
X0470924Y0047574D01*
Y0051573D01*
X0476922Y0050573D02*
X0477922D01*
Y0049574D01*
X0476922D01*
Y0050573D01*
Y0047574D02*
X0477922D01*
Y0046575D01*
X0476922D01*
Y0047574D01*
X0485919Y0052573D02*
X0481921D01*
Y0049574D01*
X0483920Y0050573D01*
X0484920D01*
X0485919Y0049574D01*
Y0047574D01*
X0484920Y0046575D01*
X0482920D01*
X0481921Y0047574D01*
X0487919Y0052573D02*
X0491917D01*
Y0051573D01*
X0487919Y0047574D01*
Y0046575D01*
X0499915D02*
Y0052573D01*
X0502914D01*
X0503913Y0051573D01*
Y0049574D01*
X0502914Y0048574D01*
X0499915D01*
X0505913Y0046575D02*
Y0052573D01*
X0507912Y0050573D01*
X0509911Y0052573D01*
Y0046575D01*
X0580380Y0052573D02*
X0584378D01*
X0582379D01*
Y0046575D01*
X0590376Y0052573D02*
X0586378D01*
Y0046575D01*
X0590376D01*
X0586378Y0049574D02*
X0588377D01*
X0592376Y0052573D02*
X0596375Y0046575D01*
Y0052573D02*
X0592376Y0046575D01*
X0598374D02*
Y0050573D01*
X0600373Y0052573D01*
X0602373Y0050573D01*
Y0046575D01*
Y0049574D01*
X0598374D01*
X0608371Y0051573D02*
X0607371Y0052573D01*
X0605372D01*
X0604372Y0051573D01*
Y0050573D01*
X0605372Y0049574D01*
X0607371D01*
X0608371Y0048574D01*
Y0047574D01*
X0607371Y0046575D01*
X0605372D01*
X0604372Y0047574D01*
X0616368Y0052573D02*
X0618367D01*
X0617368D01*
Y0046575D01*
X0616368D01*
X0618367D01*
X0621366D02*
Y0052573D01*
X0625365Y0046575D01*
Y0052573D01*
X0631363Y0051573D02*
X0630364Y0052573D01*
X0628364D01*
X0627364Y0051573D01*
Y0050573D01*
X0628364Y0049574D01*
X0630364D01*
X0631363Y0048574D01*
Y0047574D01*
X0630364Y0046575D01*
X0628364D01*
X0627364Y0047574D01*
X0633362Y0052573D02*
X0637361D01*
X0635362D01*
Y0046575D01*
X0639361D02*
Y0052573D01*
X0642360D01*
X0643359Y0051573D01*
Y0049574D01*
X0642360Y0048574D01*
X0639361D01*
X0641360D02*
X0643359Y0046575D01*
X0645359Y0052573D02*
Y0047574D01*
X0646358Y0046575D01*
X0648358D01*
X0649357Y0047574D01*
Y0052573D01*
X0651357Y0046575D02*
Y0052573D01*
X0653356Y0050573D01*
X0655355Y0052573D01*
Y0046575D01*
X0661353Y0052573D02*
X0657355D01*
Y0046575D01*
X0661353D01*
X0657355Y0049574D02*
X0659354D01*
X0663353Y0046575D02*
Y0052573D01*
X0667351Y0046575D01*
Y0052573D01*
X0669351D02*
X0673350D01*
X0671350D01*
Y0046575D01*
X0679348Y0051573D02*
X0678348Y0052573D01*
X0676349D01*
X0675349Y0051573D01*
Y0050573D01*
X0676349Y0049574D01*
X0678348D01*
X0679348Y0048574D01*
Y0047574D01*
X0678348Y0046575D01*
X0676349D01*
X0675349Y0047574D01*
X0293880Y0073106D02*
X0297878D01*
X0295879D01*
Y0067108D01*
X0299878Y0073106D02*
X0301877D01*
X0300877D01*
Y0067108D01*
X0299878D01*
X0301877D01*
X0304876Y0073106D02*
Y0067108D01*
X0307875D01*
X0308875Y0068108D01*
Y0072106D01*
X0307875Y0073106D01*
X0304876D01*
X0317872Y0067108D02*
Y0073106D01*
X0319871D02*
Y0067108D01*
X0316872Y0071107D02*
X0319871D01*
X0320871D01*
X0316872Y0069108D02*
X0320871D01*
X0322870Y0071107D02*
X0323870D01*
Y0070107D01*
X0322870D01*
Y0071107D01*
Y0068108D02*
X0323870D01*
Y0067108D01*
X0322870D01*
Y0068108D01*
X0348430Y0067108D02*
Y0068108D01*
X0349429D01*
Y0067108D01*
X0348430D01*
X0353428Y0073106D02*
X0357427D01*
X0355427D01*
Y0067108D01*
X0359426Y0073106D02*
X0361425D01*
X0360426D01*
Y0067108D01*
X0359426D01*
X0361425D01*
X0364424Y0073106D02*
Y0067108D01*
X0367424D01*
X0368423Y0068108D01*
Y0072106D01*
X0367424Y0073106D01*
X0364424D01*
X0127080Y0067008D02*
Y0073006D01*
X0129079Y0071007D01*
X0131078Y0073006D01*
Y0067008D01*
X0133078D02*
X0135077D01*
X0134077D01*
Y0073006D01*
X0133078Y0072006D01*
X0138076Y0067008D02*
X0140075D01*
X0139076D01*
Y0073006D01*
X0138076Y0072006D01*
X0153071D02*
X0152072Y0073006D01*
X0150072D01*
X0149073Y0072006D01*
Y0068008D01*
X0150072Y0067008D01*
X0152072D01*
X0153071Y0068008D01*
Y0070007D01*
X0151072D01*
X0158070Y0067008D02*
X0156070D01*
X0155071Y0068008D01*
Y0070007D01*
X0156070Y0071007D01*
X0158070D01*
X0159069Y0070007D01*
Y0069007D01*
X0155071D01*
X0161069Y0071007D02*
Y0067008D01*
Y0069007D01*
X0162068Y0070007D01*
X0163068Y0071007D01*
X0164068D01*
X0167067Y0073006D02*
Y0067008D01*
X0170066D01*
X0171065Y0068008D01*
Y0069007D01*
Y0070007D01*
X0170066Y0071007D01*
X0167067D01*
X0176064Y0067008D02*
X0174064D01*
X0173065Y0068008D01*
Y0070007D01*
X0174064Y0071007D01*
X0176064D01*
X0177064Y0070007D01*
Y0069007D01*
X0173065D01*
X0179063Y0071007D02*
Y0067008D01*
Y0069007D01*
X0180062Y0070007D01*
X0181062Y0071007D01*
X0182062D01*
X0191059Y0073006D02*
X0193058D01*
X0192059D01*
Y0067008D01*
X0191059D01*
X0193058D01*
X0196057D02*
Y0071007D01*
X0199056D01*
X0200056Y0070007D01*
Y0067008D01*
X0203055D02*
Y0072006D01*
Y0070007D01*
X0202055D01*
X0204055D01*
X0203055D01*
Y0072006D01*
X0204055Y0073006D01*
X0208053Y0067008D02*
X0210053D01*
X0211052Y0068008D01*
Y0070007D01*
X0210053Y0071007D01*
X0208053D01*
X0207054Y0070007D01*
Y0068008D01*
X0208053Y0067008D01*
X0213052Y0071007D02*
Y0067008D01*
Y0069007D01*
X0214052Y0070007D01*
X0215051Y0071007D01*
X0216051D01*
X0219050Y0067008D02*
Y0071007D01*
X0220050D01*
X0221049Y0070007D01*
Y0067008D01*
Y0070007D01*
X0222049Y0071007D01*
X0223049Y0070007D01*
Y0067008D01*
X0226048Y0071007D02*
X0228047D01*
X0229047Y0070007D01*
Y0067008D01*
X0226048D01*
X0225048Y0068008D01*
X0226048Y0069007D01*
X0229047D01*
X0232046Y0072006D02*
Y0071007D01*
X0231046D01*
X0233045D01*
X0232046D01*
Y0068008D01*
X0233045Y0067008D01*
X0236044D02*
X0238044D01*
X0237044D01*
Y0071007D01*
X0236044D01*
X0242042Y0067008D02*
X0244042D01*
X0245041Y0068008D01*
Y0070007D01*
X0244042Y0071007D01*
X0242042D01*
X0241043Y0070007D01*
Y0068008D01*
X0242042Y0067008D01*
X0247041D02*
Y0071007D01*
X0250040D01*
X0251040Y0070007D01*
Y0067008D01*
G54D31*
X0497080Y0080325D02*
Y0100658D01*
X0413080Y0080325D02*
Y0100658D01*
X0039880Y0080325D02*
X0700080D01*
X0039880Y0059992D02*
X0699880D01*
X0039880Y0039658D02*
X0440380D01*
X0039930Y0100658D02*
X0700080D01*
X0039930Y0039658D02*
Y0100658D01*
Y0039658D02*
X0197480D01*
X0039880D02*
Y0100658D01*
X0286380Y0039658D02*
Y0100658D01*
X0700080Y0039658D02*
Y0100658D01*
X0440380Y0039658D02*
X0700080D01*
X0559280Y0039008D02*
Y0059292D01*
G54D35*
X0137654Y0247849D02*
D03*
Y0253755D02*
D03*
G54D36*
Y0261033D02*
D03*
Y0257096D02*
D03*
X0278058Y0500530D02*
D03*
Y0504467D02*
D03*
X0288665Y0500432D02*
D03*
Y0504369D02*
D03*
X0293980Y0500440D02*
D03*
Y0504377D02*
D03*
X0324432Y0455944D02*
D03*
Y0459881D02*
D03*
G54D37*
X0227883Y0304582D02*
D03*
X0225099Y0307366D02*
D03*
X0252972Y0313651D02*
D03*
X0250188Y0316435D02*
D03*
G54D42*
X0272748Y0487908D02*
D03*
X0268811D02*
D03*
X0302166Y0410880D02*
D03*
X0306103D02*
D03*
X0267298Y0387846D02*
D03*
X0263361D02*
D03*
X0271991Y0463219D02*
D03*
X0268054D02*
D03*
X0301677Y0451436D02*
D03*
X0297740D02*
D03*
X0293684D02*
D03*
X0289747D02*
D03*
X0290185Y0323053D02*
D03*
X0294122D02*
D03*
G54D47*
X0273511Y0442327D02*
D03*
X0275480D02*
D03*
X0277448Y0442327D02*
D03*
Y0444689D02*
D03*
X0275480D02*
D03*
G54D48*
X0273511Y0444591D02*
D03*
G54D68*
X0280997Y0452970D02*
D03*
Y0448246D02*
D03*
X0332180Y0404389D02*
D03*
Y0399665D02*
D03*
X0283062Y0504510D02*
D03*
Y0499786D02*
D03*
X0316984Y0490298D02*
D03*
Y0485573D02*
D03*
X0316901Y0475959D02*
D03*
Y0480684D02*
D03*
G54D71*
X0273740Y0493050D02*
D03*
X0269015D02*
D03*
G54D77*
X0154280Y0499513D02*
D03*
X0187742D02*
D03*
G54D78*
X0147980Y0517408D02*
D03*
X0194043Y0517408D02*
D03*
G54D87*
X0327980Y0232277D02*
D03*
X0133767Y0494596D02*
D03*
X0147980Y0232675D02*
D03*
G54D88*
X0272580Y0246008D02*
D03*
X0272580Y0252308D02*
D03*
X0272597Y0240025D02*
D03*
Y0233726D02*
D03*
X0310630Y0231189D02*
D03*
Y0237488D02*
D03*
Y0243659D02*
D03*
Y0249958D02*
D03*
X0296024Y0404414D02*
D03*
Y0398114D02*
D03*
X0236144Y0269151D02*
D03*
X0236144Y0275451D02*
D03*
X0221672Y0275451D02*
D03*
Y0269151D02*
D03*
G54D89*
X0326929Y0404709D02*
D03*
X0320630D02*
D03*
X0152430Y0401408D02*
D03*
X0158729Y0401408D02*
D03*
G54D93*
X0132980Y0514908D02*
D03*
X0342980D02*
D03*
G54D94*
X0132980D02*
D03*
X0342980Y0234908D02*
D03*
X0342980Y0514908D02*
D03*
X0132980Y0234908D02*
D03*
G54D95*
X0147980Y0243408D02*
D03*
X0200180Y0261908D02*
D03*
X0327980Y0243408D02*
D03*
G54D96*
X0147980Y0253408D02*
D03*
Y0263408D02*
D03*
X0200180Y0251908D02*
D03*
X0217900Y0234506D02*
D03*
X0227900D02*
D03*
X0237900D02*
D03*
X0247900D02*
D03*
X0327980Y0263408D02*
D03*
Y0253408D02*
D03*
G54D97*
X0252030Y0336711D02*
D03*
X0198680Y0236130D02*
D03*
X0185869Y0235780D02*
D03*
X0273962Y0329208D02*
D03*
X0213313Y0288608D02*
D03*
G54D98*
X0257900Y0234506D02*
D03*
X0157980Y0393408D02*
D03*
G54D99*
X0342358Y0397881D02*
D03*
Y0406936D02*
D03*
G54D100*
X0155283Y0500184D02*
D03*
X0186740D02*
D03*
G54D101*
X0154003Y0497822D02*
D03*
X0188019D02*
D03*
G54D102*
X0147980Y0518688D02*
D03*
X0194043D02*
D03*
G54D103*
X0147980Y0373408D02*
D03*
G54D104*
Y0363408D02*
D03*
Y0353408D02*
D03*
Y0343408D02*
D03*
Y0333408D02*
D03*
Y0323408D02*
D03*
Y0313408D02*
D03*
Y0303408D02*
D03*
Y0293408D02*
D03*
Y0283408D02*
D03*
X0157980Y0373408D02*
D03*
Y0363408D02*
D03*
Y0353408D02*
D03*
Y0343408D02*
D03*
Y0333408D02*
D03*
Y0323408D02*
D03*
Y0313408D02*
D03*
Y0303408D02*
D03*
Y0293408D02*
D03*
Y0283408D02*
D03*
X0317980Y0373408D02*
D03*
Y0363408D02*
D03*
Y0353408D02*
D03*
Y0343408D02*
D03*
Y0333408D02*
D03*
Y0323408D02*
D03*
Y0313408D02*
D03*
Y0303408D02*
D03*
Y0293408D02*
D03*
Y0283408D02*
D03*
X0327980Y0373408D02*
D03*
Y0363408D02*
D03*
Y0353408D02*
D03*
Y0343408D02*
D03*
Y0333408D02*
D03*
Y0323408D02*
D03*
Y0313408D02*
D03*
Y0303408D02*
D03*
Y0293408D02*
D03*
Y0283408D02*
D03*
G54D105*
X0208094Y0420408D02*
D03*
X0285813D02*
D03*
G54D106*
X0218094D02*
D03*
X0208094Y0410408D02*
D03*
X0218094D02*
D03*
X0235813D02*
D03*
X0245813D02*
D03*
X0255813D02*
D03*
X0265813D02*
D03*
X0275813D02*
D03*
X0285813D02*
D03*
X0235813Y0420408D02*
D03*
X0245813D02*
D03*
X0255813D02*
D03*
X0265813D02*
D03*
X0275813D02*
D03*
G54D107*
X0147980Y0393408D02*
D03*
G54D133*
X0158532Y0407308D02*
D03*
X0152627D02*
D03*
X0314677Y0391553D02*
D03*
X0308772D02*
D03*
G54D134*
X0252018Y0320620D02*
D03*
X0256194Y0324796D02*
D03*
X0268592Y0315920D02*
D03*
X0272767Y0320096D02*
D03*
X0211235Y0310496D02*
D03*
X0207059Y0306320D02*
D03*
G54D135*
X0218600Y0304544D02*
D03*
X0222776Y0300368D02*
D03*
X0220579Y0310520D02*
D03*
X0216403Y0314696D02*
D03*
G54D136*
X0139279Y0407025D02*
D03*
Y0399938D02*
D03*
G54D137*
X0165791Y0424047D02*
D03*
Y0421488D02*
D03*
Y0418929D02*
D03*
Y0416370D02*
D03*
X0154768D02*
D03*
Y0418929D02*
D03*
Y0421488D02*
D03*
Y0424047D02*
D03*
G54D138*
X0160280Y0420208D02*
D03*
G54D140*
X0300661Y0262544D02*
D03*
X0298102D02*
D03*
X0295543D02*
D03*
X0292984D02*
D03*
X0290425D02*
D03*
X0287866D02*
D03*
X0285307D02*
D03*
X0282748D02*
D03*
Y0239709D02*
D03*
X0285307D02*
D03*
X0287866D02*
D03*
X0290425D02*
D03*
X0292984D02*
D03*
X0295543D02*
D03*
X0298102D02*
D03*
X0300661D02*
D03*
G54D142*
X0302898Y0404780D02*
D03*
Y0401040D02*
D03*
X0302898Y0397300D02*
D03*
X0313135Y0397300D02*
D03*
Y0401040D02*
D03*
Y0404780D02*
D03*
G54D144*
X0249972Y0330200D02*
D03*
X0247188Y0327416D02*
D03*
G54D147*
X0260851Y0329434D02*
D03*
X0266508Y0323777D02*
D03*
X0212162Y0301237D02*
D03*
X0217819Y0295580D02*
D03*
G54D148*
X0247068Y0299179D02*
D03*
X0250409Y0302519D02*
D03*
G54D149*
X0145542Y0403407D02*
D03*
X0145542Y0404982D02*
D03*
X0145542Y0406556D02*
D03*
X0147117Y0403407D02*
D03*
X0147117Y0404982D02*
D03*
X0147117Y0406556D02*
D03*
M02*
